v -0.5 1 0.866025 1 0 0
v -2 1 1.73205 1 0 0
v -1.7 1 1.90526 1 0 0
v -0.5 1 1.21244 1 0 0
v -1.7 0 1.90526 0 0 1
v -0.5 0 1.21244 0 0 1
v -0.5 1 1.21244 0 0 1
v -1.7 1 1.90526 0 0 1
v 2.5 1 1.21244 1 0 0
v 2.8 1 1.03923 1 0 0
v 2.5 1 0.866025 1 0 0
v 2.8 1 1.03923 0 0 1
v 2.5 1 1.21244 0 0 1
v 2.5 0 1.21244 0 0 1
v 2.8 0 1.03923 0 0 1
v 1.3 1 -1.55885 1 0 0
v 1.3 1 -1.90526 1 0 0
v 1 1 -1.73205 1 0 0
v 1.3 1 -1.90526 0 0 1
v 1.3 1 -1.55885 0 0 1
v 1.3 0 -1.55885 0 0 1
v 1.3 0 -1.90526 0 0 1
v -2 1 0 1 0 0
v -2.3 1 0.173205 1 0 0
v -2.3 1 1.55885 1 0 0
v -2.3 0 0.173205 0 0 1
v -2.3 0 1.55885 0 0 1
v -2.3 1 1.55885 0 0 1
v -2.3 1 0.173205 0 0 1
v 1 1 1.73205 1 0 0
v 0.7 1 1.90526 1 0 0
v 0.7 0 1.90526 0 0 1
v 0.7 1 1.90526 0 0 1
v 1 1 -2.07846 1 0 0
v 1 1 -2.07846 0 0 1
v 1 0 -2.07846 0 0 1
v -2.3 1 -0.173205 1 0 0
v -2.3 1 -0.173205 0 0 1
v -2.3 0 -0.173205 0 0 1
v -0.5 1 -0.866025 1 0 0
v -0.8 1 -1.03923 1 0 0
v -2 1 -0.34641 1 0 0
v -0.8 0 -1.03923 0 0 1
v -2 0 -0.34641 0 0 1
v -2 1 -0.34641 0 0 1
v -0.8 1 -1.03923 0 0 1
v 1 1 2.07846 1 0 0
v 1.3 1 1.90526 1 0 0
v 1.3 1 1.90526 0 0 1
v 1 1 2.07846 0 0 1
v 1 0 2.07846 0 0 1
v 1.3 0 1.90526 0 0 1
v 1 1 0 1 0 0
v 1.3 1 -0.173205 1 0 0
v 1.3 0 -0.173205 0 0 1
v 1.3 1 -0.173205 0 0 1
v 2.5 1 0.519615 1 0 0
v 2.5 0 0.519615 0 0 1
v 2.5 1 0.519615 0 0 1
v -2 1 2.07846 1 0 0
v -2 1 2.07846 0 0 1
v -2 0 2.07846 0 0 1
v -0.5 1 -2.59808 1 0 0
v -0.2 1 -2.77128 1 0 0
v -0.2 0 -2.77128 0 0 1
v -0.2 1 -2.77128 0 0 1
v 2.8 1 0.69282 1 0 0
v 2.8 1 0.69282 0 0 1
v 2.8 0 0.69282 0 0 1
v -2.3 1 1.90526 1 0 0
v -2.3 1 1.90526 0 0 1
v -2.3 0 1.90526 0 0 1
v -0.8 1 -2.42487 1 0 0
v -0.8 0 -2.42487 0 0 1
v -0.8 1 -2.42487 0 0 1
v -0.5 1 -2.94449 1 0 0
v -0.8 1 -2.77128 1 0 0
v -0.8 1 -2.77128 0 0 1
v -0.5 1 -2.94449 0 0 1
v -0.5 0 -2.94449 0 0 1
v -0.8 0 -2.77128 0 0 1
v -2 1 1.73205 0 1 0
v -0.5 1 0.866025 0 1 0
v -2 1 0 0 1 0
v -0.5 1 -0.866025 0 1 0
v 1 1 0 0 1 0
v 1 1 1.73205 0 1 0
v 2.5 1 0.866025 0 1 0
v 1 1 -1.73205 0 1 0
v -0.5 1 -2.59808 0 1 0

f 1 2 3 4
f 5 6 7 8
f 9 10 11
f 12 13 14 15
f 16 17 18
f 19 20 21 22
f 2 23 24 25
f 26 27 28 29
f 30 1 4 31
f 6 32 33 7
f 17 34 18
f 35 19 22 36
f 37 24 23
f 29 38 39 26
f 23 40 41 42
f 43 44 45 46
f 47 48 30
f 49 50 51 52
f 18 53 54 16
f 55 21 20 56
f 11 30 48 9
f 52 14 13 49
f 42 37 23
f 38 45 44 39
f 53 11 57 54
f 58 55 56 59
f 60 3 2
f 8 61 62 5
f 63 18 34 64
f 36 65 66 35
f 10 67 11
f 68 12 15 69
f 70 60 2
f 61 71 72 62
f 25 70 2
f 71 28 27 72
f 31 47 30
f 50 33 32 51
f 40 63 73 41
f 74 43 46 75
f 76 77 63
f 78 79 80 81
f 64 76 63
f 79 66 65 80
f 67 57 11
f 59 68 69 58
f 77 73 63
f 75 78 81 74
f 82 83 84
f 85 84 83
f 83 86 85
f 87 88 86
f 86 83 87
f 89 85 86
f 85 89 90