v 4.3 1 0.173205 1 0 0
v 4.3 1 -0.173205 1 0 0
v 4 1 0 1 0 0
v 4.3 1 -0.173205 0 0 1
v 4.3 1 0.173205 0 0 1
v 4.3 0 0.173205 0 0 1
v 4.3 0 -0.173205 0 0 1
v 2.5 1 -0.866025 0 1 0
v 4 1 0 0 1 0
v 4 1 -0.34641 0 1 0
v 2.8 1 -1.03923 0 1 0
v 4 0 -0.34641 0 0 1
v 2.8 0 -1.03923 0 0 1
v 2.8 1 -1.03923 0 0 1
v 4 1 -0.34641 0 0 1
v 2.5 1 1.21244 1 0 0
v 2.8 1 1.03923 1 0 0
v 2.5 1 0.866025 1 0 0
v 2.8 1 1.03923 0 0 1
v 2.5 1 1.21244 0 0 1
v 2.5 0 1.21244 0 0 1
v 2.8 0 1.03923 0 0 1
v -0.8 1 1.03923 1 0 0
v -0.5 1 1.21244 1 0 0
v -0.5 1 0.866025 1 0 0
v -0.5 1 1.21244 0 0 1
v -0.8 1 1.03923 0 0 1
v -0.8 0 1.03923 0 0 1
v -0.5 0 1.21244 0 0 1
v 1 1 -1.73205 0 1 0
v 2.5 1 -1.21244 0 1 0
v 1.3 1 -1.90526 0 1 0
v 2.5 0 -1.21244 0 0 1
v 1.3 0 -1.90526 0 0 1
v 1.3 1 -1.90526 0 0 1
v 2.5 1 -1.21244 0 0 1
v 2.8 1 -1.03923 1 0 0
v 2.5 1 -1.21244 1 0 0
v 2.5 1 -0.866025 1 0 0
v 1 1 2.07846 1 0 0
v 1.3 1 1.90526 1 0 0
v 1 1 1.73205 1 0 0
v 1.3 1 1.90526 0 0 1
v 1 1 2.07846 0 0 1
v 1 0 2.07846 0 0 1
v 1.3 0 1.90526 0 0 1
v 1.3 1 -1.90526 1 0 0
v 1 1 -2.07846 1 0 0
v 1 1 -1.73205 1 0 0
v 1 1 -2.07846 0 0 1
v 1 0 -2.07846 0 0 1
v 0.7 1 1.90526 1 0 0
v 0.7 1 1.90526 0 0 1
v 0.7 0 1.90526 0 0 1
v 2.5 1 0.866025 0 1 0
v 1 1 1.73205 0 1 0
v 1.3 1 1.90526 0 1 0
v 2.5 1 1.21244 0 1 0
v -2.3 1 0.173205 1 0 0
v -2 1 0.34641 1 0 0
v -2 1 0 1 0 0
v -2 1 0.34641 0 0 1
v -2.3 1 0.173205 0 0 1
v -2.3 0 0.173205 0 0 1
v -2 0 0.34641 0 0 1
v -2.3 1 -0.173205 1 0 0
v -2.3 1 -0.173205 0 0 1
v -2.3 0 -0.173205 0 0 1
v -2 1 0 0 1 0
v -0.5 1 -0.866025 0 1 0
v -0.8 1 -1.03923 0 1 0
v -2 1 -0.34641 0 1 0
v -0.8 0 -1.03923 0 0 1
v -2 0 -0.34641 0 0 1
v -2 1 -0.34641 0 0 1
v -0.8 1 -1.03923 0 0 1
v -0.5 1 0.866025 0 1 0
v -2 1 0.34641 0 1 0
v -0.8 1 1.03923 0 1 0
v 0.7 1 -1.90526 0 1 0
v -0.5 1 -1.21244 0 1 0
v 0.7 0 -1.90526 0 0 1
v -0.5 0 -1.21244 0 0 1
v -0.5 1 -1.21244 0 0 1
v 0.7 1 -1.90526 0 0 1
v 4 1 0.34641 1 0 0
v 4 1 0.34641 0 0 1
v 4 0 0.34641 0 0 1
v 2.8 1 1.03923 0 1 0
v 4 1 0.34641 0 1 0
v 0.7 1 -1.90526 1 0 0
v -0.5 1 1.21244 0 1 0
v 0.7 1 1.90526 0 1 0
v 4 1 -0.34641 1 0 0
v -0.5 1 -1.21244 1 0 0
v -0.8 1 -1.03923 1 0 0
v -0.5 1 -0.866025 1 0 0
v -2 1 -0.34641 1 0 0

vt 1 0
vt 1 1
vt 0 0.5
vt 0 0
vt 0 1
vt 0 0.833333
vt 1 0.333333
vt 0.2 1
vt 1 0.5
vt 0 0.5
vt 0 0.833333
vt 1 0.333333
vt 0.2 1
vt 1 0.5
vt 1 0.5
vt 1 0.5
vt 0 0.5
vt 0 0.166667
vt 0.2 0
vt 1 0.666667
vt 1 0.5
vt 1 0.833333
vt 0.8 1
vt 0 0.333333
vt 1 0.166667
vt 0 0.666667
vt 0.8 0
vt 1 0.833333
vt 0.8 1
vt 0 0.333333
vt 0.2 0
vt 1 0.666667
vt 0 0.5
vt 0 0.666667
vt 0.8 0
vt 0 0.5

f 1/1 2/2 3/3
f 4/2 5/1 6/4 7/5
f 8/6 9/1 10/7 11/8
f 12/2 13/5 14/4 15/1
f 16/4 17/9 18/5
f 19/1 20/4 21/5 22/2
f 23/10 24/1 25/2
f 26/1 27/4 28/5 29/2
f 30/11 8/1 31/12 32/13
f 33/2 34/5 35/4 36/1
f 37/14 38/5 39/4
f 36/4 14/1 13/2 33/5
f 40/4 41/15 42/5
f 43/1 44/4 45/5 46/2
f 47/16 48/5 49/4
f 50/4 35/1 34/2 51/5
f 52/17 40/1 42/2
f 44/1 53/4 54/5 45/2
f 55/2 56/18 57/19 58/20
f 46/5 21/2 20/1 43/4
f 59/3 60/1 61/2
f 62/1 63/4 64/5 65/2
f 66/5 59/4 61/21
f 63/1 67/2 68/5 64/4
f 69/4 70/22 71/23 72/24
f 73/2 74/5 75/4 76/1
f 77/25 69/5 78/26 79/27
f 65/5 28/2 27/1 62/4
f 70/4 30/28 80/29 81/30
f 82/2 83/5 84/4 85/1
f 86/4 1/21 3/5
f 5/1 87/4 88/5 6/2
f 9/2 55/18 89/31 90/32
f 22/5 88/2 87/1 19/4
f 48/2 91/33 49/1
f 85/4 50/1 51/2 82/5
f 56/25 77/5 92/34 93/35
f 29/5 54/2 53/1 26/4
f 2/21 94/5 3/4
f 15/4 4/1 7/2 12/5
f 95/2 96/36 97/1
f 76/4 84/1 83/2 73/5
f 98/2 66/3 61/1
f 67/4 75/1 74/2 68/5