v 1 0 -1.73205 1 0.52549 0.439216
v -0.5 0 -2.59808 1 0.52549 0.439216
v 1 0.6 -1.73205 1 0.52549 0.439216
v -0.5 0 -0.866025 1 0.52549 0.439216
v 1 0 -1.73205 1 0.52549 0.439216
v 1 0 -1.6e-11 1 0.52549 0.439216
v -0.5 0 -0.866025 1 0.52549 0.439216
v 1 0.6 -1.73205 1 0.52549 0.439216
v 1 0.6 -1.6e-11 1 0.52549 0.439216
v -0.5 0 0.866025 1 0.52549 0.439216
v -0.5 0 -0.866025 1 0.52549 0.439216
v 1 0 -8e-12 1 0.52549 0.439216
v 1 0 8e-12 1 0.52549 0.439216
v 1 0 1.73205 1 0.52549 0.439216
v -0.5 0 0.866025 1 0.52549 0.439216
v 1 0.6 -8e-12 1 0.52549 0.439216
v 1 0.6 1.73205 1 0.52549 0.439216
v 1 0.6 8e-12 1 0.52549 0.439216
v 1 0.6 1.73205 1 0.52549 0.439216
v -0.5 0 0.866025 1 0.52549 0.439216
v -0.5 0 2.59808 1 0.52549 0.439216
v 1 0 1.73205 1 0.52549 0.439216

f 1 2 3
f 4 2 1
f 3 2 4
f 5 6 7
f 6 5 8 9
f 7 9 8
f 10 11 12
f 13 14 15
f 16 11 10
f 15 17 18
f 14 13 18 17
f 19 20 21
f 21 20 22
f 21 22 19