v -0.5 1 0.866025 1 0 0
v -2 1 0 1 0 0
v -2 1 0.34641 1 0 0
v -0.8 1 1.03923 1 0 0
v -2 0 0.34641 0 0 1
v -0.8 0 1.03923 0 0 1
v -0.8 1 1.03923 0 0 1
v -2 1 0.34641 0 0 1
v -2 1 -1.73205 1 0 0
v -0.5 1 -2.59808 1 0 0
v -0.8 1 -2.77128 1 0 0
v -2 1 -2.07846 1 0 0
v -0.8 0 -2.77128 0 0 1
v -2 0 -2.07846 0 0 1
v -2 1 -2.07846 0 0 1
v -0.8 1 -2.77128 0 0 1
v 1.3 1 0.173205 1 0 0
v 1.3 1 -0.173205 1 0 0
v 1 1 0 1 0 0
v 1.3 1 -0.173205 0 0 1
v 1.3 1 0.173205 0 0 1
v 1.3 0 0.173205 0 0 1
v 1.3 0 -0.173205 0 0 1
v 1 1 1.73205 1 0 0
v 1.3 1 1.55885 1 0 0
v 1.3 0 1.55885 0 0 1
v 1.3 1 1.55885 0 0 1
v -0.5 1 1.21244 1 0 0
v -0.5 1 1.21244 0 0 1
v -0.5 0 1.21244 0 0 1
v -0.2 1 -2.77128 1 0 0
v -0.5 1 -2.94449 1 0 0
v -0.5 1 -2.94449 0 0 1
v -0.2 1 -2.77128 0 0 1
v -0.2 0 -2.77128 0 0 1
v -0.5 0 -2.94449 0 0 1
v -2.3 1 -0.173205 1 0 0
v -2.3 1 0.173205 1 0 0
v -2.3 1 0.173205 0 0 1
v -2.3 1 -0.173205 0 0 1
v -2.3 0 -0.173205 0 0 1
v -2.3 0 0.173205 0 0 1
v 0.7 1 1.90526 1 0 0
v 0.7 0 1.90526 0 0 1
v 0.7 1 1.90526 0 0 1
v 1 1 -1.73205 1 0 0
v 1 1 -2.07846 1 0 0
v 1 0 -2.07846 0 0 1
v 1 1 -2.07846 0 0 1
v -2.3 1 -1.90526 1 0 0
v -2.3 1 -1.90526 0 0 1
v -2.3 0 -1.90526 0 0 1
v -2.3 1 -1.55885 1 0 0
v -2.3 0 -1.55885 0 0 1
v -2.3 1 -1.55885 0 0 1
v 1.3 1 -1.90526 1 0 0
v 1.3 1 -1.90526 0 0 1
v 1.3 0 -1.90526 0 0 1
v 1 1 2.07846 1 0 0
v 1 1 2.07846 0 0 1
v 1 0 2.07846 0 0 1
v 1.3 1 -1.55885 1 0 0
v 1.3 1 -1.55885 0 0 1
v 1.3 0 -1.55885 0 0 1
v 1.3 1 1.90526 1 0 0
v 1.3 1 1.90526 0 0 1
v 1.3 0 1.90526 0 0 1
v 1 1 0 0 1 0
v -0.5 1 0.866025 0 1 0
v 1 1 1.73205 0 1 0
v -0.5 1 -0.866025 0 1 0
v -2 1 0 0 1 0
v -2 1 -1.73205 0 1 0
v -0.5 1 -2.59808 0 1 0
v 1 1 -1.73205 0 1 0

f 1 2 3 4
f 5 6 7 8
f 9 10 11 12
f 13 14 15 16
f 17 18 19
f 20 21 22 23
f 19 24 25 17
f 26 22 21 27
f 4 28 1
f 29 7 6 30
f 31 32 10
f 33 34 35 36
f 37 38 2
f 39 40 41 42
f 24 1 28 43
f 30 44 45 29
f 10 46 47 31
f 48 35 34 49
f 12 50 9
f 51 15 14 52
f 2 9 53 37
f 54 41 40 55
f 56 47 46
f 49 57 58 48
f 43 59 24
f 60 45 44 61
f 32 11 10
f 16 33 36 13
f 62 56 46
f 57 63 64 58
f 50 53 9
f 55 51 52 54
f 38 3 2
f 8 39 42 5
f 65 25 24
f 27 66 67 26
f 46 19 18 62
f 23 64 63 20
f 59 65 24
f 66 60 61 67
f 68 69 70
f 69 68 71
f 71 72 69
f 72 71 73
f 74 73 71
f 75 71 68
f 71 75 74