v -0.3125 0 0.757772 0.729412 0.74902 0.580392
v -0.5 0 0.649519 0.729412 0.74902 0.580392
v -0.5 0.02 0.649519 0.729412 0.74902 0.580392
v -0.3125 0.02 0.757772 0.729412 0.74902 0.580392
v -0.375 0 0.649519 0.662745 0.545098 0.462745
v -0.5 0 0.649519 0.662745 0.545098 0.462745
v -0.5 0.02 0.649519 0.662745 0.545098 0.462745
v -0.375 0.02 0.649519 0.662745 0.545098 0.462745
v -0.3125 0 0.757772 0.662745 0.545098 0.462745
v -0.3125 0.02 0.757772 0.662745 0.545098 0.462745
v -0.125 0 0.649519 0.662745 0.545098 0.462745
v -0.3125 0 0.541266 0.662745 0.545098 0.462745
v -0.3125 0.02 0.541266 0.662745 0.545098 0.462745
v -0.125 0.02 0.649519 0.662745 0.545098 0.462745
v -0.5 0 0.649519 0.74902 0.635294 0.54902
v -0.3125 0 0.541266 0.74902 0.635294 0.54902
v -0.3125 0.02 0.541266 0.74902 0.635294 0.54902
v -0.5 0.02 0.649519 0.74902 0.635294 0.54902
v -0.5 0 0.433013 0.74902 0.635294 0.54902
v -0.5 0.02 0.433013 0.74902 0.635294 0.54902
v -0.125 0 0.433013 0.662745 0.545098 0.462745
v -0.125 0.02 0.433013 0.662745 0.545098 0.462745
v -0.25 0 0.433013 0.662745 0.545098 0.462745
v -0.25 0.02 0.433013 0.662745 0.545098 0.462745
v -0.125 0 0.216506 0.662745 0.545098 0.462745
v -0.3125 0 0.32476 0.662745 0.545098 0.462745
v -0.3125 0.02 0.32476 0.662745 0.545098 0.462745
v -0.125 0.02 0.216506 0.662745 0.545098 0.462745
v -0.3125 0 0.32476 0.74902 0.635294 0.54902
v -0.3125 0.02 0.32476 0.74902 0.635294 0.54902
v -0.5 0.02 0.866025 0.729412 0.74902 0.580392
v -0.125 0.02 0.649519 0.74902 0.635294 0.54902
v 0.0625 0.02 0.541266 0.74902 0.635294 0.54902
v -0.125 0.02 0.433013 0.74902 0.635294 0.54902
v -0.5 0 0.866025 0.729412 0.74902 0.580392
v 0.0625 0 0.541266 0.74902 0.635294 0.54902
v -0.125 0 0.433013 0.74902 0.635294 0.54902
v -0.125 0 0.649519 0.74902 0.635294 0.54902
v 0 0 0.433013 0.662745 0.545098 0.462745
v 0 0.02 0.433013 0.662745 0.545098 0.462745
v 0.0625 0 0.541266 0.662745 0.545098 0.462745
v 0.0625 0.02 0.541266 0.662745 0.545098 0.462745
v 0.0625 0 0.32476 0.662745 0.545098 0.462745
v 0.0625 0.02 0.32476 0.662745 0.545098 0.462745
v 0.25 0.02 0.433013 0.662745 0.545098 0.462745
v 0.25 0 0.433013 0.662745 0.545098 0.462745
v -0.125 0 0.216506 0.74902 0.635294 0.54902
v 0.0625 0 0.32476 0.74902 0.635294 0.54902
v 0.0625 0.02 0.32476 0.74902 0.635294 0.54902
v -0.125 0.02 0.216506 0.74902 0.635294 0.54902
v -0.5 0 0.433013 0.662745 0.545098 0.462745
v -0.5 0.02 0.433013 0.662745 0.545098 0.462745
v -0.5 0 0.216506 0.662745 0.545098 0.462745
v -0.5 0.02 0.216506 0.662745 0.545098 0.462745
v -0.375 0 0.216506 0.662745 0.545098 0.462745
v -0.375 0.02 0.216506 0.662745 0.545098 0.462745
v -0.3125 0 0.108253 0.74902 0.635294 0.54902
v -0.3125 0.02 0.108253 0.74902 0.635294 0.54902
v -0.3125 0 0.108253 0.662745 0.545098 0.462745
v -0.3125 0.02 0.108253 0.662745 0.545098 0.462745
v -0.5 0.02 0 0.662745 0.545098 0.462745
v -0.5 0 0 0.662745 0.545098 0.462745
v -0.3125 0 0.108253 0.729412 0.74902 0.580392
v -0.125 0 0.216506 0.729412 0.74902 0.580392
v -0.125 0.02 0.216506 0.729412 0.74902 0.580392
v -0.3125 0.02 0.108253 0.729412 0.74902 0.580392

f 1 2 3 4
f 5 6 7 8
f 6 9 10 7
f 9 5 8 10
f 11 12 13 14
f 12 9 10 13
f 5 9 10 8
f 9 12 13 10
f 12 5 8 13
f 15 16 17 18
f 16 19 20 17
f 5 12 13 8
f 12 6 7 13
f 6 5 8 7
f 11 21 22 14
f 21 12 13 22
f 12 11 14 13
f 23 12 13 24
f 12 21 22 13
f 21 23 24 22
f 25 26 27 28
f 26 21 22 27
f 21 25 28 22
f 23 21 22 24
f 21 26 27 22
f 26 23 24 27
f 19 16 17 20
f 16 29 30 17
f 29 19 20 30
f 23 26 27 24
f 26 12 13 27
f 12 23 24 13
f 31 4 3
f 8 7 10
f 14 13 10
f 8 10 13
f 20 18 17
f 8 13 7
f 14 22 13
f 24 13 22
f 28 27 22
f 24 22 27
f 20 17 30
f 24 27 13
f 32 33 34
f 35 1 4 31
f 9 11 14 10
f 2 35 31 3
f 19 15 18 20
f 2 1 35
f 9 6 5
f 9 12 11
f 12 9 5
f 16 15 19
f 6 12 5
f 12 21 11
f 21 12 23
f 21 26 25
f 26 21 23
f 29 16 19
f 12 26 23
f 36 37 34 33
f 37 38 32 34
f 39 21 22 40
f 21 41 42 22
f 41 39 40 42
f 43 41 42 44
f 39 41 42 40
f 41 43 44 42
f 43 39 40 44
f 25 21 22 28
f 21 43 44 22
f 39 43 44 40
f 43 21 22 44
f 21 39 40 22
f 40 22 42
f 45 44 42
f 40 42 44
f 28 22 44
f 40 44 22
f 38 36 33 32
f 41 46 45 42
f 46 43 44 45
f 43 25 28 44
f 43 46 45 44
f 47 48 49 50
f 37 36 38
f 41 21 39
f 41 43 46
f 43 41 39
f 43 21 25
f 21 43 39
f 51 26 27 52
f 26 53 54 27
f 55 53 54 56
f 53 26 27 54
f 26 55 56 27
f 57 29 30 58
f 29 47 50 30
f 55 26 27 56
f 26 59 60 27
f 59 55 56 60
f 53 59 60 54
f 55 59 60 56
f 59 53 54 60
f 53 55 56 54
f 52 27 54
f 56 54 27
f 50 58 30
f 56 27 60
f 61 54 60
f 56 60 54
f 53 51 52 54
f 62 53 54 61
f 47 57 58 50
f 59 62 61 60
f 63 64 65 66
f 53 26 51
f 26 53 55
f 29 57 47
f 59 26 55
f 59 53 62
f 53 59 55
f 62 59 60 61