v -0.5 1 0.866025 1 0 0
v -2 1 0 1 0 0
v -2 1 0.34641 1 0 0
v -0.8 1 1.03923 1 0 0
v -2 0 0.34641 0 0 1
v -0.8 0 1.03923 0 0 1
v -0.8 1 1.03923 0 0 1
v -2 1 0.34641 0 0 1
v 2.5 1 1.21244 1 0 0
v 2.8 1 1.03923 1 0 0
v 2.5 1 0.866025 1 0 0
v 2.8 1 1.03923 0 0 1
v 2.5 1 1.21244 0 0 1
v 2.5 0 1.21244 0 0 1
v 2.8 0 1.03923 0 0 1
v -2 1 -1.73205 1 0 0
v -0.5 1 -2.59808 1 0 0
v -0.8 1 -2.77128 1 0 0
v -2 1 -2.07846 1 0 0
v -0.8 0 -2.77128 0 0 1
v -2 0 -2.07846 0 0 1
v -2 1 -2.07846 0 0 1
v -0.8 1 -2.77128 0 0 1
v 1 1 0 1 0 0
v 2.5 1 0.519615 1 0 0
v 1.3 1 -0.173205 1 0 0
v 2.5 0 0.519615 0 0 1
v 1.3 0 -0.173205 0 0 1
v 1.3 1 -0.173205 0 0 1
v 2.5 1 0.519615 0 0 1
v -0.5 1 1.21244 1 0 0
v -0.5 1 1.21244 0 0 1
v -0.5 0 1.21244 0 0 1
v -0.2 1 -2.77128 1 0 0
v -0.5 1 -2.94449 1 0 0
v -0.5 1 -2.94449 0 0 1
v -0.2 1 -2.77128 0 0 1
v -0.2 0 -2.77128 0 0 1
v -0.5 0 -2.94449 0 0 1
v -2.3 1 -0.173205 1 0 0
v -2.3 1 0.173205 1 0 0
v -2.3 1 0.173205 0 0 1
v -2.3 1 -0.173205 0 0 1
v -2.3 0 -0.173205 0 0 1
v -2.3 0 0.173205 0 0 1
v -2.3 1 -1.55885 1 0 0
v -2.3 0 -1.55885 0 0 1
v -2.3 1 -1.55885 0 0 1
v 1 1 1.73205 1 0 0
v 0.7 1 1.90526 1 0 0
v 0.7 0 1.90526 0 0 1
v 0.7 1 1.90526 0 0 1
v 1 1 -1.73205 1 0 0
v 1 1 -2.07846 1 0 0
v 1 0 -2.07846 0 0 1
v 1 1 -2.07846 0 0 1
v -2.3 1 -1.90526 1 0 0
v -2.3 1 -1.90526 0 0 1
v -2.3 0 -1.90526 0 0 1
v 1.3 1 -1.55885 1 0 0
v 1.3 1 -1.90526 1 0 0
v 1.3 1 -1.90526 0 0 1
v 1.3 1 -1.55885 0 0 1
v 1.3 0 -1.55885 0 0 1
v 1.3 0 -1.90526 0 0 1
v 1 1 2.07846 1 0 0
v 1 1 2.07846 0 0 1
v 1 0 2.07846 0 0 1
v 2.8 1 0.69282 1 0 0
v 2.8 1 0.69282 0 0 1
v 2.8 0 0.69282 0 0 1
v 1.3 1 1.90526 1 0 0
v 1.3 0 1.90526 0 0 1
v 1.3 1 1.90526 0 0 1
v 1 1 1.73205 0 1 0
v 2.5 1 0.866025 0 1 0
v 1 1 0 0 1 0
v -0.5 1 0.866025 0 1 0
v -0.5 1 -0.866025 0 1 0
v -2 1 0 0 1 0
v 1 1 -1.73205 0 1 0
v -0.5 1 -2.59808 0 1 0
v -2 1 -1.73205 0 1 0

f 1 2 3 4
f 5 6 7 8
f 9 10 11
f 12 13 14 15
f 16 17 18 19
f 20 21 22 23
f 24 11 25 26
f 27 28 29 30
f 4 31 1
f 32 7 6 33
f 34 35 17
f 36 37 38 39
f 40 41 2
f 42 43 44 45
f 2 16 46 40
f 47 44 43 48
f 49 1 31 50
f 33 51 52 32
f 17 53 54 34
f 55 38 37 56
f 19 57 16
f 58 22 21 59
f 60 61 53
f 62 63 64 65
f 61 54 53
f 56 62 65 55
f 50 66 49
f 67 52 51 68
f 10 69 11
f 70 12 15 71
f 35 18 17
f 23 36 39 20
f 57 46 16
f 48 58 59 47
f 41 3 2
f 8 42 45 5
f 11 49 72 9
f 73 14 13 74
f 53 24 26 60
f 28 64 63 29
f 66 72 49
f 74 67 68 73
f 69 25 11
f 30 70 71 27
f 75 76 77
f 77 78 75
f 78 77 79
f 79 80 78
f 81 79 77
f 79 81 82
f 82 83 79