v 0.625 0 -1.94856 1 0.52549 0.439216
v 0.25 0 -2.16506 1 0.52549 0.439216
v 0.25 0.45 -2.16506 1 0.52549 0.439216
v 0.625 0.45 -1.94856 1 0.52549 0.439216
v -0.125 0 -2.38157 1 0.52549 0.439216
v -0.125 0.3 -2.38157 1 0.52549 0.439216
v 0.25 0.3 -2.16506 1 0.52549 0.439216
v -0.5 0 -2.59808 1 0.52549 0.439216
v -0.5 0.15 -2.59808 1 0.52549 0.439216
v -0.125 0.15 -2.38157 1 0.52549 0.439216
v 0.625 0 -1.51554 1 0.52549 0.439216
v 1 0 -1.73205 1 0.52549 0.439216
v 0.25 0 -1.29904 1 0.52549 0.439216
v -0.125 0 -1.08253 1 0.52549 0.439216
v 1 0.6 -1.73205 1 0.52549 0.439216
v 0.625 0.6 -1.94856 1 0.52549 0.439216
v 0.625 0.6 -1.51554 1 0.52549 0.439216
v 0.625 0.45 -1.51554 1 0.52549 0.439216
v 0.25 0.45 -1.29904 1 0.52549 0.439216
v 0.25 0.3 -1.29904 1 0.52549 0.439216
v -0.125 0.3 -1.08253 1 0.52549 0.439216
v -0.125 0.15 -1.08253 1 0.52549 0.439216
v -0.5 0 -0.866025 1 0.52549 0.439216
v -0.5 0.15 -0.866025 1 0.52549 0.439216
v -0.125 0 -1.08253 1 0.52549 0.439216
v -0.125 0 -0.649519 1 0.52549 0.439216
v -0.5 0 -0.866025 1 0.52549 0.439216
v 0.25 0 -1.29904 1 0.52549 0.439216
v 0.25 0 -0.433013 1 0.52549 0.439216
v 0.625 0 -1.51554 1 0.52549 0.439216
v 0.625 0 -0.216506 1 0.52549 0.439216
v -0.5 0.15 -0.866025 1 0.52549 0.439216
v -0.125 0.15 -0.649519 1 0.52549 0.439216
v -0.125 0.15 -1.08253 1 0.52549 0.439216
v -0.125 0.3 -1.08253 1 0.52549 0.439216
v -0.125 0.3 -0.649519 1 0.52549 0.439216
v 0.25 0.45 -0.433013 1 0.52549 0.439216
v 0.625 0.45 -0.216506 1 0.52549 0.439216
v 0.625 0.45 -1.51554 1 0.52549 0.439216
v 0.25 0.45 -1.29904 1 0.52549 0.439216
v 0.25 0.3 -1.29904 1 0.52549 0.439216
v 0.25 0.3 -0.433013 1 0.52549 0.439216
v 0.625 0.6 -0.216506 1 0.52549 0.439216
v 0.625 0.6 -1.51554 1 0.52549 0.439216
v 1 0 -1.73205 1 0.52549 0.439216
v 1 0 -1.6e-11 1 0.52549 0.439216
v 0.625 0 0.216506 1 0.52549 0.439216
v 0.625 0 -0.216506 1 0.52549 0.439216
v 1 0 -8e-12 1 0.52549 0.439216
v 0.25 0 0.433013 1 0.52549 0.439216
v 0.25 0 -0.433013 1 0.52549 0.439216
v -0.125 0 0.649519 1 0.52549 0.439216
v -0.125 0 -0.649519 1 0.52549 0.439216
v 1 0.6 -1.6e-11 1 0.52549 0.439216
v 1 0.6 -1.73205 1 0.52549 0.439216
v -0.125 0.3 -0.649519 1 0.52549 0.439216
v -0.125 0.15 -0.649519 1 0.52549 0.439216
v -0.125 0.15 0.649519 1 0.52549 0.439216
v -0.125 0.3 0.649519 1 0.52549 0.439216
v 1 0.6 -8e-12 1 0.52549 0.439216
v 0.625 0.6 -0.216506 1 0.52549 0.439216
v 0.625 0.6 0.216506 1 0.52549 0.439216
v 0.625 0.45 -0.216506 1 0.52549 0.439216
v 0.625 0.45 0.216506 1 0.52549 0.439216
v 0.25 0.45 -0.433013 1 0.52549 0.439216
v 0.25 0.45 0.433013 1 0.52549 0.439216
v 0.25 0.3 -0.433013 1 0.52549 0.439216
v 0.25 0.3 0.433013 1 0.52549 0.439216
v 0.625 0 0.216506 1 0.52549 0.439216
v 1 0 8e-12 1 0.52549 0.439216
v 1 0 1.73205 1 0.52549 0.439216
v 0.625 0 1.51554 1 0.52549 0.439216
v 0.625 0.6 1.51554 1 0.52549 0.439216
v 1 0.6 1.73205 1 0.52549 0.439216
v 1 0.6 8e-12 1 0.52549 0.439216
v 0.625 0.6 0.216506 1 0.52549 0.439216
v -0.5 0 0.866025 1 0.52549 0.439216
v -0.5 0 -0.866025 1 0.52549 0.439216
v -0.5 0.15 0.866025 1 0.52549 0.439216
v -0.5 0.15 -0.866025 1 0.52549 0.439216
v -0.125 0 0.649519 1 0.52549 0.439216
v -0.125 0 1.08253 1 0.52549 0.439216
v -0.5 0 0.866025 1 0.52549 0.439216
v 0.25 0 0.433013 1 0.52549 0.439216
v 0.25 0 1.29904 1 0.52549 0.439216
v -0.5 0.15 0.866025 1 0.52549 0.439216
v -0.125 0.15 1.08253 1 0.52549 0.439216
v -0.125 0.15 0.649519 1 0.52549 0.439216
v -0.125 0.3 0.649519 1 0.52549 0.439216
v -0.125 0.3 1.08253 1 0.52549 0.439216
v 0.25 0.45 1.29904 1 0.52549 0.439216
v 0.625 0.45 1.51554 1 0.52549 0.439216
v 0.625 0.45 0.216506 1 0.52549 0.439216
v 0.25 0.45 0.433013 1 0.52549 0.439216
v 0.25 0.3 1.29904 1 0.52549 0.439216
v 0.25 0.3 0.433013 1 0.52549 0.439216
v 0.25 0 2.16506 1 0.52549 0.439216
v 0.625 0 1.94856 1 0.52549 0.439216
v 0.625 0.45 1.94856 1 0.52549 0.439216
v 0.25 0.45 2.16506 1 0.52549 0.439216
v -0.125 0 2.38157 1 0.52549 0.439216
v 0.25 0.3 2.16506 1 0.52549 0.439216
v -0.125 0.3 2.38157 1 0.52549 0.439216
v -0.5 0 2.59808 1 0.52549 0.439216
v -0.125 0.15 2.38157 1 0.52549 0.439216
v -0.5 0.15 2.59808 1 0.52549 0.439216
v 0.625 0 1.51554 1 0.52549 0.439216
v 1 0 1.73205 1 0.52549 0.439216
v 0.25 0 1.29904 1 0.52549 0.439216
v -0.125 0 1.08253 1 0.52549 0.439216
v -0.5 0 0.866025 1 0.52549 0.439216
v 1 0.6 1.73205 1 0.52549 0.439216
v 0.625 0.6 1.51554 1 0.52549 0.439216
v 0.625 0.6 1.94856 1 0.52549 0.439216
v 0.625 0.45 1.51554 1 0.52549 0.439216
v 0.25 0.45 1.29904 1 0.52549 0.439216
v -0.5 0.15 0.866025 1 0.52549 0.439216
v 0.25 0.3 1.29904 1 0.52549 0.439216
v -0.125 0.3 1.08253 1 0.52549 0.439216
v -0.125 0.15 1.08253 1 0.52549 0.439216

f 1 2 3 4
f 2 5 6 7
f 5 8 9 10
f 11 1 12
f 11 13 2 1
f 13 14 5 2
f 15 16 17
f 16 4 18 17
f 16 15 12 1
f 4 3 19 18
f 3 7 20 19
f 7 6 21 20
f 6 10 22 21
f 14 23 8 5
f 8 23 24 9
f 10 9 24 22
f 25 26 27
f 25 28 29 26
f 28 30 31 29
f 32 33 34
f 35 34 33 36
f 37 38 39 40
f 37 40 41 42
f 36 42 41 35
f 43 44 39 38
f 30 45 46 31
f 47 48 49
f 47 50 51 48
f 50 52 53 51
f 43 54 55 44
f 55 54 46 45
f 56 57 58 59
f 60 61 62
f 61 63 64 62
f 63 65 66 64
f 65 67 68 66
f 67 56 59 68
f 69 70 71 72
f 73 74 75 76
f 75 74 71 70
f 52 77 78 53
f 78 77 79 80
f 57 80 79 58
f 81 82 83
f 81 84 85 82
f 84 69 72 85
f 86 87 88
f 89 88 87 90
f 91 92 93 94
f 90 95 96 89
f 91 94 96 95
f 73 76 93 92
f 97 98 99 100
f 101 97 102 103
f 104 101 105 106
f 98 107 108
f 98 97 109 107
f 97 101 110 109
f 101 104 111 110
f 112 113 114
f 115 116 100 99
f 113 115 99 114
f 112 114 98 108
f 111 104 106 117
f 116 118 102 100
f 118 119 103 102
f 119 120 105 103
f 120 117 106 105