v 0.7 1 0.173205 1 0 0
v 1 1 0.34641 1 0 0
v 1 1 0 1 0 0
v 1 1 0.34641 0 0 1
v 0.7 1 0.173205 0 0 1
v 0.7 0 0.173205 0 0 1
v 1 0 0.34641 0 0 1
v -2.3 1 -1.55885 1 0 0
v -2 1 -1.38564 1 0 0
v -2 1 -1.73205 1 0 0
v -2 1 -1.38564 0 0 1
v -2.3 1 -1.55885 0 0 1
v -2.3 0 -1.55885 0 0 1
v -2 0 -1.38564 0 0 1
v 2.5 1 1.21244 1 0 0
v 2.8 1 1.03923 1 0 0
v 2.5 1 0.866025 1 0 0
v 2.8 1 1.03923 0 0 1
v 2.5 1 1.21244 0 0 1
v 2.5 0 1.21244 0 0 1
v 2.8 0 1.03923 0 0 1
v -2 1 -1.73205 0 1 0
v -2 1 -3.4641 0 1 0
v -2.3 1 -3.2909 0 1 0
v -2.3 1 -1.90526 0 1 0
v -2.3 0 -3.2909 0 0 1
v -2.3 0 -1.90526 0 0 1
v -2.3 1 -1.90526 0 0 1
v -2.3 1 -3.2909 0 0 1
v 4 1 0.34641 1 0 0
v 4.3 1 0.173205 1 0 0
v 4 1 0 1 0 0
v 4.3 1 0.173205 0 0 1
v 4 1 0.34641 0 0 1
v 4 0 0.34641 0 0 1
v 4.3 0 0.173205 0 0 1
v 1 1 0 0 1 0
v -0.5 1 -0.866025 0 1 0
v -0.5 1 -0.519615 0 1 0
v 0.7 1 0.173205 0 1 0
v -0.5 0 -0.519615 0 0 1
v -0.5 1 -0.519615 0 0 1
v -1.7 1 -3.63731 1 0 0
v -2 1 -3.81051 1 0 0
v -2 1 -3.4641 1 0 0
v -2 1 -3.81051 0 0 1
v -1.7 1 -3.63731 0 0 1
v -1.7 0 -3.63731 0 0 1
v -2 0 -3.81051 0 0 1
v -0.5 1 -2.59808 0 1 0
v -0.5 1 -2.94449 0 1 0
v -1.7 1 -3.63731 0 1 0
v -0.5 0 -2.94449 0 0 1
v -0.5 1 -2.94449 0 0 1
v 2.2 1 1.03923 1 0 0
v 2.2 1 1.03923 0 0 1
v 2.2 0 1.03923 0 0 1
v 4.3 1 -0.173205 1 0 0
v 4.3 1 -0.173205 0 0 1
v 4.3 0 -0.173205 0 0 1
v -2.3 1 -3.63731 1 0 0
v -2.3 1 -3.2909 1 0 0
v -2.3 1 -3.63731 0 0 1
v -2.3 0 -3.63731 0 0 1
v 2.5 1 0.866025 0 1 0
v 1 1 0.34641 0 1 0
v 2.2 1 1.03923 0 1 0
v 1 1 -1.73205 0 1 0
v 1 1 -2.07846 0 1 0
v -0.2 1 -2.77128 0 1 0
v 1 0 -2.07846 0 0 1
v -0.2 0 -2.77128 0 0 1
v -0.2 1 -2.77128 0 0 1
v 1 1 -2.07846 0 0 1
v 2.5 1 -0.866025 0 1 0
v 4 1 0 0 1 0
v 4 1 -0.34641 0 1 0
v 2.8 1 -1.03923 0 1 0
v 4 0 -0.34641 0 0 1
v 2.8 0 -1.03923 0 0 1
v 2.8 1 -1.03923 0 0 1
v 4 1 -0.34641 0 0 1
v -0.8 1 -0.69282 1 0 0
v -0.5 1 -0.519615 1 0 0
v -0.5 1 -0.866025 1 0 0
v -0.8 1 -0.69282 0 0 1
v -0.8 0 -0.69282 0 0 1
v 1.3 1 -1.90526 1 0 0
v 1 1 -2.07846 1 0 0
v 1 1 -1.73205 1 0 0
v 1.3 1 -1.90526 0 0 1
v 1.3 0 -1.90526 0 0 1
v -2.3 1 -1.90526 1 0 0
v -2 1 -1.38564 0 1 0
v -0.8 1 -0.69282 0 1 0
v 2.8 1 -1.03923 1 0 0
v 2.5 1 -1.21244 1 0 0
v 2.5 1 -0.866025 1 0 0
v 2.5 1 -1.21244 0 0 1
v 2.5 0 -1.21244 0 0 1
v 2.8 1 1.03923 0 1 0
v 4 1 0.34641 0 1 0
v -0.2 1 -2.77128 1 0 0
v -0.5 1 -2.94449 1 0 0
v -0.5 1 -2.59808 1 0 0
v 2.5 1 -1.21244 0 1 0
v 1.3 1 -1.90526 0 1 0
v 4 1 -0.34641 1 0 0

vt 0 0.5
vt 1 0
vt 1 1
vt 0 0
vt 0 1
vt 1 0.5
vt 0 0.9
vt 0 0.1
vt 1 0.5
vt 1 0.166667
vt 0 0.666667
vt 0.8 0
vt 0 0.833333
vt 1 0.333333
vt 0.2 1
vt 0 0.5
vt 1 0.5
vt 0 0.666667
vt 0.8 0
vt 1 0.333333
vt 0 0.833333
vt 1 0.333333
vt 0.2 1
vt 0 0.5
vt 1 0.5
vt 1 0.5
vt 0 0.666667
vt 1 0.5
vt 0 0.166667
vt 0.2 0
vt 1 0.666667
vt 1 0.5

f 1/1 2/2 3/3
f 4/2 5/4 6/5 7/3
f 8/1 9/2 10/3
f 11/2 12/4 13/5 14/3
f 15/4 16/6 17/5
f 18/2 19/4 20/5 21/3
f 22/2 23/3 24/7 25/8
f 26/5 27/4 28/2 29/3
f 30/4 31/9 32/5
f 33/2 34/4 35/5 36/3
f 37/10 38/5 39/11 40/12
f 41/5 6/3 5/2 42/4
f 43/9 44/5 45/4
f 46/4 47/2 48/3 49/5
f 23/13 50/2 51/14 52/15
f 53/3 48/5 47/4 54/2
f 55/16 15/2 17/3
f 19/2 56/4 57/5 20/3
f 31/2 58/3 32/1
f 59/3 33/2 36/4 60/5
f 61/5 62/4 45/17
f 29/2 63/3 64/5 26/4
f 65/10 37/5 66/18 67/19
f 7/5 57/3 56/2 4/4
f 50/13 68/2 69/20 70/15
f 71/3 72/5 73/4 74/2
f 75/21 76/2 77/22 78/23
f 79/3 80/5 81/4 82/2
f 83/24 84/2 85/3
f 42/2 86/4 87/5 41/3
f 88/25 89/5 90/4
f 74/4 91/2 92/3 71/5
f 93/5 8/4 10/26
f 12/2 28/3 27/5 13/4
f 38/10 22/5 94/27 95/19
f 14/5 87/3 86/2 11/4
f 96/28 97/5 98/4
f 99/4 81/2 80/3 100/5
f 44/3 61/1 45/2
f 63/4 46/2 49/3 64/5
f 76/3 65/29 101/30 102/31
f 21/5 35/3 34/2 18/4
f 103/32 104/5 105/4
f 54/4 73/2 72/3 53/5
f 68/13 75/2 106/14 107/15
f 100/3 92/5 91/4 99/2
f 58/9 108/5 32/4
f 82/4 59/2 60/3 79/5