v -0.5 1 -2.94449 1 0 0
v -0.8 1 -2.77128 1 0 0
v -0.5 1 -2.59808 1 0 0
v -0.8 1 -2.77128 0 0 1
v -0.5 1 -2.94449 0 0 1
v -0.5 0 -2.94449 0 0 1
v -0.8 0 -2.77128 0 0 1
v 2.8 1 -0.69282 1 0 0
v 2.8 1 -1.03923 1 0 0
v 2.5 1 -0.866025 1 0 0
v 2.8 1 -1.03923 0 0 1
v 2.8 1 -0.69282 0 0 1
v 2.8 0 -0.69282 0 0 1
v 2.8 0 -1.03923 0 0 1
v -0.8 1 1.03923 1 0 0
v -0.5 1 1.21244 1 0 0
v -0.5 1 0.866025 1 0 0
v -0.5 1 1.21244 0 0 1
v -0.8 1 1.03923 0 0 1
v -0.8 0 1.03923 0 0 1
v -0.5 0 1.21244 0 0 1
v 2.5 1 -1.21244 1 0 0
v 2.5 1 -1.21244 0 0 1
v 2.5 0 -1.21244 0 0 1
v -2.3 1 -1.90526 1 0 0
v -2.3 1 -1.55885 1 0 0
v -2 1 -1.73205 1 0 0
v -2.3 1 -1.55885 0 0 1
v -2.3 1 -1.90526 0 0 1
v -2.3 0 -1.90526 0 0 1
v -2.3 0 -1.55885 0 0 1
v -2 1 -2.07846 1 0 0
v -2 1 -2.07846 0 0 1
v -2 0 -2.07846 0 0 1
v 1 1 2.07846 1 0 0
v 1.3 1 1.90526 1 0 0
v 1 1 1.73205 1 0 0
v 1.3 1 1.90526 0 0 1
v 1 1 2.07846 0 0 1
v 1 0 2.07846 0 0 1
v 1.3 0 1.90526 0 0 1
v 1.3 1 -1.90526 1 0 0
v 1 1 -2.07846 1 0 0
v 1 1 -1.73205 1 0 0
v 1 1 -2.07846 0 0 1
v 1.3 1 -1.90526 0 0 1
v 1.3 0 -1.90526 0 0 1
v 1 0 -2.07846 0 0 1
v 1 1 -1.73205 0 1 0
v 2.5 1 -0.866025 0 1 0
v 2.5 1 -1.21244 0 1 0
v 1.3 1 -1.90526 0 1 0
v 1 1 0 0 1 0
v 1.3 1 0.173205 0 1 0
v 2.5 1 -0.519615 0 1 0
v 1.3 0 0.173205 0 0 1
v 2.5 0 -0.519615 0 0 1
v 2.5 1 -0.519615 0 0 1
v 1.3 1 0.173205 0 0 1
v 2.5 1 -0.519615 1 0 0
v 0.7 1 1.90526 1 0 0
v 0.7 1 1.90526 0 0 1
v 0.7 0 1.90526 0 0 1
v 1 1 1.73205 0 1 0
v 1.3 1 1.55885 0 1 0
v 1.3 0 1.55885 0 0 1
v 1.3 1 1.55885 0 0 1
v -2.3 1 0.173205 1 0 0
v -2 1 0.34641 1 0 0
v -2 1 0 1 0 0
v -2 1 0.34641 0 0 1
v -2.3 1 0.173205 0 0 1
v -2.3 0 0.173205 0 0 1
v -2 0 0.34641 0 0 1
v -0.5 1 0.866025 0 1 0
v -0.5 1 1.21244 0 1 0
v 0.7 1 1.90526 0 1 0
v -0.2 1 -2.77128 1 0 0
v -0.2 1 -2.77128 0 0 1
v -0.2 0 -2.77128 0 0 1
v -2.3 1 -0.173205 1 0 0
v -2.3 1 -0.173205 0 0 1
v -2.3 0 -0.173205 0 0 1
v -2 1 0 0 1 0
v -2 1 0.34641 0 1 0
v -0.8 1 1.03923 0 1 0
v -2 1 -1.73205 0 1 0
v -0.5 1 -2.59808 0 1 0
v -0.8 1 -2.77128 0 1 0
v -2 1 -2.07846 0 1 0
v 1 1 -2.07846 0 1 0
v -0.2 1 -2.77128 0 1 0
v 1.3 1 1.55885 1 0 0
v -2.3 1 -1.55885 0 1 0
v -2.3 1 -0.173205 0 1 0

vt 1 1
vt 0 0.5
vt 1 0
vt 0 0
vt 0 1
vt 0 0.5
vt 1 0.5
vt 1 0.5
vt 0 0.5
vt 1 0.5
vt 0 0.833333
vt 1 0.333333
vt 0.2 1
vt 0 0.166667
vt 0.2 0
vt 1 0.666667
vt 0 0.5
vt 1 0.1
vt 1 0.9
vt 0 0.5
vt 1 0.166667
vt 0 0.666667
vt 0.8 0
vt 1 0.5
vt 1 0.5
vt 0 0.666667
vt 0.8 0
vt 1 0.833333
vt 0.8 1
vt 0 0.333333
vt 1 0.333333
vt 0 0.9
vt 0 0.1

f 1/1 2/2 3/3
f 4/4 5/3 6/1 7/5
f 8/3 9/1 10/6
f 11/1 12/3 13/4 14/5
f 15/6 16/3 17/1
f 18/3 19/4 20/5 21/1
f 9/7 22/5 10/4
f 23/4 11/3 14/1 24/5
f 25/5 26/4 27/8
f 28/3 29/1 30/5 31/4
f 32/1 25/9 27/3
f 29/4 33/3 34/1 30/5
f 35/4 36/8 37/5
f 38/3 39/4 40/5 41/1
f 42/10 43/5 44/4
f 45/4 46/3 47/1 48/5
f 49/11 50/3 51/12 52/13
f 24/1 47/5 46/4 23/3
f 50/1 53/14 54/15 55/16
f 56/5 57/1 58/3 59/4
f 60/4 8/7 10/5
f 12/3 58/4 57/5 13/1
f 61/17 35/3 37/1
f 39/3 62/4 63/5 40/1
f 53/5 64/4 65/18 54/19
f 66/4 56/5 59/1 67/3
f 68/20 69/3 70/1
f 71/3 72/4 73/5 74/1
f 64/21 75/5 76/22 77/23
f 21/5 63/1 62/3 18/4
f 78/24 1/5 3/4
f 5/4 79/3 80/1 6/5
f 81/5 68/4 70/25
f 72/3 82/1 83/5 73/4
f 75/21 84/5 85/26 86/27
f 74/5 20/1 19/3 71/4
f 87/4 88/28 89/29 90/30
f 7/1 34/5 33/4 4/3
f 88/11 49/3 91/31 92/13
f 48/1 80/5 79/4 45/3
f 36/3 93/1 37/9
f 67/1 38/3 41/4 66/5
f 84/3 87/1 94/32 95/33
f 31/5 83/4 82/3 28/1