v 1 1 -1.73205 1 0 0
v 2.5 1 -0.866025 1 0 0
v 2.5 1 -1.21244 1 0 0
v 1.3 1 -1.90526 1 0 0
v 2.5 0 -1.21244 0 0 1
v 1.3 0 -1.90526 0 0 1
v 1.3 1 -1.90526 0 0 1
v 2.5 1 -1.21244 0 0 1
v 4 1 0 1 0 0
v 4 1 -0.34641 1 0 0
v 2.8 1 -1.03923 1 0 0
v 4 0 -0.34641 0 0 1
v 2.8 0 -1.03923 0 0 1
v 2.8 1 -1.03923 0 0 1
v 4 1 -0.34641 0 0 1
v -0.8 1 -0.69282 1 0 0
v -0.5 1 -0.519615 1 0 0
v -0.5 1 -0.866025 1 0 0
v -0.5 1 -0.519615 0 0 1
v -0.8 1 -0.69282 0 0 1
v -0.8 0 -0.69282 0 0 1
v -0.5 0 -0.519615 0 0 1
v 1 1 0 1 0 0
v 0.7 1 0.173205 1 0 0
v 0.7 0 0.173205 0 0 1
v 0.7 1 0.173205 0 0 1
v 2.2 1 1.03923 1 0 0
v 2.5 1 1.21244 1 0 0
v 2.5 1 0.866025 1 0 0
v 2.5 1 1.21244 0 0 1
v 2.2 1 1.03923 0 0 1
v 2.2 0 1.03923 0 0 1
v 2.5 0 1.21244 0 0 1
v -0.2 1 -2.77128 1 0 0
v -0.5 1 -2.94449 1 0 0
v -0.5 1 -2.59808 1 0 0
v -0.5 1 -2.94449 0 0 1
v -0.2 1 -2.77128 0 0 1
v -0.2 0 -2.77128 0 0 1
v -0.5 0 -2.94449 0 0 1
v 1 1 -2.07846 1 0 0
v 1 0 -2.07846 0 0 1
v 1 1 -2.07846 0 0 1
v -2 1 -1.73205 1 0 0
v -2 1 -1.38564 1 0 0
v -2 0 -1.38564 0 0 1
v -2 1 -1.38564 0 0 1
v 4 1 0.34641 1 0 0
v 4.3 1 0.173205 1 0 0
v 4.3 1 0.173205 0 0 1
v 4 1 0.34641 0 0 1
v 4 0 0.34641 0 0 1
v 4.3 0 0.173205 0 0 1
v -2.3 1 -1.55885 1 0 0
v -2.3 1 -1.55885 0 0 1
v -2.3 0 -1.55885 0 0 1
v -2 1 -3.81051 1 0 0
v -2.3 1 -3.63731 1 0 0
v -2 1 -3.4641 1 0 0
v -2.3 1 -3.63731 0 0 1
v -2 1 -3.81051 0 0 1
v -2 0 -3.81051 0 0 1
v -2.3 0 -3.63731 0 0 1
v -2.3 1 -1.90526 1 0 0
v -2.3 1 -1.90526 0 0 1
v -2.3 0 -1.90526 0 0 1
v 1 1 0.34641 1 0 0
v 1 1 0.34641 0 0 1
v 1 0 0.34641 0 0 1
v 4.3 1 -0.173205 1 0 0
v 4.3 1 -0.173205 0 0 1
v 4.3 0 -0.173205 0 0 1
v -2.3 1 -3.2909 1 0 0
v -2.3 0 -3.2909 0 0 1
v -2.3 1 -3.2909 0 0 1
v 2.8 1 1.03923 1 0 0
v 2.8 1 1.03923 0 0 1
v 2.8 0 1.03923 0 0 1
v -1.7 1 -3.63731 1 0 0
v -1.7 1 -3.63731 0 0 1
v -1.7 0 -3.63731 0 0 1
v 2.5 1 0.866025 0 1 0
v 4 1 0 0 1 0
v 2.5 1 -0.866025 0 1 0
v 1 1 0 0 1 0
v 1 1 -1.73205 0 1 0
v -0.5 1 -0.866025 0 1 0
v -0.5 1 -2.59808 0 1 0
v -2 1 -1.73205 0 1 0
v -2 1 -3.4641 0 1 0

f 1 2 3 4
f 5 6 7 8
f 2 9 10 11
f 12 13 14 15
f 16 17 18
f 19 20 21 22
f 11 3 2
f 8 14 13 5
f 23 18 17 24
f 22 25 26 19
f 27 28 29
f 30 31 32 33
f 34 35 36
f 37 38 39 40
f 36 1 41 34
f 42 39 38 43
f 18 44 45 16
f 46 21 20 47
f 48 49 9
f 50 51 52 53
f 54 45 44
f 47 55 56 46
f 57 58 59
f 60 61 62 63
f 64 54 44
f 55 65 66 56
f 24 67 23
f 68 26 25 69
f 70 10 9
f 15 71 72 12
f 44 59 73 64
f 74 66 65 75
f 28 76 29
f 77 30 33 78
f 4 41 1
f 43 7 6 42
f 79 57 59
f 61 80 81 62
f 9 29 76 48
f 78 52 51 77
f 29 23 67 27
f 69 32 31 68
f 49 70 9
f 71 50 53 72
f 58 73 59
f 75 60 63 74
f 59 36 35 79
f 40 81 80 37
f 82 83 84
f 84 85 82
f 85 84 86
f 86 87 85
f 87 86 88
f 88 89 87
f 89 88 90