v 2.5 1 1.21244 1 0 0
v 2.8 1 1.03923 1 0 0
v 2.5 1 0.866025 1 0 0
v 2.8 1 1.03923 0 0 1
v 2.5 1 1.21244 0 0 1
v 2.5 0 1.21244 0 0 1
v 2.8 0 1.03923 0 0 1
v -0.5 1 2.94449 1 0 0
v -0.2 1 2.77128 1 0 0
v -0.5 1 2.59808 1 0 0
v -0.2 1 2.77128 0 0 1
v -0.5 1 2.94449 0 0 1
v -0.5 0 2.94449 0 0 1
v -0.2 0 2.77128 0 0 1
v -2.3 1 -1.90526 1 0 0
v -2.3 1 -1.55885 1 0 0
v -2 1 -1.73205 1 0 0
v -2.3 1 -1.55885 0 0 1
v -2.3 1 -1.90526 0 0 1
v -2.3 0 -1.90526 0 0 1
v -2.3 0 -1.55885 0 0 1
v -0.8 1 2.77128 1 0 0
v -0.8 1 2.77128 0 0 1
v -0.8 0 2.77128 0 0 1
v -0.5 1 2.59808 0 1 0
v -2 1 1.73205 0 1 0
v -2 1 2.07846 0 1 0
v -0.8 1 2.77128 0 1 0
v -2 0 2.07846 0 0 1
v -2 1 2.07846 0 0 1
v -0.5 1 -0.866025 0 1 0
v 1 1 0 0 1 0
v 1 1 -0.34641 0 1 0
v -0.2 1 -1.03923 0 1 0
v 1 0 -0.34641 0 0 1
v -0.2 0 -1.03923 0 0 1
v -0.2 1 -1.03923 0 0 1
v 1 1 -0.34641 0 0 1
v -2.3 1 1.90526 1 0 0
v -2 1 2.07846 1 0 0
v -2 1 1.73205 1 0 0
v -2.3 1 1.90526 0 0 1
v -2.3 0 1.90526 0 0 1
v -2.3 1 1.55885 1 0 0
v -2.3 1 1.55885 0 0 1
v -2.3 0 1.55885 0 0 1
v 2.5 1 0.866025 0 1 0
v 2.5 1 0.519615 0 1 0
v 1.3 1 -0.173205 0 1 0
v 2.5 0 0.519615 0 0 1
v 1.3 0 -0.173205 0 0 1
v 1.3 1 -0.173205 0 0 1
v 2.5 1 0.519615 0 0 1
v 1 1 1.73205 0 1 0
v -0.2 1 2.77128 0 1 0
v 1 1 2.07846 0 1 0
v 1 0 2.07846 0 0 1
v 1 1 2.07846 0 0 1
v 2.8 1 0.69282 1 0 0
v 2.5 1 0.519615 1 0 0
v 2.8 1 0.69282 0 0 1
v 2.8 0 0.69282 0 0 1
v 1.3 1 -0.173205 1 0 0
v 1 1 -0.34641 1 0 0
v 1 1 0 1 0 0
v -2 1 0 0 1 0
v -2.3 1 0.173205 0 1 0
v -2.3 1 1.55885 0 1 0
v -2.3 0 0.173205 0 0 1
v -2.3 1 0.173205 0 0 1
v -2.3 1 -0.173205 1 0 0
v -2.3 1 0.173205 1 0 0
v -2 1 0 1 0 0
v -2.3 1 -0.173205 0 0 1
v -2.3 0 -0.173205 0 0 1
v -1.7 1 -1.90526 1 0 0
v -2 1 -2.07846 1 0 0
v -2 1 -2.07846 0 0 1
v -1.7 1 -1.90526 0 0 1
v -1.7 0 -1.90526 0 0 1
v -2 0 -2.07846 0 0 1
v -0.2 1 -1.03923 1 0 0
v -0.5 1 -1.21244 1 0 0
v -0.5 1 -0.866025 1 0 0
v -0.5 1 -1.21244 0 0 1
v -0.5 0 -1.21244 0 0 1
v 1 1 2.07846 1 0 0
v 1.3 1 1.90526 1 0 0
v 1 1 1.73205 1 0 0
v 1.3 1 1.90526 0 0 1
v 1.3 0 1.90526 0 0 1
v 1.3 1 1.90526 0 1 0
v 2.5 1 1.21244 0 1 0
v -2 1 -1.73205 0 1 0
v -0.5 1 -1.21244 0 1 0
v -1.7 1 -1.90526 0 1 0
v -2.3 1 -1.55885 0 1 0
v -2.3 1 -0.173205 0 1 0

vt 0 0
vt 1 0.5
vt 0 1
vt 1 0
vt 1 1
vt 1 0.5
vt 1 0.5
vt 0 0.5
vt 1 0.166667
vt 0 0.666667
vt 0.8 0
vt 0 0.833333
vt 1 0.333333
vt 0.2 1
vt 0 0.5
vt 1 0.5
vt 1 0.333333
vt 0 0.166667
vt 0.2 0
vt 1 0.666667
vt 1 0.5
vt 0 0.9
vt 0 0.1
vt 0 0.5
vt 0 0.5
vt 1 0.5
vt 0 0.166667
vt 1 0.666667
vt 0 0.833333
vt 1 0.333333
vt 0 0.9

f 1/1 2/2 3/3
f 4/4 5/1 6/3 7/5
f 8/1 9/6 10/3
f 11/4 12/1 13/3 14/5
f 15/3 16/1 17/7
f 18/4 19/5 20/3 21/1
f 22/8 8/4 10/5
f 12/4 23/1 24/3 13/5
f 25/9 26/3 27/10 28/11
f 29/3 24/5 23/4 30/1
f 31/12 32/4 33/13 34/14
f 35/5 36/3 37/1 38/4
f 39/15 40/4 41/5
f 30/4 42/1 43/3 29/5
f 44/3 39/1 41/16
f 42/4 45/5 46/3 43/1
f 32/12 47/4 48/17 49/14
f 50/5 51/3 52/1 53/4
f 54/5 25/18 55/19 56/20
f 14/3 57/5 58/4 11/1
f 59/2 60/3 3/1
f 53/1 61/4 62/5 50/3
f 63/21 64/3 65/1
f 38/1 52/4 51/5 35/3
f 26/4 66/5 67/22 68/23
f 69/3 46/1 45/4 70/5
f 71/3 72/1 73/21
f 70/4 74/5 75/3 69/1
f 76/16 77/3 17/1
f 78/1 79/4 80/5 81/3
f 77/5 15/24 17/4
f 19/1 78/4 81/5 20/3
f 2/4 59/5 3/25
f 61/5 4/4 7/1 62/3
f 82/26 83/3 84/1
f 85/1 37/4 36/5 86/3
f 87/1 88/7 89/3
f 90/4 58/1 57/3 91/5
f 47/5 54/27 92/19 93/28
f 91/3 6/5 5/4 90/1
f 94/29 31/4 95/30 96/14
f 86/5 80/3 79/1 85/4
f 66/4 94/5 97/31 98/23
f 21/3 75/1 74/4 18/5