v -0.5 0 -0.649519 0.360784 0.309804 0.290196
v -0.5 0 -0.433013 0.360784 0.309804 0.290196
v -0.5 0.1 -0.433013 0.360784 0.309804 0.290196
v -0.5 0.1 -0.649519 0.360784 0.309804 0.290196
v 0.625 0.1 0.216506 0.360784 0.309804 0.290196
v 0.625 0 0.216506 0.360784 0.309804 0.290196
v 0.8125 0 0.108253 0.360784 0.309804 0.290196
v 0.8125 0.1 0.108253 0.360784 0.309804 0.290196
v -0.5 0.5 -0.649519 0.435294 0.811765 0.592157
v 0.8125 0.5 0.108253 0.435294 0.811765 0.592157
v 1 0.5 0 0.435294 0.811765 0.592157
v -0.5 0.5 -0.866025 0.435294 0.811765 0.592157
v -0.5 0.1 -0.649519 0.435294 0.811765 0.592157
v 0.8125 0.1 0.108253 0.435294 0.811765 0.592157
v -0.5 0 -0.866025 0.435294 0.811765 0.592157
v -0.5 0 -0.649519 0.435294 0.811765 0.592157
v 0.8125 0 0.108253 0.435294 0.811765 0.592157
v 1 0 0 0.435294 0.811765 0.592157

f 1 2 3 4
f 5 6 7 8
f 4 3 5 8
f 2 1 7 6
f 2 6 5 3
f 9 10 11 12
f 9 13 14 10
f 15 16 9 12
f 17 18 11 10
f 18 15 12 11
f 15 18 17 16