v 1 1 2.07846 1 0 0
v 1.3 1 1.90526 1 0 0
v 1 1 1.73205 1 0 0
v 1.3 1 1.90526 0 0 1
v 1 1 2.07846 0 0 1
v 1 0 2.07846 0 0 1
v 1.3 0 1.90526 0 0 1
v -0.5 1 -2.59808 0 1 0
v 1 1 -1.73205 0 1 0
v 1 1 -2.07846 0 1 0
v -0.2 1 -2.77128 0 1 0
v 1 0 -2.07846 0 0 1
v -0.2 0 -2.77128 0 0 1
v -0.2 1 -2.77128 0 0 1
v 1 1 -2.07846 0 0 1
v 4.3 1 -0.173205 1 0 0
v 4 1 -0.34641 1 0 0
v 4 1 0 1 0 0
v 4 1 -0.34641 0 0 1
v 4.3 1 -0.173205 0 0 1
v 4.3 0 -0.173205 0 0 1
v 4 0 -0.34641 0 0 1
v -2.3 1 -1.55885 1 0 0
v -2 1 -1.38564 1 0 0
v -2 1 -1.73205 1 0 0
v -2 1 -1.38564 0 0 1
v -2.3 1 -1.55885 0 0 1
v -2.3 0 -1.55885 0 0 1
v -2 0 -1.38564 0 0 1
v 4 1 0 0 1 0
v 2.5 1 0.866025 0 1 0
v 2.8 1 1.03923 0 1 0
v 4 1 0.34641 0 1 0
v 2.8 0 1.03923 0 0 1
v 4 0 0.34641 0 0 1
v 4 1 0.34641 0 0 1
v 2.8 1 1.03923 0 0 1
v 1 1 1.73205 0 1 0
v 1 1 0 0 1 0
v 0.7 1 0.173205 0 1 0
v 0.7 1 1.55885 0 1 0
v 0.7 0 0.173205 0 0 1
v 0.7 0 1.55885 0 0 1
v 0.7 1 1.55885 0 0 1
v 0.7 1 0.173205 0 0 1
v 4 1 0.34641 1 0 0
v 4.3 1 0.173205 1 0 0
v 4.3 1 0.173205 0 0 1
v 4.3 0 0.173205 0 0 1
v 0.7 1 1.55885 1 0 0
v 0.7 1 1.90526 1 0 0
v 0.7 1 1.90526 0 0 1
v 0.7 0 1.90526 0 0 1
v -2.3 1 -1.90526 1 0 0
v -2.3 1 -1.90526 0 0 1
v -2.3 0 -1.90526 0 0 1
v -0.5 1 -0.866025 0 1 0
v -2 1 -1.73205 0 1 0
v -2 1 -1.38564 0 1 0
v -0.8 1 -0.69282 0 1 0
v -0.8 0 -0.69282 0 0 1
v -0.8 1 -0.69282 0 0 1
v 2.8 1 -1.03923 1 0 0
v 2.5 1 -1.21244 1 0 0
v 2.5 1 -0.866025 1 0 0
v 2.5 1 -1.21244 0 0 1
v 2.8 1 -1.03923 0 0 1
v 2.8 0 -1.03923 0 0 1
v 2.5 0 -1.21244 0 0 1
v -0.5 1 -0.519615 0 1 0
v -0.5 0 -0.519615 0 0 1
v -0.5 1 -0.519615 0 0 1
v -0.8 1 -0.69282 1 0 0
v -0.5 1 -0.519615 1 0 0
v -0.5 1 -0.866025 1 0 0
v -0.5 1 -2.94449 1 0 0
v -0.8 1 -2.77128 1 0 0
v -0.5 1 -2.59808 1 0 0
v -0.8 1 -2.77128 0 0 1
v -0.5 1 -2.94449 0 0 1
v -0.5 0 -2.94449 0 0 1
v -0.8 0 -2.77128 0 0 1
v -0.8 1 -2.77128 0 1 0
v -2 1 -2.07846 0 1 0
v -2 0 -2.07846 0 0 1
v -2 1 -2.07846 0 0 1
v -0.2 1 -2.77128 1 0 0
v 2.5 1 -0.866025 0 1 0
v 2.5 1 -1.21244 0 1 0
v 1.3 1 -1.90526 0 1 0
v 1.3 0 -1.90526 0 0 1
v 1.3 1 -1.90526 0 0 1
v 4 1 -0.34641 0 1 0
v 2.8 1 -1.03923 0 1 0
v 2.5 1 1.21244 1 0 0
v 2.8 1 1.03923 1 0 0
v 2.5 1 0.866025 1 0 0
v 2.5 1 1.21244 0 0 1
v 2.5 0 1.21244 0 0 1
v 1.3 1 -1.90526 1 0 0
v 1 1 -2.07846 1 0 0
v 1 1 -1.73205 1 0 0
v 1.3 1 1.90526 0 1 0
v 2.5 1 1.21244 0 1 0
v -2 1 -2.07846 1 0 0

vt 0 0
vt 1 0.5
vt 0 1
vt 1 0
vt 1 1
vt 0 0.833333
vt 1 0.333333
vt 0.2 1
vt 1 0.5
vt 0 0.5
vt 0 0.166667
vt 0.2 0
vt 1 0.666667
vt 0 0.9
vt 0 0.1
vt 1 0.5
vt 1 0.166667
vt 0 0.666667
vt 0.8 0
vt 1 0.5
vt 0 0.666667
vt 0.8 0
vt 0 0.5
vt 0 0.5
vt 0 0.5
vt 1 0.833333
vt 0.8 1
vt 0 0.333333
vt 1 0.5
vt 1 0.333333
vt 0 0.833333
vt 1 0.333333
vt 0.2 1
vt 1 0.5
vt 0.2 0
vt 1 0.666667
vt 0 0.5

f 1/1 2/2 3/3
f 4/4 5/1 6/3 7/5
f 8/6 9/4 10/7 11/8
f 12/5 13/3 14/1 15/4
f 16/9 17/3 18/1
f 19/1 20/4 21/5 22/3
f 23/10 24/4 25/5
f 26/4 27/1 28/3 29/5
f 30/5 31/11 32/12 33/13
f 34/3 35/5 36/4 37/1
f 38/4 39/5 40/14 41/15
f 42/3 43/1 44/4 45/5
f 46/1 47/9 18/3
f 48/4 36/1 35/3 49/5
f 50/3 51/1 3/16
f 52/4 44/5 43/3 53/1
f 54/3 23/1 25/2
f 27/4 55/5 56/3 28/1
f 57/17 58/3 59/18 60/19
f 29/3 61/5 62/4 26/1
f 63/20 64/3 65/1
f 66/1 67/4 68/5 69/3
f 39/17 57/3 70/21 40/22
f 71/3 42/5 45/4 72/1
f 73/23 74/4 75/5
f 72/4 62/1 61/3 71/5
f 76/5 77/24 78/4
f 79/1 80/4 81/5 82/3
f 51/25 1/4 3/5
f 5/4 52/1 53/3 6/5
f 58/1 8/26 83/27 84/28
f 82/5 85/3 86/1 79/4
f 87/29 76/3 78/1
f 80/1 14/4 13/5 81/3
f 9/6 88/4 89/30 90/8
f 69/5 91/3 92/1 66/4
f 88/31 30/4 93/32 94/33
f 22/5 68/3 67/1 19/4
f 95/1 96/34 97/3
f 37/4 98/1 99/3 34/5
f 47/4 16/5 18/10
f 20/5 48/4 49/1 21/3
f 100/16 101/3 102/1
f 15/1 92/4 91/5 12/3
f 31/5 38/11 103/35 104/36
f 7/3 99/5 98/4 4/1
f 105/5 54/37 25/4
f 55/1 86/4 85/5 56/3