v 1 1 2.07846 1 0 0
v 1.3 1 1.90526 1 0 0
v 1 1 1.73205 1 0 0
v 1.3 1 1.90526 0 0 1
v 1 1 2.07846 0 0 1
v 1 0 2.07846 0 0 1
v 1.3 0 1.90526 0 0 1
v -0.5 1 -2.59808 0 1 0
v 1 1 -1.73205 0 1 0
v 1 1 -2.07846 0 1 0
v -0.2 1 -2.77128 0 1 0
v 1 0 -2.07846 0 0 1
v -0.2 0 -2.77128 0 0 1
v -0.2 1 -2.77128 0 0 1
v 1 1 -2.07846 0 0 1
v -0.5 1 0.866025 0 1 0
v -0.5 1 -0.866025 0 1 0
v -0.8 1 -0.69282 0 1 0
v -0.8 1 0.69282 0 1 0
v -0.8 0 -0.69282 0 0 1
v -0.8 0 0.69282 0 0 1
v -0.8 1 0.69282 0 0 1
v -0.8 1 -0.69282 0 0 1
v 2.8 1 1.03923 1 0 0
v 2.8 1 0.69282 1 0 0
v 2.5 1 0.866025 1 0 0
v 2.8 1 0.69282 0 0 1
v 2.8 1 1.03923 0 0 1
v 2.8 0 1.03923 0 0 1
v 2.8 0 0.69282 0 0 1
v 1 1 1.73205 0 1 0
v -0.5 1 2.59808 0 1 0
v -0.2 1 2.77128 0 1 0
v 1 1 2.07846 0 1 0
v -0.2 0 2.77128 0 0 1
v -0.2 1 2.77128 0 0 1
v -0.5 1 -2.94449 1 0 0
v -0.8 1 -2.77128 1 0 0
v -0.5 1 -2.59808 1 0 0
v -0.8 1 -2.77128 0 0 1
v -0.5 1 -2.94449 0 0 1
v -0.5 0 -2.94449 0 0 1
v -0.8 0 -2.77128 0 0 1
v -0.8 1 -1.03923 1 0 0
v -0.8 1 -0.69282 1 0 0
v -0.5 1 -0.866025 1 0 0
v -0.8 1 -1.03923 0 0 1
v -0.8 0 -1.03923 0 0 1
v -2.3 1 1.90526 1 0 0
v -2 1 2.07846 1 0 0
v -2 1 1.73205 1 0 0
v -2 1 2.07846 0 0 1
v -2.3 1 1.90526 0 0 1
v -2.3 0 1.90526 0 0 1
v -2 0 2.07846 0 0 1
v 1 1 0 0 1 0
v 1.3 1 -0.173205 0 1 0
v 1.3 1 -1.55885 0 1 0
v 1.3 0 -0.173205 0 0 1
v 1.3 0 -1.55885 0 0 1
v 1.3 1 -1.55885 0 0 1
v 1.3 1 -0.173205 0 0 1
v -2 1 1.38564 1 0 0
v -2.3 1 1.55885 1 0 0
v -2.3 1 1.55885 0 0 1
v -2 1 1.38564 0 0 1
v -2 0 1.38564 0 0 1
v -2.3 0 1.55885 0 0 1
v -0.8 1 -2.42487 1 0 0
v -0.8 1 -2.42487 0 0 1
v -0.8 0 -2.42487 0 0 1
v -0.2 1 -2.77128 1 0 0
v 1.3 1 -1.55885 1 0 0
v 1.3 1 -1.90526 1 0 0
v 1 1 -1.73205 1 0 0
v 1.3 1 -1.90526 0 0 1
v 1.3 0 -1.90526 0 0 1
v -0.8 1 -2.42487 0 1 0
v -0.8 1 -1.03923 0 1 0
v 2.5 1 0.519615 1 0 0
v 2.5 1 0.519615 0 0 1
v 2.5 0 0.519615 0 0 1
v -2 1 1.73205 0 1 0
v -2 1 2.07846 0 1 0
v -0.8 1 2.77128 0 1 0
v -0.8 0 2.77128 0 0 1
v -0.8 1 2.77128 0 0 1
v 2.5 1 1.21244 1 0 0
v 2.5 1 1.21244 0 0 1
v 2.5 0 1.21244 0 0 1
v -2 1 1.38564 0 1 0
v -0.5 1 2.94449 1 0 0
v -0.2 1 2.77128 1 0 0
v -0.5 1 2.59808 1 0 0
v -0.5 1 2.94449 0 0 1
v -0.5 0 2.94449 0 0 1
v 1 1 -2.07846 1 0 0
v -0.8 1 2.77128 1 0 0
v 2.5 1 0.866025 0 1 0
v 1.3 1 1.90526 0 1 0
v 2.5 1 1.21244 0 1 0
v 2.5 1 0.519615 0 1 0

vt 0 0
vt 1 0.5
vt 0 1
vt 1 0
vt 1 1
vt 0 0.833333
vt 1 0.333333
vt 0.2 1
vt 0 0.9
vt 0 0.1
vt 0 0.5
vt 0 0.166667
vt 0.2 0
vt 1 0.666667
vt 0 0.5
vt 1 0.5
vt 0 0.5
vt 1 0.1
vt 1 0.9
vt 0 0.5
vt 1 0.5
vt 1 0.5
vt 1 0.5
vt 0 0.9
vt 0 0.1
vt 1 0.166667
vt 0 0.666667
vt 0.8 0
vt 1 0.833333
vt 0.8 1
vt 0 0.333333
vt 1 0.5
vt 0 0.5
vt 0 0.166667
vt 1 0.666667
vt 0 0.833333

f 1/1 2/2 3/3
f 4/4 5/1 6/3 7/5
f 8/6 9/4 10/7 11/8
f 12/5 13/3 14/1 15/4
f 16/4 17/5 18/9 19/10
f 20/3 21/1 22/4 23/5
f 24/4 25/5 26/11
f 27/5 28/4 29/1 30/3
f 31/5 32/12 33/13 34/14
f 35/3 6/5 5/4 36/1
f 37/5 38/15 39/4
f 40/1 41/4 42/5 43/3
f 44/3 45/1 46/16
f 23/4 47/5 48/3 20/1
f 49/17 50/4 51/5
f 52/4 53/1 54/3 55/5
f 9/3 56/1 57/18 58/19
f 59/1 60/3 61/5 62/4
f 63/5 64/20 51/4
f 65/1 66/4 67/5 68/3
f 38/3 69/1 39/21
f 70/4 40/5 43/3 71/1
f 64/3 49/1 51/22
f 53/4 65/5 68/3 54/1
f 72/23 37/3 39/1
f 41/1 14/4 13/5 42/3
f 73/4 74/5 75/17
f 76/5 61/4 60/1 77/3
f 17/4 8/5 78/24 79/25
f 71/3 48/1 47/4 70/5
f 25/16 80/3 26/1
f 81/1 27/4 30/5 82/3
f 32/26 83/3 84/27 85/28
f 55/3 86/5 87/4 52/1
f 88/1 24/16 26/3
f 28/4 89/1 90/3 29/5
f 83/1 16/29 19/30 91/31
f 21/5 67/3 66/1 22/4
f 92/1 93/32 94/3
f 36/4 95/1 96/3 35/5
f 74/22 97/3 75/1
f 15/1 76/4 77/5 12/3
f 98/33 92/4 94/5
f 95/4 87/1 86/3 96/5
f 99/5 31/34 100/13 101/35
f 7/3 90/5 89/4 4/1
f 56/36 99/4 102/7 57/8
f 82/5 59/3 62/1 81/4