v 0.625 0 -1.94856 1 0.52549 0.439216
v 0.25 0 -2.16506 1 0.52549 0.439216
v 0.25 0.3 -2.16506 1 0.52549 0.439216
v 0.625 0.3 -1.94856 1 0.52549 0.439216
v -0.125 0.45 -2.38157 1 0.52549 0.439216
v 0.25 0.45 -2.16506 1 0.52549 0.439216
v -0.125 0 -2.38157 1 0.52549 0.439216
v -0.5 0.6 -2.59808 1 0.52549 0.439216
v -0.125 0.6 -2.38157 1 0.52549 0.439216
v -0.5 0 -2.59808 1 0.52549 0.439216
v 0.625 0 -1.51554 1 0.52549 0.439216
v 1 0 -1.73205 1 0.52549 0.439216
v 0.25 0 -1.29904 1 0.52549 0.439216
v -0.125 0 -1.08253 1 0.52549 0.439216
v 0.625 0.15 -1.94856 1 0.52549 0.439216
v 1 0.15 -1.73205 1 0.52549 0.439216
v 0.625 0.15 -1.51554 1 0.52549 0.439216
v 0.625 0.3 -1.51554 1 0.52549 0.439216
v -0.125 0.6 -1.08253 1 0.52549 0.439216
v -0.125 0.45 -1.08253 1 0.52549 0.439216
v 0.25 0.45 -1.29904 1 0.52549 0.439216
v 0.25 0.3 -1.29904 1 0.52549 0.439216
v -0.5 0 -0.866025 1 0.52549 0.439216
v -0.125 0 -1.08253 1 0.52549 0.439216
v -0.125 0 -0.649519 1 0.52549 0.439216
v -0.5 0 -0.866025 1 0.52549 0.439216
v 0.25 0 -1.29904 1 0.52549 0.439216
v 0.25 0 -0.433013 1 0.52549 0.439216
v 0.625 0 -1.51554 1 0.52549 0.439216
v 0.625 0 -0.216506 1 0.52549 0.439216
v -0.5 0.6 -0.866025 1 0.52549 0.439216
v -0.5 0.6 -0.866025 1 0.52549 0.439216
v -0.125 0.6 -0.649519 1 0.52549 0.439216
v -0.125 0.6 -1.08253 1 0.52549 0.439216
v -0.125 0.45 -0.649519 1 0.52549 0.439216
v -0.125 0.45 -1.08253 1 0.52549 0.439216
v 0.25 0.45 -0.433013 1 0.52549 0.439216
v 0.25 0.45 -1.29904 1 0.52549 0.439216
v 0.25 0.3 -0.433013 1 0.52549 0.439216
v 0.25 0.3 -1.29904 1 0.52549 0.439216
v 0.625 0.3 -0.216506 1 0.52549 0.439216
v 0.625 0.3 -1.51554 1 0.52549 0.439216
v 0.625 0.15 -0.216506 1 0.52549 0.439216
v 0.625 0.15 -1.51554 1 0.52549 0.439216
v 1 0 -1.73205 1 0.52549 0.439216
v 1 0 -1.6e-11 1 0.52549 0.439216
v 0.625 0 0.216506 1 0.52549 0.439216
v 0.625 0 -0.216506 1 0.52549 0.439216
v 1 0 -8e-12 1 0.52549 0.439216
v 0.25 0 0.433013 1 0.52549 0.439216
v 0.25 0 -0.433013 1 0.52549 0.439216
v -0.125 0 0.649519 1 0.52549 0.439216
v -0.125 0 -0.649519 1 0.52549 0.439216
v 1 0.15 -1.73205 1 0.52549 0.439216
v 1 0.15 -1.6e-11 1 0.52549 0.439216
v 1 0.15 -8e-12 1 0.52549 0.439216
v 0.625 0.15 -0.216506 1 0.52549 0.439216
v 0.625 0.15 0.216506 1 0.52549 0.439216
v 0.625 0.3 0.216506 1 0.52549 0.439216
v 0.625 0.3 -0.216506 1 0.52549 0.439216
v -0.125 0.6 -0.649519 1 0.52549 0.439216
v -0.125 0.6 0.649519 1 0.52549 0.439216
v -0.125 0.45 0.649519 1 0.52549 0.439216
v -0.125 0.45 -0.649519 1 0.52549 0.439216
v 0.25 0.45 -0.433013 1 0.52549 0.439216
v 0.25 0.45 0.433013 1 0.52549 0.439216
v 0.25 0.3 0.433013 1 0.52549 0.439216
v 0.25 0.3 -0.433013 1 0.52549 0.439216
v -0.5 0 0.866025 1 0.52549 0.439216
v -0.5 0 -0.866025 1 0.52549 0.439216
v -0.125 0 0.649519 1 0.52549 0.439216
v -0.125 0 1.08253 1 0.52549 0.439216
v -0.5 0 0.866025 1 0.52549 0.439216
v 0.25 0 0.433013 1 0.52549 0.439216
v 0.25 0 1.29904 1 0.52549 0.439216
v 0.625 0 0.216506 1 0.52549 0.439216
v 0.625 0 1.51554 1 0.52549 0.439216
v 1 0 8e-12 1 0.52549 0.439216
v 1 0 1.73205 1 0.52549 0.439216
v 1 0.15 8e-12 1 0.52549 0.439216
v 1 0.15 1.73205 1 0.52549 0.439216
v -0.5 0.6 -0.866025 1 0.52549 0.439216
v -0.5 0.6 0.866025 1 0.52549 0.439216
v 0.625 0.3 1.51554 1 0.52549 0.439216
v 0.625 0.15 1.51554 1 0.52549 0.439216
v 0.625 0.15 0.216506 1 0.52549 0.439216
v 0.625 0.3 0.216506 1 0.52549 0.439216
v -0.5 0.6 0.866025 1 0.52549 0.439216
v -0.125 0.6 1.08253 1 0.52549 0.439216
v -0.125 0.6 0.649519 1 0.52549 0.439216
v -0.125 0.45 1.08253 1 0.52549 0.439216
v -0.125 0.45 0.649519 1 0.52549 0.439216
v 0.25 0.45 1.29904 1 0.52549 0.439216
v 0.25 0.45 0.433013 1 0.52549 0.439216
v 0.25 0.3 1.29904 1 0.52549 0.439216
v 0.25 0.3 0.433013 1 0.52549 0.439216
v 0.25 0 2.16506 1 0.52549 0.439216
v 0.625 0 1.94856 1 0.52549 0.439216
v 0.625 0.3 1.94856 1 0.52549 0.439216
v 0.25 0.3 2.16506 1 0.52549 0.439216
v 0.25 0.45 2.16506 1 0.52549 0.439216
v -0.125 0.45 2.38157 1 0.52549 0.439216
v -0.125 0 2.38157 1 0.52549 0.439216
v -0.125 0.6 2.38157 1 0.52549 0.439216
v -0.5 0.6 2.59808 1 0.52549 0.439216
v -0.5 0 2.59808 1 0.52549 0.439216
v 0.625 0 1.51554 1 0.52549 0.439216
v 1 0 1.73205 1 0.52549 0.439216
v 0.25 0 1.29904 1 0.52549 0.439216
v -0.125 0 1.08253 1 0.52549 0.439216
v -0.5 0 0.866025 1 0.52549 0.439216
v -0.5 0.6 0.866025 1 0.52549 0.439216
v -0.125 0.6 1.08253 1 0.52549 0.439216
v 0.25 0.45 1.29904 1 0.52549 0.439216
v -0.125 0.45 1.08253 1 0.52549 0.439216
v 1 0.15 1.73205 1 0.52549 0.439216
v 0.625 0.15 1.94856 1 0.52549 0.439216
v 0.25 0.3 1.29904 1 0.52549 0.439216
v 0.625 0.3 1.51554 1 0.52549 0.439216
v 0.625 0.15 1.51554 1 0.52549 0.439216

f 1 2 3 4
f 5 6 2 7
f 8 9 7 10
f 11 1 12
f 11 13 2 1
f 13 14 7 2
f 12 1 15 16
f 16 15 17
f 18 17 15 4
f 9 19 20 5
f 6 5 20 21
f 6 21 22 3
f 4 3 22 18
f 14 23 10 7
f 24 25 26
f 24 27 28 25
f 27 29 30 28
f 9 8 31 19
f 31 8 10 23
f 32 33 34
f 33 35 36 34
f 35 37 38 36
f 37 39 40 38
f 39 41 42 40
f 41 43 44 42
f 29 45 46 30
f 47 48 49
f 47 50 51 48
f 50 52 53 51
f 46 45 54 55
f 43 55 54 44
f 56 57 58
f 59 58 57 60
f 61 62 63 64
f 65 64 63 66
f 65 66 67 68
f 60 68 67 59
f 52 69 70 53
f 71 72 73
f 71 74 75 72
f 74 76 77 75
f 76 78 79 77
f 79 78 80 81
f 61 82 83 62
f 83 82 70 69
f 84 85 86 87
f 88 89 90
f 89 91 92 90
f 91 93 94 92
f 95 84 87 96
f 93 95 96 94
f 85 81 80 86
f 97 98 99 100
f 101 102 103 97
f 104 105 106 103
f 98 107 108
f 98 97 109 107
f 97 103 110 109
f 103 106 111 110
f 105 112 111 106
f 113 112 105 104
f 114 115 102 101
f 113 104 102 115
f 98 108 116 117
f 114 101 100 118
f 119 118 100 99
f 116 120 117
f 99 117 120 119