v 0.0714286 0 -0.178704 0.396078 0.262745 0.129412
v 0.142857 0 -0.0549857 0.396078 0.262745 0.129412
v 0.0714286 0 0.0687322 0.396078 0.262745 0.129412
v -0.0714286 0 0.0687322 0.396078 0.262745 0.129412
v -0.142857 0 -0.0549857 0.396078 0.262745 0.129412
v -0.0714286 0 -0.178704 0.396078 0.262745 0.129412
v 0.0495592 0.25 0.0308534 0.60404 0.672727 0.741414
v 0.0991185 0.25 -0.0549857 0.60404 0.672727 0.741414
v 0.0991185 0.25 -0.0549857 0.60404 0.672727 0.741414
v 0.0495592 0.25 -0.140825 0.60404 0.672727 0.741414
v 0.0495592 0.25 -0.140825 0.60404 0.672727 0.741414
v -0.0495592 0.25 -0.140825 0.60404 0.672727 0.741414
v -0.0991185 0.25 -0.0549857 0.60404 0.672727 0.741414
v -0.0495592 0.25 -0.140825 0.60404 0.672727 0.741414
v -0.0495592 0.25 0.0308534 0.60404 0.672727 0.741414
v 0.0495592 0.25 0.0308534 0.60404 0.672727 0.741414
v -0.0495592 0.25 0.0308534 0.60404 0.672727 0.741414
v 0.476906 0.25 0.123718 0.903529 0.793333 0.746667
v 0.417024 0.25 0.02 0.903529 0.793333 0.746667
v 0.428571 0.325 0 0.903529 0.793333 0.746667
v 0.5 0.325 0.123718 0.903529 0.793333 0.746667
v 0.274167 0.25 0.02 0.903529 0.793333 0.746667
v 0.285714 0.325 0 0.903529 0.793333 0.746667
v 0.191192 0.25 -0.123718 0.903529 0.793333 0.746667
v 0.214286 0.325 -0.123718 0.903529 0.793333 0.746667
v 0.26262 0.25 -0.247436 0.903529 0.793333 0.746667
v 0.285714 0.325 -0.247436 0.903529 0.793333 0.746667
v 0.202739 0.25 -0.351154 0.903529 0.793333 0.746667
v 0.214286 0.325 -0.371154 0.903529 0.793333 0.746667
v 0.0598816 0.25 -0.351154 0.903529 0.793333 0.746667
v 0.0714286 0.325 -0.371154 0.903529 0.793333 0.746667
v -0.011547 0.25 -0.474872 0.903529 0.793333 0.746667
v 0 0.325 -0.494872 0.903529 0.793333 0.746667
v -0.13131 0.25 -0.474872 0.903529 0.793333 0.746667
v -0.142857 0.325 -0.494872 0.903529 0.793333 0.746667
v -0.202739 0.25 -0.351154 0.903529 0.793333 0.746667
v -0.214286 0.325 -0.371154 0.903529 0.793333 0.746667
v -0.345596 0.25 -0.351154 0.903529 0.793333 0.746667
v -0.357143 0.325 -0.371154 0.903529 0.793333 0.746667
v -0.405477 0.25 -0.247436 0.903529 0.793333 0.746667
v -0.428571 0.325 -0.247436 0.903529 0.793333 0.746667
v -0.334049 0.25 -0.123718 0.903529 0.793333 0.746667
v -0.357143 0.325 -0.123718 0.903529 0.793333 0.746667
v -0.405477 0.25 0 0.903529 0.793333 0.746667
v -0.428571 0.325 0 0.903529 0.793333 0.746667
v -0.345596 0.25 0.103718 0.903529 0.793333 0.746667
v -0.357143 0.325 0.123718 0.903529 0.793333 0.746667
v -0.202739 0.25 0.103718 0.903529 0.793333 0.746667
v -0.214286 0.325 0.123718 0.903529 0.793333 0.746667
v -0.13131 0.25 0.227436 0.903529 0.793333 0.746667
v -0.142857 0.325 0.247436 0.903529 0.793333 0.746667
v 0.011547 0.25 0.227436 0.903529 0.793333 0.746667
v 0 0.325 0.247436 0.903529 0.793333 0.746667
v 0.0829756 0.25 0.351154 0.903529 0.793333 0.746667
v 0.0714286 0.325 0.371154 0.903529 0.793333 0.746667
v 0.202739 0.25 0.351154 0.903529 0.793333 0.746667
v 0.214286 0.325 0.371154 0.903529 0.793333 0.746667
v 0.274167 0.25 0.227436 0.903529 0.793333 0.746667
v 0.285714 0.325 0.247436 0.903529 0.793333 0.746667
v 0.417024 0.25 0.227436 0.903529 0.793333 0.746667
v 0.428571 0.325 0.247436 0.903529 0.793333 0.746667
v 0.152702 0.475 -0.123718 0.718431 0.662353 0.655686
v 0.254922 0.475 0.0533333 0.718431 0.662353 0.655686
v 0.22413 0.475 -0.247436 0.718431 0.662353 0.655686
v 0.438416 0.475 0.123718 0.718431 0.662353 0.655686
v 0.397779 0.475 0.0533333 0.718431 0.662353 0.655686
v 0.397779 0.475 0.194102 0.718431 0.662353 0.655686
v 0.254922 0.475 0.194102 0.718431 0.662353 0.655686
v 0.102221 0.475 0.31782 0.718431 0.662353 0.655686
v 0.030792 0.475 0.194102 0.718431 0.662353 0.655686
v 0.183494 0.475 0.31782 0.718431 0.662353 0.655686
v -0.295559 0.475 -0.123718 0.718431 0.662353 0.655686
v -0.366987 0.475 -0.247436 0.718431 0.662353 0.655686
v -0.366987 0.475 0 0.718431 0.662353 0.655686
v -0.326351 0.475 0.0703846 0.718431 0.662353 0.655686
v -0.183494 0.475 0.0703846 0.718431 0.662353 0.655686
v -0.112065 0.475 0.194102 0.718431 0.662353 0.655686
v 0.030792 0.475 0.194102 0.718431 0.662353 0.655686
v 0.183494 0.475 -0.31782 0.718431 0.662353 0.655686
v 0.0406366 0.475 -0.31782 0.718431 0.662353 0.655686
v 0.183494 0.475 -0.31782 0.718431 0.662353 0.655686
v -0.030792 0.475 -0.441538 0.718431 0.662353 0.655686
v 0.0406366 0.475 -0.31782 0.718431 0.662353 0.655686
v -0.112065 0.475 -0.441538 0.718431 0.662353 0.655686
v -0.183494 0.475 -0.31782 0.718431 0.662353 0.655686
v -0.326351 0.475 -0.31782 0.718431 0.662353 0.655686
v -0.183494 0.475 -0.31782 0.718431 0.662353 0.655686
v -0.326351 0.475 -0.31782 0.718431 0.662353 0.655686
v 0.0252405 1 -0.291154 0.0705882 0.203922 0.337255
v 0.12191 1 -0.123718 0.0705882 0.203922 0.337255
v 0.193338 1 -0.247436 0.0705882 0.203922 0.337255
v 0.168098 1 -0.291154 0.0705882 0.203922 0.337255
v -0.168098 1 -0.291154 0.0705882 0.203922 0.337255
v -0.046188 1 -0.414872 0.0705882 0.203922 0.337255
v -0.0966691 1 -0.414872 0.0705882 0.203922 0.337255
v -0.168098 1 0.0437179 0.0705882 0.203922 0.337255
v -0.264767 1 -0.123718 0.0705882 0.203922 0.337255
v -0.336195 1 0 0.0705882 0.203922 0.337255
v -0.310955 1 0.0437179 0.0705882 0.203922 0.337255
v 0.239526 1 0.167436 0.0705882 0.203922 0.337255
v 0.046188 1 0.167436 0.0705882 0.203922 0.337255
v 0.117617 1 0.291154 0.0705882 0.203922 0.337255
v 0.168098 1 0.291154 0.0705882 0.203922 0.337255
v 0.239526 1 0.08 0.0705882 0.203922 0.337255
v 0.382383 1 0.167436 0.0705882 0.203922 0.337255
v 0.407624 1 0.123718 0.0705882 0.203922 0.337255
v 0.382383 1 0.08 0.0705882 0.203922 0.337255
v -0.0966691 1 0.167436 0.0705882 0.203922 0.337255
v -0.310955 1 -0.291154 0.0705882 0.203922 0.337255
v -0.336195 1 -0.247436 0.0705882 0.203922 0.337255
v 0.0483346 0.775 -0.331154 0.348235 0.400392 0.473725
v -0.023094 0.775 -0.454872 0.348235 0.400392 0.473725
v 0.0414064 0.73 -0.319154 0.403765 0.439686 0.50102
v -0.0300222 0.73 -0.442872 0.403765 0.439686 0.50102
v -0.310955 0.775 -0.123718 0.348235 0.400392 0.473725
v -0.297098 0.73 -0.123718 0.403765 0.439686 0.50102
v -0.368527 0.73 0 0.403765 0.439686 0.50102
v -0.382383 0.775 0 0.348235 0.400392 0.473725
v -0.119763 0.775 -0.454872 0.348235 0.400392 0.473725
v -0.191192 0.775 -0.331154 0.348235 0.400392 0.473725
v -0.0300222 0.73 -0.442872 0.403765 0.439686 0.50102
v -0.112835 0.73 -0.442872 0.403765 0.439686 0.50102
v -0.112835 0.73 -0.442872 0.403765 0.439686 0.50102
v -0.184264 0.73 -0.319154 0.403765 0.439686 0.50102
v -0.382383 0.775 -0.247436 0.348235 0.400392 0.473725
v -0.368527 0.73 -0.247436 0.403765 0.439686 0.50102
v -0.297098 0.73 -0.123718 0.403765 0.439686 0.50102
v -0.334049 0.775 -0.331154 0.348235 0.400392 0.473725
v -0.327121 0.73 -0.319154 0.403765 0.439686 0.50102
v -0.327121 0.73 -0.319154 0.403765 0.439686 0.50102
v 0.154241 0.73 -0.123718 0.403765 0.439686 0.50102
v 0.168098 0.775 -0.123718 0.348235 0.400392 0.473725
v 0.26262 0.775 0.04 0.348235 0.400392 0.473725
v 0.255692 0.73 0.052 0.403765 0.439686 0.50102
v 0.0945226 0.775 0.331154 0.348235 0.400392 0.473725
v 0.101451 0.73 0.319154 0.403765 0.439686 0.50102
v 0.184264 0.73 0.319154 0.403765 0.439686 0.50102
v 0.191192 0.775 0.331154 0.348235 0.400392 0.473725
v 0.023094 0.775 0.207436 0.348235 0.400392 0.473725
v 0.26262 0.775 0.207436 0.348235 0.400392 0.473725
v 0.405477 0.775 0.207436 0.348235 0.400392 0.473725
v 0.255692 0.73 0.195436 0.403765 0.439686 0.50102
v 0.255692 0.73 0.195436 0.403765 0.439686 0.50102
v 0.398549 0.73 0.195436 0.403765 0.439686 0.50102
v 0.0300222 0.73 0.195436 0.403765 0.439686 0.50102
v -0.119763 0.775 0.207436 0.348235 0.400392 0.473725
v -0.112835 0.73 0.195436 0.403765 0.439686 0.50102
v 0.0300222 0.73 0.195436 0.403765 0.439686 0.50102
v -0.334049 0.775 0.0837179 0.348235 0.400392 0.473725
v -0.368527 0.73 0 0.403765 0.439686 0.50102
v -0.327121 0.73 0.0717179 0.403765 0.439686 0.50102
v -0.191192 0.775 0.0837179 0.348235 0.400392 0.473725
v -0.184264 0.73 0.0717179 0.403765 0.439686 0.50102
v -0.327121 0.73 0.0717179 0.403765 0.439686 0.50102
v -0.184264 0.73 0.0717179 0.403765 0.439686 0.50102
v -0.112835 0.73 0.195436 0.403765 0.439686 0.50102
v 0.453812 0.775 0.123718 0.348235 0.400392 0.473725
v 0.439956 0.73 0.123718 0.403765 0.439686 0.50102
v 0.398549 0.73 0.052 0.403765 0.439686 0.50102
v 0.405477 0.775 0.04 0.348235 0.400392 0.473725
v 0.239526 0.775 -0.247436 0.348235 0.400392 0.473725
v 0.22567 0.73 -0.247436 0.403765 0.439686 0.50102
v 0.184264 0.73 -0.319154 0.403765 0.439686 0.50102
v 0.191192 0.775 -0.331154 0.348235 0.400392 0.473725
v 0.439956 0.73 0.123718 0.403765 0.439686 0.50102
v 0.398549 0.73 0.052 0.403765 0.439686 0.50102
v 0.255692 0.73 0.052 0.403765 0.439686 0.50102
v 0.154241 0.73 -0.123718 0.403765 0.439686 0.50102
v 0.184264 0.73 -0.319154 0.403765 0.439686 0.50102
v 0.0414064 0.73 -0.319154 0.403765 0.439686 0.50102
v -0.374685 0.475 0.0133333 0.718431 0.662353 0.655686
v -0.366987 0.475 1e-12 0.718431 0.662353 0.655686
v -0.326351 0.475 0.0703846 0.718431 0.662353 0.655686
v -0.341747 0.475 0.0703846 0.718431 0.662353 0.655686
v -0.112065 0.475 -0.441538 0.718431 0.662353 0.655686
v -0.104367 0.475 -0.454872 0.718431 0.662353 0.655686
v -0.023094 0.475 -0.454872 0.718431 0.662353 0.655686
v -0.015396 0.475 -0.441538 0.718431 0.662353 0.655686
v 0.0560326 0.475 -0.31782 0.718431 0.662353 0.655686
v 0.0406366 0.475 -0.31782 0.718431 0.662353 0.655686
v -0.030792 0.475 -0.441538 0.718431 0.662353 0.655686
v 0.0598816 0.55 -0.351154 0.625882 0.596863 0.610196
v 0.0483346 0.475 -0.331154 0.718431 0.662353 0.655686
v -0.011547 0.55 -0.474872 0.625882 0.596863 0.610196
v -0.310955 0.475 -0.123718 0.718431 0.662353 0.655686
v -0.382383 0.475 0 0.718431 0.662353 0.655686
v -0.405477 0.55 0 0.625882 0.596863 0.610196
v -0.334049 0.55 -0.123718 0.625882 0.596863 0.610196
v -0.112835 0.73 -0.442872 0.403765 0.439686 0.50102
v -0.13131 0.55 -0.474872 0.625882 0.596863 0.610196
v -0.202739 0.55 -0.351154 0.625882 0.596863 0.610196
v -0.184264 0.73 -0.319154 0.403765 0.439686 0.50102
v -0.0300222 0.73 -0.442872 0.403765 0.439686 0.50102
v 0.0414064 0.73 -0.319154 0.403765 0.439686 0.50102
v -0.112835 0.73 -0.442872 0.403765 0.439686 0.50102
v -0.119763 0.475 -0.454872 0.718431 0.662353 0.655686
v -0.191192 0.475 -0.331154 0.718431 0.662353 0.655686
v -0.295559 0.475 -0.123718 0.718431 0.662353 0.655686
v -0.382383 0.475 -0.247436 0.718431 0.662353 0.655686
v -0.374685 0.475 -0.260769 0.718431 0.662353 0.655686
v -0.405477 0.55 -0.247436 0.625882 0.596863 0.610196
v -0.297098 0.73 -0.123718 0.403765 0.439686 0.50102
v -0.368527 0.73 -0.247436 0.403765 0.439686 0.50102
v -0.334049 0.475 -0.331154 0.718431 0.662353 0.655686
v -0.318653 0.475 -0.331154 0.718431 0.662353 0.655686
v -0.366987 0.475 -0.247436 0.718431 0.662353 0.655686
v -0.345596 0.55 -0.351154 0.625882 0.596863 0.610196
v -0.327121 0.73 -0.319154 0.403765 0.439686 0.50102
v -0.368527 0.73 -0.247436 0.403765 0.439686 0.50102
v -0.327121 0.73 -0.319154 0.403765 0.439686 0.50102
v -0.183494 0.475 -0.31782 0.718431 0.662353 0.655686
v -0.326351 0.475 -0.31782 0.718431 0.662353 0.655686
v 0.26262 0.475 0.04 0.718431 0.662353 0.655686
v 0.168098 0.475 -0.123718 0.718431 0.662353 0.655686
v 0.191192 0.55 -0.123718 0.625882 0.596863 0.610196
v 0.274167 0.55 0.02 0.625882 0.596863 0.610196
v 0.19889 0.475 0.31782 0.718431 0.662353 0.655686
v 0.191192 0.475 0.331154 0.718431 0.662353 0.655686
v 0.0945226 0.475 0.331154 0.718431 0.662353 0.655686
v 0.0868246 0.475 0.31782 0.718431 0.662353 0.655686
v 0.202739 0.55 0.351154 0.625882 0.596863 0.610196
v 0.0829756 0.55 0.351154 0.625882 0.596863 0.610196
v 0.101451 0.73 0.319154 0.403765 0.439686 0.50102
v 0.274167 0.55 0.227436 0.625882 0.596863 0.610196
v 0.255692 0.73 0.195436 0.403765 0.439686 0.50102
v 0.184264 0.73 0.319154 0.403765 0.439686 0.50102
v 0.0300222 0.73 0.195436 0.403765 0.439686 0.50102
v 0.011547 0.55 0.227436 0.625882 0.596863 0.610196
v 0.255692 0.73 0.195436 0.403765 0.439686 0.50102
v 0.417024 0.55 0.227436 0.625882 0.596863 0.610196
v 0.398549 0.73 0.195436 0.403765 0.439686 0.50102
v 0.254922 0.475 0.194102 0.718431 0.662353 0.655686
v 0.26262 0.475 0.207436 0.718431 0.662353 0.655686
v 0.183494 0.475 0.31782 0.718431 0.662353 0.655686
v 0.390081 0.475 0.207436 0.718431 0.662353 0.655686
v 0.397779 0.475 0.194102 0.718431 0.662353 0.655686
v 0.405477 0.475 0.207436 0.718431 0.662353 0.655686
v 0.023094 0.475 0.207436 0.718431 0.662353 0.655686
v 0.255692 0.73 0.052 0.403765 0.439686 0.50102
v 0.154241 0.73 -0.123718 0.403765 0.439686 0.50102
v 0.030792 0.475 0.194102 0.718431 0.662353 0.655686
v -0.119763 0.475 0.207436 0.718431 0.662353 0.655686
v -0.127461 0.475 0.194102 0.718431 0.662353 0.655686
v 0.102221 0.475 0.31782 0.718431 0.662353 0.655686
v -0.13131 0.55 0.227436 0.625882 0.596863 0.610196
v -0.334049 0.475 0.0837179 0.718431 0.662353 0.655686
v -0.345596 0.55 0.103718 0.625882 0.596863 0.610196
v -0.191192 0.475 0.0837179 0.718431 0.662353 0.655686
v -0.183494 0.475 0.0703846 0.718431 0.662353 0.655686
v -0.112065 0.475 0.194102 0.718431 0.662353 0.655686
v -0.202739 0.55 0.103718 0.625882 0.596863 0.610196
v -0.327121 0.73 0.0717179 0.403765 0.439686 0.50102
v -0.184264 0.73 0.0717179 0.403765 0.439686 0.50102
v -0.368527 0.73 0 0.403765 0.439686 0.50102
v -0.297098 0.73 -0.123718 0.403765 0.439686 0.50102
v -0.327121 0.73 0.0717179 0.403765 0.439686 0.50102
v -0.368527 0.73 0 0.403765 0.439686 0.50102
v -0.112835 0.73 0.195436 0.403765 0.439686 0.50102
v 0.191192 0.475 -0.331154 0.718431 0.662353 0.655686
v 0.239526 0.475 -0.247436 0.718431 0.662353 0.655686
v 0.231828 0.475 -0.234102 0.718431 0.662353 0.655686
v 0.175796 0.475 -0.331154 0.718431 0.662353 0.655686
v 0.405477 0.475 0.04 0.718431 0.662353 0.655686
v 0.453812 0.475 0.123718 0.718431 0.662353 0.655686
v 0.446114 0.475 0.137051 0.718431 0.662353 0.655686
v 0.390081 0.475 0.04 0.718431 0.662353 0.655686
v 0.417024 0.55 0.02 0.625882 0.596863 0.610196
v 0.476906 0.55 0.123718 0.625882 0.596863 0.610196
v 0.202739 0.55 -0.351154 0.625882 0.596863 0.610196
v 0.26262 0.55 -0.247436 0.625882 0.596863 0.610196
v 0.398549 0.73 0.052 0.403765 0.439686 0.50102
v 0.439956 0.73 0.123718 0.403765 0.439686 0.50102
v 0.398549 0.73 0.195436 0.403765 0.439686 0.50102
v 0.255692 0.73 0.052 0.403765 0.439686 0.50102
v 0.398549 0.73 0.052 0.403765 0.439686 0.50102
v 0.0414064 0.73 -0.319154 0.403765 0.439686 0.50102
v 0.184264 0.73 -0.319154 0.403765 0.439686 0.50102
v 0.22567 0.73 -0.247436 0.403765 0.439686 0.50102
v 0.184264 0.73 -0.319154 0.403765 0.439686 0.50102
v 0.22567 0.73 -0.247436 0.403765 0.439686 0.50102
v 0.438416 0.475 0.123718 0.718431 0.662353 0.655686
v 0.22413 0.475 -0.247436 0.718431 0.662353 0.655686
v 0.1604 0.475 -0.137051 0.718431 0.662353 0.655686
v 0.254922 0.475 0.0533333 0.718431 0.662353 0.655686
v 0.397779 0.475 0.0533333 0.718431 0.662353 0.655686
v 0.152702 0.475 -0.123718 0.718431 0.662353 0.655686
v 0.183494 0.475 -0.31782 0.718431 0.662353 0.655686
v 0.181315 0.25 -0.140825 0.903529 0.793333 0.746667
v -0.343926 0.25 -0.140825 0.903529 0.793333 0.746667
v -0.0639377 0.25 0.227436 0.903529 0.793333 0.746667
v 0.148678 0.25 -0.140825 0.903529 0.793333 0.746667
v 0.0991185 0.25 -0.0549857 0.903529 0.793333 0.746667
v 0.0495592 0.25 -0.140825 0.903529 0.793333 0.746667
v 0.0495592 0.25 0.0308534 0.903529 0.793333 0.746667
v -0.387664 0.25 0.0308534 0.903529 0.793333 0.746667
v -0.0495592 0.25 -0.140825 0.903529 0.793333 0.746667
v -0.148678 0.25 0.0308534 0.903529 0.793333 0.746667
v -0.0495592 0.25 0.0308534 0.903529 0.793333 0.746667
v -0.0991185 0.25 -0.0549857 0.903529 0.793333 0.746667

vt 0.75 1
vt 1 0.5
vt 0.75 0
vt 0.25 0
vt 0 0.5
vt 0.25 1
vt 0.5 0.757576
vt 0.5 0
vt 0.666667 0
vt 0.666667 0.757576
vt 0.833333 0
vt 0.833333 0.757576
vt 1 0
vt 1 0.757576
vt 0.166667 0
vt 0.166667 0.757576
vt 0 0.757576
vt 0 0
vt 0.333333 0
vt 0.333333 0.757576
vt 0.333333 0.757576
vt 0.039864 0
vt 0.0454545 0.5
vt 0.087415 0
vt 0.0909091 0.5
vt 0.142653 0
vt 0.136364 0.5
vt 0.190204 0
vt 0.181818 0.5
vt 0.230068 0
vt 0.227273 0.5
vt 0.277619 0
vt 0.272727 0.5
vt 0.32517 0
vt 0.318182 0.5
vt 0.365034 0
vt 0.363636 0.5
vt 0.412585 0
vt 0.409091 0.5
vt 0.460136 0
vt 0.454545 0.5
vt 0.5 0
vt 0.5 0.5
vt 0.547551 0
vt 0.545455 0.5
vt 0.595102 0
vt 0.590909 0.5
vt 0.634966 0
vt 0.636364 0.5
vt 0.682517 0
vt 0.681818 0.5
vt 0.730068 0
vt 0.727273 0.5
vt 0.777619 0
vt 0.772727 0.5
vt 0.82517 0
vt 0.818182 0.5
vt 0.865034 0
vt 0.863636 0.5
vt 0.912585 0
vt 0.909091 0.5
vt 0.960136 0
vt 0.954545 0.5
vt 1 0
vt 0.155829 0.833333
vt 0.0800952 0.833333
vt 0.207771 0.833333
vt 0 0.833333
vt 0.0281524 0.833333
vt 0.0281524 0.833333
vt 0.971848 0.833333
vt 0.919905 0.833333
vt 1 0.833333
vt 0.83981 0.833333
vt 0.787867 0.833333
vt 0.867962 0.833333
vt 0.867962 0.833333
vt 0.919905 0.833333
vt 0.551943 0.833333
vt 0.5 0.833333
vt 0.603886 0.833333
vt 0.632038 0.833333
vt 0.683981 0.833333
vt 0.735924 0.833333
vt 0.787867 0.833333
vt 0.235924 0.833333
vt 0.287867 0.833333
vt 0.235924 0.833333
vt 0.33981 0.833333
vt 0.287867 0.833333
vt 0.367962 0.833333
vt 0.419905 0.833333
vt 0.471848 0.833333
vt 0.419905 0.833333
vt 0.5 0.833333
vt 0.471848 0.833333
vt 0.485919 0.824768
vt 0.615882 0.587616
vt 0.711912 0.762847
vt 0.677978 0.824768
vt 0.225993 0.824768
vt 0.38989 1
vt 0.322022 1
vt 0.225993 0.350463
vt 0.0960295 0.587616
vt 0 0.412384
vt 0.0339337 0.350463
vt 0.774007 0.175232
vt 0.514081 0.175232
vt 0.61011 0
vt 0.677978 0
vt 0.774007 0.299074
vt 0.966066 0.175232
vt 1 0.237153
vt 0.966066 0.299074
vt 0.322022 0.175232
vt 0.0339337 0.824768
vt 0 0.762847
vt 0.295436 1
vt 0.282984 0.5
vt 0.332834 0.5
vt 0.350623 1
vt 0.28653 0.2
vt 0.3379 0.2
vt 0.54985 0.5
vt 0.55137 0.2
vt 0.60274 0.2
vt 0.5997 0.5
vt 0.610374 1
vt 0.555187 1
vt 0.366567 0.5
vt 0.370125 1
vt 0.416417 0.5
vt 0.425312 1
vt 0.3379 0.2
vt 0.36758 0.2
vt 0.36758 0.2
vt 0.41895 0.2
vt 0.5 0.5
vt 0.5 0.2
vt 0.55137 0.2
vt 0.5 1
vt 0.466267 0.5
vt 0.480499 1
vt 0.47032 0.2
vt 0.5 0.2
vt 0.47032 0.2
vt 0.41895 0.2
vt 0.15411 0.2
vt 0.149551 0.5
vt 0.083583 0.5
vt 0.0810502 0.2
vt 0.832834 0.5
vt 0.8379 0.2
vt 0.86758 0.2
vt 0.866567 0.5
vt 0.870125 1
vt 0.850623 1
vt 0.0746883 1
vt 0.165561 1
vt 0.795436 1
vt 0.782984 0.5
vt 0.916417 0.5
vt 0.925312 1
vt 0.966267 0.5
vt 0.980499 1
vt 0.91895 0.2
vt 0.91895 0.2
vt 0.97032 0.2
vt 0.78653 0.2
vt 0.733134 0.5
vt 0.73516 0.2
vt 0.78653 0.2
vt 0.740249 1
vt 0.633433 0.5
vt 0.60274 0.2
vt 0.63242 0.2
vt 0.629875 1
vt 0.683283 0.5
vt 0.685062 1
vt 0.68379 0.2
vt 0.63242 0.2
vt 0.68379 0.2
vt 0.73516 0.2
vt 0 0.2
vt 0.0296803 0.2
vt 0.0337328 0.5
vt 0.199401 0.5
vt 0.20548 0.2
vt 0.23516 0.2
vt 0.233134 0.5
vt 0.0195013 1
vt 0 1
vt 0.240249 1
vt 0.220748 1
vt 1 0.2
vt 1 0.5
vt 1 1
vt 0.0296803 0.2
vt 0.0810502 0.2
vt 0.20548 0.2
vt 0.15411 0.2
vt 0.23516 0.2
vt 0.28653 0.2
vt 0.00920599 0.404339
vt 0.018412 0.421302
vt 0.0670089 0.331757
vt 0.048597 0.331757
vt 0.323272 0.983037
vt 0.332478 1
vt 0.429672 1
vt 0.438878 0.983037
vt 0.524298 0.82564
vt 0.505887 0.82564
vt 0.420466 0.983037
vt 0.277619 0.5
vt 0.282984 0
vt 0.332834 0
vt 0.32517 0.5
vt 0.54985 0
vt 0.5997 0
vt 0.595102 0.5
vt 0.547551 0.5
vt 0.367611 0.9
vt 0.365034 0.5
vt 0.412585 0.5
vt 0.419028 0.9
vt 0.338055 0.9
vt 0.286639 0.9
vt 0.367611 0.9
vt 0.338055 0.9
vt 0.366567 0
vt 0.416417 0
vt 0.103833 0.578698
vt 0.0854209 0.578698
vt 0 0.736095
vt 0.00920599 0.753058
vt 0 0.421302
vt 0.5 0.5
vt 0.5 0
vt 0.551417 0.9
vt 0.5 0.9
vt 0.057803 0.842603
vt 0.0762149 0.842603
vt 0.018412 0.736095
vt 0.460136 0.5
vt 0.466267 0
vt 0.470444 0.9
vt 0.470444 0.9
vt 0.228645 0.842603
vt 0.237851 0.82564
vt 0.0670089 0.82564
vt 0.314066 1
vt 0.083583 0
vt 0.149551 0
vt 0.142653 0.5
vt 0.087415 0.5
vt 0.69514 0.016963
vt 0.685934 0
vt 0.570328 0
vt 0.561122 0.016963
vt 0.832834 0
vt 0.866567 0
vt 0.865034 0.5
vt 0.82517 0.5
vt 0.867611 0.9
vt 0.838055 0.9
vt 0.912585 0.5
vt 0.919028 0.9
vt 0.867611 0.9
vt 0.786639 0.9
vt 0.777619 0.5
vt 0.919028 0.9
vt 0.960136 0.5
vt 0.970444 0.9
vt 0.762149 0.17436
vt 0.771355 0.157397
vt 0.676728 0.016963
vt 0.923785 0.157397
vt 0.932991 0.17436
vt 0.916417 0
vt 0.966267 0
vt 0.782984 0
vt 0.0809723 0.9
vt 0.15425 0.9
vt 0.494113 0.17436
vt 0.484908 0.157397
vt 0.314066 0.157397
vt 0.30486 0.17436
vt 0.579534 0.016963
vt 0.730068 0.5
vt 0.733134 0
vt 0.735222 0.9
vt 0.633433 0
vt 0.634966 0.5
vt 0.228645 0.314794
vt 0.237851 0.331757
vt 0.323272 0.17436
vt 0.057803 0.314794
vt 0.683283 0
vt 0.682517 0.5
vt 0.632389 0.9
vt 0.683806 0.9
vt 0.602833 0.9
vt 0.632389 0.9
vt 0.602833 0.9
vt 0.735222 0.9
vt 0.685934 0.842603
vt 0.743737 0.736095
vt 0.734531 0.719132
vt 0.667522 0.842603
vt 0.942197 0.370413
vt 1 0.263905
vt 0.990794 0.246942
vt 0.923785 0.370413
vt 0.0337328 0
vt 0.039864 0.5
vt 0.199401 0
vt 0.233134 0
vt 0.230068 0.5
vt 0.190204 0.5
vt 0.0295557 0.9
vt 0 0.9
vt 1 0.5
vt 1 0.9
vt 0.970444 0.9
vt 0.0295557 0.9
vt 0.286639 0.9
vt 0.235222 0.9
vt 0.205666 0.9
vt 0.235222 0.9
vt 0.981588 0.263905
vt 0.942197 0.157397
vt 1 0
vt 0.725325 0.736095
vt 0.658316 0.578698
vt 0.64911 0.595661
vt 0.762149 0.35345
vt 0.771355 0.370413
vt 0.932991 0.35345
vt 0.64911 0.595661
vt 0.639904 0.578698
vt 0.676728 0.82564
vt 0.524298 0.82564
vt 0.515092 0.842603
vt 0.665008 0.595597
vt 0.229763 0.850225
vt 0.310712 1
vt 0.446439 1
vt 0 0.724662
vt 0.0678634 0.850225
vt 0.0697564 0.595597
vt 0.676202 0.574887
vt 0.527389 0.850225
vt 0.689288 0.850225
vt 0.757151 0.724662
vt 0.932137 0.149775
vt 0.770237 0.149775
vt 0.770237 0.4009
vt 0.932137 0.4009
vt 1 0.275338
vt 0.553561 0
vt 0.472611 0.149775
vt 0.689288 0
vt 0.387065 0.149775
vt 0.628021 0.595597
vt 0.571856 0.491679
vt 0.51569 0.595597
vt 0.51569 0.387761
vt 0.229763 0.29955
vt 0.0678634 0.29955
vt 0.0201876 0.387761
vt 0.310712 0.149775
vt 0.0809496 0.574887
vt 0.40336 0.595597
vt 0 0.425113
vt 0.29103 0.387761
vt 0.40336 0.387761
vt 0.347195 0.491679

vn 0 -1 0
vn 0.866025 0 0.5
vn 0.866025 0 0.5
vn 0.866025 0 -0.5
vn 0.866025 0 -0.5
vn 0 0 -1
vn -0.866025 0 -0.5
vn -0.866025 0 -0.5
vn -0.866025 0 0.5
vn -0.866025 0 0.5
vn 0 0 1
vn 0.866025 0 -0.5
vn 0.866025 0 -0.5
vn 0.866025 0 -0.5
vn 0.866025 0 -0.5
vn 0.866025 0 0.5
vn 0.866025 0 0.5
vn 0.866025 0 -0.5
vn 0.866025 0 -0.5
vn 0.866025 0 -0.5
vn -0.866025 0 -0.5
vn -0.866025 0 -0.5
vn -0.866025 0 -0.5
vn -0.866025 0 0.5
vn -0.866025 0 0.5
vn -0.866025 0 -0.5
vn -0.866025 0 -0.5
vn -0.866025 0 0.5
vn -0.866025 0 0.5
vn -0.866025 0 0.5
vn -0.866025 0 0.5
vn -0.866025 0 0.5
vn -0.866025 0 0.5
vn 0.866025 0 0.5
vn 0.866025 0 0.5
vn 0.866025 0 0.5
vn 0.866025 0 -0.5
vn 0.866025 0 0.5
vn 0.866025 0 -0.5
vn 0.866025 0 0.5
vn -0.866025 0 0.5
vn 0.866025 0 0.5
vn -0.866025 0 0.5
vn -0.866025 0 0.5
vn 0.866025 0 -0.5
vn 0.866025 0 -0.5
vn -0.866025 0 -0.5
vn -0.866025 0 -0.5
vn 0 1 0
vn 0.866025 0 -0.5
vn -0.866025 0 -0.5
vn -0.866025 0 -0.5
vn -0.866025 0 -0.5
vn -0.866025 0 -0.5
vn 0.866025 0 -0.5
vn 0.866025 0 -0.5
vn 0.866025 0 -0.5
vn -0.866025 0 0.5
vn 0.866025 0 0.5
vn 0.866025 0 0.5
vn -0.866025 0 0.5
vn -0.866025 0 0.5
vn -0.866025 0 0.5
vn 0.866025 0 -0.5
vn 0.866025 0 -0.5
vn 0.866025 0 -0.5
vn 0.866025 0 -0.5
vn 0.866025 0 -0.5
vn 0.866025 0 0.5
vn 0.866025 0 0.5
vn 0.866025 0 0.5
vn -0.866025 0 -0.5
vn 0.866025 0 -0.5
vn -0.866025 0 0.5
vn 0.866025 0 -0.5
vn 0.866025 0 0.5
vn 0.866025 0 -0.5

f 1/1/1 2/2/1 3/3/1 4/4/1 5/5/1 6/6/1
f 7/7/2 3/8/3 2/9/3 8/10/2
f 9/10/4 2/9/5 1/11/5 10/12/4
f 11/12/6 1/11/6 6/13/6 12/14/6
f 5/15/7 13/16/8 14/17/8 6/18/7
f 5/15/9 4/19/9 15/20/10 13/16/10
f 4/19/11 3/8/11 16/7/11 17/21/11
f 18/18/12 19/22/12 20/23/13 21/5/13
f 19/22/6 22/24/6 23/25/6 20/23/6
f 22/24/14 24/26/14 25/27/15 23/25/15
f 24/26/16 26/28/16 27/29/17 25/27/17
f 26/28/12 28/30/12 29/31/18 27/29/18
f 28/30/6 30/32/6 31/33/6 29/31/6
f 30/32/19 32/34/19 33/35/20 31/33/20
f 32/34/6 34/36/6 35/37/6 33/35/6
f 34/36/21 36/38/21 37/39/21 35/37/21
f 36/38/6 38/40/6 39/41/6 37/39/6
f 38/40/22 40/42/22 41/43/23 39/41/23
f 40/42/24 42/44/24 43/45/25 41/43/25
f 42/44/26 44/46/26 45/47/27 43/45/27
f 44/46/28 46/48/28 47/49/29 45/47/29
f 46/48/11 48/50/11 49/51/11 47/49/11
f 48/50/30 50/52/30 51/53/31 49/51/31
f 50/52/11 52/54/11 53/55/11 51/53/11
f 52/54/32 54/56/32 55/57/33 53/55/33
f 54/56/11 56/58/11 57/59/11 55/57/11
f 56/58/34 58/60/34 59/61/34 57/59/34
f 58/60/11 60/62/11 61/63/11 59/61/11
f 60/62/35 18/64/35 21/2/36 61/63/36
f 25/27/15 62/65/37 63/66/37 23/25/15
f 62/65/38 25/27/17 27/29/17 64/67/38
f 65/68/39 21/5/13 20/23/13 66/69/39
f 66/70/6 20/23/6 23/25/6 63/66/6
f 59/61/11 61/63/11 67/71/11 68/72/11
f 67/71/40 61/63/36 21/2/36 65/73/40
f 55/57/33 69/74/41 70/75/41 53/55/33
f 57/59/11 71/76/11 69/74/11 55/57/11
f 71/77/42 57/59/34 59/61/34 68/78/42
f 41/43/25 43/45/25 72/79/43 73/80/43
f 43/45/27 45/47/27 74/81/21 72/79/21
f 74/81/44 45/47/29 47/49/29 75/82/44
f 75/82/11 47/49/11 49/51/11 76/83/11
f 49/51/31 51/53/31 77/84/31 76/83/43
f 51/53/11 53/55/11 78/85/11 77/84/11
f 29/31/18 79/86/45 64/67/46 27/29/18
f 29/31/6 31/33/6 80/87/6 81/88/6
f 31/33/20 33/35/20 82/89/20 83/90/20
f 82/89/6 33/35/6 35/37/6 84/91/6
f 84/91/21 35/37/21 37/39/21 85/92/21
f 37/39/6 39/41/6 86/93/6 87/94/6
f 39/41/23 41/43/23 73/95/47 88/96/48
f 89/97/49 90/98/49 91/99/49 92/100/49
f 93/101/49 89/97/49 94/102/49 95/103/49
f 96/104/49 97/105/49 98/106/49 99/107/49
f 100/108/49 101/109/49 102/110/49 103/111/49
f 104/112/49 100/108/49 105/113/49 106/114/49 107/115/49
f 108/116/49 100/108/49 104/112/49 89/97/49 109/117/49 110/118/49
f 89/119/20 111/120/18 112/121/18 94/122/20
f 111/120/18 113/123/50 114/124/50 112/121/18
f 115/125/27 116/126/21 117/127/21 118/128/27
f 115/125/27 118/128/27 98/129/26 97/130/26
f 119/131/6 95/132/6 94/122/6 112/121/6
f 119/131/23 120/133/23 93/134/21 95/132/21
f 119/131/6 112/121/6 121/135/6 122/136/6
f 119/131/23 123/137/51 124/138/51 120/133/23
f 125/139/25 126/140/43 127/141/43 115/125/25
f 125/139/25 115/125/25 97/130/24 110/142/24
f 128/143/6 109/144/6 93/134/6 120/133/6
f 128/143/52 125/139/52 110/142/53 109/144/53
f 128/143/52 129/145/54 126/146/54 125/139/52
f 130/147/6 128/143/6 120/133/6 124/148/6
f 131/149/55 132/150/56 133/151/56 134/152/55
f 135/153/11 136/154/11 137/155/11 138/156/11
f 135/153/11 138/156/11 103/157/11 102/158/11
f 104/159/57 133/151/56 132/150/56 90/160/57
f 101/161/32 139/162/58 135/153/58 102/158/32
f 140/163/42 100/164/59 103/157/59 138/156/42
f 100/164/11 140/163/11 141/165/11 105/166/11
f 142/167/60 140/163/42 138/156/42 137/155/60
f 140/163/11 143/168/11 144/169/11 141/165/11
f 139/162/58 145/170/32 136/154/32 135/153/58
f 146/171/11 147/172/11 148/173/11 139/162/11
f 146/171/11 139/162/11 101/161/11 108/174/11
f 149/175/61 118/128/61 150/176/62 151/177/62
f 149/175/61 99/178/63 98/129/63 118/128/61
f 99/178/11 149/175/11 152/179/11 96/180/11
f 152/179/31 146/171/31 108/174/43 96/180/43
f 153/181/11 152/179/11 149/175/11 154/182/11
f 152/179/31 155/183/31 156/184/31 146/171/31
f 157/5/64 158/185/65 159/186/65 160/187/64
f 161/188/66 162/189/67 163/190/67 164/191/66
f 157/5/64 160/187/64 107/192/68 106/193/68
f 161/188/66 164/191/66 92/194/68 91/195/68
f 165/196/69 157/197/70 141/165/70 144/169/69
f 157/197/70 106/198/71 105/166/71 141/165/70
f 160/187/6 166/199/6 167/200/6 133/151/6
f 162/201/38 161/188/17 132/150/17 168/202/38
f 160/187/6 133/151/6 104/159/6 107/192/6
f 161/188/17 91/195/16 90/160/16 132/150/17
f 164/191/6 111/120/6 89/119/6 92/194/6
f 164/191/6 169/203/6 170/204/6 111/120/6
f 171/205/1 172/206/1 173/207/1 174/208/1
f 175/209/1 176/210/1 177/211/1 178/212/1
f 179/213/1 180/214/1 181/215/1 178/212/1
f 182/216/19 183/217/18 177/218/18 184/219/19
f 185/220/27 186/221/27 187/222/26 188/223/26
f 189/224/21 190/225/21 191/226/21 192/227/21
f 193/228/19 194/229/19 182/216/19 184/219/19
f 190/225/6 195/230/6 193/231/6 184/219/6
f 196/232/6 190/225/6 184/219/6 177/218/6
f 196/232/23 197/233/23 191/226/21 190/225/21
f 198/234/1 185/235/1 199/236/1 200/237/1
f 186/238/1 185/235/1 198/234/1 171/205/1
f 201/239/24 199/240/25 185/220/25 188/223/24
f 201/239/24 188/223/24 202/241/24 203/242/24
f 204/243/1 205/244/1 206/245/1 200/237/1
f 207/246/22 204/247/52 199/240/52 201/239/22
f 207/246/6 208/248/6 192/227/6 191/226/6
f 207/246/22 201/239/22 209/242/72 210/249/72
f 197/250/1 211/251/1 212/252/1 205/244/1
f 176/210/1 211/251/1 197/250/1 196/253/1
f 204/247/6 207/246/6 191/226/6 197/233/6
f 213/254/56 214/255/56 215/256/14 216/257/14
f 217/258/1 218/259/1 219/260/1 220/261/1
f 219/262/11 218/263/11 221/264/11 222/265/11
f 222/265/11 221/264/11 137/266/11 223/267/11
f 224/268/34 225/269/34 226/270/34 221/264/34
f 227/271/32 228/272/32 222/265/32 223/267/32
f 229/273/11 224/268/11 230/274/11 231/275/11
f 232/276/1 233/277/1 217/258/1 234/278/1
f 235/279/1 233/277/1 232/276/1 236/280/1
f 233/281/42 224/268/34 221/264/34 218/263/42
f 224/268/11 233/281/11 237/282/11 230/274/11
f 228/272/32 238/283/58 219/262/58 222/265/32
f 239/284/73 216/257/14 215/256/14 240/285/73
f 241/286/1 238/287/1 242/288/1 243/289/1
f 220/261/1 238/287/1 241/286/1 244/290/1
f 245/291/11 242/292/11 238/283/11 228/272/11
f 245/291/11 228/272/11 227/271/11 156/293/11
f 246/294/61 247/295/28 187/222/28 186/221/61
f 248/296/1 249/297/1 250/298/1 243/289/1
f 174/208/1 249/297/1 248/296/1 246/299/1
f 248/300/11 251/301/11 247/295/11 246/294/11
f 251/301/30 248/300/31 242/292/31 245/291/30
f 252/302/11 247/295/11 251/301/11 253/303/11
f 254/304/26 255/241/26 188/223/26 187/222/26
f 247/295/28 256/305/74 257/306/74 187/222/28
f 251/301/30 245/291/30 258/307/31 253/303/31
f 259/308/1 260/309/1 261/310/1 262/311/1
f 263/312/1 264/313/1 265/314/1 266/315/1
f 264/18/64 263/316/64 267/317/12 268/5/12
f 260/318/66 259/319/66 269/320/12 270/321/12
f 268/5/12 267/317/12 271/322/75 272/323/75
f 268/324/35 272/325/76 273/326/76 230/274/35
f 267/317/6 216/257/6 274/284/6 275/327/6
f 269/320/6 182/216/6 276/328/6 277/329/6
f 270/321/16 278/330/16 240/285/16 215/256/16
f 270/321/12 269/320/12 279/331/77 280/330/77
f 281/332/1 265/314/1 237/333/1 235/279/1
f 264/334/70 268/324/35 230/274/35 237/282/70
f 282/335/1 261/310/1 214/336/1 283/337/1
f 284/338/1 213/339/1 266/315/1 285/340/1
f 283/341/1 213/339/1 284/338/1 286/342/1
f 267/317/6 263/316/6 213/254/6 216/257/6
f 260/318/17 270/321/16 215/256/16 214/255/17
f 262/311/1 287/343/1 179/344/1 183/345/1
f 269/320/6 259/319/6 183/217/6 182/216/6
f 288/346/1 36/347/1 34/348/1 32/349/1
f 40/350/1 38/351/1 36/347/1 288/346/1 289/352/1
f 24/353/1 30/354/1 28/355/1 26/356/1
f 60/357/1 58/358/1 22/359/1 19/360/1 18/361/1
f 54/362/1 52/363/1 22/359/1 58/358/1 56/364/1
f 52/363/1 290/365/1 291/366/1 288/346/1 22/359/1
f 291/366/1 292/367/1 293/368/1
f 294/369/1 48/370/1 46/371/1 295/372/1
f 50/373/1 48/370/1 294/369/1 290/365/1
f 42/374/1 289/352/1 296/375/1
f 295/372/1 44/376/1 42/374/1 296/375/1 297/377/1
f 298/378/1 297/377/1 299/379/1