v -0.5 0 -0.866025
v 1 0 -1.73205
v 1 0 1.73205
v -0.5 0 0.866025
v 1 1 -1.73205
v 1 1 1.73205
v -0.285714 0 -0.989743
v -0.5 0.142857 -0.866025
v -0.285714 0.142857 -0.989743
v -0.285714 0 0.989743
v -0.285714 0.142857 0.989743
v -0.5 0.142857 0.866025
v -0.0714286 0 -1.11346
v -0.285714 0.285714 -0.989743
v -0.0714286 0.285714 -1.11346
v -0.0714286 0 1.11346
v -0.0714286 0.285714 1.11346
v -0.285714 0.285714 0.989743
v 0.142857 0 -1.23718
v -0.0714286 0.428571 -1.11346
v 0.142857 0.428571 -1.23718
v 0.142857 0 1.23718
v 0.142857 0.428571 1.23718
v -0.0714286 0.428571 1.11346
v 0.357143 0 -1.3609
v 0.142857 0.571429 -1.23718
v 0.357143 0.571429 -1.3609
v 0.357143 0 1.3609
v 0.357143 0.571429 1.3609
v 0.142857 0.571429 1.23718
v 0.571429 0 -1.48461
v 0.357143 0.714286 -1.3609
v 0.571429 0.714286 -1.48461
v 0.571429 0 1.48461
v 0.571429 0.714286 1.48461
v 0.357143 0.714286 1.3609
v 0.785714 0 -1.60833
v 0.571429 0.857143 -1.48461
v 0.785714 0.857143 -1.60833
v 0.785714 0 1.60833
v 0.785714 0.857143 1.60833
v 0.571429 0.857143 1.48461
v 0.785714 1 -1.60833
v 0.785714 1 1.60833

f 1 2 3 4
f 3 2 5 6
f 7 1 8 9
f 4 10 11 12
f 8 1 4 12
f 9 8 12 11
f 13 7 14 15
f 10 16 17 18
f 14 9 11 18
f 15 14 18 17
f 19 13 20 21
f 16 22 23 24
f 20 15 17 24
f 21 20 24 23
f 25 19 26 27
f 22 28 29 30
f 26 21 23 30
f 27 26 30 29
f 31 25 32 33
f 28 34 35 36
f 32 27 29 36
f 33 32 36 35
f 37 31 38 39
f 34 40 41 42
f 38 33 35 42
f 39 38 42 41
f 2 37 43 5
f 40 3 6 44
f 43 39 41 44
f 5 43 44 6