v -0.8 1 0.69282 1 0 0
v -0.8 1 1.03923 1 0 0
v -0.5 1 0.866025 1 0 0
v -0.8 1 1.03923 0 0 1
v -0.8 1 0.69282 0 0 1
v -0.8 0 0.69282 0 0 1
v -0.8 0 1.03923 0 0 1
v 2.5 1 1.21244 1 0 0
v 2.8 1 1.03923 1 0 0
v 2.5 1 0.866025 1 0 0
v 2.8 1 1.03923 0 0 1
v 2.5 1 1.21244 0 0 1
v 2.5 0 1.21244 0 0 1
v 2.8 0 1.03923 0 0 1
v -0.5 1 -0.866025 1 0 0
v -0.8 1 -0.69282 1 0 0
v -0.8 0 -0.69282 0 0 1
v -0.8 1 -0.69282 0 0 1
v -2 1 -1.73205 1 0 0
v -0.5 1 -2.59808 1 0 0
v -0.8 1 -2.77128 1 0 0
v -2 1 -2.07846 1 0 0
v -0.8 0 -2.77128 0 0 1
v -2 0 -2.07846 0 0 1
v -2 1 -2.07846 0 0 1
v -0.8 1 -2.77128 0 0 1
v -2 1 -1.38564 1 0 0
v -2 0 -1.38564 0 0 1
v -2 1 -1.38564 0 0 1
v 2.8 1 -1.03923 1 0 0
v 2.5 1 -1.21244 1 0 0
v 2.5 1 -0.866025 1 0 0
v 2.5 1 -1.21244 0 0 1
v 2.8 1 -1.03923 0 0 1
v 2.8 0 -1.03923 0 0 1
v 2.5 0 -1.21244 0 0 1
v -0.5 1 1.21244 1 0 0
v -0.5 1 1.21244 0 0 1
v -0.5 0 1.21244 0 0 1
v -0.2 1 -2.77128 1 0 0
v -0.5 1 -2.94449 1 0 0
v -0.5 1 -2.94449 0 0 1
v -0.2 1 -2.77128 0 0 1
v -0.2 0 -2.77128 0 0 1
v -0.5 0 -2.94449 0 0 1
v -2.3 1 -1.55885 1 0 0
v -2.3 1 -1.55885 0 0 1
v -2.3 0 -1.55885 0 0 1
v 1 1 1.73205 1 0 0
v 0.7 1 1.90526 1 0 0
v 0.7 0 1.90526 0 0 1
v 0.7 1 1.90526 0 0 1
v 1 1 -1.73205 1 0 0
v 1 1 -2.07846 1 0 0
v 1 0 -2.07846 0 0 1
v 1 1 -2.07846 0 0 1
v -2.3 1 -1.90526 1 0 0
v -2.3 1 -1.90526 0 0 1
v -2.3 0 -1.90526 0 0 1
v 2.8 1 -0.69282 1 0 0
v 2.8 1 -0.69282 0 0 1
v 2.8 0 -0.69282 0 0 1
v 1.3 1 -1.90526 1 0 0
v 1.3 1 -1.90526 0 0 1
v 1.3 0 -1.90526 0 0 1
v 1 1 2.07846 1 0 0
v 1 1 2.07846 0 0 1
v 1 0 2.07846 0 0 1
v 2.8 1 0.69282 1 0 0
v 2.8 1 0.69282 0 0 1
v 2.8 0 0.69282 0 0 1
v 1.3 1 1.90526 1 0 0
v 1.3 0 1.90526 0 0 1
v 1.3 1 1.90526 0 0 1
v 1 1 1.73205 0 1 0
v 2.5 1 0.866025 0 1 0
v 1 1 0 0 1 0
v 2.5 1 -0.866025 0 1 0
v 1 1 -1.73205 0 1 0
v -0.5 1 -0.866025 0 1 0
v -0.5 1 0.866025 0 1 0
v -0.5 1 -2.59808 0 1 0
v -2 1 -1.73205 0 1 0

f 1 2 3
f 4 5 6 7
f 8 9 10
f 11 12 13 14
f 3 15 16 1
f 17 6 5 18
f 19 20 21 22
f 23 24 25 26
f 15 19 27 16
f 28 17 18 29
f 30 31 32
f 33 34 35 36
f 2 37 3
f 38 4 7 39
f 40 41 20
f 42 43 44 45
f 46 27 19
f 29 47 48 28
f 49 3 37 50
f 39 51 52 38
f 20 53 54 40
f 55 44 43 56
f 22 57 19
f 58 25 24 59
f 60 30 32
f 34 61 62 35
f 63 54 53
f 56 64 65 55
f 50 66 49
f 67 52 51 68
f 9 69 10
f 70 11 14 71
f 41 21 20
f 26 42 45 23
f 53 32 31 63
f 36 65 64 33
f 57 46 19
f 47 58 59 48
f 10 49 72 8
f 73 13 12 74
f 66 72 49
f 74 67 68 73
f 32 10 69 60
f 71 62 61 70
f 75 76 77
f 78 77 76
f 77 78 79
f 79 80 77
f 81 77 80
f 80 79 82
f 82 83 80