v -0.142857 0 -0.0549857 0.396078 0.262745 0.129412
v -0.0714286 0 -0.178704 0.396078 0.262745 0.129412
v 0.0714286 0 -0.178704 0.396078 0.262745 0.129412
v 0.142857 0 -0.0549857 0.396078 0.262745 0.129412
v 0.0714286 0 0.0687322 0.396078 0.262745 0.129412
v -0.0714286 0 0.0687322 0.396078 0.262745 0.129412
v -0.0991185 0.25 -0.0549857 0.60404 0.672727 0.741414
v -0.0495592 0.25 -0.140825 0.60404 0.672727 0.741414
v 0.0991185 0.25 -0.0549857 0.60404 0.672727 0.741414
v 0.0495592 0.25 -0.140825 0.60404 0.672727 0.741414
v -0.0495592 0.25 0.0308534 0.60404 0.672727 0.741414
v 0.0495592 0.25 0.0308534 0.60404 0.672727 0.741414
v 0.0495592 0.25 0.0308534 0.60404 0.672727 0.741414
v 0.0991185 0.25 -0.0549857 0.60404 0.672727 0.741414
v 0.0495592 0.25 -0.140825 0.60404 0.672727 0.741414
v -0.0495592 0.25 -0.140825 0.60404 0.672727 0.741414
v -0.0495592 0.25 0.0308534 0.60404 0.672727 0.741414
v 0.274167 0.25 0.227436 0.903529 0.793333 0.746667
v 0.417024 0.25 0.227436 0.903529 0.793333 0.746667
v 0.428571 0.325 0.247436 0.903529 0.793333 0.746667
v 0.285714 0.325 0.247436 0.903529 0.793333 0.746667
v 0.476906 0.25 0.123718 0.903529 0.793333 0.746667
v 0.5 0.325 0.123718 0.903529 0.793333 0.746667
v 0.417024 0.25 0.02 0.903529 0.793333 0.746667
v 0.428571 0.325 0 0.903529 0.793333 0.746667
v 0.274167 0.25 0.02 0.903529 0.793333 0.746667
v 0.285714 0.325 0 0.903529 0.793333 0.746667
v 0.191192 0.25 -0.123718 0.903529 0.793333 0.746667
v 0.214286 0.325 -0.123718 0.903529 0.793333 0.746667
v 0.26262 0.25 -0.247436 0.903529 0.793333 0.746667
v 0.285714 0.325 -0.247436 0.903529 0.793333 0.746667
v 0.202739 0.25 -0.351154 0.903529 0.793333 0.746667
v 0.214286 0.325 -0.371154 0.903529 0.793333 0.746667
v 0.0598816 0.25 -0.351154 0.903529 0.793333 0.746667
v 0.0714286 0.325 -0.371154 0.903529 0.793333 0.746667
v -0.011547 0.25 -0.474872 0.903529 0.793333 0.746667
v 0 0.325 -0.494872 0.903529 0.793333 0.746667
v -0.13131 0.25 -0.474872 0.903529 0.793333 0.746667
v -0.142857 0.325 -0.494872 0.903529 0.793333 0.746667
v -0.202739 0.25 -0.351154 0.903529 0.793333 0.746667
v -0.214286 0.325 -0.371154 0.903529 0.793333 0.746667
v -0.345596 0.25 -0.351154 0.903529 0.793333 0.746667
v -0.357143 0.325 -0.371154 0.903529 0.793333 0.746667
v -0.405477 0.25 -0.247436 0.903529 0.793333 0.746667
v -0.428571 0.325 -0.247436 0.903529 0.793333 0.746667
v -0.334049 0.25 -0.123718 0.903529 0.793333 0.746667
v -0.357143 0.325 -0.123718 0.903529 0.793333 0.746667
v -0.405477 0.25 0 0.903529 0.793333 0.746667
v -0.428571 0.325 0 0.903529 0.793333 0.746667
v -0.345596 0.25 0.103718 0.903529 0.793333 0.746667
v -0.357143 0.325 0.123718 0.903529 0.793333 0.746667
v -0.202739 0.25 0.103718 0.903529 0.793333 0.746667
v -0.214286 0.325 0.123718 0.903529 0.793333 0.746667
v -0.13131 0.25 0.227436 0.903529 0.793333 0.746667
v -0.142857 0.325 0.247436 0.903529 0.793333 0.746667
v 0.011547 0.25 0.227436 0.903529 0.793333 0.746667
v 0 0.325 0.247436 0.903529 0.793333 0.746667
v 0.0829756 0.25 0.351154 0.903529 0.793333 0.746667
v 0.0714286 0.325 0.371154 0.903529 0.793333 0.746667
v 0.202739 0.25 0.351154 0.903529 0.793333 0.746667
v 0.214286 0.325 0.371154 0.903529 0.793333 0.746667
v 0.183494 0.475 -0.31782 0.718431 0.662353 0.655686
v 0.0406366 0.475 -0.31782 0.718431 0.662353 0.655686
v -0.030792 0.475 -0.441538 0.718431 0.662353 0.655686
v -0.112065 0.475 -0.441538 0.718431 0.662353 0.655686
v -0.183494 0.475 -0.31782 0.718431 0.662353 0.655686
v -0.112065 0.475 -0.441538 0.718431 0.662353 0.655686
v -0.326351 0.475 -0.31782 0.718431 0.662353 0.655686
v -0.183494 0.475 -0.31782 0.718431 0.662353 0.655686
v -0.366987 0.475 -0.247436 0.718431 0.662353 0.655686
v -0.295559 0.475 -0.123718 0.718431 0.662353 0.655686
v -0.112065 0.475 0.194102 0.718431 0.662353 0.655686
v -0.183494 0.475 0.0703846 0.718431 0.662353 0.655686
v -0.366987 0.475 0 0.718431 0.662353 0.655686
v -0.326351 0.475 0.0703846 0.718431 0.662353 0.655686
v -0.366987 0.475 0 0.718431 0.662353 0.655686
v -0.326351 0.475 0.0703846 0.718431 0.662353 0.655686
v -0.183494 0.475 0.0703846 0.718431 0.662353 0.655686
v 0.254922 0.475 0.0533333 0.718431 0.662353 0.655686
v 0.152702 0.475 -0.123718 0.718431 0.662353 0.655686
v 0.22413 0.475 -0.247436 0.718431 0.662353 0.655686
v 0.152702 0.475 -0.123718 0.718431 0.662353 0.655686
v 0.22413 0.475 -0.247436 0.718431 0.662353 0.655686
v 0.397779 0.475 0.194102 0.718431 0.662353 0.655686
v 0.254922 0.475 0.194102 0.718431 0.662353 0.655686
v 0.438416 0.475 0.123718 0.718431 0.662353 0.655686
v 0.397779 0.475 0.0533333 0.718431 0.662353 0.655686
v 0.397779 0.475 0.0533333 0.718431 0.662353 0.655686
v 0.254922 0.475 0.194102 0.718431 0.662353 0.655686
v 0.183494 0.475 0.31782 0.718431 0.662353 0.655686
v 0.030792 0.475 0.194102 0.718431 0.662353 0.655686
v 0.102221 0.475 0.31782 0.718431 0.662353 0.655686
v 0.030792 0.475 0.194102 0.718431 0.662353 0.655686
v 0.183494 0.475 0.31782 0.718431 0.662353 0.655686
v 0.102221 0.475 0.31782 0.718431 0.662353 0.655686
v 0.382383 1 0.08 0.0705882 0.203922 0.337255
v 0.239526 1 0.08 0.0705882 0.203922 0.337255
v 0.239526 1 0.167436 0.0705882 0.203922 0.337255
v 0.382383 1 0.167436 0.0705882 0.203922 0.337255
v 0.407624 1 0.123718 0.0705882 0.203922 0.337255
v 0.0252405 1 -0.291154 0.0705882 0.203922 0.337255
v 0.12191 1 -0.123718 0.0705882 0.203922 0.337255
v 0.193338 1 -0.247436 0.0705882 0.203922 0.337255
v 0.168098 1 -0.291154 0.0705882 0.203922 0.337255
v -0.168098 1 -0.291154 0.0705882 0.203922 0.337255
v -0.046188 1 -0.414872 0.0705882 0.203922 0.337255
v -0.0966691 1 -0.414872 0.0705882 0.203922 0.337255
v -0.168098 1 0.0437179 0.0705882 0.203922 0.337255
v -0.264767 1 -0.123718 0.0705882 0.203922 0.337255
v -0.336195 1 0 0.0705882 0.203922 0.337255
v -0.310955 1 0.0437179 0.0705882 0.203922 0.337255
v 0.046188 1 0.167436 0.0705882 0.203922 0.337255
v 0.117617 1 0.291154 0.0705882 0.203922 0.337255
v 0.168098 1 0.291154 0.0705882 0.203922 0.337255
v -0.310955 1 -0.291154 0.0705882 0.203922 0.337255
v -0.336195 1 -0.247436 0.0705882 0.203922 0.337255
v -0.0966691 1 0.167436 0.0705882 0.203922 0.337255
v 0.405477 0.775 0.04 0.348235 0.400392 0.473725
v 0.453812 0.775 0.123718 0.348235 0.400392 0.473725
v 0.439956 0.73 0.123718 0.403765 0.439686 0.50102
v 0.398549 0.73 0.052 0.403765 0.439686 0.50102
v 0.398549 0.73 0.052 0.403765 0.439686 0.50102
v 0.255692 0.73 0.052 0.403765 0.439686 0.50102
v 0.26262 0.775 0.04 0.348235 0.400392 0.473725
v 0.0483346 0.775 -0.331154 0.348235 0.400392 0.473725
v 0.191192 0.775 -0.331154 0.348235 0.400392 0.473725
v 0.184264 0.73 -0.319154 0.403765 0.439686 0.50102
v 0.0414064 0.73 -0.319154 0.403765 0.439686 0.50102
v 0.0414064 0.73 -0.319154 0.403765 0.439686 0.50102
v -0.0300222 0.73 -0.442872 0.403765 0.439686 0.50102
v -0.023094 0.775 -0.454872 0.348235 0.400392 0.473725
v 0.168098 0.775 -0.123718 0.348235 0.400392 0.473725
v 0.239526 0.775 -0.247436 0.348235 0.400392 0.473725
v 0.154241 0.73 -0.123718 0.403765 0.439686 0.50102
v 0.255692 0.73 0.052 0.403765 0.439686 0.50102
v 0.154241 0.73 -0.123718 0.403765 0.439686 0.50102
v 0.22567 0.73 -0.247436 0.403765 0.439686 0.50102
v 0.22567 0.73 -0.247436 0.403765 0.439686 0.50102
v 0.184264 0.73 -0.319154 0.403765 0.439686 0.50102
v 0.26262 0.775 0.207436 0.348235 0.400392 0.473725
v 0.255692 0.73 0.195436 0.403765 0.439686 0.50102
v 0.398549 0.73 0.195436 0.403765 0.439686 0.50102
v 0.405477 0.775 0.207436 0.348235 0.400392 0.473725
v 0.398549 0.73 0.195436 0.403765 0.439686 0.50102
v 0.439956 0.73 0.123718 0.403765 0.439686 0.50102
v 0.191192 0.775 0.331154 0.348235 0.400392 0.473725
v 0.184264 0.73 0.319154 0.403765 0.439686 0.50102
v 0.255692 0.73 0.195436 0.403765 0.439686 0.50102
v -0.119763 0.775 0.207436 0.348235 0.400392 0.473725
v -0.191192 0.775 0.0837179 0.348235 0.400392 0.473725
v 0.023094 0.775 0.207436 0.348235 0.400392 0.473725
v 0.0945226 0.775 0.331154 0.348235 0.400392 0.473725
v -0.184264 0.73 0.0717179 0.403765 0.439686 0.50102
v -0.112835 0.73 0.195436 0.403765 0.439686 0.50102
v -0.112835 0.73 0.195436 0.403765 0.439686 0.50102
v 0.0300222 0.73 0.195436 0.403765 0.439686 0.50102
v 0.0300222 0.73 0.195436 0.403765 0.439686 0.50102
v 0.101451 0.73 0.319154 0.403765 0.439686 0.50102
v 0.184264 0.73 0.319154 0.403765 0.439686 0.50102
v -0.334049 0.775 0.0837179 0.348235 0.400392 0.473725
v -0.327121 0.73 0.0717179 0.403765 0.439686 0.50102
v -0.184264 0.73 0.0717179 0.403765 0.439686 0.50102
v -0.119763 0.775 -0.454872 0.348235 0.400392 0.473725
v -0.0300222 0.73 -0.442872 0.403765 0.439686 0.50102
v -0.112835 0.73 -0.442872 0.403765 0.439686 0.50102
v -0.310955 0.775 -0.123718 0.348235 0.400392 0.473725
v -0.382383 0.775 -0.247436 0.348235 0.400392 0.473725
v -0.368527 0.73 -0.247436 0.403765 0.439686 0.50102
v -0.297098 0.73 -0.123718 0.403765 0.439686 0.50102
v -0.368527 0.73 0 0.403765 0.439686 0.50102
v -0.382383 0.775 0 0.348235 0.400392 0.473725
v -0.368527 0.73 0 0.403765 0.439686 0.50102
v -0.327121 0.73 0.0717179 0.403765 0.439686 0.50102
v -0.184264 0.73 -0.319154 0.403765 0.439686 0.50102
v -0.191192 0.775 -0.331154 0.348235 0.400392 0.473725
v -0.112835 0.73 -0.442872 0.403765 0.439686 0.50102
v -0.334049 0.775 -0.331154 0.348235 0.400392 0.473725
v -0.184264 0.73 -0.319154 0.403765 0.439686 0.50102
v -0.327121 0.73 -0.319154 0.403765 0.439686 0.50102
v -0.327121 0.73 -0.319154 0.403765 0.439686 0.50102
v 0.446114 0.475 0.110385 0.718431 0.662353 0.655686
v 0.453812 0.475 0.123718 0.718431 0.662353 0.655686
v 0.413175 0.475 0.194102 0.718431 0.662353 0.655686
v 0.397779 0.475 0.194102 0.718431 0.662353 0.655686
v 0.438416 0.475 0.123718 0.718431 0.662353 0.655686
v 0.397779 0.475 0.0533333 0.718431 0.662353 0.655686
v 0.413175 0.475 0.0533333 0.718431 0.662353 0.655686
v -0.112065 0.475 -0.441538 0.718431 0.662353 0.655686
v -0.104367 0.475 -0.454872 0.718431 0.662353 0.655686
v -0.03849 0.475 -0.454872 0.718431 0.662353 0.655686
v -0.030792 0.475 -0.441538 0.718431 0.662353 0.655686
v 0.405477 0.475 0.04 0.718431 0.662353 0.655686
v 0.417024 0.55 0.02 0.625882 0.596863 0.610196
v 0.476906 0.55 0.123718 0.625882 0.596863 0.610196
v 0.26262 0.475 0.04 0.718431 0.662353 0.655686
v 0.274167 0.55 0.02 0.625882 0.596863 0.610196
v 0.255692 0.73 0.052 0.403765 0.439686 0.50102
v 0.398549 0.73 0.052 0.403765 0.439686 0.50102
v 0.0560326 0.475 -0.31782 0.718431 0.662353 0.655686
v 0.0483346 0.475 -0.331154 0.718431 0.662353 0.655686
v 0.191192 0.475 -0.331154 0.718431 0.662353 0.655686
v 0.19889 0.475 -0.31782 0.718431 0.662353 0.655686
v 0.0406366 0.475 -0.31782 0.718431 0.662353 0.655686
v -0.023094 0.475 -0.454872 0.718431 0.662353 0.655686
v 0.0598816 0.55 -0.351154 0.625882 0.596863 0.610196
v 0.202739 0.55 -0.351154 0.625882 0.596863 0.610196
v -0.011547 0.55 -0.474872 0.625882 0.596863 0.610196
v 0.184264 0.73 -0.319154 0.403765 0.439686 0.50102
v 0.26262 0.55 -0.247436 0.625882 0.596863 0.610196
v 0.184264 0.73 -0.319154 0.403765 0.439686 0.50102
v 0.22567 0.73 -0.247436 0.403765 0.439686 0.50102
v 0.191192 0.55 -0.123718 0.625882 0.596863 0.610196
v 0.154241 0.73 -0.123718 0.403765 0.439686 0.50102
v 0.154241 0.73 -0.123718 0.403765 0.439686 0.50102
v 0.231828 0.475 -0.260769 0.718431 0.662353 0.655686
v 0.239526 0.475 -0.247436 0.718431 0.662353 0.655686
v 0.168098 0.475 -0.123718 0.718431 0.662353 0.655686
v 0.1604 0.475 -0.137051 0.718431 0.662353 0.655686
v 0.254922 0.475 0.0533333 0.718431 0.662353 0.655686
v 0.152702 0.475 -0.123718 0.718431 0.662353 0.655686
v 0.183494 0.475 -0.31782 0.718431 0.662353 0.655686
v 0.22413 0.475 -0.247436 0.718431 0.662353 0.655686
v 0.254922 0.475 0.194102 0.718431 0.662353 0.655686
v 0.26262 0.475 0.207436 0.718431 0.662353 0.655686
v 0.191192 0.475 0.331154 0.718431 0.662353 0.655686
v 0.175796 0.475 0.331154 0.718431 0.662353 0.655686
v 0.405477 0.475 0.207436 0.718431 0.662353 0.655686
v 0.417024 0.55 0.227436 0.625882 0.596863 0.610196
v 0.274167 0.55 0.227436 0.625882 0.596863 0.610196
v 0.202739 0.55 0.351154 0.625882 0.596863 0.610196
v 0.439956 0.73 0.123718 0.403765 0.439686 0.50102
v 0.398549 0.73 0.052 0.403765 0.439686 0.50102
v 0.255692 0.73 0.195436 0.403765 0.439686 0.50102
v 0.398549 0.73 0.195436 0.403765 0.439686 0.50102
v 0.398549 0.73 0.195436 0.403765 0.439686 0.50102
v 0.184264 0.73 0.319154 0.403765 0.439686 0.50102
v 0.255692 0.73 0.195436 0.403765 0.439686 0.50102
v 0.0829756 0.55 0.351154 0.625882 0.596863 0.610196
v 0.101451 0.73 0.319154 0.403765 0.439686 0.50102
v 0.0300222 0.73 0.195436 0.403765 0.439686 0.50102
v 0.011547 0.55 0.227436 0.625882 0.596863 0.610196
v 0.101451 0.73 0.319154 0.403765 0.439686 0.50102
v -0.13131 0.55 0.227436 0.625882 0.596863 0.610196
v 0.0300222 0.73 0.195436 0.403765 0.439686 0.50102
v -0.112835 0.73 0.195436 0.403765 0.439686 0.50102
v -0.184264 0.73 0.0717179 0.403765 0.439686 0.50102
v -0.202739 0.55 0.103718 0.625882 0.596863 0.610196
v 0.030792 0.475 0.194102 0.718431 0.662353 0.655686
v 0.023094 0.475 0.207436 0.718431 0.662353 0.655686
v -0.119763 0.475 0.207436 0.718431 0.662353 0.655686
v -0.127461 0.475 0.194102 0.718431 0.662353 0.655686
v 0.0945226 0.475 0.331154 0.718431 0.662353 0.655686
v 0.109919 0.475 0.331154 0.718431 0.662353 0.655686
v -0.191192 0.475 0.0837179 0.718431 0.662353 0.655686
v 0.183494 0.475 0.31782 0.718431 0.662353 0.655686
v 0.102221 0.475 0.31782 0.718431 0.662353 0.655686
v -0.183494 0.475 0.0703846 0.718431 0.662353 0.655686
v -0.334049 0.475 0.0837179 0.718431 0.662353 0.655686
v -0.341747 0.475 0.0703846 0.718431 0.662353 0.655686
v -0.112065 0.475 0.194102 0.718431 0.662353 0.655686
v -0.345596 0.55 0.103718 0.625882 0.596863 0.610196
v -0.374685 0.475 0.0133333 0.718431 0.662353 0.655686
v -0.366987 0.475 0 0.718431 0.662353 0.655686
v -0.326351 0.475 0.0703846 0.718431 0.662353 0.655686
v -0.119763 0.475 -0.454872 0.718431 0.662353 0.655686
v -0.13131 0.55 -0.474872 0.625882 0.596863 0.610196
v -0.295559 0.475 -0.123718 0.718431 0.662353 0.655686
v -0.310955 0.475 -0.123718 0.718431 0.662353 0.655686
v -0.382383 0.475 -0.247436 0.718431 0.662353 0.655686
v -0.374685 0.475 -0.260769 0.718431 0.662353 0.655686
v -0.382383 0.475 0 0.718431 0.662353 0.655686
v -0.334049 0.55 -0.123718 0.625882 0.596863 0.610196
v -0.405477 0.55 -0.247436 0.625882 0.596863 0.610196
v -0.405477 0.55 0 0.625882 0.596863 0.610196
v -0.327121 0.73 0.0717179 0.403765 0.439686 0.50102
v -0.368527 0.73 0 0.403765 0.439686 0.50102
v -0.297098 0.73 -0.123718 0.403765 0.439686 0.50102
v -0.327121 0.73 0.0717179 0.403765 0.439686 0.50102
v -0.368527 0.73 -0.247436 0.403765 0.439686 0.50102
v -0.191192 0.475 -0.331154 0.718431 0.662353 0.655686
v -0.183494 0.475 -0.31782 0.718431 0.662353 0.655686
v -0.341747 0.475 -0.31782 0.718431 0.662353 0.655686
v -0.334049 0.475 -0.331154 0.718431 0.662353 0.655686
v -0.202739 0.55 -0.351154 0.625882 0.596863 0.610196
v -0.345596 0.55 -0.351154 0.625882 0.596863 0.610196
v -0.112835 0.73 -0.442872 0.403765 0.439686 0.50102
v -0.0300222 0.73 -0.442872 0.403765 0.439686 0.50102
v -0.184264 0.73 -0.319154 0.403765 0.439686 0.50102
v 0.0414064 0.73 -0.319154 0.403765 0.439686 0.50102
v -0.368527 0.73 -0.247436 0.403765 0.439686 0.50102
v -0.327121 0.73 -0.319154 0.403765 0.439686 0.50102
v -0.184264 0.73 -0.319154 0.403765 0.439686 0.50102
v -0.327121 0.73 -0.319154 0.403765 0.439686 0.50102
v -0.366987 0.475 -0.247436 0.718431 0.662353 0.655686
v -0.326351 0.475 -0.31782 0.718431 0.662353 0.655686
v 0.135366 0.25 0.351154 0.903529 0.793333 0.746667
v -0.270111 0.25 -0.351154 0.903529 0.793333 0.746667
v 0.181315 0.25 -0.140825 0.903529 0.793333 0.746667
v -0.148678 0.25 -0.140825 0.903529 0.793333 0.746667
v -0.0495592 0.25 -0.140825 0.903529 0.793333 0.746667
v -0.0991185 0.25 -0.0549857 0.903529 0.793333 0.746667
v 0.268171 0.25 0.237822 0.903529 0.793333 0.746667
v 0.0495592 0.25 -0.140825 0.903529 0.793333 0.746667
v -0.0495592 0.25 0.0308534 0.903529 0.793333 0.746667
v 0.148678 0.25 0.0308534 0.903529 0.793333 0.746667
v 0.0991185 0.25 -0.0549857 0.903529 0.793333 0.746667
v 0.0495592 0.25 0.0308534 0.903529 0.793333 0.746667

vt 0 0.5
vt 0.25 1
vt 0.75 1
vt 1 0.5
vt 0.75 0
vt 0.25 0
vt 0.833333 0
vt 0.833333 0.757576
vt 0.666667 0.757576
vt 0.666667 0
vt 0.333333 0.757576
vt 0.333333 0
vt 0.5 0
vt 0.5 0.757576
vt 0 0.757576
vt 0 0
vt 0.166667 0
vt 0.166667 0.757576
vt 1 0
vt 1 0.757576
vt 0.047551 0
vt 0.0454545 0.5
vt 0.087415 0
vt 0.0909091 0.5
vt 0.127279 0
vt 0.136364 0.5
vt 0.17483 0
vt 0.181818 0.5
vt 0.230068 0
vt 0.227273 0.5
vt 0.277619 0
vt 0.272727 0.5
vt 0.317483 0
vt 0.318182 0.5
vt 0.365034 0
vt 0.363636 0.5
vt 0.412585 0
vt 0.409091 0.5
vt 0.452449 0
vt 0.454545 0.5
vt 0.5 0.5
vt 0.547551 0
vt 0.545455 0.5
vt 0.587415 0
vt 0.590909 0.5
vt 0.634966 0
vt 0.636364 0.5
vt 0.682517 0
vt 0.681818 0.5
vt 0.722381 0
vt 0.727273 0.5
vt 0.769932 0
vt 0.772727 0.5
vt 0.817483 0
vt 0.818182 0.5
vt 0.865034 0
vt 0.863636 0.5
vt 0.912585 0
vt 0.909091 0.5
vt 0.952449 0
vt 0.954545 0.5
vt 1 0
vt 1 0.5
vt 0.316019 0.833333
vt 0.367962 0.833333
vt 0.419905 0.833333
vt 0.448057 0.833333
vt 0.5 0.833333
vt 0.551943 0.833333
vt 0.5 0.833333
vt 0.580095 0.833333
vt 0.632038 0.833333
vt 0.816019 0.833333
vt 0.764076 0.833333
vt 0.683981 0.833333
vt 0.712133 0.833333
vt 0.712133 0.833333
vt 0.764076 0.833333
vt 0.16019 0.833333
vt 0.235924 0.833333
vt 0.287867 0.833333
vt 0.235924 0.833333
vt 0.0519429 0.833333
vt 0 0.833333
vt 0.0800952 0.833333
vt 0.108248 0.833333
vt 0.108248 0.833333
vt 1 0.833333
vt 0.948057 0.833333
vt 0.867962 0.833333
vt 0.919905 0.833333
vt 0.867962 0.833333
vt 0.948057 0.833333
vt 0.966066 0.299074
vt 0.774007 0.299074
vt 0.774007 0.175232
vt 0.966066 0.175232
vt 1 0.237153
vt 0.485919 0.824768
vt 0.615882 0.587616
vt 0.711912 0.762847
vt 0.677978 0.824768
vt 0.225993 0.824768
vt 0.38989 1
vt 0.322022 1
vt 0.225993 0.350463
vt 0.0960295 0.587616
vt 0 0.412384
vt 0.0339337 0.350463
vt 0.514081 0.175232
vt 0.61011 0
vt 0.677978 0
vt 0.0339337 0.824768
vt 0 0.762847
vt 0.322022 0.175232
vt 0.117316 0.5
vt 0.083583 0.5
vt 0.0810502 0.2
vt 0.11073 0.2
vt 0.11073 0.2
vt 0.1621 0.2
vt 0.167166 0.5
vt 0.0941896 1
vt 0.0746883 1
vt 0.149377 1
vt 0.366567 0.5
vt 0.316717 0.5
vt 0.31621 0.2
vt 0.36758 0.2
vt 0.36758 0.2
vt 0.41895 0.2
vt 0.416417 0.5
vt 0.370125 1
vt 0.314938 1
vt 0.425312 1
vt 0.233134 0.5
vt 0.240249 1
vt 0.282984 0.5
vt 0.295436 1
vt 0.23516 0.2
vt 0.1621 0.2
vt 0.23516 0.2
vt 0.28653 0.2
vt 0.28653 0.2
vt 0.31621 0.2
vt 0 0.2
vt 0.0513699 0.2
vt 0.0498502 0.5
vt 0.0513699 0.2
vt 0.0810502 0.2
vt 1 0.5
vt 0.95015 0.5
vt 0.94863 0.2
vt 1 0.2
vt 0.055187 1
vt 0 1
vt 1 1
vt 0.944813 1
vt 0.816717 0.5
vt 0.814938 1
vt 0.759751 1
vt 0.766866 0.5
vt 0.866567 0.5
vt 0.870125 1
vt 0.916417 0.5
vt 0.925312 1
vt 0.76484 0.2
vt 0.81621 0.2
vt 0.81621 0.2
vt 0.86758 0.2
vt 0.86758 0.2
vt 0.91895 0.2
vt 0.91895 0.2
vt 0.94863 0.2
vt 0.717016 0.5
vt 0.71347 0.2
vt 0.76484 0.2
vt 0.704564 1
vt 0.45015 0.5
vt 0.41895 0.2
vt 0.44863 0.2
vt 0.633433 0.5
vt 0.583583 0.5
vt 0.58105 0.2
vt 0.63242 0.2
vt 0.68379 0.2
vt 0.683283 0.5
vt 0.68379 0.2
vt 0.71347 0.2
vt 0.629875 1
vt 0.574688 1
vt 0.685062 1
vt 0.5 0.2
vt 0.44863 0.2
vt 0.54985 0.5
vt 0.5 0.2
vt 0.55137 0.2
vt 0.444813 1
vt 0.5 1
vt 0.555187 1
vt 0.55137 0.2
vt 0.58105 0.2
vt 0.990794 0.280868
vt 1 0.263905
vt 0.951403 0.17436
vt 0.932991 0.17436
vt 0.981588 0.263905
vt 0.932991 0.35345
vt 0.951403 0.35345
vt 0.323272 0.983037
vt 0.332478 1
vt 0.41126 1
vt 0.420466 0.983037
vt 0.117316 0
vt 0.127279 0.5
vt 0.087415 0.5
vt 0.083583 0
vt 0.167166 0
vt 0.17483 0.5
vt 0.161945 0.9
vt 0.110528 0.9
vt 0.524298 0.82564
vt 0.515092 0.842603
vt 0.685934 0.842603
vt 0.69514 0.82564
vt 0.524298 0.82564
vt 0.505887 0.82564
vt 0.429672 1
vt 0.316717 0
vt 0.366567 0
vt 0.365034 0.5
vt 0.317483 0.5
vt 0.416417 0
vt 0.412585 0.5
vt 0.367611 0.9
vt 0.316194 0.9
vt 0.277619 0.5
vt 0.316194 0.9
vt 0.286639 0.9
vt 0.230068 0.5
vt 0.235222 0.9
vt 0.161945 0.9
vt 0.734531 0.753058
vt 0.743737 0.736095
vt 0.658316 0.578698
vt 0.64911 0.595661
vt 0.771355 0.370413
vt 0.762149 0.35345
vt 0.639904 0.578698
vt 0.64911 0.595661
vt 0.942197 0.370413
vt 0.233134 0
vt 0.282984 0
vt 0.676728 0.82564
vt 0.725325 0.736095
vt 0.762149 0.17436
vt 0.771355 0.157397
vt 0.685934 0
vt 0.667522 0
vt 0.942197 0.157397
vt 0.0498502 0
vt 0.047551 0.5
vt 0.95015 0
vt 1 0
vt 1 0.5
vt 0.952449 0.5
vt 0.0809723 0.9
vt 0.110528 0.9
vt 0 0.9
vt 0.0514166 0.9
vt 0.0809723 0.9
vt 0.0514166 0.9
vt 0.948583 0.9
vt 1 0.9
vt 0.912585 0.5
vt 0.948583 0.9
vt 0.919028 0.9
vt 0.867611 0.9
vt 0.865034 0.5
vt 0.919028 0.9
vt 0.817483 0.5
vt 0.867611 0.9
vt 0.816194 0.9
vt 0.816194 0.9
vt 0.764778 0.9
vt 0.769932 0.5
vt 0.494113 0.17436
vt 0.484908 0.157397
vt 0.314066 0.157397
vt 0.30486 0.17436
vt 0.570328 0
vt 0.58874 0
vt 0.816717 0
vt 0.766866 0
vt 0.866567 0
vt 0.916417 0
vt 0.676728 0.016963
vt 0.579534 0.016963
vt 0.237851 0.331757
vt 0.228645 0.314794
vt 0.057803 0.314794
vt 0.048597 0.331757
vt 0.323272 0.17436
vt 0.722381 0.5
vt 0.717016 0
vt 0.00920599 0.404339
vt 0.018412 0.421302
vt 0.0670089 0.331757
vt 0.45015 0
vt 0.452449 0.5
vt 0.103833 0.578698
vt 0.0854209 0.578698
vt 0 0.736095
vt 0.00920599 0.753058
vt 0 0.421302
vt 0.583583 0
vt 0.633433 0
vt 0.634966 0.5
vt 0.587415 0.5
vt 0.683283 0
vt 0.682517 0.5
vt 0.713361 0.9
vt 0.683806 0.9
vt 0.632389 0.9
vt 0.713361 0.9
vt 0.580972 0.9
vt 0.632389 0.9
vt 0.228645 0.842603
vt 0.237851 0.82564
vt 0.048597 0.82564
vt 0.057803 0.842603
vt 0.314066 1
vt 0.5 0
vt 0.5 0.5
vt 0.54985 0
vt 0.547551 0.5
vt 0.448583 0.9
vt 0.419028 0.9
vt 0.5 0.9
vt 0.448583 0.9
vt 0.419028 0.9
vt 0.367611 0.9
vt 0.580972 0.9
vt 0.551417 0.9
vt 0.5 0.9
vt 0.018412 0.736095
vt 0.0670089 0.82564
vt 0.612935 0
vt 0.553561 0
vt 0.472611 0.149775
vt 0.0809496 0.574887
vt 0.229763 0.29955
vt 0.0678634 0.29955
vt 0 0.425113
vt 0.15341 0.850225
vt 0 0.724662
vt 0.0678634 0.850225
vt 0.310712 0.149775
vt 0.665008 0.595597
vt 0.229763 0.850225
vt 0.310712 1
vt 0.446439 1
vt 0.29103 0.595597
vt 0.40336 0.595597
vt 0.347195 0.491679
vt 0.676202 0.574887
vt 0.527389 0.850225
vt 0.689288 0.850225
vt 0.757151 0.724662
vt 0.932137 0.149775
vt 0.770237 0.149775
vt 0.770237 0.4009
vt 0.932137 0.4009
vt 1 0.275338
vt 0.763442 0.137202
vt 0.51569 0.595597
vt 0.40336 0.387761
vt 0.628021 0.387761
vt 0.689288 0
vt 0.571856 0.491679
vt 0.51569 0.387761

vn 0 -1 0
vn -0.866025 0 -0.5
vn -0.866025 0 -0.5
vn 0.866025 0 -0.5
vn 0.866025 0 -0.5
vn 0 0 1
vn 0.866025 0 0.5
vn 0.866025 0 0.5
vn 0 0 -1
vn -0.866025 0 0.5
vn -0.866025 0 0.5
vn 0.866025 0 0.5
vn 0.866025 0 0.5
vn 0.866025 0 -0.5
vn 0.866025 0 -0.5
vn 0.866025 0 -0.5
vn 0.866025 0 -0.5
vn 0.866025 0 0.5
vn 0.866025 0 0.5
vn 0.866025 0 -0.5
vn 0.866025 0 -0.5
vn 0.866025 0 -0.5
vn -0.866025 0 -0.5
vn -0.866025 0 -0.5
vn -0.866025 0 -0.5
vn -0.866025 0 0.5
vn -0.866025 0 0.5
vn -0.866025 0 -0.5
vn -0.866025 0 -0.5
vn -0.866025 0 0.5
vn -0.866025 0 0.5
vn -0.866025 0 0.5
vn -0.866025 0 0.5
vn -0.866025 0 0.5
vn -0.866025 0 0.5
vn 0.866025 0 0.5
vn -0.866025 0 -0.5
vn -0.866025 0 0.5
vn -0.866025 0 0.5
vn -0.866025 0 0.5
vn 0.866025 0 -0.5
vn 0.866025 0 -0.5
vn 0.866025 0 0.5
vn 0.866025 0 -0.5
vn 0.866025 0 -0.5
vn 0.866025 0 0.5
vn 0.866025 0 -0.5
vn 0.866025 0 0.5
vn -0.866025 0 0.5
vn 0 1 0
vn 0.866025 0 -0.5
vn 0.866025 0 -0.5
vn 0.866025 0 -0.5
vn 0.866025 0 -0.5
vn 0.866025 0 -0.5
vn 0.866025 0 -0.5
vn 0.866025 0 -0.5
vn 0.866025 0 -0.5
vn 0.866025 0 -0.5
vn 0.866025 0 0.5
vn 0.866025 0 0.5
vn 0.866025 0 0.5
vn 0.866025 0 0.5
vn 0.866025 0 0.5
vn -0.866025 0 0.5
vn -0.866025 0 0.5
vn -0.866025 0 0.5
vn -0.866025 0 0.5
vn -0.866025 0 -0.5
vn -0.866025 0 -0.5
vn -0.866025 0 -0.5
vn -0.866025 0 -0.5
vn 0.866025 0 -0.5
vn 0.866025 0 -0.5
vn 0.866025 0 -0.5
vn 0.866025 0 0.5
vn -0.866025 0 0.5
vn -0.866025 0 -0.5

f 1/1/1 2/2/1 3/3/1 4/4/1 5/5/1 6/6/1
f 1/7/2 7/8/3 8/9/3 2/10/2
f 9/11/4 4/12/5 3/13/5 10/14/4
f 11/15/6 6/16/6 5/17/6 12/18/6
f 13/18/7 5/17/8 4/12/8 14/11/7
f 15/14/9 3/13/9 2/10/9 16/9/9
f 6/19/10 17/20/11 7/8/11 1/7/10
f 18/16/6 19/21/6 20/22/6 21/1/6
f 19/21/12 22/23/12 23/24/13 20/22/13
f 22/23/14 24/25/14 25/26/15 23/24/15
f 24/25/9 26/27/9 27/28/9 25/26/9
f 26/27/16 28/29/16 29/30/17 27/28/17
f 28/29/18 30/31/18 31/32/19 29/30/19
f 30/31/14 32/33/14 33/34/20 31/32/20
f 32/33/9 34/35/9 35/36/9 33/34/9
f 34/35/21 36/37/21 37/38/22 35/36/22
f 36/37/9 38/39/9 39/40/9 37/38/9
f 38/39/23 40/13/23 41/41/23 39/40/23
f 40/13/9 42/42/9 43/43/9 41/41/9
f 42/42/24 44/44/24 45/45/25 43/43/25
f 44/44/26 46/46/26 47/47/27 45/45/27
f 46/46/28 48/48/28 49/49/29 47/47/29
f 48/48/30 50/50/30 51/51/31 49/49/31
f 50/50/6 52/52/6 53/53/6 51/51/6
f 52/52/32 54/54/32 55/55/33 53/53/33
f 54/54/6 56/56/6 57/57/6 55/55/6
f 56/56/34 58/58/34 59/59/35 57/57/35
f 58/58/6 60/60/6 61/61/6 59/59/6
f 60/60/36 18/62/36 21/63/36 61/61/36
f 62/64/9 33/34/9 35/36/9 63/65/9
f 63/65/22 35/36/22 37/38/22 64/66/22
f 64/66/9 37/38/9 39/40/9 65/67/9
f 41/41/23 66/68/23 67/67/23 39/40/23
f 41/41/9 43/43/9 68/69/9 69/70/9
f 68/69/37 43/43/25 45/45/25 70/71/37
f 70/71/38 45/45/27 47/47/27 71/72/38
f 53/53/33 55/55/33 72/73/38 73/74/38
f 49/49/29 74/75/23 71/72/23 47/47/29
f 75/76/39 76/75/40 49/49/31 51/51/31
f 77/77/6 51/51/6 53/53/6 78/78/6
f 79/79/41 27/28/17 29/30/17 80/80/42
f 29/30/19 31/32/19 81/81/43 82/82/43
f 31/32/20 33/34/20 62/64/44 83/81/45
f 20/22/6 84/83/6 85/84/6 21/1/6
f 84/83/46 20/22/13 23/24/13 86/85/46
f 87/86/47 86/85/47 23/24/15 25/26/15
f 88/87/9 25/26/9 27/28/9 79/79/9
f 61/61/36 21/63/36 89/88/48 90/89/48
f 57/57/6 91/90/6 72/73/6 55/55/6
f 57/57/35 59/59/35 92/91/49 93/92/49
f 59/59/6 61/61/6 94/93/6 95/91/6
f 96/94/50 97/95/50 98/96/50 99/97/50 100/98/50
f 101/99/50 102/100/50 103/101/50 104/102/50
f 105/103/50 101/99/50 106/104/50 107/105/50
f 108/106/50 109/107/50 110/108/50 111/109/50
f 98/96/50 112/110/50 113/111/50 114/112/50
f 101/99/50 115/113/50 116/114/50 117/115/50 98/96/50 97/95/50
f 118/116/51 119/117/51 120/118/52 121/119/52
f 118/116/9 122/120/9 123/121/9 124/122/9
f 118/116/51 96/123/53 100/124/53 119/117/51
f 118/116/9 124/122/9 97/125/9 96/123/9
f 125/126/9 126/127/9 127/128/9 128/129/9
f 125/126/20 129/130/54 130/131/54 131/132/20
f 126/127/9 125/126/9 101/133/9 104/134/9
f 106/135/22 101/133/22 125/126/20 131/132/20
f 132/136/55 102/137/56 97/125/56 124/122/55
f 132/136/19 133/138/19 103/139/18 102/137/18
f 103/139/53 133/138/57 126/127/57 104/134/53
f 134/140/58 132/136/55 124/122/55 135/141/58
f 133/138/19 132/136/19 136/142/43 137/143/43
f 133/138/57 138/144/59 139/145/59 126/127/57
f 140/1/6 141/146/6 142/147/6 143/148/6
f 143/148/60 144/149/61 145/150/61 119/117/60
f 140/151/48 146/152/48 147/153/62 148/154/62
f 140/1/6 143/148/6 99/155/6 98/156/6
f 99/155/63 143/148/60 119/117/60 100/124/63
f 146/152/48 140/151/48 98/157/64 114/158/64
f 149/159/33 117/160/38 108/161/38 150/162/33
f 149/159/6 151/163/6 112/164/6 117/160/6
f 151/163/65 152/165/65 113/166/34 112/164/34
f 113/166/6 152/165/6 146/152/6 114/158/6
f 149/159/33 150/162/33 153/167/33 154/168/33
f 149/159/6 155/169/6 156/170/6 151/163/6
f 152/165/65 151/163/65 157/171/34 158/172/34
f 152/165/6 158/173/6 159/174/6 146/152/6
f 160/175/6 161/176/6 162/177/6 150/162/6
f 160/175/6 150/162/6 108/161/6 111/178/6
f 163/179/9 131/132/9 164/180/9 165/181/9
f 166/182/27 167/183/27 168/184/38 169/185/38
f 166/182/29 169/185/23 170/186/23 171/187/29
f 171/187/66 172/188/67 173/189/67 160/175/66
f 167/183/27 166/182/27 109/190/26 116/191/26
f 166/182/29 171/187/29 110/192/28 109/190/28
f 110/192/68 171/187/66 160/175/66 111/178/68
f 174/193/69 175/41/25 163/179/25 176/194/69
f 177/195/9 175/41/9 178/196/9 179/197/9
f 163/179/9 107/198/9 106/135/9 131/132/9
f 175/41/25 105/199/23 107/198/23 163/179/25
f 175/41/9 177/195/9 115/200/9 105/199/9
f 115/200/70 177/195/71 167/183/71 116/191/70
f 177/195/71 180/201/72 168/202/72 167/183/71
f 181/203/1 182/204/1 183/205/1 184/206/1
f 181/203/1 185/207/1 186/208/1 187/209/1
f 188/210/1 189/211/1 190/212/1 191/213/1
f 192/214/51 193/215/14 194/216/14 182/217/51
f 192/214/9 195/218/9 196/219/9 193/215/9
f 193/215/9 196/219/9 197/220/9 198/221/9
f 199/222/1 200/223/1 201/224/1 202/225/1
f 199/226/1 203/227/1 190/212/1 204/228/1
f 201/229/9 200/230/9 205/231/9 206/232/9
f 205/231/21 200/230/20 204/233/20 207/234/21
f 205/231/9 128/235/9 208/236/9 206/232/9
f 209/237/14 206/232/14 210/238/73 211/239/73
f 212/240/16 213/241/74 123/242/74 196/219/16
f 214/241/18 212/240/18 209/237/18 211/239/18
f 215/243/1 216/244/1 217/245/1 218/246/1
f 195/247/1 219/248/1 220/249/1 218/250/1
f 187/209/1 219/248/1 195/247/1 192/251/1
f 217/252/55 212/240/16 196/219/16 195/218/55
f 217/252/19 216/253/19 209/237/18 212/240/18
f 221/254/1 202/225/1 215/243/1 222/255/1
f 209/237/14 216/253/57 201/229/57 206/232/14
f 223/256/1 224/257/1 225/258/1 226/259/1
f 227/260/1 224/257/1 223/256/1 183/205/1
f 224/16/6 227/261/6 228/262/6 229/1/6
f 228/262/12 227/261/60 182/217/60 194/216/12
f 225/263/48 224/264/48 229/265/36 230/266/36
f 231/267/75 194/216/14 193/215/14 232/268/75
f 233/269/6 229/1/6 228/262/6 234/270/6
f 231/271/76 235/272/76 228/262/12 194/216/12
f 236/273/36 230/266/36 229/265/36 237/274/36
f 238/275/6 230/266/6 159/276/6 239/277/6
f 240/278/34 241/279/34 238/275/34 242/280/34
f 243/281/6 241/279/6 244/282/6 154/283/6
f 243/281/32 245/284/33 246/285/33 247/286/32
f 248/287/1 249/288/1 250/289/1 251/290/1
f 252/291/1 249/288/1 248/287/1 253/292/1
f 250/293/33 243/281/32 247/286/32 254/294/33
f 250/293/6 249/295/6 241/279/6 243/281/6
f 249/295/65 252/296/65 238/275/34 241/279/34
f 255/297/1 226/259/1 253/292/1 256/298/1
f 238/275/6 252/296/6 225/263/6 230/266/6
f 257/299/1 254/300/1 258/301/1 259/302/1
f 251/290/1 254/300/1 257/299/1 260/303/1
f 261/304/6 258/305/6 254/294/6 247/286/6
f 262/306/1 263/307/1 264/308/1 259/302/1
f 265/309/9 266/310/9 207/234/9 204/233/9
f 267/311/1 268/312/1 269/313/1 270/314/1
f 271/315/1 268/312/1 267/311/1 262/306/1
f 269/316/27 268/317/27 272/318/26 273/319/26
f 268/317/29 271/320/29 274/321/28 272/318/28
f 274/321/30 271/320/66 258/305/66 261/304/30
f 275/322/77 276/323/77 274/321/30 261/304/30
f 277/324/28 272/318/28 274/321/28 276/323/28
f 278/325/6 261/304/6 247/286/6 246/285/6
f 279/326/26 273/319/26 272/318/26 277/327/26
f 280/328/1 281/329/1 282/330/1 283/331/1
f 189/211/1 281/329/1 280/328/1 265/332/1
f 280/333/25 284/334/23 266/310/23 265/309/25
f 280/333/9 283/335/9 285/336/9 284/334/9
f 266/310/9 286/337/9 287/338/9 207/234/9
f 284/334/23 288/339/23 286/340/23 266/310/23
f 287/341/21 289/342/21 205/231/21 207/234/21
f 285/336/24 273/319/24 290/343/78 291/344/78
f 292/345/9 284/334/9 285/336/9 293/344/9
f 294/346/1 270/314/1 282/330/1 295/347/1
f 285/336/24 283/335/71 269/316/71 273/319/24
f 296/348/1 58/349/1 56/350/1
f 46/351/1 52/352/1 50/353/1 48/354/1
f 297/355/1 296/348/1 56/350/1 46/351/1 44/356/1 42/357/1
f 46/351/1 56/350/1 54/358/1
f 298/359/1 40/360/1 38/361/1 36/362/1
f 297/355/1 40/360/1 298/359/1 299/363/1
f 299/363/1 300/364/1 301/365/1
f 28/366/1 34/367/1 32/368/1 30/369/1
f 19/370/1 18/371/1 26/372/1 24/373/1 22/374/1
f 18/371/1 302/375/1 303/376/1 298/359/1 26/372/1
f 304/377/1 305/378/1 302/375/1 60/379/1 296/348/1
f 306/380/1 305/378/1 307/381/1