v -0.5 1 -2.94449 1 0 0
v -0.8 1 -2.77128 1 0 0
v -0.5 1 -2.59808 1 0 0
v -0.8 1 -2.77128 0 0 1
v -0.5 1 -2.94449 0 0 1
v -0.5 0 -2.94449 0 0 1
v -0.8 0 -2.77128 0 0 1
v 2.8 1 -0.69282 1 0 0
v 2.8 1 -1.03923 1 0 0
v 2.5 1 -0.866025 1 0 0
v 2.8 1 -1.03923 0 0 1
v 2.8 1 -0.69282 0 0 1
v 2.8 0 -0.69282 0 0 1
v 2.8 0 -1.03923 0 0 1
v -0.5 1 0.866025 0 1 0
v -2 1 1.73205 0 1 0
v -1.7 1 1.90526 0 1 0
v -0.5 1 1.21244 0 1 0
v -1.7 0 1.90526 0 0 1
v -0.5 0 1.21244 0 0 1
v -0.5 1 1.21244 0 0 1
v -1.7 1 1.90526 0 0 1
v -2 1 2.07846 1 0 0
v -1.7 1 1.90526 1 0 0
v -2 1 1.73205 1 0 0
v -2 1 2.07846 0 0 1
v -2 0 2.07846 0 0 1
v 2.5 1 -1.21244 1 0 0
v 2.5 1 -1.21244 0 0 1
v 2.5 0 -1.21244 0 0 1
v 1 1 -1.73205 0 1 0
v 2.5 1 -0.866025 0 1 0
v 2.5 1 -1.21244 0 1 0
v 1.3 1 -1.90526 0 1 0
v 1.3 0 -1.90526 0 0 1
v 1.3 1 -1.90526 0 0 1
v 1 1 2.07846 1 0 0
v 1.3 1 1.90526 1 0 0
v 1 1 1.73205 1 0 0
v 1.3 1 1.90526 0 0 1
v 1 1 2.07846 0 0 1
v 1 0 2.07846 0 0 1
v 1.3 0 1.90526 0 0 1
v 1.3 1 -1.90526 1 0 0
v 1 1 -2.07846 1 0 0
v 1 1 -1.73205 1 0 0
v 1 1 -2.07846 0 0 1
v 1 0 -2.07846 0 0 1
v -2.3 1 1.90526 1 0 0
v -2.3 1 1.90526 0 0 1
v -2.3 0 1.90526 0 0 1
v -2.3 1 1.55885 1 0 0
v -2.3 1 1.55885 0 0 1
v -2.3 0 1.55885 0 0 1
v 1 1 0 0 1 0
v 1.3 1 0.173205 0 1 0
v 2.5 1 -0.519615 0 1 0
v 1.3 0 0.173205 0 0 1
v 2.5 0 -0.519615 0 0 1
v 2.5 1 -0.519615 0 0 1
v 1.3 1 0.173205 0 0 1
v 0.7 1 1.90526 1 0 0
v 0.7 1 1.90526 0 0 1
v 0.7 0 1.90526 0 0 1
v 2.5 1 -0.519615 1 0 0
v 1 1 1.73205 0 1 0
v 1.3 1 1.55885 0 1 0
v 1.3 0 1.55885 0 0 1
v 1.3 1 1.55885 0 0 1
v -2 1 0 0 1 0
v -2.3 1 0.173205 0 1 0
v -2.3 1 1.55885 0 1 0
v -2.3 0 0.173205 0 0 1
v -2.3 1 0.173205 0 0 1
v -2.3 1 -0.173205 1 0 0
v -2.3 1 0.173205 1 0 0
v -2 1 0 1 0 0
v -2.3 1 -0.173205 0 0 1
v -2.3 0 -0.173205 0 0 1
v -0.2 1 -2.77128 1 0 0
v -0.2 1 -2.77128 0 0 1
v -0.2 0 -2.77128 0 0 1
v -0.8 1 -2.42487 1 0 0
v -0.8 1 -2.42487 0 0 1
v -0.8 0 -2.42487 0 0 1
v -0.5 1 -2.59808 0 1 0
v 1 1 -2.07846 0 1 0
v -0.2 1 -2.77128 0 1 0
v 0.7 1 1.90526 0 1 0
v -0.5 1 -0.866025 0 1 0
v -0.8 1 -1.03923 0 1 0
v -2 1 -0.34641 0 1 0
v -0.8 0 -1.03923 0 0 1
v -2 0 -0.34641 0 0 1
v -2 1 -0.34641 0 0 1
v -0.8 1 -1.03923 0 0 1
v 1.3 1 1.55885 1 0 0
v -0.8 1 -2.42487 0 1 0
v -2 1 -0.34641 1 0 0

vt 1 1
vt 0 0.5
vt 1 0
vt 0 0
vt 0 1
vt 0 0.5
vt 0 0.166667
vt 0.2 0
vt 1 0.666667
vt 1 0.5
vt 1 0.5
vt 0 0.833333
vt 1 0.333333
vt 0.2 1
vt 1 0.5
vt 0 0.5
vt 1 0.1
vt 1 0.9
vt 0 0.9
vt 0 0.1
vt 1 0.5
vt 1 0.5
vt 1 0.333333
vt 1 0.166667
vt 0 0.666667
vt 0.8 0
vt 1 0.833333
vt 0.8 1
vt 0 0.333333
vt 0 0.5
vt 0 0.9
vt 0 0.1
vt 0 0.5

f 1/1 2/2 3/3
f 4/4 5/3 6/1 7/5
f 8/3 9/1 10/6
f 11/1 12/3 13/4 14/5
f 15/1 16/7 17/8 18/9
f 19/5 20/1 21/3 22/4
f 23/4 24/10 25/5
f 22/3 26/4 27/5 19/1
f 9/11 28/5 10/4
f 29/4 11/3 14/1 30/5
f 31/12 32/3 33/13 34/14
f 30/1 35/5 36/4 29/3
f 37/4 38/10 39/5
f 40/3 41/4 42/5 43/1
f 44/15 45/5 46/4
f 47/4 36/3 35/1 48/5
f 49/16 23/3 25/1
f 26/3 50/4 51/5 27/1
f 52/5 49/4 25/15
f 50/3 53/1 54/5 51/4
f 32/1 55/7 56/8 57/9
f 58/5 59/1 60/3 61/4
f 62/16 37/3 39/1
f 41/3 63/4 64/5 42/1
f 65/4 8/11 10/5
f 12/3 60/4 59/5 13/1
f 55/5 66/4 67/17 56/18
f 68/4 58/5 61/1 69/3
f 16/3 70/1 71/19 72/20
f 73/5 54/4 53/3 74/1
f 75/5 76/4 77/21
f 74/3 78/1 79/5 73/4
f 80/22 1/5 3/4
f 5/4 81/3 82/1 6/5
f 2/5 83/4 3/21
f 84/3 4/1 7/5 85/4
f 86/12 31/3 87/23 88/14
f 48/1 82/5 81/4 47/3
f 66/24 15/5 18/25 89/26
f 20/5 64/1 63/3 21/4
f 70/4 90/27 91/28 92/29
f 93/1 94/5 95/4 96/3
f 38/3 97/1 39/30
f 69/1 40/3 43/4 68/5
f 90/3 86/1 98/31 91/32
f 85/5 93/4 96/3 84/1
f 99/1 75/33 77/3
f 78/4 95/3 94/1 79/5