v 0.166667 0 -0.288675 0.396078 0.262745 0.129412
v 0.238095 0 -0.164957 0.396078 0.262745 0.129412
v 0.166667 0 -0.0412393 0.396078 0.262745 0.129412
v 0.0238095 0 -0.0412393 0.396078 0.262745 0.129412
v -0.047619 0 -0.164957 0.396078 0.262745 0.129412
v 0.0238095 0 -0.288675 0.396078 0.262745 0.129412
v 0.0456789 0.25 -0.0791181 0.60404 0.672727 0.741414
v -0.00388039 0.25 -0.164957 0.60404 0.672727 0.741414
v 0.144797 0.25 -0.0791181 0.60404 0.672727 0.741414
v 0.0456789 0.25 -0.0791181 0.60404 0.672727 0.741414
v 0.194357 0.25 -0.164957 0.60404 0.672727 0.741414
v 0.144797 0.25 -0.0791181 0.60404 0.672727 0.741414
v -0.00388039 0.25 -0.164957 0.60404 0.672727 0.741414
v 0.0456789 0.25 -0.250796 0.60404 0.672727 0.741414
v 0.144797 0.25 -0.250796 0.60404 0.672727 0.741414
v 0.194357 0.25 -0.164957 0.60404 0.672727 0.741414
v 0.144797 0.25 -0.250796 0.60404 0.672727 0.741414
v 0.202739 0.25 -0.351154 0.903529 0.793333 0.746667
v 0.0598816 0.25 -0.351154 0.903529 0.793333 0.746667
v 0.0714286 0.325 -0.371154 0.903529 0.793333 0.746667
v 0.214286 0.325 -0.371154 0.903529 0.793333 0.746667
v -0.011547 0.25 -0.474872 0.903529 0.793333 0.746667
v 0 0.325 -0.494872 0.903529 0.793333 0.746667
v -0.154404 0.25 -0.474872 0.903529 0.793333 0.746667
v -0.142857 0.325 -0.494872 0.903529 0.793333 0.746667
v -0.225833 0.25 -0.59859 0.903529 0.793333 0.746667
v -0.214286 0.325 -0.61859 0.903529 0.793333 0.746667
v -0.345596 0.25 -0.59859 0.903529 0.793333 0.746667
v -0.357143 0.325 -0.61859 0.903529 0.793333 0.746667
v -0.405477 0.25 -0.494872 0.903529 0.793333 0.746667
v -0.428571 0.325 -0.494872 0.903529 0.793333 0.746667
v -0.334049 0.25 -0.371154 0.903529 0.793333 0.746667
v -0.357143 0.325 -0.371154 0.903529 0.793333 0.746667
v -0.405477 0.25 -0.247436 0.903529 0.793333 0.746667
v -0.428571 0.325 -0.247436 0.903529 0.793333 0.746667
v -0.345596 0.25 -0.143718 0.903529 0.793333 0.746667
v -0.357143 0.325 -0.123718 0.903529 0.793333 0.746667
v -0.202739 0.25 -0.143718 0.903529 0.793333 0.746667
v -0.214286 0.325 -0.123718 0.903529 0.793333 0.746667
v -0.13131 0.25 -0.02 0.903529 0.793333 0.746667
v -0.142857 0.325 0 0.903529 0.793333 0.746667
v 0.011547 0.25 -0.02 0.903529 0.793333 0.746667
v 0 0.325 0 0.903529 0.793333 0.746667
v 0.0829756 0.25 0.103718 0.903529 0.793333 0.746667
v 0.0714286 0.325 0.123718 0.903529 0.793333 0.746667
v 0.225833 0.25 0.103718 0.903529 0.793333 0.746667
v 0.214286 0.325 0.123718 0.903529 0.793333 0.746667
v 0.297261 0.25 0.227436 0.903529 0.793333 0.746667
v 0.285714 0.325 0.247436 0.903529 0.793333 0.746667
v 0.417024 0.25 0.227436 0.903529 0.793333 0.746667
v 0.428571 0.325 0.247436 0.903529 0.793333 0.746667
v 0.488453 0.25 0.103718 0.903529 0.793333 0.746667
v 0.5 0.325 0.123718 0.903529 0.793333 0.746667
v 0.63131 0.25 0.103718 0.903529 0.793333 0.746667
v 0.642857 0.325 0.123718 0.903529 0.793333 0.746667
v 0.691192 0.25 0 0.903529 0.793333 0.746667
v 0.714286 0.325 0 0.903529 0.793333 0.746667
v 0.63131 0.25 -0.103718 0.903529 0.793333 0.746667
v 0.642857 0.325 -0.123718 0.903529 0.793333 0.746667
v 0.488453 0.25 -0.103718 0.903529 0.793333 0.746667
v 0.5 0.325 -0.123718 0.903529 0.793333 0.746667
v 0.417024 0.25 -0.227436 0.903529 0.793333 0.746667
v 0.428571 0.325 -0.247436 0.903529 0.793333 0.746667
v 0.274167 0.25 -0.227436 0.903529 0.793333 0.746667
v 0.285714 0.325 -0.247436 0.903529 0.793333 0.746667
v -0.366987 0.475 -0.494872 0.718431 0.662353 0.655686
v -0.295559 0.475 -0.371154 0.718431 0.662353 0.655686
v -0.295559 0.475 -0.371154 0.718431 0.662353 0.655686
v -0.366987 0.475 -0.247436 0.718431 0.662353 0.655686
v -0.326351 0.475 -0.177051 0.718431 0.662353 0.655686
v -0.366987 0.475 -0.247436 0.718431 0.662353 0.655686
v -0.183494 0.475 -0.177051 0.718431 0.662353 0.655686
v -0.112065 0.475 -0.0533333 0.718431 0.662353 0.655686
v 0.102221 0.475 0.0703846 0.718431 0.662353 0.655686
v 0.245078 0.475 0.0703846 0.718431 0.662353 0.655686
v 0.612065 0.475 0.0703846 0.718431 0.662353 0.655686
v 0.469208 0.475 0.0703846 0.718431 0.662353 0.655686
v 0.652702 0.475 0 0.718431 0.662353 0.655686
v 0.612065 0.475 0.0703846 0.718431 0.662353 0.655686
v 0.612065 0.475 -0.0703846 0.718431 0.662353 0.655686
v 0.652702 0.475 0 0.718431 0.662353 0.655686
v 0.469208 0.475 -0.0703846 0.718431 0.662353 0.655686
v 0.397779 0.475 -0.194102 0.718431 0.662353 0.655686
v 0.469208 0.475 -0.0703846 0.718431 0.662353 0.655686
v 0.397779 0.475 -0.194102 0.718431 0.662353 0.655686
v 0.254922 0.475 -0.194102 0.718431 0.662353 0.655686
v 0.183494 0.475 -0.31782 0.718431 0.662353 0.655686
v 0.0406366 0.475 -0.31782 0.718431 0.662353 0.655686
v 0.0406366 0.475 -0.31782 0.718431 0.662353 0.655686
v -0.030792 0.475 -0.441538 0.718431 0.662353 0.655686
v -0.030792 0.475 -0.441538 0.718431 0.662353 0.655686
v -0.173649 0.475 -0.441538 0.718431 0.662353 0.655686
v 0.316506 0.475 0.194102 0.718431 0.662353 0.655686
v 0.245078 0.475 0.0703846 0.718431 0.662353 0.655686
v 0.397779 0.475 0.194102 0.718431 0.662353 0.655686
v 0.316506 0.475 0.194102 0.718431 0.662353 0.655686
v 0.397779 0.475 0.194102 0.718431 0.662353 0.655686
v -0.245078 0.475 -0.565256 0.718431 0.662353 0.655686
v -0.173649 0.475 -0.441538 0.718431 0.662353 0.655686
v -0.326351 0.475 -0.565256 0.718431 0.662353 0.655686
v -0.245078 0.475 -0.565256 0.718431 0.662353 0.655686
v -0.366987 0.475 -0.494872 0.718431 0.662353 0.655686
v -0.326351 0.475 -0.565256 0.718431 0.662353 0.655686
v 0.239526 1 -0.167436 0.0705882 0.203922 0.337255
v 0.168098 1 -0.291154 0.0705882 0.203922 0.337255
v 0.0252405 1 -0.291154 0.0705882 0.203922 0.337255
v -0.046188 1 -0.414872 0.0705882 0.203922 0.337255
v -0.189045 1 -0.414872 0.0705882 0.203922 0.337255
v -0.336195 1 -0.494872 0.0705882 0.203922 0.337255
v -0.264767 1 -0.371154 0.0705882 0.203922 0.337255
v -0.260474 1 -0.53859 0.0705882 0.203922 0.337255
v -0.310955 1 -0.53859 0.0705882 0.203922 0.337255
v -0.310955 1 -0.203718 0.0705882 0.203922 0.337255
v -0.168098 1 -0.203718 0.0705882 0.203922 0.337255
v -0.336195 1 -0.247436 0.0705882 0.203922 0.337255
v 0.046188 1 -0.08 0.0705882 0.203922 0.337255
v -0.0966691 1 -0.08 0.0705882 0.203922 0.337255
v 0.117617 1 0.0437179 0.0705882 0.203922 0.337255
v 0.260474 1 0.0437179 0.0705882 0.203922 0.337255
v 0.453812 1 0.0437179 0.0705882 0.203922 0.337255
v 0.331902 1 0.167436 0.0705882 0.203922 0.337255
v 0.382383 1 0.167436 0.0705882 0.203922 0.337255
v 0.596669 1 -0.0437179 0.0705882 0.203922 0.337255
v 0.453812 1 -0.0437179 0.0705882 0.203922 0.337255
v 0.596669 1 0.0437179 0.0705882 0.203922 0.337255
v 0.62191 1 0 0.0705882 0.203922 0.337255
v 0.382383 1 -0.167436 0.0705882 0.203922 0.337255
v 0.0483346 0.775 -0.331154 0.348235 0.400392 0.473725
v 0.0414064 0.73 -0.319154 0.403765 0.439686 0.50102
v -0.0300222 0.73 -0.442872 0.403765 0.439686 0.50102
v -0.023094 0.775 -0.454872 0.348235 0.400392 0.473725
v -0.191192 0.775 -0.163718 0.348235 0.400392 0.473725
v -0.119763 0.775 -0.04 0.348235 0.400392 0.473725
v 0.023094 0.775 -0.04 0.348235 0.400392 0.473725
v -0.184264 0.73 -0.175718 0.403765 0.439686 0.50102
v -0.112835 0.73 -0.052 0.403765 0.439686 0.50102
v 0.0300222 0.73 -0.052 0.403765 0.439686 0.50102
v -0.334049 0.775 -0.163718 0.348235 0.400392 0.473725
v -0.327121 0.73 -0.175718 0.403765 0.439686 0.50102
v -0.184264 0.73 -0.175718 0.403765 0.439686 0.50102
v -0.310955 0.775 -0.371154 0.348235 0.400392 0.473725
v -0.297098 0.73 -0.371154 0.403765 0.439686 0.50102
v -0.368527 0.73 -0.247436 0.403765 0.439686 0.50102
v -0.382383 0.775 -0.247436 0.348235 0.400392 0.473725
v -0.368527 0.73 -0.247436 0.403765 0.439686 0.50102
v -0.327121 0.73 -0.175718 0.403765 0.439686 0.50102
v 0.101451 0.73 0.0717179 0.403765 0.439686 0.50102
v 0.0945226 0.775 0.0837179 0.348235 0.400392 0.473725
v 0.0300222 0.73 -0.052 0.403765 0.439686 0.50102
v 0.23738 0.775 0.0837179 0.348235 0.400392 0.473725
v 0.308808 0.775 0.207436 0.348235 0.400392 0.473725
v 0.405477 0.775 0.207436 0.348235 0.400392 0.473725
v 0.244308 0.73 0.0717179 0.403765 0.439686 0.50102
v 0.244308 0.73 0.0717179 0.403765 0.439686 0.50102
v 0.315736 0.73 0.195436 0.403765 0.439686 0.50102
v 0.315736 0.73 0.195436 0.403765 0.439686 0.50102
v 0.398549 0.73 0.195436 0.403765 0.439686 0.50102
v -0.382383 0.775 -0.494872 0.348235 0.400392 0.473725
v -0.368527 0.73 -0.494872 0.403765 0.439686 0.50102
v -0.297098 0.73 -0.371154 0.403765 0.439686 0.50102
v -0.165951 0.775 -0.454872 0.348235 0.400392 0.473725
v -0.23738 0.775 -0.57859 0.348235 0.400392 0.473725
v -0.334049 0.775 -0.57859 0.348235 0.400392 0.473725
v -0.327121 0.73 -0.56659 0.403765 0.439686 0.50102
v -0.368527 0.73 -0.494872 0.403765 0.439686 0.50102
v -0.244308 0.73 -0.56659 0.403765 0.439686 0.50102
v -0.327121 0.73 -0.56659 0.403765 0.439686 0.50102
v -0.172879 0.73 -0.442872 0.403765 0.439686 0.50102
v -0.0300222 0.73 -0.442872 0.403765 0.439686 0.50102
v -0.172879 0.73 -0.442872 0.403765 0.439686 0.50102
v -0.244308 0.73 -0.56659 0.403765 0.439686 0.50102
v 0.619763 0.775 0.0837179 0.348235 0.400392 0.473725
v 0.612835 0.73 0.0717179 0.403765 0.439686 0.50102
v 0.654241 0.73 0 0.403765 0.439686 0.50102
v 0.668098 0.775 0 0.348235 0.400392 0.473725
v 0.26262 0.775 -0.207436 0.348235 0.400392 0.473725
v 0.255692 0.73 -0.195436 0.403765 0.439686 0.50102
v 0.184264 0.73 -0.319154 0.403765 0.439686 0.50102
v 0.191192 0.775 -0.331154 0.348235 0.400392 0.473725
v 0.0414064 0.73 -0.319154 0.403765 0.439686 0.50102
v 0.405477 0.775 -0.207436 0.348235 0.400392 0.473725
v 0.398549 0.73 -0.195436 0.403765 0.439686 0.50102
v 0.255692 0.73 -0.195436 0.403765 0.439686 0.50102
v 0.476906 0.775 -0.0837179 0.348235 0.400392 0.473725
v 0.469978 0.73 -0.0717179 0.403765 0.439686 0.50102
v 0.398549 0.73 -0.195436 0.403765 0.439686 0.50102
v 0.612835 0.73 -0.0717179 0.403765 0.439686 0.50102
v 0.619763 0.775 -0.0837179 0.348235 0.400392 0.473725
v 0.654241 0.73 0 0.403765 0.439686 0.50102
v 0.476906 0.775 0.0837179 0.348235 0.400392 0.473725
v 0.612835 0.73 -0.0717179 0.403765 0.439686 0.50102
v 0.469978 0.73 -0.0717179 0.403765 0.439686 0.50102
v 0.469978 0.73 0.0717179 0.403765 0.439686 0.50102
v 0.398549 0.73 0.195436 0.403765 0.439686 0.50102
v 0.469978 0.73 0.0717179 0.403765 0.439686 0.50102
v 0.612835 0.73 0.0717179 0.403765 0.439686 0.50102
v 0.397779 0.475 0.194102 0.718431 0.662353 0.655686
v 0.390081 0.475 0.207436 0.718431 0.662353 0.655686
v 0.324204 0.475 0.207436 0.718431 0.662353 0.655686
v 0.316506 0.475 0.194102 0.718431 0.662353 0.655686
v -0.023094 0.475 -0.454872 0.718431 0.662353 0.655686
v -0.011547 0.55 -0.474872 0.625882 0.596863 0.610196
v 0.0598816 0.55 -0.351154 0.625882 0.596863 0.610196
v 0.0483346 0.475 -0.331154 0.718431 0.662353 0.655686
v -0.13131 0.55 -0.02 0.625882 0.596863 0.610196
v -0.112835 0.73 -0.052 0.403765 0.439686 0.50102
v -0.184264 0.73 -0.175718 0.403765 0.439686 0.50102
v -0.202739 0.55 -0.143718 0.625882 0.596863 0.610196
v -0.112835 0.73 -0.052 0.403765 0.439686 0.50102
v 0.011547 0.55 -0.02 0.625882 0.596863 0.610196
v 0.0300222 0.73 -0.052 0.403765 0.439686 0.50102
v -0.191192 0.475 -0.163718 0.718431 0.662353 0.655686
v -0.119763 0.475 -0.04 0.718431 0.662353 0.655686
v 0.023094 0.475 -0.04 0.718431 0.662353 0.655686
v -0.366987 0.475 -0.247436 0.718431 0.662353 0.655686
v -0.318653 0.475 -0.163718 0.718431 0.662353 0.655686
v -0.334049 0.475 -0.163718 0.718431 0.662353 0.655686
v -0.374685 0.475 -0.234102 0.718431 0.662353 0.655686
v -0.345596 0.55 -0.143718 0.625882 0.596863 0.610196
v -0.405477 0.55 -0.247436 0.625882 0.596863 0.610196
v -0.382383 0.475 -0.247436 0.718431 0.662353 0.655686
v -0.184264 0.73 -0.175718 0.403765 0.439686 0.50102
v -0.327121 0.73 -0.175718 0.403765 0.439686 0.50102
v -0.183494 0.475 -0.177051 0.718431 0.662353 0.655686
v -0.326351 0.475 -0.177051 0.718431 0.662353 0.655686
v -0.104367 0.475 -0.04 0.718431 0.662353 0.655686
v 0.030792 0.475 -0.0533333 0.718431 0.662353 0.655686
v 0.109919 0.475 0.0837179 0.718431 0.662353 0.655686
v 0.0945226 0.475 0.0837179 0.718431 0.662353 0.655686
v -0.112065 0.475 -0.0533333 0.718431 0.662353 0.655686
v 0.0829756 0.55 0.103718 0.625882 0.596863 0.610196
v 0.101451 0.73 0.0717179 0.403765 0.439686 0.50102
v 0.0300222 0.73 -0.052 0.403765 0.439686 0.50102
v 0.245078 0.475 0.0703846 0.718431 0.662353 0.655686
v 0.23738 0.475 0.0837179 0.718431 0.662353 0.655686
v 0.102221 0.475 0.0703846 0.718431 0.662353 0.655686
v 0.308808 0.475 0.207436 0.718431 0.662353 0.655686
v 0.225833 0.55 0.103718 0.625882 0.596863 0.610196
v 0.297261 0.55 0.227436 0.625882 0.596863 0.610196
v 0.405477 0.475 0.207436 0.718431 0.662353 0.655686
v 0.417024 0.55 0.227436 0.625882 0.596863 0.610196
v 0.315736 0.73 0.195436 0.403765 0.439686 0.50102
v 0.244308 0.73 0.0717179 0.403765 0.439686 0.50102
v 0.244308 0.73 0.0717179 0.403765 0.439686 0.50102
v 0.101451 0.73 0.0717179 0.403765 0.439686 0.50102
v 0.398549 0.73 0.195436 0.403765 0.439686 0.50102
v -0.334049 0.55 -0.371154 0.625882 0.596863 0.610196
v -0.310955 0.475 -0.371154 0.718431 0.662353 0.655686
v -0.368527 0.73 -0.247436 0.403765 0.439686 0.50102
v -0.327121 0.73 -0.175718 0.403765 0.439686 0.50102
v -0.295559 0.475 -0.371154 0.718431 0.662353 0.655686
v -0.382383 0.475 -0.494872 0.718431 0.662353 0.655686
v -0.374685 0.475 -0.508205 0.718431 0.662353 0.655686
v -0.405477 0.55 -0.494872 0.625882 0.596863 0.610196
v -0.297098 0.73 -0.371154 0.403765 0.439686 0.50102
v -0.368527 0.73 -0.247436 0.403765 0.439686 0.50102
v -0.297098 0.73 -0.371154 0.403765 0.439686 0.50102
v -0.368527 0.73 -0.494872 0.403765 0.439686 0.50102
v -0.345596 0.55 -0.59859 0.625882 0.596863 0.610196
v -0.368527 0.73 -0.494872 0.403765 0.439686 0.50102
v -0.327121 0.73 -0.56659 0.403765 0.439686 0.50102
v -0.244308 0.73 -0.56659 0.403765 0.439686 0.50102
v -0.225833 0.55 -0.59859 0.625882 0.596863 0.610196
v -0.327121 0.73 -0.56659 0.403765 0.439686 0.50102
v -0.172879 0.73 -0.442872 0.403765 0.439686 0.50102
v -0.154404 0.55 -0.474872 0.625882 0.596863 0.610196
v -0.172879 0.73 -0.442872 0.403765 0.439686 0.50102
v -0.0300222 0.73 -0.442872 0.403765 0.439686 0.50102
v -0.0300222 0.73 -0.442872 0.403765 0.439686 0.50102
v 0.0414064 0.73 -0.319154 0.403765 0.439686 0.50102
v -0.366987 0.475 -0.494872 0.718431 0.662353 0.655686
v -0.334049 0.475 -0.57859 0.718431 0.662353 0.655686
v -0.318653 0.475 -0.57859 0.718431 0.662353 0.655686
v -0.326351 0.475 -0.565256 0.718431 0.662353 0.655686
v -0.23738 0.475 -0.57859 0.718431 0.662353 0.655686
v -0.229682 0.475 -0.565256 0.718431 0.662353 0.655686
v -0.165951 0.475 -0.454872 0.718431 0.662353 0.655686
v -0.173649 0.475 -0.441538 0.718431 0.662353 0.655686
v -0.245078 0.475 -0.565256 0.718431 0.662353 0.655686
v -0.015396 0.475 -0.441538 0.718431 0.662353 0.655686
v 0.0406366 0.475 -0.31782 0.718431 0.662353 0.655686
v 0.175796 0.475 -0.331154 0.718431 0.662353 0.655686
v 0.183494 0.475 -0.31782 0.718431 0.662353 0.655686
v -0.030792 0.475 -0.441538 0.718431 0.662353 0.655686
v 0.668098 0.475 0 0.718431 0.662353 0.655686
v 0.619763 0.475 0.0837179 0.718431 0.662353 0.655686
v 0.604367 0.475 0.0837179 0.718431 0.662353 0.655686
v 0.6604 0.475 -0.0133333 0.718431 0.662353 0.655686
v 0.691192 0.55 0 0.625882 0.596863 0.610196
v 0.63131 0.55 0.103718 0.625882 0.596863 0.610196
v 0.612835 0.73 0.0717179 0.403765 0.439686 0.50102
v 0.654241 0.73 0 0.403765 0.439686 0.50102
v 0.285714 0.475 -0.194102 0.718431 0.662353 0.655686
v 0.26262 0.475 -0.207436 0.718431 0.662353 0.655686
v 0.405477 0.475 -0.207436 0.718431 0.662353 0.655686
v 0.413175 0.475 -0.194102 0.718431 0.662353 0.655686
v 0.191192 0.475 -0.331154 0.718431 0.662353 0.655686
v 0.239526 0.475 -0.220769 0.718431 0.662353 0.655686
v 0.254922 0.475 -0.194102 0.718431 0.662353 0.655686
v 0.239526 0.475 -0.220769 0.718431 0.662353 0.655686
v 0.285714 0.475 -0.194102 0.718431 0.662353 0.655686
v 0.202739 0.55 -0.351154 0.625882 0.596863 0.610196
v 0.274167 0.55 -0.227436 0.625882 0.596863 0.610196
v 0.417024 0.55 -0.227436 0.625882 0.596863 0.610196
v 0.184264 0.73 -0.319154 0.403765 0.439686 0.50102
v 0.255692 0.73 -0.195436 0.403765 0.439686 0.50102
v 0.398549 0.73 -0.195436 0.403765 0.439686 0.50102
v 0.255692 0.73 -0.195436 0.403765 0.439686 0.50102
v 0.488453 0.55 -0.103718 0.625882 0.596863 0.610196
v 0.476906 0.475 -0.0837179 0.718431 0.662353 0.655686
v 0.619763 0.475 -0.0837179 0.718431 0.662353 0.655686
v 0.652702 0.475 0 0.718431 0.662353 0.655686
v 0.604367 0.475 -0.0837179 0.718431 0.662353 0.655686
v 0.63131 0.55 -0.103718 0.625882 0.596863 0.610196
v 0.612835 0.73 -0.0717179 0.403765 0.439686 0.50102
v 0.488453 0.55 0.103718 0.625882 0.596863 0.610196
v 0.469978 0.73 0.0717179 0.403765 0.439686 0.50102
v 0.469978 0.73 -0.0717179 0.403765 0.439686 0.50102
v 0.398549 0.73 -0.195436 0.403765 0.439686 0.50102
v 0.612835 0.73 0.0717179 0.403765 0.439686 0.50102
v 0.469208 0.475 -0.0703846 0.718431 0.662353 0.655686
v 0.612065 0.475 -0.0703846 0.718431 0.662353 0.655686
v 0.397779 0.475 -0.194102 0.718431 0.662353 0.655686
v 0.476906 0.475 0.0837179 0.718431 0.662353 0.655686
v 0.469208 0.475 0.0703846 0.718431 0.662353 0.655686
v 0.612065 0.475 0.0703846 0.718431 0.662353 0.655686
v 0.26068 0.25 -0.250796 0.903529 0.793333 0.746667
v -0.403537 0.25 -0.250796 0.903529 0.793333 0.746667
v 0.0611062 0.25 0.0658391 0.903529 0.793333 0.746667
v 0.241363 0.25 -0.246375 0.903529 0.793333 0.746667
v 0.254922 0.475 -0.194102 0.718431 0.662353 0.655686
v 0.183494 0.475 -0.31782 0.718431 0.662353 0.655686
v 0.233706 0.25 -0.250796 0.903529 0.793333 0.746667
v 0.144797 0.25 -0.250796 0.903529 0.793333 0.746667
v 0.194357 0.25 -0.164957 0.903529 0.793333 0.746667
v 0.144797 0.25 -0.0791181 0.903529 0.793333 0.746667
v -0.165442 0.25 -0.0791181 0.903529 0.793333 0.746667
v 0.030792 0.475 -0.0533333 0.718431 0.662353 0.655686
v -0.112065 0.475 -0.0533333 0.718431 0.662353 0.655686
v 0.030792 0.475 -0.0533333 0.718431 0.662353 0.655686
v 0.102221 0.475 0.0703846 0.718431 0.662353 0.655686
v 0.0456789 0.25 -0.250796 0.903529 0.793333 0.746667
v -0.0534396 0.25 -0.0791181 0.903529 0.793333 0.746667
v -0.00388039 0.25 -0.164957 0.903529 0.793333 0.746667
v 0.0456789 0.25 -0.0791181 0.903529 0.793333 0.746667

vt 0.75 1
vt 1 0.5
vt 0.75 0
vt 0.25 0
vt 0 0.5
vt 0.25 1
vt 0.333333 0
vt 0.333333 0.757576
vt 0.166667 0.757576
vt 0.166667 0
vt 0.5 0
vt 0.5 0.757576
vt 0.666667 0
vt 0.666667 0.757576
vt 0 0
vt 0 0.757576
vt 0.833333 0
vt 0.833333 0.757576
vt 0.666667 0.757576
vt 1 0
vt 1 0.757576
vt 0.833333 0.757576
vt 0.0434215 0
vt 0.0868431 0
vt 0.0833333 0.5
vt 0.0416667 0.5
vt 0.130265 0
vt 0.125 0.5
vt 0.173686 0
vt 0.166667 0.5
vt 0.217108 0
vt 0.208333 0.5
vt 0.25351 0
vt 0.25 0.5
vt 0.289912 0
vt 0.291667 0.5
vt 0.333333 0
vt 0.333333 0.5
vt 0.376755 0
vt 0.375 0.5
vt 0.413157 0
vt 0.416667 0.5
vt 0.456578 0
vt 0.458333 0.5
vt 0.5 0
vt 0.5 0.5
vt 0.543422 0
vt 0.541667 0.5
vt 0.586843 0
vt 0.583333 0.5
vt 0.630265 0
vt 0.625 0.5
vt 0.673686 0
vt 0.666667 0.5
vt 0.710088 0
vt 0.708333 0.5
vt 0.75351 0
vt 0.75 0.5
vt 0.796931 0
vt 0.791667 0.5
vt 0.833333 0
vt 0.833333 0.5
vt 0.869735 0
vt 0.875 0.5
vt 0.913157 0
vt 0.916667 0.5
vt 0.956578 0
vt 0.958333 0.5
vt 1 0
vt 1 0.5
vt 0.28631 0.833333
vt 0.333333 0.833333
vt 0.380356 0.833333
vt 0.405954 0.833333
vt 0.452977 0.833333
vt 0.5 0.833333
vt 0.594046 0.833333
vt 0.641069 0.833333
vt 0.807736 0.833333
vt 0.760713 0.833333
vt 0.833333 0.833333
vt 0.858931 0.833333
vt 0.833333 0.833333
vt 0.905954 0.833333
vt 0.858931 0.833333
vt 0.952977 0.833333
vt 1 0.833333
vt 0.0470231 0.833333
vt 0.0940462 0.833333
vt 0.141069 0.833333
vt 0.188092 0.833333
vt 0.688092 0.833333
vt 0.71369 0.833333
vt 0.71369 0.833333
vt 0.235115 0.833333
vt 0.260713 0.833333
vt 0.235115 0.833333
vt 0.260713 0.833333
vt 0.600896 0.474305
vt 0.526344 0.649537
vt 0.37724 0.649537
vt 0.302688 0.824768
vt 0.153585 0.824768
vt 0 0.938079
vt 0.0745519 0.762847
vt 0.0790327 1
vt 0.0263442 1
vt 0.0263442 0.525695
vt 0.175448 0.525695
vt 0 0.587616
vt 0.399104 0.350463
vt 0.25 0.350463
vt 0.473656 0.175232
vt 0.62276 0.175232
vt 0.824552 0.175232
vt 0.697312 0
vt 0.973656 0.299074
vt 0.824552 0.299074
vt 0.973656 0.175232
vt 1 0.237153
vt 0.75 0.474305
vt 0.0906614 0.5
vt 0.0931632 0.2
vt 0.139745 0.2
vt 0.135992 0.5
vt 0.454669 0.5
vt 0.5 0.5
vt 0.5 1
vt 0.450299 1
vt 0.545331 0.5
vt 0.549701 1
vt 0.453418 0.2
vt 0.5 0.2
vt 0.5 0.2
vt 0.546582 0.2
vt 0.409339 0.5
vt 0.400597 1
vt 0.406837 0.2
vt 0.453418 0.2
vt 0.333333 0.5
vt 0.333333 0.2
vt 0.379915 0.2
vt 0.378664 0.5
vt 0.379915 0.2
vt 0.406837 0.2
vt 0.383035 1
vt 0.333333 1
vt 0.593163 0.2
vt 0.590661 0.5
vt 0.546582 0.2
vt 0.599403 1
vt 0.635992 0.5
vt 0.649104 1
vt 0.681323 0.5
vt 0.698805 1
vt 0.711997 0.5
vt 0.716368 1
vt 0.639745 0.2
vt 0.593163 0.2
vt 0.639745 0.2
vt 0.686326 0.2
vt 0.686326 0.2
vt 0.713248 0.2
vt 0.288003 0.5
vt 0.286752 0.2
vt 0.333333 0.2
vt 0.283632 1
vt 0.149104 1
vt 0.0994026 1
vt 0.181323 0.5
vt 0.198805 1
vt 0.226654 0.5
vt 0.248506 1
vt 0.257328 0.5
vt 0.266069 1
vt 0.25983 0.2
vt 0.286752 0.2
vt 0.232908 0.2
vt 0.25983 0.2
vt 0.186326 0.2
vt 0.139745 0.2
vt 0.186326 0.2
vt 0.232908 0.2
vt 0.802659 0.5
vt 0.806411 0.2
vt 0.833333 0.2
vt 0.833333 0.5
vt 0.833333 1
vt 0.815771 1
vt 0 0.2
vt 0.0465816 0.2
vt 0.0453307 0.5
vt 0.0465816 0.2
vt 0.0931632 0.2
vt 1 0.5
vt 0.954669 0.5
vt 0.953418 0.2
vt 1 0.2
vt 0.0497013 1
vt 0 1
vt 0.950299 1
vt 1 1
vt 0.909339 0.5
vt 0.906837 0.2
vt 0.953418 0.2
vt 0.900597 1
vt 0.860255 0.2
vt 0.864008 0.5
vt 0.833333 0.2
vt 0.850896 1
vt 0.757328 0.5
vt 0.766069 1
vt 0.860255 0.2
vt 0.906837 0.2
vt 0.75983 0.2
vt 0.713248 0.2
vt 0.75983 0.2
vt 0.806411 0.2
vt 0.742672 0.016963
vt 0.735344 0
vt 0.672632 0
vt 0.665304 0.016963
vt 0.135992 0
vt 0.130265 0.5
vt 0.0868431 0.5
vt 0.0906614 0
vt 0.5 0.5
vt 0.5 0.9
vt 0.453383 0.9
vt 0.456578 0.5
vt 0.5 0.9
vt 0.543422 0.5
vt 0.546617 0.9
vt 0.454669 0
vt 0.5 0
vt 0.545331 0
vt 0.0146561 0.578698
vt 0.060668 0.472191
vt 0.0460118 0.472191
vt 0.00732807 0.561735
vt 0.409339 0
vt 0.413157 0.5
vt 0.376755 0.5
vt 0.378664 0
vt 0.453383 0.9
vt 0.406767 0.9
vt 0.189332 0.489154
vt 0.182004 0.472191
vt 0.0533399 0.489154
vt 0.25 0.314794
vt 0.264656 0.314794
vt 0.385992 0.314794
vt 0.39332 0.331757
vt 0.468644 0.157397
vt 0.453988 0.157397
vt 0.257328 0.331757
vt 0.590661 0
vt 0.586843 0.5
vt 0.593233 0.9
vt 0.546617 0.9
vt 0.597308 0.17436
vt 0.58998 0.157397
vt 0.461316 0.17436
vt 0.657976 0
vt 0.635992 0
vt 0.630265 0.5
vt 0.681323 0
vt 0.673686 0.5
vt 0.711997 0
vt 0.710088 0.5
vt 0.686467 0.9
vt 0.63985 0.9
vt 0.63985 0.9
vt 0.593233 0.9
vt 0.713283 0.9
vt 0.686467 0.9
vt 0.333333 0.5
vt 0.333333 0
vt 0.37995 0.9
vt 0.406767 0.9
vt 0.0826522 0.736095
vt 0.0679961 0.736095
vt 0 0.893492
vt 0.00732807 0.910455
vt 0 0.578698
vt 0.289912 0.5
vt 0.288003 0
vt 0.333333 0.9
vt 0.37995 0.9
vt 0.333333 0.9
vt 0.286717 0.9
vt 0.25351 0.5
vt 0.286717 0.9
vt 0.2599 0.9
vt 0.233083 0.9
vt 0.217108 0.5
vt 0.186467 0.9
vt 0.173686 0.5
vt 0.186467 0.9
vt 0.13985 0.9
vt 0.13985 0.9
vt 0.0932334 0.9
vt 0.0146561 0.893492
vt 0.0460118 1
vt 0.060668 1
vt 0.257328 0
vt 0.0533399 0.983037
vt 0.138035 1
vt 0.145364 0.983037
vt 0.226654 0
vt 0.206032 0.842603
vt 0.198703 0.82564
vt 0.130707 0.983037
vt 0.349352 0.82564
vt 0.342024 0.842603
vt 0.181323 0
vt 0.402692 0.668243
vt 0.41002 0.685206
vt 0.531356 0.685206
vt 0.538684 0.668243
vt 0.334696 0.82564
vt 1 0.263905
vt 0.953988 0.157397
vt 0.939332 0.157397
vt 0.992672 0.280868
vt 0.802659 0
vt 0.833333 0
vt 0.833333 0.5
vt 0.796931 0.5
vt 0.806517 0.9
vt 0.833333 0.9
vt 0.635992 0.510846
vt 0.614008 0.527809
vt 0.75 0.527809
vt 0.757328 0.510846
vt 0.546012 0.685206
vt 0.592024 0.544772
vt 0.60668 0.510846
vt 0.592024 0.544772
vt 0.635992 0.510846
vt 0.0453307 0
vt 0.0434215 0.5
vt 0.954669 0
vt 0.956578 0.5
vt 0.0932334 0.9
vt 0.0466167 0.9
vt 0.0466167 0.9
vt 0 0.9
vt 0.953383 0.9
vt 1 0.9
vt 0.913157 0.5
vt 0.909339 0
vt 0.953988 0.370413
vt 0.985344 0.263905
vt 0.939332 0.370413
vt 0.864008 0
vt 0.869735 0.5
vt 0.86015 0.9
vt 0.833333 0.9
vt 0.75351 0.5
vt 0.7599 0.9
vt 0.906767 0.9
vt 0.953383 0.9
vt 0.906767 0.9
vt 0.86015 0.9
vt 0.7599 0.9
vt 0.806517 0.9
vt 0.810668 0.35345
vt 0.817996 0.370413
vt 0.94666 0.35345
vt 0.742672 0.510846
vt 0.817996 0.157397
vt 0.810668 0.17436
vt 0.94666 0.17436
vt 0.75 0
vt 0.757328 0
vt 0.424339 0.70045
vt 0.554603 0.70045
vt 0.607437 0.578956
vt 0.0651323 0.724662
vt 0.00176917 0.578956
vt 0.228942 0.850225
vt 0 0.874437
vt 0.0546031 1
vt 0.163809 1
vt 0.359206 0.850225
vt 0.619735 0.550675
vt 0.75 0.550675
vt 0.815132 0.4009
vt 0.425455 0.195632
vt 0.589823 0.573603
vt 0.575661 0.149775
vt 0.815132 0.149775
vt 0.75 0
vt 0.640794 0
vt 1 0.275338
vt 0.945397 0.149775
vt 0.445397 0.149775
vt 0.945397 0.4009
vt 0 0.833333
vt 0.0470231 0.833333
vt 0.58284 0.578956
vt 0.501769 0.578956
vt 0.58284 0.578956
vt 0.54696 0.475038
vt 0.501769 0.371119
vt 0.380265 0.29955
vt 0.25 0.29955
vt 0.218877 0.371119
vt 0.547023 0.833333
vt 0.411388 0.578956
vt 0.184868 0.449325
vt 0.0546031 0.449325
vt 0 0.574887
vt 0.321006 0.371119
vt 0.366197 0.475038
vt 0.411388 0.371119

vn 0 -1 0
vn -0.866025 0 0.5
vn -0.866025 0 0.5
vn 0 0 1
vn 0.866025 0 0.5
vn 0.866025 0 0.5
vn -0.866025 0 -0.5
vn -0.866025 0 -0.5
vn 0.866025 0 -0.5
vn 0.866025 0 -0.5
vn 0 0 -1
vn 0.866025 0 -0.5
vn 0.866025 0 -0.5
vn 0.866025 0 -0.5
vn 0.866025 0 -0.5
vn -0.866025 0 -0.5
vn -0.866025 0 -0.5
vn -0.866025 0 0.5
vn -0.866025 0 0.5
vn -0.866025 0 -0.5
vn -0.866025 0 -0.5
vn -0.866025 0 0.5
vn -0.866025 0 0.5
vn -0.866025 0 0.5
vn -0.866025 0 0.5
vn -0.866025 0 0.5
vn -0.866025 0 0.5
vn 0.866025 0 0.5
vn 0.866025 0 0.5
vn 0.866025 0 0.5
vn 0.866025 0 0.5
vn 0.866025 0 -0.5
vn 0.866025 0 -0.5
vn 0.866025 0 -0.5
vn 0.866025 0 -0.5
vn -0.866025 0 0.5
vn -0.866025 0 -0.5
vn -0.866025 0 0.5
vn 0.866025 0 0.5
vn 0.866025 0 0.5
vn 0.866025 0 -0.5
vn 0.866025 0 -0.5
vn -0.866025 0 0.5
vn 0.866025 0 0.5
vn 0.866025 0 -0.5
vn -0.866025 0 -0.5
vn 0 1 0
vn 0.866025 0 -0.5
vn 0.866025 0 -0.5
vn -0.866025 0 -0.5
vn -0.866025 0 0.5
vn -0.866025 0 0.5
vn -0.866025 0 0.5
vn -0.866025 0 0.5
vn -0.866025 0 0.5
vn 0.866025 0 -0.5
vn -0.866025 0 -0.5
vn -0.866025 0 -0.5
vn -0.866025 0 -0.5
vn 0.866025 0 0.5
vn 0.866025 0 0.5
vn 0.866025 0 0.5
vn 0.866025 0 -0.5
vn 0.866025 0 -0.5
vn 0.866025 0 -0.5
vn 0.866025 0 -0.5
vn 0.866025 0 -0.5
vn 0.866025 0 -0.5
vn 0.866025 0 0.5
vn -0.866025 0 0.5
vn -0.866025 0 -0.5
vn 0.866025 0 0.5
vn 0.866025 0 -0.5
vn 0.866025 0 0.5
vn 0.866025 0 0.5
vn 0.866025 0 -0.5
vn 0.866025 0 -0.5

f 1/1/1 2/2/1 3/3/1 4/4/1 5/5/1 6/6/1
f 4/7/2 7/8/3 8/9/3 5/10/2
f 4/7/4 3/11/4 9/12/4 10/8/4
f 2/13/5 11/14/6 12/12/6 3/11/5
f 6/15/7 5/10/7 13/9/8 14/16/8
f 1/17/9 15/18/10 16/19/10 2/13/9
f 1/17/11 6/20/11 14/21/11 17/22/11
f 18/23/11 19/24/11 20/25/11 21/26/11
f 19/24/12 22/27/12 23/28/13 20/25/13
f 22/27/11 24/29/11 25/30/11 23/28/11
f 24/29/14 26/31/14 27/32/15 25/30/15
f 26/31/11 28/33/11 29/34/11 27/32/11
f 28/33/16 30/35/16 31/36/17 29/34/17
f 30/35/18 32/37/18 33/38/19 31/36/19
f 32/37/20 34/39/20 35/40/21 33/38/21
f 34/39/22 36/41/22 37/42/23 35/40/23
f 36/41/4 38/43/4 39/44/4 37/42/4
f 38/43/24 40/45/24 41/46/24 39/44/24
f 40/45/4 42/47/4 43/48/4 41/46/4
f 42/47/25 44/49/25 45/50/26 43/48/26
f 44/49/4 46/51/4 47/52/4 45/50/4
f 46/51/27 48/53/27 49/54/23 47/52/23
f 48/53/4 50/55/4 51/56/4 49/54/4
f 50/55/28 52/57/28 53/58/29 51/56/29
f 52/57/4 54/59/4 55/60/4 53/58/4
f 54/59/30 56/61/30 57/62/31 55/60/31
f 56/61/32 58/63/32 59/64/33 57/62/33
f 58/63/11 60/65/11 61/66/11 59/64/11
f 60/65/34 62/67/34 63/68/35 61/66/35
f 62/67/11 64/69/11 65/70/11 63/68/11
f 66/71/36 31/36/19 33/38/19 67/72/36
f 68/72/37 33/38/21 35/40/21 69/73/37
f 37/42/23 70/74/38 71/73/38 35/40/23
f 37/42/4 39/44/4 72/75/4 70/74/4
f 39/44/24 41/46/24 73/76/24 72/75/24
f 74/77/4 45/50/4 47/52/4 75/78/4
f 53/58/4 55/60/4 76/79/4 77/80/4
f 78/81/39 79/79/40 55/60/31 57/62/31
f 80/82/41 81/83/41 57/62/33 59/64/33
f 61/66/11 82/84/11 80/85/11 59/64/11
f 63/68/35 83/86/42 84/84/42 61/66/35
f 85/86/11 63/68/11 65/70/11 86/87/11
f 87/88/11 21/26/11 20/25/11 88/89/11
f 89/89/13 20/25/13 23/28/13 90/90/13
f 91/90/11 23/28/11 25/30/11 92/91/11
f 49/54/23 93/92/43 94/78/43 47/52/23
f 51/56/4 95/93/4 96/92/4 49/54/4
f 97/94/44 51/56/29 53/58/29 77/80/44
f 98/95/45 99/91/45 25/30/15 27/32/15
f 100/96/11 101/97/11 27/32/11 29/34/11
f 31/36/17 102/71/46 103/98/46 29/34/17
f 104/99/47 105/100/47 106/101/47
f 106/101/47 107/102/47 108/103/47
f 109/104/47 110/105/47 108/103/47 111/106/47 112/107/47
f 113/108/47 114/109/47 108/103/47 110/105/47 115/110/47
f 116/111/47 108/103/47 114/109/47 117/112/47
f 116/111/47 118/113/47 119/114/47
f 120/115/47 119/114/47 121/116/47 122/3/47
f 123/117/47 124/118/47 120/115/47 125/119/47 126/120/47
f 104/99/47 120/115/47 124/118/47 127/121/47
f 108/103/47 116/111/47 119/114/47 120/115/47 104/99/47
f 128/122/48 129/123/49 130/124/49 131/125/48
f 132/126/25 133/127/25 117/128/24 114/129/24
f 117/128/4 133/127/4 134/130/4 116/131/4
f 132/126/25 135/132/25 136/133/25 133/127/25
f 133/127/4 136/134/4 137/135/4 134/130/4
f 138/136/4 132/126/4 114/129/4 113/137/4
f 138/136/4 139/138/4 140/139/4 132/126/4
f 141/140/21 142/141/50 143/142/50 144/143/21
f 144/143/51 145/144/52 146/145/52 138/136/51
f 141/140/21 144/143/21 115/146/20 110/147/20
f 115/146/53 144/143/51 138/136/51 113/137/53
f 147/148/24 148/149/25 134/130/25 149/150/24
f 148/149/25 118/151/25 116/131/25 134/130/25
f 148/149/4 150/152/4 119/153/4 118/151/4
f 150/152/54 151/154/54 121/155/43 119/153/43
f 121/155/4 151/154/4 152/156/4 122/157/4
f 153/158/4 150/152/4 148/149/4 147/159/4
f 150/152/54 154/160/55 155/161/55 151/154/54
f 151/154/4 156/162/4 157/163/4 152/156/4
f 158/164/19 159/165/36 160/166/36 141/140/19
f 109/167/18 158/164/19 141/140/19 110/147/18
f 107/168/13 106/169/13 128/122/48 131/125/48
f 161/170/11 108/171/11 107/168/11 131/125/11
f 161/170/15 162/172/15 111/173/56 108/171/56
f 162/172/11 163/174/11 112/175/11 111/173/11
f 112/175/57 163/174/58 158/164/58 109/167/57
f 163/174/58 164/176/59 165/177/59 158/164/58
f 162/172/11 166/178/11 167/179/11 163/174/11
f 168/180/11 161/170/11 131/125/11 169/181/11
f 161/170/15 170/182/15 171/183/15 162/172/15
f 172/184/60 173/185/61 174/186/61 175/187/60
f 172/184/60 175/187/60 126/188/62 125/189/62
f 176/5/63 177/190/64 178/191/64 179/192/63
f 179/192/11 178/193/11 180/194/11 128/122/11
f 176/195/11 181/196/11 182/197/11 183/198/11
f 176/5/63 179/192/63 105/199/13 104/200/13
f 179/192/11 128/122/11 106/169/11 105/199/11
f 127/201/11 181/196/11 176/195/11 104/202/11
f 184/203/42 185/204/65 186/205/65 181/196/42
f 124/206/42 184/203/42 181/196/42 127/201/42
f 187/207/66 188/208/67 175/187/67 189/209/66
f 188/208/67 123/210/68 126/188/68 175/187/67
f 190/211/44 120/212/44 122/157/44 152/156/44
f 120/212/4 190/211/4 172/184/4 125/189/4
f 123/210/11 188/208/11 184/203/11 124/206/11
f 188/208/11 191/213/11 192/214/11 184/203/11
f 193/215/69 190/211/44 152/156/44 194/216/69
f 190/211/4 195/217/4 196/218/4 172/184/4
f 197/219/1 198/220/1 199/221/1 200/222/1
f 201/223/48 202/224/12 203/225/12 204/226/48
f 205/227/24 206/228/25 207/229/25 208/230/24
f 209/231/4 205/227/4 210/232/4 211/233/4
f 212/234/25 213/235/25 205/227/24 208/230/24
f 205/227/4 213/235/4 214/236/4 210/232/4
f 215/237/1 216/238/1 217/239/1 218/240/1
f 217/241/51 219/242/22 220/243/22 221/244/51
f 219/242/4 208/230/4 222/245/4 223/246/4
f 224/247/1 212/248/1 216/238/1 225/249/1
f 213/250/1 212/248/1 224/247/1 226/251/1
f 219/242/4 217/241/4 212/234/4 208/230/4
f 214/252/1 227/253/1 228/254/1 229/255/1
f 230/256/1 227/253/1 214/252/1 226/251/1
f 229/257/25 231/258/25 210/232/25 214/236/25
f 231/258/25 232/259/24 233/260/24 210/232/25
f 234/261/1 235/262/1 228/254/1 236/263/1
f 237/264/1 235/262/1 234/261/1 199/221/1
f 235/265/4 238/266/4 231/258/4 229/257/4
f 235/265/54 237/267/54 239/268/27 238/266/27
f 239/268/4 237/267/4 240/269/4 241/270/4
f 238/266/27 239/268/27 242/271/55 243/272/55
f 231/258/4 238/266/4 244/273/4 245/274/4
f 246/275/4 155/276/4 239/268/4 241/270/4
f 247/277/20 248/278/21 221/244/21 220/243/20
f 249/279/70 220/243/22 219/242/22 250/280/70
f 251/281/1 248/282/1 252/283/1 253/284/1
f 221/285/1 248/282/1 251/281/1 218/240/1
f 254/286/18 252/287/19 248/278/19 247/277/18
f 255/288/20 247/277/20 220/243/20 256/289/20
f 257/290/18 258/291/18 254/286/18 247/277/18
f 259/292/16 254/286/16 260/293/71 261/294/71
f 262/295/11 263/296/11 259/292/11 264/294/11
f 263/296/14 262/295/65 265/297/65 266/298/14
f 266/298/11 267/299/11 268/300/11 202/224/11
f 269/301/12 270/302/12 203/225/12 202/224/12
f 271/303/1 253/284/1 272/304/1 273/305/1
f 259/292/16 272/306/58 252/287/58 254/286/16
f 274/307/1 273/305/1 275/308/1 276/309/1
f 263/296/11 275/310/11 272/306/11 259/292/11
f 277/311/1 278/312/1 279/313/1 276/309/1
f 280/314/1 278/312/1 277/311/1 201/315/1
f 277/316/11 266/298/11 202/224/11 201/223/11
f 266/298/14 277/316/15 275/310/15 263/296/14
f 281/317/1 204/318/1 282/319/1 283/320/1
f 280/314/1 204/318/1 281/317/1 284/321/1
f 285/322/1 286/323/1 287/324/1 288/325/1
f 286/326/60 285/327/60 289/328/30 290/329/30
f 291/330/72 290/329/30 289/328/30 292/331/72
f 293/332/1 294/333/1 295/334/1 296/335/1
f 297/336/1 294/333/1 298/337/1 282/319/1
f 299/338/1 300/339/1 301/340/1
f 294/15/63 297/341/63 302/342/48 303/5/48
f 302/342/11 297/341/11 204/226/11 203/225/11
f 295/343/11 294/69/11 303/195/11 304/344/11
f 302/342/11 203/225/11 270/345/11 305/346/11
f 303/5/48 302/342/48 305/347/48 306/348/48
f 307/349/11 304/344/11 303/195/11 308/350/11
f 309/351/34 310/352/42 295/343/42 304/344/34
f 311/353/1 288/325/1 312/354/1 313/355/1
f 311/356/67 314/357/32 289/328/32 285/327/67
f 314/357/32 315/358/73 292/359/73 289/328/32
f 316/360/28 317/361/74 246/275/75 241/270/28
f 318/362/45 309/351/34 304/344/34 319/363/76
f 318/364/11 315/365/11 314/357/11 309/351/11
f 317/366/4 316/360/4 290/329/4 320/367/4
f 321/368/1 310/369/1 313/355/1 322/370/1
f 296/335/1 310/369/1 321/368/1 323/371/1
f 314/357/11 311/356/11 310/352/11 309/351/11
f 324/372/1 325/373/1 326/374/1 287/324/1
f 198/220/1 325/373/1 324/372/1 240/375/1
f 324/376/44 316/360/28 241/270/28 240/269/44
f 316/360/4 324/376/4 286/326/4 290/329/4
f 19/377/1 18/378/1 327/379/1
f 32/380/1 19/377/1 327/379/1 328/381/1
f 24/382/1 30/383/1 28/384/1 26/385/1
f 24/382/1 22/386/1 19/377/1
f 24/382/1 19/377/1 32/380/1 30/383/1
f 64/387/1 62/388/1 60/389/1
f 329/390/1 330/391/1 60/389/1
f 46/392/1 52/393/1 50/394/1 48/395/1
f 56/396/1 54/397/1 44/398/1 329/390/1 60/389/1 58/399/1
f 64/15/48 18/23/48 21/26/48 65/5/48
f 331/400/77 65/5/48 21/26/48 332/401/77
f 333/402/1 327/379/1 64/387/1
f 334/403/1 333/404/1 330/391/1 335/405/1
f 336/406/1 42/407/1 40/408/1 337/409/1
f 336/406/1 329/390/1 42/407/1
f 43/48/4 338/410/4 339/76/4 41/46/4
f 340/410/25 43/48/26 45/50/26 341/77/25
f 328/381/1 342/411/1 38/412/1 36/413/1 34/414/1
f 337/409/1 38/412/1 342/411/1 343/415/1
f 344/416/1 345/417/1 343/415/1