v -0.190476 0 0.0824786 0.396078 0.262745 0.129412
v -0.119048 0 -0.0412393 0.396078 0.262745 0.129412
v 0.0238095 0 -0.0412393 0.396078 0.262745 0.129412
v 0.0952381 0 0.0824786 0.396078 0.262745 0.129412
v 0.0238095 0 0.206197 0.396078 0.262745 0.129412
v -0.119048 0 0.206197 0.396078 0.262745 0.129412
v -0.0971783 0.25 0.168318 0.60404 0.672727 0.741414
v 0.0019402 0.25 0.168318 0.60404 0.672727 0.741414
v 0.0019402 0.25 0.168318 0.60404 0.672727 0.741414
v 0.0514994 0.25 0.0824786 0.60404 0.672727 0.741414
v 0.0514994 0.25 0.0824786 0.60404 0.672727 0.741414
v 0.0019402 0.25 -0.00336052 0.60404 0.672727 0.741414
v 0.0019402 0.25 -0.00336052 0.60404 0.672727 0.741414
v -0.0971783 0.25 -0.00336052 0.60404 0.672727 0.741414
v -0.0971783 0.25 -0.00336052 0.60404 0.672727 0.741414
v -0.146738 0.25 0.0824786 0.60404 0.672727 0.741414
v -0.146738 0.25 0.0824786 0.60404 0.672727 0.741414
v -0.0971783 0.25 0.168318 0.60404 0.672727 0.741414
v 0.274167 0.25 0.227436 0.903529 0.793333 0.746667
v 0.417024 0.25 0.227436 0.903529 0.793333 0.746667
v 0.428571 0.325 0.247436 0.903529 0.793333 0.746667
v 0.285714 0.325 0.247436 0.903529 0.793333 0.746667
v 0.476906 0.25 0.123718 0.903529 0.793333 0.746667
v 0.5 0.325 0.123718 0.903529 0.793333 0.746667
v 0.417024 0.25 0.02 0.903529 0.793333 0.746667
v 0.428571 0.325 0 0.903529 0.793333 0.746667
v 0.274167 0.25 0.02 0.903529 0.793333 0.746667
v 0.285714 0.325 0 0.903529 0.793333 0.746667
v 0.202739 0.25 -0.103718 0.903529 0.793333 0.746667
v 0.214286 0.325 -0.123718 0.903529 0.793333 0.746667
v 0.0598816 0.25 -0.103718 0.903529 0.793333 0.746667
v 0.0714286 0.325 -0.123718 0.903529 0.793333 0.746667
v -0.011547 0.25 -0.227436 0.903529 0.793333 0.746667
v 0 0.325 -0.247436 0.903529 0.793333 0.746667
v -0.154404 0.25 -0.227436 0.903529 0.793333 0.746667
v -0.142857 0.325 -0.247436 0.903529 0.793333 0.746667
v -0.225833 0.25 -0.351154 0.903529 0.793333 0.746667
v -0.214286 0.325 -0.371154 0.903529 0.793333 0.746667
v -0.345596 0.25 -0.351154 0.903529 0.793333 0.746667
v -0.357143 0.325 -0.371154 0.903529 0.793333 0.746667
v -0.405477 0.25 -0.247436 0.903529 0.793333 0.746667
v -0.428571 0.325 -0.247436 0.903529 0.793333 0.746667
v -0.334049 0.25 -0.123718 0.903529 0.793333 0.746667
v -0.357143 0.325 -0.123718 0.903529 0.793333 0.746667
v -0.405477 0.25 0 0.903529 0.793333 0.746667
v -0.428571 0.325 0 0.903529 0.793333 0.746667
v -0.334049 0.25 0.123718 0.903529 0.793333 0.746667
v -0.357143 0.325 0.123718 0.903529 0.793333 0.746667
v -0.405477 0.25 0.247436 0.903529 0.793333 0.746667
v -0.428571 0.325 0.247436 0.903529 0.793333 0.746667
v -0.345596 0.25 0.351154 0.903529 0.793333 0.746667
v -0.357143 0.325 0.371154 0.903529 0.793333 0.746667
v -0.202739 0.25 0.351154 0.903529 0.793333 0.746667
v -0.214286 0.325 0.371154 0.903529 0.793333 0.746667
v -0.13131 0.25 0.474872 0.903529 0.793333 0.746667
v -0.142857 0.325 0.494872 0.903529 0.793333 0.746667
v -0.011547 0.25 0.474872 0.903529 0.793333 0.746667
v 0 0.325 0.494872 0.903529 0.793333 0.746667
v 0.0598816 0.25 0.351154 0.903529 0.793333 0.746667
v 0.0714286 0.325 0.371154 0.903529 0.793333 0.746667
v 0.202739 0.25 0.351154 0.903529 0.793333 0.746667
v 0.214286 0.325 0.371154 0.903529 0.793333 0.746667
v 0.254922 0.475 0.194102 0.718431 0.662353 0.655686
v 0.397779 0.475 0.194102 0.718431 0.662353 0.655686
v 0.438416 0.475 0.123718 0.718431 0.662353 0.655686
v 0.397779 0.475 0.0533333 0.718431 0.662353 0.655686
v 0.254922 0.475 0.0533333 0.718431 0.662353 0.655686
v 0.183494 0.475 0.31782 0.718431 0.662353 0.655686
v 0.0406366 0.475 0.31782 0.718431 0.662353 0.655686
v -0.366987 0.475 0.247436 0.718431 0.662353 0.655686
v -0.295559 0.475 0.123718 0.718431 0.662353 0.655686
v -0.326351 0.475 0.31782 0.718431 0.662353 0.655686
v -0.183494 0.475 0.31782 0.718431 0.662353 0.655686
v -0.326351 0.475 0.31782 0.718431 0.662353 0.655686
v -0.112065 0.475 0.441538 0.718431 0.662353 0.655686
v -0.183494 0.475 0.31782 0.718431 0.662353 0.655686
v -0.030792 0.475 0.441538 0.718431 0.662353 0.655686
v 0.0406366 0.475 0.31782 0.718431 0.662353 0.655686
v -0.030792 0.475 0.441538 0.718431 0.662353 0.655686
v -0.366987 0.475 0 0.718431 0.662353 0.655686
v -0.295559 0.475 0.123718 0.718431 0.662353 0.655686
v -0.173649 0.475 -0.194102 0.718431 0.662353 0.655686
v -0.245078 0.475 -0.31782 0.718431 0.662353 0.655686
v -0.326351 0.475 -0.31782 0.718431 0.662353 0.655686
v -0.366987 0.475 -0.247436 0.718431 0.662353 0.655686
v -0.295559 0.475 -0.123718 0.718431 0.662353 0.655686
v 0.183494 0.475 -0.0703846 0.718431 0.662353 0.655686
v 0.0406366 0.475 -0.0703846 0.718431 0.662353 0.655686
v 0.183494 0.475 -0.0703846 0.718431 0.662353 0.655686
v -0.030792 0.475 -0.194102 0.718431 0.662353 0.655686
v 0.0406366 0.475 -0.0703846 0.718431 0.662353 0.655686
v 0.382383 1 0.08 0.0705882 0.203922 0.337255
v 0.239526 1 0.08 0.0705882 0.203922 0.337255
v 0.239526 1 0.167436 0.0705882 0.203922 0.337255
v 0.382383 1 0.167436 0.0705882 0.203922 0.337255
v 0.407624 1 0.123718 0.0705882 0.203922 0.337255
v 0.0252405 1 -0.0437179 0.0705882 0.203922 0.337255
v 0.168098 1 -0.0437179 0.0705882 0.203922 0.337255
v -0.046188 1 -0.167436 0.0705882 0.203922 0.337255
v -0.189045 1 -0.167436 0.0705882 0.203922 0.337255
v -0.336195 1 -0.247436 0.0705882 0.203922 0.337255
v -0.264767 1 -0.123718 0.0705882 0.203922 0.337255
v -0.260474 1 -0.291154 0.0705882 0.203922 0.337255
v -0.310955 1 -0.291154 0.0705882 0.203922 0.337255
v -0.168098 1 0.291154 0.0705882 0.203922 0.337255
v -0.264767 1 0.123718 0.0705882 0.203922 0.337255
v -0.336195 1 0.247436 0.0705882 0.203922 0.337255
v -0.310955 1 0.291154 0.0705882 0.203922 0.337255
v 0.0252405 1 0.291154 0.0705882 0.203922 0.337255
v -0.0966691 1 0.414872 0.0705882 0.203922 0.337255
v -0.046188 1 0.414872 0.0705882 0.203922 0.337255
v 0.168098 1 0.291154 0.0705882 0.203922 0.337255
v -0.336195 1 0 0.0705882 0.203922 0.337255
v 0.0483346 0.775 -0.0837179 0.348235 0.400392 0.473725
v -0.023094 0.775 -0.207436 0.348235 0.400392 0.473725
v 0.0414064 0.73 -0.0717179 0.403765 0.439686 0.50102
v -0.0300222 0.73 -0.195436 0.403765 0.439686 0.50102
v 0.405477 0.775 0.04 0.348235 0.400392 0.473725
v 0.453812 0.775 0.123718 0.348235 0.400392 0.473725
v 0.26262 0.775 0.04 0.348235 0.400392 0.473725
v 0.191192 0.775 -0.0837179 0.348235 0.400392 0.473725
v 0.439956 0.73 0.123718 0.403765 0.439686 0.50102
v 0.398549 0.73 0.052 0.403765 0.439686 0.50102
v 0.184264 0.73 -0.0717179 0.403765 0.439686 0.50102
v 0.0414064 0.73 -0.0717179 0.403765 0.439686 0.50102
v 0.255692 0.73 0.052 0.403765 0.439686 0.50102
v 0.398549 0.73 0.052 0.403765 0.439686 0.50102
v 0.255692 0.73 0.052 0.403765 0.439686 0.50102
v 0.184264 0.73 -0.0717179 0.403765 0.439686 0.50102
v -0.119763 0.775 0.454872 0.348235 0.400392 0.473725
v -0.112835 0.73 0.442872 0.403765 0.439686 0.50102
v -0.0300222 0.73 0.442872 0.403765 0.439686 0.50102
v -0.023094 0.775 0.454872 0.348235 0.400392 0.473725
v 0.26262 0.775 0.207436 0.348235 0.400392 0.473725
v 0.255692 0.73 0.195436 0.403765 0.439686 0.50102
v 0.398549 0.73 0.195436 0.403765 0.439686 0.50102
v 0.405477 0.775 0.207436 0.348235 0.400392 0.473725
v 0.398549 0.73 0.195436 0.403765 0.439686 0.50102
v 0.439956 0.73 0.123718 0.403765 0.439686 0.50102
v 0.191192 0.775 0.331154 0.348235 0.400392 0.473725
v 0.184264 0.73 0.319154 0.403765 0.439686 0.50102
v 0.255692 0.73 0.195436 0.403765 0.439686 0.50102
v -0.191192 0.775 0.331154 0.348235 0.400392 0.473725
v 0.0483346 0.775 0.331154 0.348235 0.400392 0.473725
v 0.0414064 0.73 0.319154 0.403765 0.439686 0.50102
v -0.0300222 0.73 0.442872 0.403765 0.439686 0.50102
v 0.0414064 0.73 0.319154 0.403765 0.439686 0.50102
v 0.184264 0.73 0.319154 0.403765 0.439686 0.50102
v -0.184264 0.73 0.319154 0.403765 0.439686 0.50102
v -0.112835 0.73 0.442872 0.403765 0.439686 0.50102
v -0.334049 0.775 0.331154 0.348235 0.400392 0.473725
v -0.327121 0.73 0.319154 0.403765 0.439686 0.50102
v -0.184264 0.73 0.319154 0.403765 0.439686 0.50102
v -0.310955 0.775 0.123718 0.348235 0.400392 0.473725
v -0.382383 0.775 0 0.348235 0.400392 0.473725
v -0.368527 0.73 0 0.403765 0.439686 0.50102
v -0.297098 0.73 0.123718 0.403765 0.439686 0.50102
v -0.368527 0.73 0.247436 0.403765 0.439686 0.50102
v -0.382383 0.775 0.247436 0.348235 0.400392 0.473725
v -0.327121 0.73 0.319154 0.403765 0.439686 0.50102
v -0.310955 0.775 -0.123718 0.348235 0.400392 0.473725
v -0.297098 0.73 -0.123718 0.403765 0.439686 0.50102
v -0.368527 0.73 0 0.403765 0.439686 0.50102
v -0.172879 0.73 -0.195436 0.403765 0.439686 0.50102
v -0.165951 0.775 -0.207436 0.348235 0.400392 0.473725
v -0.0300222 0.73 -0.195436 0.403765 0.439686 0.50102
v -0.172879 0.73 -0.195436 0.403765 0.439686 0.50102
v -0.244308 0.73 -0.319154 0.403765 0.439686 0.50102
v -0.23738 0.775 -0.331154 0.348235 0.400392 0.473725
v -0.382383 0.775 -0.247436 0.348235 0.400392 0.473725
v -0.368527 0.73 -0.247436 0.403765 0.439686 0.50102
v -0.334049 0.775 -0.331154 0.348235 0.400392 0.473725
v -0.327121 0.73 -0.319154 0.403765 0.439686 0.50102
v -0.327121 0.73 -0.319154 0.403765 0.439686 0.50102
v -0.244308 0.73 -0.319154 0.403765 0.439686 0.50102
v 0.446114 0.475 0.110385 0.718431 0.662353 0.655686
v 0.453812 0.475 0.123718 0.718431 0.662353 0.655686
v 0.413175 0.475 0.194102 0.718431 0.662353 0.655686
v 0.397779 0.475 0.194102 0.718431 0.662353 0.655686
v 0.397779 0.475 0.0533333 0.718431 0.662353 0.655686
v 0.413175 0.475 0.0533333 0.718431 0.662353 0.655686
v 0.438416 0.475 0.123718 0.718431 0.662353 0.655686
v 0.0598816 0.55 -0.103718 0.625882 0.596863 0.610196
v 0.0483346 0.475 -0.0837179 0.718431 0.662353 0.655686
v -0.023094 0.475 -0.207436 0.718431 0.662353 0.655686
v -0.011547 0.55 -0.227436 0.625882 0.596863 0.610196
v 0.405477 0.475 0.04 0.718431 0.662353 0.655686
v 0.417024 0.55 0.02 0.625882 0.596863 0.610196
v 0.476906 0.55 0.123718 0.625882 0.596863 0.610196
v 0.0406366 0.475 -0.0703846 0.718431 0.662353 0.655686
v 0.191192 0.475 -0.0837179 0.718431 0.662353 0.655686
v 0.19889 0.475 -0.0703846 0.718431 0.662353 0.655686
v -0.015396 0.475 -0.194102 0.718431 0.662353 0.655686
v -0.030792 0.475 -0.194102 0.718431 0.662353 0.655686
v 0.202739 0.55 -0.103718 0.625882 0.596863 0.610196
v 0.0414064 0.73 -0.0717179 0.403765 0.439686 0.50102
v 0.184264 0.73 -0.0717179 0.403765 0.439686 0.50102
v 0.254922 0.475 0.0533333 0.718431 0.662353 0.655686
v 0.26262 0.475 0.04 0.718431 0.662353 0.655686
v 0.183494 0.475 -0.0703846 0.718431 0.662353 0.655686
v 0.274167 0.55 0.02 0.625882 0.596863 0.610196
v 0.255692 0.73 0.052 0.403765 0.439686 0.50102
v 0.398549 0.73 0.052 0.403765 0.439686 0.50102
v -0.119763 0.475 0.454872 0.718431 0.662353 0.655686
v -0.127461 0.475 0.441538 0.718431 0.662353 0.655686
v -0.015396 0.475 0.441538 0.718431 0.662353 0.655686
v -0.023094 0.475 0.454872 0.718431 0.662353 0.655686
v -0.011547 0.55 0.474872 0.625882 0.596863 0.610196
v -0.13131 0.55 0.474872 0.625882 0.596863 0.610196
v -0.0300222 0.73 0.442872 0.403765 0.439686 0.50102
v -0.112835 0.73 0.442872 0.403765 0.439686 0.50102
v 0.254922 0.475 0.194102 0.718431 0.662353 0.655686
v 0.26262 0.475 0.207436 0.718431 0.662353 0.655686
v 0.191192 0.475 0.331154 0.718431 0.662353 0.655686
v 0.175796 0.475 0.331154 0.718431 0.662353 0.655686
v 0.405477 0.475 0.207436 0.718431 0.662353 0.655686
v 0.417024 0.55 0.227436 0.625882 0.596863 0.610196
v 0.274167 0.55 0.227436 0.625882 0.596863 0.610196
v 0.202739 0.55 0.351154 0.625882 0.596863 0.610196
v 0.439956 0.73 0.123718 0.403765 0.439686 0.50102
v 0.398549 0.73 0.052 0.403765 0.439686 0.50102
v 0.255692 0.73 0.195436 0.403765 0.439686 0.50102
v 0.398549 0.73 0.195436 0.403765 0.439686 0.50102
v 0.398549 0.73 0.195436 0.403765 0.439686 0.50102
v 0.255692 0.73 0.195436 0.403765 0.439686 0.50102
v 0.184264 0.73 0.319154 0.403765 0.439686 0.50102
v 0.0414064 0.73 0.319154 0.403765 0.439686 0.50102
v 0.0598816 0.55 0.351154 0.625882 0.596863 0.610196
v -0.184264 0.73 0.319154 0.403765 0.439686 0.50102
v -0.202739 0.55 0.351154 0.625882 0.596863 0.610196
v -0.112835 0.73 0.442872 0.403765 0.439686 0.50102
v -0.030792 0.475 0.441538 0.718431 0.662353 0.655686
v 0.0329386 0.475 0.331154 0.718431 0.662353 0.655686
v 0.0483346 0.475 0.331154 0.718431 0.662353 0.655686
v 0.0406366 0.475 0.31782 0.718431 0.662353 0.655686
v 0.183494 0.475 0.31782 0.718431 0.662353 0.655686
v -0.112065 0.475 0.441538 0.718431 0.662353 0.655686
v -0.191192 0.475 0.331154 0.718431 0.662353 0.655686
v -0.175796 0.475 0.331154 0.718431 0.662353 0.655686
v -0.334049 0.475 0.331154 0.718431 0.662353 0.655686
v -0.341747 0.475 0.31782 0.718431 0.662353 0.655686
v -0.183494 0.475 0.31782 0.718431 0.662353 0.655686
v -0.345596 0.55 0.351154 0.625882 0.596863 0.610196
v -0.326351 0.475 0.31782 0.718431 0.662353 0.655686
v -0.374685 0.475 0.260769 0.718431 0.662353 0.655686
v -0.366987 0.475 0.247436 0.718431 0.662353 0.655686
v -0.382383 0.475 0.247436 0.718431 0.662353 0.655686
v -0.310955 0.475 0.123718 0.718431 0.662353 0.655686
v -0.303257 0.475 0.137051 0.718431 0.662353 0.655686
v -0.295559 0.475 0.123718 0.718431 0.662353 0.655686
v -0.382383 0.475 0 0.718431 0.662353 0.655686
v -0.374685 0.475 -0.0133333 0.718431 0.662353 0.655686
v -0.334049 0.55 0.123718 0.625882 0.596863 0.610196
v -0.405477 0.55 0 0.625882 0.596863 0.610196
v -0.405477 0.55 0.247436 0.625882 0.596863 0.610196
v -0.327121 0.73 0.319154 0.403765 0.439686 0.50102
v -0.368527 0.73 0.247436 0.403765 0.439686 0.50102
v -0.297098 0.73 0.123718 0.403765 0.439686 0.50102
v -0.368527 0.73 0.247436 0.403765 0.439686 0.50102
v -0.327121 0.73 0.319154 0.403765 0.439686 0.50102
v -0.184264 0.73 0.319154 0.403765 0.439686 0.50102
v -0.297098 0.73 0.123718 0.403765 0.439686 0.50102
v -0.297098 0.73 -0.123718 0.403765 0.439686 0.50102
v -0.334049 0.55 -0.123718 0.625882 0.596863 0.610196
v -0.368527 0.73 0 0.403765 0.439686 0.50102
v -0.310955 0.475 -0.123718 0.718431 0.662353 0.655686
v -0.165951 0.475 -0.207436 0.718431 0.662353 0.655686
v -0.173649 0.475 -0.194102 0.718431 0.662353 0.655686
v -0.252776 0.475 -0.331154 0.718431 0.662353 0.655686
v -0.23738 0.475 -0.331154 0.718431 0.662353 0.655686
v -0.154404 0.55 -0.227436 0.625882 0.596863 0.610196
v -0.225833 0.55 -0.351154 0.625882 0.596863 0.610196
v -0.0300222 0.73 -0.195436 0.403765 0.439686 0.50102
v -0.172879 0.73 -0.195436 0.403765 0.439686 0.50102
v -0.0300222 0.73 -0.195436 0.403765 0.439686 0.50102
v -0.244308 0.73 -0.319154 0.403765 0.439686 0.50102
v -0.295559 0.475 -0.123718 0.718431 0.662353 0.655686
v -0.382383 0.475 -0.247436 0.718431 0.662353 0.655686
v -0.374685 0.475 -0.260769 0.718431 0.662353 0.655686
v -0.366987 0.475 0 0.718431 0.662353 0.655686
v -0.405477 0.55 -0.247436 0.625882 0.596863 0.610196
v -0.297098 0.73 -0.123718 0.403765 0.439686 0.50102
v -0.368527 0.73 -0.247436 0.403765 0.439686 0.50102
v -0.366987 0.475 -0.247436 0.718431 0.662353 0.655686
v -0.334049 0.475 -0.331154 0.718431 0.662353 0.655686
v -0.318653 0.475 -0.331154 0.718431 0.662353 0.655686
v -0.345596 0.55 -0.351154 0.625882 0.596863 0.610196
v -0.327121 0.73 -0.319154 0.403765 0.439686 0.50102
v -0.368527 0.73 -0.247436 0.403765 0.439686 0.50102
v -0.326351 0.475 -0.31782 0.718431 0.662353 0.655686
v -0.245078 0.475 -0.31782 0.718431 0.662353 0.655686
v -0.371346 0.25 -0.306554 0.903529 0.793333 0.746667
v 0.0341318 0.25 0.395754 0.903529 0.793333 0.746667
v -0.196297 0.25 -0.00336052 0.903529 0.793333 0.746667
v 0.26068 0.25 -0.00336052 0.903529 0.793333 0.746667
v -0.146738 0.25 0.0824786 0.903529 0.793333 0.746667
v -0.0971783 0.25 -0.00336052 0.903529 0.793333 0.746667
v 0.0019402 0.25 -0.00336052 0.903529 0.793333 0.746667
v 0.204679 0.25 0.347793 0.903529 0.793333 0.746667
v 0.00838213 0.25 0.351154 0.903529 0.793333 0.746667
v 0.101059 0.25 0.168318 0.903529 0.793333 0.746667
v -0.0971783 0.25 0.168318 0.903529 0.793333 0.746667
v 0.0514994 0.25 0.0824786 0.903529 0.793333 0.746667
v 0.0019402 0.25 0.168318 0.903529 0.793333 0.746667

vt 0 0.5
vt 0.25 1
vt 0.75 1
vt 1 0.5
vt 0.75 0
vt 0.25 0
vt 0 0.757576
vt 0 0
vt 0.166667 0
vt 0.166667 0.757576
vt 0.333333 0
vt 0.333333 0.757576
vt 0.5 0
vt 0.5 0.757576
vt 0.666667 0
vt 0.666667 0.757576
vt 0.833333 0
vt 0.833333 0.757576
vt 1 0
vt 1 0.757576
vt 0.047551 0
vt 0.0454545 0.5
vt 0.087415 0
vt 0.0909091 0.5
vt 0.127279 0
vt 0.136364 0.5
vt 0.17483 0
vt 0.181818 0.5
vt 0.222381 0
vt 0.227273 0.5
vt 0.269932 0
vt 0.272727 0.5
vt 0.317483 0
vt 0.318182 0.5
vt 0.365034 0
vt 0.363636 0.5
vt 0.412585 0
vt 0.409091 0.5
vt 0.452449 0
vt 0.454545 0.5
vt 0.492313 0
vt 0.5 0.5
vt 0.539864 0
vt 0.545455 0.5
vt 0.587415 0
vt 0.590909 0.5
vt 0.634966 0
vt 0.636364 0.5
vt 0.682517 0
vt 0.681818 0.5
vt 0.722381 0
vt 0.727273 0.5
vt 0.769932 0
vt 0.772727 0.5
vt 0.817483 0
vt 0.818182 0.5
vt 0.857347 0
vt 0.863636 0.5
vt 0.904898 0
vt 0.909091 0.5
vt 0.952449 0
vt 0.954545 0.5
vt 1 0
vt 0 0.833333
vt 0.0519429 0.833333
vt 0.0800952 0.833333
vt 0.108248 0.833333
vt 0.16019 0.833333
vt 0.948057 0.833333
vt 0.896114 0.833333
vt 1 0.833333
vt 0.683981 0.833333
vt 0.632038 0.833333
vt 0.712133 0.833333
vt 0.764076 0.833333
vt 0.712133 0.833333
vt 0.816019 0.833333
vt 0.764076 0.833333
vt 0.844171 0.833333
vt 0.896114 0.833333
vt 0.580095 0.833333
vt 0.632038 0.833333
vt 0.367962 0.833333
vt 0.419905 0.833333
vt 0.448057 0.833333
vt 0.47621 0.833333
vt 0.528152 0.833333
vt 0.212133 0.833333
vt 0.264076 0.833333
vt 0.212133 0.833333
vt 0.316019 0.833333
vt 0.264076 0.833333
vt 0.966066 0.474305
vt 0.774007 0.474305
vt 0.774007 0.350463
vt 0.966066 0.350463
vt 1 0.412384
vt 0.485919 0.649537
vt 0.677978 0.649537
vt 0.38989 0.824768
vt 0.197831 0.824768
vt 0 0.938079
vt 0.0960295 0.762847
vt 0.101801 1
vt 0.0339337 1
vt 0.225993 0.175232
vt 0.0960295 0.412384
vt 0 0.237153
vt 0.0339337 0.175232
vt 0.485919 0.175232
vt 0.322022 0
vt 0.38989 0
vt 0.677978 0.175232
vt 0 0.587616
vt 0.259751 1
vt 0.266866 0.5
vt 0.316717 0.5
vt 0.314938 1
vt 0.26484 0.2
vt 0.31621 0.2
vt 0.117316 0.5
vt 0.0941896 1
vt 0.0746883 1
vt 0.083583 0.5
vt 0.167166 0.5
vt 0.149377 1
vt 0.217016 0.5
vt 0.204564 1
vt 0.0810502 0.2
vt 0.11073 0.2
vt 0.21347 0.2
vt 0.26484 0.2
vt 0.1621 0.2
vt 0.11073 0.2
vt 0.1621 0.2
vt 0.21347 0.2
vt 0.816717 0.5
vt 0.81621 0.2
vt 0.84589 0.2
vt 0.850449 0.5
vt 0.834439 1
vt 0.814938 1
vt 0 0.2
vt 0.0513699 0.2
vt 0.0498502 0.5
vt 0.0513699 0.2
vt 0.0810502 0.2
vt 0.95015 0.5
vt 0.94863 0.2
vt 1 0.2
vt 0.055187 1
vt 0 1
vt 1 1
vt 0.944813 1
vt 0.759751 1
vt 0.766866 0.5
vt 0.9003 0.5
vt 0.889626 1
vt 0.89726 0.2
vt 0.84589 0.2
vt 0.89726 0.2
vt 0.94863 0.2
vt 0.76484 0.2
vt 0.81621 0.2
vt 0.717016 0.5
vt 0.71347 0.2
vt 0.76484 0.2
vt 0.704564 1
vt 0.633433 0.5
vt 0.583583 0.5
vt 0.58105 0.2
vt 0.63242 0.2
vt 0.63242 0.2
vt 0.68379 0.2
vt 0.683283 0.5
vt 0.68379 0.2
vt 0.71347 0.2
vt 0.629875 1
vt 0.574688 1
vt 0.685062 1
vt 0.519501 1
vt 0.533733 0.5
vt 0.52968 0.2
vt 0.58105 0.2
vt 0.36758 0.2
vt 0.366567 0.5
vt 0.31621 0.2
vt 0.36758 0.2
vt 0.41895 0.2
vt 0.416417 0.5
vt 0.370125 1
vt 0.425312 1
vt 0.483883 0.5
vt 0.47831 0.2
vt 0.52968 0.2
vt 0.464314 1
vt 0.45015 0.5
vt 0.444813 1
vt 0.44863 0.2
vt 0.47831 0.2
vt 0.44863 0.2
vt 0.41895 0.2
vt 0.990794 0.438265
vt 1 0.421302
vt 0.951403 0.331757
vt 0.932991 0.331757
vt 0.932991 0.510846
vt 0.951403 0.510846
vt 0.981588 0.421302
vt 0.269932 0.5
vt 0.266866 0
vt 0.316717 0
vt 0.317483 0.5
vt 0.117316 0
vt 0.127279 0.5
vt 0.087415 0.5
vt 0.083583 0
vt 0.505887 0.668243
vt 0.515092 0.685206
vt 0.685934 0.685206
vt 0.69514 0.668243
vt 0.438878 0.82564
vt 0.420466 0.82564
vt 0.222381 0.5
vt 0.217016 0
vt 0.264778 0.9
vt 0.213361 0.9
vt 0.762149 0.510846
vt 0.771355 0.527809
vt 0.942197 0.527809
vt 0.676728 0.668243
vt 0.167166 0
vt 0.17483 0.5
vt 0.161945 0.9
vt 0.110528 0.9
vt 0.213361 0.9
vt 0.161945 0.9
vt 0.314066 0
vt 0.30486 0.016963
vt 0.438878 0.016963
vt 0.429672 0
vt 0.816717 0
vt 0.850449 0
vt 0.857347 0.5
vt 0.817483 0.5
vt 0.84575 0.9
vt 0.816194 0.9
vt 0.762149 0.331757
vt 0.771355 0.314794
vt 0.685934 0.157397
vt 0.667522 0.157397
vt 0.942197 0.314794
vt 0.0498502 0
vt 0.047551 0.5
vt 0.95015 0
vt 1 0.5
vt 0.952449 0.5
vt 0.0809723 0.9
vt 0.110528 0.9
vt 0 0.9
vt 0.0514166 0.9
vt 0.0809723 0.9
vt 0.0514166 0.9
vt 1 0.9
vt 0.948583 0.9
vt 0.897167 0.9
vt 0.904898 0.5
vt 0.948583 0.9
vt 0.897167 0.9
vt 0.84575 0.9
vt 0.764778 0.9
vt 0.769932 0.5
vt 0.420466 0.016963
vt 0.496681 0.157397
vt 0.515092 0.157397
vt 0.505887 0.17436
vt 0.676728 0.17436
vt 0.496681 0.157397
vt 0.9003 0
vt 0.323272 0.016963
vt 0.228645 0.157397
vt 0.247057 0.157397
vt 0.766866 0
vt 0.057803 0.157397
vt 0.048597 0.17436
vt 0.237851 0.17436
vt 0.247057 0.157397
vt 0.722381 0.5
vt 0.717016 0
vt 0.0670089 0.17436
vt 0.00920599 0.246942
vt 0.018412 0.263905
vt 0 0.263905
vt 0.0854209 0.421302
vt 0.0946269 0.404339
vt 0.103833 0.421302
vt 0.0946269 0.404339
vt 0 0.578698
vt 0.00920599 0.595661
vt 0.583583 0
vt 0.633433 0
vt 0.634966 0.5
vt 0.587415 0.5
vt 0.683283 0
vt 0.682517 0.5
vt 0.713361 0.9
vt 0.683806 0.9
vt 0.632389 0.9
vt 0.683806 0.9
vt 0.713361 0.9
vt 0.764778 0.9
vt 0.632389 0.9
vt 0.580972 0.9
vt 0.529556 0.9
vt 0.539864 0.5
vt 0.580972 0.9
vt 0.533733 0
vt 0.25883 0.842603
vt 0.249624 0.82564
vt 0.154997 1
vt 0.173409 1
vt 0.429672 0.842603
vt 0.366567 0
vt 0.365034 0.5
vt 0.416417 0
vt 0.412585 0.5
vt 0.316194 0.9
vt 0.367611 0.9
vt 0.316194 0.9
vt 0.419028 0.9
vt 0.103833 0.736095
vt 0.0854209 0.736095
vt 0 0.893492
vt 0.00920599 0.910455
vt 0.018412 0.578698
vt 0.492313 0.5
vt 0.483883 0
vt 0.478139 0.9
vt 0.018412 0.893492
vt 0.057803 1
vt 0.0762149 1
vt 0.452449 0.5
vt 0.45015 0
vt 0.448583 0.9
vt 0.478139 0.9
vt 0.0670089 0.983037
vt 0.164203 0.983037
vt 0.0809496 0.425113
vt 0.229763 0.149775
vt 0.0678634 0.149775
vt 0 0.275338
vt 0.310712 0
vt 0 0.574887
vt 0.0809496 0.724662
vt 0 0.874437
vt 0.0386814 0.946007
vt 0.446439 0
vt 0.498207 0.0957817
vt 0.237063 0.578956
vt 0.527389 0.70045
vt 0.689288 0.70045
vt 0.754952 0.578956
vt 0.28454 0.850225
vt 0.0678634 1
vt 0.20359 1
vt 0.446439 0.850225
vt 0.293228 0.475038
vt 0.349394 0.578956
vt 0.932137 0.29955
vt 0.770237 0.29955
vt 0.770237 0.550675
vt 0.932137 0.550675
vt 1 0.425113
vt 0.461724 0.578956
vt 0.691487 0.153843
vt 0.469025 0.149775
vt 0.527389 0.149775
vt 0.574054 0.371119
vt 0.689288 0.149775
vt 0.469025 0.149775
vt 0.349394 0.371119
vt 0.517889 0.475038
vt 0.461724 0.371119

vn 0 -1 0
vn 0 0 1
vn 0.866025 0 0.5
vn 0.866025 0 0.5
vn 0.866025 0 -0.5
vn 0.866025 0 -0.5
vn 0 0 -1
vn -0.866025 0 -0.5
vn -0.866025 0 -0.5
vn -0.866025 0 0.5
vn -0.866025 0 0.5
vn 0.866025 0 0.5
vn 0.866025 0 0.5
vn 0.866025 0 -0.5
vn 0.866025 0 -0.5
vn 0.866025 0 -0.5
vn 0.866025 0 -0.5
vn 0.866025 0 -0.5
vn 0.866025 0 -0.5
vn 0.866025 0 -0.5
vn -0.866025 0 -0.5
vn -0.866025 0 -0.5
vn -0.866025 0 0.5
vn -0.866025 0 0.5
vn -0.866025 0 -0.5
vn -0.866025 0 -0.5
vn -0.866025 0 0.5
vn -0.866025 0 0.5
vn -0.866025 0 -0.5
vn -0.866025 0 -0.5
vn -0.866025 0 0.5
vn -0.866025 0 0.5
vn -0.866025 0 0.5
vn 0.866025 0 0.5
vn 0.866025 0 0.5
vn 0.866025 0 0.5
vn 0.866025 0 0.5
vn 0.866025 0 -0.5
vn 0.866025 0 0.5
vn -0.866025 0 -0.5
vn -0.866025 0 0.5
vn -0.866025 0 0.5
vn -0.866025 0 -0.5
vn -0.866025 0 0.5
vn -0.866025 0 -0.5
vn 0.866025 0 -0.5
vn 0.866025 0 -0.5
vn 0 1 0
vn 0.866025 0 -0.5
vn 0.866025 0 -0.5
vn 0.866025 0 -0.5
vn 0.866025 0 -0.5
vn 0.866025 0 0.5
vn 0.866025 0 0.5
vn 0.866025 0 0.5
vn 0.866025 0 0.5
vn 0.866025 0 0.5
vn 0.866025 0 0.5
vn -0.866025 0 0.5
vn -0.866025 0 0.5
vn -0.866025 0 0.5
vn -0.866025 0 0.5
vn 0.866025 0 -0.5
vn -0.866025 0 -0.5
vn -0.866025 0 -0.5
vn -0.866025 0 -0.5
vn 0.866025 0 -0.5
vn 0.866025 0 0.5
vn -0.866025 0 0.5
vn -0.866025 0 -0.5

f 1/1/1 2/2/1 3/3/1 4/4/1 5/5/1 6/6/1
f 7/7/2 6/8/2 5/9/2 8/10/2
f 9/10/3 5/9/4 4/11/4 10/12/3
f 11/12/5 4/11/6 3/13/6 12/14/5
f 13/14/7 3/13/7 2/15/7 14/16/7
f 15/16/8 2/15/9 1/17/9 16/18/8
f 17/18/10 1/17/11 6/19/11 18/20/10
f 19/8/2 20/21/2 21/22/2 22/1/2
f 20/21/12 23/23/12 24/24/13 21/22/13
f 23/23/14 25/25/14 26/26/15 24/24/15
f 25/25/7 27/27/7 28/28/7 26/26/7
f 27/27/16 29/29/16 30/30/17 28/28/17
f 29/29/7 31/31/7 32/32/7 30/30/7
f 31/31/18 33/33/18 34/34/19 32/32/19
f 33/33/7 35/35/7 36/36/7 34/34/7
f 35/35/16 37/37/16 38/38/20 36/36/20
f 37/37/7 39/39/7 40/40/7 38/38/7
f 39/39/21 41/41/21 42/42/22 40/40/22
f 41/41/23 43/43/23 44/44/24 42/42/24
f 43/43/25 45/45/25 46/46/26 44/44/26
f 45/45/27 47/47/27 48/48/28 46/46/28
f 47/47/29 49/49/29 50/50/30 48/48/30
f 49/49/31 51/51/31 52/52/32 50/50/32
f 51/51/2 53/53/2 54/54/2 52/52/2
f 53/53/33 55/55/33 56/56/33 54/54/33
f 55/55/2 57/57/2 58/58/2 56/56/2
f 57/57/34 59/59/34 60/60/35 58/58/35
f 59/59/2 61/61/2 62/62/2 60/60/2
f 61/61/36 19/63/36 22/4/36 62/62/36
f 63/64/2 22/1/2 21/22/2 64/65/2
f 64/65/37 21/22/13 24/24/13 65/66/37
f 65/66/38 24/24/15 26/26/15 66/67/38
f 66/67/7 26/26/7 28/28/7 67/68/7
f 60/60/2 62/62/2 68/69/2 69/70/2
f 68/69/39 62/62/36 22/4/36 63/71/39
f 48/48/30 50/50/30 70/72/40 71/73/40
f 52/52/32 72/74/41 70/72/42 50/50/32
f 52/52/2 54/54/2 73/75/2 74/76/2
f 54/54/33 56/56/33 75/77/33 76/78/33
f 75/77/2 56/56/2 58/58/2 77/79/2
f 58/58/35 60/60/35 78/80/35 79/79/35
f 80/81/33 46/46/28 48/48/28 81/82/33
f 82/83/17 36/36/20 38/38/20 83/84/17
f 83/84/7 38/38/7 40/40/7 84/85/7
f 84/85/43 40/40/22 42/42/22 85/86/43
f 85/86/44 42/42/24 44/44/24 86/87/44
f 86/87/45 44/44/26 46/46/26 80/81/45
f 30/30/17 87/88/46 67/68/46 28/28/17
f 30/30/7 32/32/7 88/89/7 89/90/7
f 32/32/19 34/34/19 90/91/47 91/92/47
f 90/91/7 34/34/7 36/36/7 82/83/7
f 92/93/48 93/94/48 94/95/48 95/96/48 96/97/48
f 97/98/48 94/95/48 93/94/48 98/99/48
f 97/98/48 99/100/48 100/101/48
f 101/102/48 102/103/48 100/101/48 103/104/48 104/105/48
f 105/106/48 106/107/48 107/108/48 108/109/48
f 109/110/48 105/106/48 110/111/48 111/112/48
f 105/106/48 112/113/48 94/95/48 97/98/48 100/101/48 102/103/48 113/114/48
f 97/115/47 114/116/49 115/117/49 99/118/47
f 114/116/49 116/119/49 117/120/49 115/117/49
f 118/121/50 92/122/51 96/123/51 119/124/50
f 92/122/7 118/121/7 120/125/7 93/126/7
f 120/125/16 121/127/16 98/128/20 93/126/20
f 121/127/7 114/116/7 97/115/7 98/128/7
f 118/121/50 119/124/50 122/129/52 123/130/52
f 121/127/7 124/131/7 125/132/7 114/116/7
f 126/133/7 120/125/7 118/121/7 127/134/7
f 120/125/16 128/135/17 129/136/17 121/127/16
f 130/137/2 131/138/2 132/139/2 133/140/2
f 130/137/2 133/140/2 111/141/2 110/142/2
f 134/1/2 135/143/2 136/144/2 137/145/2
f 137/145/53 138/146/54 139/147/54 119/124/53
f 134/4/55 140/148/55 141/149/56 142/150/56
f 134/1/2 137/145/2 95/151/2 94/152/2
f 95/151/57 137/145/53 119/124/53 96/123/57
f 140/148/55 134/4/55 94/153/35 112/154/35
f 105/155/33 143/156/32 130/137/32 110/142/33
f 144/157/36 109/158/35 111/141/35 133/140/36
f 109/158/2 144/157/2 140/148/2 112/154/2
f 145/159/58 144/157/36 133/140/36 146/160/58
f 144/157/2 147/161/2 148/162/2 140/148/2
f 143/156/32 149/163/59 150/164/59 130/137/32
f 151/165/2 152/166/2 153/167/2 143/156/2
f 151/165/2 143/156/2 105/155/2 108/168/2
f 154/169/28 155/170/28 156/171/33 157/172/33
f 154/169/30 157/173/40 158/174/40 159/175/30
f 159/175/60 158/176/61 160/177/61 151/165/60
f 155/170/28 154/169/28 106/178/27 113/179/27
f 154/169/30 159/175/30 107/180/29 106/178/29
f 107/180/62 159/175/60 151/165/60 108/168/62
f 102/181/25 161/182/26 155/170/26 113/179/25
f 161/182/26 162/183/45 163/184/45 155/170/26
f 164/185/7 165/186/7 115/117/7 166/187/7
f 165/186/63 167/188/17 168/189/17 169/190/63
f 165/186/7 100/191/7 99/118/7 115/117/7
f 103/192/16 100/191/16 165/186/63 169/190/63
f 170/193/24 171/194/44 162/195/44 161/182/24
f 170/193/24 161/182/24 102/181/23 101/196/23
f 172/197/7 104/198/7 103/192/7 169/190/7
f 172/197/64 170/193/64 101/196/65 104/198/65
f 172/197/64 173/199/66 171/200/66 170/193/64
f 174/201/7 172/197/7 169/190/7 175/202/7
f 176/203/1 177/204/1 178/205/1 179/206/1
f 180/207/1 181/208/1 176/203/1 182/209/1
f 183/210/18 184/211/49 185/212/49 186/213/18
f 187/214/50 188/215/14 189/216/14 177/217/50
f 190/218/1 184/219/1 191/220/1 192/221/1
f 193/222/1 184/219/1 190/218/1 194/223/1
f 195/224/7 191/225/7 184/211/7 183/210/7
f 195/224/7 183/210/7 196/226/7 197/227/7
f 198/228/1 199/229/1 187/230/1 181/208/1
f 192/221/1 199/229/1 198/228/1 200/231/1
f 199/232/7 201/233/7 188/215/7 187/214/7
f 201/233/16 199/232/16 191/225/16 195/224/16
f 188/215/7 201/233/7 202/234/7 203/235/7
f 201/233/16 195/224/16 197/236/17 126/237/17
f 204/238/1 205/239/1 206/240/1 207/241/1
f 204/242/2 207/243/2 208/244/2 209/245/2
f 209/245/2 208/244/2 210/246/2 211/247/2
f 212/248/1 213/249/1 214/250/1 215/251/1
f 216/252/1 213/249/1 212/248/1 178/205/1
f 213/8/2 216/253/2 217/254/2 218/1/2
f 217/254/12 216/253/53 177/217/53 189/216/12
f 214/255/55 213/19/55 218/256/36 219/257/36
f 220/258/67 189/216/14 188/215/14 221/259/67
f 222/260/2 218/1/2 217/254/2 223/261/2
f 220/262/68 224/263/68 217/254/12 189/216/12
f 219/257/36 218/256/36 225/264/36 226/265/36
f 227/266/2 228/267/2 219/257/2 148/268/2
f 228/267/34 145/269/34 210/270/34 208/244/34
f 229/271/33 230/272/33 209/245/33 231/247/33
f 206/240/1 232/273/1 233/274/1 234/275/1
f 235/276/1 236/277/1 215/251/1 233/278/1
f 234/279/36 228/267/34 208/244/34 207/243/36
f 228/267/2 234/279/2 214/255/2 219/257/2
f 237/280/1 205/239/1 238/281/1 239/282/1
f 230/272/33 238/283/32 204/242/32 209/245/33
f 240/284/1 241/285/1 242/286/1 239/287/1
f 243/288/2 240/289/2 238/283/2 230/272/2
f 244/290/1 241/285/1 245/291/1 246/292/1
f 247/293/1 248/294/1 249/295/1 245/291/1
f 250/296/1 249/297/1 251/298/1 252/299/1
f 251/300/28 248/301/28 253/302/27 254/303/27
f 248/301/30 247/304/30 255/305/29 253/302/29
f 255/305/31 247/304/60 240/289/60 243/288/31
f 256/306/69 257/307/69 255/305/31 243/288/31
f 258/308/29 253/302/29 255/305/29 259/309/29
f 260/310/2 243/288/2 230/272/2 261/311/2
f 254/303/27 253/302/27 262/312/27 156/313/27
f 263/314/25 264/315/25 254/303/25 265/316/25
f 264/315/25 266/317/26 251/300/26 254/303/25
f 267/318/1 268/319/1 269/320/1 270/321/1
f 193/222/1 268/319/1 267/318/1 185/322/1
f 267/323/7 271/324/7 186/213/7 185/212/7
f 267/323/63 270/325/63 272/326/16 271/324/16
f 273/327/49 196/226/49 183/210/18 186/213/18
f 271/324/7 274/328/7 275/329/7 186/213/7
f 272/326/16 276/330/16 167/328/16 271/324/16
f 277/331/1 266/332/1 278/333/1 279/334/1
f 252/299/1 266/332/1 277/331/1 280/335/1
f 281/336/23 278/337/24 266/317/24 264/315/23
f 281/336/23 264/315/23 282/314/23 283/338/23
f 284/339/1 279/334/1 285/340/1 286/341/1
f 287/342/21 285/343/64 278/337/64 281/336/21
f 287/342/7 288/344/7 276/330/7 272/326/7
f 287/342/21 281/336/21 289/345/70 288/344/70
f 290/346/1 286/341/1 269/320/1 291/347/1
f 285/343/7 287/342/7 272/326/7 270/325/7
f 47/348/1 53/349/1 51/350/1 49/351/1
f 55/352/1 45/353/1 43/354/1
f 43/354/1 41/355/1 292/356/1
f 57/357/1 55/352/1 43/354/1 292/356/1 293/358/1
f 294/359/1 31/360/1 29/361/1 295/362/1
f 35/363/1 292/356/1 39/364/1 37/365/1
f 35/363/1 33/366/1 31/360/1
f 35/363/1 31/360/1 294/359/1 292/356/1
f 296/367/1 294/359/1 297/368/1
f 20/369/1 19/370/1 27/371/1 25/372/1 23/373/1
f 298/374/1 295/362/1 27/371/1 19/370/1 299/375/1
f 300/376/1 59/377/1 293/358/1
f 301/378/1 299/375/1 61/379/1 300/380/1 302/381/1
f 303/382/1 301/378/1 304/383/1