v 0.047619 0 -0.109971 0.396078 0.262745 0.129412
v 0.119048 0 0.0137464 0.396078 0.262745 0.129412
v 0.047619 0 0.137464 0.396078 0.262745 0.129412
v -0.0952381 0 0.137464 0.396078 0.262745 0.129412
v -0.166667 0 0.0137464 0.396078 0.262745 0.129412
v -0.0952381 0 -0.109971 0.396078 0.262745 0.129412
v 0.0257497 0.25 0.0995856 0.60404 0.672727 0.741414
v -0.0733688 0.25 0.0995856 0.60404 0.672727 0.741414
v -0.122928 0.25 0.0137464 0.60404 0.672727 0.741414
v -0.0733688 0.25 -0.0720927 0.60404 0.672727 0.741414
v -0.122928 0.25 0.0137464 0.60404 0.672727 0.741414
v 0.0257497 0.25 -0.0720927 0.60404 0.672727 0.741414
v 0.075309 0.25 0.0137464 0.60404 0.672727 0.741414
v -0.0733688 0.25 -0.0720927 0.60404 0.672727 0.741414
v 0.0257497 0.25 -0.0720927 0.60404 0.672727 0.741414
v 0.075309 0.25 0.0137464 0.60404 0.672727 0.741414
v 0.0257497 0.25 0.0995856 0.60404 0.672727 0.741414
v -0.334049 0.25 -0.123718 0.903529 0.793333 0.746667
v -0.405477 0.25 0 0.903529 0.793333 0.746667
v -0.428571 0.325 0 0.903529 0.793333 0.746667
v -0.357143 0.325 -0.123718 0.903529 0.793333 0.746667
v -0.345596 0.25 0.103718 0.903529 0.793333 0.746667
v -0.357143 0.325 0.123718 0.903529 0.793333 0.746667
v -0.202739 0.25 0.103718 0.903529 0.793333 0.746667
v -0.214286 0.325 0.123718 0.903529 0.793333 0.746667
v -0.119763 0.25 0.247436 0.903529 0.793333 0.746667
v -0.191192 0.25 0.371154 0.903529 0.793333 0.746667
v -0.214286 0.325 0.371154 0.903529 0.793333 0.746667
v -0.142857 0.325 0.247436 0.903529 0.793333 0.746667
v -0.13131 0.25 0.474872 0.903529 0.793333 0.746667
v -0.142857 0.325 0.494872 0.903529 0.793333 0.746667
v -0.011547 0.25 0.474872 0.903529 0.793333 0.746667
v 0 0.325 0.494872 0.903529 0.793333 0.746667
v 0.0598816 0.25 0.351154 0.903529 0.793333 0.746667
v 0.0714286 0.325 0.371154 0.903529 0.793333 0.746667
v 0.202739 0.25 0.351154 0.903529 0.793333 0.746667
v 0.214286 0.325 0.371154 0.903529 0.793333 0.746667
v 0.274167 0.25 0.227436 0.903529 0.793333 0.746667
v 0.285714 0.325 0.247436 0.903529 0.793333 0.746667
v 0.417024 0.25 0.227436 0.903529 0.793333 0.746667
v 0.428571 0.325 0.247436 0.903529 0.793333 0.746667
v 0.476906 0.25 0.123718 0.903529 0.793333 0.746667
v 0.5 0.325 0.123718 0.903529 0.793333 0.746667
v 0.417024 0.25 0.02 0.903529 0.793333 0.746667
v 0.428571 0.325 0 0.903529 0.793333 0.746667
v 0.274167 0.25 0.02 0.903529 0.793333 0.746667
v 0.285714 0.325 0 0.903529 0.793333 0.746667
v 0.202739 0.25 -0.103718 0.903529 0.793333 0.746667
v 0.214286 0.325 -0.123718 0.903529 0.793333 0.746667
v -0.023094 0.25 -0.247436 0.903529 0.793333 0.746667
v 0.0483346 0.25 -0.371154 0.903529 0.793333 0.746667
v 0.0714286 0.325 -0.371154 0.903529 0.793333 0.746667
v 0 0.325 -0.247436 0.903529 0.793333 0.746667
v -0.011547 0.25 -0.474872 0.903529 0.793333 0.746667
v 0 0.325 -0.494872 0.903529 0.793333 0.746667
v -0.13131 0.25 -0.474872 0.903529 0.793333 0.746667
v -0.142857 0.325 -0.494872 0.903529 0.793333 0.746667
v -0.202739 0.25 -0.351154 0.903529 0.793333 0.746667
v -0.214286 0.325 -0.371154 0.903529 0.793333 0.746667
v -0.345596 0.25 -0.351154 0.903529 0.793333 0.746667
v -0.357143 0.325 -0.371154 0.903529 0.793333 0.746667
v -0.405477 0.25 -0.247436 0.903529 0.793333 0.746667
v -0.428571 0.325 -0.247436 0.903529 0.793333 0.746667
v -0.366987 0.475 0 0.718431 0.662353 0.655686
v -0.295559 0.475 -0.123718 0.718431 0.662353 0.655686
v -0.326351 0.475 0.0703846 0.718431 0.662353 0.655686
v -0.366987 0.475 0 0.718431 0.662353 0.655686
v -0.183494 0.475 0.0703846 0.718431 0.662353 0.655686
v -0.326351 0.475 0.0703846 0.718431 0.662353 0.655686
v 0.397779 0.475 0.0533333 0.718431 0.662353 0.655686
v 0.254922 0.475 0.0533333 0.718431 0.662353 0.655686
v 0.183494 0.475 -0.0703846 0.718431 0.662353 0.655686
v 0.254922 0.475 0.0533333 0.718431 0.662353 0.655686
v -0.152702 0.475 0.371154 0.718431 0.662353 0.655686
v -0.0812731 0.475 0.247436 0.718431 0.662353 0.655686
v -0.112065 0.475 0.441538 0.718431 0.662353 0.655686
v -0.152702 0.475 0.371154 0.718431 0.662353 0.655686
v -0.030792 0.475 0.441538 0.718431 0.662353 0.655686
v -0.112065 0.475 0.441538 0.718431 0.662353 0.655686
v -0.030792 0.475 0.441538 0.718431 0.662353 0.655686
v 0.0406366 0.475 0.31782 0.718431 0.662353 0.655686
v 0.183494 0.475 0.31782 0.718431 0.662353 0.655686
v 0.254922 0.475 0.194102 0.718431 0.662353 0.655686
v 0.397779 0.475 0.194102 0.718431 0.662353 0.655686
v 0.254922 0.475 0.194102 0.718431 0.662353 0.655686
v 0.438416 0.475 0.123718 0.718431 0.662353 0.655686
v 0.397779 0.475 0.194102 0.718431 0.662353 0.655686
v 0.438416 0.475 0.123718 0.718431 0.662353 0.655686
v 0.397779 0.475 0.0533333 0.718431 0.662353 0.655686
v 0.00984454 0.475 -0.371154 0.718431 0.662353 0.655686
v -0.061584 0.475 -0.247436 0.718431 0.662353 0.655686
v -0.030792 0.475 -0.441538 0.718431 0.662353 0.655686
v -0.112065 0.475 -0.441538 0.718431 0.662353 0.655686
v -0.030792 0.475 -0.441538 0.718431 0.662353 0.655686
v -0.183494 0.475 -0.31782 0.718431 0.662353 0.655686
v -0.326351 0.475 -0.31782 0.718431 0.662353 0.655686
v -0.183494 0.475 -0.31782 0.718431 0.662353 0.655686
v -0.326351 0.475 -0.31782 0.718431 0.662353 0.655686
v -0.366987 0.475 -0.247436 0.718431 0.662353 0.655686
v -0.295559 0.475 -0.123718 0.718431 0.662353 0.655686
v -0.168098 1 0.0437179 0.0705882 0.203922 0.337255
v -0.264767 1 -0.123718 0.0705882 0.203922 0.337255
v -0.336195 1 0 0.0705882 0.203922 0.337255
v -0.310955 1 0.0437179 0.0705882 0.203922 0.337255
v -0.046188 1 0.414872 0.0705882 0.203922 0.337255
v 0.0252405 1 0.291154 0.0705882 0.203922 0.337255
v -0.0504811 1 0.247436 0.0705882 0.203922 0.337255
v -0.12191 1 0.371154 0.0705882 0.203922 0.337255
v -0.0966691 1 0.414872 0.0705882 0.203922 0.337255
v 0.382383 1 0.08 0.0705882 0.203922 0.337255
v 0.239526 1 0.08 0.0705882 0.203922 0.337255
v 0.239526 1 0.167436 0.0705882 0.203922 0.337255
v 0.382383 1 0.167436 0.0705882 0.203922 0.337255
v 0.407624 1 0.123718 0.0705882 0.203922 0.337255
v -0.0966691 1 -0.414872 0.0705882 0.203922 0.337255
v -0.168098 1 -0.291154 0.0705882 0.203922 0.337255
v -0.092376 1 -0.247436 0.0705882 0.203922 0.337255
v -0.0209475 1 -0.371154 0.0705882 0.203922 0.337255
v -0.046188 1 -0.414872 0.0705882 0.203922 0.337255
v 0.168098 1 -0.0437179 0.0705882 0.203922 0.337255
v 0.0252405 1 -0.0437179 0.0705882 0.203922 0.337255
v 0.168098 1 0.291154 0.0705882 0.203922 0.337255
v -0.336195 1 -0.247436 0.0705882 0.203922 0.337255
v -0.310955 1 -0.291154 0.0705882 0.203922 0.337255
v -0.327121 0.73 0.0717179 0.403765 0.439686 0.50102
v -0.334049 0.775 0.0837179 0.348235 0.400392 0.473725
v -0.382383 0.775 0 0.348235 0.400392 0.473725
v -0.368527 0.73 0 0.403765 0.439686 0.50102
v 0.405477 0.775 0.04 0.348235 0.400392 0.473725
v 0.453812 0.775 0.123718 0.348235 0.400392 0.473725
v 0.26262 0.775 0.04 0.348235 0.400392 0.473725
v 0.439956 0.73 0.123718 0.403765 0.439686 0.50102
v 0.398549 0.73 0.052 0.403765 0.439686 0.50102
v 0.398549 0.73 0.052 0.403765 0.439686 0.50102
v 0.255692 0.73 0.052 0.403765 0.439686 0.50102
v -0.191192 0.775 0.0837179 0.348235 0.400392 0.473725
v -0.184264 0.73 0.0717179 0.403765 0.439686 0.50102
v -0.327121 0.73 0.0717179 0.403765 0.439686 0.50102
v 0.191192 0.775 -0.0837179 0.348235 0.400392 0.473725
v 0.0483346 0.775 -0.0837179 0.348235 0.400392 0.473725
v -0.046188 0.775 -0.247436 0.348235 0.400392 0.473725
v 0.0252405 0.775 -0.371154 0.348235 0.400392 0.473725
v -0.023094 0.775 -0.454872 0.348235 0.400392 0.473725
v 0.255692 0.73 0.052 0.403765 0.439686 0.50102
v 0.184264 0.73 -0.0717179 0.403765 0.439686 0.50102
v 0.0113841 0.73 -0.371154 0.403765 0.439686 0.50102
v -0.0300222 0.73 -0.442872 0.403765 0.439686 0.50102
v 0.0414064 0.73 -0.0717179 0.403765 0.439686 0.50102
v 0.184264 0.73 -0.0717179 0.403765 0.439686 0.50102
v -0.0600444 0.73 -0.247436 0.403765 0.439686 0.50102
v 0.0414064 0.73 -0.0717179 0.403765 0.439686 0.50102
v -0.310955 0.775 -0.123718 0.348235 0.400392 0.473725
v -0.297098 0.73 -0.123718 0.403765 0.439686 0.50102
v -0.368527 0.73 0 0.403765 0.439686 0.50102
v -0.382383 0.775 -0.247436 0.348235 0.400392 0.473725
v -0.368527 0.73 -0.247436 0.403765 0.439686 0.50102
v -0.119763 0.775 -0.454872 0.348235 0.400392 0.473725
v -0.0300222 0.73 -0.442872 0.403765 0.439686 0.50102
v -0.112835 0.73 -0.442872 0.403765 0.439686 0.50102
v -0.334049 0.775 -0.331154 0.348235 0.400392 0.473725
v -0.327121 0.73 -0.319154 0.403765 0.439686 0.50102
v -0.191192 0.775 -0.331154 0.348235 0.400392 0.473725
v -0.184264 0.73 -0.319154 0.403765 0.439686 0.50102
v -0.112835 0.73 -0.442872 0.403765 0.439686 0.50102
v -0.184264 0.73 -0.319154 0.403765 0.439686 0.50102
v -0.327121 0.73 -0.319154 0.403765 0.439686 0.50102
v 0.405477 0.775 0.207436 0.348235 0.400392 0.473725
v 0.398549 0.73 0.195436 0.403765 0.439686 0.50102
v 0.439956 0.73 0.123718 0.403765 0.439686 0.50102
v 0.26262 0.775 0.207436 0.348235 0.400392 0.473725
v 0.255692 0.73 0.195436 0.403765 0.439686 0.50102
v 0.0483346 0.775 0.331154 0.348235 0.400392 0.473725
v 0.0414064 0.73 0.319154 0.403765 0.439686 0.50102
v 0.184264 0.73 0.319154 0.403765 0.439686 0.50102
v 0.191192 0.775 0.331154 0.348235 0.400392 0.473725
v 0.255692 0.73 0.195436 0.403765 0.439686 0.50102
v -0.023094 0.775 0.454872 0.348235 0.400392 0.473725
v -0.0300222 0.73 0.442872 0.403765 0.439686 0.50102
v -0.0966691 0.775 0.247436 0.348235 0.400392 0.473725
v -0.168098 0.775 0.371154 0.348235 0.400392 0.473725
v -0.119763 0.775 0.454872 0.348235 0.400392 0.473725
v -0.112835 0.73 0.442872 0.403765 0.439686 0.50102
v -0.0300222 0.73 0.442872 0.403765 0.439686 0.50102
v -0.154241 0.73 0.371154 0.403765 0.439686 0.50102
v -0.112835 0.73 0.442872 0.403765 0.439686 0.50102
v -0.0828127 0.73 0.247436 0.403765 0.439686 0.50102
v -0.184264 0.73 0.0717179 0.403765 0.439686 0.50102
v -0.0828127 0.73 0.247436 0.403765 0.439686 0.50102
v -0.154241 0.73 0.371154 0.403765 0.439686 0.50102
v -0.374685 0.475 0.0133333 0.718431 0.662353 0.655686
v -0.366987 0.475 0 0.718431 0.662353 0.655686
v -0.318653 0.475 0.0837179 0.718431 0.662353 0.655686
v -0.334049 0.475 0.0837179 0.718431 0.662353 0.655686
v -0.345596 0.55 0.103718 0.625882 0.596863 0.610196
v -0.405477 0.55 0 0.625882 0.596863 0.610196
v -0.382383 0.475 0 0.718431 0.662353 0.655686
v 0.397779 0.475 0.0533333 0.718431 0.662353 0.655686
v 0.413175 0.475 0.0533333 0.718431 0.662353 0.655686
v 0.446114 0.475 0.110385 0.718431 0.662353 0.655686
v 0.438416 0.475 0.123718 0.718431 0.662353 0.655686
v 0.274167 0.55 0.02 0.625882 0.596863 0.610196
v 0.255692 0.73 0.052 0.403765 0.439686 0.50102
v 0.398549 0.73 0.052 0.403765 0.439686 0.50102
v 0.417024 0.55 0.02 0.625882 0.596863 0.610196
v 0.398549 0.73 0.052 0.403765 0.439686 0.50102
v 0.439956 0.73 0.123718 0.403765 0.439686 0.50102
v 0.476906 0.55 0.123718 0.625882 0.596863 0.610196
v 0.26262 0.475 0.04 0.718431 0.662353 0.655686
v 0.254922 0.475 0.0533333 0.718431 0.662353 0.655686
v 0.183494 0.475 -0.0703846 0.718431 0.662353 0.655686
v 0.19889 0.475 -0.0703846 0.718431 0.662353 0.655686
v 0.405477 0.475 0.04 0.718431 0.662353 0.655686
v 0.453812 0.475 0.123718 0.718431 0.662353 0.655686
v -0.202739 0.55 0.103718 0.625882 0.596863 0.610196
v -0.184264 0.73 0.0717179 0.403765 0.439686 0.50102
v -0.327121 0.73 0.0717179 0.403765 0.439686 0.50102
v -0.191192 0.475 0.0837179 0.718431 0.662353 0.655686
v -0.104367 0.475 -0.454872 0.718431 0.662353 0.655686
v -0.023094 0.475 -0.454872 0.718431 0.662353 0.655686
v -0.015396 0.475 -0.441538 0.718431 0.662353 0.655686
v -0.112065 0.475 -0.441538 0.718431 0.662353 0.655686
v -0.030792 0.475 -0.441538 0.718431 0.662353 0.655686
v 0.0175425 0.475 -0.384487 0.718431 0.662353 0.655686
v 0.00984454 0.475 -0.371154 0.718431 0.662353 0.655686
v 0.202739 0.55 -0.103718 0.625882 0.596863 0.610196
v 0.184264 0.73 -0.0717179 0.403765 0.439686 0.50102
v 0.255692 0.73 0.052 0.403765 0.439686 0.50102
v 0.0414064 0.73 -0.0717179 0.403765 0.439686 0.50102
v 0.0598816 0.55 -0.103718 0.625882 0.596863 0.610196
v -0.0600444 0.73 -0.247436 0.403765 0.439686 0.50102
v -0.023094 0.55 -0.247436 0.625882 0.596863 0.610196
v 0.0483346 0.55 -0.371154 0.625882 0.596863 0.610196
v 0.0113841 0.73 -0.371154 0.403765 0.439686 0.50102
v -0.0600444 0.73 -0.247436 0.403765 0.439686 0.50102
v 0.191192 0.475 -0.0837179 0.718431 0.662353 0.655686
v 0.0252405 0.475 -0.371154 0.718431 0.662353 0.655686
v -0.011547 0.55 -0.474872 0.625882 0.596863 0.610196
v -0.046188 0.475 -0.247436 0.718431 0.662353 0.655686
v -0.061584 0.475 -0.247436 0.718431 0.662353 0.655686
v 0.0406366 0.475 -0.0703846 0.718431 0.662353 0.655686
v 0.0483346 0.475 -0.0837179 0.718431 0.662353 0.655686
v -0.303257 0.475 -0.137051 0.718431 0.662353 0.655686
v -0.310955 0.475 -0.123718 0.718431 0.662353 0.655686
v -0.382383 0.475 -0.247436 0.718431 0.662353 0.655686
v -0.374685 0.475 -0.260769 0.718431 0.662353 0.655686
v -0.295559 0.475 -0.123718 0.718431 0.662353 0.655686
v -0.334049 0.55 -0.123718 0.625882 0.596863 0.610196
v -0.405477 0.55 -0.247436 0.625882 0.596863 0.610196
v -0.368527 0.73 0 0.403765 0.439686 0.50102
v -0.297098 0.73 -0.123718 0.403765 0.439686 0.50102
v -0.368527 0.73 -0.247436 0.403765 0.439686 0.50102
v -0.368527 0.73 0 0.403765 0.439686 0.50102
v -0.119763 0.475 -0.454872 0.718431 0.662353 0.655686
v -0.13131 0.55 -0.474872 0.625882 0.596863 0.610196
v -0.334049 0.475 -0.331154 0.718431 0.662353 0.655686
v -0.318653 0.475 -0.331154 0.718431 0.662353 0.655686
v -0.366987 0.475 -0.247436 0.718431 0.662353 0.655686
v -0.345596 0.55 -0.351154 0.625882 0.596863 0.610196
v -0.368527 0.73 -0.247436 0.403765 0.439686 0.50102
v -0.327121 0.73 -0.319154 0.403765 0.439686 0.50102
v -0.112835 0.73 -0.442872 0.403765 0.439686 0.50102
v -0.0300222 0.73 -0.442872 0.403765 0.439686 0.50102
v -0.202739 0.55 -0.351154 0.625882 0.596863 0.610196
v -0.184264 0.73 -0.319154 0.403765 0.439686 0.50102
v -0.184264 0.73 -0.319154 0.403765 0.439686 0.50102
v -0.327121 0.73 -0.319154 0.403765 0.439686 0.50102
v -0.326351 0.475 -0.31782 0.718431 0.662353 0.655686
v -0.191192 0.475 -0.331154 0.718431 0.662353 0.655686
v -0.19889 0.475 -0.31782 0.718431 0.662353 0.655686
v -0.183494 0.475 -0.31782 0.718431 0.662353 0.655686
v 0.405477 0.475 0.207436 0.718431 0.662353 0.655686
v 0.390081 0.475 0.207436 0.718431 0.662353 0.655686
v 0.417024 0.55 0.227436 0.625882 0.596863 0.610196
v 0.398549 0.73 0.195436 0.403765 0.439686 0.50102
v 0.274167 0.55 0.227436 0.625882 0.596863 0.610196
v 0.398549 0.73 0.195436 0.403765 0.439686 0.50102
v 0.255692 0.73 0.195436 0.403765 0.439686 0.50102
v 0.26262 0.475 0.207436 0.718431 0.662353 0.655686
v 0.254922 0.475 0.194102 0.718431 0.662353 0.655686
v 0.397779 0.475 0.194102 0.718431 0.662353 0.655686
v 0.183494 0.475 0.31782 0.718431 0.662353 0.655686
v 0.19889 0.475 0.31782 0.718431 0.662353 0.655686
v 0.0483346 0.475 0.331154 0.718431 0.662353 0.655686
v 0.191192 0.475 0.331154 0.718431 0.662353 0.655686
v 0.202739 0.55 0.351154 0.625882 0.596863 0.610196
v 0.0598816 0.55 0.351154 0.625882 0.596863 0.610196
v 0.184264 0.73 0.319154 0.403765 0.439686 0.50102
v 0.255692 0.73 0.195436 0.403765 0.439686 0.50102
v 0.0406366 0.475 0.31782 0.718431 0.662353 0.655686
v -0.023094 0.475 0.454872 0.718431 0.662353 0.655686
v -0.03849 0.475 0.454872 0.718431 0.662353 0.655686
v -0.011547 0.55 0.474872 0.625882 0.596863 0.610196
v 0.0414064 0.73 0.319154 0.403765 0.439686 0.50102
v 0.184264 0.73 0.319154 0.403765 0.439686 0.50102
v 0.0414064 0.73 0.319154 0.403765 0.439686 0.50102
v -0.0300222 0.73 0.442872 0.403765 0.439686 0.50102
v -0.119763 0.55 0.247436 0.625882 0.596863 0.610196
v -0.0828127 0.73 0.247436 0.403765 0.439686 0.50102
v -0.13131 0.55 0.474872 0.625882 0.596863 0.610196
v -0.112835 0.73 0.442872 0.403765 0.439686 0.50102
v -0.154241 0.73 0.371154 0.403765 0.439686 0.50102
v -0.191192 0.55 0.371154 0.625882 0.596863 0.610196
v -0.154241 0.73 0.371154 0.403765 0.439686 0.50102
v -0.030792 0.475 0.441538 0.718431 0.662353 0.655686
v -0.119763 0.475 0.454872 0.718431 0.662353 0.655686
v -0.127461 0.475 0.441538 0.718431 0.662353 0.655686
v -0.112065 0.475 0.441538 0.718431 0.662353 0.655686
v -0.168098 0.475 0.371154 0.718431 0.662353 0.655686
v -0.1604 0.475 0.35782 0.718431 0.662353 0.655686
v -0.0966691 0.475 0.247436 0.718431 0.662353 0.655686
v -0.0812731 0.475 0.247436 0.718431 0.662353 0.655686
v -0.152702 0.475 0.371154 0.718431 0.662353 0.655686
v -0.183494 0.475 0.0703846 0.718431 0.662353 0.655686
v -0.326351 0.475 0.0703846 0.718431 0.662353 0.655686
v -0.363855 0.25 -0.0720927 0.903529 0.793333 0.746667
v 0.0598816 0.25 -0.103718 0.903529 0.793333 0.746667
v 0.220998 0.25 -0.0720927 0.903529 0.793333 0.746667
v 0.0714286 0.325 -0.123718 0.903529 0.793333 0.746667
v 0.0406366 0.475 -0.0703846 0.718431 0.662353 0.655686
v 0.0406366 0.475 -0.0703846 0.718431 0.662353 0.655686
v 0.124868 0.25 -0.0720927 0.903529 0.793333 0.746667
v -0.161116 0.25 0.423246 0.903529 0.793333 0.746667
v 0.075309 0.25 0.0137464 0.903529 0.793333 0.746667
v 0.0257497 0.25 -0.0720927 0.903529 0.793333 0.746667
v 0.0257497 0.25 0.0995856 0.903529 0.793333 0.746667
v -0.347982 0.25 0.0995856 0.903529 0.793333 0.746667
v -0.183494 0.475 0.0703846 0.718431 0.662353 0.655686
v -0.0812731 0.475 0.247436 0.718431 0.662353 0.655686
v -0.172487 0.25 0.0995856 0.903529 0.793333 0.746667
v -0.0733688 0.25 -0.0720927 0.903529 0.793333 0.746667
v -0.0733688 0.25 0.0995856 0.903529 0.793333 0.746667
v -0.122928 0.25 0.0137464 0.903529 0.793333 0.746667

vt 0.75 1
vt 1 0.5
vt 0.75 0
vt 0.25 0
vt 0 0.5
vt 0.25 1
vt 0.5 0
vt 0.5 0.757576
vt 0.333333 0.757576
vt 0.333333 0
vt 0 0
vt 0.166667 0
vt 0.166667 0.757576
vt 0 0.757576
vt 0.333333 0.757576
vt 0.666667 0
vt 0.833333 0
vt 0.833333 0.757576
vt 0.666667 0.757576
vt 1 0
vt 1 0.757576
vt 0.833333 0.757576
vt 0.666667 0.757576
vt 0.0434215 0
vt 0.0416667 0.5
vt 0.0798236 0
vt 0.0833333 0.5
vt 0.123245 0
vt 0.125 0.5
vt 0.173686 0
vt 0.217108 0
vt 0.208333 0.5
vt 0.166667 0.5
vt 0.25351 0
vt 0.25 0.5
vt 0.289912 0
vt 0.291667 0.5
vt 0.333333 0
vt 0.333333 0.5
vt 0.376755 0
vt 0.375 0.5
vt 0.420176 0
vt 0.416667 0.5
vt 0.463598 0
vt 0.458333 0.5
vt 0.5 0
vt 0.5 0.5
vt 0.536402 0
vt 0.541667 0.5
vt 0.579824 0
vt 0.583333 0.5
vt 0.623245 0
vt 0.625 0.5
vt 0.717108 0
vt 0.760529 0
vt 0.75 0.5
vt 0.708333 0.5
vt 0.796931 0
vt 0.791667 0.5
vt 0.833333 0
vt 0.833333 0.5
vt 0.876755 0
vt 0.875 0.5
vt 0.920176 0
vt 0.916667 0.5
vt 0.956578 0
vt 0.958333 0.5
vt 1 0
vt 0.0470231 0.833333
vt 0 0.833333
vt 0.0726205 0.833333
vt 0.0470231 0.833333
vt 0.119644 0.833333
vt 0.0726205 0.833333
vt 0.525597 0.833333
vt 0.572621 0.833333
vt 0.619644 0.833333
vt 0.572621 0.833333
vt 0.235115 0.833333
vt 0.188092 0.833333
vt 0.260713 0.833333
vt 0.28631 0.833333
vt 0.260713 0.833333
vt 0.333333 0.833333
vt 0.380356 0.833333
vt 0.427379 0.833333
vt 0.380356 0.833333
vt 0.474403 0.833333
vt 0.5 0.833333
vt 0.474403 0.833333
vt 0.5 0.833333
vt 0.782138 0.833333
vt 0.735115 0.833333
vt 0.807736 0.833333
vt 0.833333 0.833333
vt 0.880356 0.833333
vt 0.927379 0.833333
vt 0.880356 0.833333
vt 0.952977 0.833333
vt 1 0.833333
vt 0.225993 0.447312
vt 0.0960295 0.649104
vt 0.0339337 0.447312
vt 0.38989 0
vt 0.485919 0.149104
vt 0.384118 0.201792
vt 0.288088 0.0526885
vt 0.322022 0
vt 0.966066 0.403585
vt 0.774007 0.403585
vt 0.774007 0.298208
vt 0.966066 0.298208
vt 1 0.350896
vt 0.322022 1
vt 0.225993 0.850896
vt 0.327794 0.798208
vt 0.423823 0.947312
vt 0.38989 1
vt 0.677978 0.552688
vt 0.485919 0.552688
vt 0.677978 0.149104
vt 0 0.798208
vt 0.0339337 0.850896
vt 0.0735035 0.2
vt 0.0760053 0.5
vt 0.0453307 0.5
vt 0.0465816 0.2
vt 0.0672641 1
vt 0.0497013 1
vt 0.530675 0.5
vt 0.517563 1
vt 0.5 1
vt 0.5 0.5
vt 0.576005 0.5
vt 0.567264 1
vt 0.5 0.2
vt 0.526922 0.2
vt 0.526922 0.2
vt 0.573504 0.2
vt 0.121336 0.5
vt 0.116965 1
vt 0.120085 0.2
vt 0.0735035 0.2
vt 0.621336 0.5
vt 0.616965 1
vt 0.666667 0.5
vt 0.666667 1
vt 0.726654 0.5
vt 0.748506 1
vt 0.771984 0.5
vt 0.798208 1
vt 0.802659 0.5
vt 0.815771 1
vt 0.573504 0.2
vt 0.620085 0.2
vt 0.779489 0.2
vt 0.806411 0.2
vt 0.666667 0.2
vt 0.620085 0.2
vt 0.732908 0.2
vt 0.666667 0.2
vt 0.779489 0.2
vt 0 0.2
vt 0.0465816 0.2
vt 1 0.5
vt 0.954669 0.5
vt 0.953418 0.2
vt 1 0.2
vt 0 1
vt 1 1
vt 0.950299 1
vt 0.833333 0.5
vt 0.806411 0.2
vt 0.833333 0.2
vt 0.923995 0.5
vt 0.926496 0.2
vt 0.953418 0.2
vt 0.932736 1
vt 0.833333 1
vt 0.878664 0.5
vt 0.883035 1
vt 0.879915 0.2
vt 0.833333 0.2
vt 0.879915 0.2
vt 0.926496 0.2
vt 0.469325 0.5
vt 0.473078 0.2
vt 0.5 0.2
vt 0.482437 1
vt 0.423995 0.5
vt 0.432736 1
vt 0.426496 0.2
vt 0.333333 0.5
vt 0.333333 0.2
vt 0.379915 0.2
vt 0.378664 0.5
vt 0.426496 0.2
vt 0.383035 1
vt 0.333333 1
vt 0.288003 0.5
vt 0.286752 0.2
vt 0.283632 1
vt 0.181323 0.5
vt 0.198805 1
vt 0.226654 0.5
vt 0.248506 1
vt 0.257328 0.5
vt 0.266069 1
vt 0.25983 0.2
vt 0.286752 0.2
vt 0.232908 0.2
vt 0.25983 0.2
vt 0.186326 0.2
vt 0.120085 0.2
vt 0.186326 0.2
vt 0.232908 0.2
vt 0.00920599 0.485344
vt 0.018412 0.5
vt 0.0762149 0.407976
vt 0.057803 0.407976
vt 0.0760053 0
vt 0.0798236 0.5
vt 0.0434215 0.5
vt 0.0453307 0
vt 0.932991 0.441375
vt 0.951403 0.441375
vt 0.990794 0.378664
vt 0.981588 0.364008
vt 0.579824 0.5
vt 0.573433 0.9
vt 0.526817 0.9
vt 0.536402 0.5
vt 0.526817 0.9
vt 0.5 0.9
vt 0.771355 0.456032
vt 0.762149 0.441375
vt 0.676728 0.577368
vt 0.69514 0.577368
vt 0.942197 0.456032
vt 0.530675 0
vt 0.5 0
vt 0.576005 0
vt 0.123245 0.5
vt 0.12005 0.9
vt 0.0734333 0.9
vt 0.121336 0
vt 0.332478 1
vt 0.429672 1
vt 0.438878 0.985344
vt 0.323272 0.985344
vt 0.420466 0.985344
vt 0.478269 0.922632
vt 0.469063 0.907976
vt 0.623245 0.5
vt 0.62005 0.9
vt 0.573433 0.9
vt 0.666667 0.9
vt 0.62005 0.9
vt 0.666667 0.5
vt 0.733083 0.9
vt 0.717108 0.5
vt 0.760529 0.5
vt 0.7797 0.9
vt 0.666667 0.9
vt 0.621336 0
vt 0.771984 0
vt 0.802659 0
vt 0.796931 0.5
vt 0.402054 0.771984
vt 0.383642 0.771984
vt 0.487475 0.907976
vt 0.505887 0.577368
vt 0.515092 0.592024
vt 0.685934 0.592024
vt 0.666667 0
vt 0.726654 0
vt 0.0946269 0.650648
vt 0.0854209 0.635992
vt 0 0.771984
vt 0.00920599 0.78664
vt 0.0946269 0.650648
vt 0.103833 0.635992
vt 0.954669 0
vt 1 0
vt 1 0.5
vt 0.956578 0.5
vt 0.0466167 0.9
vt 0 0.9
vt 0.953383 0.9
vt 1 0.9
vt 0.0466167 0.9
vt 0.0734333 0.9
vt 0.833333 0
vt 0.833333 0.5
vt 0.057803 0.864008
vt 0.0762149 0.864008
vt 0.018412 0.771984
vt 0.920176 0.5
vt 0.923995 0
vt 0.953383 0.9
vt 0.926567 0.9
vt 0.833333 0.9
vt 0.806517 0.9
vt 0.806517 0.9
vt 0.876755 0.5
vt 0.87995 0.9
vt 0.833333 0.9
vt 0.87995 0.9
vt 0.926567 0.9
vt 0.0670089 0.849352
vt 0.228645 0.864008
vt 0.219439 0.849352
vt 0.237851 0.849352
vt 0.219439 0.849352
vt 0.314066 1
vt 0.878664 0
vt 0.942197 0.271984
vt 0.923785 0.271984
vt 1 0.364008
vt 0.463598 0.5
vt 0.469325 0
vt 0.5 0.9
vt 0.473183 0.9
vt 0.420176 0.5
vt 0.473183 0.9
vt 0.426567 0.9
vt 0.771355 0.271984
vt 0.762149 0.28664
vt 0.932991 0.28664
vt 0.676728 0.150648
vt 0.69514 0.150648
vt 0.423995 0
vt 0.333333 0
vt 0.378664 0
vt 0.376755 0.5
vt 0.333333 0.5
vt 0.37995 0.9
vt 0.426567 0.9
vt 0.505887 0.150648
vt 0.515092 0.135992
vt 0.429672 0
vt 0.41126 0
vt 0.685934 0.135992
vt 0.289912 0.5
vt 0.288003 0
vt 0.333333 0.9
vt 0.37995 0.9
vt 0.333333 0.9
vt 0.286717 0.9
vt 0.173686 0.5
vt 0.186467 0.9
vt 0.12005 0.9
vt 0.25351 0.5
vt 0.286717 0.9
vt 0.2599 0.9
vt 0.233083 0.9
vt 0.217108 0.5
vt 0.2599 0.9
vt 0.233083 0.9
vt 0.186467 0.9
vt 0.420466 0.0146561
vt 0.314066 0
vt 0.30486 0.0146561
vt 0.257328 0
vt 0.323272 0.0146561
vt 0.256263 0.0920237
vt 0.265469 0.10668
vt 0.226654 0
vt 0.341684 0.228016
vt 0.360096 0.228016
vt 0.274675 0.0920237
vt 0.237851 0.422632
vt 0.228645 0.407976
vt 0.0670089 0.422632
vt 0.181323 0
vt 0.229763 0.869735
vt 0.0809496 0.630265
vt 0 0.760529
vt 0.0678634 0.869735
vt 0.0471708 0.575908
vt 0.527389 0.609206
vt 0.689288 0.609206
vt 0.70998 0.575908
vt 0.514302 0.890794
vt 0.433353 0.760529
vt 0.310712 1
vt 0.446439 1
vt 0.666667 0
vt 0.666667 0.5
vt 0.666667 0.833333
vt 0.770237 0.260529
vt 0.689288 0.130265
vt 0.527389 0.130265
vt 0.446439 0
vt 0.310712 0
vt 0.601038 0.575908
vt 0.770237 0.478942
vt 0.276933 0.054357
vt 0.932137 0.478942
vt 1 0.369735
vt 0.932137 0.260529
vt 0.544872 0.485526
vt 0.488707 0.575908
vt 0.488707 0.395145
vt 0.229763 0.390794
vt 0.0678634 0.390794
vt 0.0651596 0.395145
vt 0.323798 0.239471
vt 0.242849 0.109206
vt 0.188092 0.833333
vt 0.264046 0.395145
vt 0.376377 0.575908
vt 0.376377 0.395145
vt 0.320212 0.485526

vn 0 -1 0
vn 0 0 1
vn -0.866025 0 -0.5
vn -0.866025 0 -0.5
vn -0.866025 0 0.5
vn -0.866025 0 0.5
vn -0.866025 0 0.5
vn 0.866025 0 -0.5
vn 0.866025 0 -0.5
vn 0 0 -1
vn 0.866025 0 0.5
vn 0.866025 0 0.5
vn 0.866025 0 0.5
vn -0.866025 0 -0.5
vn -0.866025 0 -0.5
vn -0.866025 0 0.5
vn -0.866025 0 0.5
vn -0.866025 0 -0.5
vn -0.866025 0 0.5
vn -0.866025 0 0.5
vn 0.866025 0 0.5
vn 0.866025 0 0.5
vn 0.866025 0 0.5
vn 0.866025 0 0.5
vn 0.866025 0 0.5
vn 0.866025 0 -0.5
vn 0.866025 0 -0.5
vn 0.866025 0 -0.5
vn 0.866025 0 -0.5
vn 0.866025 0 0.5
vn 0.866025 0 -0.5
vn -0.866025 0 -0.5
vn -0.866025 0 -0.5
vn -0.866025 0 -0.5
vn -0.866025 0 0.5
vn -0.866025 0 0.5
vn -0.866025 0 0.5
vn 0.866025 0 -0.5
vn -0.866025 0 -0.5
vn -0.866025 0 0.5
vn -0.866025 0 0.5
vn 0.866025 0 0.5
vn 0.866025 0 0.5
vn 0.866025 0 0.5
vn 0.866025 0 -0.5
vn 0.866025 0 -0.5
vn 0.866025 0 -0.5
vn -0.866025 0 -0.5
vn -0.866025 0 0.5
vn 0 1 0
vn -0.866025 0 0.5
vn -0.866025 0 0.5
vn -0.866025 0 0.5
vn 0.866025 0 -0.5
vn 0.866025 0 -0.5
vn 0.866025 0 -0.5
vn 0.866025 0 -0.5
vn 0.866025 0 -0.5
vn 0.866025 0 -0.5
vn 0.866025 0 -0.5
vn 0.866025 0 -0.5
vn -0.866025 0 -0.5
vn -0.866025 0 -0.5
vn -0.866025 0 -0.5
vn -0.866025 0 -0.5
vn 0.866025 0 0.5
vn 0.866025 0 0.5
vn 0.866025 0 0.5
vn 0.866025 0 0.5
vn 0.866025 0 0.5
vn -0.866025 0 0.5
vn -0.866025 0 0.5
vn -0.866025 0 -0.5
vn -0.866025 0 0.5
vn -0.866025 0 0.5
vn -0.866025 0 0.5
vn -0.866025 0 0.5
vn 0.866025 0 -0.5
vn 0.866025 0 -0.5
vn 0.866025 0 -0.5
vn 0.866025 0 -0.5
vn -0.866025 0 0.5
vn -0.866025 0 0.5
vn -0.866025 0 -0.5
vn -0.866025 0 -0.5
vn 0.866025 0 -0.5
vn 0.866025 0 0.5
vn -0.866025 0 0.5
vn -0.866025 0 0.5
vn -0.866025 0 0.5
vn -0.866025 0 0.5
vn 0.866025 0 -0.5
vn 0.866025 0 -0.5
vn -0.866025 0 0.5
vn -0.866025 0 0.5

f 1/1/1 2/2/1 3/3/1 4/4/1 5/5/1 6/6/1
f 3/7/2 7/8/2 8/9/2 4/10/2
f 6/11/3 5/12/3 9/13/4 10/14/4
f 5/12/5 4/10/5 8/15/6 11/13/7
f 2/16/8 1/17/8 12/18/9 13/19/9
f 1/17/10 6/20/10 14/21/10 15/22/10
f 2/16/11 16/23/12 17/8/13 3/7/11
f 18/11/14 19/24/14 20/25/15 21/5/15
f 19/24/16 22/26/16 23/27/17 20/25/17
f 22/26/2 24/28/2 25/29/2 23/27/2
f 26/30/18 27/31/18 28/32/18 29/33/18
f 27/31/19 30/34/19 31/35/20 28/32/20
f 30/34/2 32/36/2 33/37/2 31/35/2
f 32/36/21 34/38/21 35/39/22 33/37/22
f 34/38/2 36/40/2 37/41/2 35/39/2
f 36/40/23 38/42/23 39/43/23 37/41/23
f 38/42/2 40/44/2 41/45/2 39/43/2
f 40/44/24 42/46/24 43/47/25 41/45/25
f 42/46/26 44/48/26 45/49/27 43/47/27
f 44/48/10 46/50/10 47/51/10 45/49/10
f 46/50/28 48/52/28 49/53/29 47/51/29
f 50/54/22 51/55/22 52/56/30 53/57/30
f 51/55/26 54/58/26 55/59/31 52/56/31
f 54/58/10 56/60/10 57/61/10 55/59/10
f 56/60/32 58/62/32 59/63/32 57/61/32
f 58/62/10 60/64/10 61/65/10 59/63/10
f 60/64/33 62/66/33 63/67/34 61/65/34
f 62/66/35 18/68/35 21/2/36 63/67/36
f 64/69/32 65/70/32 21/5/15 20/25/15
f 66/71/37 67/72/37 20/25/17 23/27/17
f 25/29/2 68/73/2 69/74/2 23/27/2
f 70/75/10 45/49/10 47/51/10 71/76/10
f 47/51/29 49/53/29 72/77/38 73/78/38
f 74/79/39 75/80/39 29/33/18 28/32/18
f 76/81/40 77/79/41 28/32/20 31/35/20
f 33/37/2 78/82/2 79/83/2 31/35/2
f 80/82/22 33/37/22 35/39/22 81/84/22
f 35/39/2 37/41/2 82/85/2 81/84/2
f 37/41/23 39/43/23 83/86/42 82/87/42
f 41/45/2 84/88/2 85/86/2 39/43/2
f 86/89/43 87/90/44 41/45/25 43/47/25
f 88/91/45 43/47/27 45/49/27 89/75/45
f 53/57/30 52/56/30 90/92/42 91/93/42
f 55/59/31 92/94/46 90/92/47 52/56/31
f 57/61/10 93/95/10 94/94/10 55/59/10
f 57/61/32 59/63/32 95/96/32 93/95/32
f 59/63/10 61/65/10 96/97/10 97/98/10
f 98/97/48 61/65/34 63/67/34 99/99/48
f 63/67/36 21/2/36 100/100/49 99/99/49
f 101/101/50 102/102/50 103/5/50 104/103/50
f 105/104/50 106/105/50 107/106/50 108/107/50 109/108/50
f 110/109/50 111/110/50 112/111/50 113/112/50 114/113/50
f 115/114/50 116/115/50 117/116/50 118/117/50 119/118/50
f 112/111/50 111/110/50 120/119/50 121/120/50 107/106/50 106/105/50 122/121/50
f 123/122/50 107/106/50 121/120/50 117/116/50 116/115/50 124/123/50
f 125/124/51 126/125/52 127/126/52 128/127/51
f 126/125/52 104/128/53 103/129/53 127/126/52
f 129/130/54 110/131/55 114/132/55 130/133/54
f 129/130/10 131/134/10 111/135/10 110/131/10
f 129/130/54 130/133/54 132/136/56 133/137/56
f 129/130/10 134/138/10 135/139/10 131/134/10
f 136/140/2 101/141/2 104/128/2 126/125/2
f 137/142/2 136/140/2 126/125/2 138/143/2
f 139/144/28 120/145/31 111/135/31 131/134/28
f 139/144/10 140/146/10 121/147/10 120/145/10
f 140/146/57 141/148/57 117/149/58 121/147/58
f 141/148/22 142/150/22 118/151/22 117/149/22
f 118/151/59 142/150/60 143/152/60 119/153/59
f 139/144/28 131/134/28 144/154/29 145/155/29
f 142/150/60 146/156/56 147/157/56 143/152/60
f 148/158/10 140/146/10 139/144/10 149/159/10
f 150/160/61 141/148/57 140/146/57 151/161/61
f 141/148/22 150/160/22 146/162/22 142/150/22
f 152/5/15 153/163/32 154/164/32 127/126/15
f 152/165/36 155/166/36 156/167/49 153/168/49
f 102/169/14 152/5/15 127/126/15 103/129/14
f 155/166/36 152/165/36 102/170/35 123/171/35
f 157/172/10 143/152/10 158/173/10 159/174/10
f 160/175/62 161/176/63 156/177/63 155/166/62
f 124/178/64 160/175/62 155/166/62 123/171/64
f 157/172/10 115/179/10 119/153/10 143/152/10
f 162/180/34 116/181/32 115/179/32 157/172/34
f 116/181/10 162/180/10 160/175/10 124/178/10
f 163/182/65 162/180/34 157/172/34 164/183/65
f 162/180/10 165/184/10 166/185/10 160/175/10
f 167/186/66 168/187/67 169/188/67 130/133/66
f 167/186/66 130/133/66 114/132/68 113/189/68
f 170/190/2 167/186/2 113/189/2 112/191/2
f 170/190/2 171/192/2 168/187/2 167/186/2
f 172/193/2 173/194/2 174/195/2 175/196/2
f 175/196/30 174/195/69 176/197/69 170/190/30
f 172/193/2 175/196/2 122/198/2 106/199/2
f 122/198/22 175/196/30 170/190/30 112/191/22
f 177/200/23 178/201/70 173/194/70 172/193/23
f 105/202/22 177/200/23 172/193/23 106/199/22
f 179/203/71 107/204/72 101/141/72 136/140/71
f 179/203/18 180/205/18 108/206/73 107/204/73
f 180/205/74 181/207/74 109/208/75 108/206/75
f 109/208/2 181/207/2 177/200/2 105/202/2
f 181/207/2 182/209/2 183/210/2 177/200/2
f 180/205/74 184/211/76 185/212/76 181/207/74
f 186/213/77 179/203/71 136/140/71 187/214/77
f 179/203/18 188/215/39 189/216/39 180/205/18
f 190/217/1 191/218/1 192/219/1 193/220/1
f 193/221/52 194/222/16 195/223/16 196/224/52
f 197/225/1 198/226/1 199/227/1 200/228/1
f 201/229/10 202/230/10 203/231/10 204/232/10
f 204/232/26 205/233/78 206/234/78 207/47/26
f 208/235/1 209/236/1 210/237/1 211/238/1
f 198/226/1 209/236/1 208/235/1 212/239/1
f 212/240/54 204/232/26 207/47/26 213/241/54
f 212/240/10 208/242/10 201/229/10 204/232/10
f 214/243/2 215/244/2 216/245/2 194/222/2
f 217/246/2 214/243/2 194/222/2 193/221/2
f 218/247/1 219/248/1 220/249/1 221/250/1
f 222/251/1 220/249/1 223/252/1 224/253/1
f 225/254/28 226/255/29 227/256/29 201/229/28
f 228/257/10 226/258/10 225/254/10 229/259/10
f 230/260/22 231/261/22 232/262/22 233/263/22
f 231/261/79 234/260/80 228/264/81 229/259/79
f 235/265/28 225/254/28 201/229/28 208/242/28
f 232/262/26 236/266/60 219/267/60 237/268/26
f 238/269/1 239/270/1 223/252/1 236/271/1
f 240/272/1 241/273/1 235/274/1 211/238/1
f 240/272/1 239/270/1 238/269/1 241/273/1
f 241/275/10 229/259/10 225/254/10 235/265/10
f 241/275/57 238/276/57 231/261/79 229/259/79
f 231/261/22 238/276/22 236/266/22 232/262/22
f 242/277/1 243/278/1 244/279/1 245/280/1
f 242/281/1 246/282/1 190/217/1 196/5/1
f 247/5/14 243/11/15 196/224/15 195/223/14
f 244/283/36 243/284/36 247/285/35 248/286/35
f 249/287/14 250/288/14 247/5/14 195/223/14
f 251/289/35 248/286/35 247/285/35 250/290/35
f 252/291/82 195/223/16 194/222/16 216/292/83
f 253/293/10 254/294/10 237/268/10 219/267/10
f 245/280/1 255/295/1 256/296/1 257/297/1
f 258/298/33 255/299/62 244/283/62 248/286/33
f 258/298/33 248/286/33 259/300/84 260/301/85
f 254/294/10 261/302/10 262/303/10 237/268/10
f 262/304/86 233/263/86 232/262/26 237/268/26
f 263/305/32 264/306/32 261/307/32 254/294/32
f 265/308/10 263/305/10 258/298/10 266/309/10
f 267/310/1 256/296/1 268/311/1 269/312/1
f 270/313/1 269/314/1 253/315/1 218/247/1
f 268/316/34 263/305/32 254/294/32 253/293/34
f 263/305/10 268/316/10 255/299/10 258/298/10
f 271/317/1 272/318/1 199/227/1 213/319/1
f 273/320/24 271/321/66 213/241/66 207/47/24
f 273/320/24 207/47/24 206/322/87 274/323/87
f 275/324/2 273/320/2 276/325/2 277/326/2
f 278/327/1 279/328/1 280/329/1 272/318/1
f 281/330/1 279/328/1 278/327/1 282/331/1
f 275/324/2 278/332/2 271/321/2 273/320/2
f 283/333/2 284/334/2 285/335/2 286/336/2
f 285/335/23 284/334/30 278/332/30 275/324/23
f 287/337/23 285/335/23 275/324/23 288/338/23
f 289/339/1 283/340/1 290/341/1 291/342/1
f 284/343/1 283/340/1 289/339/1 282/331/1
f 292/344/21 290/345/23 283/333/23 286/336/21
f 293/346/2 286/336/2 285/335/2 294/347/2
f 295/348/21 296/349/21 292/344/21 286/336/21
f 297/350/88 298/351/89 215/352/90 214/243/88
f 299/353/2 292/344/2 296/354/2 300/355/2
f 301/356/91 302/357/19 299/353/19 300/358/91
f 302/357/18 303/359/39 298/360/39 297/350/18
f 304/361/1 291/342/1 305/362/1 306/363/1
f 299/353/2 305/364/2 290/345/2 292/344/2
f 307/365/1 306/363/1 308/366/1 309/367/1
f 302/357/19 308/368/74 305/364/74 299/353/19
f 310/369/1 311/370/1 312/371/1 309/367/1
f 313/372/1 217/373/1 192/219/1 314/374/1
f 313/372/1 311/370/1 310/369/1 217/373/1
f 310/375/71 297/350/88 214/243/88 217/246/71
f 297/350/18 310/375/18 308/368/18 302/357/18
f 58/376/1 18/377/1 62/378/1 60/379/1
f 315/380/1 316/381/1 48/382/1 317/383/1
f 51/384/1 50/385/1 315/380/1 56/386/1 54/387/1
f 315/380/1 50/385/1 316/381/1
f 48/52/10 316/388/10 318/389/10 49/53/10
f 316/388/79 50/54/79 53/57/92 318/389/92
f 49/53/10 318/389/10 319/390/10 72/77/10
f 53/57/92 91/93/93 320/390/93 318/389/92
f 38/391/1 36/392/1 34/393/1
f 34/393/1 32/394/1 30/395/1
f 321/396/1 317/383/1 46/397/1 34/393/1 30/395/1 322/398/1
f 38/391/1 44/399/1 42/400/1 40/401/1
f 38/391/1 34/393/1 46/397/1 44/399/1
f 321/396/1 323/402/1 324/403/1
f 325/404/1 24/405/1 22/406/1 326/407/1
f 26/408/1 325/404/1 322/398/1 27/409/1
f 24/405/1 325/404/1 26/408/1
f 24/28/88 26/30/88 29/33/94 25/29/94
f 327/73/95 25/29/94 29/33/94 328/410/95
f 329/411/1 326/407/1 19/5/1 315/380/1 330/412/1
f 331/413/1 329/411/1 332/414/1