v 1 0 -1.73205 1 0.52549 0.439216
v -0.5 0 -0.866025 1 0.52549 0.439216
v 1 0.6 -1.73205 1 0.52549 0.439216
v 1 0 -1.6e-11 1 0.52549 0.439216
v -0.5 0 0.866025 1 0.52549 0.439216
v -0.5 0 -0.866025 1 0.52549 0.439216
v 1 0 -8e-12 1 0.52549 0.439216
v 1 0.6 -1.6e-11 1 0.52549 0.439216
v 1 0.6 -8e-12 1 0.52549 0.439216
v 1 0 8e-12 1 0.52549 0.439216
v 1 0 1.73205 1 0.52549 0.439216
v -0.5 0 0.866025 1 0.52549 0.439216
v 1 0.6 1.73205 1 0.52549 0.439216
v 1 0.6 8e-12 1 0.52549 0.439216

f 1 2 3
f 1 4 2
f 5 6 7
f 4 1 3 8
f 2 8 3
f 9 6 5
f 10 11 12
f 12 13 14
f 11 10 14 13
f 12 11 13