v 1 1 0 0 1 0
v 2.5 1 0.866025 0 1 0
v 2.5 1 0.519615 0 1 0
v 1.3 1 -0.173205 0 1 0
v 2.5 0 0.519615 0 0 1
v 1.3 0 -0.173205 0 0 1
v 1.3 1 -0.173205 0 0 1
v 2.5 1 0.519615 0 0 1
v -2 1 -1.73205 0 1 0
v -0.5 1 -0.866025 0 1 0
v -0.5 1 -1.21244 0 1 0
v -1.7 1 -1.90526 0 1 0
v -0.5 0 -1.21244 0 0 1
v -1.7 0 -1.90526 0 0 1
v -1.7 1 -1.90526 0 0 1
v -0.5 1 -1.21244 0 0 1
v -0.5 1 2.59808 0 1 0
v -2 1 1.73205 0 1 0
v -2 1 2.07846 0 1 0
v -0.8 1 2.77128 0 1 0
v -2 0 2.07846 0 0 1
v -0.8 0 2.77128 0 0 1
v -0.8 1 2.77128 0 0 1
v -2 1 2.07846 0 0 1
v -2.3 1 1.90526 1 0 0
v -2 1 2.07846 1 0 0
v -2 1 1.73205 1 0 0
v -2.3 1 1.90526 0 0 1
v -2.3 0 1.90526 0 0 1
v -0.5 1 2.94449 1 0 0
v -0.2 1 2.77128 1 0 0
v -0.5 1 2.59808 1 0 0
v -0.2 1 2.77128 0 0 1
v -0.5 1 2.94449 0 0 1
v -0.5 0 2.94449 0 0 1
v -0.2 0 2.77128 0 0 1
v 1 1 1.73205 0 1 0
v 1.3 1 1.90526 0 1 0
v 2.5 1 1.21244 0 1 0
v 1.3 0 1.90526 0 0 1
v 2.5 0 1.21244 0 0 1
v 2.5 1 1.21244 0 0 1
v 1.3 1 1.90526 0 0 1
v -0.8 1 2.77128 1 0 0
v -0.2 1 -1.03923 1 0 0
v -0.5 1 -1.21244 1 0 0
v -0.5 1 -0.866025 1 0 0
v -0.2 1 -1.03923 0 0 1
v -0.2 0 -1.03923 0 0 1
v -2 1 -2.07846 1 0 0
v -2.3 1 -1.90526 1 0 0
v -2 1 -1.73205 1 0 0
v -2.3 1 -1.90526 0 0 1
v -2 1 -2.07846 0 0 1
v -2 0 -2.07846 0 0 1
v -2.3 0 -1.90526 0 0 1
v -2.3 1 -0.173205 1 0 0
v -2.3 1 0.173205 1 0 0
v -2 1 0 1 0 0
v -2.3 1 0.173205 0 0 1
v -2.3 1 -0.173205 0 0 1
v -2.3 0 -0.173205 0 0 1
v -2.3 0 0.173205 0 0 1
v -2 1 0 0 1 0
v -2.3 1 0.173205 0 1 0
v -2.3 1 1.55885 0 1 0
v -2.3 0 1.55885 0 0 1
v -2.3 1 1.55885 0 0 1
v 1.3 1 -0.173205 1 0 0
v 1 1 -0.34641 1 0 0
v 1 1 0 1 0 0
v 1 1 -0.34641 0 0 1
v 1 0 -0.34641 0 0 1
v -2.3 1 -1.55885 0 1 0
v -2.3 1 -0.173205 0 1 0
v -2.3 0 -1.55885 0 0 1
v -2.3 1 -1.55885 0 0 1
v -2.3 1 1.55885 1 0 0
v 1 1 -0.34641 0 1 0
v -0.2 1 -1.03923 0 1 0
v 2.8 1 0.69282 1 0 0
v 2.5 1 0.519615 1 0 0
v 2.5 1 0.866025 1 0 0
v 2.8 1 0.69282 0 0 1
v 2.8 0 0.69282 0 0 1
v -1.7 1 -1.90526 1 0 0
v 2.8 1 1.03923 1 0 0
v 2.8 1 1.03923 0 0 1
v 2.8 0 1.03923 0 0 1
v -0.2 1 2.77128 0 1 0
v 1 1 2.07846 0 1 0
v 1 0 2.07846 0 0 1
v 1 1 2.07846 0 0 1
v 2.5 1 1.21244 1 0 0
v -2.3 1 -1.55885 1 0 0
v 1 1 2.07846 1 0 0
v 1.3 1 1.90526 1 0 0
v 1 1 1.73205 1 0 0

vt 0 0.833333
vt 1 0
vt 1 0.333333
vt 0.2 1
vt 1 1
vt 0 1
vt 0 0
vt 0 0.833333
vt 1 0.333333
vt 1 0.166667
vt 0 0.666667
vt 0.8 0
vt 0 0.5
vt 1 0.5
vt 0 0.166667
vt 0.2 0
vt 1 0.666667
vt 0 0.5
vt 1 0.5
vt 0 0.5
vt 1 0.5
vt 0 0.9
vt 0 0.1
vt 0 0.9
vt 1 0.5
vt 1 0.333333
vt 1 0.5
vt 0 0.5
vt 0 0.166667
vt 1 0.666667
vt 1 0.5

f 1/1 2/2 3/3 4/4
f 5/5 6/6 7/7 8/2
f 9/8 10/2 11/9 12/4
f 13/5 14/6 15/7 16/2
f 17/10 18/6 19/11 20/12
f 21/6 22/5 23/2 24/7
f 25/13 26/2 27/5
f 24/2 28/7 29/6 21/5
f 30/7 31/14 32/6
f 33/2 34/7 35/6 36/5
f 2/5 37/15 38/16 39/17
f 40/6 41/5 42/2 43/7
f 44/18 30/2 32/5
f 34/2 23/7 22/6 35/5
f 45/19 46/6 47/7
f 16/7 48/2 49/5 13/6
f 50/5 51/20 52/2
f 53/7 54/2 55/5 56/6
f 57/6 58/7 59/21
f 60/2 61/5 62/6 63/7
f 18/2 64/5 65/22 66/23
f 63/6 67/7 68/2 60/5
f 69/21 70/6 71/7
f 72/7 7/2 6/5 73/6
f 64/2 9/5 74/24 75/23
f 76/6 62/7 61/2 77/5
f 78/6 25/7 27/25
f 28/2 68/5 67/6 29/7
f 10/1 1/2 79/26 80/4
f 73/5 49/6 48/7 72/2
f 81/27 82/6 83/7
f 8/7 84/2 85/5 5/6
f 86/25 50/6 52/7
f 54/7 15/2 14/5 55/6
f 87/2 81/5 83/28
f 84/5 88/2 89/7 85/6
f 37/5 17/29 90/16 91/30
f 36/6 92/5 93/2 33/7
f 94/7 87/27 83/6
f 88/2 42/7 41/6 89/5
f 51/6 95/7 52/31
f 77/2 53/5 56/6 76/7
f 96/7 97/31 98/6
f 43/2 93/7 92/6 40/5