v -0.5 1 -2.94449 1 0 0
v -0.8 1 -2.77128 1 0 0
v -0.5 1 -2.59808 1 0 0
v -0.8 1 -2.77128 0 0 1
v -0.5 1 -2.94449 0 0 1
v -0.5 0 -2.94449 0 0 1
v -0.8 0 -2.77128 0 0 1
v 2.8 1 -0.69282 1 0 0
v 2.8 1 -1.03923 1 0 0
v 2.5 1 -0.866025 1 0 0
v 2.8 1 -1.03923 0 0 1
v 2.8 1 -0.69282 0 0 1
v 2.8 0 -0.69282 0 0 1
v 2.8 0 -1.03923 0 0 1
v 1 1 -1.73205 0 1 0
v 2.5 1 -0.866025 0 1 0
v 2.5 1 -1.21244 0 1 0
v 1.3 1 -1.90526 0 1 0
v 2.5 0 -1.21244 0 0 1
v 1.3 0 -1.90526 0 0 1
v 1.3 1 -1.90526 0 0 1
v 2.5 1 -1.21244 0 0 1
v 2.5 1 -1.21244 1 0 0
v -2.3 1 -1.90526 1 0 0
v -2.3 1 -1.55885 1 0 0
v -2 1 -1.73205 1 0 0
v -2.3 1 -1.55885 0 0 1
v -2.3 1 -1.90526 0 0 1
v -2.3 0 -1.90526 0 0 1
v -2.3 0 -1.55885 0 0 1
v -2 1 -2.07846 1 0 0
v -2 1 -2.07846 0 0 1
v -2 0 -2.07846 0 0 1
v -0.8 1 1.03923 1 0 0
v -0.5 1 1.21244 1 0 0
v -0.5 1 0.866025 1 0 0
v -0.5 1 1.21244 0 0 1
v -0.8 1 1.03923 0 0 1
v -0.8 0 1.03923 0 0 1
v -0.5 0 1.21244 0 0 1
v 1.3 1 -1.90526 1 0 0
v 1 1 -2.07846 1 0 0
v 1 1 -1.73205 1 0 0
v 1 1 -2.07846 0 0 1
v 1 0 -2.07846 0 0 1
v 1 1 2.07846 1 0 0
v 1.3 1 1.90526 1 0 0
v 1 1 1.73205 1 0 0
v 1.3 1 1.90526 0 0 1
v 1 1 2.07846 0 0 1
v 1 0 2.07846 0 0 1
v 1.3 0 1.90526 0 0 1
v 1 1 0 0 1 0
v 1.3 1 0.173205 0 1 0
v 2.5 1 -0.519615 0 1 0
v 1.3 0 0.173205 0 0 1
v 2.5 0 -0.519615 0 0 1
v 2.5 1 -0.519615 0 0 1
v 1.3 1 0.173205 0 0 1
v 2.5 1 -0.519615 1 0 0
v 0.7 1 1.90526 1 0 0
v 0.7 1 1.90526 0 0 1
v 0.7 0 1.90526 0 0 1
v 1 1 1.73205 0 1 0
v 1.3 1 1.55885 0 1 0
v 1.3 0 1.55885 0 0 1
v 1.3 1 1.55885 0 0 1
v 1.3 1 1.55885 1 0 0
v -2.3 1 -0.173205 1 0 0
v -2.3 1 0.173205 1 0 0
v -2 1 0 1 0 0
v -2.3 1 0.173205 0 0 1
v -2.3 1 -0.173205 0 0 1
v -2.3 0 -0.173205 0 0 1
v -2.3 0 0.173205 0 0 1
v -0.2 1 -2.77128 1 0 0
v -0.2 1 -2.77128 0 0 1
v -0.2 0 -2.77128 0 0 1
v -0.5 1 0.866025 0 1 0
v -0.5 1 1.21244 0 1 0
v 0.7 1 1.90526 0 1 0
v -2 1 -1.73205 0 1 0
v -0.5 1 -2.59808 0 1 0
v -0.8 1 -2.77128 0 1 0
v -2 1 -2.07846 0 1 0
v -2 1 0.34641 1 0 0
v -2 1 0.34641 0 0 1
v -2 0 0.34641 0 0 1
v 1 1 -2.07846 0 1 0
v -0.2 1 -2.77128 0 1 0
v -2 1 0 0 1 0
v -2 1 0.34641 0 1 0
v -0.8 1 1.03923 0 1 0
v -2.3 1 -1.55885 0 1 0
v -2.3 1 -0.173205 0 1 0

vt 1 1
vt 0 0.5
vt 1 0
vt 0 0
vt 0 1
vt 0 0.5
vt 0 0.833333
vt 1 0.333333
vt 0.2 1
vt 1 0.5
vt 1 0.5
vt 0 0.5
vt 1 0.5
vt 0 0.166667
vt 0.2 0
vt 1 0.666667
vt 0 0.5
vt 1 0.1
vt 1 0.9
vt 1 0.5
vt 1 0.5
vt 1 0.166667
vt 0 0.666667
vt 0.8 0
vt 1 0.833333
vt 0.8 1
vt 0 0.333333
vt 0 0.5
vt 1 0.333333
vt 0 0.666667
vt 0.8 0
vt 0 0.9
vt 0 0.1

f 1/1 2/2 3/3
f 4/4 5/3 6/1 7/5
f 8/3 9/1 10/6
f 11/1 12/3 13/4 14/5
f 15/7 16/3 17/8 18/9
f 19/1 20/5 21/4 22/3
f 9/10 23/5 10/4
f 22/4 11/3 14/1 19/5
f 24/5 25/4 26/11
f 27/3 28/1 29/5 30/4
f 31/1 24/12 26/3
f 28/4 32/3 33/1 29/5
f 34/6 35/3 36/1
f 37/3 38/4 39/5 40/1
f 41/13 42/5 43/4
f 44/4 21/3 20/1 45/5
f 46/4 47/11 48/5
f 49/3 50/4 51/5 52/1
f 16/1 53/14 54/15 55/16
f 56/5 57/1 58/3 59/4
f 60/4 8/10 10/5
f 12/3 58/4 57/5 13/1
f 61/17 46/3 48/1
f 50/3 62/4 63/5 51/1
f 53/5 64/4 65/18 54/19
f 66/4 56/5 59/1 67/3
f 47/3 68/1 48/12
f 67/1 49/3 52/4 66/5
f 69/5 70/4 71/20
f 72/3 73/1 74/5 75/4
f 76/21 1/5 3/4
f 5/4 77/3 78/1 6/5
f 64/22 79/5 80/23 81/24
f 40/5 63/1 62/3 37/4
f 82/4 83/25 84/26 85/27
f 7/1 33/5 32/4 4/3
f 70/28 86/3 71/1
f 87/3 72/4 75/5 88/1
f 83/7 15/3 89/29 90/9
f 45/1 78/5 77/4 44/3
f 79/22 91/5 92/30 93/31
f 88/5 39/1 38/3 87/4
f 91/3 82/1 94/32 95/33
f 30/5 74/4 73/3 27/1