v -0.047619 0 0 0.396078 0.262745 0.129412
v 0.0238095 0 -0.123718 0.396078 0.262745 0.129412
v 0.166667 0 -0.123718 0.396078 0.262745 0.129412
v 0.238095 0 0 0.396078 0.262745 0.129412
v 0.166667 0 0.123718 0.396078 0.262745 0.129412
v 0.0238095 0 0.123718 0.396078 0.262745 0.129412
v 0.144797 0.25 0.0858391 0.60404 0.672727 0.741414
v 0.194357 0.25 0 0.60404 0.672727 0.741414
v 0.144797 0.25 -0.0858391 0.60404 0.672727 0.741414
v 0.194357 0.25 0 0.60404 0.672727 0.741414
v 0.0456789 0.25 -0.0858391 0.60404 0.672727 0.741414
v 0.144797 0.25 -0.0858391 0.60404 0.672727 0.741414
v -0.00388039 0.25 0 0.60404 0.672727 0.741414
v 0.0456789 0.25 -0.0858391 0.60404 0.672727 0.741414
v 0.144797 0.25 0.0858391 0.60404 0.672727 0.741414
v 0.0456789 0.25 0.0858391 0.60404 0.672727 0.741414
v -0.00388039 0.25 0 0.60404 0.672727 0.741414
v -0.011547 0.25 -0.227436 0.903529 0.793333 0.746667
v -0.154404 0.25 -0.227436 0.903529 0.793333 0.746667
v -0.142857 0.325 -0.247436 0.903529 0.793333 0.746667
v 0 0.325 -0.247436 0.903529 0.793333 0.746667
v -0.225833 0.25 -0.351154 0.903529 0.793333 0.746667
v -0.214286 0.325 -0.371154 0.903529 0.793333 0.746667
v -0.345596 0.25 -0.351154 0.903529 0.793333 0.746667
v -0.357143 0.325 -0.371154 0.903529 0.793333 0.746667
v -0.405477 0.25 -0.247436 0.903529 0.793333 0.746667
v -0.428571 0.325 -0.247436 0.903529 0.793333 0.746667
v -0.334049 0.25 -0.123718 0.903529 0.793333 0.746667
v -0.357143 0.325 -0.123718 0.903529 0.793333 0.746667
v -0.405477 0.25 0 0.903529 0.793333 0.746667
v -0.428571 0.325 0 0.903529 0.793333 0.746667
v -0.345596 0.25 0.103718 0.903529 0.793333 0.746667
v -0.357143 0.325 0.123718 0.903529 0.793333 0.746667
v -0.202739 0.25 0.103718 0.903529 0.793333 0.746667
v -0.214286 0.325 0.123718 0.903529 0.793333 0.746667
v -0.13131 0.25 0.227436 0.903529 0.793333 0.746667
v -0.142857 0.325 0.247436 0.903529 0.793333 0.746667
v 0.011547 0.25 0.227436 0.903529 0.793333 0.746667
v 0 0.325 0.247436 0.903529 0.793333 0.746667
v 0.0829756 0.25 0.351154 0.903529 0.793333 0.746667
v 0.0714286 0.325 0.371154 0.903529 0.793333 0.746667
v 0.202739 0.25 0.351154 0.903529 0.793333 0.746667
v 0.214286 0.325 0.371154 0.903529 0.793333 0.746667
v 0.274167 0.25 0.227436 0.903529 0.793333 0.746667
v 0.285714 0.325 0.247436 0.903529 0.793333 0.746667
v 0.417024 0.25 0.227436 0.903529 0.793333 0.746667
v 0.428571 0.325 0.247436 0.903529 0.793333 0.746667
v 0.488453 0.25 0.103718 0.903529 0.793333 0.746667
v 0.5 0.325 0.123718 0.903529 0.793333 0.746667
v 0.63131 0.25 0.103718 0.903529 0.793333 0.746667
v 0.642857 0.325 0.123718 0.903529 0.793333 0.746667
v 0.691192 0.25 0 0.903529 0.793333 0.746667
v 0.714286 0.325 0 0.903529 0.793333 0.746667
v 0.63131 0.25 -0.103718 0.903529 0.793333 0.746667
v 0.642857 0.325 -0.123718 0.903529 0.793333 0.746667
v 0.488453 0.25 -0.103718 0.903529 0.793333 0.746667
v 0.5 0.325 -0.123718 0.903529 0.793333 0.746667
v 0.417024 0.25 -0.227436 0.903529 0.793333 0.746667
v 0.428571 0.325 -0.247436 0.903529 0.793333 0.746667
v 0.297261 0.25 -0.227436 0.903529 0.793333 0.746667
v 0.285714 0.325 -0.247436 0.903529 0.793333 0.746667
v -0.183494 0.475 0.0703846 0.718431 0.662353 0.655686
v -0.112065 0.475 0.194102 0.718431 0.662353 0.655686
v -0.112065 0.475 0.194102 0.718431 0.662353 0.655686
v 0.030792 0.475 0.194102 0.718431 0.662353 0.655686
v 0.254922 0.475 0.194102 0.718431 0.662353 0.655686
v 0.397779 0.475 0.194102 0.718431 0.662353 0.655686
v 0.397779 0.475 0.194102 0.718431 0.662353 0.655686
v 0.469208 0.475 0.0703846 0.718431 0.662353 0.655686
v -0.326351 0.475 0.0703846 0.718431 0.662353 0.655686
v -0.183494 0.475 0.0703846 0.718431 0.662353 0.655686
v -0.173649 0.475 -0.194102 0.718431 0.662353 0.655686
v -0.030792 0.475 -0.194102 0.718431 0.662353 0.655686
v 0.397779 0.475 -0.194102 0.718431 0.662353 0.655686
v 0.469208 0.475 -0.0703846 0.718431 0.662353 0.655686
v 0.316506 0.475 -0.194102 0.718431 0.662353 0.655686
v 0.102221 0.475 0.31782 0.718431 0.662353 0.655686
v 0.030792 0.475 0.194102 0.718431 0.662353 0.655686
v 0.102221 0.475 0.31782 0.718431 0.662353 0.655686
v 0.183494 0.475 0.31782 0.718431 0.662353 0.655686
v 0.183494 0.475 0.31782 0.718431 0.662353 0.655686
v 0.254922 0.475 0.194102 0.718431 0.662353 0.655686
v 0.612065 0.475 0.0703846 0.718431 0.662353 0.655686
v 0.469208 0.475 0.0703846 0.718431 0.662353 0.655686
v 0.652702 0.475 0 0.718431 0.662353 0.655686
v 0.612065 0.475 -0.0703846 0.718431 0.662353 0.655686
v 0.652702 0.475 0 0.718431 0.662353 0.655686
v -0.245078 0.475 -0.31782 0.718431 0.662353 0.655686
v -0.245078 0.475 -0.31782 0.718431 0.662353 0.655686
v -0.326351 0.475 -0.31782 0.718431 0.662353 0.655686
v -0.326351 0.475 -0.31782 0.718431 0.662353 0.655686
v -0.366987 0.475 -0.247436 0.718431 0.662353 0.655686
v -0.366987 0.475 -0.247436 0.718431 0.662353 0.655686
v -0.295559 0.475 -0.123718 0.718431 0.662353 0.655686
v -0.366987 0.475 0 0.718431 0.662353 0.655686
v -0.295559 0.475 -0.123718 0.718431 0.662353 0.655686
v -0.326351 0.475 0.0703846 0.718431 0.662353 0.655686
v -0.366987 0.475 0 0.718431 0.662353 0.655686
v -0.336195 1 -0.247436 0.0705882 0.203922 0.337255
v -0.264767 1 -0.123718 0.0705882 0.203922 0.337255
v -0.189045 1 -0.167436 0.0705882 0.203922 0.337255
v -0.260474 1 -0.291154 0.0705882 0.203922 0.337255
v -0.310955 1 -0.291154 0.0705882 0.203922 0.337255
v -0.310955 1 0.0437179 0.0705882 0.203922 0.337255
v -0.168098 1 0.0437179 0.0705882 0.203922 0.337255
v -0.336195 1 0 0.0705882 0.203922 0.337255
v 0.239526 1 0.167436 0.0705882 0.203922 0.337255
v 0.046188 1 0.167436 0.0705882 0.203922 0.337255
v 0.117617 1 0.291154 0.0705882 0.203922 0.337255
v 0.168098 1 0.291154 0.0705882 0.203922 0.337255
v 0.596669 1 -0.0437179 0.0705882 0.203922 0.337255
v 0.453812 1 -0.0437179 0.0705882 0.203922 0.337255
v 0.453812 1 0.0437179 0.0705882 0.203922 0.337255
v 0.596669 1 0.0437179 0.0705882 0.203922 0.337255
v 0.62191 1 0 0.0705882 0.203922 0.337255
v 0.331902 1 -0.167436 0.0705882 0.203922 0.337255
v 0.260474 1 -0.0437179 0.0705882 0.203922 0.337255
v 0.382383 1 -0.167436 0.0705882 0.203922 0.337255
v -0.0966691 1 0.167436 0.0705882 0.203922 0.337255
v 0.0252405 1 -0.0437179 0.0705882 0.203922 0.337255
v -0.046188 1 -0.167436 0.0705882 0.203922 0.337255
v 0.382383 1 0.167436 0.0705882 0.203922 0.337255
v -0.310955 0.775 -0.123718 0.348235 0.400392 0.473725
v -0.382383 0.775 0 0.348235 0.400392 0.473725
v -0.297098 0.73 -0.123718 0.403765 0.439686 0.50102
v -0.368527 0.73 0 0.403765 0.439686 0.50102
v 0.0414064 0.73 -0.0717179 0.403765 0.439686 0.50102
v 0.0483346 0.775 -0.0837179 0.348235 0.400392 0.473725
v 0.23738 0.775 -0.0837179 0.348235 0.400392 0.473725
v 0.244308 0.73 -0.0717179 0.403765 0.439686 0.50102
v -0.023094 0.775 -0.207436 0.348235 0.400392 0.473725
v -0.0300222 0.73 -0.195436 0.403765 0.439686 0.50102
v -0.172879 0.73 -0.195436 0.403765 0.439686 0.50102
v -0.165951 0.775 -0.207436 0.348235 0.400392 0.473725
v -0.23738 0.775 -0.331154 0.348235 0.400392 0.473725
v -0.172879 0.73 -0.195436 0.403765 0.439686 0.50102
v -0.244308 0.73 -0.319154 0.403765 0.439686 0.50102
v 0.405477 0.775 -0.207436 0.348235 0.400392 0.473725
v 0.476906 0.775 -0.0837179 0.348235 0.400392 0.473725
v 0.469978 0.73 -0.0717179 0.403765 0.439686 0.50102
v 0.398549 0.73 -0.195436 0.403765 0.439686 0.50102
v 0.398549 0.73 -0.195436 0.403765 0.439686 0.50102
v 0.315736 0.73 -0.195436 0.403765 0.439686 0.50102
v 0.308808 0.775 -0.207436 0.348235 0.400392 0.473725
v 0.315736 0.73 -0.195436 0.403765 0.439686 0.50102
v 0.244308 0.73 -0.0717179 0.403765 0.439686 0.50102
v 0.0414064 0.73 -0.0717179 0.403765 0.439686 0.50102
v -0.0300222 0.73 -0.195436 0.403765 0.439686 0.50102
v -0.334049 0.775 -0.331154 0.348235 0.400392 0.473725
v -0.327121 0.73 -0.319154 0.403765 0.439686 0.50102
v -0.368527 0.73 -0.247436 0.403765 0.439686 0.50102
v -0.382383 0.775 -0.247436 0.348235 0.400392 0.473725
v -0.327121 0.73 -0.319154 0.403765 0.439686 0.50102
v -0.244308 0.73 -0.319154 0.403765 0.439686 0.50102
v -0.368527 0.73 -0.247436 0.403765 0.439686 0.50102
v 0.668098 0.775 0 0.348235 0.400392 0.473725
v 0.654241 0.73 0 0.403765 0.439686 0.50102
v 0.612835 0.73 -0.0717179 0.403765 0.439686 0.50102
v 0.619763 0.775 -0.0837179 0.348235 0.400392 0.473725
v 0.612835 0.73 -0.0717179 0.403765 0.439686 0.50102
v 0.469978 0.73 -0.0717179 0.403765 0.439686 0.50102
v -0.334049 0.775 0.0837179 0.348235 0.400392 0.473725
v -0.368527 0.73 0 0.403765 0.439686 0.50102
v -0.327121 0.73 0.0717179 0.403765 0.439686 0.50102
v -0.327121 0.73 0.0717179 0.403765 0.439686 0.50102
v -0.184264 0.73 0.0717179 0.403765 0.439686 0.50102
v -0.191192 0.775 0.0837179 0.348235 0.400392 0.473725
v -0.119763 0.775 0.207436 0.348235 0.400392 0.473725
v -0.184264 0.73 0.0717179 0.403765 0.439686 0.50102
v -0.112835 0.73 0.195436 0.403765 0.439686 0.50102
v 0.0945226 0.775 0.331154 0.348235 0.400392 0.473725
v 0.101451 0.73 0.319154 0.403765 0.439686 0.50102
v 0.184264 0.73 0.319154 0.403765 0.439686 0.50102
v 0.191192 0.775 0.331154 0.348235 0.400392 0.473725
v 0.023094 0.775 0.207436 0.348235 0.400392 0.473725
v 0.26262 0.775 0.207436 0.348235 0.400392 0.473725
v 0.0300222 0.73 0.195436 0.403765 0.439686 0.50102
v -0.112835 0.73 0.195436 0.403765 0.439686 0.50102
v 0.0300222 0.73 0.195436 0.403765 0.439686 0.50102
v 0.255692 0.73 0.195436 0.403765 0.439686 0.50102
v 0.398549 0.73 0.195436 0.403765 0.439686 0.50102
v 0.405477 0.775 0.207436 0.348235 0.400392 0.473725
v 0.255692 0.73 0.195436 0.403765 0.439686 0.50102
v 0.476906 0.775 0.0837179 0.348235 0.400392 0.473725
v 0.619763 0.775 0.0837179 0.348235 0.400392 0.473725
v 0.469978 0.73 0.0717179 0.403765 0.439686 0.50102
v 0.398549 0.73 0.195436 0.403765 0.439686 0.50102
v 0.469978 0.73 0.0717179 0.403765 0.439686 0.50102
v 0.612835 0.73 0.0717179 0.403765 0.439686 0.50102
v 0.612835 0.73 0.0717179 0.403765 0.439686 0.50102
v 0.654241 0.73 0 0.403765 0.439686 0.50102
v -0.326351 0.475 0.0703846 0.718431 0.662353 0.655686
v -0.341747 0.475 0.0703846 0.718431 0.662353 0.655686
v -0.382383 0.475 0 0.718431 0.662353 0.655686
v -0.374685 0.475 -0.0133333 0.718431 0.662353 0.655686
v -0.334049 0.55 -0.123718 0.625882 0.596863 0.610196
v -0.310955 0.475 -0.123718 0.718431 0.662353 0.655686
v -0.405477 0.55 0 0.625882 0.596863 0.610196
v 0.23738 0.475 -0.0837179 0.718431 0.662353 0.655686
v 0.30111 0.475 -0.194102 0.718431 0.662353 0.655686
v 0.316506 0.475 -0.194102 0.718431 0.662353 0.655686
v 0.252776 0.475 -0.0837179 0.718431 0.662353 0.655686
v 0.0483346 0.475 -0.0837179 0.718431 0.662353 0.655686
v 0.0406366 0.475 -0.0703846 0.718431 0.662353 0.655686
v -0.030792 0.475 -0.194102 0.718431 0.662353 0.655686
v -0.015396 0.475 -0.194102 0.718431 0.662353 0.655686
v 0.245078 0.475 -0.0703846 0.718431 0.662353 0.655686
v 0.0598816 0.55 -0.103718 0.625882 0.596863 0.610196
v 0.225833 0.55 -0.103718 0.625882 0.596863 0.610196
v 0.0414064 0.73 -0.0717179 0.403765 0.439686 0.50102
v 0.244308 0.73 -0.0717179 0.403765 0.439686 0.50102
v 0.397779 0.475 -0.194102 0.718431 0.662353 0.655686
v 0.413175 0.475 -0.194102 0.718431 0.662353 0.655686
v 0.476906 0.475 -0.0837179 0.718431 0.662353 0.655686
v 0.46151 0.475 -0.0837179 0.718431 0.662353 0.655686
v 0.405477 0.475 -0.207436 0.718431 0.662353 0.655686
v 0.308808 0.475 -0.207436 0.718431 0.662353 0.655686
v -0.173649 0.475 -0.194102 0.718431 0.662353 0.655686
v -0.165951 0.475 -0.207436 0.718431 0.662353 0.655686
v -0.023094 0.475 -0.207436 0.718431 0.662353 0.655686
v -0.23738 0.475 -0.331154 0.718431 0.662353 0.655686
v -0.252776 0.475 -0.331154 0.718431 0.662353 0.655686
v -0.154404 0.55 -0.227436 0.625882 0.596863 0.610196
v -0.011547 0.55 -0.227436 0.625882 0.596863 0.610196
v -0.225833 0.55 -0.351154 0.625882 0.596863 0.610196
v 0.417024 0.55 -0.227436 0.625882 0.596863 0.610196
v 0.488453 0.55 -0.103718 0.625882 0.596863 0.610196
v 0.297261 0.55 -0.227436 0.625882 0.596863 0.610196
v -0.172879 0.73 -0.195436 0.403765 0.439686 0.50102
v -0.0300222 0.73 -0.195436 0.403765 0.439686 0.50102
v -0.0300222 0.73 -0.195436 0.403765 0.439686 0.50102
v 0.0414064 0.73 -0.0717179 0.403765 0.439686 0.50102
v 0.315736 0.73 -0.195436 0.403765 0.439686 0.50102
v -0.172879 0.73 -0.195436 0.403765 0.439686 0.50102
v -0.244308 0.73 -0.319154 0.403765 0.439686 0.50102
v 0.398549 0.73 -0.195436 0.403765 0.439686 0.50102
v 0.469978 0.73 -0.0717179 0.403765 0.439686 0.50102
v 0.315736 0.73 -0.195436 0.403765 0.439686 0.50102
v 0.398549 0.73 -0.195436 0.403765 0.439686 0.50102
v -0.374685 0.475 -0.234102 0.718431 0.662353 0.655686
v -0.382383 0.475 -0.247436 0.718431 0.662353 0.655686
v -0.334049 0.475 -0.331154 0.718431 0.662353 0.655686
v -0.318653 0.475 -0.331154 0.718431 0.662353 0.655686
v -0.405477 0.55 -0.247436 0.625882 0.596863 0.610196
v -0.345596 0.55 -0.351154 0.625882 0.596863 0.610196
v -0.327121 0.73 -0.319154 0.403765 0.439686 0.50102
v -0.368527 0.73 -0.247436 0.403765 0.439686 0.50102
v -0.297098 0.73 -0.123718 0.403765 0.439686 0.50102
v -0.368527 0.73 -0.247436 0.403765 0.439686 0.50102
v -0.326351 0.475 -0.31782 0.718431 0.662353 0.655686
v -0.245078 0.475 -0.31782 0.718431 0.662353 0.655686
v -0.295559 0.475 -0.123718 0.718431 0.662353 0.655686
v -0.366987 0.475 -0.247436 0.718431 0.662353 0.655686
v -0.366987 0.475 0 0.718431 0.662353 0.655686
v 0.604367 0.475 -0.0837179 0.718431 0.662353 0.655686
v 0.619763 0.475 -0.0837179 0.718431 0.662353 0.655686
v 0.668098 0.475 0 0.718431 0.662353 0.655686
v 0.6604 0.475 0.0133333 0.718431 0.662353 0.655686
v 0.63131 0.55 -0.103718 0.625882 0.596863 0.610196
v 0.691192 0.55 0 0.625882 0.596863 0.610196
v 0.469978 0.73 -0.0717179 0.403765 0.439686 0.50102
v 0.612835 0.73 -0.0717179 0.403765 0.439686 0.50102
v 0.612065 0.475 -0.0703846 0.718431 0.662353 0.655686
v 0.469208 0.475 -0.0703846 0.718431 0.662353 0.655686
v 0.652702 0.475 0 0.718431 0.662353 0.655686
v 0.627461 0.475 0.0703846 0.718431 0.662353 0.655686
v 0.612065 0.475 0.0703846 0.718431 0.662353 0.655686
v -0.191192 0.475 0.0837179 0.718431 0.662353 0.655686
v -0.183494 0.475 0.0703846 0.718431 0.662353 0.655686
v -0.104367 0.475 0.207436 0.718431 0.662353 0.655686
v -0.119763 0.475 0.207436 0.718431 0.662353 0.655686
v -0.334049 0.475 0.0837179 0.718431 0.662353 0.655686
v -0.345596 0.55 0.103718 0.625882 0.596863 0.610196
v -0.202739 0.55 0.103718 0.625882 0.596863 0.610196
v -0.13131 0.55 0.227436 0.625882 0.596863 0.610196
v -0.327121 0.73 0.0717179 0.403765 0.439686 0.50102
v -0.368527 0.73 0 0.403765 0.439686 0.50102
v -0.297098 0.73 -0.123718 0.403765 0.439686 0.50102
v -0.184264 0.73 0.0717179 0.403765 0.439686 0.50102
v -0.327121 0.73 0.0717179 0.403765 0.439686 0.50102
v -0.112835 0.73 0.195436 0.403765 0.439686 0.50102
v 0.0945226 0.475 0.331154 0.718431 0.662353 0.655686
v 0.0868246 0.475 0.31782 0.718431 0.662353 0.655686
v 0.19889 0.475 0.31782 0.718431 0.662353 0.655686
v 0.191192 0.475 0.331154 0.718431 0.662353 0.655686
v 0.202739 0.55 0.351154 0.625882 0.596863 0.610196
v 0.0829756 0.55 0.351154 0.625882 0.596863 0.610196
v 0.184264 0.73 0.319154 0.403765 0.439686 0.50102
v 0.101451 0.73 0.319154 0.403765 0.439686 0.50102
v 0.011547 0.55 0.227436 0.625882 0.596863 0.610196
v 0.0300222 0.73 0.195436 0.403765 0.439686 0.50102
v -0.112835 0.73 0.195436 0.403765 0.439686 0.50102
v 0.0300222 0.73 0.195436 0.403765 0.439686 0.50102
v 0.274167 0.55 0.227436 0.625882 0.596863 0.610196
v 0.184264 0.73 0.319154 0.403765 0.439686 0.50102
v 0.102221 0.475 0.31782 0.718431 0.662353 0.655686
v 0.023094 0.475 0.207436 0.718431 0.662353 0.655686
v 0.03849 0.475 0.207436 0.718431 0.662353 0.655686
v 0.030792 0.475 0.194102 0.718431 0.662353 0.655686
v -0.112065 0.475 0.194102 0.718431 0.662353 0.655686
v 0.26262 0.475 0.207436 0.718431 0.662353 0.655686
v 0.183494 0.475 0.31782 0.718431 0.662353 0.655686
v 0.247224 0.475 0.207436 0.718431 0.662353 0.655686
v 0.413175 0.475 0.194102 0.718431 0.662353 0.655686
v 0.405477 0.475 0.207436 0.718431 0.662353 0.655686
v 0.254922 0.475 0.194102 0.718431 0.662353 0.655686
v 0.417024 0.55 0.227436 0.625882 0.596863 0.610196
v 0.398549 0.73 0.195436 0.403765 0.439686 0.50102
v 0.255692 0.73 0.195436 0.403765 0.439686 0.50102
v 0.469208 0.475 0.0703846 0.718431 0.662353 0.655686
v 0.476906 0.475 0.0837179 0.718431 0.662353 0.655686
v 0.397779 0.475 0.194102 0.718431 0.662353 0.655686
v 0.619763 0.475 0.0837179 0.718431 0.662353 0.655686
v 0.488453 0.55 0.103718 0.625882 0.596863 0.610196
v 0.63131 0.55 0.103718 0.625882 0.596863 0.610196
v 0.612835 0.73 0.0717179 0.403765 0.439686 0.50102
v 0.469978 0.73 0.0717179 0.403765 0.439686 0.50102
v 0.654241 0.73 0 0.403765 0.439686 0.50102
v 0.654241 0.73 0 0.403765 0.439686 0.50102
v 0.398549 0.73 0.195436 0.403765 0.439686 0.50102
v -0.135191 0.25 -0.227436 0.903529 0.793333 0.746667
v 0.12743 0.25 0.227436 0.903529 0.793333 0.746667
v 0.225833 0.25 -0.103718 0.903529 0.793333 0.746667
v 0.0598816 0.25 -0.103718 0.903529 0.793333 0.746667
v -0.0534396 0.25 -0.0858391 0.903529 0.793333 0.746667
v 0.641632 0.25 -0.0858391 0.903529 0.793333 0.746667
v 0.214286 0.325 -0.123718 0.903529 0.793333 0.746667
v 0.0714286 0.325 -0.123718 0.903529 0.793333 0.746667
v 0.0406366 0.475 -0.0703846 0.718431 0.662353 0.655686
v 0.245078 0.475 -0.0703846 0.718431 0.662353 0.655686
v 0.0456789 0.25 -0.0858391 0.903529 0.793333 0.746667
v -0.00388039 0.25 0 0.903529 0.793333 0.746667
v 0.144797 0.25 -0.0858391 0.903529 0.793333 0.746667
v 0.325667 0.25 0.227436 0.903529 0.793333 0.746667
v 0.243916 0.25 0.0858391 0.903529 0.793333 0.746667
v 0.0456789 0.25 0.0858391 0.903529 0.793333 0.746667
v 0.194357 0.25 0 0.903529 0.793333 0.746667
v 0.144797 0.25 0.0858391 0.903529 0.793333 0.746667

vt 0 0.5
vt 0.25 1
vt 0.75 1
vt 1 0.5
vt 0.75 0
vt 0.25 0
vt 0.166667 0.757576
vt 0.166667 0
vt 0.333333 0
vt 0.333333 0.757576
vt 0.5 0
vt 0.5 0.757576
vt 0.666667 0
vt 0.666667 0.757576
vt 0.833333 0
vt 0.833333 0.757576
vt 0 0
vt 0 0.757576
vt 1 0
vt 1 0.757576
vt 0.833333 0.757576
vt 0.0434215 0
vt 0.0416667 0.5
vt 0.0868431 0
vt 0.0833333 0.5
vt 0.123245 0
vt 0.125 0.5
vt 0.159647 0
vt 0.166667 0.5
vt 0.203069 0
vt 0.208333 0.5
vt 0.24649 0
vt 0.25 0.5
vt 0.282892 0
vt 0.291667 0.5
vt 0.326314 0
vt 0.333333 0.5
vt 0.369735 0
vt 0.375 0.5
vt 0.413157 0
vt 0.416667 0.5
vt 0.456578 0
vt 0.458333 0.5
vt 0.492981 0
vt 0.5 0.5
vt 0.536402 0
vt 0.541667 0.5
vt 0.579824 0
vt 0.583333 0.5
vt 0.623245 0
vt 0.625 0.5
vt 0.666667 0
vt 0.666667 0.5
vt 0.703069 0
vt 0.708333 0.5
vt 0.739471 0
vt 0.75 0.5
vt 0.782892 0
vt 0.791667 0.5
vt 0.826314 0
vt 0.833333 0.5
vt 0.862716 0
vt 0.875 0.5
vt 0.311908 0.833333
vt 0.358931 0.833333
vt 0.405954 0.833333
vt 0.525597 0.833333
vt 0.572621 0.833333
vt 0.619644 0.833333
vt 0.264885 0.833333
vt 0.0470231 0.833333
vt 0 0.833333
vt 0.811908 0.833333
vt 0.764885 0.833333
vt 0.837505 0.833333
vt 0.452977 0.833333
vt 0.478574 0.833333
vt 0.666667 0.833333
vt 0.692264 0.833333
vt 0.666667 0.833333
vt 0.717862 0.833333
vt 0.692264 0.833333
vt 0.717862 0.833333
vt 0.0940462 0.833333
vt 0.119644 0.833333
vt 0.145241 0.833333
vt 0.145241 0.833333
vt 0.192264 0.833333
vt 0.239287 0.833333
vt 0.192264 0.833333
vt 0 0.924923
vt 0.0745519 0.712461
vt 0.153585 0.787539
vt 0.0790327 1
vt 0.0263442 1
vt 0.0263442 0.424923
vt 0.175448 0.424923
vt 0.600896 0.212461
vt 0.399104 0.212461
vt 0.473656 0
vt 0.526344 0
vt 0.973656 0.575077
vt 0.824552 0.575077
vt 0.824552 0.424923
vt 0.973656 0.424923
vt 0.697312 0.787539
vt 0.62276 0.575077
vt 0.75 0.787539
vt 0.25 0.212461
vt 0.37724 0.575077
vt 0.302688 0.787539
vt 0.75 0.212461
vt 0.197341 0.5
vt 0.242672 0.5
vt 0.233931 1
vt 0.184229 1
vt 0.193589 0.2
vt 0.24017 0.2
vt 0.953418 0.2
vt 0.954669 0.5
vt 0.894682 0.5
vt 0.887177 0.2
vt 0.950299 1
vt 0.868459 1
vt 0 0.2
vt 0.0465816 0.2
vt 0.0453307 0.5
vt 0.0906614 0.5
vt 0.0465816 0.2
vt 0.0931632 0.2
vt 0.818677 0.5
vt 0.773346 0.5
vt 0.767092 0.2
vt 0.813674 0.2
vt 0.813674 0.2
vt 0.840596 0.2
vt 0.849352 0.5
vt 0.840596 0.2
vt 0.887177 0.2
vt 1 0.5
vt 0.953418 0.2
vt 1 0.2
vt 0.0497013 1
vt 0 1
vt 0.0994026 1
vt 0.801195 1
vt 0.751494 1
vt 0.818758 1
vt 1 1
vt 0.121336 0.5
vt 0.120085 0.2
vt 0.147007 0.2
vt 0.152011 0.5
vt 0.134528 1
vt 0.116965 1
vt 0.120085 0.2
vt 0.0931632 0.2
vt 0.147007 0.2
vt 0.697341 0.5
vt 0.693589 0.2
vt 0.720511 0.2
vt 0.728016 0.5
vt 0.701792 1
vt 0.684229 1
vt 0.720511 0.2
vt 0.767092 0.2
vt 0.273346 0.5
vt 0.24017 0.2
vt 0.267092 0.2
vt 0.267092 0.2
vt 0.313674 0.2
vt 0.318677 0.5
vt 0.364008 0.5
vt 0.313674 0.2
vt 0.360255 0.2
vt 0.251494 1
vt 0.301195 1
vt 0.350896 1
vt 0.454669 0.5
vt 0.453418 0.2
vt 0.48034 0.2
vt 0.485344 0.5
vt 0.467862 1
vt 0.450299 1
vt 0.409339 0.5
vt 0.400597 1
vt 0.530675 0.5
vt 0.517563 1
vt 0.406837 0.2
vt 0.360255 0.2
vt 0.406837 0.2
vt 0.526922 0.2
vt 0.573504 0.2
vt 0.576005 0.5
vt 0.526922 0.2
vt 0.567264 1
vt 0.621336 0.5
vt 0.616965 1
vt 0.666667 0.5
vt 0.666667 1
vt 0.620085 0.2
vt 0.573504 0.2
vt 0.620085 0.2
vt 0.666667 0.2
vt 0.666667 0.2
vt 0.693589 0.2
vt 0.0533399 0.393728
vt 0.0386838 0.393728
vt 0.00732807 0.520132
vt 0.203069 0.5
vt 0.197341 0
vt 0.242672 0
vt 0.24649 0.5
vt 0.58998 0.626403
vt 0.650648 0.79307
vt 0.665304 0.79307
vt 0.604636 0.626403
vt 0.41002 0.626403
vt 0.402692 0.606272
vt 0.334696 0.79307
vt 0.349352 0.79307
vt 0.597308 0.606272
vt 0.604636 0.626403
vt 0.954669 0
vt 0.956578 0.5
vt 0.906138 0.5
vt 0.894682 0
vt 0.953383 0.9
vt 0.886966 0.9
vt 0.742672 0.79307
vt 0.757328 0.79307
vt 0.817996 0.626403
vt 0.80334 0.626403
vt 0.75 0.813202
vt 0.657976 0.813202
vt 0.198703 0.79307
vt 0.206032 0.813202
vt 0.342024 0.813202
vt 0.138035 1
vt 0.123379 1
vt 0.0453307 0
vt 0.0434215 0.5
vt 0.0906614 0
vt 0.0868431 0.5
vt 0.818677 0
vt 0.826314 0.5
vt 0.782892 0.5
vt 0.773346 0
vt 0.849352 0
vt 0.862716 0.5
vt 1 0
vt 1 0.5
vt 0.0466167 0.9
vt 0 0.9
vt 1 0.9
vt 0.953383 0.9
vt 0.84035 0.9
vt 0.886966 0.9
vt 0.0466167 0.9
vt 0.0932334 0.9
vt 0.813533 0.9
vt 0.766917 0.9
vt 0.84035 0.9
vt 0.813533 0.9
vt 0.00732807 0.853465
vt 0 0.873597
vt 0.0460118 1
vt 0.060668 1
vt 0.121336 0
vt 0.152011 0
vt 0.159647 0.5
vt 0.123245 0.5
vt 0.12005 0.9
vt 0.146867 0.9
vt 0.193483 0.9
vt 0.146867 0.9
vt 0.0533399 0.979868
vt 0.130707 0.979868
vt 0.0826522 0.686798
vt 0.0679961 0.686798
vt 0.0146561 0.873597
vt 0.0146561 0.5
vt 0.939332 0.626403
vt 0.953988 0.626403
vt 0.992672 0.479868
vt 0.697341 0
vt 0.728016 0
vt 0.739471 0.5
vt 0.703069 0.5
vt 0.766917 0.9
vt 0.7203 0.9
vt 0.94666 0.606272
vt 0.810668 0.606272
vt 0.80334 0.626403
vt 0.985344 0.5
vt 0.961316 0.393728
vt 0.94666 0.393728
vt 0.182004 0.373597
vt 0.189332 0.393728
vt 0.264656 0.186798
vt 0.25 0.186798
vt 0.0460118 0.373597
vt 0.273346 0
vt 0.282892 0.5
vt 0.318677 0
vt 0.326314 0.5
vt 0.364008 0
vt 0.369735 0.5
vt 0.266917 0.9
vt 0.2401 0.9
vt 0.2401 0.9
vt 0.193483 0.9
vt 0.313533 0.9
vt 0.266917 0.9
vt 0.36015 0.9
vt 0.313533 0.9
vt 0.453988 0
vt 0.44666 0.0201316
vt 0.55334 0.0201316
vt 0.546012 0
vt 0.454669 0
vt 0.485344 0
vt 0.492981 0.5
vt 0.456578 0.5
vt 0.4802 0.9
vt 0.453383 0.9
vt 0.413157 0.5
vt 0.406767 0.9
vt 0.36015 0.9
vt 0.406767 0.9
vt 0.453383 0.9
vt 0.536402 0.5
vt 0.526817 0.9
vt 0.4802 0.9
vt 0.461316 0.0201316
vt 0.385992 0.186798
vt 0.400648 0.186798
vt 0.39332 0.20693
vt 0.400648 0.186798
vt 0.257328 0.20693
vt 0.409339 0
vt 0.614008 0.186798
vt 0.538684 0.0201316
vt 0.599352 0.186798
vt 0.530675 0
vt 0.757328 0.20693
vt 0.75 0.186798
vt 0.599352 0.186798
vt 0.60668 0.20693
vt 0.576005 0
vt 0.579824 0.5
vt 0.573433 0.9
vt 0.526817 0.9
vt 0.810668 0.393728
vt 0.817996 0.373597
vt 0.742672 0.20693
vt 0.953988 0.373597
vt 0.621336 0
vt 0.623245 0.5
vt 0.666667 0
vt 0.666667 0.5
vt 0.666667 0.9
vt 0.62005 0.9
vt 0.693483 0.9
vt 0.666667 0.9
vt 0.693483 0.9
vt 0.7203 0.9
vt 0.62005 0.9
vt 0.573433 0.9
vt 0.184868 0.352318
vt 0.246462 0.823841
vt 0.485932 0.176159
vt 0.25 0.176159
vt 0.163809 1
vt 0.228942 0.823841
vt 0.0651323 0.676159
vt 0 0.852318
vt 0.0546031 1
vt 0.0546031 0.352318
vt 0.815132 0.647682
vt 0.575661 0.647682
vt 0.640794 0.823841
vt 0.75 0.823841
vt 0.424339 0.647682
vt 0.321006 0.622224
vt 0.359206 0.823841
vt 0.954809 0.622224
vt 0.945397 0.647682
vt 0.906138 0
vt 0.916667 0.5
vt 0.956578 0
vt 0.958333 0.5
vt 1 0
vt 1 0.5
vt 0.952977 0.833333
vt 0.884528 0.833333
vt 1 0.833333
vt 0.411388 0.622224
vt 0.366197 0.5
vt 0.501769 0.622224
vt 0.815132 0.352318
vt 0.75 0.176159
vt 0.666695 0.176159
vt 0.945397 0.352318
vt 0.619735 0.176159
vt 0.554603 0
vt 0.445397 0
vt 0.380265 0.176159
vt 0.592151 0.377776
vt 0.411388 0.377776
vt 0.54696 0.5
vt 0.501769 0.377776

vn 0 -1 0
vn 0.866025 0 0.5
vn 0.866025 0 0.5
vn 0.866025 0 -0.5
vn 0.866025 0 -0.5
vn 0 0 -1
vn -0.866025 0 -0.5
vn -0.866025 0 -0.5
vn 0 0 1
vn -0.866025 0 0.5
vn -0.866025 0 0.5
vn 0.866025 0 -0.5
vn 0.866025 0 -0.5
vn -0.866025 0 -0.5
vn -0.866025 0 -0.5
vn -0.866025 0 0.5
vn -0.866025 0 0.5
vn -0.866025 0 -0.5
vn -0.866025 0 -0.5
vn -0.866025 0 0.5
vn -0.866025 0 0.5
vn -0.866025 0 0.5
vn -0.866025 0 0.5
vn -0.866025 0 0.5
vn -0.866025 0 0.5
vn 0.866025 0 0.5
vn 0.866025 0 0.5
vn 0.866025 0 0.5
vn 0.866025 0 0.5
vn 0.866025 0 0.5
vn 0.866025 0 -0.5
vn 0.866025 0 -0.5
vn 0.866025 0 -0.5
vn 0.866025 0 -0.5
vn -0.866025 0 0.5
vn 0.866025 0 0.5
vn 0.866025 0 -0.5
vn -0.866025 0 0.5
vn 0.866025 0 0.5
vn 0.866025 0 0.5
vn 0.866025 0 0.5
vn 0.866025 0 -0.5
vn 0.866025 0 -0.5
vn 0.866025 0 -0.5
vn -0.866025 0 -0.5
vn -0.866025 0 -0.5
vn -0.866025 0 -0.5
vn -0.866025 0 0.5
vn -0.866025 0 0.5
vn 0 1 0
vn 0.866025 0 -0.5
vn -0.866025 0 -0.5
vn -0.866025 0 -0.5
vn -0.866025 0 -0.5
vn 0.866025 0 -0.5
vn -0.866025 0 -0.5
vn -0.866025 0 -0.5
vn -0.866025 0 -0.5
vn 0.866025 0 -0.5
vn 0.866025 0 -0.5
vn 0.866025 0 -0.5
vn -0.866025 0 0.5
vn -0.866025 0 0.5
vn -0.866025 0 0.5
vn -0.866025 0 0.5
vn 0.866025 0 0.5
vn 0.866025 0 0.5
vn 0.866025 0 0.5
vn 0.866025 0 0.5
vn 0.866025 0 0.5
vn 0.866025 0 0.5
vn 0.866025 0 0.5
vn -0.866025 0 -0.5
vn 0.866025 0 -0.5
vn 0.866025 0 -0.5
vn -0.866025 0 -0.5
vn -0.866025 0 -0.5
vn -0.866025 0 0.5
vn 0.866025 0 0.5
vn 0.866025 0 0.5
vn 0.866025 0 -0.5
vn 0.866025 0 -0.5
vn 0.866025 0 0.5
vn 0.866025 0 0.5
vn -0.866025 0 -0.5
vn 0.866025 0 -0.5

f 1/1/1 2/2/1 3/3/1 4/4/1 5/5/1 6/6/1
f 7/7/2 5/8/3 4/9/3 8/10/2
f 3/11/4 9/12/5 10/10/5 4/9/4
f 3/11/6 2/13/6 11/14/6 12/12/6
f 1/15/7 13/16/8 14/14/8 2/13/7
f 6/17/9 5/8/9 15/7/9 16/18/9
f 1/15/10 6/19/10 16/20/11 17/21/11
f 18/17/6 19/22/6 20/23/6 21/1/6
f 19/22/12 22/24/12 23/25/13 20/23/13
f 22/24/6 24/26/6 25/27/6 23/25/6
f 24/26/14 26/28/14 27/29/15 25/27/15
f 26/28/16 28/30/16 29/31/17 27/29/17
f 28/30/18 30/32/18 31/33/19 29/31/19
f 30/32/20 32/34/20 33/35/21 31/33/21
f 32/34/9 34/36/9 35/37/9 33/35/9
f 34/36/22 36/38/22 37/39/23 35/37/23
f 36/38/9 38/40/9 39/41/9 37/39/9
f 38/40/24 40/42/24 41/43/25 39/41/25
f 40/42/9 42/44/9 43/45/9 41/43/9
f 42/44/26 44/46/26 45/47/26 43/45/26
f 44/46/9 46/48/9 47/49/9 45/47/9
f 46/48/27 48/50/27 49/51/28 47/49/28
f 48/50/9 50/52/9 51/53/9 49/51/9
f 50/52/29 52/54/29 53/55/30 51/53/30
f 52/54/31 54/56/31 55/57/32 53/55/32
f 54/56/6 56/58/6 57/59/6 55/57/6
f 56/58/33 58/60/33 59/61/34 57/59/34
f 58/60/6 60/62/6 61/63/6 59/61/6
f 62/64/35 35/37/23 37/39/23 63/65/35
f 64/65/9 37/39/9 39/41/9 65/66/9
f 66/67/9 45/47/9 47/49/9 67/68/9
f 68/68/36 47/49/28 49/51/28 69/69/36
f 70/70/9 33/35/9 35/37/9 71/64/9
f 21/1/6 20/23/6 72/71/6 73/72/6
f 59/61/34 74/73/37 75/74/37 57/59/34
f 59/61/6 61/63/6 76/75/6 74/73/6
f 41/43/25 77/76/38 78/66/38 39/41/25
f 79/76/9 41/43/9 43/45/9 80/77/9
f 81/77/39 43/45/26 45/47/26 82/67/39
f 83/78/9 84/69/9 49/51/9 51/53/9
f 53/55/30 85/79/40 83/80/41 51/53/30
f 86/81/42 87/82/42 53/55/32 55/57/32
f 86/83/6 55/57/6 57/59/6 75/74/6
f 23/25/13 88/84/43 72/71/44 20/23/13
f 89/84/6 23/25/6 25/27/6 90/85/6
f 91/85/45 25/27/15 27/29/15 92/86/45
f 93/87/35 27/29/17 29/31/17 94/88/35
f 29/31/19 31/33/19 95/89/46 96/90/47
f 31/33/21 33/35/21 97/70/48 98/89/49
f 99/91/50 100/92/50 101/93/50 102/94/50 103/95/50
f 104/96/50 105/97/50 101/93/50 100/92/50 106/1/50
f 107/98/50 108/99/50 109/100/50 110/101/50
f 111/102/50 112/103/50 113/104/50 114/105/50 115/4/50
f 116/106/50 117/107/50 113/104/50 112/103/50 118/108/50
f 105/97/50 119/109/50 108/99/50 120/110/50 121/111/50 101/93/50
f 117/107/50 120/110/50 108/99/50 122/112/50 113/104/50
f 123/113/19 124/114/19 106/115/18 100/116/18
f 123/113/19 125/117/46 126/118/46 124/114/19
f 127/119/6 128/120/6 129/121/6 130/122/6
f 128/120/6 120/123/6 117/124/6 129/121/6
f 131/1/6 132/125/6 133/126/6 134/127/6
f 135/128/44 134/127/44 136/129/43 137/130/43
f 138/131/37 139/132/37 140/133/51 141/134/51
f 138/131/6 142/135/6 143/136/6 144/137/6
f 144/137/52 145/138/53 146/139/53 129/121/52
f 131/140/51 128/120/51 147/141/51 148/142/51
f 131/1/6 134/127/6 101/143/6 121/144/6
f 134/127/44 135/128/44 102/145/12 101/143/12
f 138/131/37 118/146/37 112/147/37 139/132/37
f 138/131/6 144/137/6 116/148/6 118/146/6
f 116/148/54 144/137/52 129/121/52 117/124/54
f 131/140/51 121/149/55 120/123/55 128/120/51
f 149/150/56 150/151/57 151/152/57 152/153/56
f 149/150/56 152/153/56 99/154/58 103/155/58
f 149/150/6 103/155/6 102/145/6 135/128/6
f 99/154/16 152/153/17 123/113/17 100/116/16
f 153/156/6 149/150/6 135/128/6 154/157/6
f 152/153/17 155/158/35 125/117/35 123/113/17
f 156/159/59 157/160/60 158/161/60 159/162/59
f 156/159/59 159/162/59 111/163/61 115/164/61
f 159/162/6 139/132/6 112/147/6 111/163/6
f 159/162/6 160/165/6 161/166/6 139/132/6
f 162/167/62 124/114/62 163/168/63 164/169/63
f 162/167/9 165/170/9 166/171/9 167/172/9
f 168/173/23 167/172/23 169/174/23 170/175/23
f 162/167/62 104/176/64 106/115/64 124/114/62
f 162/167/9 167/172/9 105/177/9 104/176/9
f 167/172/23 168/173/23 119/178/35 105/177/35
f 171/179/9 172/180/9 173/181/9 174/182/9
f 171/179/9 174/182/9 110/183/9 109/184/9
f 175/185/9 108/186/9 119/178/9 168/173/9
f 108/186/24 175/185/65 171/179/65 109/184/24
f 176/187/66 107/188/67 110/183/67 174/182/66
f 177/189/9 175/185/9 168/173/9 178/190/9
f 175/185/65 179/191/24 172/180/24 171/179/65
f 180/192/68 176/187/66 174/182/66 173/181/68
f 181/193/9 182/194/9 176/187/9 183/195/9
f 182/194/9 122/196/9 107/188/9 176/187/9
f 182/194/36 184/197/36 113/198/36 122/196/36
f 184/197/9 185/199/9 114/200/9 113/198/9
f 114/200/69 185/199/70 156/159/70 115/164/69
f 186/201/71 184/197/36 182/194/36 187/202/71
f 184/197/9 188/203/9 189/204/9 185/199/9
f 185/199/70 190/205/72 191/206/72 156/159/70
f 192/207/1 193/208/1 194/1/1 195/209/1
f 196/210/18 197/211/19 194/212/19 198/213/18
f 199/214/1 200/215/1 201/216/1 202/217/1
f 203/218/1 204/219/1 205/220/1 206/221/1
f 207/222/1 204/219/1 203/218/1 202/223/1
f 203/224/6 208/225/6 209/226/6 199/227/6
f 208/225/6 210/228/6 211/229/6 209/226/6
f 212/230/1 213/231/1 214/232/1 215/233/1
f 216/234/1 213/231/1 200/215/1 217/235/1
f 218/236/1 219/237/1 220/238/1 206/221/1
f 221/239/1 219/237/1 218/236/1 222/240/1
f 220/17/6 219/241/6 223/242/6 224/1/6
f 219/241/44 221/243/44 225/244/12 223/242/12
f 216/245/37 226/246/33 227/247/33 214/248/37
f 216/245/6 217/249/6 228/250/6 226/246/6
f 228/250/73 217/249/52 199/227/52 209/226/73
f 220/251/51 224/252/74 208/225/74 203/224/51
f 229/253/6 230/254/6 224/1/6 223/242/6
f 224/252/74 231/255/51 232/256/51 208/225/74
f 233/257/53 228/250/73 209/226/73 130/258/53
f 234/259/12 223/242/12 225/244/12 235/260/12
f 226/246/33 236/261/75 237/262/75 227/247/33
f 226/246/6 228/250/6 238/263/6 239/264/6
f 240/265/1 241/266/1 242/267/1 243/268/1
f 242/269/56 241/270/56 244/271/14 245/272/14
f 245/272/6 246/273/6 235/260/6 225/244/6
f 245/272/14 244/271/14 247/274/76 246/273/77
f 248/275/16 249/276/16 244/271/16 196/210/16
f 250/277/1 243/268/1 222/240/1 251/278/1
f 242/269/6 245/272/6 225/244/6 221/243/6
f 252/279/1 197/280/1 240/265/1 253/281/1
f 195/209/1 197/280/1 252/279/1 254/282/1
f 244/271/16 241/270/17 197/211/17 196/210/16
f 255/283/1 256/284/1 257/4/1 258/285/1
f 257/286/59 256/287/59 259/288/31 260/289/31
f 259/288/6 227/247/6 261/290/6 262/291/6
f 255/283/1 263/292/1 264/293/1 215/294/1
f 259/288/6 256/287/6 214/248/6 227/247/6
f 265/295/1 258/285/1 266/296/1 267/297/1
f 268/298/1 269/299/1 270/300/1 271/301/1
f 193/208/1 269/299/1 268/298/1 272/302/1
f 272/303/62 273/304/20 198/213/20 194/212/62
f 272/303/9 268/305/9 274/306/9 273/304/9
f 268/305/23 271/307/23 275/308/22 274/306/22
f 273/304/20 276/309/78 277/310/78 198/213/20
f 277/311/18 278/312/18 196/210/18 198/213/18
f 274/306/9 279/313/9 280/314/9 273/304/9
f 275/308/22 281/315/23 279/316/23 274/306/22
f 282/317/1 283/318/1 284/319/1 285/320/1
f 282/321/9 285/322/9 286/323/9 287/324/9
f 286/323/9 288/325/9 289/326/9 287/324/9
f 290/327/9 291/328/9 292/329/9 275/308/9
f 293/330/24 290/327/24 287/324/24 172/331/24
f 294/332/26 180/333/26 295/334/26 286/323/26
f 296/335/1 283/318/1 297/336/1 298/337/1
f 299/338/1 298/339/1 270/300/1 300/340/1
f 297/341/9 290/327/9 275/308/9 271/307/9
f 290/327/24 297/341/65 282/321/65 287/324/24
f 301/342/1 284/319/1 302/343/1 303/344/1
f 301/345/66 294/332/26 286/323/26 285/322/66
f 304/346/1 305/347/1 303/348/1 306/349/1
f 305/350/9 307/351/9 294/332/9 301/345/9
f 307/351/9 308/352/9 309/353/9 294/332/9
f 310/354/1 311/355/1 304/346/1 312/356/1
f 313/357/1 311/355/1 310/354/1 266/296/1
f 311/358/36 314/359/27 307/351/27 305/350/36
f 311/358/9 313/360/9 315/361/9 314/359/9
f 315/361/29 313/360/70 257/286/70 260/289/29
f 314/359/9 315/361/9 316/362/9 317/363/9
f 318/364/79 316/365/80 315/361/29 260/289/29
f 319/366/81 260/289/31 259/288/31 262/367/82
f 307/351/27 314/359/27 317/368/83 320/369/84
f 34/370/1 321/371/1 322/372/1 36/373/1
f 22/374/1 19/375/1 28/376/1 26/377/1 24/378/1
f 30/1/1 28/376/1 19/375/1 321/371/1 34/370/1 32/379/1
f 56/380/1 323/381/1 60/382/1 58/383/1
f 324/384/1 325/385/1 321/371/1 18/386/1
f 326/387/1 325/385/1 324/384/1 54/388/1
f 60/62/73 323/389/73 327/390/85 61/63/85
f 323/389/6 324/391/6 328/392/6 327/390/6
f 324/391/74 18/393/74 21/394/86 328/392/86
f 327/390/6 328/392/6 329/395/6 330/396/6
f 61/63/85 327/390/85 330/396/54 76/75/54
f 21/394/86 73/397/55 329/395/55 328/392/86
f 331/398/1 332/399/1 325/385/1
f 333/400/1 48/401/1 46/402/1 334/403/1
f 52/4/1 50/404/1 48/401/1 333/400/1 326/387/1
f 44/405/1 42/406/1 40/407/1 38/408/1
f 335/409/1 334/403/1 322/372/1 336/410/1
f 337/411/1 335/409/1 338/412/1