v -0.8 1 1.03923 1 0 0
v -0.5 1 1.21244 1 0 0
v -0.5 1 0.866025 1 0 0
v -0.5 1 1.21244 0 0 1
v -0.8 1 1.03923 0 0 1
v -0.8 0 1.03923 0 0 1
v -0.5 0 1.21244 0 0 1
v 2.5 1 1.21244 1 0 0
v 2.8 1 1.03923 1 0 0
v 2.5 1 0.866025 1 0 0
v 2.8 1 1.03923 0 0 1
v 2.5 1 1.21244 0 0 1
v 2.5 0 1.21244 0 0 1
v 2.8 0 1.03923 0 0 1
v -0.5 1 -0.866025 1 0 0
v -0.8 1 -0.69282 1 0 0
v -0.8 1 0.69282 1 0 0
v -0.8 0 -0.69282 0 0 1
v -0.8 0 0.69282 0 0 1
v -0.8 1 0.69282 0 0 1
v -0.8 1 -0.69282 0 0 1
v 1 1 -1.73205 1 0 0
v 2.5 1 -0.866025 1 0 0
v 2.5 1 -1.21244 1 0 0
v 1.3 1 -1.90526 1 0 0
v 2.5 0 -1.21244 0 0 1
v 1.3 0 -1.90526 0 0 1
v 1.3 1 -1.90526 0 0 1
v 2.5 1 -1.21244 0 0 1
v -0.2 1 1.03923 1 0 0
v -0.2 1 1.03923 0 0 1
v -0.2 0 1.03923 0 0 1
v 1 1 0 1 0 0
v 1 1 0.34641 1 0 0
v 1 0 0.34641 0 0 1
v 1 1 0.34641 0 0 1
v 1 1 -2.07846 1 0 0
v 1 1 -2.07846 0 0 1
v 1 0 -2.07846 0 0 1
v 2.8 1 -0.69282 1 0 0
v 2.8 1 -1.03923 1 0 0
v 2.8 1 -1.03923 0 0 1
v 2.8 1 -0.69282 0 0 1
v 2.8 0 -0.69282 0 0 1
v 2.8 0 -1.03923 0 0 1
v -2 1 -1.73205 1 0 0
v -2 1 -1.38564 1 0 0
v -2 0 -1.38564 0 0 1
v -2 1 -1.38564 0 0 1
v -2 1 -3.4641 1 0 0
v -2.3 1 -3.2909 1 0 0
v -2.3 1 -1.90526 1 0 0
v -2.3 0 -3.2909 0 0 1
v -2.3 0 -1.90526 0 0 1
v -2.3 1 -1.90526 0 0 1
v -2.3 1 -3.2909 0 0 1
v -2.3 1 -3.63731 1 0 0
v -2.3 1 -3.63731 0 0 1
v -2.3 0 -3.63731 0 0 1
v 2.2 1 1.03923 1 0 0
v 2.2 1 1.03923 0 0 1
v 2.2 0 1.03923 0 0 1
v -2.3 1 -1.55885 1 0 0
v -2.3 1 -1.55885 0 0 1
v -2.3 0 -1.55885 0 0 1
v -0.5 1 -2.59808 1 0 0
v -0.2 1 -2.77128 1 0 0
v -0.2 0 -2.77128 0 0 1
v -0.2 1 -2.77128 0 0 1
v 2.8 1 0.69282 1 0 0
v 2.8 1 0.69282 0 0 1
v 2.8 0 0.69282 0 0 1
v -0.5 1 -2.94449 1 0 0
v -0.5 1 -2.94449 0 0 1
v -0.5 0 -2.94449 0 0 1
v -1.7 1 -3.63731 1 0 0
v -1.7 0 -3.63731 0 0 1
v -1.7 1 -3.63731 0 0 1
v -2 1 -3.81051 1 0 0
v -2 1 -3.81051 0 0 1
v -2 0 -3.81051 0 0 1
v -0.5 1 0.866025 0 1 0
v 1 1 0 0 1 0
v -0.5 1 -0.866025 0 1 0
v 2.5 1 -0.866025 0 1 0
v 2.5 1 0.866025 0 1 0
v 1 1 -1.73205 0 1 0
v -0.5 1 -2.59808 0 1 0
v -2 1 -1.73205 0 1 0
v -2 1 -3.4641 0 1 0

f 1 2 3
f 4 5 6 7
f 8 9 10
f 11 12 13 14
f 3 15 16 17
f 18 19 20 21
f 22 23 24 25
f 26 27 28 29
f 2 30 3
f 31 4 7 32
f 33 3 30 34
f 32 35 36 31
f 25 37 22
f 38 28 27 39
f 40 41 23
f 42 43 44 45
f 17 1 3
f 5 20 19 6
f 15 46 47 16
f 48 18 21 49
f 46 50 51 52
f 53 54 55 56
f 57 51 50
f 56 58 59 53
f 60 8 10
f 12 61 62 13
f 63 47 46
f 49 64 65 48
f 41 24 23
f 29 42 45 26
f 66 22 37 67
f 39 68 69 38
f 9 70 10
f 71 11 14 72
f 67 73 66
f 74 69 68 75
f 50 66 73 76
f 75 77 78 74
f 10 33 34 60
f 35 62 61 36
f 79 57 50
f 58 80 81 59
f 76 79 50
f 80 78 77 81
f 52 63 46
f 64 55 54 65
f 23 10 70 40
f 72 44 43 71
f 82 83 84
f 85 83 86
f 83 85 87
f 87 84 83
f 84 87 88
f 88 89 84
f 89 88 90