v -0.8 1 1.03923 1 0 0
v -0.5 1 1.21244 1 0 0
v -0.5 1 0.866025 1 0 0
v -0.5 1 1.21244 0 0 1
v -0.8 1 1.03923 0 0 1
v -0.8 0 1.03923 0 0 1
v -0.5 0 1.21244 0 0 1
v 2.5 1 1.21244 1 0 0
v 2.8 1 1.03923 1 0 0
v 2.5 1 0.866025 1 0 0
v 2.8 1 1.03923 0 0 1
v 2.5 1 1.21244 0 0 1
v 2.5 0 1.21244 0 0 1
v 2.8 0 1.03923 0 0 1
v -2.3 1 0.173205 1 0 0
v -2 1 0.34641 1 0 0
v -2 1 0 1 0 0
v -2 1 0.34641 0 0 1
v -2.3 1 0.173205 0 0 1
v -2.3 0 0.173205 0 0 1
v -2 0 0.34641 0 0 1
v 1 1 1.73205 1 0 0
v 0.7 1 1.90526 1 0 0
v 0.7 0 1.90526 0 0 1
v 0.7 1 1.90526 0 0 1
v 1.3 1 -1.90526 1 0 0
v 1 1 -2.07846 1 0 0
v 1 1 -1.73205 1 0 0
v 1 1 -2.07846 0 0 1
v 1.3 1 -1.90526 0 0 1
v 1.3 0 -1.90526 0 0 1
v 1 0 -2.07846 0 0 1
v 1.3 1 -1.55885 1 0 0
v 1.3 1 -1.55885 0 0 1
v 1.3 0 -1.55885 0 0 1
v -2.3 1 -0.173205 1 0 0
v -2.3 1 -0.173205 0 0 1
v -2.3 0 -0.173205 0 0 1
v -2 1 -2.07846 1 0 0
v -2.3 1 -1.90526 1 0 0
v -2 1 -1.73205 1 0 0
v -2.3 1 -1.90526 0 0 1
v -2 1 -2.07846 0 0 1
v -2 0 -2.07846 0 0 1
v -2.3 0 -1.90526 0 0 1
v 1 1 2.07846 1 0 0
v 1.3 1 1.90526 1 0 0
v 1.3 1 1.90526 0 0 1
v 1 1 2.07846 0 0 1
v 1 0 2.07846 0 0 1
v 1.3 0 1.90526 0 0 1
v 1 1 0 1 0 0
v 1.3 1 -0.173205 1 0 0
v 1.3 0 -0.173205 0 0 1
v 1.3 1 -0.173205 0 0 1
v -2.3 1 -1.55885 1 0 0
v -2.3 0 -1.55885 0 0 1
v -2.3 1 -1.55885 0 0 1
v 2.5 1 0.519615 1 0 0
v 2.5 0 0.519615 0 0 1
v 2.5 1 0.519615 0 0 1
v -0.5 1 -2.59808 1 0 0
v -0.8 1 -2.77128 1 0 0
v -0.8 0 -2.77128 0 0 1
v -0.8 1 -2.77128 0 0 1
v -0.2 1 -2.77128 1 0 0
v -0.2 0 -2.77128 0 0 1
v -0.2 1 -2.77128 0 0 1
v 2.8 1 0.69282 1 0 0
v 2.8 1 0.69282 0 0 1
v 2.8 0 0.69282 0 0 1
v -0.5 1 -2.94449 1 0 0
v -0.5 1 -2.94449 0 0 1
v -0.5 0 -2.94449 0 0 1
v 1 1 1.73205 0 1 0
v 2.5 1 0.866025 0 1 0
v 1 1 0 0 1 0
v -0.5 1 0.866025 0 1 0
v -0.5 1 -0.866025 0 1 0
v 1 1 -1.73205 0 1 0
v -0.5 1 -2.59808 0 1 0
v -2 1 -1.73205 0 1 0
v -2 1 0 0 1 0

f 1 2 3
f 4 5 6 7
f 8 9 10
f 11 12 13 14
f 15 16 17
f 18 19 20 21
f 22 3 2 23
f 7 24 25 4
f 26 27 28
f 29 30 31 32
f 33 26 28
f 30 34 35 31
f 36 15 17
f 19 37 38 20
f 3 17 16 1
f 21 6 5 18
f 39 40 41
f 42 43 44 45
f 46 47 22
f 48 49 50 51
f 28 52 53 33
f 54 35 34 55
f 10 22 47 8
f 51 13 12 48
f 17 41 56 36
f 57 38 37 58
f 52 10 59 53
f 60 54 55 61
f 41 62 63 39
f 64 44 43 65
f 62 28 27 66
f 32 67 68 29
f 9 69 10
f 70 11 14 71
f 66 72 62
f 73 68 67 74
f 72 63 62
f 65 73 74 64
f 23 46 22
f 49 25 24 50
f 40 56 41
f 58 42 45 57
f 69 59 10
f 61 70 71 60
f 75 76 77
f 77 78 75
f 78 77 79
f 80 79 77
f 79 80 81
f 81 82 79
f 83 79 82