v -0.3125 0.02 0.108253 1 1 1
v -0.5 0.02 0 1 1 1
v -0.5 0 0 1 1 1
v -0.3125 0 0.108253 1 1 1
v 0.0625 0 0.32476 1 1 1
v 0.25 0 0.433013 1 1 1
v 0.25 0.02 0.433013 1 1 1
v 0.0625 0.02 0.32476 1 1 1
v 0.25 0 0.433013 0.729412 0.74902 0.580392
v 0.0625 0 0.32476 0.729412 0.74902 0.580392
v 0.0625 0.02 0.32476 0.729412 0.74902 0.580392
v 0.25 0.02 0.433013 0.729412 0.74902 0.580392
v 0.25 0 0.433013 0.952941 0.894118 0.788235
v 0.25 0 0.216506 0.952941 0.894118 0.788235
v 0.25 0.02 0.216506 0.952941 0.894118 0.788235
v 0.25 0.02 0.433013 0.952941 0.894118 0.788235
v 0.0625 0 0.32476 0.952941 0.894118 0.788235
v 0.0625 0.02 0.32476 0.952941 0.894118 0.788235
v 0.125 0 0.216506 0.74902 0.635294 0.54902
v 0.0625 0 0.32476 0.74902 0.635294 0.54902
v 0.0625 0.02 0.32476 0.74902 0.635294 0.54902
v 0.125 0.02 0.216506 0.74902 0.635294 0.54902
v 0.25 0 0.216506 0.74902 0.635294 0.54902
v 0.25 0.02 0.216506 0.74902 0.635294 0.54902
v 0.25 0 0 0.952941 0.894118 0.788235
v 0.0625 0 0.108253 0.952941 0.894118 0.788235
v 0.0625 0.02 0.108253 0.952941 0.894118 0.788235
v 0.25 0.02 0 0.952941 0.894118 0.788235
v 0.0625 0 0.108253 0.74902 0.635294 0.54902
v 0.0625 0.02 0.108253 0.74902 0.635294 0.54902
v -0.125 0 0.216506 0.74902 0.635294 0.54902
v -0.125 0.02 0.216506 0.74902 0.635294 0.54902
v 0.4375 0 0.32476 0.729412 0.74902 0.580392
v 0.25 0 0.216506 0.729412 0.74902 0.580392
v 0.25 0.02 0.216506 0.729412 0.74902 0.580392
v 0.4375 0.02 0.32476 0.729412 0.74902 0.580392
v 0.375 0 0.216506 0.74902 0.635294 0.54902
v 0.375 0.02 0.216506 0.74902 0.635294 0.54902
v 0.4375 0 0.32476 0.74902 0.635294 0.54902
v 0.4375 0.02 0.32476 0.74902 0.635294 0.54902
v -0.125 0 0.216506 0.729412 0.74902 0.580392
v -0.125 0.02 0.216506 0.729412 0.74902 0.580392
v 0.625 0 0.216506 0.729412 0.74902 0.580392
v 0.4375 0 0.108253 0.729412 0.74902 0.580392
v 0.4375 0.02 0.108253 0.729412 0.74902 0.580392
v 0.625 0.02 0.216506 0.729412 0.74902 0.580392
v 0.4375 0 0.108253 0.74902 0.635294 0.54902
v 0.4375 0.02 0.108253 0.74902 0.635294 0.54902
v 0.4375 0 0.108253 0.952941 0.894118 0.788235
v 0.4375 0.02 0.108253 0.952941 0.894118 0.788235
v 0.625 0 0.216506 0.662745 0.545098 0.462745
v 0.625 0 0 0.662745 0.545098 0.462745
v 0.625 0.02 0 0.662745 0.545098 0.462745
v 0.625 0.02 0.216506 0.662745 0.545098 0.462745
v 0.4375 0 0.108253 0.662745 0.545098 0.462745
v 0.4375 0.02 0.108253 0.662745 0.545098 0.462745
v 0.5 0 0 0.74902 0.635294 0.54902
v 0.5 0.02 0 0.74902 0.635294 0.54902
v 0.625 0 0 0.74902 0.635294 0.54902
v 0.625 0.02 0 0.74902 0.635294 0.54902
v 0.625 0 -0.216506 0.74902 0.635294 0.54902
v 0.4375 0 -0.108253 0.74902 0.635294 0.54902
v 0.4375 0.02 -0.108253 0.74902 0.635294 0.54902
v 0.625 0.02 -0.216506 0.74902 0.635294 0.54902
v 0.4375 0 -0.108253 0.952941 0.894118 0.788235
v 0.4375 0.02 -0.108253 0.952941 0.894118 0.788235
v 0.8125 0.02 0.108253 0.729412 0.74902 0.580392
v 0.625 0.02 0 0.729412 0.74902 0.580392
v 0.8125 0 0.108253 0.729412 0.74902 0.580392
v 0.625 0 0 0.729412 0.74902 0.580392
v 0.75 0 0 0.74902 0.635294 0.54902
v 0.75 0.02 0 0.74902 0.635294 0.54902
v 0.8125 0 0.108253 0.74902 0.635294 0.54902
v 0.8125 0.02 0.108253 0.74902 0.635294 0.54902
v 0.8125 0 -0.108253 0.662745 0.545098 0.462745
v 0.8125 0 0.108253 0.662745 0.545098 0.462745
v 0.8125 0.02 0.108253 0.662745 0.545098 0.462745
v 0.8125 0.02 -0.108253 0.662745 0.545098 0.462745
v 0.8125 0 -0.108253 0.74902 0.635294 0.54902
v 0.8125 0.02 -0.108253 0.74902 0.635294 0.54902
v 1 0.02 0 0.662745 0.545098 0.462745
v 1 0 0 0.662745 0.545098 0.462745
v -0.3125 0 0.108253 0.729412 0.74902 0.580392
v -0.3125 0.02 0.108253 0.729412 0.74902 0.580392
v -0.125 0 0 0.729412 0.74902 0.580392
v -0.125 0.02 0 0.729412 0.74902 0.580392
v -0.25 0 0 0.74902 0.635294 0.54902
v -0.3125 0 0.108253 0.74902 0.635294 0.54902
v -0.3125 0.02 0.108253 0.74902 0.635294 0.54902
v -0.25 0.02 0 0.74902 0.635294 0.54902
v -0.125 0 0 0.74902 0.635294 0.54902
v -0.125 0.02 0 0.74902 0.635294 0.54902
v -0.125 0 -0.216506 0.952941 0.894118 0.788235
v -0.3125 0 -0.108253 0.952941 0.894118 0.788235
v -0.3125 0.02 -0.108253 0.952941 0.894118 0.788235
v -0.125 0.02 -0.216506 0.952941 0.894118 0.788235
v -0.125 0 0 0.952941 0.894118 0.788235
v -0.125 0.02 0 0.952941 0.894118 0.788235
v -0.3125 0 -0.108253 0.74902 0.635294 0.54902
v -0.3125 0.02 -0.108253 0.74902 0.635294 0.54902
v -0.3125 0 -0.108253 0.729412 0.74902 0.580392
v -0.3125 0.02 -0.108253 0.729412 0.74902 0.580392
v -0.5 0 0 0.729412 0.74902 0.580392
v -0.5 0.02 0 0.729412 0.74902 0.580392
v 0.0625 0 0.108253 0.729412 0.74902 0.580392
v 0.0625 0.02 0.108253 0.729412 0.74902 0.580392
v 0 0 0 0.74902 0.635294 0.54902
v 0 0.02 0 0.74902 0.635294 0.54902
v 0.25 0 0 0.729412 0.74902 0.580392
v 0.0625 0 -0.108253 0.729412 0.74902 0.580392
v 0.0625 0.02 -0.108253 0.729412 0.74902 0.580392
v 0.25 0.02 0 0.729412 0.74902 0.580392
v 0.0625 0 -0.108253 0.74902 0.635294 0.54902
v 0.0625 0.02 -0.108253 0.74902 0.635294 0.54902
v 0.0625 0 -0.108253 0.952941 0.894118 0.788235
v 0.0625 0.02 -0.108253 0.952941 0.894118 0.788235
v 0.25 0 0 0.74902 0.635294 0.54902
v 0.25 0 -0.216506 0.74902 0.635294 0.54902
v 0.25 0.02 -0.216506 0.74902 0.635294 0.54902
v 0.25 0.02 0 0.74902 0.635294 0.54902
v 0.125 0 -0.216506 0.74902 0.635294 0.54902
v 0.125 0.02 -0.216506 0.74902 0.635294 0.54902
v 0.25 0 -0.433013 0.662745 0.545098 0.462745
v 0.0625 0 -0.32476 0.662745 0.545098 0.462745
v 0.0625 0.02 -0.32476 0.662745 0.545098 0.462745
v 0.25 0.02 -0.433013 0.662745 0.545098 0.462745
v 0.25 0 -0.216506 0.662745 0.545098 0.462745
v 0.25 0.02 -0.216506 0.662745 0.545098 0.462745
v 0.0625 0 -0.32476 0.74902 0.635294 0.54902
v 0.0625 0.02 -0.32476 0.74902 0.635294 0.54902
v -0.125 0 -0.216506 0.662745 0.545098 0.462745
v 0.0625 0 -0.108253 0.662745 0.545098 0.462745
v 0.0625 0.02 -0.108253 0.662745 0.545098 0.462745
v -0.125 0.02 -0.216506 0.662745 0.545098 0.462745
v 0.4375 0 -0.108253 0.729412 0.74902 0.580392
v 0.4375 0.02 -0.108253 0.729412 0.74902 0.580392
v 0.25 0 -0.216506 0.729412 0.74902 0.580392
v 0.25 0.02 -0.216506 0.729412 0.74902 0.580392
v 0.375 0 -0.216506 0.74902 0.635294 0.54902
v 0.375 0.02 -0.216506 0.74902 0.635294 0.54902
v 0.4375 0 -0.32476 0.952941 0.894118 0.788235
v 0.4375 0.02 -0.32476 0.952941 0.894118 0.788235
v 0.625 0 -0.216506 0.952941 0.894118 0.788235
v 0.625 0.02 -0.216506 0.952941 0.894118 0.788235
v 0.4375 0 -0.32476 0.74902 0.635294 0.54902
v 0.4375 0.02 -0.32476 0.74902 0.635294 0.54902
v 0.25 0 -0.433013 0.952941 0.894118 0.788235
v 0.25 0 -0.216506 0.952941 0.894118 0.788235
v 0.25 0.02 -0.216506 0.952941 0.894118 0.788235
v 0.25 0.02 -0.433013 0.952941 0.894118 0.788235
v -0.5 0 0 0.662745 0.545098 0.462745
v -0.3125 0 -0.108253 0.662745 0.545098 0.462745
v -0.3125 0.02 -0.108253 0.662745 0.545098 0.462745
v -0.5 0.02 0 0.662745 0.545098 0.462745
v -0.5 0 -0.216506 0.662745 0.545098 0.462745
v -0.5 0.02 -0.216506 0.662745 0.545098 0.462745
v -0.375 0 -0.216506 0.74902 0.635294 0.54902
v -0.5 0 -0.216506 0.74902 0.635294 0.54902
v -0.5 0.02 -0.216506 0.74902 0.635294 0.54902
v -0.375 0.02 -0.216506 0.74902 0.635294 0.54902
v -0.125 0 -0.216506 0.74902 0.635294 0.54902
v -0.3125 0 -0.32476 0.74902 0.635294 0.54902
v -0.3125 0.02 -0.32476 0.74902 0.635294 0.54902
v -0.125 0.02 -0.216506 0.74902 0.635294 0.54902
v -0.5 0 -0.433013 0.74902 0.635294 0.54902
v -0.5 0.02 -0.433013 0.74902 0.635294 0.54902
v -0.125 0 -0.433013 0.662745 0.545098 0.462745
v -0.125 0.02 -0.433013 0.662745 0.545098 0.462745
v -0.3125 0 -0.32476 0.662745 0.545098 0.462745
v -0.3125 0.02 -0.32476 0.662745 0.545098 0.462745
v -0.25 0 -0.433013 0.74902 0.635294 0.54902
v -0.25 0.02 -0.433013 0.74902 0.635294 0.54902
v -0.125 0 -0.433013 0.74902 0.635294 0.54902
v -0.125 0.02 -0.433013 0.74902 0.635294 0.54902
v -0.125 0 -0.649519 0.952941 0.894118 0.788235
v -0.3125 0 -0.541266 0.952941 0.894118 0.788235
v -0.3125 0.02 -0.541266 0.952941 0.894118 0.788235
v -0.125 0.02 -0.649519 0.952941 0.894118 0.788235
v -0.125 0 -0.433013 0.952941 0.894118 0.788235
v -0.125 0.02 -0.433013 0.952941 0.894118 0.788235
v -0.3125 0 -0.541266 0.74902 0.635294 0.54902
v -0.3125 0.02 -0.541266 0.74902 0.635294 0.54902
v 0.0625 0 -0.32476 0.952941 0.894118 0.788235
v 0.0625 0.02 -0.32476 0.952941 0.894118 0.788235
v 0 0 -0.433013 0.74902 0.635294 0.54902
v 0 0.02 -0.433013 0.74902 0.635294 0.54902
v 0.0625 0 -0.541266 0.74902 0.635294 0.54902
v 0.0625 0.02 -0.541266 0.74902 0.635294 0.54902
v 0.25 0 -0.433013 0.74902 0.635294 0.54902
v 0.25 0.02 -0.433013 0.74902 0.635294 0.54902
v 0.0625 0 -0.541266 0.952941 0.894118 0.788235
v 0.0625 0.02 -0.541266 0.952941 0.894118 0.788235
v -0.5 0 -0.433013 0.729412 0.74902 0.580392
v -0.3125 0 -0.541266 0.729412 0.74902 0.580392
v -0.3125 0.02 -0.541266 0.729412 0.74902 0.580392
v -0.5 0.02 -0.433013 0.729412 0.74902 0.580392
v -0.5 0 -0.649519 0.729412 0.74902 0.580392
v -0.5 0.02 -0.649519 0.729412 0.74902 0.580392
v -0.375 0 -0.649519 0.74902 0.635294 0.54902
v -0.5 0 -0.649519 0.74902 0.635294 0.54902
v -0.5 0.02 -0.649519 0.74902 0.635294 0.54902
v -0.375 0.02 -0.649519 0.74902 0.635294 0.54902
v -0.3125 0 -0.757772 0.74902 0.635294 0.54902
v -0.3125 0.02 -0.757772 0.74902 0.635294 0.54902
v -0.125 0 -0.649519 0.74902 0.635294 0.54902
v -0.125 0.02 -0.649519 0.74902 0.635294 0.54902
v -0.5 0 -0.649519 0.952941 0.894118 0.788235
v -0.3125 0 -0.757772 0.952941 0.894118 0.788235
v -0.3125 0.02 -0.757772 0.952941 0.894118 0.788235
v -0.5 0.02 -0.649519 0.952941 0.894118 0.788235
v -0.5 0.02 -0.866025 0.952941 0.894118 0.788235
v -0.5 0 -0.866025 0.952941 0.894118 0.788235

f 1 2 3 4
f 5 6 7 8
f 9 10 11 12
f 13 14 15 16
f 14 17 18 15
f 19 20 21 22
f 20 23 24 21
f 23 19 22 24
f 25 26 27 28
f 26 14 15 27
f 14 25 28 15
f 19 23 24 22
f 23 29 30 24
f 29 19 22 30
f 20 29 30 21
f 29 31 32 30
f 19 29 30 22
f 29 20 21 30
f 20 19 22 21
f 33 34 35 36
f 34 9 12 35
f 37 23 24 38
f 23 39 40 24
f 39 37 38 40
f 16 15 18
f 22 21 24
f 28 27 15
f 22 24 30
f 32 21 30
f 22 30 21
f 12 36 35
f 38 24 40
f 9 33 36 12
f 10 41 42 11
f 17 13 16 18
f 31 20 21 32
f 17 14 13
f 23 20 19
f 14 26 25
f 29 23 19
f 29 20 31
f 20 29 19
f 34 33 9
f 39 23 37
f 43 44 45 46
f 44 33 36 45
f 37 39 40 38
f 39 47 48 40
f 47 37 38 48
f 25 14 15 28
f 14 49 50 15
f 49 25 28 50
f 37 47 48 38
f 47 23 24 48
f 23 37 38 24
f 51 52 53 54
f 52 55 56 53
f 55 51 54 56
f 57 47 48 58
f 47 59 60 48
f 59 57 58 60
f 61 62 63 64
f 62 59 60 63
f 59 61 64 60
f 57 59 60 58
f 59 62 63 60
f 62 57 58 63
f 25 49 50 28
f 49 65 66 50
f 65 25 28 66
f 57 62 63 58
f 62 47 48 63
f 47 57 58 48
f 46 45 36
f 38 40 48
f 28 15 50
f 38 48 24
f 54 53 56
f 58 48 60
f 64 63 60
f 58 60 63
f 28 50 66
f 58 63 48
f 46 67 68
f 33 43 46 36
f 33 44 43
f 47 39 37
f 49 14 25
f 23 47 37
f 55 52 51
f 59 47 57
f 59 62 61
f 62 59 57
f 65 49 25
f 47 62 57
f 69 70 68 67
f 70 43 46 68
f 71 59 60 72
f 59 73 74 60
f 73 71 72 74
f 75 76 77 78
f 71 73 74 72
f 73 79 80 74
f 79 71 72 80
f 61 59 60 64
f 59 79 80 60
f 71 79 80 72
f 79 59 60 80
f 59 71 72 60
f 72 60 74
f 81 78 77
f 72 74 80
f 64 60 80
f 72 80 60
f 43 69 67 46
f 76 82 81 77
f 82 75 78 81
f 79 61 64 80
f 41 83 84 42
f 70 69 43
f 73 59 71
f 76 75 82
f 79 73 71
f 79 59 61
f 59 79 71
f 41 85 86 42
f 85 83 84 86
f 87 88 89 90
f 88 91 92 89
f 91 87 90 92
f 93 94 95 96
f 94 97 98 95
f 97 93 96 98
f 87 91 92 90
f 91 99 100 92
f 99 87 90 100
f 83 101 102 84
f 101 103 104 102
f 87 99 100 90
f 99 88 89 100
f 88 87 90 89
f 41 105 106 42
f 105 85 86 106
f 85 41 42 86
f 107 91 92 108
f 91 29 30 92
f 29 107 108 30
f 109 110 111 112
f 42 86 84
f 90 89 92
f 96 95 98
f 90 92 100
f 104 84 102
f 90 100 89
f 42 106 86
f 108 92 30
f 112 111 106
f 83 103 104 84
f 83 41 42 84
f 103 83 84 104
f 83 85 41
f 91 88 87
f 97 94 93
f 99 91 87
f 101 83 103
f 88 99 87
f 85 105 41
f 29 91 107
f 105 110 109
f 110 105 106 111
f 105 109 112 106
f 107 29 30 108
f 29 113 114 30
f 113 107 108 114
f 93 97 98 96
f 97 115 116 98
f 115 93 96 116
f 107 113 114 108
f 113 91 92 114
f 91 107 108 92
f 117 118 119 120
f 118 113 114 119
f 113 117 120 114
f 121 113 114 122
f 113 118 119 114
f 118 121 122 119
f 123 124 125 126
f 124 127 128 125
f 127 123 126 128
f 121 118 119 122
f 118 129 130 119
f 129 121 122 130
f 131 132 133 134
f 132 124 125 133
f 124 131 134 125
f 121 129 130 122
f 129 113 114 130
f 113 121 122 114
f 109 135 136 112
f 135 137 138 136
f 108 30 114
f 96 98 116
f 108 114 92
f 120 119 114
f 122 114 119
f 126 125 128
f 122 119 130
f 134 133 125
f 122 130 114
f 112 136 138
f 113 29 107
f 115 97 93
f 91 113 107
f 113 118 117
f 118 113 121
f 127 124 123
f 129 118 121
f 124 132 131
f 113 129 121
f 137 135 109
f 137 109 112 138
f 139 118 119 140
f 118 62 63 119
f 62 139 140 63
f 141 65 66 142
f 65 143 144 66
f 139 62 63 140
f 62 145 146 63
f 145 139 140 146
f 147 148 149 150
f 148 141 142 149
f 139 145 146 140
f 145 118 119 146
f 118 139 140 119
f 151 152 153 154
f 152 155 156 153
f 157 158 159 160
f 158 99 100 159
f 99 157 160 100
f 161 162 163 164
f 162 99 100 163
f 99 161 164 100
f 157 99 100 160
f 99 162 163 100
f 162 157 160 163
f 158 162 163 159
f 162 165 166 163
f 140 119 63
f 144 142 66
f 140 63 146
f 150 149 142
f 140 146 119
f 154 153 156
f 160 159 100
f 164 163 100
f 160 100 163
f 166 159 163
f 155 151 154 156
f 165 158 159 166
f 143 141 142 144
f 141 147 150 142
f 62 118 139
f 65 141 143
f 145 62 139
f 141 148 147
f 118 145 139
f 155 152 151
f 99 158 157
f 99 162 161
f 162 99 157
f 162 158 165
f 157 162 163 160
f 162 158 159 163
f 158 157 160 159
f 131 167 168 134
f 167 169 170 168
f 169 131 134 170
f 171 162 163 172
f 162 173 174 163
f 173 171 172 174
f 175 176 177 178
f 176 179 180 177
f 179 175 178 180
f 171 173 174 172
f 173 181 182 174
f 181 171 172 182
f 165 162 163 166
f 162 181 182 163
f 181 165 166 182
f 171 181 182 172
f 181 162 163 182
f 162 171 172 163
f 93 183 184 96
f 183 179 180 184
f 179 93 96 180
f 185 173 174 186
f 173 129 130 174
f 129 185 186 130
f 187 129 130 188
f 129 189 190 130
f 160 163 159
f 134 168 170
f 172 163 174
f 178 177 180
f 172 174 182
f 166 163 182
f 172 182 163
f 96 184 180
f 186 174 130
f 190 188 130
f 186 130 188
f 189 187 188 190
f 158 162 157
f 169 167 131
f 173 162 171
f 179 176 175
f 181 173 171
f 181 162 165
f 162 181 171
f 179 183 93
f 129 173 185
f 129 187 189
f 185 129 130 186
f 129 187 188 130
f 187 185 186 188
f 175 179 180 178
f 179 191 192 180
f 185 187 188 186
f 187 173 174 188
f 173 185 186 174
f 193 194 195 196
f 194 197 198 195
f 199 200 201 202
f 200 181 182 201
f 181 199 202 182
f 203 181 182 204
f 181 205 206 182
f 199 181 182 202
f 181 203 204 182
f 203 199 202 204
f 207 208 209 210
f 199 203 204 202
f 203 200 201 204
f 200 199 202 201
f 178 180 192
f 186 188 174
f 196 195 198
f 202 201 182
f 206 204 182
f 202 182 204
f 211 210 209
f 202 204 201
f 197 193 196 198
f 212 207 210 211
f 191 175 178 192
f 205 203 204 206
f 208 212 211 209
f 187 129 185
f 191 179 175
f 173 187 185
f 197 194 193
f 181 200 199
f 181 203 205
f 203 181 199
f 208 207 212
f 200 203 199