v 1.75 0 -1.29904 1 0.52549 0.439216
v 1.375 0 -1.51554 1 0.52549 0.439216
v 1.375 0.45 -1.51554 1 0.52549 0.439216
v 1.75 0.45 -1.29904 1 0.52549 0.439216
v 2.125 0 -1.08253 1 0.52549 0.439216
v 1.75 0.3 -1.29904 1 0.52549 0.439216
v 2.125 0.3 -1.08253 1 0.52549 0.439216
v 2.5 0 -0.866025 1 0.52549 0.439216
v 2.125 0.15 -1.08253 1 0.52549 0.439216
v 2.5 0.15 -0.866025 1 0.52549 0.439216
v 1 0 -1.29904 1 0.52549 0.439216
v 1 0 -1.73205 1 0.52549 0.439216
v 1 0.6 -1.73205 1 0.52549 0.439216
v 1 0.6 -1.29904 1 0.52549 0.439216
v 1.375 0.6 -1.51554 1 0.52549 0.439216
v 1 0.45 -1.29904 1 0.52549 0.439216
v 1 0 -0.866025 1 0.52549 0.439216
v 1 0 -0.433013 1 0.52549 0.439216
v -0.125 0 -0.649519 1 0.52549 0.439216
v -0.5 0 -0.866025 1 0.52549 0.439216
v 1 0 -1.73205 1 0.52549 0.439216
v 1 0 -1.29904 1 0.52549 0.439216
v 0.25 0 -0.433013 1 0.52549 0.439216
v 1 0 -0.866025 1 0.52549 0.439216
v 1 0 -0.433013 1 0.52549 0.439216
v 0.625 0 -0.216506 1 0.52549 0.439216
v 1 0.45 -0.866025 1 0.52549 0.439216
v 1 0.3 -0.866025 1 0.52549 0.439216
v 1 0.3 -0.433013 1 0.52549 0.439216
v 1 0.15 -0.433013 1 0.52549 0.439216
v 1 0.6 -1.29904 1 0.52549 0.439216
v 1 0.6 -1.73205 1 0.52549 0.439216
v -0.5 0.6 -0.866025 1 0.52549 0.439216
v -0.125 0.6 -0.649519 1 0.52549 0.439216
v 0.625 0.3 -0.216506 1 0.52549 0.439216
v 0.625 0.15 -0.216506 1 0.52549 0.439216
v 1 0.15 -0.433013 1 0.52549 0.439216
v 1 0.3 -0.433013 1 0.52549 0.439216
v 1 0.3 -0.866025 1 0.52549 0.439216
v 0.25 0.3 -0.433013 1 0.52549 0.439216
v 1 0.45 -0.866025 1 0.52549 0.439216
v 1 0.45 -1.29904 1 0.52549 0.439216
v -0.125 0.45 -0.649519 1 0.52549 0.439216
v 0.25 0.45 -0.433013 1 0.52549 0.439216
v -0.125 0 0.649519 1 0.52549 0.439216
v -0.5 0 0.866025 1 0.52549 0.439216
v -0.5 0 -0.866025 1 0.52549 0.439216
v -0.125 0 -0.649519 1 0.52549 0.439216
v -0.125 0.6 -0.649519 1 0.52549 0.439216
v -0.5 0.6 -0.866025 1 0.52549 0.439216
v -0.5 0.6 0.866025 1 0.52549 0.439216
v -0.125 0.6 0.649519 1 0.52549 0.439216
v 1 0 -1.6e-11 1 0.52549 0.439216
v 1 0 -8e-12 1 0.52549 0.439216
v 0.625 0 0.216506 1 0.52549 0.439216
v 0.625 0 -0.216506 1 0.52549 0.439216
v 0.25 0 0.433013 1 0.52549 0.439216
v 0.25 0 -0.433013 1 0.52549 0.439216
v 1 0.15 -1.6e-11 1 0.52549 0.439216
v 1 0.15 -8e-12 1 0.52549 0.439216
v 0.625 0.15 -0.216506 1 0.52549 0.439216
v 0.625 0.15 0.216506 1 0.52549 0.439216
v 0.625 0.3 0.216506 1 0.52549 0.439216
v 0.625 0.3 -0.216506 1 0.52549 0.439216
v -0.125 0.45 0.649519 1 0.52549 0.439216
v -0.125 0.45 -0.649519 1 0.52549 0.439216
v 0.25 0.45 -0.433013 1 0.52549 0.439216
v 0.25 0.45 0.433013 1 0.52549 0.439216
v 0.25 0.3 0.433013 1 0.52549 0.439216
v 0.25 0.3 -0.433013 1 0.52549 0.439216
v -0.125 0 1.08253 1 0.52549 0.439216
v 0.25 0 1.29904 1 0.52549 0.439216
v 0.25 0.45 1.29904 1 0.52549 0.439216
v -0.125 0.45 1.08253 1 0.52549 0.439216
v 0.625 0 1.51554 1 0.52549 0.439216
v 0.625 0.3 1.51554 1 0.52549 0.439216
v 0.25 0.3 1.29904 1 0.52549 0.439216
v 1 0 1.73205 1 0.52549 0.439216
v 1 0.15 1.73205 1 0.52549 0.439216
v 0.625 0.15 1.51554 1 0.52549 0.439216
v -0.125 0 0.649519 1 0.52549 0.439216
v -0.5 0 0.866025 1 0.52549 0.439216
v 0.25 0 0.433013 1 0.52549 0.439216
v 0.625 0 0.216506 1 0.52549 0.439216
v 1 0 8e-12 1 0.52549 0.439216
v -0.5 0.6 0.866025 1 0.52549 0.439216
v -0.125 0.6 1.08253 1 0.52549 0.439216
v -0.125 0.6 0.649519 1 0.52549 0.439216
v -0.125 0.45 0.649519 1 0.52549 0.439216
v 0.25 0.45 0.433013 1 0.52549 0.439216
v 0.625 0.3 0.216506 1 0.52549 0.439216
v 0.25 0.3 0.433013 1 0.52549 0.439216
v 0.625 0.15 0.216506 1 0.52549 0.439216
v 1 0.15 8e-12 1 0.52549 0.439216

f 1 2 3 4
f 5 1 6 7
f 8 5 9 10
f 2 11 12
f 13 14 15
f 14 16 3 15
f 13 15 2 12
f 2 1 17 11
f 1 5 18 17
f 19 20 21 22
f 23 24 25 26
f 23 19 22 24
f 16 27 4 3
f 27 28 6 4
f 28 29 7 6
f 29 30 9 7
f 31 32 33 34
f 33 32 21 20
f 35 36 37 38
f 38 39 40 35
f 41 42 43 44
f 41 44 40 39
f 31 34 43 42
f 45 46 47 48
f 49 50 51 52
f 51 50 47 46
f 5 8 53 18
f 26 25 54
f 55 56 54
f 55 57 58 56
f 57 45 48 58
f 53 8 10 59
f 30 59 10 9
f 60 37 36
f 60 61 62
f 63 62 61 64
f 49 52 65 66
f 67 66 65 68
f 67 68 69 70
f 64 70 69 63
f 71 72 73 74
f 72 75 76 77
f 75 78 79 80
f 81 71 82
f 81 83 72 71
f 83 84 75 72
f 84 85 78 75
f 86 87 88
f 87 74 89 88
f 82 71 87 86
f 74 73 90 89
f 77 76 91 92
f 76 80 93 91
f 80 79 94 93
f 78 85 94 79
f 73 77 92 90