v -0.5 1 -2.94449 1 0 0
v -0.8 1 -2.77128 1 0 0
v -0.5 1 -2.59808 1 0 0
v -0.8 1 -2.77128 0 0 1
v -0.5 1 -2.94449 0 0 1
v -0.5 0 -2.94449 0 0 1
v -0.8 0 -2.77128 0 0 1
v 2.8 1 -0.69282 1 0 0
v 2.8 1 -1.03923 1 0 0
v 2.5 1 -0.866025 1 0 0
v 2.8 1 -1.03923 0 0 1
v 2.8 1 -0.69282 0 0 1
v 2.8 0 -0.69282 0 0 1
v 2.8 0 -1.03923 0 0 1
v 2.5 1 1.21244 1 0 0
v 2.8 1 1.03923 1 0 0
v 2.5 1 0.866025 1 0 0
v 2.8 1 1.03923 0 0 1
v 2.5 1 1.21244 0 0 1
v 2.5 0 1.21244 0 0 1
v 2.8 0 1.03923 0 0 1
v -0.8 1 1.03923 1 0 0
v -0.5 1 1.21244 1 0 0
v -0.5 1 0.866025 1 0 0
v -0.5 1 1.21244 0 0 1
v -0.8 1 1.03923 0 0 1
v -0.8 0 1.03923 0 0 1
v -0.5 0 1.21244 0 0 1
v 2.5 1 -1.21244 1 0 0
v 2.5 1 -1.21244 0 0 1
v 2.5 0 -1.21244 0 0 1
v 1 1 -1.73205 0 1 0
v 2.5 1 -0.866025 0 1 0
v 2.5 1 -1.21244 0 1 0
v 1.3 1 -1.90526 0 1 0
v 1.3 0 -1.90526 0 0 1
v 1.3 1 -1.90526 0 0 1
v 1 1 2.07846 1 0 0
v 1.3 1 1.90526 1 0 0
v 1 1 1.73205 1 0 0
v 1.3 1 1.90526 0 0 1
v 1 1 2.07846 0 0 1
v 1 0 2.07846 0 0 1
v 1.3 0 1.90526 0 0 1
v -2.3 1 -1.90526 1 0 0
v -2.3 1 -1.55885 1 0 0
v -2 1 -1.73205 1 0 0
v -2.3 1 -1.55885 0 0 1
v -2.3 1 -1.90526 0 0 1
v -2.3 0 -1.90526 0 0 1
v -2.3 0 -1.55885 0 0 1
v -2 1 -2.07846 1 0 0
v -2 1 -2.07846 0 0 1
v -2 0 -2.07846 0 0 1
v 1.3 1 -1.90526 1 0 0
v 1 1 -2.07846 1 0 0
v 1 1 -1.73205 1 0 0
v 1 1 -2.07846 0 0 1
v 1 0 -2.07846 0 0 1
v 0.7 1 1.90526 1 0 0
v 0.7 1 1.90526 0 0 1
v 0.7 0 1.90526 0 0 1
v 2.5 1 0.866025 0 1 0
v 2.8 1 0.69282 0 1 0
v 2.8 1 -0.69282 0 1 0
v 2.8 0 0.69282 0 0 1
v 2.8 1 0.69282 0 0 1
v 1 1 1.73205 0 1 0
v 1.3 1 1.90526 0 1 0
v 2.5 1 1.21244 0 1 0
v -0.5 1 -0.866025 0 1 0
v -2 1 -1.73205 0 1 0
v -2 1 -1.38564 0 1 0
v -0.8 1 -0.69282 0 1 0
v -2 0 -1.38564 0 0 1
v -0.8 0 -0.69282 0 0 1
v -0.8 1 -0.69282 0 0 1
v -2 1 -1.38564 0 0 1
v -0.5 1 -2.59808 0 1 0
v -0.8 1 -2.77128 0 1 0
v -2 1 -2.07846 0 1 0
v -0.2 1 -2.77128 1 0 0
v -0.2 1 -2.77128 0 0 1
v -0.2 0 -2.77128 0 0 1
v -0.8 1 0.69282 1 0 0
v -0.8 1 0.69282 0 0 1
v -0.8 0 0.69282 0 0 1
v 2.8 1 0.69282 1 0 0
v -0.5 1 0.866025 0 1 0
v -0.5 1 1.21244 0 1 0
v 0.7 1 1.90526 0 1 0
v -0.8 1 0.69282 0 1 0
v 1 1 -2.07846 0 1 0
v -0.2 1 -2.77128 0 1 0
v -2 1 -1.38564 1 0 0

vt 1 1
vt 0 0.5
vt 1 0
vt 0 0
vt 0 1
vt 0 0.5
vt 1 0.5
vt 1 0.5
vt 0 0.833333
vt 1 0.333333
vt 0.2 1
vt 1 0.5
vt 0 0.5
vt 1 0.5
vt 0 0.5
vt 1 0.1
vt 1 0.9
vt 0 0.166667
vt 0.2 0
vt 1 0.666667
vt 1 0.166667
vt 0 0.666667
vt 0.8 0
vt 1 0.833333
vt 0.8 1
vt 0 0.333333
vt 1 0.5
vt 0 0.5
vt 0 0.666667
vt 0.8 0
vt 0 0.9
vt 0 0.1
vt 1 0.333333
vt 0 0.5

f 1/1 2/2 3/3
f 4/4 5/3 6/1 7/5
f 8/3 9/1 10/6
f 11/1 12/3 13/4 14/5
f 15/4 16/7 17/5
f 18/3 19/4 20/5 21/1
f 22/6 23/3 24/1
f 25/3 26/4 27/5 28/1
f 9/8 29/5 10/4
f 30/4 11/3 14/1 31/5
f 32/9 33/3 34/10 35/11
f 31/1 36/5 37/4 30/3
f 38/4 39/12 40/5
f 41/3 42/4 43/5 44/1
f 45/5 46/4 47/12
f 48/3 49/1 50/5 51/4
f 52/1 45/13 47/3
f 49/4 53/3 54/1 50/5
f 55/14 56/5 57/4
f 58/4 37/3 36/1 59/5
f 60/15 38/3 40/1
f 42/3 61/4 62/5 43/1
f 33/5 63/4 64/16 65/17
f 66/4 13/5 12/1 67/3
f 63/1 68/18 69/19 70/20
f 44/5 20/1 19/3 41/4
f 71/21 72/5 73/22 74/23
f 75/5 76/1 77/3 78/4
f 72/4 79/24 80/25 81/26
f 7/1 54/5 53/4 4/3
f 82/27 1/5 3/4
f 5/4 83/3 84/1 6/5
f 85/5 22/4 24/8
f 26/3 86/1 87/5 27/4
f 16/3 88/1 17/28
f 67/1 18/3 21/4 66/5
f 68/21 89/5 90/29 91/30
f 28/5 62/1 61/3 25/4
f 89/3 71/1 74/31 92/32
f 76/5 87/4 86/3 77/1
f 79/9 32/3 93/33 94/11
f 59/1 84/5 83/4 58/3
f 46/34 95/3 47/1
f 78/3 48/4 51/5 75/1