v 2.5 1 1.21244 1 0 0
v 2.8 1 1.03923 1 0 0
v 2.5 1 0.866025 1 0 0
v 2.8 1 1.03923 0 0 1
v 2.5 1 1.21244 0 0 1
v 2.5 0 1.21244 0 0 1
v 2.8 0 1.03923 0 0 1
v -2.3 1 0.173205 1 0 0
v -2 1 0.34641 1 0 0
v -2 1 0 1 0 0
v -2 1 0.34641 0 0 1
v -2.3 1 0.173205 0 0 1
v -2.3 0 0.173205 0 0 1
v -2 0 0.34641 0 0 1
v -0.5 1 -0.866025 1 0 0
v -1.7 1 0.173205 1 0 0
v -0.5 1 -0.519615 1 0 0
v -1.7 0 0.173205 0 0 1
v -0.5 0 -0.519615 0 0 1
v -0.5 1 -0.519615 0 0 1
v -1.7 1 0.173205 0 0 1
v 0.7 1 0.173205 1 0 0
v 1 1 0.34641 1 0 0
v 1 1 0 1 0 0
v 1 1 0.34641 0 0 1
v 0.7 1 0.173205 0 0 1
v 0.7 0 0.173205 0 0 1
v 1 0 0.34641 0 0 1
v 4.3 1 -0.173205 1 0 0
v 4 1 -0.34641 1 0 0
v 4 1 0 1 0 0
v 4 1 -0.34641 0 0 1
v 4.3 1 -0.173205 0 0 1
v 4.3 0 -0.173205 0 0 1
v 4 0 -0.34641 0 0 1
v 4.3 1 0.173205 1 0 0
v 4.3 1 0.173205 0 0 1
v 4.3 0 0.173205 0 0 1
v 1.3 1 -1.90526 1 0 0
v 1 1 -2.07846 1 0 0
v 1 1 -1.73205 1 0 0
v 1 1 -2.07846 0 0 1
v 1.3 1 -1.90526 0 0 1
v 1.3 0 -1.90526 0 0 1
v 1 0 -2.07846 0 0 1
v 2.5 1 -0.866025 1 0 0
v 2.8 1 -1.03923 1 0 0
v 2.8 0 -1.03923 0 0 1
v 2.8 1 -1.03923 0 0 1
v -2 1 -2.07846 1 0 0
v -2.3 1 -1.90526 1 0 0
v -2 1 -1.73205 1 0 0
v -2.3 1 -1.90526 0 0 1
v -2 1 -2.07846 0 0 1
v -2 0 -2.07846 0 0 1
v -2.3 0 -1.90526 0 0 1
v -2.3 1 -0.173205 1 0 0
v -2.3 1 -0.173205 0 0 1
v -2.3 0 -0.173205 0 0 1
v 2.5 1 -1.21244 1 0 0
v 2.5 0 -1.21244 0 0 1
v 2.5 1 -1.21244 0 0 1
v 2.2 1 1.03923 1 0 0
v 2.2 1 1.03923 0 0 1
v 2.2 0 1.03923 0 0 1
v -2.3 1 -1.55885 1 0 0
v -2.3 0 -1.55885 0 0 1
v -2.3 1 -1.55885 0 0 1
v -0.5 1 -2.59808 1 0 0
v -0.8 1 -2.77128 1 0 0
v -0.8 0 -2.77128 0 0 1
v -0.8 1 -2.77128 0 0 1
v -0.2 1 -2.77128 1 0 0
v -0.2 0 -2.77128 0 0 1
v -0.2 1 -2.77128 0 0 1
v 4 1 0.34641 1 0 0
v 4 0 0.34641 0 0 1
v 4 1 0.34641 0 0 1
v -0.5 1 -2.94449 1 0 0
v -0.5 1 -2.94449 0 0 1
v -0.5 0 -2.94449 0 0 1
v 2.5 1 0.866025 0 1 0
v 4 1 0 0 1 0
v 2.5 1 -0.866025 0 1 0
v 1 1 0 0 1 0
v 1 1 -1.73205 0 1 0
v -0.5 1 -0.866025 0 1 0
v -0.5 1 -2.59808 0 1 0
v -2 1 -1.73205 0 1 0
v -2 1 0 0 1 0

f 1 2 3
f 4 5 6 7
f 8 9 10
f 11 12 13 14
f 15 10 16 17
f 18 19 20 21
f 22 23 24
f 25 26 27 28
f 24 15 17 22
f 19 27 26 20
f 29 30 31
f 32 33 34 35
f 36 29 31
f 33 37 38 34
f 39 40 41
f 42 43 44 45
f 46 31 30 47
f 35 48 49 32
f 50 51 52
f 53 54 55 56
f 57 8 10
f 12 58 59 13
f 9 16 10
f 21 11 14 18
f 41 46 60 39
f 61 44 43 62
f 63 1 3
f 5 64 65 6
f 10 52 66 57
f 67 59 58 68
f 47 60 46
f 62 49 48 61
f 52 69 70 50
f 71 55 54 72
f 69 41 40 73
f 45 74 75 42
f 31 3 2 76
f 7 77 78 4
f 73 79 69
f 80 75 74 81
f 79 70 69
f 72 80 81 71
f 3 24 23 63
f 28 65 64 25
f 76 36 31
f 37 78 77 38
f 51 66 52
f 68 53 56 67
f 82 83 84
f 84 85 82
f 85 84 86
f 86 87 85
f 87 86 88
f 88 89 87
f 90 87 89