v -0.5 1 -2.94449 1 0 0
v -0.8 1 -2.77128 1 0 0
v -0.5 1 -2.59808 1 0 0
v -0.8 1 -2.77128 0 0 1
v -0.5 1 -2.94449 0 0 1
v -0.5 0 -2.94449 0 0 1
v -0.8 0 -2.77128 0 0 1
v 2.8 1 -0.69282 1 0 0
v 2.8 1 -1.03923 1 0 0
v 2.5 1 -0.866025 1 0 0
v 2.8 1 -1.03923 0 0 1
v 2.8 1 -0.69282 0 0 1
v 2.8 0 -0.69282 0 0 1
v 2.8 0 -1.03923 0 0 1
v 2.5 1 1.21244 1 0 0
v 2.8 1 1.03923 1 0 0
v 2.5 1 0.866025 1 0 0
v 2.8 1 1.03923 0 0 1
v 2.5 1 1.21244 0 0 1
v 2.5 0 1.21244 0 0 1
v 2.8 0 1.03923 0 0 1
v 2.5 1 -1.21244 1 0 0
v 2.2 1 -1.03923 1 0 0
v 2.2 1 -1.03923 0 0 1
v 2.5 1 -1.21244 0 0 1
v 2.5 0 -1.21244 0 0 1
v 2.2 0 -1.03923 0 0 1
v -2.3 1 -1.90526 1 0 0
v -2.3 1 -1.55885 1 0 0
v -2 1 -1.73205 1 0 0
v -2.3 1 -1.55885 0 0 1
v -2.3 1 -1.90526 0 0 1
v -2.3 0 -1.90526 0 0 1
v -2.3 0 -1.55885 0 0 1
v 1 1 2.07846 1 0 0
v 1.3 1 1.90526 1 0 0
v 1 1 1.73205 1 0 0
v 1.3 1 1.90526 0 0 1
v 1 1 2.07846 0 0 1
v 1 0 2.07846 0 0 1
v 1.3 0 1.90526 0 0 1
v -0.5 1 -0.866025 0 1 0
v 1 1 0 0 1 0
v 1 1 -0.34641 0 1 0
v -0.2 1 -1.03923 0 1 0
v 1 0 -0.34641 0 0 1
v -0.2 0 -1.03923 0 0 1
v -0.2 1 -1.03923 0 0 1
v 1 1 -0.34641 0 0 1
v -2 1 -2.07846 1 0 0
v -2 1 -2.07846 0 0 1
v -2 0 -2.07846 0 0 1
v -0.8 1 1.03923 1 0 0
v -0.5 1 1.21244 1 0 0
v -0.5 1 0.866025 1 0 0
v -0.5 1 1.21244 0 0 1
v -0.8 1 1.03923 0 0 1
v -0.8 0 1.03923 0 0 1
v -0.5 0 1.21244 0 0 1
v 0.7 1 1.90526 1 0 0
v 0.7 1 1.90526 0 0 1
v 0.7 0 1.90526 0 0 1
v 2.5 1 -0.866025 0 1 0
v 2.5 1 0.866025 0 1 0
v 2.8 1 0.69282 0 1 0
v 2.8 1 -0.69282 0 1 0
v 2.8 0 0.69282 0 0 1
v 2.8 1 0.69282 0 0 1
v 1 1 1.73205 0 1 0
v 1.3 1 1.90526 0 1 0
v 2.5 1 1.21244 0 1 0
v -2.3 1 0.173205 1 0 0
v -2 1 0.34641 1 0 0
v -2 1 0 1 0 0
v -2 1 0.34641 0 0 1
v -2.3 1 0.173205 0 0 1
v -2.3 0 0.173205 0 0 1
v -2 0 0.34641 0 0 1
v -2 1 -1.73205 0 1 0
v -0.5 1 -2.59808 0 1 0
v -0.8 1 -2.77128 0 1 0
v -2 1 -2.07846 0 1 0
v -2.3 1 -0.173205 1 0 0
v -2.3 1 -0.173205 0 0 1
v -2.3 0 -0.173205 0 0 1
v -0.5 1 0.866025 0 1 0
v -2 1 0 0 1 0
v -2 1 0.34641 0 1 0
v -0.8 1 1.03923 0 1 0
v -0.2 1 -2.42487 1 0 0
v -0.2 1 -2.77128 1 0 0
v -0.2 1 -2.77128 0 0 1
v -0.2 1 -2.42487 0 0 1
v -0.2 0 -2.42487 0 0 1
v -0.2 0 -2.77128 0 0 1
v 2.8 1 0.69282 1 0 0
v 2.2 1 -1.03923 0 1 0
v -0.2 1 -2.42487 0 1 0
v -0.5 1 1.21244 0 1 0
v 0.7 1 1.90526 0 1 0
v -2.3 1 -1.55885 0 1 0
v -2.3 1 -0.173205 0 1 0

vt 1 1
vt 0 0.5
vt 1 0
vt 0 0
vt 0 1
vt 0 0.5
vt 1 0.5
vt 0 0.5
vt 1 0.5
vt 1 0.5
vt 0 0.833333
vt 1 0.333333
vt 0.2 1
vt 0 0.5
vt 0 0.5
vt 1 0.1
vt 1 0.9
vt 0 0.166667
vt 0.2 0
vt 1 0.666667
vt 0 0.5
vt 1 0.833333
vt 0.8 1
vt 0 0.333333
vt 1 0.5
vt 1 0.166667
vt 0 0.666667
vt 0.8 0
vt 1 0.5
vt 1 0.833333
vt 0 0.333333
vt 1 0.1
vt 1 0.9
vt 0 0.666667
vt 0.8 0
vt 0 0.9
vt 0 0.1

f 1/1 2/2 3/3
f 4/4 5/3 6/1 7/5
f 8/3 9/1 10/6
f 11/1 12/3 13/4 14/5
f 15/4 16/7 17/5
f 18/3 19/4 20/5 21/1
f 22/1 23/8 10/3
f 24/4 25/3 26/1 27/5
f 9/9 22/5 10/4
f 25/4 11/3 14/1 26/5
f 28/5 29/4 30/10
f 31/3 32/1 33/5 34/4
f 35/4 36/10 37/5
f 38/3 39/4 40/5 41/1
f 42/11 43/3 44/12 45/13
f 46/1 47/5 48/4 49/3
f 50/1 28/14 30/3
f 32/4 51/3 52/1 33/5
f 53/6 54/3 55/1
f 56/3 57/4 58/5 59/1
f 60/15 35/3 37/1
f 39/3 61/4 62/5 40/1
f 63/5 64/4 65/16 66/17
f 67/4 13/5 12/1 68/3
f 64/1 69/18 70/19 71/20
f 41/5 20/1 19/3 38/4
f 72/21 73/3 74/1
f 75/3 76/4 77/5 78/1
f 79/4 80/22 81/23 82/24
f 7/1 52/5 51/4 4/3
f 83/5 72/4 74/25
f 76/3 84/1 85/5 77/4
f 86/26 87/5 88/27 89/28
f 78/5 58/1 57/3 75/4
f 90/3 91/1 3/21
f 92/1 93/3 94/4 95/5
f 91/29 1/5 3/4
f 5/4 92/3 95/1 6/5
f 16/3 96/1 17/8
f 68/1 18/3 21/4 67/5
f 43/4 63/30 97/23 44/31
f 27/1 46/5 49/4 24/3
f 80/5 42/4 45/32 98/33
f 47/4 94/5 93/1 48/3
f 69/26 86/5 99/34 100/35
f 59/5 62/1 61/3 56/4
f 87/3 79/1 101/36 102/37
f 34/5 85/4 84/3 31/1