v 1 0 -1.73205 1 0.52549 0.439216
v -0.5 0 -2.59808 1 0.52549 0.439216
v -0.5 0.6 -2.59808 1 0.52549 0.439216
v -0.5 0 -0.866025 1 0.52549 0.439216
v -0.5 0.6 -0.866025 1 0.52549 0.439216
v 1 0 -1.73205 1 0.52549 0.439216
v 1 0 -1.6e-11 1 0.52549 0.439216
v -0.5 0 -0.866025 1 0.52549 0.439216
v -0.5 0.6 -0.866025 1 0.52549 0.439216
v -0.5 0 0.866025 1 0.52549 0.439216
v -0.5 0 -0.866025 1 0.52549 0.439216
v 1 0 -8e-12 1 0.52549 0.439216
v 1 0 8e-12 1 0.52549 0.439216
v 1 0 1.73205 1 0.52549 0.439216
v -0.5 0 0.866025 1 0.52549 0.439216
v -0.5 0.6 0.866025 1 0.52549 0.439216
v -0.5 0.6 -0.866025 1 0.52549 0.439216
v -0.5 0.6 0.866025 1 0.52549 0.439216
v 1 0 1.73205 1 0.52549 0.439216
v -0.5 0.6 0.866025 1 0.52549 0.439216
v -0.5 0.6 2.59808 1 0.52549 0.439216
v -0.5 0 2.59808 1 0.52549 0.439216
v -0.5 0 0.866025 1 0.52549 0.439216

f 1 2 3
f 4 2 1
f 2 4 5 3
f 1 3 5
f 6 7 8
f 9 7 6
f 10 11 12
f 13 14 15
f 11 10 16 17
f 12 17 16
f 18 14 13
f 19 20 21
f 22 23 19
f 23 22 21 20
f 22 19 21