v -2.3 1 3.2909 1 0 0
v -2.3 1 3.63731 1 0 0
v -2 1 3.4641 1 0 0
v -2.3 1 3.63731 0 0 1
v -2.3 1 3.2909 0 0 1
v -2.3 0 3.2909 0 0 1
v -2.3 0 3.63731 0 0 1
v -2 1 3.81051 1 0 0
v -1.7 1 3.63731 1 0 0
v -1.7 1 3.63731 0 0 1
v -2 1 3.81051 0 0 1
v -2 0 3.81051 0 0 1
v -1.7 0 3.63731 0 0 1
v 2.5 1 1.21244 1 0 0
v 2.8 1 1.03923 1 0 0
v 2.5 1 0.866025 1 0 0
v 2.8 1 1.03923 0 0 1
v 2.5 1 1.21244 0 0 1
v 2.5 0 1.21244 0 0 1
v 2.8 0 1.03923 0 0 1
v -0.5 1 2.94449 1 0 0
v -0.2 1 2.77128 1 0 0
v -0.5 1 2.59808 1 0 0
v -0.2 1 2.77128 0 0 1
v -0.5 1 2.94449 0 0 1
v -0.5 0 2.94449 0 0 1
v -0.2 0 2.77128 0 0 1
v 1 1 2.07846 1 0 0
v 1.3 1 1.90526 1 0 0
v 1 1 1.73205 1 0 0
v 1.3 1 1.90526 0 0 1
v 1 1 2.07846 0 0 1
v 1 0 2.07846 0 0 1
v 1.3 0 1.90526 0 0 1
v -0.5 1 -0.866025 0 1 0
v 1 1 0 0 1 0
v 1 1 -0.34641 0 1 0
v -0.2 1 -1.03923 0 1 0
v 1 0 -0.34641 0 0 1
v -0.2 0 -1.03923 0 0 1
v -0.2 1 -1.03923 0 0 1
v 1 1 -0.34641 0 0 1
v -0.5 1 2.59808 0 1 0
v -2 1 3.4641 0 1 0
v -1.7 1 3.63731 0 1 0
v -0.5 1 2.94449 0 1 0
v -2.3 1 1.55885 1 0 0
v -2.3 1 1.90526 1 0 0
v -2 1 1.73205 1 0 0
v -2.3 1 1.90526 0 0 1
v -2.3 1 1.55885 0 0 1
v -2.3 0 1.55885 0 0 1
v -2.3 0 1.90526 0 0 1
v -2 1 1.73205 0 1 0
v -2.3 1 1.90526 0 1 0
v -2.3 1 3.2909 0 1 0
v 1 1 1.73205 0 1 0
v -0.2 1 2.77128 0 1 0
v 1 1 2.07846 0 1 0
v 2.8 1 0.69282 1 0 0
v 2.5 1 0.519615 1 0 0
v 2.5 1 0.519615 0 0 1
v 2.8 1 0.69282 0 0 1
v 2.8 0 0.69282 0 0 1
v 2.5 0 0.519615 0 0 1
v 2.5 1 0.866025 0 1 0
v 2.5 1 0.519615 0 1 0
v 1.3 1 -0.173205 0 1 0
v 1.3 0 -0.173205 0 0 1
v 1.3 1 -0.173205 0 0 1
v 1.3 1 -0.173205 1 0 0
v 1 1 -0.34641 1 0 0
v 1 1 0 1 0 0
v -2 1 0 0 1 0
v -0.8 1 -1.03923 0 1 0
v -2 1 -0.34641 0 1 0
v -0.8 0 -1.03923 0 0 1
v -2 0 -0.34641 0 0 1
v -2 1 -0.34641 0 0 1
v -0.8 1 -1.03923 0 0 1
v 1.3 1 1.90526 0 1 0
v 2.5 1 1.21244 0 1 0
v -2.3 1 0.173205 0 1 0
v -2.3 1 1.55885 0 1 0
v -2.3 0 0.173205 0 0 1
v -2.3 1 0.173205 0 0 1
v -2.3 1 -0.173205 1 0 0
v -2.3 1 0.173205 1 0 0
v -2 1 0 1 0 0
v -2.3 1 -0.173205 0 0 1
v -2.3 0 -0.173205 0 0 1
v -0.2 1 -1.03923 1 0 0
v -0.5 1 -1.21244 1 0 0
v -0.5 1 -0.866025 1 0 0
v -0.5 1 -1.21244 0 0 1
v -0.5 0 -1.21244 0 0 1
v -0.8 1 -1.03923 1 0 0
v -2 1 -0.34641 1 0 0

vt 0 1
vt 0 0
vt 1 0.5
vt 1 0
vt 1 1
vt 1 0.5
vt 1 0.5
vt 1 0.5
vt 1 0.5
vt 0 0.833333
vt 1 0.333333
vt 0.2 1
vt 0 0.166667
vt 0.2 0
vt 1 0.666667
vt 1 0.5
vt 0 0.9
vt 0 0.1
vt 1 0.666667
vt 1 0.333333
vt 1 0.833333
vt 0.8 1
vt 0 0.333333
vt 0 0.166667
vt 1 0.666667
vt 0 0.9
vt 0 0.1
vt 0 0.5
vt 1 0.5
vt 0 0.5

f 1/1 2/2 3/3
f 4/4 5/5 6/1 7/2
f 8/2 9/6 3/1
f 10/4 11/2 12/1 13/5
f 14/2 15/7 16/1
f 17/4 18/2 19/1 20/5
f 21/2 22/8 23/1
f 24/4 25/2 26/1 27/5
f 28/2 29/9 30/1
f 31/4 32/2 33/1 34/5
f 35/10 36/4 37/11 38/12
f 39/5 40/1 41/2 42/4
f 43/5 44/13 45/14 46/15
f 13/1 26/5 25/4 10/2
f 47/1 48/2 49/16
f 50/4 51/5 52/1 53/2
f 44/4 54/5 55/17 56/18
f 53/1 6/2 5/4 50/5
f 57/5 43/13 58/14 59/19
f 27/1 33/5 32/4 24/2
f 60/7 61/1 16/2
f 62/2 63/4 64/5 65/1
f 36/10 66/4 67/20 68/12
f 65/5 69/1 70/2 62/4
f 71/6 72/1 73/2
f 42/2 70/4 69/5 39/1
f 74/2 35/21 75/22 76/23
f 77/5 78/1 79/2 80/4
f 66/5 57/24 81/14 82/25
f 34/1 19/5 18/4 31/2
f 54/4 74/5 83/26 84/27
f 85/1 52/2 51/4 86/5
f 87/1 88/2 89/6
f 86/4 90/5 91/1 85/2
f 15/4 60/5 16/28
f 63/5 17/4 20/2 64/1
f 92/29 93/1 94/2
f 95/2 41/4 40/5 96/1
f 2/30 8/4 3/5
f 11/4 4/2 7/1 12/5
f 93/5 97/28 94/4
f 80/2 95/4 96/5 77/1
f 98/5 87/30 89/4
f 90/2 79/4 78/5 91/1