v -0.8 1 1.03923 1 0 0
v -0.5 1 1.21244 1 0 0
v -0.5 1 0.866025 1 0 0
v -0.5 1 1.21244 0 0 1
v -0.8 1 1.03923 0 0 1
v -0.8 0 1.03923 0 0 1
v -0.5 0 1.21244 0 0 1
v -0.2 1 -2.77128 1 0 0
v -0.5 1 -2.94449 1 0 0
v -0.5 1 -2.59808 1 0 0
v -0.5 1 -2.94449 0 0 1
v -0.2 1 -2.77128 0 0 1
v -0.2 0 -2.77128 0 0 1
v -0.5 0 -2.94449 0 0 1
v 2.5 1 0.866025 0 1 0
v 1 1 1.73205 0 1 0
v 1.3 1 1.90526 0 1 0
v 2.5 1 1.21244 0 1 0
v 1.3 0 1.90526 0 0 1
v 2.5 0 1.21244 0 0 1
v 2.5 1 1.21244 0 0 1
v 1.3 1 1.90526 0 0 1
v 2.8 1 -1.03923 1 0 0
v 2.5 1 -1.21244 1 0 0
v 2.5 1 -0.866025 1 0 0
v 2.5 1 -1.21244 0 0 1
v 2.8 1 -1.03923 0 0 1
v 2.8 0 -1.03923 0 0 1
v 2.5 0 -1.21244 0 0 1
v 1 1 -1.73205 0 1 0
v 2.5 1 -0.866025 0 1 0
v 2.5 1 -1.21244 0 1 0
v 1.3 1 -1.90526 0 1 0
v 1.3 0 -1.90526 0 0 1
v 1.3 1 -1.90526 0 0 1
v 2.8 1 -0.69282 1 0 0
v 2.8 1 -0.69282 0 0 1
v 2.8 0 -0.69282 0 0 1
v -2 1 -2.07846 1 0 0
v -2.3 1 -1.90526 1 0 0
v -2 1 -1.73205 1 0 0
v -2.3 1 -1.90526 0 0 1
v -2 1 -2.07846 0 0 1
v -2 0 -2.07846 0 0 1
v -2.3 0 -1.90526 0 0 1
v 1.3 1 -1.90526 1 0 0
v 1 1 -2.07846 1 0 0
v 1 1 -1.73205 1 0 0
v 1 1 -2.07846 0 0 1
v 1 0 -2.07846 0 0 1
v -0.8 1 -2.77128 1 0 0
v -0.8 1 -2.77128 0 0 1
v -0.8 0 -2.77128 0 0 1
v -0.5 1 -2.59808 0 1 0
v 1 1 -2.07846 0 1 0
v -0.2 1 -2.77128 0 1 0
v -2.3 1 -1.55885 1 0 0
v -2 1 -1.38564 1 0 0
v -2 1 -1.38564 0 0 1
v -2.3 1 -1.55885 0 0 1
v -2.3 0 -1.55885 0 0 1
v -2 0 -1.38564 0 0 1
v -0.8 1 0.69282 1 0 0
v -0.8 1 0.69282 0 0 1
v -0.8 0 0.69282 0 0 1
v 2.8 1 0.69282 0 1 0
v 2.8 1 -0.69282 0 1 0
v 2.8 0 0.69282 0 0 1
v 2.8 1 0.69282 0 0 1
v -2 1 -1.73205 0 1 0
v -0.8 1 -2.77128 0 1 0
v -2 1 -2.07846 0 1 0
v -0.5 1 -0.866025 0 1 0
v -2 1 -1.38564 0 1 0
v -0.8 1 -0.69282 0 1 0
v -0.8 0 -0.69282 0 0 1
v -0.8 1 -0.69282 0 0 1
v 2.8 1 1.03923 1 0 0
v 2.8 1 0.69282 1 0 0
v 2.5 1 0.866025 1 0 0
v 2.8 1 1.03923 0 0 1
v 2.8 0 1.03923 0 0 1
v -0.5 1 0.866025 0 1 0
v -0.5 1 1.21244 0 1 0
v 0.7 1 1.90526 0 1 0
v 0.7 0 1.90526 0 0 1
v 0.7 1 1.90526 0 0 1
v 0.7 1 1.90526 1 0 0
v 1 1 2.07846 1 0 0
v 1 1 1.73205 1 0 0
v 1 1 2.07846 0 0 1
v 1 0 2.07846 0 0 1
v -0.8 1 0.69282 0 1 0
v 2.5 1 1.21244 1 0 0
v 1.3 1 1.90526 1 0 0

vt 0 0.5
vt 1 0
vt 1 1
vt 0 0
vt 0 1
vt 1 0.5
vt 0 0.166667
vt 0.2 0
vt 1 0.666667
vt 1 0.5
vt 0 0.833333
vt 1 0.333333
vt 0.2 1
vt 0 0.5
vt 1 0.5
vt 0 0.5
vt 1 0.333333
vt 0 0.5
vt 1 0.1
vt 1 0.9
vt 1 0.833333
vt 0.8 1
vt 0 0.333333
vt 1 0.166667
vt 0 0.666667
vt 0.8 0
vt 0 0.5
vt 0 0.666667
vt 0.8 0
vt 0 0.5
vt 0 0.9
vt 0 0.1
vt 1 0.5
vt 1 0.5

f 1/1 2/2 3/3
f 4/2 5/4 6/5 7/3
f 8/6 9/5 10/4
f 11/4 12/2 13/3 14/5
f 15/3 16/7 17/8 18/9
f 19/5 20/3 21/2 22/4
f 23/10 24/5 25/4
f 26/4 27/2 28/3 29/5
f 30/11 31/2 32/12 33/13
f 29/3 34/5 35/4 26/2
f 36/2 23/3 25/1
f 27/3 37/2 38/4 28/5
f 39/3 40/14 41/2
f 42/4 43/2 44/3 45/5
f 46/15 47/5 48/4
f 49/4 35/2 34/3 50/5
f 9/3 51/16 10/2
f 52/4 11/2 14/3 53/5
f 54/11 30/2 55/17 56/13
f 50/3 13/5 12/4 49/2
f 57/18 58/2 41/3
f 59/2 60/4 61/5 62/3
f 63/5 1/4 3/10
f 5/2 64/3 65/5 6/4
f 31/5 15/4 66/19 67/20
f 68/4 38/5 37/3 69/2
f 70/4 54/21 71/22 72/23
f 53/3 44/5 43/4 52/2
f 73/24 70/5 74/25 75/26
f 62/5 76/3 77/2 59/4
f 78/2 79/3 80/27
f 69/3 81/2 82/4 68/5
f 16/24 83/5 84/28 85/29
f 7/5 86/3 87/2 4/4
f 88/30 89/2 90/3
f 91/2 87/4 86/5 92/3
f 83/2 73/3 75/31 93/32
f 76/5 65/4 64/2 77/3
f 94/4 78/33 80/5
f 81/2 21/4 20/5 82/3
f 40/5 57/4 41/34
f 60/2 42/3 45/5 61/4
f 89/4 95/34 90/5
f 22/2 91/4 92/5 19/3