v -0.142857 0 -0.0274929 0.396078 0.262745 0.129412
v -0.0714286 0 -0.151211 0.396078 0.262745 0.129412
v 0.0714286 0 -0.151211 0.396078 0.262745 0.129412
v 0.142857 0 -0.0274929 0.396078 0.262745 0.129412
v 0.0714286 0 0.096225 0.396078 0.262745 0.129412
v -0.0714286 0 0.096225 0.396078 0.262745 0.129412
v 0.0495592 0.25 -0.113332 0.60404 0.672727 0.741414
v -0.0495592 0.25 -0.113332 0.60404 0.672727 0.741414
v -0.0495592 0.25 -0.113332 0.60404 0.672727 0.741414
v -0.0991185 0.25 -0.0274929 0.60404 0.672727 0.741414
v -0.0991185 0.25 -0.0274929 0.60404 0.672727 0.741414
v -0.0495592 0.25 0.0583463 0.60404 0.672727 0.741414
v 0.0495592 0.25 0.0583463 0.60404 0.672727 0.741414
v -0.0495592 0.25 0.0583463 0.60404 0.672727 0.741414
v 0.0991185 0.25 -0.0274929 0.60404 0.672727 0.741414
v 0.0495592 0.25 -0.113332 0.60404 0.672727 0.741414
v 0.26262 0.25 0.247436 0.903529 0.793333 0.746667
v 0.191192 0.25 0.123718 0.903529 0.793333 0.746667
v 0.214286 0.325 0.123718 0.903529 0.793333 0.746667
v 0.285714 0.325 0.247436 0.903529 0.793333 0.746667
v 0.274167 0.25 -0.02 0.903529 0.793333 0.746667
v 0.285714 0.325 0 0.903529 0.793333 0.746667
v 0.417024 0.25 -0.02 0.903529 0.793333 0.746667
v 0.428571 0.325 0 0.903529 0.793333 0.746667
v 0.476906 0.25 -0.123718 0.903529 0.793333 0.746667
v 0.5 0.325 -0.123718 0.903529 0.793333 0.746667
v 0.417024 0.25 -0.227436 0.903529 0.793333 0.746667
v 0.428571 0.325 -0.247436 0.903529 0.793333 0.746667
v 0.274167 0.25 -0.227436 0.903529 0.793333 0.746667
v 0.285714 0.325 -0.247436 0.903529 0.793333 0.746667
v 0.202739 0.25 -0.351154 0.903529 0.793333 0.746667
v 0.214286 0.325 -0.371154 0.903529 0.793333 0.746667
v 0.0598816 0.25 -0.351154 0.903529 0.793333 0.746667
v 0.0714286 0.325 -0.371154 0.903529 0.793333 0.746667
v -0.011547 0.25 -0.474872 0.903529 0.793333 0.746667
v 0 0.325 -0.494872 0.903529 0.793333 0.746667
v -0.13131 0.25 -0.474872 0.903529 0.793333 0.746667
v -0.142857 0.325 -0.494872 0.903529 0.793333 0.746667
v -0.191192 0.25 -0.371154 0.903529 0.793333 0.746667
v -0.214286 0.325 -0.371154 0.903529 0.793333 0.746667
v -0.119763 0.25 -0.247436 0.903529 0.793333 0.746667
v -0.142857 0.325 -0.247436 0.903529 0.793333 0.746667
v -0.202739 0.25 -0.103718 0.903529 0.793333 0.746667
v -0.345596 0.25 -0.103718 0.903529 0.793333 0.746667
v -0.357143 0.325 -0.123718 0.903529 0.793333 0.746667
v -0.214286 0.325 -0.123718 0.903529 0.793333 0.746667
v -0.405477 0.25 0 0.903529 0.793333 0.746667
v -0.428571 0.325 0 0.903529 0.793333 0.746667
v -0.334049 0.25 0.123718 0.903529 0.793333 0.746667
v -0.357143 0.325 0.123718 0.903529 0.793333 0.746667
v -0.405477 0.25 0.247436 0.903529 0.793333 0.746667
v -0.428571 0.325 0.247436 0.903529 0.793333 0.746667
v -0.345596 0.25 0.351154 0.903529 0.793333 0.746667
v -0.357143 0.325 0.371154 0.903529 0.793333 0.746667
v -0.225833 0.25 0.351154 0.903529 0.793333 0.746667
v -0.214286 0.325 0.371154 0.903529 0.793333 0.746667
v -0.154404 0.25 0.227436 0.903529 0.793333 0.746667
v -0.142857 0.325 0.247436 0.903529 0.793333 0.746667
v 0.011547 0.25 0.227436 0.903529 0.793333 0.746667
v 0 0.325 0.247436 0.903529 0.793333 0.746667
v 0.0829756 0.25 0.351154 0.903529 0.793333 0.746667
v 0.0714286 0.325 0.371154 0.903529 0.793333 0.746667
v 0.202739 0.25 0.351154 0.903529 0.793333 0.746667
v 0.214286 0.325 0.371154 0.903529 0.793333 0.746667
v 0.152702 0.475 0.123718 0.718431 0.662353 0.655686
v 0.254922 0.475 -0.0533333 0.718431 0.662353 0.655686
v 0.254922 0.475 -0.0533333 0.718431 0.662353 0.655686
v 0.397779 0.475 -0.0533333 0.718431 0.662353 0.655686
v 0.397779 0.475 -0.0533333 0.718431 0.662353 0.655686
v 0.438416 0.475 -0.123718 0.718431 0.662353 0.655686
v 0.22413 0.475 0.247436 0.718431 0.662353 0.655686
v 0.152702 0.475 0.123718 0.718431 0.662353 0.655686
v 0.102221 0.475 0.31782 0.718431 0.662353 0.655686
v 0.030792 0.475 0.194102 0.718431 0.662353 0.655686
v 0.102221 0.475 0.31782 0.718431 0.662353 0.655686
v 0.183494 0.475 0.31782 0.718431 0.662353 0.655686
v 0.183494 0.475 0.31782 0.718431 0.662353 0.655686
v 0.22413 0.475 0.247436 0.718431 0.662353 0.655686
v -0.366987 0.475 0.247436 0.718431 0.662353 0.655686
v -0.295559 0.475 0.123718 0.718431 0.662353 0.655686
v -0.326351 0.475 0.31782 0.718431 0.662353 0.655686
v -0.366987 0.475 0.247436 0.718431 0.662353 0.655686
v -0.245078 0.475 0.31782 0.718431 0.662353 0.655686
v -0.326351 0.475 0.31782 0.718431 0.662353 0.655686
v -0.245078 0.475 0.31782 0.718431 0.662353 0.655686
v -0.173649 0.475 0.194102 0.718431 0.662353 0.655686
v -0.326351 0.475 -0.0703846 0.718431 0.662353 0.655686
v -0.183494 0.475 -0.0703846 0.718431 0.662353 0.655686
v -0.326351 0.475 -0.0703846 0.718431 0.662353 0.655686
v -0.366987 0.475 0 0.718431 0.662353 0.655686
v -0.366987 0.475 0 0.718431 0.662353 0.655686
v -0.295559 0.475 0.123718 0.718431 0.662353 0.655686
v 0.397779 0.475 -0.194102 0.718431 0.662353 0.655686
v 0.438416 0.475 -0.123718 0.718431 0.662353 0.655686
v 0.254922 0.475 -0.194102 0.718431 0.662353 0.655686
v 0.183494 0.475 -0.31782 0.718431 0.662353 0.655686
v 0.183494 0.475 -0.31782 0.718431 0.662353 0.655686
v 0.0406366 0.475 -0.31782 0.718431 0.662353 0.655686
v -0.152702 0.475 -0.371154 0.718431 0.662353 0.655686
v -0.0812731 0.475 -0.247436 0.718431 0.662353 0.655686
v -0.030792 0.475 -0.441538 0.718431 0.662353 0.655686
v 0.0406366 0.475 -0.31782 0.718431 0.662353 0.655686
v -0.030792 0.475 -0.441538 0.718431 0.662353 0.655686
v -0.112065 0.475 -0.441538 0.718431 0.662353 0.655686
v -0.112065 0.475 -0.441538 0.718431 0.662353 0.655686
v -0.152702 0.475 -0.371154 0.718431 0.662353 0.655686
v 0.382383 1 -0.167436 0.0705882 0.203922 0.337255
v 0.239526 1 -0.167436 0.0705882 0.203922 0.337255
v 0.239526 1 -0.08 0.0705882 0.203922 0.337255
v 0.382383 1 -0.08 0.0705882 0.203922 0.337255
v 0.407624 1 -0.123718 0.0705882 0.203922 0.337255
v -0.12191 1 -0.371154 0.0705882 0.203922 0.337255
v -0.0504811 1 -0.247436 0.0705882 0.203922 0.337255
v 0.0252405 1 -0.291154 0.0705882 0.203922 0.337255
v -0.046188 1 -0.414872 0.0705882 0.203922 0.337255
v -0.0966691 1 -0.414872 0.0705882 0.203922 0.337255
v -0.264767 1 0.123718 0.0705882 0.203922 0.337255
v -0.168098 1 -0.0437179 0.0705882 0.203922 0.337255
v -0.310955 1 -0.0437179 0.0705882 0.203922 0.337255
v -0.336195 1 0 0.0705882 0.203922 0.337255
v -0.260474 1 0.291154 0.0705882 0.203922 0.337255
v -0.189045 1 0.167436 0.0705882 0.203922 0.337255
v -0.336195 1 0.247436 0.0705882 0.203922 0.337255
v -0.310955 1 0.291154 0.0705882 0.203922 0.337255
v 0.046188 1 0.167436 0.0705882 0.203922 0.337255
v 0.117617 1 0.291154 0.0705882 0.203922 0.337255
v 0.168098 1 0.291154 0.0705882 0.203922 0.337255
v 0.193338 1 0.247436 0.0705882 0.203922 0.337255
v 0.12191 1 0.123718 0.0705882 0.203922 0.337255
v 0.168098 1 -0.291154 0.0705882 0.203922 0.337255
v -0.0966691 0.775 -0.247436 0.348235 0.400392 0.473725
v -0.191192 0.775 -0.0837179 0.348235 0.400392 0.473725
v -0.184264 0.73 -0.0717179 0.403765 0.439686 0.50102
v -0.0828127 0.73 -0.247436 0.403765 0.439686 0.50102
v 0.0483346 0.775 -0.331154 0.348235 0.400392 0.473725
v 0.191192 0.775 -0.331154 0.348235 0.400392 0.473725
v 0.184264 0.73 -0.319154 0.403765 0.439686 0.50102
v 0.0414064 0.73 -0.319154 0.403765 0.439686 0.50102
v 0.0414064 0.73 -0.319154 0.403765 0.439686 0.50102
v -0.0300222 0.73 -0.442872 0.403765 0.439686 0.50102
v -0.023094 0.775 -0.454872 0.348235 0.400392 0.473725
v 0.26262 0.775 -0.207436 0.348235 0.400392 0.473725
v 0.255692 0.73 -0.195436 0.403765 0.439686 0.50102
v 0.184264 0.73 -0.319154 0.403765 0.439686 0.50102
v -0.168098 0.775 -0.371154 0.348235 0.400392 0.473725
v -0.154241 0.73 -0.371154 0.403765 0.439686 0.50102
v -0.0828127 0.73 -0.247436 0.403765 0.439686 0.50102
v -0.119763 0.775 -0.454872 0.348235 0.400392 0.473725
v -0.112835 0.73 -0.442872 0.403765 0.439686 0.50102
v -0.0300222 0.73 -0.442872 0.403765 0.439686 0.50102
v -0.112835 0.73 -0.442872 0.403765 0.439686 0.50102
v -0.327121 0.73 -0.0717179 0.403765 0.439686 0.50102
v -0.334049 0.775 -0.0837179 0.348235 0.400392 0.473725
v -0.184264 0.73 -0.0717179 0.403765 0.439686 0.50102
v -0.382383 0.775 0 0.348235 0.400392 0.473725
v -0.327121 0.73 -0.0717179 0.403765 0.439686 0.50102
v -0.368527 0.73 0 0.403765 0.439686 0.50102
v 0.405477 0.775 -0.04 0.348235 0.400392 0.473725
v 0.398549 0.73 -0.052 0.403765 0.439686 0.50102
v 0.439956 0.73 -0.123718 0.403765 0.439686 0.50102
v 0.453812 0.775 -0.123718 0.348235 0.400392 0.473725
v 0.26262 0.775 -0.04 0.348235 0.400392 0.473725
v 0.405477 0.775 -0.207436 0.348235 0.400392 0.473725
v 0.255692 0.73 -0.052 0.403765 0.439686 0.50102
v 0.398549 0.73 -0.052 0.403765 0.439686 0.50102
v 0.398549 0.73 -0.195436 0.403765 0.439686 0.50102
v 0.255692 0.73 -0.195436 0.403765 0.439686 0.50102
v 0.398549 0.73 -0.195436 0.403765 0.439686 0.50102
v 0.439956 0.73 -0.123718 0.403765 0.439686 0.50102
v 0.0945226 0.775 0.331154 0.348235 0.400392 0.473725
v 0.101451 0.73 0.319154 0.403765 0.439686 0.50102
v 0.184264 0.73 0.319154 0.403765 0.439686 0.50102
v 0.191192 0.775 0.331154 0.348235 0.400392 0.473725
v 0.023094 0.775 0.207436 0.348235 0.400392 0.473725
v -0.165951 0.775 0.207436 0.348235 0.400392 0.473725
v 0.0300222 0.73 0.195436 0.403765 0.439686 0.50102
v -0.172879 0.73 0.195436 0.403765 0.439686 0.50102
v 0.0300222 0.73 0.195436 0.403765 0.439686 0.50102
v 0.239526 0.775 0.247436 0.348235 0.400392 0.473725
v 0.22567 0.73 0.247436 0.403765 0.439686 0.50102
v 0.154241 0.73 0.123718 0.403765 0.439686 0.50102
v 0.168098 0.775 0.123718 0.348235 0.400392 0.473725
v 0.154241 0.73 0.123718 0.403765 0.439686 0.50102
v 0.255692 0.73 -0.052 0.403765 0.439686 0.50102
v 0.184264 0.73 0.319154 0.403765 0.439686 0.50102
v 0.22567 0.73 0.247436 0.403765 0.439686 0.50102
v -0.23738 0.775 0.331154 0.348235 0.400392 0.473725
v -0.244308 0.73 0.319154 0.403765 0.439686 0.50102
v -0.172879 0.73 0.195436 0.403765 0.439686 0.50102
v -0.382383 0.775 0.247436 0.348235 0.400392 0.473725
v -0.368527 0.73 0.247436 0.403765 0.439686 0.50102
v -0.327121 0.73 0.319154 0.403765 0.439686 0.50102
v -0.334049 0.775 0.331154 0.348235 0.400392 0.473725
v -0.310955 0.775 0.123718 0.348235 0.400392 0.473725
v -0.327121 0.73 0.319154 0.403765 0.439686 0.50102
v -0.244308 0.73 0.319154 0.403765 0.439686 0.50102
v -0.297098 0.73 0.123718 0.403765 0.439686 0.50102
v -0.368527 0.73 0 0.403765 0.439686 0.50102
v -0.368527 0.73 0.247436 0.403765 0.439686 0.50102
v -0.202739 0.55 -0.103718 0.625882 0.596863 0.610196
v -0.184264 0.73 -0.0717179 0.403765 0.439686 0.50102
v -0.0828127 0.73 -0.247436 0.403765 0.439686 0.50102
v -0.119763 0.55 -0.247436 0.625882 0.596863 0.610196
v -0.0966691 0.475 -0.247436 0.718431 0.662353 0.655686
v -0.191192 0.475 -0.0837179 0.718431 0.662353 0.655686
v 0.0406366 0.475 -0.31782 0.718431 0.662353 0.655686
v 0.0483346 0.475 -0.331154 0.718431 0.662353 0.655686
v 0.191192 0.475 -0.331154 0.718431 0.662353 0.655686
v 0.19889 0.475 -0.31782 0.718431 0.662353 0.655686
v -0.023094 0.475 -0.454872 0.718431 0.662353 0.655686
v -0.03849 0.475 -0.454872 0.718431 0.662353 0.655686
v 0.0598816 0.55 -0.351154 0.625882 0.596863 0.610196
v 0.202739 0.55 -0.351154 0.625882 0.596863 0.610196
v -0.011547 0.55 -0.474872 0.625882 0.596863 0.610196
v 0.184264 0.73 -0.319154 0.403765 0.439686 0.50102
v -0.0300222 0.73 -0.442872 0.403765 0.439686 0.50102
v 0.0414064 0.73 -0.319154 0.403765 0.439686 0.50102
v 0.274167 0.55 -0.227436 0.625882 0.596863 0.610196
v 0.26262 0.475 -0.207436 0.718431 0.662353 0.655686
v -0.191192 0.55 -0.371154 0.625882 0.596863 0.610196
v -0.168098 0.475 -0.371154 0.718431 0.662353 0.655686
v -0.0828127 0.73 -0.247436 0.403765 0.439686 0.50102
v -0.154241 0.73 -0.371154 0.403765 0.439686 0.50102
v -0.127461 0.475 -0.441538 0.718431 0.662353 0.655686
v -0.119763 0.475 -0.454872 0.718431 0.662353 0.655686
v -0.030792 0.475 -0.441538 0.718431 0.662353 0.655686
v -0.13131 0.55 -0.474872 0.625882 0.596863 0.610196
v -0.112835 0.73 -0.442872 0.403765 0.439686 0.50102
v -0.0300222 0.73 -0.442872 0.403765 0.439686 0.50102
v -0.154241 0.73 -0.371154 0.403765 0.439686 0.50102
v -0.112835 0.73 -0.442872 0.403765 0.439686 0.50102
v -0.152702 0.475 -0.371154 0.718431 0.662353 0.655686
v -0.1604 0.475 -0.384487 0.718431 0.662353 0.655686
v -0.112065 0.475 -0.441538 0.718431 0.662353 0.655686
v -0.183494 0.475 -0.0703846 0.718431 0.662353 0.655686
v -0.341747 0.475 -0.0703846 0.718431 0.662353 0.655686
v -0.334049 0.475 -0.0837179 0.718431 0.662353 0.655686
v -0.0812731 0.475 -0.247436 0.718431 0.662353 0.655686
v -0.345596 0.55 -0.103718 0.625882 0.596863 0.610196
v -0.327121 0.73 -0.0717179 0.403765 0.439686 0.50102
v -0.184264 0.73 -0.0717179 0.403765 0.439686 0.50102
v -0.405477 0.55 0 0.625882 0.596863 0.610196
v -0.368527 0.73 0 0.403765 0.439686 0.50102
v -0.327121 0.73 -0.0717179 0.403765 0.439686 0.50102
v -0.326351 0.475 -0.0703846 0.718431 0.662353 0.655686
v -0.366987 0.475 0 0.718431 0.662353 0.655686
v -0.374685 0.475 -0.0133333 0.718431 0.662353 0.655686
v -0.382383 0.475 0 0.718431 0.662353 0.655686
v 0.446114 0.475 -0.137051 0.718431 0.662353 0.655686
v 0.453812 0.475 -0.123718 0.718431 0.662353 0.655686
v 0.405477 0.475 -0.04 0.718431 0.662353 0.655686
v 0.390081 0.475 -0.04 0.718431 0.662353 0.655686
v 0.476906 0.55 -0.123718 0.625882 0.596863 0.610196
v 0.417024 0.55 -0.02 0.625882 0.596863 0.610196
v 0.439956 0.73 -0.123718 0.403765 0.439686 0.50102
v 0.398549 0.73 -0.052 0.403765 0.439686 0.50102
v 0.255692 0.73 -0.195436 0.403765 0.439686 0.50102
v 0.184264 0.73 -0.319154 0.403765 0.439686 0.50102
v 0.255692 0.73 -0.195436 0.403765 0.439686 0.50102
v 0.398549 0.73 -0.195436 0.403765 0.439686 0.50102
v 0.417024 0.55 -0.227436 0.625882 0.596863 0.610196
v 0.398549 0.73 -0.195436 0.403765 0.439686 0.50102
v 0.439956 0.73 -0.123718 0.403765 0.439686 0.50102
v 0.255692 0.73 -0.052 0.403765 0.439686 0.50102
v 0.274167 0.55 -0.02 0.625882 0.596863 0.610196
v 0.398549 0.73 -0.052 0.403765 0.439686 0.50102
v 0.26262 0.475 -0.04 0.718431 0.662353 0.655686
v 0.254922 0.475 -0.194102 0.718431 0.662353 0.655686
v 0.405477 0.475 -0.207436 0.718431 0.662353 0.655686
v 0.413175 0.475 -0.194102 0.718431 0.662353 0.655686
v 0.183494 0.475 -0.31782 0.718431 0.662353 0.655686
v 0.397779 0.475 -0.194102 0.718431 0.662353 0.655686
v 0.438416 0.475 -0.123718 0.718431 0.662353 0.655686
v 0.191192 0.475 0.331154 0.718431 0.662353 0.655686
v 0.175796 0.475 0.331154 0.718431 0.662353 0.655686
v 0.22413 0.475 0.247436 0.718431 0.662353 0.655686
v 0.231828 0.475 0.260769 0.718431 0.662353 0.655686
v 0.183494 0.475 0.31782 0.718431 0.662353 0.655686
v 0.0945226 0.475 0.331154 0.718431 0.662353 0.655686
v 0.0868246 0.475 0.31782 0.718431 0.662353 0.655686
v 0.0829756 0.55 0.351154 0.625882 0.596863 0.610196
v 0.202739 0.55 0.351154 0.625882 0.596863 0.610196
v 0.0300222 0.73 0.195436 0.403765 0.439686 0.50102
v 0.011547 0.55 0.227436 0.625882 0.596863 0.610196
v 0.101451 0.73 0.319154 0.403765 0.439686 0.50102
v 0.023094 0.475 0.207436 0.718431 0.662353 0.655686
v -0.154404 0.55 0.227436 0.625882 0.596863 0.610196
v -0.165951 0.475 0.207436 0.718431 0.662353 0.655686
v 0.152702 0.475 0.123718 0.718431 0.662353 0.655686
v 0.168098 0.475 0.123718 0.718431 0.662353 0.655686
v 0.239526 0.475 0.247436 0.718431 0.662353 0.655686
v 0.254922 0.475 -0.0533333 0.718431 0.662353 0.655686
v 0.397779 0.475 -0.0533333 0.718431 0.662353 0.655686
v 0.191192 0.55 0.123718 0.625882 0.596863 0.610196
v 0.26262 0.55 0.247436 0.625882 0.596863 0.610196
v 0.22567 0.73 0.247436 0.403765 0.439686 0.50102
v 0.184264 0.73 0.319154 0.403765 0.439686 0.50102
v 0.22567 0.73 0.247436 0.403765 0.439686 0.50102
v 0.154241 0.73 0.123718 0.403765 0.439686 0.50102
v 0.184264 0.73 0.319154 0.403765 0.439686 0.50102
v 0.154241 0.73 0.123718 0.403765 0.439686 0.50102
v 0.255692 0.73 -0.052 0.403765 0.439686 0.50102
v -0.173649 0.475 0.194102 0.718431 0.662353 0.655686
v -0.23738 0.475 0.331154 0.718431 0.662353 0.655686
v -0.252776 0.475 0.331154 0.718431 0.662353 0.655686
v 0.030792 0.475 0.194102 0.718431 0.662353 0.655686
v 0.102221 0.475 0.31782 0.718431 0.662353 0.655686
v -0.225833 0.55 0.351154 0.625882 0.596863 0.610196
v -0.172879 0.73 0.195436 0.403765 0.439686 0.50102
v -0.244308 0.73 0.319154 0.403765 0.439686 0.50102
v -0.318653 0.475 0.331154 0.718431 0.662353 0.655686
v -0.334049 0.475 0.331154 0.718431 0.662353 0.655686
v -0.382383 0.475 0.247436 0.718431 0.662353 0.655686
v -0.374685 0.475 0.234102 0.718431 0.662353 0.655686
v -0.345596 0.55 0.351154 0.625882 0.596863 0.610196
v -0.405477 0.55 0.247436 0.625882 0.596863 0.610196
v -0.327121 0.73 0.319154 0.403765 0.439686 0.50102
v -0.368527 0.73 0.247436 0.403765 0.439686 0.50102
v -0.334049 0.55 0.123718 0.625882 0.596863 0.610196
v -0.297098 0.73 0.123718 0.403765 0.439686 0.50102
v -0.297098 0.73 0.123718 0.403765 0.439686 0.50102
v -0.368527 0.73 0.247436 0.403765 0.439686 0.50102
v -0.245078 0.475 0.31782 0.718431 0.662353 0.655686
v -0.326351 0.475 0.31782 0.718431 0.662353 0.655686
v -0.310955 0.475 0.123718 0.718431 0.662353 0.655686
v -0.295559 0.475 0.123718 0.718431 0.662353 0.655686
v -0.366987 0.475 0.247436 0.718431 0.662353 0.655686
v 0.119493 0.25 0.351154 0.903529 0.793333 0.746667
v -0.172933 0.25 -0.155343 0.903529 0.793333 0.746667
v -0.148678 0.25 -0.113332 0.903529 0.793333 0.746667
v 0.47091 0.25 -0.113332 0.903529 0.793333 0.746667
v -0.0812731 0.475 -0.247436 0.718431 0.662353 0.655686
v -0.183494 0.475 -0.0703846 0.718431 0.662353 0.655686
v -0.0495592 0.25 -0.113332 0.903529 0.793333 0.746667
v -0.0991185 0.25 -0.0274929 0.903529 0.793333 0.746667
v 0.0495592 0.25 -0.113332 0.903529 0.793333 0.746667
v 0.260234 0.25 0.251568 0.903529 0.793333 0.746667
v -0.0495592 0.25 0.0583463 0.903529 0.793333 0.746667
v 0.148678 0.25 0.0583463 0.903529 0.793333 0.746667
v 0.0495592 0.25 0.0583463 0.903529 0.793333 0.746667
v 0.0991185 0.25 -0.0274929 0.903529 0.793333 0.746667

vt 0 0.5
vt 0.25 1
vt 0.75 1
vt 1 0.5
vt 0.75 0
vt 0.25 0
vt 0.5 0.757576
vt 0.5 0
vt 0.666667 0
vt 0.666667 0.757576
vt 0.833333 0
vt 0.833333 0.757576
vt 1 0
vt 1 0.757576
vt 0.166667 0.757576
vt 0 0.757576
vt 0 0
vt 0.166667 0
vt 0.333333 0.757576
vt 0.166667 0.757576
vt 0.333333 0
vt 0.333333 0.757576
vt 0.0434215 0
vt 0.0416667 0.5
vt 0.0938625 0
vt 0.0833333 0.5
vt 0.137284 0
vt 0.125 0.5
vt 0.173686 0
vt 0.166667 0.5
vt 0.210088 0
vt 0.208333 0.5
vt 0.25351 0
vt 0.25 0.5
vt 0.296931 0
vt 0.291667 0.5
vt 0.340353 0
vt 0.333333 0.5
vt 0.383774 0
vt 0.375 0.5
vt 0.420176 0
vt 0.416667 0.5
vt 0.456578 0
vt 0.458333 0.5
vt 0.5 0
vt 0.5 0.5
vt 0.550441 0
vt 0.593862 0
vt 0.583333 0.5
vt 0.541667 0.5
vt 0.630265 0
vt 0.625 0.5
vt 0.673686 0
vt 0.666667 0.5
vt 0.717108 0
vt 0.708333 0.5
vt 0.75351 0
vt 0.75 0.5
vt 0.789912 0
vt 0.791667 0.5
vt 0.833333 0
vt 0.833333 0.5
vt 0.883774 0
vt 0.875 0.5
vt 0.927196 0
vt 0.916667 0.5
vt 0.963598 0
vt 0.958333 0.5
vt 1 0
vt 1 0.5
vt 0.0470231 0.833333
vt 0.115472 0.833333
vt 0.162495 0.833333
vt 0.188092 0.833333
vt 0 0.833333
vt 0.948805 0.833333
vt 0.901782 0.833333
vt 0.974403 0.833333
vt 1 0.833333
vt 0.735115 0.833333
vt 0.688092 0.833333
vt 0.760713 0.833333
vt 0.735115 0.833333
vt 0.78631 0.833333
vt 0.760713 0.833333
vt 0.833333 0.833333
vt 0.615472 0.833333
vt 0.568449 0.833333
vt 0.641069 0.833333
vt 0.21369 0.833333
vt 0.260713 0.833333
vt 0.307736 0.833333
vt 0.354759 0.833333
vt 0.452977 0.833333
vt 0.5 0.833333
vt 0.401782 0.833333
vt 0.427379 0.833333
vt 0.966066 0.649537
vt 0.774007 0.649537
vt 0.774007 0.525695
vt 0.966066 0.525695
vt 1 0.587616
vt 0.288088 0.938079
vt 0.384118 0.762847
vt 0.485919 0.824768
vt 0.38989 1
vt 0.322022 1
vt 0.0960295 0.237153
vt 0.225993 0.474305
vt 0.0339337 0.474305
vt 0 0.412384
vt 0.101801 0
vt 0.197831 0.175232
vt 0 0.0619212
vt 0.0339337 0
vt 0.514081 0.175232
vt 0.61011 0
vt 0.677978 0
vt 0.711912 0.0619212
vt 0.615882 0.237153
vt 0.677978 0.824768
vt 0.5 0.5
vt 0.559987 0.5
vt 0.58184 1
vt 0.5 1
vt 0.566241 0.2
vt 0.5 0.2
vt 0.347989 0.5
vt 0.302659 0.5
vt 0.306411 0.2
vt 0.352993 0.2
vt 0.352993 0.2
vt 0.399575 0.2
vt 0.39332 0.5
vt 0.365472 1
vt 0.315771 1
vt 0.415173 1
vt 0.266069 1
vt 0.257328 0.5
vt 0.25983 0.2
vt 0.306411 0.2
vt 0.454669 0.5
vt 0.453418 0.2
vt 0.5 0.2
vt 0.450299 1
vt 0.423995 0.5
vt 0.432736 1
vt 0.426496 0.2
vt 0.399575 0.2
vt 0.426496 0.2
vt 0.612823 0.2
vt 0.605318 0.5
vt 0.566241 0.2
vt 0.631541 1
vt 0.635992 0.5
vt 0.649104 1
vt 0.612823 0.2
vt 0.639745 0.2
vt 0.150648 0.5
vt 0.159404 0.2
vt 0.186326 0.2
vt 0.181323 0.5
vt 0.198805 1
vt 0.181242 1
vt 0.131541 1
vt 0.105318 0.5
vt 0.211997 0.5
vt 0.216368 1
vt 0.112823 0.2
vt 0.159404 0.2
vt 0.213248 0.2
vt 0.25983 0.2
vt 0.213248 0.2
vt 0.186326 0.2
vt 0.938651 0.5
vt 0.946156 0.2
vt 0.973078 0.2
vt 0.969325 0.5
vt 0.964874 1
vt 0.982437 1
vt 0.89332 0.5
vt 0.915173 1
vt 0.833333 1
vt 0.833333 0.5
vt 0.899575 0.2
vt 0.833333 0.2
vt 0.899575 0.2
vt 0 0.2
vt 0.0465816 0.2
vt 0.0453307 0.5
vt 0.0465816 0.2
vt 0.112823 0.2
vt 1 0.5
vt 0.973078 0.2
vt 1 0.2
vt 0.0497013 1
vt 0 1
vt 1 1
vt 0.788003 0.5
vt 0.786752 0.2
vt 0.833333 0.2
vt 0.783632 1
vt 0.726654 0.5
vt 0.732908 0.2
vt 0.75983 0.2
vt 0.757328 0.5
vt 0.766069 1
vt 0.748506 1
vt 0.681323 0.5
vt 0.698805 1
vt 0.75983 0.2
vt 0.786752 0.2
vt 0.686326 0.2
vt 0.639745 0.2
vt 0.732908 0.2
vt 0.550441 0.5
vt 0.566417 0.9
vt 0.5 0.9
vt 0.5 0.5
vt 0.5 0
vt 0.559987 0
vt 0.505887 0.82564
vt 0.515092 0.842603
vt 0.685934 0.842603
vt 0.69514 0.82564
vt 0.429672 1
vt 0.41126 1
vt 0.302659 0
vt 0.347989 0
vt 0.340353 0.5
vt 0.296931 0.5
vt 0.39332 0
vt 0.383774 0.5
vt 0.353133 0.9
vt 0.306517 0.9
vt 0.39975 0.9
vt 0.353133 0.9
vt 0.25351 0.5
vt 0.257328 0
vt 0.456578 0.5
vt 0.454669 0
vt 0.5 0.9
vt 0.453383 0.9
vt 0.30486 0.983037
vt 0.314066 1
vt 0.420466 0.983037
vt 0.423995 0
vt 0.420176 0.5
vt 0.426567 0.9
vt 0.39975 0.9
vt 0.426567 0.9
vt 0.274675 0.893492
vt 0.265469 0.910455
vt 0.323272 0.983037
vt 0.228645 0.527809
vt 0.237851 0.510846
vt 0.048597 0.510846
vt 0.057803 0.527809
vt 0.360096 0.736095
vt 0.341684 0.736095
vt 0.256263 0.893492
vt 0.605318 0
vt 0.593862 0.5
vt 0.613034 0.9
vt 0.630265 0.5
vt 0.63985 0.9
vt 0.0670089 0.510846
vt 0.018412 0.421302
vt 0.00920599 0.438265
vt 0.635992 0
vt 0.990794 0.595661
vt 1 0.578698
vt 0.942197 0.472191
vt 0.923785 0.472191
vt 0.150648 0
vt 0.181323 0
vt 0.173686 0.5
vt 0.137284 0.5
vt 0.186467 0.9
vt 0.15965 0.9
vt 0.2599 0.9
vt 0.306517 0.9
vt 0.2599 0.9
vt 0.213283 0.9
vt 0.210088 0.5
vt 0.213283 0.9
vt 0.186467 0.9
vt 0.113034 0.9
vt 0.0938625 0.5
vt 0.15965 0.9
vt 0.105318 0
vt 0.762149 0.668243
vt 0.771355 0.685206
vt 0.942197 0.685206
vt 0.951403 0.668243
vt 0.676728 0.82564
vt 0.211997 0
vt 0.932991 0.668243
vt 0.981588 0.578698
vt 0.685934 0
vt 0.667522 0
vt 0.725325 0.106508
vt 0.734531 0.0895449
vt 0.676728 0.016963
vt 0.570328 0
vt 0.561122 0.016963
vt 0.927196 0.5
vt 0.938651 0
vt 0.969325 0
vt 0.963598 0.5
vt 0.89975 0.9
vt 0.883774 0.5
vt 0.946367 0.9
vt 0.89332 0
vt 0.833333 0.5
vt 0.833333 0
vt 0.639904 0.263905
vt 0.658316 0.263905
vt 0.743737 0.106508
vt 0.771355 0.472191
vt 0.762149 0.489154
vt 0.932991 0.489154
vt 0.0453307 0
vt 0.0434215 0.5
vt 1 0.9
vt 0.973183 0.9
vt 0 0.9
vt 0.0466167 0.9
vt 0.0466167 0.9
vt 0.113034 0.9
vt 0.249624 0.17436
vt 0.25883 0.157397
vt 0.173409 0
vt 0.154997 0
vt 0.484908 0.157397
vt 0.494113 0.17436
vt 0.579534 0.016963
vt 0.789912 0.5
vt 0.788003 0
vt 0.833333 0.9
vt 0.786717 0.9
vt 0.0762149 0
vt 0.057803 0
vt 0 0.106508
vt 0.00920599 0.123471
vt 0.726654 0
vt 0.757328 0
vt 0.75351 0.5
vt 0.717108 0.5
vt 0.7599 0.9
vt 0.733083 0.9
vt 0.673686 0.5
vt 0.686467 0.9
vt 0.63985 0.9
vt 0.686467 0.9
vt 0.164203 0.016963
vt 0.0670089 0.016963
vt 0.0854209 0.263905
vt 0.103833 0.263905
vt 0.018412 0.106508
vt 0 0.421302
vt 0.681323 0
vt 0.594946 0
vt 0.553561 0
vt 0.472611 0.149775
vt 0 0.125563
vt 0.0809496 0.275338
vt 0.28454 0.149775
vt 0.20359 0
vt 0.0678634 0
vt 0.229763 0.550675
vt 0.263541 0.613173
vt 0.0678634 0.550675
vt 0 0.425113
vt 0.527389 0.850225
vt 0.689288 0.850225
vt 0.770237 0.70045
vt 0.932137 0.70045
vt 1 0.574887
vt 0.29103 0.562314
vt 0.323798 0.724662
vt 0.993204 0.562314
vt 0.242849 0.874437
vt 0.310712 1
vt 0.446439 1
vt 0.568449 0.833333
vt 0.40336 0.562314
vt 0.347195 0.458396
vt 0.51569 0.562314
vt 0.676202 0.275338
vt 0.757151 0.125563
vt 0.754447 0.12056
vt 0.770237 0.449325
vt 0.932137 0.449325
vt 0.40336 0.354478
vt 0.628021 0.354478
vt 0.689288 0
vt 0.51569 0.354478
vt 0.571856 0.458396

vn 0 -1 0
vn 0 0 -1
vn -0.866025 0 -0.5
vn -0.866025 0 -0.5
vn -0.866025 0 0.5
vn -0.866025 0 0.5
vn 0 0 1
vn 0.866025 0 0.5
vn 0.866025 0 0.5
vn 0.866025 0 -0.5
vn 0.866025 0 -0.5
vn 0.866025 0 -0.5
vn 0.866025 0 -0.5
vn 0.866025 0 0.5
vn 0.866025 0 0.5
vn 0.866025 0 0.5
vn 0.866025 0 0.5
vn 0.866025 0 -0.5
vn 0.866025 0 -0.5
vn 0.866025 0 -0.5
vn 0.866025 0 -0.5
vn 0.866025 0 -0.5
vn -0.866025 0 -0.5
vn -0.866025 0 -0.5
vn -0.866025 0 0.5
vn -0.866025 0 -0.5
vn -0.866025 0 -0.5
vn -0.866025 0 0.5
vn -0.866025 0 0.5
vn -0.866025 0 -0.5
vn -0.866025 0 -0.5
vn -0.866025 0 0.5
vn -0.866025 0 0.5
vn 0.866025 0 0.5
vn 0.866025 0 0.5
vn -0.866025 0 0.5
vn 0.866025 0 0.5
vn 0.866025 0 0.5
vn 0.866025 0 -0.5
vn -0.866025 0 0.5
vn 0.866025 0 0.5
vn -0.866025 0 -0.5
vn -0.866025 0 0.5
vn 0.866025 0 0.5
vn -0.866025 0 -0.5
vn -0.866025 0 0.5
vn 0.866025 0 -0.5
vn 0.866025 0 -0.5
vn 0.866025 0 -0.5
vn -0.866025 0 -0.5
vn 0 1 0
vn -0.866025 0 -0.5
vn -0.866025 0 -0.5
vn -0.866025 0 -0.5
vn 0.866025 0 -0.5
vn 0.866025 0 -0.5
vn -0.866025 0 -0.5
vn -0.866025 0 -0.5
vn -0.866025 0 -0.5
vn -0.866025 0 -0.5
vn -0.866025 0 -0.5
vn -0.866025 0 -0.5
vn 0.866025 0 0.5
vn 0.866025 0 0.5
vn 0.866025 0 0.5
vn 0.866025 0 -0.5
vn 0.866025 0 -0.5
vn 0.866025 0 -0.5
vn 0.866025 0 0.5
vn 0.866025 0 0.5
vn 0.866025 0 0.5
vn 0.866025 0 0.5
vn 0.866025 0 0.5
vn -0.866025 0 0.5
vn -0.866025 0 0.5
vn -0.866025 0 0.5
vn -0.866025 0 -0.5
vn -0.866025 0 -0.5
vn -0.866025 0 -0.5
vn -0.866025 0 -0.5
vn -0.866025 0 -0.5
vn 0.866025 0 0.5
vn 0.866025 0 0.5
vn 0.866025 0 -0.5
vn 0.866025 0 0.5
vn 0.866025 0 0.5
vn 0.866025 0 0.5
vn -0.866025 0 0.5
vn -0.866025 0 0.5
vn -0.866025 0 -0.5
vn -0.866025 0 -0.5

f 1/1/1 2/2/1 3/3/1 4/4/1 5/5/1 6/6/1
f 7/7/2 3/8/2 2/9/2 8/10/2
f 9/10/3 2/9/4 1/11/4 10/12/3
f 11/12/5 1/11/6 6/13/6 12/14/5
f 13/15/7 14/16/7 6/17/7 5/18/7
f 15/19/8 13/20/8 5/18/9 4/21/9
f 15/22/10 4/21/11 3/8/11 16/7/10
f 17/17/12 18/23/12 19/24/13 20/1/13
f 18/23/14 21/25/14 22/26/15 19/24/15
f 21/25/7 23/27/7 24/28/7 22/26/7
f 23/27/16 25/29/16 26/30/17 24/28/17
f 25/29/18 27/31/18 28/32/19 26/30/19
f 27/31/2 29/33/2 30/34/2 28/32/2
f 29/33/20 31/35/20 32/36/20 30/34/20
f 31/35/2 33/37/2 34/38/2 32/36/2
f 33/37/21 35/39/21 36/40/22 34/38/22
f 35/39/2 37/41/2 38/42/2 36/40/2
f 37/41/23 39/43/23 40/44/24 38/42/24
f 39/43/25 41/45/25 42/46/25 40/44/25
f 43/47/2 44/48/2 45/49/2 46/50/2
f 44/48/26 47/51/26 48/52/27 45/49/27
f 47/51/28 49/53/28 50/54/29 48/52/29
f 49/53/30 51/55/30 52/56/31 50/54/31
f 51/55/32 53/57/32 54/58/33 52/56/33
f 53/57/7 55/59/7 56/60/7 54/58/7
f 55/59/34 57/61/34 58/62/35 56/60/35
f 57/61/7 59/63/7 60/64/7 58/62/7
f 59/63/25 61/65/25 62/66/36 60/64/36
f 61/65/7 63/67/7 64/68/7 62/66/7
f 63/67/16 17/69/16 20/70/34 64/68/34
f 65/71/37 19/24/15 22/26/15 66/72/37
f 67/72/7 22/26/7 24/28/7 68/73/7
f 69/73/38 24/28/17 26/30/17 70/74/38
f 71/75/39 20/1/13 19/24/13 72/71/39
f 60/64/36 62/66/36 73/76/40 74/77/40
f 75/76/7 62/66/7 64/68/7 76/78/7
f 77/78/41 64/68/34 20/70/34 78/79/41
f 52/56/31 79/80/42 80/81/42 50/54/31
f 81/82/43 82/83/43 52/56/33 54/58/33
f 56/60/7 83/84/7 84/85/7 54/58/7
f 85/84/15 56/60/35 58/62/35 86/86/44
f 86/86/7 58/62/7 60/64/7 74/77/7
f 45/49/2 87/87/2 88/88/2 46/50/2
f 89/87/45 45/49/27 48/52/27 90/89/45
f 91/89/46 48/52/29 50/54/29 92/81/46
f 28/32/19 93/90/47 94/74/47 26/30/19
f 28/32/2 30/34/2 95/91/2 93/90/2
f 30/34/20 32/36/20 96/92/48 95/91/49
f 97/92/2 32/36/2 34/38/2 98/93/2
f 99/94/40 40/44/25 42/46/25 100/95/40
f 36/40/22 101/96/22 102/93/22 34/38/22
f 103/96/2 36/40/2 38/42/2 104/97/2
f 105/97/50 38/42/24 40/44/24 106/94/50
f 107/98/51 108/99/51 109/100/51 110/101/51 111/102/51
f 112/103/51 113/104/51 114/105/51 115/106/51 116/107/51
f 117/108/51 118/109/51 119/110/51 120/111/51
f 121/112/51 122/113/51 117/108/51 123/114/51 124/115/51
f 125/116/51 126/117/51 127/118/51 128/119/51 129/120/51
f 114/105/51 113/104/51 117/108/51 122/113/51 125/116/51 129/120/51 109/100/51 108/99/51 130/121/51
f 131/122/52 132/123/52 118/124/53 113/125/53
f 133/126/54 132/123/52 131/122/52 134/127/54
f 135/128/2 136/129/2 137/130/2 138/131/2
f 135/128/20 139/132/55 140/133/55 141/134/20
f 136/129/2 135/128/2 114/135/2 130/136/2
f 135/128/20 141/134/20 115/137/22 114/135/22
f 108/138/22 142/139/49 136/129/49 130/136/22
f 142/139/49 143/140/56 144/141/56 136/129/49
f 145/142/25 146/143/40 147/144/40 131/122/25
f 145/142/25 131/122/25 113/125/36 112/145/36
f 148/146/2 116/147/2 115/137/2 141/134/2
f 148/146/57 145/142/57 112/145/58 116/147/58
f 149/148/2 148/146/2 141/134/2 150/149/2
f 148/146/57 151/150/59 146/143/59 145/142/57
f 152/151/2 153/152/2 132/123/2 154/153/2
f 153/152/2 119/154/2 118/124/2 132/123/2
f 119/154/60 153/152/61 155/155/61 120/156/60
f 153/152/61 156/157/62 157/158/62 155/155/61
f 158/159/63 159/160/64 160/161/64 161/162/63
f 158/159/63 161/162/63 111/163/65 110/164/65
f 109/165/7 162/166/7 158/159/7 110/164/7
f 163/167/66 107/168/67 111/163/67 161/162/66
f 107/168/2 163/167/2 142/139/2 108/138/2
f 162/166/7 164/169/7 165/170/7 158/159/7
f 163/167/2 166/171/2 167/172/2 142/139/2
f 168/173/68 163/167/66 161/162/66 169/174/68
f 170/175/7 171/176/7 172/177/7 173/178/7
f 126/179/7 170/175/7 173/178/7 127/180/7
f 174/181/7 125/182/7 122/183/7 175/184/7
f 125/182/25 174/181/46 170/175/46 126/179/25
f 176/185/7 174/181/7 175/184/7 177/186/7
f 174/181/46 178/187/25 171/176/25 170/175/46
f 179/1/13 180/188/39 181/189/39 182/190/13
f 182/190/69 183/191/70 184/192/70 162/166/69
f 179/193/71 173/178/71 185/194/72 186/195/72
f 179/1/13 182/190/13 129/196/12 128/197/12
f 129/196/73 182/190/69 162/166/69 109/165/73
f 179/193/71 128/198/65 127/180/65 173/178/71
f 187/199/44 188/200/15 189/201/15 175/184/44
f 121/202/34 187/199/44 175/184/44 122/183/34
f 190/203/74 191/204/75 192/205/75 193/206/74
f 190/203/74 193/206/74 124/207/76 123/208/76
f 194/209/29 117/210/28 120/156/28 155/155/29
f 117/210/30 194/209/31 190/203/31 123/208/30
f 124/207/7 193/206/7 187/199/7 121/202/7
f 193/206/7 195/211/7 196/212/7 187/199/7
f 197/213/46 194/209/29 155/155/29 198/214/46
f 194/209/31 197/213/42 199/215/42 190/203/31
f 200/216/77 201/217/78 202/218/78 203/219/77
f 204/220/52 205/221/52 200/216/77 203/219/77
f 206/222/1 207/223/1 208/224/1 209/225/1
f 210/226/1 207/223/1 206/222/1 211/227/1
f 208/228/2 207/229/2 212/230/2 213/231/2
f 207/229/20 210/232/20 214/233/21 212/230/21
f 213/231/2 212/230/2 138/234/2 215/235/2
f 214/233/21 216/236/21 217/237/21 212/230/21
f 218/238/20 219/239/49 208/228/49 213/231/20
f 220/240/25 221/241/25 204/220/25 203/219/25
f 220/240/25 203/219/25 222/242/36 223/243/36
f 224/244/1 225/245/1 211/227/1 226/246/1
f 225/247/2 227/248/2 214/233/2 210/232/2
f 227/248/2 228/249/2 229/250/2 214/233/2
f 227/248/23 220/240/23 230/243/79 231/251/79
f 232/252/1 233/253/1 224/244/1 234/254/1
f 227/248/23 225/247/57 221/241/57 220/240/23
f 205/255/1 235/256/1 236/257/1 237/258/1
f 238/259/1 204/260/1 221/261/1 233/253/1
f 238/259/1 235/256/1 205/255/1 204/260/1
f 237/262/2 239/263/2 200/216/2 205/221/2
f 239/263/2 240/264/2 241/217/2 200/216/2
f 239/263/26 242/265/26 243/266/80 244/264/81
f 236/257/1 245/267/1 246/268/1 247/269/1
f 239/263/26 237/262/61 248/270/61 242/265/26
f 249/271/1 250/272/1 251/273/1 252/274/1
f 251/275/63 250/276/63 253/277/16 254/278/16
f 254/278/16 253/277/16 255/279/82 256/280/83
f 257/281/20 218/238/20 213/231/20 258/282/20
f 259/283/2 260/284/2 261/285/2 218/238/2
f 261/285/18 262/286/84 263/287/84 253/277/18
f 264/288/7 265/289/7 254/278/7 266/290/7
f 265/289/7 267/291/7 251/275/7 254/278/7
f 268/292/1 219/293/1 269/294/1 270/295/1
f 209/225/1 219/293/1 268/292/1 271/296/1
f 261/285/2 269/297/2 219/239/2 218/238/2
f 272/298/1 270/295/1 249/271/1 273/299/1
f 269/297/66 261/285/18 253/277/18 250/276/66
f 274/300/1 275/301/1 276/302/1 277/303/1
f 278/304/1 275/301/1 279/305/1 280/306/1
f 281/307/7 279/308/7 274/309/7 282/310/7
f 283/311/25 284/312/25 281/307/25 285/313/25
f 286/314/7 284/312/7 287/315/7 288/316/7
f 284/312/25 286/314/46 279/308/46 281/307/25
f 289/317/1 290/318/1 291/319/1 277/303/1
f 267/320/1 292/321/1 293/322/1 252/274/1
f 267/320/1 290/318/1 289/317/1 292/321/1
f 291/17/13 290/323/13 294/324/12 295/1/12
f 294/324/14 290/323/69 267/291/69 265/289/14
f 291/69/71 295/193/16 282/310/16 274/309/71
f 295/193/16 296/325/85 297/326/85 282/310/16
f 298/327/12 295/1/12 294/324/12 299/328/12
f 300/326/7 285/313/7 281/307/7 282/310/7
f 301/329/86 294/324/14 265/289/14 302/330/87
f 303/331/1 288/332/1 304/333/1 305/334/1
f 286/335/1 306/336/1 307/337/1 280/306/1
f 286/335/1 288/332/1 303/331/1 306/336/1
f 308/338/34 304/339/44 288/316/44 287/315/34
f 309/340/7 287/315/7 284/312/7 283/311/7
f 309/340/34 310/341/34 308/338/34 287/315/34
f 311/342/1 312/343/1 313/344/1 314/345/1
f 313/346/74 312/347/74 315/348/32 316/349/32
f 315/348/7 308/338/7 310/341/7 317/350/7
f 318/351/88 316/349/32 315/348/32 317/350/89
f 319/352/28 320/353/28 198/354/28 242/265/28
f 321/355/30 319/352/30 316/349/30 322/351/30
f 323/356/1 305/334/1 311/342/1 324/357/1
f 315/348/7 312/347/7 304/339/7 308/338/7
f 325/358/1 326/359/1 327/360/1 314/345/1
f 247/269/1 326/359/1 325/358/1 248/361/1
f 325/362/29 319/352/28 242/265/28 248/270/29
f 319/352/30 325/362/31 313/346/31 316/349/30
f 328/363/1 61/364/1 59/365/1
f 51/366/1 49/367/1 57/368/1 55/369/1 53/370/1
f 59/365/1 43/371/1 329/372/1 328/363/1
f 44/373/1 43/371/1 59/365/1 57/368/1 49/367/1 47/374/1
f 33/375/1 31/376/1 29/377/1
f 29/377/1 27/378/1 25/379/1
f 330/380/1 329/372/1 41/381/1 29/377/1 25/379/1 331/382/1
f 33/375/1 39/383/1 37/384/1 35/385/1
f 33/375/1 29/377/1 41/381/1 39/383/1
f 42/46/90 41/45/77 43/47/77 46/50/90
f 332/95/91 42/46/90 46/50/90 333/386/91
f 330/380/1 334/387/1 335/388/1
f 336/389/1 18/390/1 17/391/1 337/392/1
f 21/393/1 336/389/1 331/382/1 23/394/1
f 18/390/1 336/389/1 21/393/1
f 338/395/1 339/396/1 337/392/1 63/397/1 328/363/1
f 339/396/1 340/398/1 341/399/1