v 0.243921 0.02 0.429503 1 1 1
v 0.243921 0 0.429503 1 1 1
v 0.245797 0 0.433013 1 1 1
v 0.245797 0.02 0.433013 1 1 1
v 0.25 0 0 0.662745 0.545098 0.462745
v 0.125 0 0.216506 0.662745 0.545098 0.462745
v 0.125 0.02 0.216506 0.662745 0.545098 0.462745
v 0.25 0.02 0 0.662745 0.545098 0.462745
v 0.25 0.02 0 0.74902 0.635294 0.54902
v 0.25 0 0 0.74902 0.635294 0.54902
v -0.012227 0 0.151397 0.74902 0.635294 0.54902
v -0.012227 0.02 0.151397 0.74902 0.635294 0.54902
v 0.0671092 0 0.216506 0.74902 0.635294 0.54902
v 0.125 0 0.216506 0.74902 0.635294 0.54902
v 0.125 0.02 0.216506 0.74902 0.635294 0.54902
v 0.0671092 0.02 0.216506 0.74902 0.635294 0.54902
v 0.125 0.02 0.216506 0.952941 0.894118 0.788235
v 0.125 0 0.216506 0.952941 0.894118 0.788235
v 0.0671092 0 0.216506 0.952941 0.894118 0.788235
v 0.0671092 0.02 0.216506 0.952941 0.894118 0.788235
v 0.625 0 0.216506 0.662745 0.545098 0.462745
v 0.375 0 0.216506 0.662745 0.545098 0.462745
v 0.375 0.02 0.216506 0.662745 0.545098 0.462745
v 0.625 0.02 0.216506 0.662745 0.545098 0.462745
v 0.17713 0 0.306798 0.952941 0.894118 0.788235
v 0.17713 0.02 0.306798 0.952941 0.894118 0.788235
v 0.625 0.02 0.216506 0.74902 0.635294 0.54902
v 0.375 0.02 0.216506 0.74902 0.635294 0.54902
v 0.227295 0 0.393687 0.952941 0.894118 0.788235
v 0.112372 0 0.253653 0.952941 0.894118 0.788235
v 0.227295 0.02 0.393687 0.952941 0.894118 0.788235
v 0.112372 0.02 0.253653 0.952941 0.894118 0.788235
v 0.25 0.02 0.433013 0.662745 0.545098 0.462745
v 0.25 0 0.433013 0.662745 0.545098 0.462745
v 0.245797 0 0.433013 0.662745 0.545098 0.462745
v 0.245797 0.02 0.433013 0.662745 0.545098 0.462745
v 0.25 0.02 0.433013 0.74902 0.635294 0.54902
v 0.25 0 0.433013 0.74902 0.635294 0.54902
v 0.243921 0 0.429503 0.74902 0.635294 0.54902
v 0.243921 0.02 0.429503 0.74902 0.635294 0.54902
v 0.245797 0 0.433013 0.74902 0.635294 0.54902
v 0.245797 0.02 0.433013 0.74902 0.635294 0.54902
v 0.243921 0 0.429503 0.952941 0.894118 0.788235
v 0.25 0 0.433013 0.952941 0.894118 0.788235
v 0.25 0.02 0.433013 0.952941 0.894118 0.788235
v 0.243921 0.02 0.429503 0.952941 0.894118 0.788235
v 0.246788 0 0.434867 0.662745 0.545098 0.462745
v 0.220074 0 0.384887 0.952941 0.894118 0.788235
v 0.246788 0.02 0.434867 0.662745 0.545098 0.462745
v 0.220074 0.02 0.384887 0.952941 0.894118 0.788235
v 0.625 0 0.216506 0.74902 0.635294 0.54902
v 0.375 0 0.216506 0.74902 0.635294 0.54902
v 0.375 0 0.216506 0.952941 0.894118 0.788235
v 0.25 0 0 0.952941 0.894118 0.788235
v 0.25 0.02 0 0.952941 0.894118 0.788235
v 0.375 0.02 0.216506 0.952941 0.894118 0.788235
v 0.625 0 -0.216506 0.662745 0.545098 0.462745
v 0.625 0.02 -0.216506 0.662745 0.545098 0.462745
v 0.5 0 0 0.662745 0.545098 0.462745
v 0.5 0.02 0 0.662745 0.545098 0.462745
v 0.625 0 -0.216506 0.74902 0.635294 0.54902
v 0.625 0.02 -0.216506 0.74902 0.635294 0.54902
v 0.5 0 0 0.74902 0.635294 0.54902
v 0.5 0.02 0 0.74902 0.635294 0.54902
v 0.625 0 0.216506 0.952941 0.894118 0.788235
v 0.625 0.02 0.216506 0.952941 0.894118 0.788235
v 0.5 0 0 0.952941 0.894118 0.788235
v 0.5 0.02 0 0.952941 0.894118 0.788235
v 1 0 0 0.662745 0.545098 0.462745
v 0.75 0 0 0.662745 0.545098 0.462745
v 0.75 0.02 0 0.662745 0.545098 0.462745
v 1 0.02 0 0.662745 0.545098 0.462745
v 0.75 0 0 0.74902 0.635294 0.54902
v 0.75 0.02 0 0.74902 0.635294 0.54902
v 1 0 0 0.74902 0.635294 0.54902
v 1 0.02 0 0.74902 0.635294 0.54902
v 0.625 0 -0.216506 0.952941 0.894118 0.788235
v 0.625 0.02 -0.216506 0.952941 0.894118 0.788235
v 0.75 0 0 0.952941 0.894118 0.788235
v 0.75 0.02 0 0.952941 0.894118 0.788235
v -0.25 0 0 0.662745 0.545098 0.462745
v -0.25 0.02 0 0.662745 0.545098 0.462745
v -0.125 0.02 -0.216506 0.662745 0.545098 0.462745
v -0.125 0 -0.216506 0.662745 0.545098 0.462745
v -0.221145 0 0.0499789 0.662745 0.545098 0.462745
v -0.221145 0.02 0.0499789 0.662745 0.545098 0.462745
v -0.125 0 0.0791441 0.662745 0.545098 0.462745
v -0.221145 0 0.0499789 0.662745 0.545098 0.462745
v -0.221145 0.02 0.0499789 0.662745 0.545098 0.462745
v -0.125 0.02 0.0791441 0.662745 0.545098 0.462745
v -0.125 0.02 0.0892197 0.662745 0.545098 0.462745
v -0.125 0 0.0892197 0.662745 0.545098 0.462745
v -0.125 0 0.0892197 0.662745 0.545098 0.462745
v -0.168586 0 0.0659223 0.662745 0.545098 0.462745
v -0.168586 0.02 0.0659223 0.662745 0.545098 0.462745
v -0.125 0.02 0.0892197 0.662745 0.545098 0.462745
v -0.012227 0 0.151397 0.662745 0.545098 0.462745
v -0.012227 0.02 0.151397 0.662745 0.545098 0.462745
v 0 0 0 0.662745 0.545098 0.462745
v 0 0.02 0 0.662745 0.545098 0.462745
v -0.125 0 -0.216506 0.74902 0.635294 0.54902
v -0.125 0.02 -0.216506 0.74902 0.635294 0.54902
v 0 0 0 0.74902 0.635294 0.54902
v 0 0.02 0 0.74902 0.635294 0.54902
v 0 0 0 0.952941 0.894118 0.788235
v -0.125 0 -0.216506 0.952941 0.894118 0.788235
v -0.125 0.02 -0.216506 0.952941 0.894118 0.788235
v 0 0.02 0 0.952941 0.894118 0.788235
v 0.25 0 -0.433013 0.662745 0.545098 0.462745
v 0.25 0.02 -0.433013 0.662745 0.545098 0.462745
v 0.125 0 -0.216506 0.662745 0.545098 0.462745
v 0.125 0.02 -0.216506 0.662745 0.545098 0.462745
v 0.25 0 -0.433013 0.74902 0.635294 0.54902
v 0.25 0.02 -0.433013 0.74902 0.635294 0.54902
v 0.125 0 -0.216506 0.74902 0.635294 0.54902
v 0.125 0.02 -0.216506 0.74902 0.635294 0.54902
v 0.125 0 -0.216506 0.952941 0.894118 0.788235
v 0.125 0.02 -0.216506 0.952941 0.894118 0.788235
v 0.375 0 -0.216506 0.662745 0.545098 0.462745
v 0.375 0.02 -0.216506 0.662745 0.545098 0.462745
v 0.375 0 -0.216506 0.74902 0.635294 0.54902
v 0.375 0.02 -0.216506 0.74902 0.635294 0.54902
v 0.25 0 -0.433013 0.952941 0.894118 0.788235
v 0.25 0.02 -0.433013 0.952941 0.894118 0.788235
v 0.375 0 -0.216506 0.952941 0.894118 0.788235
v 0.375 0.02 -0.216506 0.952941 0.894118 0.788235
v -0.375 0 -0.216506 0.662745 0.545098 0.462745
v -0.375 0.02 -0.216506 0.662745 0.545098 0.462745
v -0.0632387 0 0.109533 0.662745 0.545098 0.462745
v -0.0632387 0.02 0.109533 0.662745 0.545098 0.462745
v -0.25 0.02 0 0.74902 0.635294 0.54902
v -0.25 0 0 0.74902 0.635294 0.54902
v -0.221145 0 0.0499789 0.952941 0.894118 0.788235
v -0.25 0 0 0.952941 0.894118 0.788235
v -0.25 0.02 0 0.952941 0.894118 0.788235
v -0.221145 0.02 0.0499789 0.952941 0.894118 0.788235
v -0.385903 0 0 0.952941 0.894118 0.788235
v -0.221145 0 0.0499789 0.952941 0.894118 0.788235
v -0.385903 0.02 0 0.952941 0.894118 0.788235
v -0.221145 0.02 0.0499789 0.952941 0.894118 0.788235
v -0.5 0 0 0.74902 0.635294 0.54902
v -0.5 0.02 0 0.74902 0.635294 0.54902
v -0.5 0 0 0.952941 0.894118 0.788235
v -0.5 0.02 0 0.952941 0.894118 0.788235
v -0.5 0.02 0 0.662745 0.545098 0.462745
v -0.5 0 0 0.662745 0.545098 0.462745
v -0.331047 0 0.0166404 0.952941 0.894118 0.788235
v -0.331047 0.02 0.0166404 0.952941 0.894118 0.788235
v -0.0688415 0 0.119237 0.662745 0.545098 0.462745
v -0.0688415 0.02 0.119237 0.662745 0.545098 0.462745
v -0.125 0 0.0892197 0.952941 0.894118 0.788235
v -0.125 0.02 0.0892197 0.952941 0.894118 0.788235
v -0.0688415 0.02 0.119237 0.952941 0.894118 0.788235
v -0.0688415 0 0.119237 0.952941 0.894118 0.788235
v -0.0188621 0 0.145952 0.662745 0.545098 0.462745
v -0.125 0 0.0892197 0.952941 0.894118 0.788235
v -0.0188621 0.02 0.145952 0.662745 0.545098 0.462745
v -0.125 0.02 0.0892197 0.952941 0.894118 0.788235
v -0.5 0 -0.433013 0.74902 0.635294 0.54902
v -0.5 0.02 -0.433013 0.74902 0.635294 0.54902
v -0.375 0 -0.216506 0.74902 0.635294 0.54902
v -0.375 0.02 -0.216506 0.74902 0.635294 0.54902
v -0.375 0 -0.216506 0.952941 0.894118 0.788235
v -0.5 0 -0.433013 0.952941 0.894118 0.788235
v -0.5 0.02 -0.433013 0.952941 0.894118 0.788235
v -0.375 0.02 -0.216506 0.952941 0.894118 0.788235
v -0.125 0 -0.649519 0.662745 0.545098 0.462745
v -0.125 0.02 -0.649519 0.662745 0.545098 0.462745
v -0.25 0 -0.433013 0.662745 0.545098 0.462745
v -0.25 0.02 -0.433013 0.662745 0.545098 0.462745
v -0.125 0 -0.649519 0.74902 0.635294 0.54902
v -0.125 0.02 -0.649519 0.74902 0.635294 0.54902
v -0.25 0 -0.433013 0.74902 0.635294 0.54902
v -0.25 0.02 -0.433013 0.74902 0.635294 0.54902
v -0.25 0 -0.433013 0.952941 0.894118 0.788235
v -0.25 0.02 -0.433013 0.952941 0.894118 0.788235
v 0 0 -0.433013 0.662745 0.545098 0.462745
v 0 0.02 -0.433013 0.662745 0.545098 0.462745
v 0 0 -0.433013 0.74902 0.635294 0.54902
v 0 0.02 -0.433013 0.74902 0.635294 0.54902
v -0.125 0 -0.649519 0.952941 0.894118 0.788235
v -0.125 0.02 -0.649519 0.952941 0.894118 0.788235
v 0 0 -0.433013 0.952941 0.894118 0.788235
v 0 0.02 -0.433013 0.952941 0.894118 0.788235
v -0.5 0 -0.433013 0.662745 0.545098 0.462745
v -0.5 0.02 -0.433013 0.662745 0.545098 0.462745
v -0.375 0 -0.649519 0.662745 0.545098 0.462745
v -0.375 0.02 -0.649519 0.662745 0.545098 0.462745
v -0.5 0 -0.866025 0.74902 0.635294 0.54902
v -0.375 0 -0.649519 0.74902 0.635294 0.54902
v -0.375 0.02 -0.649519 0.74902 0.635294 0.54902
v -0.5 0.02 -0.866025 0.74902 0.635294 0.54902
v -0.375 0 -0.649519 0.952941 0.894118 0.788235
v -0.375 0.02 -0.649519 0.952941 0.894118 0.788235
v -0.5 0 -0.866025 0.952941 0.894118 0.788235
v -0.5 0.02 -0.866025 0.952941 0.894118 0.788235

vt 0.584438 0
vt 0.584438 0.5
vt 0.583705 0.5
vt 0.583705 0
vt 0 0

vn -0.859006 0 0.504052
vn -0.859006 0 0.504052
vn -0.861173 0 0.5
vn -0.861173 0 0.5
vn -0.866025 0 -0.5
vn -0.5 0 -0.866025
vn 0 0 1
vn 0.866025 0 0.5
vn 0 0 -1
vn 0 -1 0
vn 0 1 0
vn 0.5 0 -0.866025
vn 1 0 0
vn -0.866025 0 0.5
vn -0.5 0 0.866025
vn 0.866025 0 -0.5
vn 0.5 0 0.866025
vn -1 0 0
vn -0.866025 0 0.5
vn 0.866025 0 -0.5
vn 0.5 0 -0.866025

f 1/1/1 2/2/2 3/3/3 4/4/4
f 5/5/5 6/5/5 7/5/5 8/5/5
f 9/5/6 10/5/6 11/5/6 12/5/6
f 13/5/7 14/5/7 15/5/7 16/5/7
f 14/5/8 10/5/8 9/5/8 15/5/8
f 17/5/9 18/5/9 19/5/9 20/5/9
f 21/5/9 22/5/9 23/5/9 24/5/9
f 14/5/10 13/5/10 11/5/10 10/5/10
f 18/5/10 25/5/10 19/5/10
f 9/5/11 12/5/11 16/5/11 15/5/11
f 17/5/11 20/5/11 26/5/11
f 27/5/11 9/5/11 28/5/11
f 29/5/10 30/5/10 25/5/10
f 31/5/11 26/5/11 32/5/11
f 33/5/9 34/5/9 35/5/9 36/5/9
f 37/5/12 38/5/12 39/5/12 40/5/12
f 41/5/7 38/5/7 37/5/7 42/5/7
f 33/5/13 34/5/13 5/5/13 8/5/13
f 34/5/14 33/5/14 7/5/14 6/5/14
f 43/5/15 44/5/15 45/5/15 46/5/15
f 45/5/16 44/5/16 18/5/16 17/5/16
f 34/5/5 33/5/5 23/5/5 22/5/5
f 35/5/10 34/5/10 47/5/10
f 38/5/10 41/5/10 39/5/10
f 34/5/10 6/5/10 5/5/10
f 44/5/10 43/5/10 48/5/10 29/5/10
f 34/5/10 22/5/10 21/5/10
f 49/5/11 33/5/11 36/5/11
f 42/5/11 37/5/11 40/5/11
f 33/5/11 8/5/11 7/5/11
f 45/5/11 31/5/11 50/5/11 46/5/11
f 33/5/11 24/5/11 23/5/11
f 47/5/17 34/5/17 33/5/17 49/5/17
f 33/5/17 34/5/17 21/5/17 24/5/17
f 51/5/12 10/5/12 9/5/12 27/5/12
f 10/5/14 52/5/14 28/5/14 9/5/14
f 52/5/7 51/5/7 27/5/7 28/5/7
f 53/5/16 54/5/16 55/5/16 56/5/16
f 21/5/13 57/5/13 58/5/13 24/5/13
f 57/5/5 59/5/5 60/5/5 58/5/5
f 59/5/14 21/5/14 24/5/14 60/5/14
f 61/5/6 10/5/6 9/5/6 62/5/6
f 10/5/7 63/5/7 64/5/7 9/5/7
f 63/5/8 61/5/8 62/5/8 64/5/8
f 54/5/15 65/5/15 66/5/15 55/5/15
f 65/5/16 67/5/16 68/5/16 66/5/16
f 67/5/9 54/5/9 55/5/9 68/5/9
f 69/5/9 70/5/9 71/5/9 72/5/9
f 70/5/5 21/5/5 24/5/5 71/5/5
f 61/5/14 73/5/14 74/5/14 62/5/14
f 73/5/7 75/5/7 76/5/7 74/5/7
f 77/5/18 65/5/18 66/5/18 78/5/18
f 65/5/8 79/5/8 80/5/8 66/5/8
f 79/5/16 77/5/16 78/5/16 80/5/16
f 52/5/10 10/5/10 51/5/10
f 59/5/10 57/5/10 21/5/10
f 63/5/10 10/5/10 61/5/10
f 67/5/10 65/5/10 54/5/10
f 70/5/10 69/5/10 21/5/10
f 73/5/10 61/5/10 75/5/10
f 79/5/10 65/5/10 77/5/10
f 24/5/11 58/5/11 60/5/11
f 62/5/11 9/5/11 64/5/11
f 55/5/11 66/5/11 68/5/11
f 24/5/11 72/5/11 71/5/11
f 76/5/11 62/5/11 74/5/11
f 78/5/11 66/5/11 80/5/11
f 75/5/12 61/5/12 62/5/12 76/5/12
f 21/5/17 69/5/17 72/5/17 24/5/17
f 81/5/5 82/5/5 83/5/5 84/5/5
f 82/5/14 81/5/14 85/5/14 86/5/14
f 87/5/10 88/5/10 81/5/10 84/5/10
f 82/5/11 89/5/11 90/5/11 83/5/11
f 91/5/13 92/5/13 84/5/13 83/5/13
f 87/5/10 93/5/10 94/5/10
f 95/5/11 96/5/11 90/5/11
f 44/5/18 45/5/18 55/5/18 54/5/18
f 45/5/8 44/5/8 53/5/8 56/5/8
f 44/5/10 54/5/10 53/5/10
f 45/5/11 56/5/11 55/5/11
f 97/5/17 5/5/17 8/5/17 98/5/17
f 5/5/9 99/5/9 100/5/9 8/5/9
f 10/5/12 101/5/12 102/5/12 9/5/12
f 101/5/14 103/5/14 104/5/14 102/5/14
f 103/5/7 10/5/7 9/5/7 104/5/7
f 105/5/16 106/5/16 107/5/16 108/5/16
f 5/5/13 109/5/13 110/5/13 8/5/13
f 109/5/5 111/5/5 112/5/5 110/5/5
f 111/5/14 5/5/14 8/5/14 112/5/14
f 113/5/6 101/5/6 102/5/6 114/5/6
f 101/5/7 115/5/7 116/5/7 102/5/7
f 115/5/8 113/5/8 114/5/8 116/5/8
f 106/5/15 54/5/15 55/5/15 107/5/15
f 54/5/16 117/5/16 118/5/16 55/5/16
f 117/5/9 106/5/9 107/5/9 118/5/9
f 5/5/17 57/5/17 58/5/17 8/5/17
f 57/5/9 119/5/9 120/5/9 58/5/9
f 119/5/5 5/5/5 8/5/5 120/5/5
f 113/5/14 121/5/14 122/5/14 114/5/14
f 121/5/7 61/5/7 62/5/7 122/5/7
f 123/5/18 54/5/18 55/5/18 124/5/18
f 54/5/8 125/5/8 126/5/8 55/5/8
f 125/5/16 123/5/16 124/5/16 126/5/16
f 84/5/9 127/5/9 128/5/9 83/5/9
f 97/5/10 129/5/10 99/5/10 5/5/10
f 103/5/10 101/5/10 10/5/10
f 111/5/10 109/5/10 5/5/10
f 115/5/10 101/5/10 113/5/10
f 117/5/10 54/5/10 106/5/10
f 119/5/10 57/5/10 5/5/10
f 121/5/10 113/5/10 61/5/10
f 125/5/10 54/5/10 123/5/10
f 8/5/11 100/5/11 130/5/11 98/5/11
f 9/5/11 102/5/11 104/5/11
f 8/5/11 110/5/11 112/5/11
f 114/5/11 102/5/11 116/5/11
f 107/5/11 55/5/11 118/5/11
f 8/5/11 58/5/11 120/5/11
f 62/5/11 114/5/11 122/5/11
f 124/5/11 55/5/11 126/5/11
f 61/5/12 113/5/12 114/5/12 62/5/12
f 131/5/8 132/5/8 101/5/8 102/5/8
f 133/5/16 134/5/16 135/5/16 136/5/16
f 137/5/10 134/5/10 138/5/10
f 135/5/11 139/5/11 140/5/11
f 141/5/6 142/5/6 102/5/6 101/5/6
f 142/5/7 141/5/7 132/5/7 131/5/7
f 143/5/9 144/5/9 135/5/9 134/5/9
f 145/5/17 146/5/17 84/5/17 83/5/17
f 141/5/10 101/5/10 132/5/10
f 143/5/10 137/5/10 147/5/10
f 146/5/10 127/5/10 84/5/10
f 142/5/11 131/5/11 102/5/11
f 144/5/11 148/5/11 139/5/11
f 145/5/11 83/5/11 128/5/11
f 149/5/5 150/5/5 100/5/5 99/5/5
f 151/5/18 152/5/18 107/5/18 106/5/18
f 153/5/8 154/5/8 105/5/8 108/5/8
f 155/5/10 149/5/10 129/5/10
f 154/5/10 156/5/10 106/5/10 105/5/10
f 157/5/11 130/5/11 150/5/11
f 158/5/11 153/5/11 108/5/11 107/5/11
f 101/5/12 159/5/12 160/5/12 102/5/12
f 159/5/14 161/5/14 162/5/14 160/5/14
f 161/5/7 101/5/7 102/5/7 162/5/7
f 163/5/16 164/5/16 165/5/16 166/5/16
f 84/5/13 167/5/13 168/5/13 83/5/13
f 167/5/5 169/5/5 170/5/5 168/5/5
f 169/5/14 84/5/14 83/5/14 170/5/14
f 171/5/6 159/5/6 160/5/6 172/5/6
f 159/5/7 173/5/7 174/5/7 160/5/7
f 173/5/8 171/5/8 172/5/8 174/5/8
f 164/5/15 106/5/15 107/5/15 165/5/15
f 106/5/16 175/5/16 176/5/16 107/5/16
f 175/5/9 164/5/9 165/5/9 176/5/9
f 84/5/17 109/5/17 110/5/17 83/5/17
f 109/5/9 177/5/9 178/5/9 110/5/9
f 177/5/5 84/5/5 83/5/5 178/5/5
f 171/5/14 179/5/14 180/5/14 172/5/14
f 179/5/7 113/5/7 114/5/7 180/5/7
f 181/5/18 106/5/18 107/5/18 182/5/18
f 106/5/8 183/5/8 184/5/8 107/5/8
f 183/5/16 181/5/16 182/5/16 184/5/16
f 185/5/17 167/5/17 168/5/17 186/5/17
f 167/5/9 187/5/9 188/5/9 168/5/9
f 187/5/5 185/5/5 186/5/5 188/5/5
f 189/5/19 190/5/19 191/5/19 192/5/19
f 190/5/7 171/5/7 172/5/7 191/5/7
f 164/5/8 193/5/8 194/5/8 165/5/8
f 193/5/20 195/5/20 196/5/20 194/5/20
f 161/5/10 159/5/10 101/5/10
f 169/5/10 167/5/10 84/5/10
f 173/5/10 159/5/10 171/5/10
f 175/5/10 106/5/10 164/5/10
f 177/5/10 109/5/10 84/5/10
f 179/5/10 171/5/10 113/5/10
f 183/5/10 106/5/10 181/5/10
f 187/5/10 167/5/10 185/5/10
f 190/5/10 189/5/10 171/5/10
f 193/5/10 164/5/10 195/5/10
f 102/5/11 160/5/11 162/5/11
f 83/5/11 168/5/11 170/5/11
f 172/5/11 160/5/11 174/5/11
f 165/5/11 107/5/11 176/5/11
f 83/5/11 110/5/11 178/5/11
f 114/5/11 172/5/11 180/5/11
f 182/5/11 107/5/11 184/5/11
f 186/5/11 168/5/11 188/5/11
f 172/5/11 192/5/11 191/5/11
f 196/5/11 165/5/11 194/5/11
f 113/5/12 171/5/12 172/5/12 114/5/12
f 171/5/21 189/5/21 192/5/21 172/5/21
f 195/5/18 164/5/18 165/5/18 196/5/18
f 146/5/5 145/5/5 128/5/5 127/5/5
f 144/5/8 143/5/8 163/5/8 166/5/8
f 143/5/10 164/5/10 163/5/10
f 144/5/11 166/5/11 165/5/11
f 143/5/18 144/5/18 165/5/18 164/5/18