v -0.3125 0 0.757772 0.360784 0.309804 0.290196
v -0.125 0 0.649519 0.360784 0.309804 0.290196
v -0.125 0.1 0.649519 0.360784 0.309804 0.290196
v -0.3125 0.1 0.757772 0.360784 0.309804 0.290196
v -0.5 0.1 0.433013 0.360784 0.309804 0.290196
v -0.5 0 0.433013 0.360784 0.309804 0.290196
v -0.5 0 0.649519 0.360784 0.309804 0.290196
v -0.5 0.1 0.649519 0.360784 0.309804 0.290196
v -0.3125 0.5 0.757772 0.435294 0.811765 0.592157
v -0.5 0.5 0.649519 0.435294 0.811765 0.592157
v -0.5 0.5 0.866025 0.435294 0.811765 0.592157
v -0.3125 0.1 0.757772 0.435294 0.811765 0.592157
v -0.5 0.1 0.649519 0.435294 0.811765 0.592157
v -0.5 0 0.866025 0.435294 0.811765 0.592157
v -0.3125 0 0.757772 0.435294 0.811765 0.592157
v -0.5 0 0.649519 0.435294 0.811765 0.592157

f 1 2 3 4
f 5 6 7 8
f 4 3 5 8
f 2 1 7 6
f 2 6 5 3
f 9 10 11
f 9 12 13 10
f 14 15 9 11
f 16 14 11 10
f 14 16 15