v 1 0 -1.73205 1 0.52549 0.439216
v -0.5 0 -0.866025 1 0.52549 0.439216
v -0.5 0.6 -0.866025 1 0.52549 0.439216
v 1 0 -1.6e-11 1 0.52549 0.439216
v -0.5 0 0.866025 1 0.52549 0.439216
v -0.5 0 -0.866025 1 0.52549 0.439216
v 1 0 -8e-12 1 0.52549 0.439216
v -0.5 0.6 -0.866025 1 0.52549 0.439216
v -0.5 0.6 0.866025 1 0.52549 0.439216
v 1 0 8e-12 1 0.52549 0.439216
v 1 0 1.73205 1 0.52549 0.439216
v -0.5 0 0.866025 1 0.52549 0.439216
v -0.5 0.6 0.866025 1 0.52549 0.439216

f 1 2 3
f 1 4 2
f 5 6 7
f 3 4 1
f 7 8 9
f 6 5 9 8
f 10 11 12
f 13 11 10
f 12 11 13