v -0.2 1 -2.77128 1 0 0
v -0.5 1 -2.94449 1 0 0
v -0.5 1 -2.59808 1 0 0
v -0.5 1 -2.94449 0 0 1
v -0.2 1 -2.77128 0 0 1
v -0.2 0 -2.77128 0 0 1
v -0.5 0 -2.94449 0 0 1
v 2.8 1 -1.03923 1 0 0
v 2.5 1 -1.21244 1 0 0
v 2.5 1 -0.866025 1 0 0
v 2.5 1 -1.21244 0 0 1
v 2.8 1 -1.03923 0 0 1
v 2.8 0 -1.03923 0 0 1
v 2.5 0 -1.21244 0 0 1
v 2.5 1 0.866025 0 1 0
v 1 1 0 0 1 0
v 1 1 0.34641 0 1 0
v 2.2 1 1.03923 0 1 0
v 1 0 0.34641 0 0 1
v 2.2 0 1.03923 0 0 1
v 2.2 1 1.03923 0 0 1
v 1 1 0.34641 0 0 1
v 2.5 1 -0.866025 0 1 0
v 4 1 0 0 1 0
v 4 1 -0.34641 0 1 0
v 2.8 1 -1.03923 0 1 0
v 4 0 -0.34641 0 0 1
v 4 1 -0.34641 0 0 1
v 4.3 1 -0.173205 1 0 0
v 4 1 -0.34641 1 0 0
v 4 1 0 1 0 0
v 4.3 1 -0.173205 0 0 1
v 4.3 0 -0.173205 0 0 1
v 1 1 -1.73205 0 1 0
v 2.5 1 -1.21244 0 1 0
v 1.3 1 -1.90526 0 1 0
v 1.3 0 -1.90526 0 0 1
v 1.3 1 -1.90526 0 0 1
v -0.5 1 -2.59808 0 1 0
v 1 1 -2.07846 0 1 0
v -0.2 1 -2.77128 0 1 0
v 1 0 -2.07846 0 0 1
v 1 1 -2.07846 0 0 1
v 1.3 1 -1.90526 1 0 0
v 1 1 -2.07846 1 0 0
v 1 1 -1.73205 1 0 0
v 2.2 1 1.03923 1 0 0
v 2.5 1 1.21244 1 0 0
v 2.5 1 0.866025 1 0 0
v 2.5 1 1.21244 0 0 1
v 2.5 0 1.21244 0 0 1
v -2 1 -2.07846 1 0 0
v -2.3 1 -1.90526 1 0 0
v -2 1 -1.73205 1 0 0
v -2.3 1 -1.90526 0 0 1
v -2 1 -2.07846 0 0 1
v -2 0 -2.07846 0 0 1
v -2.3 0 -1.90526 0 0 1
v -0.8 1 -2.77128 1 0 0
v -0.8 1 -2.77128 0 0 1
v -0.8 0 -2.77128 0 0 1
v -2 1 0 0 1 0
v -2 1 -1.73205 0 1 0
v -2.3 1 -1.55885 0 1 0
v -2.3 1 -0.173205 0 1 0
v -2.3 0 -1.55885 0 0 1
v -2.3 0 -0.173205 0 0 1
v -2.3 1 -0.173205 0 0 1
v -2.3 1 -1.55885 0 0 1
v 4.3 1 0.173205 1 0 0
v 4.3 1 0.173205 0 0 1
v 4.3 0 0.173205 0 0 1
v -2 1 0.34641 1 0 0
v -1.7 1 0.173205 1 0 0
v -2 1 0 1 0 0
v -1.7 1 0.173205 0 0 1
v -2 1 0.34641 0 0 1
v -2 0 0.34641 0 0 1
v -1.7 0 0.173205 0 0 1
v -0.5 1 -0.866025 0 1 0
v -0.5 1 -0.519615 0 1 0
v 0.7 1 0.173205 0 1 0
v -0.5 0 -0.519615 0 0 1
v 0.7 0 0.173205 0 0 1
v 0.7 1 0.173205 0 0 1
v -0.5 1 -0.519615 0 0 1
v -2.3 1 0.173205 1 0 0
v -2.3 1 0.173205 0 0 1
v -2.3 0 0.173205 0 0 1
v -0.8 1 -2.77128 0 1 0
v -2 1 -2.07846 0 1 0
v -2.3 1 -0.173205 1 0 0
v 2.8 1 1.03923 0 1 0
v 4 1 0.34641 0 1 0
v 2.8 0 1.03923 0 0 1
v 4 0 0.34641 0 0 1
v 4 1 0.34641 0 0 1
v 2.8 1 1.03923 0 0 1
v -1.7 1 0.173205 0 1 0
v 0.7 1 0.173205 1 0 0
v 1 1 0.34641 1 0 0
v 1 1 0 1 0 0
v 2.8 1 1.03923 1 0 0
v 4 1 0.34641 1 0 0
v -2.3 1 -1.55885 1 0 0

vt 1 0.5
vt 0 1
vt 0 0
vt 1 0
vt 1 1
vt 1 0.5
vt 1 0.166667
vt 0 0.666667
vt 0.8 0
vt 0 0.833333
vt 1 0.333333
vt 0.2 1
vt 1 0.5
vt 0 0.833333
vt 1 0.333333
vt 0.2 1
vt 1 0.333333
vt 1 0.5
vt 0 0.5
vt 0 0.5
vt 0 0.5
vt 0 0.9
vt 0 0.1
vt 0 0.5
vt 0 0.666667
vt 0.8 0
vt 1 0.833333
vt 0.8 1
vt 0 0.333333
vt 0 0.166667
vt 0.2 0
vt 1 0.666667
vt 0.2 0
vt 1 0.666667
vt 1 0.5
vt 1 0.5

f 1/1 2/2 3/3
f 4/3 5/4 6/5 7/2
f 8/6 9/2 10/3
f 11/3 12/4 13/5 14/2
f 15/7 16/2 17/8 18/9
f 19/2 20/5 21/4 22/3
f 23/10 24/4 25/11 26/12
f 27/5 13/2 12/3 28/4
f 29/13 30/2 31/3
f 28/3 32/4 33/5 27/2
f 34/14 23/4 35/15 36/16
f 14/5 37/2 38/3 11/4
f 39/14 34/4 40/17 41/16
f 42/5 6/2 5/3 43/4
f 44/18 45/2 46/3
f 43/3 38/4 37/5 42/2
f 47/19 48/4 49/5
f 50/4 21/3 20/2 51/5
f 52/5 53/20 54/4
f 55/3 56/4 57/5 58/2
f 2/5 59/21 3/4
f 60/3 4/4 7/5 61/2
f 62/4 63/5 64/22 65/23
f 66/2 67/3 68/4 69/5
f 70/4 29/5 31/24
f 32/5 71/4 72/3 33/2
f 73/3 74/13 75/2
f 76/4 77/3 78/2 79/5
f 16/7 80/2 81/25 82/26
f 83/2 84/5 85/4 86/3
f 87/24 73/4 75/5
f 77/4 88/3 89/2 78/5
f 63/3 39/27 90/28 91/29
f 61/5 57/2 56/3 60/4
f 92/2 87/3 75/13
f 88/4 68/5 67/2 89/3
f 24/5 15/30 93/31 94/32
f 95/2 96/5 97/4 98/3
f 80/5 62/30 99/33 81/34
f 79/2 83/5 86/4 76/3
f 100/24 101/4 102/5
f 22/4 85/3 84/2 19/5
f 48/3 103/35 49/2
f 98/4 50/3 51/2 95/5
f 104/3 70/13 31/2
f 71/4 97/3 96/2 72/5
f 53/2 105/3 54/36
f 69/4 55/5 58/2 66/3