v 0.214286 0 -0.123718 0.396078 0.262745 0.129412
v 0.285714 0 0 0.396078 0.262745 0.129412
v 0.214286 0 0.123718 0.396078 0.262745 0.129412
v 0.0714286 0 0.123718 0.396078 0.262745 0.129412
v 4.8e-11 0 0 0.396078 0.262745 0.129412
v 0.0714286 0 -0.123718 0.396078 0.262745 0.129412
v 0.0932979 0.25 0.0858391 0.60404 0.672727 0.741414
v 0.192416 0.25 0.0858391 0.60404 0.672727 0.741414
v 0.0932979 0.25 -0.0858391 0.60404 0.672727 0.741414
v 0.0437387 0.25 0 0.60404 0.672727 0.741414
v 0.0437387 0.25 0 0.60404 0.672727 0.741414
v 0.0932979 0.25 0.0858391 0.60404 0.672727 0.741414
v 0.241976 0.25 0 0.60404 0.672727 0.741414
v 0.192416 0.25 0.0858391 0.60404 0.672727 0.741414
v 0.192416 0.25 -0.0858391 0.60404 0.672727 0.741414
v 0.0932979 0.25 -0.0858391 0.60404 0.672727 0.741414
v 0.63131 0.25 -0.103718 0.903529 0.793333 0.746667
v 0.488453 0.25 -0.103718 0.903529 0.793333 0.746667
v 0.5 0.325 -0.123718 0.903529 0.793333 0.746667
v 0.642857 0.325 -0.123718 0.903529 0.793333 0.746667
v 0.417024 0.25 -0.227436 0.903529 0.793333 0.746667
v 0.428571 0.325 -0.247436 0.903529 0.793333 0.746667
v 0.274167 0.25 -0.227436 0.903529 0.793333 0.746667
v 0.285714 0.325 -0.247436 0.903529 0.793333 0.746667
v 0.202739 0.25 -0.351154 0.903529 0.793333 0.746667
v 0.214286 0.325 -0.371154 0.903529 0.793333 0.746667
v 0.0829756 0.25 -0.351154 0.903529 0.793333 0.746667
v 0.0714286 0.325 -0.371154 0.903529 0.793333 0.746667
v 0.011547 0.25 -0.227436 0.903529 0.793333 0.746667
v 0 0.325 -0.247436 0.903529 0.793333 0.746667
v -0.13131 0.25 -0.227436 0.903529 0.793333 0.746667
v -0.142857 0.325 -0.247436 0.903529 0.793333 0.746667
v -0.202739 0.25 -0.103718 0.903529 0.793333 0.746667
v -0.214286 0.325 -0.123718 0.903529 0.793333 0.746667
v -0.345596 0.25 -0.103718 0.903529 0.793333 0.746667
v -0.357143 0.325 -0.123718 0.903529 0.793333 0.746667
v -0.405477 0.25 0 0.903529 0.793333 0.746667
v -0.428571 0.325 0 0.903529 0.793333 0.746667
v -0.345596 0.25 0.103718 0.903529 0.793333 0.746667
v -0.357143 0.325 0.123718 0.903529 0.793333 0.746667
v -0.202739 0.25 0.103718 0.903529 0.793333 0.746667
v -0.214286 0.325 0.123718 0.903529 0.793333 0.746667
v -0.13131 0.25 0.227436 0.903529 0.793333 0.746667
v -0.142857 0.325 0.247436 0.903529 0.793333 0.746667
v 0.011547 0.25 0.227436 0.903529 0.793333 0.746667
v 0 0.325 0.247436 0.903529 0.793333 0.746667
v 0.0829756 0.25 0.351154 0.903529 0.793333 0.746667
v 0.0714286 0.325 0.371154 0.903529 0.793333 0.746667
v 0.202739 0.25 0.351154 0.903529 0.793333 0.746667
v 0.214286 0.325 0.371154 0.903529 0.793333 0.746667
v 0.274167 0.25 0.227436 0.903529 0.793333 0.746667
v 0.285714 0.325 0.247436 0.903529 0.793333 0.746667
v 0.417024 0.25 0.227436 0.903529 0.793333 0.746667
v 0.428571 0.325 0.247436 0.903529 0.793333 0.746667
v 0.488453 0.25 0.103718 0.903529 0.793333 0.746667
v 0.5 0.325 0.123718 0.903529 0.793333 0.746667
v 0.63131 0.25 0.103718 0.903529 0.793333 0.746667
v 0.642857 0.325 0.123718 0.903529 0.793333 0.746667
v 0.691192 0.25 0 0.903529 0.793333 0.746667
v 0.714286 0.325 0 0.903529 0.793333 0.746667
v 0.612065 0.475 -0.0703846 0.718431 0.662353 0.655686
v 0.469208 0.475 -0.0703846 0.718431 0.662353 0.655686
v 0.652702 0.475 0 0.718431 0.662353 0.655686
v 0.397779 0.475 -0.194102 0.718431 0.662353 0.655686
v 0.254922 0.475 -0.194102 0.718431 0.662353 0.655686
v 0.183494 0.475 -0.31782 0.718431 0.662353 0.655686
v -0.112065 0.475 0.194102 0.718431 0.662353 0.655686
v 0.030792 0.475 0.194102 0.718431 0.662353 0.655686
v 0.102221 0.475 0.31782 0.718431 0.662353 0.655686
v 0.183494 0.475 0.31782 0.718431 0.662353 0.655686
v 0.254922 0.475 0.194102 0.718431 0.662353 0.655686
v 0.397779 0.475 0.194102 0.718431 0.662353 0.655686
v 0.469208 0.475 0.0703846 0.718431 0.662353 0.655686
v 0.612065 0.475 0.0703846 0.718431 0.662353 0.655686
v 0.469208 0.475 0.0703846 0.718431 0.662353 0.655686
v 0.612065 0.475 0.0703846 0.718431 0.662353 0.655686
v 0.102221 0.475 -0.31782 0.718431 0.662353 0.655686
v 0.030792 0.475 -0.194102 0.718431 0.662353 0.655686
v 0.102221 0.475 -0.31782 0.718431 0.662353 0.655686
v -0.112065 0.475 -0.194102 0.718431 0.662353 0.655686
v 0.030792 0.475 -0.194102 0.718431 0.662353 0.655686
v -0.183494 0.475 -0.0703846 0.718431 0.662353 0.655686
v -0.326351 0.475 -0.0703846 0.718431 0.662353 0.655686
v -0.366987 0.475 0 0.718431 0.662353 0.655686
v -0.326351 0.475 0.0703846 0.718431 0.662353 0.655686
v -0.183494 0.475 0.0703846 0.718431 0.662353 0.655686
v 0.046188 1 -0.167436 0.0705882 0.203922 0.337255
v 0.239526 1 -0.167436 0.0705882 0.203922 0.337255
v 0.168098 1 -0.291154 0.0705882 0.203922 0.337255
v 0.117617 1 -0.291154 0.0705882 0.203922 0.337255
v -0.310955 1 0.0437179 0.0705882 0.203922 0.337255
v -0.168098 1 0.0437179 0.0705882 0.203922 0.337255
v -0.168098 1 -0.0437179 0.0705882 0.203922 0.337255
v -0.310955 1 -0.0437179 0.0705882 0.203922 0.337255
v -0.336195 1 0 0.0705882 0.203922 0.337255
v 0.239526 1 0.167436 0.0705882 0.203922 0.337255
v 0.046188 1 0.167436 0.0705882 0.203922 0.337255
v 0.117617 1 0.291154 0.0705882 0.203922 0.337255
v 0.168098 1 0.291154 0.0705882 0.203922 0.337255
v 0.453812 1 0.0437179 0.0705882 0.203922 0.337255
v 0.596669 1 0.0437179 0.0705882 0.203922 0.337255
v 0.62191 1 0 0.0705882 0.203922 0.337255
v 0.596669 1 -0.0437179 0.0705882 0.203922 0.337255
v 0.453812 1 -0.0437179 0.0705882 0.203922 0.337255
v -0.0966691 1 -0.167436 0.0705882 0.203922 0.337255
v -0.0966691 1 0.167436 0.0705882 0.203922 0.337255
v 0.382383 1 0.167436 0.0705882 0.203922 0.337255
v 0.382383 1 -0.167436 0.0705882 0.203922 0.337255
v 0.405477 0.775 0.207436 0.348235 0.400392 0.473725
v 0.26262 0.775 0.207436 0.348235 0.400392 0.473725
v 0.476906 0.775 0.0837179 0.348235 0.400392 0.473725
v 0.619763 0.775 0.0837179 0.348235 0.400392 0.473725
v 0.668098 0.775 0 0.348235 0.400392 0.473725
v 0.255692 0.73 0.195436 0.403765 0.439686 0.50102
v 0.398549 0.73 0.195436 0.403765 0.439686 0.50102
v 0.398549 0.73 0.195436 0.403765 0.439686 0.50102
v 0.469978 0.73 0.0717179 0.403765 0.439686 0.50102
v 0.469978 0.73 0.0717179 0.403765 0.439686 0.50102
v 0.612835 0.73 0.0717179 0.403765 0.439686 0.50102
v 0.612835 0.73 0.0717179 0.403765 0.439686 0.50102
v 0.654241 0.73 0 0.403765 0.439686 0.50102
v 0.619763 0.775 -0.0837179 0.348235 0.400392 0.473725
v 0.612835 0.73 -0.0717179 0.403765 0.439686 0.50102
v 0.469978 0.73 -0.0717179 0.403765 0.439686 0.50102
v 0.476906 0.775 -0.0837179 0.348235 0.400392 0.473725
v 0.405477 0.775 -0.207436 0.348235 0.400392 0.473725
v 0.469978 0.73 -0.0717179 0.403765 0.439686 0.50102
v 0.398549 0.73 -0.195436 0.403765 0.439686 0.50102
v 0.654241 0.73 0 0.403765 0.439686 0.50102
v 0.612835 0.73 -0.0717179 0.403765 0.439686 0.50102
v 0.023094 0.775 -0.207436 0.348235 0.400392 0.473725
v -0.119763 0.775 -0.207436 0.348235 0.400392 0.473725
v 0.0300222 0.73 -0.195436 0.403765 0.439686 0.50102
v -0.112835 0.73 -0.195436 0.403765 0.439686 0.50102
v 0.26262 0.775 -0.207436 0.348235 0.400392 0.473725
v 0.255692 0.73 -0.195436 0.403765 0.439686 0.50102
v 0.398549 0.73 -0.195436 0.403765 0.439686 0.50102
v 0.191192 0.775 0.331154 0.348235 0.400392 0.473725
v 0.184264 0.73 0.319154 0.403765 0.439686 0.50102
v 0.255692 0.73 0.195436 0.403765 0.439686 0.50102
v 0.023094 0.775 0.207436 0.348235 0.400392 0.473725
v -0.119763 0.775 0.207436 0.348235 0.400392 0.473725
v -0.112835 0.73 0.195436 0.403765 0.439686 0.50102
v 0.0300222 0.73 0.195436 0.403765 0.439686 0.50102
v 0.0300222 0.73 0.195436 0.403765 0.439686 0.50102
v 0.101451 0.73 0.319154 0.403765 0.439686 0.50102
v 0.0945226 0.775 0.331154 0.348235 0.400392 0.473725
v 0.184264 0.73 0.319154 0.403765 0.439686 0.50102
v -0.191192 0.775 0.0837179 0.348235 0.400392 0.473725
v -0.184264 0.73 0.0717179 0.403765 0.439686 0.50102
v -0.112835 0.73 0.195436 0.403765 0.439686 0.50102
v -0.184264 0.73 -0.0717179 0.403765 0.439686 0.50102
v -0.191192 0.775 -0.0837179 0.348235 0.400392 0.473725
v -0.112835 0.73 -0.195436 0.403765 0.439686 0.50102
v -0.184264 0.73 -0.0717179 0.403765 0.439686 0.50102
v -0.327121 0.73 -0.0717179 0.403765 0.439686 0.50102
v -0.334049 0.775 -0.0837179 0.348235 0.400392 0.473725
v -0.334049 0.775 0.0837179 0.348235 0.400392 0.473725
v -0.327121 0.73 0.0717179 0.403765 0.439686 0.50102
v -0.184264 0.73 0.0717179 0.403765 0.439686 0.50102
v -0.382383 0.775 0 0.348235 0.400392 0.473725
v -0.368527 0.73 0 0.403765 0.439686 0.50102
v -0.327121 0.73 0.0717179 0.403765 0.439686 0.50102
v -0.368527 0.73 0 0.403765 0.439686 0.50102
v -0.327121 0.73 -0.0717179 0.403765 0.439686 0.50102
v 0.184264 0.73 -0.319154 0.403765 0.439686 0.50102
v 0.191192 0.775 -0.331154 0.348235 0.400392 0.473725
v 0.255692 0.73 -0.195436 0.403765 0.439686 0.50102
v 0.0945226 0.775 -0.331154 0.348235 0.400392 0.473725
v 0.101451 0.73 -0.319154 0.403765 0.439686 0.50102
v 0.247224 0.475 0.207436 0.718431 0.662353 0.655686
v 0.254922 0.475 0.194102 0.718431 0.662353 0.655686
v 0.397779 0.475 0.194102 0.718431 0.662353 0.655686
v 0.390081 0.475 0.207436 0.718431 0.662353 0.655686
v 0.627461 0.475 -0.0703846 0.718431 0.662353 0.655686
v 0.668098 0.475 0 0.718431 0.662353 0.655686
v 0.6604 0.475 0.0133333 0.718431 0.662353 0.655686
v 0.612065 0.475 -0.0703846 0.718431 0.662353 0.655686
v 0.469978 0.73 0.0717179 0.403765 0.439686 0.50102
v 0.488453 0.55 0.103718 0.625882 0.596863 0.610196
v 0.63131 0.55 0.103718 0.625882 0.596863 0.610196
v 0.612835 0.73 0.0717179 0.403765 0.439686 0.50102
v 0.417024 0.55 0.227436 0.625882 0.596863 0.610196
v 0.469978 0.73 0.0717179 0.403765 0.439686 0.50102
v 0.398549 0.73 0.195436 0.403765 0.439686 0.50102
v 0.398549 0.73 0.195436 0.403765 0.439686 0.50102
v 0.255692 0.73 0.195436 0.403765 0.439686 0.50102
v 0.274167 0.55 0.227436 0.625882 0.596863 0.610196
v 0.469208 0.475 0.0703846 0.718431 0.662353 0.655686
v 0.476906 0.475 0.0837179 0.718431 0.662353 0.655686
v 0.405477 0.475 0.207436 0.718431 0.662353 0.655686
v 0.619763 0.475 0.0837179 0.718431 0.662353 0.655686
v 0.627461 0.475 0.0703846 0.718431 0.662353 0.655686
v 0.26262 0.475 0.207436 0.718431 0.662353 0.655686
v 0.652702 0.475 0 0.718431 0.662353 0.655686
v 0.612065 0.475 0.0703846 0.718431 0.662353 0.655686
v 0.691192 0.55 0 0.625882 0.596863 0.610196
v 0.476906 0.475 -0.0837179 0.718431 0.662353 0.655686
v 0.469208 0.475 -0.0703846 0.718431 0.662353 0.655686
v 0.390081 0.475 -0.207436 0.718431 0.662353 0.655686
v 0.405477 0.475 -0.207436 0.718431 0.662353 0.655686
v 0.619763 0.475 -0.0837179 0.718431 0.662353 0.655686
v 0.488453 0.55 -0.103718 0.625882 0.596863 0.610196
v 0.63131 0.55 -0.103718 0.625882 0.596863 0.610196
v 0.417024 0.55 -0.227436 0.625882 0.596863 0.610196
v 0.654241 0.73 0 0.403765 0.439686 0.50102
v 0.612835 0.73 0.0717179 0.403765 0.439686 0.50102
v 0.612835 0.73 -0.0717179 0.403765 0.439686 0.50102
v 0.469978 0.73 -0.0717179 0.403765 0.439686 0.50102
v 0.398549 0.73 -0.195436 0.403765 0.439686 0.50102
v -0.112065 0.475 -0.194102 0.718431 0.662353 0.655686
v -0.104367 0.475 -0.207436 0.718431 0.662353 0.655686
v 0.03849 0.475 -0.207436 0.718431 0.662353 0.655686
v 0.030792 0.475 -0.194102 0.718431 0.662353 0.655686
v 0.011547 0.55 -0.227436 0.625882 0.596863 0.610196
v 0.023094 0.475 -0.207436 0.718431 0.662353 0.655686
v -0.119763 0.475 -0.207436 0.718431 0.662353 0.655686
v -0.13131 0.55 -0.227436 0.625882 0.596863 0.610196
v 0.274167 0.55 -0.227436 0.625882 0.596863 0.610196
v 0.255692 0.73 -0.195436 0.403765 0.439686 0.50102
v 0.398549 0.73 -0.195436 0.403765 0.439686 0.50102
v 0.247224 0.475 -0.207436 0.718431 0.662353 0.655686
v 0.397779 0.475 -0.194102 0.718431 0.662353 0.655686
v 0.254922 0.475 -0.194102 0.718431 0.662353 0.655686
v 0.26262 0.475 -0.207436 0.718431 0.662353 0.655686
v 0.191192 0.475 0.331154 0.718431 0.662353 0.655686
v 0.175796 0.475 0.331154 0.718431 0.662353 0.655686
v 0.202739 0.55 0.351154 0.625882 0.596863 0.610196
v 0.183494 0.475 0.31782 0.718431 0.662353 0.655686
v 0.109919 0.475 0.331154 0.718431 0.662353 0.655686
v 0.102221 0.475 0.31782 0.718431 0.662353 0.655686
v 0.0945226 0.475 0.331154 0.718431 0.662353 0.655686
v 0.023094 0.475 0.207436 0.718431 0.662353 0.655686
v 0.03849 0.475 0.207436 0.718431 0.662353 0.655686
v 0.030792 0.475 0.194102 0.718431 0.662353 0.655686
v -0.119763 0.475 0.207436 0.718431 0.662353 0.655686
v -0.127461 0.475 0.194102 0.718431 0.662353 0.655686
v 0.011547 0.55 0.227436 0.625882 0.596863 0.610196
v -0.13131 0.55 0.227436 0.625882 0.596863 0.610196
v 0.0829756 0.55 0.351154 0.625882 0.596863 0.610196
v 0.101451 0.73 0.319154 0.403765 0.439686 0.50102
v 0.0300222 0.73 0.195436 0.403765 0.439686 0.50102
v 0.101451 0.73 0.319154 0.403765 0.439686 0.50102
v 0.184264 0.73 0.319154 0.403765 0.439686 0.50102
v 0.255692 0.73 0.195436 0.403765 0.439686 0.50102
v 0.0300222 0.73 0.195436 0.403765 0.439686 0.50102
v -0.184264 0.73 0.0717179 0.403765 0.439686 0.50102
v -0.202739 0.55 0.103718 0.625882 0.596863 0.610196
v -0.112835 0.73 0.195436 0.403765 0.439686 0.50102
v -0.191192 0.475 0.0837179 0.718431 0.662353 0.655686
v -0.191192 0.475 -0.0837179 0.718431 0.662353 0.655686
v -0.183494 0.475 -0.0703846 0.718431 0.662353 0.655686
v -0.341747 0.475 -0.0703846 0.718431 0.662353 0.655686
v -0.334049 0.475 -0.0837179 0.718431 0.662353 0.655686
v -0.202739 0.55 -0.103718 0.625882 0.596863 0.610196
v -0.345596 0.55 -0.103718 0.625882 0.596863 0.610196
v -0.327121 0.73 -0.0717179 0.403765 0.439686 0.50102
v -0.184264 0.73 -0.0717179 0.403765 0.439686 0.50102
v -0.112835 0.73 -0.195436 0.403765 0.439686 0.50102
v 0.0300222 0.73 -0.195436 0.403765 0.439686 0.50102
v -0.112835 0.73 -0.195436 0.403765 0.439686 0.50102
v -0.183494 0.475 0.0703846 0.718431 0.662353 0.655686
v -0.334049 0.475 0.0837179 0.718431 0.662353 0.655686
v -0.341747 0.475 0.0703846 0.718431 0.662353 0.655686
v -0.112065 0.475 0.194102 0.718431 0.662353 0.655686
v -0.345596 0.55 0.103718 0.625882 0.596863 0.610196
v -0.327121 0.73 0.0717179 0.403765 0.439686 0.50102
v -0.326351 0.475 0.0703846 0.718431 0.662353 0.655686
v -0.382383 0.475 0 0.718431 0.662353 0.655686
v -0.374685 0.475 -0.0133333 0.718431 0.662353 0.655686
v -0.405477 0.55 0 0.625882 0.596863 0.610196
v -0.368527 0.73 0 0.403765 0.439686 0.50102
v -0.327121 0.73 -0.0717179 0.403765 0.439686 0.50102
v -0.366987 0.475 0 0.718431 0.662353 0.655686
v -0.326351 0.475 -0.0703846 0.718431 0.662353 0.655686
v 0.175796 0.475 -0.331154 0.718431 0.662353 0.655686
v 0.191192 0.475 -0.331154 0.718431 0.662353 0.655686
v 0.202739 0.55 -0.351154 0.625882 0.596863 0.610196
v 0.184264 0.73 -0.319154 0.403765 0.439686 0.50102
v 0.255692 0.73 -0.195436 0.403765 0.439686 0.50102
v 0.0945226 0.475 -0.331154 0.718431 0.662353 0.655686
v 0.109919 0.475 -0.331154 0.718431 0.662353 0.655686
v 0.0829756 0.55 -0.351154 0.625882 0.596863 0.610196
v 0.0300222 0.73 -0.195436 0.403765 0.439686 0.50102
v 0.101451 0.73 -0.319154 0.403765 0.439686 0.50102
v 0.101451 0.73 -0.319154 0.403765 0.439686 0.50102
v 0.184264 0.73 -0.319154 0.403765 0.439686 0.50102
v 0.102221 0.475 -0.31782 0.718431 0.662353 0.655686
v 0.183494 0.475 -0.31782 0.718431 0.662353 0.655686
v -0.355918 0.25 -0.0858391 0.903529 0.793333 0.746667
v 0.641632 0.25 -0.0858391 0.903529 0.793333 0.746667
v 0.291535 0.25 -0.0858391 0.903529 0.793333 0.746667
v 0.110665 0.25 0.227436 0.903529 0.793333 0.746667
v 0.241976 0.25 0 0.903529 0.793333 0.746667
v 0.192416 0.25 -0.0858391 0.903529 0.793333 0.746667
v 0.192416 0.25 0.0858391 0.903529 0.793333 0.746667
v -0.355918 0.25 0.0858391 0.903529 0.793333 0.746667
v 0.0932979 0.25 -0.0858391 0.903529 0.793333 0.746667
v -0.00582059 0.25 0.0858391 0.903529 0.793333 0.746667
v 0.0437387 0.25 0 0.903529 0.793333 0.746667
v 0.0932979 0.25 0.0858391 0.903529 0.793333 0.746667

vt 0.75 1
vt 1 0.5
vt 0.75 0
vt 0.25 0
vt 0 0.5
vt 0.25 1
vt 0.333333 0.757576
vt 0.333333 0
vt 0.5 0
vt 0.5 0.757576
vt 0 0.757576
vt 0 0
vt 0.166667 0
vt 0.166667 0.757576
vt 0.666667 0
vt 0.666667 0.757576
vt 0.833333 0
vt 0.833333 0.757576
vt 1 0
vt 1 0.757576
vt 0.047551 0
vt 0.0454545 0.5
vt 0.095102 0
vt 0.0909091 0.5
vt 0.142653 0
vt 0.136364 0.5
vt 0.190204 0
vt 0.181818 0.5
vt 0.230068 0
vt 0.227273 0.5
vt 0.277619 0
vt 0.272727 0.5
vt 0.32517 0
vt 0.318182 0.5
vt 0.372721 0
vt 0.363636 0.5
vt 0.420272 0
vt 0.409091 0.5
vt 0.460136 0
vt 0.454545 0.5
vt 0.5 0.5
vt 0.547551 0
vt 0.545455 0.5
vt 0.595102 0
vt 0.590909 0.5
vt 0.642653 0
vt 0.636364 0.5
vt 0.690204 0
vt 0.681818 0.5
vt 0.730068 0
vt 0.727273 0.5
vt 0.777619 0
vt 0.772727 0.5
vt 0.82517 0
vt 0.818182 0.5
vt 0.872721 0
vt 0.863636 0.5
vt 0.920272 0
vt 0.909091 0.5
vt 0.960136 0
vt 0.954545 0.5
vt 1 0
vt 0 0.833333
vt 0.0519429 0.833333
vt 0.971848 0.833333
vt 1 0.833333
vt 0.103886 0.833333
vt 0.155829 0.833333
vt 0.207771 0.833333
vt 0.603886 0.833333
vt 0.655829 0.833333
vt 0.707771 0.833333
vt 0.735924 0.833333
vt 0.787867 0.833333
vt 0.735924 0.833333
vt 0.83981 0.833333
vt 0.787867 0.833333
vt 0.891752 0.833333
vt 0.943695 0.833333
vt 0.891752 0.833333
vt 0.943695 0.833333
vt 0.235924 0.833333
vt 0.287867 0.833333
vt 0.235924 0.833333
vt 0.33981 0.833333
vt 0.287867 0.833333
vt 0.391752 0.833333
vt 0.443695 0.833333
vt 0.471848 0.833333
vt 0.5 0.833333
vt 0.551943 0.833333
vt 0.399104 0.787539
vt 0.600896 0.787539
vt 0.526344 1
vt 0.473656 1
vt 0.0263442 0.424923
vt 0.175448 0.424923
vt 0.175448 0.575077
vt 0.0263442 0.575077
vt 0.600896 0.212461
vt 0.399104 0.212461
vt 0.473656 0
vt 0.526344 0
vt 0.824552 0.424923
vt 0.973656 0.424923
vt 0.973656 0.575077
vt 0.824552 0.575077
vt 0.25 0.787539
vt 0.25 0.212461
vt 0.75 0.212461
vt 0.75 0.787539
vt 0.832834 0.5
vt 0.850623 1
vt 0.795436 1
vt 0.782984 0.5
vt 0.882684 0.5
vt 0.90581 1
vt 0.932534 0.5
vt 0.960997 1
vt 0.966267 0.5
vt 0.980499 1
vt 0.78653 0.2
vt 0.8379 0.2
vt 0.8379 0.2
vt 0.88927 0.2
vt 0.88927 0.2
vt 0.940639 0.2
vt 0.940639 0.2
vt 0.97032 0.2
vt 0 0.2
vt 0.0513699 0.2
vt 0.0498502 0.5
vt 0.0997004 0.5
vt 0.0513699 0.2
vt 0.10274 0.2
vt 1 0.5
vt 0.97032 0.2
vt 1 0.2
vt 0.055187 1
vt 0 1
vt 0.110374 1
vt 1 1
vt 0.295436 1
vt 0.282984 0.5
vt 0.332834 0.5
vt 0.350623 1
vt 0.28653 0.2
vt 0.3379 0.2
vt 0.149551 0.5
vt 0.165561 1
vt 0.15411 0.2
vt 0.10274 0.2
vt 0.733134 0.5
vt 0.73516 0.2
vt 0.78653 0.2
vt 0.740249 1
vt 0.649551 0.5
vt 0.5997 0.5
vt 0.60274 0.2
vt 0.65411 0.2
vt 0.65411 0.2
vt 0.70548 0.2
vt 0.699401 0.5
vt 0.70548 0.2
vt 0.73516 0.2
vt 0.665561 1
vt 0.610374 1
vt 0.720748 1
vt 0.555187 1
vt 0.54985 0.5
vt 0.55137 0.2
vt 0.60274 0.2
vt 0.38927 0.2
vt 0.382684 0.5
vt 0.3379 0.2
vt 0.38927 0.2
vt 0.440639 0.2
vt 0.432534 0.5
vt 0.40581 1
vt 0.460997 1
vt 0.5 0.2
vt 0.55137 0.2
vt 0.5 1
vt 0.466267 0.5
vt 0.480499 1
vt 0.47032 0.2
vt 0.5 0.2
vt 0.47032 0.2
vt 0.440639 0.2
vt 0.20548 0.2
vt 0.199401 0.5
vt 0.15411 0.2
vt 0.220748 1
vt 0.233134 0.5
vt 0.240249 1
vt 0.23516 0.2
vt 0.23516 0.2
vt 0.20548 0.2
vt 0.599352 0.186798
vt 0.60668 0.20693
vt 0.742672 0.20693
vt 0.735344 0.186798
vt 0.961316 0.606272
vt 0.992672 0.479868
vt 0.94666 0.606272
vt 0.889472 0.9
vt 0.872721 0.5
vt 0.920272 0.5
vt 0.940889 0.9
vt 0.82517 0.5
vt 0.889472 0.9
vt 0.838055 0.9
vt 0.838055 0.9
vt 0.786639 0.9
vt 0.777619 0.5
vt 0.810668 0.393728
vt 0.817996 0.373597
vt 0.75 0.186798
vt 0.953988 0.373597
vt 0.961316 0.393728
vt 0.832834 0
vt 0.782984 0
vt 0.882684 0
vt 0.932534 0
vt 0.985344 0.5
vt 0.94666 0.393728
vt 0.966267 0
vt 0.960136 0.5
vt 0.817996 0.626403
vt 0.810668 0.606272
vt 0.735344 0.813202
vt 0.75 0.813202
vt 0.953988 0.626403
vt 0.0498502 0
vt 0.047551 0.5
vt 0.0997004 0
vt 0.095102 0.5
vt 1 0
vt 1 0.5
vt 0.970444 0.9
vt 0.940889 0.9
vt 0 0.9
vt 0.0514166 0.9
vt 1 0.9
vt 0.970444 0.9
vt 0.102833 0.9
vt 0.0514166 0.9
vt 0.257328 0.79307
vt 0.264656 0.813202
vt 0.400648 0.813202
vt 0.39332 0.79307
vt 0.277619 0.5
vt 0.282984 0
vt 0.332834 0
vt 0.32517 0.5
vt 0.142653 0.5
vt 0.15425 0.9
vt 0.102833 0.9
vt 0.599352 0.813202
vt 0.742672 0.79307
vt 0.60668 0.79307
vt 0.149551 0
vt 0.546012 0
vt 0.531356 0
vt 0.599352 0.186798
vt 0.614008 0.186798
vt 0.730068 0.5
vt 0.733134 0
vt 0.538684 0.0201316
vt 0.468644 0
vt 0.461316 0.0201316
vt 0.453988 0
vt 0.385992 0.186798
vt 0.400648 0.186798
vt 0.39332 0.20693
vt 0.400648 0.186798
vt 0.25 0.186798
vt 0.242672 0.20693
vt 0.5997 0
vt 0.649551 0
vt 0.642653 0.5
vt 0.595102 0.5
vt 0.699401 0
vt 0.690204 0.5
vt 0.735222 0.9
vt 0.705666 0.9
vt 0.65425 0.9
vt 0.705666 0.9
vt 0.735222 0.9
vt 0.786639 0.9
vt 0.65425 0.9
vt 0.602833 0.9
vt 0.551417 0.9
vt 0.547551 0.5
vt 0.602833 0.9
vt 0.54985 0
vt 0.182004 0.626403
vt 0.189332 0.606272
vt 0.0386838 0.606272
vt 0.0460118 0.626403
vt 0.25 0.813202
vt 0.382684 0
vt 0.372721 0.5
vt 0.432534 0
vt 0.420272 0.5
vt 0.440889 0.9
vt 0.389472 0.9
vt 0.338055 0.9
vt 0.286639 0.9
vt 0.338055 0.9
vt 0.189332 0.393728
vt 0.182004 0.373597
vt 0.0460118 0.373597
vt 0.0386838 0.393728
vt 0.257328 0.20693
vt 0.5 0.5
vt 0.5 0
vt 0.5 0.9
vt 0.0533399 0.393728
vt 0.00732807 0.520132
vt 0.460136 0.5
vt 0.466267 0
vt 0.470444 0.9
vt 0.5 0.9
vt 0.0146561 0.5
vt 0.0533399 0.606272
vt 0.531356 1
vt 0.546012 1
vt 0.614008 0.813202
vt 0.599352 0.813202
vt 0.199401 0
vt 0.190204 0.5
vt 0.205666 0.9
vt 0.15425 0.9
vt 0.453988 1
vt 0.468644 1
vt 0.400648 0.813202
vt 0.385992 0.813202
vt 0.230068 0.5
vt 0.233134 0
vt 0.286639 0.9
vt 0.235222 0.9
vt 0.205666 0.9
vt 0.461316 0.979868
vt 0.538684 0.979868
vt 0.619735 0.823841
vt 0.380265 0.823841
vt 0.445397 1
vt 0.554603 1
vt 0.815132 0.647682
vt 0.184868 0.647682
vt 0.25 0.823841
vt 0.75 0.823841
vt 0.0451907 0.622224
vt 0.0546031 0.647682
vt 0.945397 0.647682
vt 0.954809 0.622224
vt 0.635572 0.622224
vt 0.815132 0.352318
vt 0.75 0.176159
vt 0.470646 0.176159
vt 0.945397 0.352318
vt 0.590381 0.5
vt 0.545191 0.622224
vt 0.380265 0.176159
vt 0.619735 0.176159
vt 0.554603 0
vt 0.445397 0
vt 0.184868 0.352318
vt 0.545191 0.377776
vt 0.25 0.176159
vt 0.0451907 0.377776
vt 0.0546031 0.352318
vt 0.454809 0.622224
vt 0.364428 0.377776
vt 0.409619 0.5
vt 0.454809 0.377776

vn 0 -1 0
vn 0 0 1
vn -0.866025 0 -0.5
vn -0.866025 0 -0.5
vn -0.866025 0 0.5
vn -0.866025 0 0.5
vn 0.866025 0 0.5
vn 0.866025 0 0.5
vn 0.866025 0 -0.5
vn 0.866025 0 -0.5
vn 0 0 -1
vn 0.866025 0 -0.5
vn 0.866025 0 -0.5
vn 0.866025 0 -0.5
vn -0.866025 0 -0.5
vn -0.866025 0 -0.5
vn -0.866025 0 -0.5
vn -0.866025 0 -0.5
vn -0.866025 0 -0.5
vn -0.866025 0 -0.5
vn -0.866025 0 0.5
vn -0.866025 0 0.5
vn -0.866025 0 0.5
vn -0.866025 0 0.5
vn -0.866025 0 0.5
vn -0.866025 0 0.5
vn 0.866025 0 0.5
vn 0.866025 0 0.5
vn 0.866025 0 0.5
vn 0.866025 0 0.5
vn 0.866025 0 0.5
vn 0.866025 0 -0.5
vn 0.866025 0 -0.5
vn 0.866025 0 -0.5
vn 0.866025 0 -0.5
vn 0.866025 0 -0.5
vn -0.866025 0 0.5
vn 0.866025 0 0.5
vn 0.866025 0 0.5
vn 0.866025 0 0.5
vn 0.866025 0 0.5
vn -0.866025 0 -0.5
vn -0.866025 0 -0.5
vn -0.866025 0 -0.5
vn -0.866025 0 0.5
vn -0.866025 0 0.5
vn 0 1 0
vn 0.866025 0 0.5
vn 0.866025 0 0.5
vn 0.866025 0 0.5
vn 0.866025 0 0.5
vn 0.866025 0 -0.5
vn 0.866025 0 -0.5
vn 0.866025 0 -0.5
vn 0.866025 0 -0.5
vn 0.866025 0 0.5
vn 0.866025 0 0.5
vn -0.866025 0 0.5
vn -0.866025 0 -0.5
vn -0.866025 0 -0.5
vn -0.866025 0 0.5
vn -0.866025 0 0.5
vn -0.866025 0 0.5
vn -0.866025 0 -0.5
vn 0.866025 0 -0.5
vn 0.866025 0 -0.5
vn 0.866025 0 -0.5
vn -0.866025 0 -0.5
vn 0.866025 0 0.5
vn 0.866025 0 0.5
vn 0.866025 0 -0.5
vn 0.866025 0 -0.5
vn -0.866025 0 -0.5
vn -0.866025 0 0.5

f 1/1/1 2/2/1 3/3/1 4/4/1 5/5/1 6/6/1
f 7/7/2 4/8/2 3/9/2 8/10/2
f 9/11/3 6/12/4 5/13/4 10/14/3
f 11/14/5 5/13/6 4/8/6 12/7/5
f 2/15/7 13/16/8 14/10/8 3/9/7
f 2/15/9 1/17/9 15/18/10 13/16/10
f 1/17/11 6/19/11 16/20/11 15/18/11
f 17/12/11 18/21/11 19/22/11 20/5/11
f 18/21/12 21/23/12 22/24/13 19/22/13
f 21/23/11 23/25/11 24/26/11 22/24/11
f 23/25/14 25/27/14 26/28/14 24/26/14
f 25/27/11 27/29/11 28/30/11 26/28/11
f 27/29/15 29/31/15 30/32/16 28/30/16
f 29/31/11 31/33/11 32/34/11 30/32/11
f 31/33/17 33/35/17 34/36/18 32/34/18
f 33/35/11 35/37/11 36/38/11 34/36/11
f 35/37/19 37/39/19 38/40/20 36/38/20
f 37/39/21 39/9/21 40/41/22 38/40/22
f 39/9/2 41/42/2 42/43/2 40/41/2
f 41/42/23 43/44/23 44/45/24 42/43/24
f 43/44/2 45/46/2 46/47/2 44/45/2
f 45/46/25 47/48/25 48/49/26 46/47/26
f 47/48/2 49/50/2 50/51/2 48/49/2
f 49/50/27 51/52/27 52/53/27 50/51/27
f 51/52/2 53/54/2 54/55/2 52/53/2
f 53/54/28 55/56/28 56/57/29 54/55/29
f 55/56/2 57/58/2 58/59/2 56/57/2
f 57/58/30 59/60/30 60/61/31 58/59/31
f 59/60/32 17/62/32 20/2/33 60/61/33
f 61/63/11 20/5/11 19/22/11 62/64/11
f 63/65/34 60/61/33 20/2/33 61/66/34
f 22/24/13 64/67/35 62/64/35 19/22/13
f 64/67/11 22/24/11 24/26/11 65/68/11
f 65/68/36 24/26/14 26/28/14 66/69/36
f 67/70/2 44/45/2 46/47/2 68/71/2
f 68/71/37 46/47/26 48/49/26 69/72/37
f 50/51/2 70/73/2 69/72/2 48/49/2
f 50/51/27 52/53/27 71/74/38 70/75/38
f 52/53/2 54/55/2 72/76/2 71/77/2
f 72/76/39 54/55/29 56/57/29 73/78/39
f 56/57/2 58/59/2 74/79/2 75/80/2
f 58/59/31 60/61/31 63/65/40 76/81/41
f 28/30/11 77/82/11 66/69/11 26/28/11
f 28/30/16 30/32/16 78/83/42 79/84/42
f 30/32/11 32/34/11 80/85/11 81/86/11
f 80/85/43 32/34/18 34/36/18 82/87/43
f 82/87/11 34/36/11 36/38/11 83/88/11
f 83/88/44 36/38/20 38/40/20 84/89/44
f 84/89/45 38/40/22 40/41/22 85/90/45
f 85/90/2 40/41/2 42/43/2 86/91/2
f 42/43/24 44/45/24 67/70/46 86/91/46
f 87/92/47 88/93/47 89/94/47 90/95/47
f 91/96/47 92/97/47 93/98/47 94/99/47 95/5/47
f 96/100/47 97/101/47 98/102/47 99/103/47
f 100/104/47 101/105/47 102/2/47 103/106/47 104/107/47
f 105/108/47 93/98/47 92/97/47 106/109/47 107/110/47 100/104/47 104/107/47 108/111/47
f 109/112/2 107/113/2 96/114/2 110/115/2
f 109/112/39 111/116/39 100/117/39 107/113/39
f 111/116/2 112/118/2 101/119/2 100/117/2
f 101/119/48 112/118/49 113/120/49 102/121/48
f 109/112/2 110/115/2 114/122/2 115/123/2
f 109/112/39 116/124/50 117/125/50 111/116/39
f 112/118/2 111/116/2 118/126/2 119/127/2
f 112/118/49 120/128/51 121/129/51 113/120/49
f 122/5/11 123/130/11 124/131/11 125/132/11
f 126/133/35 125/132/35 127/134/52 128/135/52
f 122/136/53 113/120/53 129/137/54 130/138/54
f 122/5/11 125/132/11 104/139/11 103/140/11
f 125/132/35 126/133/35 108/141/35 104/139/35
f 122/136/53 103/142/55 102/121/55 113/120/53
f 87/143/11 131/144/11 132/145/11 105/146/11
f 131/144/11 133/147/11 134/148/11 132/145/11
f 135/149/11 88/150/11 108/141/11 126/133/11
f 136/151/11 135/149/11 126/133/11 137/152/11
f 138/153/38 139/154/56 140/155/56 110/115/38
f 138/153/38 110/115/38 96/114/57 99/156/57
f 141/157/2 142/158/2 143/159/2 144/160/2
f 141/157/58 145/161/25 146/162/25 147/163/58
f 147/163/2 146/164/2 148/165/2 138/153/2
f 142/158/2 141/157/2 97/166/2 106/167/2
f 141/157/58 147/163/58 98/168/25 97/166/25
f 98/168/2 147/163/2 138/153/2 99/156/2
f 92/169/46 149/170/24 142/158/24 106/167/46
f 149/170/24 150/171/24 151/172/24 142/158/24
f 152/173/18 153/174/18 132/145/18 154/175/18
f 153/174/11 155/176/11 156/177/11 157/178/11
f 153/174/18 93/179/43 105/146/43 132/145/18
f 94/180/11 93/179/11 153/174/11 157/178/11
f 158/41/2 159/181/2 160/182/2 149/170/2
f 158/41/2 149/170/2 92/169/2 91/183/2
f 161/184/59 95/185/60 94/180/60 157/178/59
f 161/184/61 158/41/61 91/183/62 95/185/62
f 161/184/61 162/186/63 163/187/63 158/41/61
f 164/188/64 161/184/59 157/178/59 165/189/64
f 166/190/65 167/191/66 135/149/66 168/192/65
f 167/191/66 89/193/67 88/150/67 135/149/66
f 167/191/11 169/194/11 90/195/11 89/193/11
f 169/194/68 131/144/68 87/143/15 90/195/15
f 169/194/68 170/196/15 133/147/15 131/144/68
f 170/197/11 169/194/11 167/191/11 166/198/11
f 171/199/1 172/200/1 173/201/1 174/202/1
f 175/203/1 176/2/1 177/204/1 178/205/1
f 179/206/2 180/207/2 181/208/2 182/209/2
f 183/210/28 180/207/28 184/211/69 185/212/69
f 183/210/2 186/213/2 187/214/2 188/215/2
f 189/216/1 190/217/1 191/218/1 174/202/1
f 192/219/1 190/217/1 189/216/1 193/220/1
f 191/221/2 183/210/2 188/215/2 194/222/2
f 191/221/39 190/223/39 180/207/28 183/210/28
f 190/223/2 192/224/2 181/208/2 180/207/2
f 195/225/1 177/204/1 193/220/1 196/226/1
f 181/208/30 192/224/49 176/227/49 197/228/30
f 198/229/1 199/230/1 200/231/1 201/232/1
f 175/203/1 199/230/1 198/229/1 202/233/1
f 202/12/11 198/234/11 203/235/11 204/5/11
f 198/234/35 201/236/35 205/237/12 203/235/12
f 202/238/53 204/239/32 197/228/32 176/227/53
f 206/240/70 207/241/70 181/208/30 197/228/30
f 208/242/11 204/5/11 203/235/11 209/243/11
f 204/239/32 208/244/71 206/245/71 197/228/32
f 205/237/12 210/246/72 209/247/72 203/235/12
f 211/248/1 212/249/1 213/250/1 214/251/1
f 215/252/11 216/253/11 217/254/11 218/255/11
f 219/256/11 220/257/11 221/258/11 205/237/11
f 222/259/1 200/231/1 223/260/1 224/261/1
f 225/262/11 219/256/11 205/237/11 201/236/11
f 226/263/1 227/264/1 171/265/1 194/266/1
f 228/267/27 226/268/38 194/222/38 188/215/27
f 229/269/1 227/264/1 230/270/1 231/271/1
f 232/272/1 233/273/1 234/274/1 230/270/1
f 235/275/1 234/276/1 236/277/1 237/278/1
f 236/279/2 233/280/2 238/281/2 239/282/2
f 233/280/58 232/283/58 240/284/25 238/281/25
f 240/284/2 232/283/2 226/268/2 228/267/2
f 148/285/2 241/286/2 240/284/2 228/267/2
f 242/287/25 238/281/25 240/284/25 243/288/25
f 244/289/27 228/267/27 188/215/27 245/290/27
f 239/282/2 238/281/2 246/291/2 151/292/2
f 247/293/24 248/294/23 239/282/23 249/295/24
f 248/294/23 250/296/24 236/279/24 239/282/23
f 251/297/1 252/298/1 253/299/1 254/300/1
f 212/249/1 252/298/1 251/297/1 217/301/1
f 251/302/18 255/303/17 218/255/17 217/254/18
f 251/302/11 254/304/11 256/305/11 255/303/11
f 256/305/11 257/306/11 258/307/11 255/303/11
f 259/308/11 260/309/11 215/252/11 218/255/11
f 255/303/17 258/307/18 261/310/18 218/255/17
f 262/311/1 250/312/1 263/313/1 264/314/1
f 237/278/1 250/312/1 262/311/1 265/315/1
f 266/316/2 263/317/2 250/296/2 248/294/2
f 266/316/2 248/294/2 247/293/2 267/318/2
f 268/319/1 264/314/1 269/5/1 270/320/1
f 271/321/21 269/322/61 263/317/61 266/316/21
f 271/321/19 272/323/73 273/306/73 256/305/19
f 271/321/21 266/316/21 267/324/74 272/323/74
f 274/325/1 270/320/1 253/299/1 275/326/1
f 269/322/59 271/321/19 256/305/19 254/304/59
f 276/327/1 277/328/1 225/329/1 222/330/1
f 277/331/66 278/332/14 219/256/14 225/262/66
f 278/332/14 279/333/14 280/334/14 219/256/14
f 281/335/1 282/336/1 213/337/1 216/338/1
f 283/339/15 281/340/68 216/253/68 215/252/15
f 283/339/15 215/252/15 284/341/15 285/342/15
f 278/332/11 283/339/11 286/342/11 287/343/11
f 288/344/1 282/336/1 276/327/1 289/345/1
f 281/340/11 283/339/11 278/332/11 277/331/11
f 23/346/1 29/347/1 27/348/1 25/349/1
f 18/350/1 33/351/1 31/352/1 21/353/1
f 290/354/1 35/355/1 17/356/1 291/357/1
f 292/358/1 55/359/1 53/360/1 293/361/1
f 59/2/1 57/362/1 55/359/1 292/358/1 291/357/1
f 292/358/1 294/363/1 295/364/1
f 45/365/1 51/366/1 49/367/1 47/368/1
f 41/369/1 296/370/1 293/361/1 43/371/1
f 297/372/1 296/370/1 41/369/1 39/373/1
f 298/374/1 299/375/1 297/372/1 37/5/1 290/354/1
f 299/375/1 300/376/1 301/377/1