v 0.142857 0 0.0549857 0.396078 0.262745 0.129412
v 2.4e-11 0 0.0549857 0.396078 0.262745 0.129412
v -0.0714286 0 -0.0687322 0.396078 0.262745 0.129412
v 2.4e-11 0 -0.19245 0.396078 0.262745 0.129412
v 0.142857 0 -0.19245 0.396078 0.262745 0.129412
v 0.214286 0 -0.0687322 0.396078 0.262745 0.129412
v -0.0276899 0.25 -0.0687322 0.60404 0.672727 0.741414
v 0.0218693 0.25 0.017107 0.60404 0.672727 0.741414
v 0.170547 0.25 -0.0687322 0.60404 0.672727 0.741414
v 0.120988 0.25 -0.154571 0.60404 0.672727 0.741414
v 0.120988 0.25 -0.154571 0.60404 0.672727 0.741414
v 0.0218693 0.25 -0.154571 0.60404 0.672727 0.741414
v 0.0218693 0.25 -0.154571 0.60404 0.672727 0.741414
v -0.0276899 0.25 -0.0687322 0.60404 0.672727 0.741414
v 0.120988 0.25 0.017107 0.60404 0.672727 0.741414
v 0.0218693 0.25 0.017107 0.60404 0.672727 0.741414
v 0.120988 0.25 0.017107 0.60404 0.672727 0.741414
v 0.170547 0.25 -0.0687322 0.60404 0.672727 0.741414
v 0.274167 0.25 -0.227436 0.903529 0.793333 0.746667
v 0.202739 0.25 -0.351154 0.903529 0.793333 0.746667
v 0.214286 0.325 -0.371154 0.903529 0.793333 0.746667
v 0.285714 0.325 -0.247436 0.903529 0.793333 0.746667
v 0.0598816 0.25 -0.351154 0.903529 0.793333 0.746667
v 0.0714286 0.325 -0.371154 0.903529 0.793333 0.746667
v -0.011547 0.25 -0.474872 0.903529 0.793333 0.746667
v 0 0.325 -0.494872 0.903529 0.793333 0.746667
v -0.13131 0.25 -0.474872 0.903529 0.793333 0.746667
v -0.142857 0.325 -0.494872 0.903529 0.793333 0.746667
v -0.202739 0.25 -0.351154 0.903529 0.793333 0.746667
v -0.214286 0.325 -0.371154 0.903529 0.793333 0.746667
v -0.345596 0.25 -0.351154 0.903529 0.793333 0.746667
v -0.357143 0.325 -0.371154 0.903529 0.793333 0.746667
v -0.405477 0.25 -0.247436 0.903529 0.793333 0.746667
v -0.428571 0.325 -0.247436 0.903529 0.793333 0.746667
v -0.345596 0.25 -0.143718 0.903529 0.793333 0.746667
v -0.357143 0.325 -0.123718 0.903529 0.793333 0.746667
v -0.202739 0.25 -0.143718 0.903529 0.793333 0.746667
v -0.214286 0.325 -0.123718 0.903529 0.793333 0.746667
v -0.119763 0.25 0 0.903529 0.793333 0.746667
v -0.142857 0.325 0 0.903529 0.793333 0.746667
v -0.191192 0.25 0.123718 0.903529 0.793333 0.746667
v -0.214286 0.325 0.123718 0.903529 0.793333 0.746667
v -0.13131 0.25 0.227436 0.903529 0.793333 0.746667
v -0.142857 0.325 0.247436 0.903529 0.793333 0.746667
v 0.011547 0.25 0.227436 0.903529 0.793333 0.746667
v 0 0.325 0.247436 0.903529 0.793333 0.746667
v 0.0829756 0.25 0.351154 0.903529 0.793333 0.746667
v 0.0714286 0.325 0.371154 0.903529 0.793333 0.746667
v 0.202739 0.25 0.351154 0.903529 0.793333 0.746667
v 0.214286 0.325 0.371154 0.903529 0.793333 0.746667
v 0.274167 0.25 0.227436 0.903529 0.793333 0.746667
v 0.285714 0.325 0.247436 0.903529 0.793333 0.746667
v 0.417024 0.25 0.227436 0.903529 0.793333 0.746667
v 0.428571 0.325 0.247436 0.903529 0.793333 0.746667
v 0.476906 0.25 0.123718 0.903529 0.793333 0.746667
v 0.5 0.325 0.123718 0.903529 0.793333 0.746667
v 0.405477 0.25 0 0.903529 0.793333 0.746667
v 0.428571 0.325 0 0.903529 0.793333 0.746667
v 0.476906 0.25 -0.123718 0.903529 0.793333 0.746667
v 0.5 0.325 -0.123718 0.903529 0.793333 0.746667
v 0.417024 0.25 -0.227436 0.903529 0.793333 0.746667
v 0.428571 0.325 -0.247436 0.903529 0.793333 0.746667
v -0.366987 0.475 -0.247436 0.718431 0.662353 0.655686
v -0.326351 0.475 -0.177051 0.718431 0.662353 0.655686
v -0.183494 0.475 -0.177051 0.718431 0.662353 0.655686
v -0.0812731 0.475 0 0.718431 0.662353 0.655686
v -0.183494 0.475 -0.177051 0.718431 0.662353 0.655686
v -0.152702 0.475 0.123718 0.718431 0.662353 0.655686
v -0.112065 0.475 0.194102 0.718431 0.662353 0.655686
v -0.152702 0.475 0.123718 0.718431 0.662353 0.655686
v 0.030792 0.475 0.194102 0.718431 0.662353 0.655686
v -0.112065 0.475 0.194102 0.718431 0.662353 0.655686
v 0.102221 0.475 0.31782 0.718431 0.662353 0.655686
v 0.030792 0.475 0.194102 0.718431 0.662353 0.655686
v 0.183494 0.475 0.31782 0.718431 0.662353 0.655686
v 0.397779 0.475 -0.194102 0.718431 0.662353 0.655686
v 0.254922 0.475 -0.194102 0.718431 0.662353 0.655686
v 0.254922 0.475 0.194102 0.718431 0.662353 0.655686
v 0.438416 0.475 -0.123718 0.718431 0.662353 0.655686
v 0.366987 0.475 0 0.718431 0.662353 0.655686
v 0.438416 0.475 -0.123718 0.718431 0.662353 0.655686
v 0.397779 0.475 0.194102 0.718431 0.662353 0.655686
v 0.254922 0.475 0.194102 0.718431 0.662353 0.655686
v 0.438416 0.475 0.123718 0.718431 0.662353 0.655686
v 0.397779 0.475 0.194102 0.718431 0.662353 0.655686
v 0.366987 0.475 0 0.718431 0.662353 0.655686
v -0.326351 0.475 -0.31782 0.718431 0.662353 0.655686
v -0.183494 0.475 -0.31782 0.718431 0.662353 0.655686
v -0.326351 0.475 -0.31782 0.718431 0.662353 0.655686
v 0.183494 0.475 -0.31782 0.718431 0.662353 0.655686
v 0.0406366 0.475 -0.31782 0.718431 0.662353 0.655686
v 0.183494 0.475 -0.31782 0.718431 0.662353 0.655686
v -0.030792 0.475 -0.441538 0.718431 0.662353 0.655686
v 0.0406366 0.475 -0.31782 0.718431 0.662353 0.655686
v -0.112065 0.475 -0.441538 0.718431 0.662353 0.655686
v -0.183494 0.475 -0.31782 0.718431 0.662353 0.655686
v -0.168098 1 -0.291154 0.0705882 0.203922 0.337255
v 0.0252405 1 -0.291154 0.0705882 0.203922 0.337255
v -0.046188 1 -0.414872 0.0705882 0.203922 0.337255
v -0.0966691 1 -0.414872 0.0705882 0.203922 0.337255
v -0.310955 1 -0.203718 0.0705882 0.203922 0.337255
v -0.168098 1 -0.203718 0.0705882 0.203922 0.337255
v -0.310955 1 -0.291154 0.0705882 0.203922 0.337255
v -0.336195 1 -0.247436 0.0705882 0.203922 0.337255
v 0.046188 1 0.167436 0.0705882 0.203922 0.337255
v -0.0504811 1 0 0.0705882 0.203922 0.337255
v -0.12191 1 0.123718 0.0705882 0.203922 0.337255
v -0.0966691 1 0.167436 0.0705882 0.203922 0.337255
v 0.239526 1 0.167436 0.0705882 0.203922 0.337255
v 0.117617 1 0.291154 0.0705882 0.203922 0.337255
v 0.168098 1 0.291154 0.0705882 0.203922 0.337255
v 0.239526 1 -0.167436 0.0705882 0.203922 0.337255
v 0.336195 1 0 0.0705882 0.203922 0.337255
v 0.407624 1 -0.123718 0.0705882 0.203922 0.337255
v 0.382383 1 -0.167436 0.0705882 0.203922 0.337255
v 0.382383 1 0.167436 0.0705882 0.203922 0.337255
v 0.407624 1 0.123718 0.0705882 0.203922 0.337255
v 0.168098 1 -0.291154 0.0705882 0.203922 0.337255
v 0.0945226 0.775 0.331154 0.348235 0.400392 0.473725
v 0.101451 0.73 0.319154 0.403765 0.439686 0.50102
v 0.184264 0.73 0.319154 0.403765 0.439686 0.50102
v 0.191192 0.775 0.331154 0.348235 0.400392 0.473725
v -0.334049 0.775 -0.163718 0.348235 0.400392 0.473725
v -0.382383 0.775 -0.247436 0.348235 0.400392 0.473725
v -0.368527 0.73 -0.247436 0.403765 0.439686 0.50102
v -0.327121 0.73 -0.175718 0.403765 0.439686 0.50102
v -0.191192 0.775 -0.163718 0.348235 0.400392 0.473725
v -0.0966691 0.775 0 0.348235 0.400392 0.473725
v -0.168098 0.775 0.123718 0.348235 0.400392 0.473725
v -0.184264 0.73 -0.175718 0.403765 0.439686 0.50102
v -0.327121 0.73 -0.175718 0.403765 0.439686 0.50102
v -0.0828127 0.73 0 0.403765 0.439686 0.50102
v -0.184264 0.73 -0.175718 0.403765 0.439686 0.50102
v -0.0828127 0.73 0 0.403765 0.439686 0.50102
v -0.154241 0.73 0.123718 0.403765 0.439686 0.50102
v -0.119763 0.775 0.207436 0.348235 0.400392 0.473725
v -0.154241 0.73 0.123718 0.403765 0.439686 0.50102
v -0.112835 0.73 0.195436 0.403765 0.439686 0.50102
v -0.112835 0.73 0.195436 0.403765 0.439686 0.50102
v 0.0300222 0.73 0.195436 0.403765 0.439686 0.50102
v 0.023094 0.775 0.207436 0.348235 0.400392 0.473725
v 0.26262 0.775 0.207436 0.348235 0.400392 0.473725
v 0.405477 0.775 0.207436 0.348235 0.400392 0.473725
v 0.255692 0.73 0.195436 0.403765 0.439686 0.50102
v 0.398549 0.73 0.195436 0.403765 0.439686 0.50102
v 0.0300222 0.73 0.195436 0.403765 0.439686 0.50102
v 0.255692 0.73 0.195436 0.403765 0.439686 0.50102
v -0.023094 0.775 -0.454872 0.348235 0.400392 0.473725
v -0.0300222 0.73 -0.442872 0.403765 0.439686 0.50102
v -0.112835 0.73 -0.442872 0.403765 0.439686 0.50102
v -0.119763 0.775 -0.454872 0.348235 0.400392 0.473725
v 0.0483346 0.775 -0.331154 0.348235 0.400392 0.473725
v -0.191192 0.775 -0.331154 0.348235 0.400392 0.473725
v -0.334049 0.775 -0.331154 0.348235 0.400392 0.473725
v 0.0414064 0.73 -0.319154 0.403765 0.439686 0.50102
v -0.0300222 0.73 -0.442872 0.403765 0.439686 0.50102
v -0.327121 0.73 -0.319154 0.403765 0.439686 0.50102
v -0.368527 0.73 -0.247436 0.403765 0.439686 0.50102
v -0.184264 0.73 -0.319154 0.403765 0.439686 0.50102
v -0.112835 0.73 -0.442872 0.403765 0.439686 0.50102
v -0.184264 0.73 -0.319154 0.403765 0.439686 0.50102
v -0.327121 0.73 -0.319154 0.403765 0.439686 0.50102
v 0.26262 0.775 -0.207436 0.348235 0.400392 0.473725
v 0.255692 0.73 -0.195436 0.403765 0.439686 0.50102
v 0.184264 0.73 -0.319154 0.403765 0.439686 0.50102
v 0.191192 0.775 -0.331154 0.348235 0.400392 0.473725
v 0.0414064 0.73 -0.319154 0.403765 0.439686 0.50102
v 0.405477 0.775 -0.207436 0.348235 0.400392 0.473725
v 0.398549 0.73 -0.195436 0.403765 0.439686 0.50102
v 0.255692 0.73 -0.195436 0.403765 0.439686 0.50102
v 0.453812 0.775 0.123718 0.348235 0.400392 0.473725
v 0.382383 0.775 0 0.348235 0.400392 0.473725
v 0.453812 0.775 -0.123718 0.348235 0.400392 0.473725
v 0.398549 0.73 0.195436 0.403765 0.439686 0.50102
v 0.439956 0.73 0.123718 0.403765 0.439686 0.50102
v 0.439956 0.73 0.123718 0.403765 0.439686 0.50102
v 0.368527 0.73 0 0.403765 0.439686 0.50102
v 0.368527 0.73 0 0.403765 0.439686 0.50102
v 0.439956 0.73 -0.123718 0.403765 0.439686 0.50102
v 0.439956 0.73 -0.123718 0.403765 0.439686 0.50102
v 0.398549 0.73 -0.195436 0.403765 0.439686 0.50102
v 0.191192 0.475 0.331154 0.718431 0.662353 0.655686
v 0.0945226 0.475 0.331154 0.718431 0.662353 0.655686
v 0.0868246 0.475 0.31782 0.718431 0.662353 0.655686
v 0.19889 0.475 0.31782 0.718431 0.662353 0.655686
v 0.202739 0.55 0.351154 0.625882 0.596863 0.610196
v 0.0829756 0.55 0.351154 0.625882 0.596863 0.610196
v 0.101451 0.73 0.319154 0.403765 0.439686 0.50102
v 0.184264 0.73 0.319154 0.403765 0.439686 0.50102
v -0.366987 0.475 -0.247436 0.718431 0.662353 0.655686
v -0.374685 0.475 -0.260769 0.718431 0.662353 0.655686
v -0.341747 0.475 -0.31782 0.718431 0.662353 0.655686
v -0.326351 0.475 -0.31782 0.718431 0.662353 0.655686
v -0.127461 0.475 0.194102 0.718431 0.662353 0.655686
v -0.168098 0.475 0.123718 0.718431 0.662353 0.655686
v -0.1604 0.475 0.110385 0.718431 0.662353 0.655686
v -0.112065 0.475 0.194102 0.718431 0.662353 0.655686
v -0.318653 0.475 -0.163718 0.718431 0.662353 0.655686
v -0.334049 0.475 -0.163718 0.718431 0.662353 0.655686
v -0.382383 0.475 -0.247436 0.718431 0.662353 0.655686
v -0.345596 0.55 -0.143718 0.625882 0.596863 0.610196
v -0.405477 0.55 -0.247436 0.625882 0.596863 0.610196
v -0.202739 0.55 -0.143718 0.625882 0.596863 0.610196
v -0.184264 0.73 -0.175718 0.403765 0.439686 0.50102
v -0.327121 0.73 -0.175718 0.403765 0.439686 0.50102
v -0.119763 0.55 0 0.625882 0.596863 0.610196
v -0.0828127 0.73 0 0.403765 0.439686 0.50102
v -0.184264 0.73 -0.175718 0.403765 0.439686 0.50102
v -0.0966691 0.475 0 0.718431 0.662353 0.655686
v -0.0889711 0.475 0.0133333 0.718431 0.662353 0.655686
v -0.152702 0.475 0.123718 0.718431 0.662353 0.655686
v -0.191192 0.475 -0.163718 0.718431 0.662353 0.655686
v -0.183494 0.475 -0.177051 0.718431 0.662353 0.655686
v -0.0812731 0.475 0 0.718431 0.662353 0.655686
v -0.0889711 0.475 0.0133333 0.718431 0.662353 0.655686
v -0.326351 0.475 -0.177051 0.718431 0.662353 0.655686
v -0.191192 0.55 0.123718 0.625882 0.596863 0.610196
v 0.015396 0.475 0.194102 0.718431 0.662353 0.655686
v 0.023094 0.475 0.207436 0.718431 0.662353 0.655686
v -0.119763 0.475 0.207436 0.718431 0.662353 0.655686
v -0.13131 0.55 0.227436 0.625882 0.596863 0.610196
v 0.011547 0.55 0.227436 0.625882 0.596863 0.610196
v -0.154241 0.73 0.123718 0.403765 0.439686 0.50102
v -0.0828127 0.73 0 0.403765 0.439686 0.50102
v -0.112835 0.73 0.195436 0.403765 0.439686 0.50102
v -0.154241 0.73 0.123718 0.403765 0.439686 0.50102
v 0.0300222 0.73 0.195436 0.403765 0.439686 0.50102
v -0.112835 0.73 0.195436 0.403765 0.439686 0.50102
v 0.0300222 0.73 0.195436 0.403765 0.439686 0.50102
v 0.274167 0.55 0.227436 0.625882 0.596863 0.610196
v 0.255692 0.73 0.195436 0.403765 0.439686 0.50102
v 0.184264 0.73 0.319154 0.403765 0.439686 0.50102
v 0.26262 0.475 0.207436 0.718431 0.662353 0.655686
v 0.405477 0.475 0.207436 0.718431 0.662353 0.655686
v 0.417024 0.55 0.227436 0.625882 0.596863 0.610196
v 0.102221 0.475 0.31782 0.718431 0.662353 0.655686
v 0.030792 0.475 0.194102 0.718431 0.662353 0.655686
v 0.254922 0.475 0.194102 0.718431 0.662353 0.655686
v 0.183494 0.475 0.31782 0.718431 0.662353 0.655686
v 0.413175 0.475 0.194102 0.718431 0.662353 0.655686
v -0.127461 0.475 -0.441538 0.718431 0.662353 0.655686
v -0.119763 0.475 -0.454872 0.718431 0.662353 0.655686
v -0.023094 0.475 -0.454872 0.718431 0.662353 0.655686
v -0.015396 0.475 -0.441538 0.718431 0.662353 0.655686
v -0.13131 0.55 -0.474872 0.625882 0.596863 0.610196
v -0.011547 0.55 -0.474872 0.625882 0.596863 0.610196
v -0.112835 0.73 -0.442872 0.403765 0.439686 0.50102
v -0.0300222 0.73 -0.442872 0.403765 0.439686 0.50102
v -0.368527 0.73 -0.247436 0.403765 0.439686 0.50102
v -0.327121 0.73 -0.319154 0.403765 0.439686 0.50102
v -0.345596 0.55 -0.351154 0.625882 0.596863 0.610196
v -0.368527 0.73 -0.247436 0.403765 0.439686 0.50102
v -0.327121 0.73 -0.175718 0.403765 0.439686 0.50102
v -0.184264 0.73 -0.319154 0.403765 0.439686 0.50102
v -0.202739 0.55 -0.351154 0.625882 0.596863 0.610196
v -0.327121 0.73 -0.319154 0.403765 0.439686 0.50102
v -0.184264 0.73 -0.319154 0.403765 0.439686 0.50102
v 0.0414064 0.73 -0.319154 0.403765 0.439686 0.50102
v 0.0598816 0.55 -0.351154 0.625882 0.596863 0.610196
v -0.0300222 0.73 -0.442872 0.403765 0.439686 0.50102
v 0.0483346 0.475 -0.331154 0.718431 0.662353 0.655686
v -0.334049 0.475 -0.331154 0.718431 0.662353 0.655686
v -0.183494 0.475 -0.31782 0.718431 0.662353 0.655686
v -0.191192 0.475 -0.331154 0.718431 0.662353 0.655686
v -0.112065 0.475 -0.441538 0.718431 0.662353 0.655686
v 0.398549 0.73 0.195436 0.403765 0.439686 0.50102
v 0.255692 0.73 0.195436 0.403765 0.439686 0.50102
v 0.0406366 0.475 -0.31782 0.718431 0.662353 0.655686
v 0.175796 0.475 -0.331154 0.718431 0.662353 0.655686
v 0.183494 0.475 -0.31782 0.718431 0.662353 0.655686
v -0.030792 0.475 -0.441538 0.718431 0.662353 0.655686
v 0.438416 0.475 0.123718 0.718431 0.662353 0.655686
v 0.446114 0.475 0.137051 0.718431 0.662353 0.655686
v 0.397779 0.475 0.194102 0.718431 0.662353 0.655686
v 0.254922 0.475 -0.194102 0.718431 0.662353 0.655686
v 0.26262 0.475 -0.207436 0.718431 0.662353 0.655686
v 0.405477 0.475 -0.207436 0.718431 0.662353 0.655686
v 0.413175 0.475 -0.194102 0.718431 0.662353 0.655686
v 0.191192 0.475 -0.331154 0.718431 0.662353 0.655686
v 0.202739 0.55 -0.351154 0.625882 0.596863 0.610196
v 0.274167 0.55 -0.227436 0.625882 0.596863 0.610196
v 0.417024 0.55 -0.227436 0.625882 0.596863 0.610196
v 0.184264 0.73 -0.319154 0.403765 0.439686 0.50102
v 0.255692 0.73 -0.195436 0.403765 0.439686 0.50102
v 0.184264 0.73 -0.319154 0.403765 0.439686 0.50102
v 0.398549 0.73 -0.195436 0.403765 0.439686 0.50102
v 0.476906 0.55 0.123718 0.625882 0.596863 0.610196
v 0.439956 0.73 0.123718 0.403765 0.439686 0.50102
v 0.398549 0.73 0.195436 0.403765 0.439686 0.50102
v 0.405477 0.55 0 0.625882 0.596863 0.610196
v 0.368527 0.73 0 0.403765 0.439686 0.50102
v 0.439956 0.73 0.123718 0.403765 0.439686 0.50102
v 0.476906 0.55 -0.123718 0.625882 0.596863 0.610196
v 0.398549 0.73 -0.195436 0.403765 0.439686 0.50102
v 0.439956 0.73 -0.123718 0.403765 0.439686 0.50102
v 0.439956 0.73 -0.123718 0.403765 0.439686 0.50102
v 0.368527 0.73 0 0.403765 0.439686 0.50102
v 0.366987 0.475 0 0.718431 0.662353 0.655686
v 0.382383 0.475 0 0.718431 0.662353 0.655686
v 0.453812 0.475 0.123718 0.718431 0.662353 0.655686
v 0.453812 0.475 -0.123718 0.718431 0.662353 0.655686
v 0.446114 0.475 -0.137051 0.718431 0.662353 0.655686
v 0.397779 0.475 -0.194102 0.718431 0.662353 0.655686
v 0.438416 0.475 -0.123718 0.718431 0.662353 0.655686
v 0.00555069 0.25 0.21705 0.903529 0.793333 0.746667
v 0.268171 0.25 -0.237822 0.903529 0.793333 0.746667
v -0.196742 0.25 -0.36154 0.903529 0.793333 0.746667
v 0.0714286 0.25 0.102946 0.903529 0.793333 0.746667
v 0.120988 0.25 0.017107 0.903529 0.793333 0.746667
v 0.0218693 0.25 0.017107 0.903529 0.793333 0.746667
v 0.135366 0.25 -0.351154 0.903529 0.793333 0.746667
v -0.0276899 0.25 -0.0687322 0.903529 0.793333 0.746667
v 0.0714286 0.25 -0.24041 0.903529 0.793333 0.746667
v 0.170547 0.25 -0.0687322 0.903529 0.793333 0.746667
v 0.0218693 0.25 -0.154571 0.903529 0.793333 0.746667
v 0.120988 0.25 -0.154571 0.903529 0.793333 0.746667

vt 0.75 0
vt 0.25 0
vt 0 0.5
vt 0.25 1
vt 0.75 1
vt 1 0.5
vt 0.5 0.757576
vt 0.5 0
vt 0.666667 0
vt 0.666667 0.757576
vt 0 0.757576
vt 0 0
vt 0.166667 0
vt 0.166667 0.757576
vt 0.333333 0
vt 0.333333 0.757576
vt 0.833333 0
vt 0.833333 0.757576
vt 1 0
vt 1 0.757576
vt 0.047551 0
vt 0.0454545 0.5
vt 0.095102 0
vt 0.0909091 0.5
vt 0.142653 0
vt 0.136364 0.5
vt 0.182517 0
vt 0.181818 0.5
vt 0.230068 0
vt 0.227273 0.5
vt 0.277619 0
vt 0.272727 0.5
vt 0.317483 0
vt 0.318182 0.5
vt 0.357347 0
vt 0.363636 0.5
vt 0.404898 0
vt 0.409091 0.5
vt 0.460136 0
vt 0.454545 0.5
vt 0.507687 0
vt 0.5 0.5
vt 0.547551 0
vt 0.545455 0.5
vt 0.595102 0
vt 0.590909 0.5
vt 0.642653 0
vt 0.636364 0.5
vt 0.682517 0
vt 0.681818 0.5
vt 0.730068 0
vt 0.727273 0.5
vt 0.777619 0
vt 0.772727 0.5
vt 0.817483 0
vt 0.818182 0.5
vt 0.865034 0
vt 0.863636 0.5
vt 0.912585 0
vt 0.909091 0.5
vt 0.952449 0
vt 0.954545 0.5
vt 0.316019 0.833333
vt 0.344171 0.833333
vt 0.396114 0.833333
vt 0.471848 0.833333
vt 0.396114 0.833333
vt 0.52379 0.833333
vt 0.551943 0.833333
vt 0.603886 0.833333
vt 0.655829 0.833333
vt 0.683981 0.833333
vt 0.948057 0.833333
vt 1 0.833333
vt 0.735924 0.833333
vt 0.919905 0.833333
vt 0.867962 0.833333
vt 0.787867 0.833333
vt 0.735924 0.833333
vt 0.816019 0.833333
vt 0.287867 0.833333
vt 0.235924 0.833333
vt 0.287867 0.833333
vt 0.0519429 0.833333
vt 0 0.833333
vt 0.103886 0.833333
vt 0.0519429 0.833333
vt 0.155829 0.833333
vt 0.103886 0.833333
vt 0.183981 0.833333
vt 0.235924 0.833333
vt 0.225993 0.824768
vt 0.485919 0.824768
vt 0.38989 1
vt 0.322022 1
vt 0.0339337 0.700926
vt 0.225993 0.700926
vt 0.0339337 0.824768
vt 0 0.762847
vt 0.514081 0.175232
vt 0.384118 0.412384
vt 0.288088 0.237153
vt 0.322022 0.175232
vt 0.774007 0.175232
vt 0.61011 0
vt 0.677978 0
vt 0.774007 0.649537
vt 0.903971 0.412384
vt 1 0.587616
vt 0.966066 0.649537
vt 0.966066 0.175232
vt 1 0.237153
vt 0.677978 0.824768
vt 0.649551 0.5
vt 0.65411 0.2
vt 0.68379 0.2
vt 0.683283 0.5
vt 0.685062 1
vt 0.665561 1
vt 0.350449 0.5
vt 0.316717 0.5
vt 0.31621 0.2
vt 0.34589 0.2
vt 0.334439 1
vt 0.314938 1
vt 0.4003 0.5
vt 0.389626 1
vt 0.466267 0.5
vt 0.480499 1
vt 0.516117 0.5
vt 0.535686 1
vt 0.39726 0.2
vt 0.34589 0.2
vt 0.47032 0.2
vt 0.39726 0.2
vt 0.47032 0.2
vt 0.52169 0.2
vt 0.54985 0.5
vt 0.52169 0.2
vt 0.55137 0.2
vt 0.55137 0.2
vt 0.60274 0.2
vt 0.5997 0.5
vt 0.555187 1
vt 0.610374 1
vt 0.733134 0.5
vt 0.782984 0.5
vt 0.795436 1
vt 0.740249 1
vt 0.73516 0.2
vt 0.78653 0.2
vt 0.60274 0.2
vt 0.73516 0.2
vt 0.149551 0.5
vt 0.15411 0.2
vt 0.18379 0.2
vt 0.183283 0.5
vt 0.185062 1
vt 0.165561 1
vt 0.110374 1
vt 0.0997004 0.5
vt 0.233134 0.5
vt 0.240249 1
vt 0.282984 0.5
vt 0.295436 1
vt 0.10274 0.2
vt 0.15411 0.2
vt 0.28653 0.2
vt 0.31621 0.2
vt 0.23516 0.2
vt 0.18379 0.2
vt 0.23516 0.2
vt 0.28653 0.2
vt 0 0.2
vt 0.0513699 0.2
vt 0.0498502 0.5
vt 0.0513699 0.2
vt 0.10274 0.2
vt 1 0.5
vt 0.95015 0.5
vt 0.94863 0.2
vt 1 0.2
vt 0.055187 1
vt 0 1
vt 0.944813 1
vt 1 1
vt 0.816717 0.5
vt 0.814938 1
vt 0.866567 0.5
vt 0.870125 1
vt 0.916417 0.5
vt 0.925312 1
vt 0.78653 0.2
vt 0.81621 0.2
vt 0.81621 0.2
vt 0.86758 0.2
vt 0.86758 0.2
vt 0.91895 0.2
vt 0.91895 0.2
vt 0.94863 0.2
vt 0.685934 0
vt 0.570328 0
vt 0.561122 0.016963
vt 0.69514 0.016963
vt 0.649551 0
vt 0.683283 0
vt 0.682517 0.5
vt 0.642653 0.5
vt 0.65425 0.9
vt 0.683806 0.9
vt 0.018412 0.736095
vt 0.00920599 0.753058
vt 0.048597 0.82564
vt 0.0670089 0.82564
vt 0.30486 0.17436
vt 0.256263 0.263905
vt 0.265469 0.280868
vt 0.323272 0.17436
vt 0.0762149 0.629587
vt 0.057803 0.629587
vt 0 0.736095
vt 0.350449 0
vt 0.357347 0.5
vt 0.317483 0.5
vt 0.316717 0
vt 0.404898 0.5
vt 0.397167 0.9
vt 0.34575 0.9
vt 0.460136 0.5
vt 0.470444 0.9
vt 0.397167 0.9
vt 0.341684 0.421302
vt 0.35089 0.404339
vt 0.274675 0.263905
vt 0.228645 0.629587
vt 0.237851 0.64655
vt 0.360096 0.421302
vt 0.35089 0.404339
vt 0.0670089 0.64655
vt 0.4003 0
vt 0.466267 0
vt 0.516117 0
vt 0.507687 0.5
vt 0.475702 0.17436
vt 0.484908 0.157397
vt 0.314066 0.157397
vt 0.54985 0
vt 0.547551 0.5
vt 0.5997 0
vt 0.595102 0.5
vt 0.521861 0.9
vt 0.551417 0.9
vt 0.602833 0.9
vt 0.551417 0.9
vt 0.602833 0.9
vt 0.730068 0.5
vt 0.735222 0.9
vt 0.683806 0.9
vt 0.733134 0
vt 0.782984 0
vt 0.777619 0.5
vt 0.579534 0.016963
vt 0.475702 0.17436
vt 0.494113 0.17436
vt 0.762149 0.17436
vt 0.771355 0.157397
vt 0.676728 0.016963
vt 0.942197 0.157397
vt 0.951403 0.17436
vt 0.30486 0.983037
vt 0.314066 1
vt 0.429672 1
vt 0.438878 0.983037
vt 0.149551 0
vt 0.183283 0
vt 0.182517 0.5
vt 0.142653 0.5
vt 0.183806 0.9
vt 0.15425 0.9
vt 0.316194 0.9
vt 0.286639 0.9
vt 0.277619 0.5
vt 0.316194 0.9
vt 0.34575 0.9
vt 0.235222 0.9
vt 0.230068 0.5
vt 0.235222 0.9
vt 0.183806 0.9
vt 0.102833 0.9
vt 0.095102 0.5
vt 0.15425 0.9
vt 0.0997004 0
vt 0.282984 0
vt 0.237851 0.82564
vt 0.228645 0.842603
vt 0.323272 0.983037
vt 0.057803 0.842603
vt 0.233134 0
vt 0.786639 0.9
vt 0.735222 0.9
vt 0.505887 0.82564
vt 0.515092 0.842603
vt 0.667522 0.842603
vt 0.676728 0.82564
vt 0.420466 0.983037
vt 0.981588 0.263905
vt 0.990794 0.246942
vt 0.932991 0.17436
vt 0.762149 0.668243
vt 0.771355 0.685206
vt 0.942197 0.685206
vt 0.951403 0.668243
vt 0.685934 0.842603
vt 0.0498502 0
vt 0.047551 0.5
vt 0.95015 0
vt 1 0
vt 0.952449 0.5
vt 0.0514166 0.9
vt 0 0.9
vt 0.102833 0.9
vt 0.0514166 0.9
vt 0.948583 0.9
vt 1 0.9
vt 0.817483 0.5
vt 0.816194 0.9
vt 0.786639 0.9
vt 0.865034 0.5
vt 0.867611 0.9
vt 0.816194 0.9
vt 0.912585 0.5
vt 0.948583 0.9
vt 0.919028 0.9
vt 0.919028 0.9
vt 0.867611 0.9
vt 0.896167 0.421302
vt 0.914579 0.421302
vt 1 0.263905
vt 1 0.578698
vt 0.990794 0.595661
vt 0.816717 0
vt 0.866567 0
vt 0.916417 0
vt 0.932991 0.668243
vt 0.981588 0.578698
vt 0.91905 0.425113
vt 0.770237 0.70045
vt 0.932137 0.70045
vt 1 0.574887
vt 0.770237 0.149775
vt 1 0.275338
vt 0.932137 0.149775
vt 0.553561 0
vt 0.465816 0.162348
vt 0.763442 0.713023
vt 0.689288 0
vt 0.310712 0.149775
vt 0.242849 0.275338
vt 0.323798 0.425113
vt 0.472611 0.149775
vt 0.0678634 0.850225
vt 0.229763 0.850225
vt 0.229763 0.5991
vt 0.0678634 0.5991
vt 0 0.724662
vt 0.236558 0.862798
vt 0.540475 0.300484
vt 0.59664 0.404403
vt 0.48431 0.404403
vt 0.527389 0.850225
vt 0.612935 0.850225
vt 0.428144 0.508321
vt 0.310712 1
vt 0.446439 1
vt 0.540475 0.716157
vt 0.689288 0.850225
vt 0.652805 0.508321
vt 0.48431 0.612239
vt 0.59664 0.612239

vn 0 -1 0
vn -0.866025 0 0.5
vn -0.866025 0 0.5
vn 0.866025 0 -0.5
vn 0.866025 0 -0.5
vn 0 0 -1
vn -0.866025 0 -0.5
vn -0.866025 0 -0.5
vn 0 0 1
vn 0.866025 0 0.5
vn 0.866025 0 0.5
vn 0.866025 0 -0.5
vn 0.866025 0 -0.5
vn 0.866025 0 -0.5
vn -0.866025 0 -0.5
vn -0.866025 0 -0.5
vn -0.866025 0 -0.5
vn -0.866025 0 0.5
vn -0.866025 0 0.5
vn -0.866025 0 0.5
vn -0.866025 0 0.5
vn -0.866025 0 -0.5
vn -0.866025 0 0.5
vn -0.866025 0 0.5
vn -0.866025 0 0.5
vn -0.866025 0 0.5
vn 0.866025 0 0.5
vn 0.866025 0 0.5
vn 0.866025 0 0.5
vn 0.866025 0 -0.5
vn 0.866025 0 -0.5
vn 0.866025 0 0.5
vn 0.866025 0 0.5
vn 0.866025 0 -0.5
vn 0.866025 0 -0.5
vn -0.866025 0 0.5
vn -0.866025 0 0.5
vn -0.866025 0 0.5
vn -0.866025 0 -0.5
vn -0.866025 0 0.5
vn -0.866025 0 0.5
vn 0.866025 0 0.5
vn 0.866025 0 0.5
vn 0.866025 0 -0.5
vn 0.866025 0 0.5
vn 0.866025 0 -0.5
vn -0.866025 0 -0.5
vn -0.866025 0 -0.5
vn 0.866025 0 -0.5
vn 0 1 0
vn -0.866025 0 0.5
vn -0.866025 0 0.5
vn -0.866025 0 0.5
vn -0.866025 0 0.5
vn -0.866025 0 0.5
vn -0.866025 0 0.5
vn -0.866025 0 0.5
vn -0.866025 0 0.5
vn -0.866025 0 0.5
vn -0.866025 0 0.5
vn 0.866025 0 0.5
vn -0.866025 0 -0.5
vn -0.866025 0 -0.5
vn 0.866025 0 -0.5
vn -0.866025 0 -0.5
vn -0.866025 0 -0.5
vn 0.866025 0 0.5
vn 0.866025 0 0.5
vn 0.866025 0 -0.5
vn 0.866025 0 -0.5
vn 0.866025 0 0.5
vn 0.866025 0 -0.5
vn -0.866025 0 0.5
vn -0.866025 0 0.5
vn -0.866025 0 -0.5
vn -0.866025 0 0.5
vn 0.866025 0 0.5
vn 0.866025 0 -0.5

f 1/1/1 2/2/1 3/3/1 4/4/1 5/5/1 6/6/1
f 7/7/2 3/8/3 2/9/3 8/10/2
f 9/11/4 6/12/5 5/13/5 10/14/4
f 11/14/6 5/13/6 4/15/6 12/16/6
f 13/16/7 4/15/8 3/8/8 14/7/7
f 1/17/9 15/18/9 16/10/9 2/9/9
f 17/18/10 1/17/11 6/19/11 18/20/10
f 19/12/12 20/21/12 21/22/12 22/3/12
f 20/21/6 23/23/6 24/24/6 21/22/6
f 23/23/13 25/25/13 26/26/14 24/24/14
f 25/25/6 27/27/6 28/28/6 26/26/6
f 27/27/15 29/29/15 30/30/15 28/28/15
f 29/29/6 31/31/6 32/32/6 30/30/6
f 31/31/16 33/33/16 34/34/17 32/32/17
f 33/33/18 35/35/18 36/36/19 34/34/19
f 35/35/9 37/37/9 38/38/9 36/36/9
f 37/37/20 39/39/20 40/40/21 38/38/21
f 39/39/22 41/41/22 42/42/22 40/40/22
f 41/41/23 43/43/23 44/44/24 42/42/24
f 43/43/9 45/45/9 46/46/9 44/44/9
f 45/45/25 47/47/25 48/48/26 46/46/26
f 47/47/9 49/49/9 50/50/9 48/48/9
f 49/49/27 51/51/27 52/52/27 50/50/27
f 51/51/9 53/53/9 54/54/9 52/52/9
f 53/53/28 55/55/28 56/56/29 54/54/29
f 55/55/30 57/57/30 58/58/31 56/56/31
f 57/57/32 59/59/32 60/60/33 58/58/33
f 59/59/34 61/61/34 62/62/35 60/60/35
f 61/61/6 19/19/6 22/6/6 62/62/6
f 63/63/36 34/34/19 36/36/19 64/64/36
f 64/64/9 36/36/9 38/38/9 65/65/9
f 38/38/21 40/40/21 66/66/37 67/67/38
f 42/42/22 68/68/39 66/66/39 40/40/22
f 44/44/24 69/69/40 70/68/40 42/42/24
f 44/44/9 46/46/9 71/70/9 72/69/9
f 46/46/26 48/48/26 73/71/41 74/70/41
f 73/71/9 48/48/9 50/50/9 75/72/9
f 76/73/6 62/62/6 22/6/6 77/74/6
f 52/52/27 78/75/42 75/72/43 50/50/27
f 58/58/33 60/60/33 79/76/43 80/77/43
f 60/60/35 62/62/35 76/73/44 81/76/44
f 54/54/9 82/78/9 83/79/9 52/52/9
f 56/56/29 84/80/45 85/78/45 54/54/29
f 84/80/46 56/56/31 58/58/31 86/77/46
f 30/30/6 32/32/6 87/81/6 88/82/6
f 32/32/17 34/34/17 63/63/47 89/83/48
f 21/22/12 90/84/49 77/85/46 22/3/12
f 21/22/6 24/24/6 91/86/6 92/87/6
f 24/24/14 26/26/14 93/88/14 94/89/14
f 93/88/6 26/26/6 28/28/6 95/90/6
f 28/28/15 30/30/15 96/91/15 95/90/15
f 97/92/50 98/93/50 99/94/50 100/95/50
f 101/96/50 102/97/50 97/92/50 103/98/50 104/99/50
f 105/100/50 106/101/50 107/102/50 108/103/50
f 109/104/50 105/100/50 110/105/50 111/106/50
f 112/107/50 113/108/50 114/109/50 115/110/50
f 97/92/50 102/97/50 105/100/50 116/111/50 117/112/50 118/113/50
f 119/114/9 120/115/9 121/116/9 122/117/9
f 119/114/9 122/117/9 111/118/9 110/119/9
f 123/120/51 124/121/51 125/122/52 126/123/52
f 123/120/51 101/124/53 104/125/53 124/121/51
f 127/126/9 102/127/9 101/124/9 123/120/9
f 127/126/54 128/128/54 106/129/55 102/127/55
f 106/129/39 128/128/22 129/130/22 107/131/39
f 130/132/9 127/126/9 123/120/9 131/133/9
f 132/134/56 128/128/54 127/126/54 133/135/56
f 128/128/22 134/136/39 135/137/39 129/130/22
f 136/138/57 129/130/57 137/139/58 138/140/58
f 136/138/9 139/141/9 140/142/9 141/143/9
f 136/138/57 108/144/59 107/131/59 129/130/57
f 136/138/9 141/143/9 105/145/9 108/144/9
f 142/146/9 143/147/9 116/148/9 109/149/9
f 142/146/9 144/150/9 145/151/9 143/147/9
f 141/143/60 146/152/25 120/115/25 119/114/60
f 105/145/25 141/143/60 119/114/60 110/119/25
f 142/146/42 109/149/61 111/118/61 122/117/42
f 147/153/32 142/146/42 122/117/42 121/116/32
f 148/154/6 149/155/6 150/156/6 151/157/6
f 148/154/6 151/157/6 100/158/6 99/159/6
f 98/160/14 152/161/12 148/154/12 99/159/14
f 153/162/17 97/163/15 100/158/15 151/157/17
f 153/162/6 154/164/6 103/165/6 97/163/6
f 103/165/62 154/164/63 124/121/63 104/125/62
f 152/161/12 155/166/64 156/167/64 148/154/12
f 154/164/63 157/168/65 158/169/65 124/121/63
f 159/170/66 153/162/17 151/157/17 160/171/66
f 153/162/6 161/172/6 162/173/6 154/164/6
f 163/3/49 164/174/30 165/175/30 166/176/49
f 166/176/6 165/177/6 167/178/6 152/161/6
f 163/179/6 168/180/6 169/181/6 170/182/6
f 163/3/49 166/176/49 118/183/14 112/184/14
f 166/176/6 152/161/6 98/160/6 118/183/6
f 115/185/6 168/180/6 163/179/6 112/186/6
f 171/187/67 117/188/68 116/148/68 143/147/67
f 171/187/31 172/189/31 113/190/30 117/188/30
f 172/189/33 173/191/33 114/192/32 113/190/32
f 114/192/69 173/191/70 168/180/70 115/185/69
f 171/187/67 143/147/67 174/193/71 175/194/71
f 171/187/31 176/195/46 177/196/46 172/189/31
f 173/191/33 172/189/33 178/197/43 179/198/43
f 173/191/70 180/199/72 181/200/72 168/180/70
f 182/201/1 183/202/1 184/203/1 185/204/1
f 183/205/9 182/206/9 186/207/9 187/208/9
f 188/209/9 187/208/9 186/207/9 189/210/9
f 190/211/1 191/212/1 192/213/1 193/214/1
f 194/215/1 195/216/1 196/217/1 197/218/1
f 198/219/1 199/220/1 200/221/1 191/212/1
f 199/222/51 201/223/18 202/224/18 200/225/51
f 203/226/9 204/227/9 205/228/9 201/223/9
f 206/229/20 207/230/73 208/231/73 203/226/20
f 209/232/1 210/233/1 211/234/1 196/217/1
f 212/235/1 213/236/1 214/237/1 215/238/1
f 216/239/1 213/236/1 212/235/1 198/219/1
f 212/240/9 203/226/9 201/223/9 199/222/9
f 212/240/54 209/241/54 206/229/20 203/226/20
f 206/229/22 209/241/22 195/242/22 217/243/22
f 218/244/1 219/245/1 220/246/1 194/215/1
f 220/247/57 221/248/23 217/243/23 195/242/57
f 220/247/9 219/249/9 222/250/9 221/248/9
f 223/251/39 224/230/39 206/229/22 217/243/22
f 221/248/23 225/252/74 226/251/74 217/243/23
f 222/250/9 227/253/9 228/254/9 221/248/9
f 229/255/25 222/250/25 187/208/25 188/209/25
f 230/256/27 231/257/27 232/258/27 186/207/27
f 233/259/9 234/260/9 235/261/9 230/256/9
f 236/262/1 184/203/1 218/263/1 237/264/1
f 222/250/25 219/249/60 183/205/60 187/208/25
f 238/265/1 233/266/1 185/204/1 239/267/1
f 234/268/1 233/266/1 238/265/1 240/269/1
f 233/259/42 230/256/27 186/207/27 182/206/42
f 241/270/1 242/271/1 243/272/1 244/273/1
f 243/274/6 242/275/6 245/276/6 246/277/6
f 246/277/6 245/276/6 247/278/6 248/279/6
f 249/280/75 250/281/75 251/282/16 202/224/16
f 252/283/76 202/224/18 201/223/18 253/284/76
f 254/285/6 255/286/6 251/282/6 256/281/6
f 255/286/15 257/287/15 247/288/15 245/276/15
f 258/289/13 259/290/13 246/277/13 260/291/13
f 259/290/13 261/292/12 243/274/12 246/277/13
f 251/282/16 262/293/63 200/225/63 202/224/16
f 263/294/1 264/295/1 241/270/1 265/296/1
f 262/297/1 264/295/1 263/294/1 192/213/1
f 264/298/17 255/286/15 245/276/15 242/275/17
f 255/286/6 264/298/6 262/293/6 251/282/6
f 266/299/9 267/300/9 230/256/9 235/261/9
f 268/301/1 261/302/1 269/303/1 270/304/1
f 244/273/1 261/302/1 268/301/1 271/305/1
f 272/306/1 273/307/1 240/269/1 274/308/1
f 275/309/1 276/310/1 277/311/1 278/312/1
f 279/313/1 276/310/1 275/309/1 269/303/1
f 276/12/49 279/314/49 280/315/12 281/3/12
f 280/315/6 279/314/6 261/292/6 259/290/6
f 277/316/6 276/317/6 281/6/6 282/318/6
f 281/3/12 280/315/12 283/319/12 284/320/12
f 280/315/6 259/290/6 258/321/6 285/322/6
f 286/323/6 282/318/6 281/6/6 284/324/6
f 287/325/28 288/326/77 289/327/77 235/261/28
f 287/325/30 290/328/30 291/329/30 292/330/30
f 293/331/34 282/318/34 294/332/78 295/333/78
f 290/328/32 293/331/32 296/334/32 297/335/32
f 298/336/1 299/337/1 300/338/1 273/307/1
f 301/339/1 299/337/1 298/336/1 302/340/1
f 300/341/67 287/325/28 235/261/28 234/260/67
f 300/341/31 299/342/31 290/328/30 287/325/30
f 299/342/33 301/343/33 293/331/32 290/328/32
f 303/344/1 278/312/1 302/340/1 304/345/1
f 293/331/34 301/343/70 277/316/70 282/318/34
f 57/346/1 19/347/1 61/348/1 59/349/1
f 51/350/1 57/346/1 55/351/1 53/352/1
f 47/353/1 305/354/1 306/355/1 57/346/1 49/356/1
f 43/357/1 41/358/1 39/359/1 45/360/1
f 31/361/1 29/362/1 37/363/1 35/364/1 33/365/1
f 37/363/1 29/362/1 307/366/1 308/367/1 305/354/1
f 309/368/1 308/367/1 310/369/1
f 23/370/1 311/371/1 312/372/1
f 27/373/1 25/374/1 23/370/1 312/372/1 307/366/1
f 313/375/1 311/371/1 20/376/1 306/355/1 314/377/1
f 315/378/1 313/375/1 316/379/1