v -0.5 1 2.94449 1 0 0
v -0.2 1 2.77128 1 0 0
v -0.5 1 2.59808 1 0 0
v -0.2 1 2.77128 0 0 1
v -0.5 1 2.94449 0 0 1
v -0.5 0 2.94449 0 0 1
v -0.2 0 2.77128 0 0 1
v -0.5 1 0.866025 1 0 0
v -2 1 0 1 0 0
v -2 1 0.34641 1 0 0
v -0.8 1 1.03923 1 0 0
v -2 0 0.34641 0 0 1
v -0.8 0 1.03923 0 0 1
v -0.8 1 1.03923 0 0 1
v -2 1 0.34641 0 0 1
v 2.5 1 1.21244 1 0 0
v 2.8 1 1.03923 1 0 0
v 2.5 1 0.866025 1 0 0
v 2.8 1 1.03923 0 0 1
v 2.5 1 1.21244 0 0 1
v 2.5 0 1.21244 0 0 1
v 2.8 0 1.03923 0 0 1
v -2 1 -1.73205 1 0 0
v -0.5 1 -2.59808 1 0 0
v -0.8 1 -2.77128 1 0 0
v -2 1 -2.07846 1 0 0
v -0.8 0 -2.77128 0 0 1
v -2 0 -2.07846 0 0 1
v -2 1 -2.07846 0 0 1
v -0.8 1 -2.77128 0 0 1
v 1 1 0 1 0 0
v 2.5 1 0.519615 1 0 0
v 1.3 1 -0.173205 1 0 0
v 2.5 0 0.519615 0 0 1
v 1.3 0 -0.173205 0 0 1
v 1.3 1 -0.173205 0 0 1
v 2.5 1 0.519615 0 0 1
v -0.8 1 2.42487 1 0 0
v -0.8 0 2.42487 0 0 1
v -0.8 1 2.42487 0 0 1
v -0.2 1 -2.77128 1 0 0
v -0.5 1 -2.94449 1 0 0
v -0.5 1 -2.94449 0 0 1
v -0.2 1 -2.77128 0 0 1
v -0.2 0 -2.77128 0 0 1
v -0.5 0 -2.94449 0 0 1
v -2.3 1 -0.173205 1 0 0
v -2.3 1 0.173205 1 0 0
v -2.3 1 0.173205 0 0 1
v -2.3 1 -0.173205 0 0 1
v -2.3 0 -0.173205 0 0 1
v -2.3 0 0.173205 0 0 1
v -2.3 1 -1.55885 1 0 0
v -2.3 0 -1.55885 0 0 1
v -2.3 1 -1.55885 0 0 1
v -2.3 1 -1.90526 1 0 0
v -2.3 1 -1.90526 0 0 1
v -2.3 0 -1.90526 0 0 1
v -0.2 1 -2.42487 1 0 0
v -0.2 1 -2.42487 0 0 1
v -0.2 0 -2.42487 0 0 1
v 1 1 1.73205 1 0 0
v 1 1 2.07846 1 0 0
v 1 0 2.07846 0 0 1
v 1 1 2.07846 0 0 1
v 2.8 1 0.69282 1 0 0
v 2.8 1 0.69282 0 0 1
v 2.8 0 0.69282 0 0 1
v -0.8 1 2.77128 1 0 0
v -0.8 1 2.77128 0 0 1
v -0.8 0 2.77128 0 0 1
v 1.3 1 1.90526 1 0 0
v 1.3 0 1.90526 0 0 1
v 1.3 1 1.90526 0 0 1
v 1 1 -0.34641 1 0 0
v 1 1 -0.34641 0 0 1
v 1 0 -0.34641 0 0 1
v -0.5 1 -0.866025 1 0 0
v -0.2 1 -1.03923 1 0 0
v -0.2 0 -1.03923 0 0 1
v -0.2 1 -1.03923 0 0 1
v -0.5 1 2.59808 0 1 0
v 1 1 1.73205 0 1 0
v -0.5 1 0.866025 0 1 0
v 1 1 0 0 1 0
v 2.5 1 0.866025 0 1 0
v -0.5 1 -0.866025 0 1 0
v -2 1 0 0 1 0
v -2 1 -1.73205 0 1 0
v -0.5 1 -2.59808 0 1 0

f 1 2 3
f 4 5 6 7
f 8 9 10 11
f 12 13 14 15
f 16 17 18
f 19 20 21 22
f 23 24 25 26
f 27 28 29 30
f 31 18 32 33
f 34 35 36 37
f 3 8 11 38
f 13 39 40 14
f 41 42 24
f 43 44 45 46
f 47 48 9
f 49 50 51 52
f 9 23 53 47
f 54 51 50 55
f 56 53 23
f 55 57 58 54
f 59 41 24
f 44 60 61 45
f 26 56 23
f 57 29 28 58
f 62 3 2 63
f 7 64 65 4
f 17 66 18
f 67 19 22 68
f 42 25 24
f 30 43 46 27
f 69 1 3
f 5 70 71 6
f 48 10 9
f 15 49 52 12
f 18 62 72 16
f 73 21 20 74
f 33 75 31
f 76 36 35 77
f 24 78 79 59
f 80 61 60 81
f 63 72 62
f 74 65 64 73
f 38 69 3
f 70 40 39 71
f 66 32 18
f 37 67 68 34
f 78 31 75 79
f 77 80 81 76
f 82 83 84
f 85 84 83
f 83 86 85
f 84 85 87
f 87 88 84
f 88 87 89
f 90 89 87