v -0.125 0.1 -0.649519 0.792157 0.666667 0.596078
v -0.125 0 -0.649519 0.792157 0.666667 0.596078
v -0.3125 0 -0.757772 0.792157 0.666667 0.596078
v -0.3125 0.1 -0.757772 0.792157 0.666667 0.596078
v -0.5 0.1 -0.649519 0.792157 0.666667 0.596078
v -0.5 0.1 -0.433013 0.792157 0.666667 0.596078
v -0.5 0 -0.433013 0.792157 0.666667 0.596078
v -0.5 0 -0.649519 0.792157 0.666667 0.596078
v -0.5 0.5 -0.866025 0.541176 0.796078 0.815686
v -0.5 0.5 -0.649519 0.541176 0.796078 0.815686
v -0.3125 0.5 -0.757772 0.541176 0.796078 0.815686
v -0.5 0.1 -0.649519 0.541176 0.796078 0.815686
v -0.3125 0.1 -0.757772 0.541176 0.796078 0.815686
v -0.3125 0 -0.757772 0.541176 0.796078 0.815686
v -0.5 0 -0.866025 0.541176 0.796078 0.815686
v -0.5 0 -0.649519 0.541176 0.796078 0.815686

f 1 2 3 4
f 1 4 5 6
f 3 2 7 8
f 8 7 6 5
f 7 2 1 6
f 9 10 11
f 10 12 13 11
f 14 15 9 11
f 15 16 10 9
f 14 16 15