v 1.75 0 -1.29904 1 0.52549 0.439216
v 1.375 0 -1.51554 1 0.52549 0.439216
v 1.375 0.3 -1.51554 1 0.52549 0.439216
v 1.75 0.3 -1.29904 1 0.52549 0.439216
v 1.75 0.45 -1.29904 1 0.52549 0.439216
v 2.125 0.45 -1.08253 1 0.52549 0.439216
v 2.125 0 -1.08253 1 0.52549 0.439216
v 2.125 0.6 -1.08253 1 0.52549 0.439216
v 2.5 0.6 -0.866025 1 0.52549 0.439216
v 2.5 0 -0.866025 1 0.52549 0.439216
v 1 0.15 -1.73205 1 0.52549 0.439216
v 1 0.15 -1.29904 1 0.52549 0.439216
v 1.375 0.15 -1.51554 1 0.52549 0.439216
v 1 0 -1.29904 1 0.52549 0.439216
v 1 0 -1.73205 1 0.52549 0.439216
v 1 0.3 -1.29904 1 0.52549 0.439216
v 1 0.3 -0.866025 1 0.52549 0.439216
v 1 0 -0.866025 1 0.52549 0.439216
v 1 0.45 -0.866025 1 0.52549 0.439216
v 1 0.45 -0.433013 1 0.52549 0.439216
v 1 0 -0.433013 1 0.52549 0.439216
v 1 0.6 -0.433013 1 0.52549 0.439216
v 1 0.6 -0.433013 1 0.52549 0.439216
v 1 0.45 -0.433013 1 0.52549 0.439216
v 0.625 0.45 -0.216506 1 0.52549 0.439216
v 0.625 0.6 -0.216506 1 0.52549 0.439216
v 0.25 0 -0.433013 1 0.52549 0.439216
v 1 0 -0.866025 1 0.52549 0.439216
v 1 0 -0.433013 1 0.52549 0.439216
v 0.625 0 -0.216506 1 0.52549 0.439216
v -0.125 0 -0.649519 1 0.52549 0.439216
v 1 0 -1.29904 1 0.52549 0.439216
v -0.5 0 -0.866025 1 0.52549 0.439216
v 1 0 -1.73205 1 0.52549 0.439216
v -0.5 0.15 -0.866025 1 0.52549 0.439216
v 1 0.15 -1.73205 1 0.52549 0.439216
v 0.25 0.45 -0.433013 1 0.52549 0.439216
v 1 0.45 -0.866025 1 0.52549 0.439216
v 0.25 0.3 -0.433013 1 0.52549 0.439216
v 1 0.3 -0.866025 1 0.52549 0.439216
v -0.125 0.3 -0.649519 1 0.52549 0.439216
v 1 0.3 -1.29904 1 0.52549 0.439216
v -0.125 0.15 -0.649519 1 0.52549 0.439216
v 1 0.15 -1.29904 1 0.52549 0.439216
v 1 0 -1.6e-11 1 0.52549 0.439216
v 1 0 -8e-12 1 0.52549 0.439216
v 0.625 0 0.216506 1 0.52549 0.439216
v 0.625 0 -0.216506 1 0.52549 0.439216
v 0.25 0 0.433013 1 0.52549 0.439216
v 0.25 0 -0.433013 1 0.52549 0.439216
v -0.125 0 0.649519 1 0.52549 0.439216
v -0.125 0 -0.649519 1 0.52549 0.439216
v -0.5 0 0.866025 1 0.52549 0.439216
v -0.5 0 -0.866025 1 0.52549 0.439216
v -0.5 0.15 0.866025 1 0.52549 0.439216
v -0.5 0.15 -0.866025 1 0.52549 0.439216
v 1 0.6 -1.6e-11 1 0.52549 0.439216
v 1 0.6 -8e-12 1 0.52549 0.439216
v 0.25 0.45 -0.433013 1 0.52549 0.439216
v 0.25 0.3 -0.433013 1 0.52549 0.439216
v 0.25 0.3 0.433013 1 0.52549 0.439216
v 0.25 0.45 0.433013 1 0.52549 0.439216
v -0.125 0.3 -0.649519 1 0.52549 0.439216
v -0.125 0.3 0.649519 1 0.52549 0.439216
v -0.125 0.15 -0.649519 1 0.52549 0.439216
v -0.125 0.15 0.649519 1 0.52549 0.439216
v 0.625 0.6 -0.216506 1 0.52549 0.439216
v 0.625 0.6 0.216506 1 0.52549 0.439216
v 0.625 0.45 -0.216506 1 0.52549 0.439216
v 0.625 0.45 0.216506 1 0.52549 0.439216
v -0.125 0 1.08253 1 0.52549 0.439216
v 0.25 0 1.29904 1 0.52549 0.439216
v 0.25 0.3 1.29904 1 0.52549 0.439216
v -0.125 0.3 1.08253 1 0.52549 0.439216
v 0.625 0.45 1.51554 1 0.52549 0.439216
v 0.25 0.45 1.29904 1 0.52549 0.439216
v 0.625 0 1.51554 1 0.52549 0.439216
v 1 0.6 1.73205 1 0.52549 0.439216
v 0.625 0.6 1.51554 1 0.52549 0.439216
v 1 0 1.73205 1 0.52549 0.439216
v 0.625 0.45 0.216506 1 0.52549 0.439216
v 0.25 0.45 0.433013 1 0.52549 0.439216
v 0.25 0 0.433013 1 0.52549 0.439216
v 0.625 0 0.216506 1 0.52549 0.439216
v 1 0.6 8e-12 1 0.52549 0.439216
v 0.625 0.6 0.216506 1 0.52549 0.439216
v 1 0 8e-12 1 0.52549 0.439216
v 0.25 0.3 0.433013 1 0.52549 0.439216
v -0.125 0.3 0.649519 1 0.52549 0.439216
v -0.5 0 0.866025 1 0.52549 0.439216
v -0.125 0.15 1.08253 1 0.52549 0.439216
v -0.5 0.15 0.866025 1 0.52549 0.439216
v -0.125 0.15 0.649519 1 0.52549 0.439216
v -0.125 0 0.649519 1 0.52549 0.439216

f 1 2 3 4
f 5 6 7 1
f 8 9 10 7
f 11 12 13
f 2 14 15
f 2 15 11 13
f 3 13 12 16
f 16 17 4 3
f 2 1 18 14
f 19 20 6 5
f 1 7 21 18
f 19 5 4 17
f 22 8 6 20
f 23 24 25 26
f 27 28 29 30
f 27 31 32 28
f 31 33 34 32
f 33 35 36 34
f 37 25 24 38
f 39 37 38 40
f 41 39 40 42
f 43 41 42 44
f 35 43 44 36
f 7 10 45 21
f 30 29 46
f 47 48 46
f 47 49 50 48
f 49 51 52 50
f 51 53 54 52
f 54 53 55 56
f 22 57 9 8
f 58 23 26
f 59 60 61 62
f 60 63 64 61
f 63 65 66 64
f 58 67 68
f 67 69 70 68
f 69 59 62 70
f 65 56 55 66
f 9 57 45 10
f 71 72 73 74
f 75 76 72 77
f 78 79 77 80
f 76 75 81 82
f 83 84 77 72
f 79 78 85 86
f 84 87 80 77
f 79 86 81 75
f 85 78 80 87
f 76 82 88 73
f 74 73 88 89
f 90 71 91 92
f 92 91 93
f 94 71 90
f 89 93 91 74
f 94 83 72 71