v -2 1 -3.4641 0 1 0
v -0.5 1 -2.59808 0 1 0
v -0.5 1 -2.94449 0 1 0
v -1.7 1 -3.63731 0 1 0
v -0.5 0 -2.94449 0 0 1
v -1.7 0 -3.63731 0 0 1
v -1.7 1 -3.63731 0 0 1
v -0.5 1 -2.94449 0 0 1
v -2.3 1 -3.63731 1 0 0
v -2.3 1 -3.2909 1 0 0
v -2 1 -3.4641 1 0 0
v -2.3 1 -3.2909 0 0 1
v -2.3 1 -3.63731 0 0 1
v -2.3 0 -3.63731 0 0 1
v -2.3 0 -3.2909 0 0 1
v -0.5 1 0.866025 0 1 0
v -2 1 1.73205 0 1 0
v -1.7 1 1.90526 0 1 0
v -0.5 1 1.21244 0 1 0
v -1.7 0 1.90526 0 0 1
v -0.5 0 1.21244 0 0 1
v -0.5 1 1.21244 0 0 1
v -1.7 1 1.90526 0 0 1
v -2 1 -3.81051 1 0 0
v -2 1 -3.81051 0 0 1
v -2 0 -3.81051 0 0 1
v -2 1 2.07846 1 0 0
v -1.7 1 1.90526 1 0 0
v -2 1 1.73205 1 0 0
v -2 1 2.07846 0 0 1
v -2 0 2.07846 0 0 1
v 1 1 2.07846 1 0 0
v 1.3 1 1.90526 1 0 0
v 1 1 1.73205 1 0 0
v 1.3 1 1.90526 0 0 1
v 1 1 2.07846 0 0 1
v 1 0 2.07846 0 0 1
v 1.3 0 1.90526 0 0 1
v -0.5 1 -0.866025 0 1 0
v 1 1 0 0 1 0
v 1 1 -0.34641 0 1 0
v -0.2 1 -1.03923 0 1 0
v 1 0 -0.34641 0 0 1
v -0.2 0 -1.03923 0 0 1
v -0.2 1 -1.03923 0 0 1
v 1 1 -0.34641 0 0 1
v -2.3 1 -1.90526 1 0 0
v -2.3 1 -1.55885 1 0 0
v -2 1 -1.73205 1 0 0
v -2.3 1 -1.55885 0 0 1
v -2.3 1 -1.90526 0 0 1
v -2.3 0 -1.90526 0 0 1
v -2.3 0 -1.55885 0 0 1
v -2.3 1 1.55885 1 0 0
v -2.3 1 1.90526 1 0 0
v -2.3 1 1.90526 0 0 1
v -2.3 1 1.55885 0 0 1
v -2.3 0 1.55885 0 0 1
v -2.3 0 1.90526 0 0 1
v -2 1 -1.73205 0 1 0
v -2.3 1 -3.2909 0 1 0
v -2.3 1 -1.90526 0 1 0
v 1.3 1 0.173205 1 0 0
v 1.3 1 -0.173205 1 0 0
v 1 1 0 1 0 0
v 1.3 1 -0.173205 0 0 1
v 1.3 1 0.173205 0 0 1
v 1.3 0 0.173205 0 0 1
v 1.3 0 -0.173205 0 0 1
v 0.7 1 1.90526 1 0 0
v 0.7 1 1.90526 0 0 1
v 0.7 0 1.90526 0 0 1
v 1 1 -0.34641 1 0 0
v 1.3 1 1.55885 1 0 0
v 1.3 1 1.55885 0 0 1
v 1.3 0 1.55885 0 0 1
v 1 1 1.73205 0 1 0
v 0.7 1 1.90526 0 1 0
v -0.2 1 -2.77128 1 0 0
v -0.5 1 -2.94449 1 0 0
v -0.5 1 -2.59808 1 0 0
v -0.2 1 -2.77128 0 0 1
v -0.2 0 -2.77128 0 0 1
v 1.3 1 1.55885 0 1 0
v 1.3 1 0.173205 0 1 0
v -0.2 1 -2.42487 0 1 0
v -0.2 0 -2.42487 0 0 1
v -0.2 1 -2.42487 0 0 1
v -1.7 1 -3.63731 1 0 0
v -2 1 0 0 1 0
v -2.3 1 0.173205 0 1 0
v -2.3 1 1.55885 0 1 0
v -2.3 0 0.173205 0 0 1
v -2.3 1 0.173205 0 0 1
v -2.3 1 -0.173205 1 0 0
v -2.3 1 0.173205 1 0 0
v -2 1 0 1 0 0
v -2.3 1 -0.173205 0 0 1
v -2.3 0 -0.173205 0 0 1
v -0.2 1 -2.42487 1 0 0
v -2.3 1 -1.55885 0 1 0
v -2.3 1 -0.173205 0 1 0

vt 0 0.833333
vt 1 0
vt 1 0.333333
vt 0.2 1
vt 1 1
vt 0 1
vt 0 0
vt 1 0.5
vt 0 0.166667
vt 0.2 0
vt 1 0.666667
vt 0 0.5
vt 1 0.5
vt 0 0.833333
vt 1 0.333333
vt 1 0.5
vt 0 0.9
vt 0 0.1
vt 0 0.5
vt 1 0.5
vt 0 0.5
vt 1 0.166667
vt 0 0.666667
vt 0.8 0
vt 1 0.5
vt 1 0.1
vt 1 0.9
vt 1 0.1
vt 1 0.9
vt 0 0.9
vt 0 0.1
vt 0 0.9

f 1/1 2/2 3/3 4/4
f 5/5 6/6 7/7 8/2
f 9/6 10/7 11/8
f 12/2 13/5 14/6 15/7
f 16/5 17/9 18/10 19/11
f 20/6 21/5 22/2 23/7
f 24/5 9/12 11/2
f 13/7 25/2 26/5 14/6
f 27/7 28/13 29/6
f 23/2 30/7 31/6 20/5
f 32/7 33/13 34/6
f 35/2 36/7 37/6 38/5
f 39/14 40/2 41/15 42/4
f 43/5 44/6 45/7 46/2
f 47/6 48/7 49/13
f 50/2 51/5 52/6 53/7
f 54/6 55/7 29/16
f 56/2 57/5 58/6 59/7
f 60/2 1/5 61/17 62/18
f 15/6 52/7 51/2 12/5
f 63/2 64/5 65/12
f 66/5 67/2 68/7 69/6
f 70/19 32/2 34/5
f 36/2 71/7 72/6 37/5
f 55/19 27/2 29/5
f 30/2 56/7 59/6 31/5
f 64/20 73/6 65/7
f 46/7 66/2 69/5 43/6
f 33/2 74/5 34/21
f 75/5 35/2 38/7 76/6
f 77/22 16/6 19/23 78/24
f 21/6 72/5 71/2 22/7
f 79/25 80/6 81/7
f 8/7 82/2 83/5 5/6
f 40/6 77/7 84/26 85/27
f 76/7 68/6 67/5 75/2
f 2/6 39/7 42/28 86/29
f 44/7 87/6 88/5 45/2
f 89/20 24/6 11/7
f 25/7 7/2 6/5 26/6
f 17/2 90/5 91/30 92/31
f 93/6 58/7 57/2 94/5
f 95/6 96/7 97/20
f 94/2 98/5 99/6 93/7
f 100/2 79/5 81/12
f 82/5 88/2 87/7 83/6
f 90/2 60/5 101/32 102/31
f 53/6 99/7 98/2 50/5