v -0.5 1 0.866025 1 0 0
v -2 1 0 1 0 0
v -2 1 0.34641 1 0 0
v -0.8 1 1.03923 1 0 0
v -2 0 0.34641 0 0 1
v -0.8 0 1.03923 0 0 1
v -0.8 1 1.03923 0 0 1
v -2 1 0.34641 0 0 1
v 4 1 0.34641 1 0 0
v 4.3 1 0.173205 1 0 0
v 4 1 0 1 0 0
v 4.3 1 0.173205 0 0 1
v 4 1 0.34641 0 0 1
v 4 0 0.34641 0 0 1
v 4.3 0 0.173205 0 0 1
v 2.5 1 1.21244 1 0 0
v 2.8 1 1.03923 1 0 0
v 2.5 1 0.866025 1 0 0
v 2.8 1 1.03923 0 0 1
v 2.5 1 1.21244 0 0 1
v 2.5 0 1.21244 0 0 1
v 2.8 0 1.03923 0 0 1
v -1.7 1 -1.90526 1 0 0
v -2 1 -2.07846 1 0 0
v -2 1 -1.73205 1 0 0
v -2 1 -2.07846 0 0 1
v -1.7 1 -1.90526 0 0 1
v -1.7 0 -1.90526 0 0 1
v -2 0 -2.07846 0 0 1
v -0.5 1 -0.866025 1 0 0
v -0.5 1 -1.21244 1 0 0
v -0.5 0 -1.21244 0 0 1
v -0.5 1 -1.21244 0 0 1
v 2.8 1 -1.03923 1 0 0
v 2.5 1 -1.21244 1 0 0
v 2.5 1 -0.866025 1 0 0
v 2.5 1 -1.21244 0 0 1
v 2.8 1 -1.03923 0 0 1
v 2.8 0 -1.03923 0 0 1
v 2.5 0 -1.21244 0 0 1
v 4.3 1 -0.173205 1 0 0
v 4 1 -0.34641 1 0 0
v 4 1 -0.34641 0 0 1
v 4.3 1 -0.173205 0 0 1
v 4.3 0 -0.173205 0 0 1
v 4 0 -0.34641 0 0 1
v -0.5 1 1.21244 1 0 0
v -0.5 1 1.21244 0 0 1
v -0.5 0 1.21244 0 0 1
v -2.3 1 -0.173205 1 0 0
v -2.3 1 0.173205 1 0 0
v -2.3 1 0.173205 0 0 1
v -2.3 1 -0.173205 0 0 1
v -2.3 0 -0.173205 0 0 1
v -2.3 0 0.173205 0 0 1
v 1 1 1.73205 1 0 0
v 0.7 1 1.90526 1 0 0
v 0.7 0 1.90526 0 0 1
v 0.7 1 1.90526 0 0 1
v -2.3 1 -1.55885 1 0 0
v -2.3 0 -1.55885 0 0 1
v -2.3 1 -1.55885 0 0 1
v -2.3 1 -1.90526 1 0 0
v -2.3 1 -1.90526 0 0 1
v -2.3 0 -1.90526 0 0 1
v 2.2 1 -1.03923 1 0 0
v 2.2 1 -1.03923 0 0 1
v 2.2 0 -1.03923 0 0 1
v 1 1 2.07846 1 0 0
v 1 1 2.07846 0 0 1
v 1 0 2.07846 0 0 1
v 1.3 1 1.90526 1 0 0
v 1.3 0 1.90526 0 0 1
v 1.3 1 1.90526 0 0 1
v 1 1 0 1 0 0
v 1 1 -0.34641 1 0 0
v 1 0 -0.34641 0 0 1
v 1 1 -0.34641 0 0 1
v -0.2 1 -1.03923 1 0 0
v -0.2 1 -1.03923 0 0 1
v -0.2 0 -1.03923 0 0 1
v 2.5 1 0.866025 0 1 0
v 4 1 0 0 1 0
v 2.5 1 -0.866025 0 1 0
v 1 1 0 0 1 0
v 1 1 1.73205 0 1 0
v -0.5 1 0.866025 0 1 0
v -0.5 1 -0.866025 0 1 0
v -2 1 0 0 1 0
v -2 1 -1.73205 0 1 0

f 1 2 3 4
f 5 6 7 8
f 9 10 11
f 12 13 14 15
f 16 17 18
f 19 20 21 22
f 23 24 25
f 26 27 28 29
f 25 30 31 23
f 32 28 27 33
f 34 35 36
f 37 38 39 40
f 41 42 11
f 43 44 45 46
f 4 47 1
f 48 7 6 49
f 50 51 2
f 52 53 54 55
f 56 1 47 57
f 49 58 59 48
f 2 25 60 50
f 61 54 53 62
f 24 63 25
f 64 26 29 65
f 36 11 42 34
f 46 39 38 43
f 35 66 36
f 67 37 40 68
f 57 69 56
f 70 59 58 71
f 11 18 17 9
f 22 14 13 19
f 10 41 11
f 44 12 15 45
f 63 60 25
f 62 64 65 61
f 51 3 2
f 8 52 55 5
f 18 56 72 16
f 73 21 20 74
f 75 36 66 76
f 68 77 78 67
f 79 31 30
f 33 80 81 32
f 69 72 56
f 74 70 71 73
f 30 75 76 79
f 77 81 80 78
f 82 83 84
f 84 85 82
f 86 82 85
f 85 87 86
f 87 85 88
f 88 89 87
f 89 88 90