v -0.5 1 0.866025 1 0 0
v -2 1 0 1 0 0
v -2 1 0.34641 1 0 0
v -0.8 1 1.03923 1 0 0
v -2 0 0.34641 0 0 1
v -0.8 0 1.03923 0 0 1
v -0.8 1 1.03923 0 0 1
v -2 1 0.34641 0 0 1
v 4 1 0.34641 1 0 0
v 4.3 1 0.173205 1 0 0
v 4 1 0 1 0 0
v 4.3 1 0.173205 0 0 1
v 4 1 0.34641 0 0 1
v 4 0 0.34641 0 0 1
v 4.3 0 0.173205 0 0 1
v 2.5 1 1.21244 1 0 0
v 2.8 1 1.03923 1 0 0
v 2.5 1 0.866025 1 0 0
v 2.8 1 1.03923 0 0 1
v 2.5 1 1.21244 0 0 1
v 2.5 0 1.21244 0 0 1
v 2.8 0 1.03923 0 0 1
v -0.5 1 -1.21244 1 0 0
v -0.8 1 -1.03923 1 0 0
v -0.5 1 -0.866025 1 0 0
v -0.8 1 -1.03923 0 0 1
v -0.5 1 -1.21244 0 0 1
v -0.5 0 -1.21244 0 0 1
v -0.8 0 -1.03923 0 0 1
v -2 1 -0.34641 1 0 0
v -2 0 -0.34641 0 0 1
v -2 1 -0.34641 0 0 1
v 2.8 1 -1.03923 1 0 0
v 2.5 1 -1.21244 1 0 0
v 2.5 1 -0.866025 1 0 0
v 2.5 1 -1.21244 0 0 1
v 2.8 1 -1.03923 0 0 1
v 2.8 0 -1.03923 0 0 1
v 2.5 0 -1.21244 0 0 1
v 4.3 1 -0.173205 1 0 0
v 4 1 -0.34641 1 0 0
v 4 1 -0.34641 0 0 1
v 4.3 1 -0.173205 0 0 1
v 4.3 0 -0.173205 0 0 1
v 4 0 -0.34641 0 0 1
v -0.5 1 1.21244 1 0 0
v -0.5 1 1.21244 0 0 1
v -0.5 0 1.21244 0 0 1
v -2.3 1 -0.173205 1 0 0
v -2.3 1 0.173205 1 0 0
v -2.3 1 0.173205 0 0 1
v -2.3 1 -0.173205 0 0 1
v -2.3 0 -0.173205 0 0 1
v -2.3 0 0.173205 0 0 1
v 1 1 1.73205 1 0 0
v 0.7 1 1.90526 1 0 0
v 0.7 0 1.90526 0 0 1
v 0.7 1 1.90526 0 0 1
v 1 1 -2.07846 1 0 0
v 0.7 1 -1.90526 1 0 0
v 1 1 -1.73205 1 0 0
v 0.7 1 -1.90526 0 0 1
v 1 1 -2.07846 0 0 1
v 1 0 -2.07846 0 0 1
v 0.7 0 -1.90526 0 0 1
v 1.3 1 -1.90526 1 0 0
v 1.3 1 -1.90526 0 0 1
v 1.3 0 -1.90526 0 0 1
v 1 1 2.07846 1 0 0
v 1 1 2.07846 0 0 1
v 1 0 2.07846 0 0 1
v 1.3 1 1.90526 1 0 0
v 1.3 0 1.90526 0 0 1
v 1.3 1 1.90526 0 0 1
v -0.5 1 -0.866025 0 1 0
v -2 1 0 0 1 0
v -0.5 1 0.866025 0 1 0
v 1 1 0 0 1 0
v 1 1 1.73205 0 1 0
v 2.5 1 0.866025 0 1 0
v 4 1 0 0 1 0
v 2.5 1 -0.866025 0 1 0
v 1 1 -1.73205 0 1 0

f 1 2 3 4
f 5 6 7 8
f 9 10 11
f 12 13 14 15
f 16 17 18
f 19 20 21 22
f 23 24 25
f 26 27 28 29
f 2 25 24 30
f 29 31 32 26
f 33 34 35
f 36 37 38 39
f 40 41 11
f 42 43 44 45
f 4 46 1
f 47 7 6 48
f 49 50 2
f 51 52 53 54
f 55 1 46 56
f 48 57 58 47
f 59 60 61
f 62 63 64 65
f 30 49 2
f 52 32 31 53
f 35 11 41 33
f 45 38 37 42
f 66 59 61
f 63 67 68 64
f 56 69 55
f 70 58 57 71
f 11 18 17 9
f 22 14 13 19
f 10 40 11
f 43 12 15 44
f 61 35 34 66
f 39 68 67 36
f 50 3 2
f 8 51 54 5
f 18 55 72 16
f 73 21 20 74
f 25 61 60 23
f 65 28 27 62
f 69 72 55
f 74 70 71 73
f 75 76 77
f 77 78 75
f 78 77 79
f 79 80 78
f 80 81 82
f 82 78 80
f 78 82 83