v -2.3 1 -1.90526 1 0 0
v -2.3 1 -1.55885 1 0 0
v -2 1 -1.73205 1 0 0
v -2.3 1 -1.55885 0 0 1
v -2.3 1 -1.90526 0 0 1
v -2.3 0 -1.90526 0 0 1
v -2.3 0 -1.55885 0 0 1
v 2.5 1 1.21244 1 0 0
v 2.8 1 1.03923 1 0 0
v 2.5 1 0.866025 1 0 0
v 2.8 1 1.03923 0 0 1
v 2.5 1 1.21244 0 0 1
v 2.5 0 1.21244 0 0 1
v 2.8 0 1.03923 0 0 1
v -2 1 1.73205 1 0 0
v -2 1 0 1 0 0
v -2.3 1 0.173205 1 0 0
v -2.3 1 1.55885 1 0 0
v -2.3 0 0.173205 0 0 1
v -2.3 0 1.55885 0 0 1
v -2.3 1 1.55885 0 0 1
v -2.3 1 0.173205 0 0 1
v -0.5 1 2.94449 1 0 0
v -0.2 1 2.77128 1 0 0
v -0.5 1 2.59808 1 0 0
v -0.2 1 2.77128 0 0 1
v -0.5 1 2.94449 0 0 1
v -0.5 0 2.94449 0 0 1
v -0.2 0 2.77128 0 0 1
v -2.3 1 -0.173205 1 0 0
v -2.3 1 -0.173205 0 0 1
v -2.3 0 -0.173205 0 0 1
v -2 1 -2.07846 1 0 0
v -2 1 -2.07846 0 0 1
v -2 0 -2.07846 0 0 1
v 1 1 2.07846 1 0 0
v 1.3 1 1.90526 1 0 0
v 1 1 1.73205 1 0 0
v 1.3 1 1.90526 0 0 1
v 1 1 2.07846 0 0 1
v 1 0 2.07846 0 0 1
v 1.3 0 1.90526 0 0 1
v 1.3 1 -0.173205 1 0 0
v 1 1 -0.34641 1 0 0
v 1 1 0 1 0 0
v 1 1 -0.34641 0 0 1
v 1.3 1 -0.173205 0 0 1
v 1.3 0 -0.173205 0 0 1
v 1 0 -0.34641 0 0 1
v 2.5 1 0.519615 1 0 0
v 2.5 0 0.519615 0 0 1
v 2.5 1 0.519615 0 0 1
v -2 1 2.07846 1 0 0
v -0.8 1 2.77128 1 0 0
v -2 0 2.07846 0 0 1
v -0.8 0 2.77128 0 0 1
v -0.8 1 2.77128 0 0 1
v -2 1 2.07846 0 0 1
v -1.7 1 -1.90526 1 0 0
v -1.7 1 -1.90526 0 0 1
v -1.7 0 -1.90526 0 0 1
v 2.8 1 0.69282 1 0 0
v 2.8 1 0.69282 0 0 1
v 2.8 0 0.69282 0 0 1
v -2.3 1 1.90526 1 0 0
v -2.3 1 1.90526 0 0 1
v -2.3 0 1.90526 0 0 1
v -0.5 1 -0.866025 1 0 0
v -0.5 1 -1.21244 1 0 0
v -0.5 0 -1.21244 0 0 1
v -0.5 1 -1.21244 0 0 1
v -0.2 1 -1.03923 1 0 0
v -0.2 0 -1.03923 0 0 1
v -0.2 1 -1.03923 0 0 1
v 1 1 1.73205 0 1 0
v 2.5 1 0.866025 0 1 0
v 1 1 0 0 1 0
v -0.5 1 0.866025 0 1 0
v -0.5 1 2.59808 0 1 0
v -2 1 1.73205 0 1 0
v -2 1 0 0 1 0
v -0.5 1 -0.866025 0 1 0
v -2 1 -1.73205 0 1 0

f 1 2 3
f 4 5 6 7
f 8 9 10
f 11 12 13 14
f 15 16 17 18
f 19 20 21 22
f 23 24 25
f 26 27 28 29
f 30 17 16
f 22 31 32 19
f 33 1 3
f 5 34 35 6
f 36 37 38
f 39 40 41 42
f 43 44 45
f 46 47 48 49
f 10 38 37 8
f 42 13 12 39
f 16 3 2 30
f 7 32 31 4
f 45 10 50 43
f 51 48 47 52
f 25 15 53 54
f 55 56 57 58
f 59 33 3
f 34 60 61 35
f 9 62 10
f 63 11 14 64
f 65 53 15
f 58 66 67 55
f 18 65 15
f 66 21 20 67
f 38 25 24 36
f 29 41 40 26
f 3 68 69 59
f 70 61 60 71
f 54 23 25
f 27 57 56 28
f 68 45 44 72
f 49 73 74 46
f 62 50 10
f 52 63 64 51
f 72 69 68
f 71 74 73 70
f 75 76 77
f 77 78 75
f 79 75 78
f 78 80 79
f 80 78 81
f 82 81 78
f 81 82 83