v 0.245797 0 0.433013 1 1 1
v 0.243921 0 0.429503 1 1 1
v 0.243921 0.02 0.429503 1 1 1
v 0.245797 0.02 0.433013 1 1 1
v -0.125 0 0.649519 0.662745 0.545098 0.462745
v -0.375 0 0.649519 0.662745 0.545098 0.462745
v -0.375 0.02 0.649519 0.662745 0.545098 0.462745
v -0.125 0.02 0.649519 0.662745 0.545098 0.462745
v -0.5 0 0.866025 0.662745 0.545098 0.462745
v -0.5 0.02 0.866025 0.662745 0.545098 0.462745
v -0.125 0 0.649519 0.74902 0.635294 0.54902
v -0.5 0 0.433013 0.74902 0.635294 0.54902
v -0.5 0.02 0.433013 0.74902 0.635294 0.54902
v -0.125 0.02 0.649519 0.74902 0.635294 0.54902
v -0.375 0 0.649519 0.74902 0.635294 0.54902
v -0.375 0.02 0.649519 0.74902 0.635294 0.54902
v -0.5 0 0.866025 0.952941 0.894118 0.788235
v -0.375 0 0.649519 0.952941 0.894118 0.788235
v -0.375 0.02 0.649519 0.952941 0.894118 0.788235
v -0.5 0.02 0.866025 0.952941 0.894118 0.788235
v -0.5 0 0.433013 0.952941 0.894118 0.788235
v -0.5 0.02 0.433013 0.952941 0.894118 0.788235
v -0.125 0 0.216506 0.662745 0.545098 0.462745
v -0.125 0.02 0.216506 0.662745 0.545098 0.462745
v -0.25 0 0.433013 0.662745 0.545098 0.462745
v -0.25 0.02 0.433013 0.662745 0.545098 0.462745
v -0.125 0 0.216506 0.74902 0.635294 0.54902
v -0.125 0.02 0.216506 0.74902 0.635294 0.54902
v -0.25 0 0.433013 0.74902 0.635294 0.54902
v -0.25 0.02 0.433013 0.74902 0.635294 0.54902
v -0.125 0 0.649519 0.952941 0.894118 0.788235
v -0.125 0.02 0.649519 0.952941 0.894118 0.788235
v -0.25 0 0.433013 0.952941 0.894118 0.788235
v -0.25 0.02 0.433013 0.952941 0.894118 0.788235
v 0.245797 0 0.433013 0.662745 0.545098 0.462745
v 0 0 0.433013 0.662745 0.545098 0.462745
v 0 0.02 0.433013 0.662745 0.545098 0.462745
v 0.245797 0.02 0.433013 0.662745 0.545098 0.462745
v 0.243921 0 0.429503 0.74902 0.635294 0.54902
v 0.243921 0.02 0.429503 0.74902 0.635294 0.54902
v 0 0 0.433013 0.74902 0.635294 0.54902
v 0 0.02 0.433013 0.74902 0.635294 0.54902
v 0.245797 0 0.433013 0.74902 0.635294 0.54902
v 0.245797 0.02 0.433013 0.74902 0.635294 0.54902
v -0.125 0 0.216506 0.952941 0.894118 0.788235
v -0.125 0.02 0.216506 0.952941 0.894118 0.788235
v 0 0 0.433013 0.952941 0.894118 0.788235
v 0 0.02 0.433013 0.952941 0.894118 0.788235
v -0.012227 0 0.151397 0.74902 0.635294 0.54902
v -0.012227 0.02 0.151397 0.74902 0.635294 0.54902
v 0.0671092 0.02 0.216506 0.74902 0.635294 0.54902
v 0.0671092 0 0.216506 0.74902 0.635294 0.54902
v 0.243921 0 0.429503 0.952941 0.894118 0.788235
v 0.243921 0.02 0.429503 0.952941 0.894118 0.788235
v 0.0671092 0 0.216506 0.952941 0.894118 0.788235
v 0.0671092 0.02 0.216506 0.952941 0.894118 0.788235
v 0.246788 0 0.434867 0.662745 0.545098 0.462745
v 0.112372 0 0.253653 0.952941 0.894118 0.788235
v 0.220074 0 0.384887 0.952941 0.894118 0.788235
v 0.246788 0.02 0.434867 0.662745 0.545098 0.462745
v 0.220074 0.02 0.384887 0.952941 0.894118 0.788235
v 0.112372 0.02 0.253653 0.952941 0.894118 0.788235
v -0.5 0.02 0.433013 0.662745 0.545098 0.462745
v -0.375 0.02 0.216506 0.662745 0.545098 0.462745
v -0.5 0 0.433013 0.662745 0.545098 0.462745
v -0.375 0 0.216506 0.662745 0.545098 0.462745
v -0.5 0 0 0.74902 0.635294 0.54902
v -0.5 0.02 0 0.74902 0.635294 0.54902
v -0.375 0 0.216506 0.74902 0.635294 0.54902
v -0.375 0.02 0.216506 0.74902 0.635294 0.54902
v -0.375 0 0.216506 0.952941 0.894118 0.788235
v -0.375 0.02 0.216506 0.952941 0.894118 0.788235
v -0.5 0 0 0.952941 0.894118 0.788235
v -0.5 0.02 0 0.952941 0.894118 0.788235
v -0.125 0 0.0892197 0.662745 0.545098 0.462745
v -0.125 0.02 0.0892197 0.662745 0.545098 0.462745
v -0.221145 0 0.0499789 0.662745 0.545098 0.462745
v -0.221145 0.02 0.0499789 0.662745 0.545098 0.462745
v -0.221145 0.02 0.0499789 0.952941 0.894118 0.788235
v -0.221145 0 0.0499789 0.952941 0.894118 0.788235
v -0.012227 0.02 0.151397 0.662745 0.545098 0.462745
v -0.012227 0 0.151397 0.662745 0.545098 0.462745
v -0.0688415 0 0.119237 0.662745 0.545098 0.462745
v -0.0688415 0.02 0.119237 0.662745 0.545098 0.462745
v -0.125 0 0.0892197 0.952941 0.894118 0.788235
v -0.125 0.02 0.0892197 0.952941 0.894118 0.788235
v -0.0688415 0 0.119237 0.952941 0.894118 0.788235
v -0.0688415 0.02 0.119237 0.952941 0.894118 0.788235
v -0.221145 0 0.0499789 0.662745 0.545098 0.462745
v -0.168586 0 0.0659223 0.662745 0.545098 0.462745
v -0.221145 0 0.0499789 0.952941 0.894118 0.788235
v -0.331047 0 0.0166404 0.952941 0.894118 0.788235
v -0.0188621 0 0.145952 0.662745 0.545098 0.462745
v -0.168586 0.02 0.0659223 0.662745 0.545098 0.462745
v -0.221145 0.02 0.0499789 0.662745 0.545098 0.462745
v -0.221145 0.02 0.0499789 0.952941 0.894118 0.788235
v -0.331047 0.02 0.0166404 0.952941 0.894118 0.788235
v -0.0188621 0.02 0.145952 0.662745 0.545098 0.462745

vt 0.583705 0.5
vt 0.584438 0.5
vt 0.584438 0
vt 0.583705 0
vt 0 0

vn 0.861173 0 -0.5
vn 0.859006 0 -0.504052
vn 0.859006 0 -0.504052
vn 0.861173 0 -0.5
vn 0 0 -1
vn -0.866025 0 -0.5
vn 0.5 0 -0.866025
vn -0.866025 0 0.5
vn 0 0 1
vn 0.866025 0 0.5
vn 0.866025 0 -0.5
vn 1 0 0
vn -0.866025 0 -0.5
vn -0.5 0 -0.866025
vn 0.866025 0 0.5
vn -0.5 0 0.866025
vn -1 0 0
vn 0 -1 0
vn 0 1 0
vn 0.5 0 0.866025
vn 0.5 0 0.866025

f 1/1/1 2/2/2 3/3/3 4/4/4
f 5/5/5 6/5/5 7/5/5 8/5/5
f 6/5/6 9/5/6 10/5/6 7/5/6
f 11/5/7 12/5/7 13/5/7 14/5/7
f 12/5/8 15/5/8 16/5/8 13/5/8
f 15/5/9 11/5/9 14/5/9 16/5/9
f 17/5/10 18/5/10 19/5/10 20/5/10
f 18/5/11 21/5/11 22/5/11 19/5/11
f 5/5/12 23/5/12 24/5/12 8/5/12
f 23/5/13 25/5/13 26/5/13 24/5/13
f 25/5/8 5/5/8 8/5/8 26/5/8
f 27/5/14 12/5/14 13/5/14 28/5/14
f 12/5/9 29/5/9 30/5/9 13/5/9
f 29/5/15 27/5/15 28/5/15 30/5/15
f 21/5/16 31/5/16 32/5/16 22/5/16
f 31/5/11 33/5/11 34/5/11 32/5/11
f 33/5/5 21/5/5 22/5/5 34/5/5
f 35/5/5 36/5/5 37/5/5 38/5/5
f 36/5/13 5/5/13 8/5/13 37/5/13
f 39/5/7 27/5/7 28/5/7 40/5/7
f 27/5/8 41/5/8 42/5/8 28/5/8
f 42/5/9 41/5/9 43/5/9 44/5/9
f 45/5/17 31/5/17 32/5/17 46/5/17
f 31/5/15 47/5/15 48/5/15 32/5/15
f 47/5/11 45/5/11 46/5/11 48/5/11
f 49/5/14 27/5/14 28/5/14 50/5/14
f 51/5/9 28/5/9 27/5/9 52/5/9
f 46/5/16 45/5/16 53/5/16 54/5/16
f 55/5/5 45/5/5 46/5/5 56/5/5
f 21/5/17 17/5/17 20/5/17 22/5/17
f 6/5/18 5/5/18 9/5/18
f 15/5/18 12/5/18 11/5/18
f 18/5/18 17/5/18 21/5/18
f 25/5/18 23/5/18 5/5/18
f 29/5/18 12/5/18 27/5/18
f 33/5/18 31/5/18 21/5/18
f 5/5/18 36/5/18 35/5/18 57/5/18
f 43/5/18 41/5/18 27/5/18 39/5/18
f 47/5/18 31/5/18 45/5/18
f 52/5/18 27/5/18 49/5/18
f 58/5/18 59/5/18 53/5/18 45/5/18 55/5/18
f 10/5/19 8/5/19 7/5/19
f 14/5/19 13/5/19 16/5/19
f 22/5/19 20/5/19 19/5/19
f 8/5/19 24/5/19 26/5/19
f 28/5/19 13/5/19 30/5/19
f 22/5/19 32/5/19 34/5/19
f 37/5/19 8/5/19 60/5/19 38/5/19
f 42/5/19 44/5/19 40/5/19 28/5/19
f 46/5/19 32/5/19 48/5/19
f 50/5/19 28/5/19 51/5/19
f 61/5/19 62/5/19 56/5/19 46/5/19 54/5/19
f 63/5/19 24/5/19 64/5/19
f 9/5/20 5/5/20 8/5/20 10/5/20
f 8/5/21 5/5/21 57/5/21 60/5/21
f 65/5/21 23/5/21 24/5/21 63/5/21
f 23/5/5 66/5/5 64/5/5 24/5/5
f 66/5/13 65/5/13 63/5/13 64/5/13
f 27/5/7 67/5/7 68/5/7 28/5/7
f 67/5/8 69/5/8 70/5/8 68/5/8
f 69/5/9 27/5/9 28/5/9 70/5/9
f 21/5/15 71/5/15 72/5/15 22/5/15
f 71/5/11 73/5/11 74/5/11 72/5/11
f 24/5/12 23/5/12 75/5/12 76/5/12
f 77/5/8 23/5/8 24/5/8 78/5/8
f 73/5/16 45/5/16 46/5/16 74/5/16
f 79/5/11 46/5/11 45/5/11 80/5/11
f 81/5/21 24/5/21 23/5/21 82/5/21
f 83/5/13 23/5/13 24/5/13 84/5/13
f 85/5/17 45/5/17 46/5/17 86/5/17
f 46/5/15 45/5/15 87/5/15 88/5/15
f 73/5/17 21/5/17 22/5/17 74/5/17
f 66/5/18 23/5/18 65/5/18
f 69/5/18 67/5/18 27/5/18
f 71/5/18 21/5/18 73/5/18
f 75/5/18 23/5/18 89/5/18 90/5/18
f 91/5/18 45/5/18 73/5/18 92/5/18
f 82/5/18 23/5/18 83/5/18 93/5/18
f 87/5/18 45/5/18 85/5/18
f 28/5/19 68/5/19 70/5/19
f 74/5/19 22/5/19 72/5/19
f 76/5/19 94/5/19 95/5/19 24/5/19
f 46/5/19 96/5/19 97/5/19 74/5/19
f 98/5/19 84/5/19 24/5/19 81/5/19
f 86/5/19 46/5/19 88/5/19