v -0.125 0.1 -0.649519 0.360784 0.309804 0.290196
v -0.125 0 -0.649519 0.360784 0.309804 0.290196
v -0.3125 0 -0.757772 0.360784 0.309804 0.290196
v -0.3125 0.1 -0.757772 0.360784 0.309804 0.290196
v -0.5 0.1 -0.649519 0.360784 0.309804 0.290196
v -0.5 0.1 -0.433013 0.360784 0.309804 0.290196
v -0.5 0 -0.433013 0.360784 0.309804 0.290196
v -0.5 0 -0.649519 0.360784 0.309804 0.290196
v -0.3125 0 -0.757772 0.435294 0.811765 0.592157
v -0.5 0 -0.649519 0.435294 0.811765 0.592157
v -0.5 0 -0.866025 0.435294 0.811765 0.592157
v -0.5 1.73205 -0.866025 0.435294 0.811765 0.592157
v -0.5 1.73205 -0.649519 0.435294 0.811765 0.592157
v -0.3125 1.73205 -0.757772 0.435294 0.811765 0.592157
v -0.5 1.51554 -0.649519 0.435294 0.811765 0.592157
v -0.5 0.1 -0.649519 0.435294 0.811765 0.592157
v -0.3125 0.1 -0.757772 0.435294 0.811765 0.592157
v -0.3125 1.51554 -0.757772 0.435294 0.811765 0.592157
v 0.8125 1.51554 0.108253 0.435294 0.811765 0.592157
v 1 1.51554 0 0.435294 0.811765 0.592157
v 1 1.73205 0 0.435294 0.811765 0.592157
v 0.8125 1.73205 0.108253 0.435294 0.811765 0.592157

f 1 2 3 4
f 1 4 5 6
f 3 2 7 8
f 8 7 6 5
f 7 2 1 6
f 9 10 11
f 12 13 14
f 9 11 12 14
f 11 10 13 12
f 15 16 17 18
f 19 20 21 22
f 20 18 14 21
f 21 14 13 22
f 15 18 20 19
f 13 15 19 22