v 1 1 2.07846 1 0 0
v 1.3 1 1.90526 1 0 0
v 1 1 1.73205 1 0 0
v 1.3 1 1.90526 0 0 1
v 1 1 2.07846 0 0 1
v 1 0 2.07846 0 0 1
v 1.3 0 1.90526 0 0 1
v -0.5 1 -2.94449 1 0 0
v -0.8 1 -2.77128 1 0 0
v -0.5 1 -2.59808 1 0 0
v -0.8 1 -2.77128 0 0 1
v -0.5 1 -2.94449 0 0 1
v -0.5 0 -2.94449 0 0 1
v -0.8 0 -2.77128 0 0 1
v 2.5 1 1.21244 1 0 0
v 2.8 1 1.03923 1 0 0
v 2.5 1 0.866025 1 0 0
v 2.8 1 1.03923 0 0 1
v 2.5 1 1.21244 0 0 1
v 2.5 0 1.21244 0 0 1
v 2.8 0 1.03923 0 0 1
v -0.8 1 -2.42487 1 0 0
v -0.8 1 -2.42487 0 0 1
v -0.8 0 -2.42487 0 0 1
v 1 1 -1.73205 1 0 0
v 1 1 -2.07846 1 0 0
v -0.2 1 -2.77128 1 0 0
v 1 0 -2.07846 0 0 1
v -0.2 0 -2.77128 0 0 1
v -0.2 1 -2.77128 0 0 1
v 1 1 -2.07846 0 0 1
v -2 1 1.38564 1 0 0
v -2.3 1 1.55885 1 0 0
v -2 1 1.73205 1 0 0
v -2.3 1 1.55885 0 0 1
v -2 1 1.38564 0 0 1
v -2 0 1.38564 0 0 1
v -2.3 0 1.55885 0 0 1
v -0.8 1 -1.03923 1 0 0
v -0.8 1 -0.69282 1 0 0
v -0.5 1 -0.866025 1 0 0
v -0.8 1 -0.69282 0 0 1
v -0.8 1 -1.03923 0 0 1
v -0.8 0 -1.03923 0 0 1
v -0.8 0 -0.69282 0 0 1
v 2.8 1 0.69282 1 0 0
v 2.8 1 0.69282 0 0 1
v 2.8 0 0.69282 0 0 1
v 1 1 0 1 0 0
v 1.3 1 -0.173205 1 0 0
v 1.3 1 -1.55885 1 0 0
v 1.3 0 -0.173205 0 0 1
v 1.3 0 -1.55885 0 0 1
v 1.3 1 -1.55885 0 0 1
v 1.3 1 -0.173205 0 0 1
v 1.3 1 -1.90526 1 0 0
v 1.3 1 -1.90526 0 0 1
v 1.3 0 -1.90526 0 0 1
v -0.5 1 2.59808 1 0 0
v -2 1 2.07846 1 0 0
v -0.8 1 2.77128 1 0 0
v -2 0 2.07846 0 0 1
v -0.8 0 2.77128 0 0 1
v -0.8 1 2.77128 0 0 1
v -2 1 2.07846 0 0 1
v 2.5 1 0.519615 1 0 0
v 2.5 1 0.519615 0 0 1
v 2.5 0 0.519615 0 0 1
v -2.3 1 1.90526 1 0 0
v -2.3 1 1.90526 0 0 1
v -2.3 0 1.90526 0 0 1
v -0.5 1 2.94449 1 0 0
v -0.2 1 2.77128 1 0 0
v -0.2 1 2.77128 0 0 1
v -0.5 1 2.94449 0 0 1
v -0.5 0 2.94449 0 0 1
v -0.2 0 2.77128 0 0 1
v -0.5 1 0.866025 1 0 0
v -0.8 1 0.69282 1 0 0
v -0.8 0 0.69282 0 0 1
v -0.8 1 0.69282 0 0 1
v -0.5 1 0.866025 0 1 0
v -2 1 1.73205 0 1 0
v -0.5 1 2.59808 0 1 0
v 1 1 1.73205 0 1 0
v 1 1 0 0 1 0
v 2.5 1 0.866025 0 1 0
v -0.5 1 -0.866025 0 1 0
v 1 1 -1.73205 0 1 0
v -0.5 1 -2.59808 0 1 0

f 1 2 3
f 4 5 6 7
f 8 9 10
f 11 12 13 14
f 15 16 17
f 18 19 20 21
f 9 22 10
f 23 11 14 24
f 10 25 26 27
f 28 29 30 31
f 32 33 34
f 35 36 37 38
f 17 3 2 15
f 7 20 19 4
f 39 40 41
f 42 43 44 45
f 16 46 17
f 47 18 21 48
f 25 49 50 51
f 52 53 54 55
f 41 10 22 39
f 24 44 43 23
f 51 56 25
f 57 54 53 58
f 59 34 60 61
f 62 63 64 65
f 56 26 25
f 31 57 58 28
f 46 66 17
f 67 47 48 68
f 69 60 34
f 65 70 71 62
f 33 69 34
f 70 35 38 71
f 27 8 10
f 12 30 29 13
f 49 17 66 50
f 68 52 55 67
f 72 73 59
f 74 75 76 77
f 34 78 79 32
f 80 37 36 81
f 3 59 73 1
f 77 6 5 74
f 78 41 40 79
f 45 80 81 42
f 61 72 59
f 75 64 63 76
f 82 83 84
f 84 85 82
f 86 82 85
f 85 87 86
f 82 86 88
f 89 88 86
f 88 89 90