v 2.5 0 -0.866025 1 0.52549 0.439216
v 1 0 -1.73205 1 0.52549 0.439216
v 1 0.6 -1.73205 1 0.52549 0.439216
v 1 0 -1.73205 1 0.52549 0.439216
v -0.5 0 -0.866025 1 0.52549 0.439216
v -0.5 0.6 -0.866025 1 0.52549 0.439216
v 1 0.6 -1.73205 1 0.52549 0.439216
v 1 0 -1.6e-11 1 0.52549 0.439216
v 1 0 -8e-12 1 0.52549 0.439216
v -0.5 0 0.866025 1 0.52549 0.439216
v -0.5 0 -0.866025 1 0.52549 0.439216
v -0.5 0.6 -0.866025 1 0.52549 0.439216
v -0.5 0.6 0.866025 1 0.52549 0.439216
v 1 0 8e-12 1 0.52549 0.439216
v 1 0 1.73205 1 0.52549 0.439216
v -0.5 0 0.866025 1 0.52549 0.439216
v -0.5 0.6 0.866025 1 0.52549 0.439216

f 1 2 3
f 4 5 6 7
f 1 8 2
f 5 4 9
f 10 11 9
f 3 8 1
f 9 7 6
f 9 12 13
f 11 10 13 12
f 14 15 16
f 17 15 14
f 16 15 17