v 0.142857 0 -0.0824786 0.396078 0.262745 0.129412
v 0.0714286 0 0.0412393 0.396078 0.262745 0.129412
v -0.0714286 0 0.0412393 0.396078 0.262745 0.129412
v -0.142857 0 -0.0824786 0.396078 0.262745 0.129412
v -0.0714286 0 -0.206197 0.396078 0.262745 0.129412
v 0.0714286 0 -0.206197 0.396078 0.262745 0.129412
v -0.0991185 0.25 -0.0824786 0.60404 0.672727 0.741414
v -0.0495592 0.25 0.00336052 0.60404 0.672727 0.741414
v 0.0495592 0.25 0.00336052 0.60404 0.672727 0.741414
v -0.0495592 0.25 0.00336052 0.60404 0.672727 0.741414
v 0.0991185 0.25 -0.0824786 0.60404 0.672727 0.741414
v -0.0991185 0.25 -0.0824786 0.60404 0.672727 0.741414
v -0.0495592 0.25 -0.168318 0.60404 0.672727 0.741414
v -0.0495592 0.25 -0.168318 0.60404 0.672727 0.741414
v 0.0495592 0.25 -0.168318 0.60404 0.672727 0.741414
v 0.0495592 0.25 -0.168318 0.60404 0.672727 0.741414
v 0.0991185 0.25 -0.0824786 0.60404 0.672727 0.741414
v 0.417024 0.25 -0.227436 0.903529 0.793333 0.746667
v 0.274167 0.25 -0.227436 0.903529 0.793333 0.746667
v 0.285714 0.325 -0.247436 0.903529 0.793333 0.746667
v 0.428571 0.325 -0.247436 0.903529 0.793333 0.746667
v 0.202739 0.25 -0.351154 0.903529 0.793333 0.746667
v 0.214286 0.325 -0.371154 0.903529 0.793333 0.746667
v 0.0598816 0.25 -0.351154 0.903529 0.793333 0.746667
v 0.0714286 0.325 -0.371154 0.903529 0.793333 0.746667
v -0.011547 0.25 -0.474872 0.903529 0.793333 0.746667
v 0 0.325 -0.494872 0.903529 0.793333 0.746667
v -0.13131 0.25 -0.474872 0.903529 0.793333 0.746667
v -0.142857 0.325 -0.494872 0.903529 0.793333 0.746667
v -0.202739 0.25 -0.351154 0.903529 0.793333 0.746667
v -0.214286 0.325 -0.371154 0.903529 0.793333 0.746667
v -0.345596 0.25 -0.351154 0.903529 0.793333 0.746667
v -0.357143 0.325 -0.371154 0.903529 0.793333 0.746667
v -0.405477 0.25 -0.247436 0.903529 0.793333 0.746667
v -0.428571 0.325 -0.247436 0.903529 0.793333 0.746667
v -0.334049 0.25 -0.123718 0.903529 0.793333 0.746667
v -0.357143 0.325 -0.123718 0.903529 0.793333 0.746667
v -0.405477 0.25 0 0.903529 0.793333 0.746667
v -0.428571 0.325 0 0.903529 0.793333 0.746667
v -0.345596 0.25 0.103718 0.903529 0.793333 0.746667
v -0.357143 0.325 0.123718 0.903529 0.793333 0.746667
v -0.202739 0.25 0.103718 0.903529 0.793333 0.746667
v -0.214286 0.325 0.123718 0.903529 0.793333 0.746667
v -0.13131 0.25 0.227436 0.903529 0.793333 0.746667
v -0.142857 0.325 0.247436 0.903529 0.793333 0.746667
v 0.011547 0.25 0.227436 0.903529 0.793333 0.746667
v 0 0.325 0.247436 0.903529 0.793333 0.746667
v 0.0829756 0.25 0.351154 0.903529 0.793333 0.746667
v 0.0714286 0.325 0.371154 0.903529 0.793333 0.746667
v 0.202739 0.25 0.351154 0.903529 0.793333 0.746667
v 0.214286 0.325 0.371154 0.903529 0.793333 0.746667
v 0.26262 0.25 0.247436 0.903529 0.793333 0.746667
v 0.285714 0.325 0.247436 0.903529 0.793333 0.746667
v 0.191192 0.25 0.123718 0.903529 0.793333 0.746667
v 0.214286 0.325 0.123718 0.903529 0.793333 0.746667
v 0.274167 0.25 -0.02 0.903529 0.793333 0.746667
v 0.285714 0.325 0 0.903529 0.793333 0.746667
v 0.417024 0.25 -0.02 0.903529 0.793333 0.746667
v 0.428571 0.325 0 0.903529 0.793333 0.746667
v 0.476906 0.25 -0.123718 0.903529 0.793333 0.746667
v 0.5 0.325 -0.123718 0.903529 0.793333 0.746667
v -0.183494 0.475 0.0703846 0.718431 0.662353 0.655686
v -0.112065 0.475 0.194102 0.718431 0.662353 0.655686
v 0.030792 0.475 0.194102 0.718431 0.662353 0.655686
v 0.102221 0.475 0.31782 0.718431 0.662353 0.655686
v 0.397779 0.475 -0.194102 0.718431 0.662353 0.655686
v 0.254922 0.475 -0.194102 0.718431 0.662353 0.655686
v 0.183494 0.475 -0.31782 0.718431 0.662353 0.655686
v 0.0406366 0.475 -0.31782 0.718431 0.662353 0.655686
v -0.030792 0.475 -0.441538 0.718431 0.662353 0.655686
v 0.0406366 0.475 -0.31782 0.718431 0.662353 0.655686
v 0.438416 0.475 -0.123718 0.718431 0.662353 0.655686
v 0.397779 0.475 -0.0533333 0.718431 0.662353 0.655686
v 0.183494 0.475 0.31782 0.718431 0.662353 0.655686
v 0.22413 0.475 0.247436 0.718431 0.662353 0.655686
v 0.183494 0.475 0.31782 0.718431 0.662353 0.655686
v 0.152702 0.475 0.123718 0.718431 0.662353 0.655686
v 0.22413 0.475 0.247436 0.718431 0.662353 0.655686
v 0.254922 0.475 -0.0533333 0.718431 0.662353 0.655686
v 0.397779 0.475 -0.0533333 0.718431 0.662353 0.655686
v 0.254922 0.475 -0.0533333 0.718431 0.662353 0.655686
v -0.326351 0.475 0.0703846 0.718431 0.662353 0.655686
v -0.112065 0.475 -0.441538 0.718431 0.662353 0.655686
v -0.183494 0.475 -0.31782 0.718431 0.662353 0.655686
v -0.112065 0.475 -0.441538 0.718431 0.662353 0.655686
v -0.326351 0.475 -0.31782 0.718431 0.662353 0.655686
v -0.183494 0.475 -0.31782 0.718431 0.662353 0.655686
v -0.366987 0.475 -0.247436 0.718431 0.662353 0.655686
v -0.295559 0.475 -0.123718 0.718431 0.662353 0.655686
v -0.366987 0.475 0 0.718431 0.662353 0.655686
v -0.295559 0.475 -0.123718 0.718431 0.662353 0.655686
v -0.168098 1 -0.291154 0.0705882 0.203922 0.337255
v 0.0252405 1 -0.291154 0.0705882 0.203922 0.337255
v -0.046188 1 -0.414872 0.0705882 0.203922 0.337255
v -0.0966691 1 -0.414872 0.0705882 0.203922 0.337255
v -0.168098 1 0.0437179 0.0705882 0.203922 0.337255
v -0.264767 1 -0.123718 0.0705882 0.203922 0.337255
v -0.336195 1 0 0.0705882 0.203922 0.337255
v -0.310955 1 0.0437179 0.0705882 0.203922 0.337255
v 0.193338 1 0.247436 0.0705882 0.203922 0.337255
v 0.12191 1 0.123718 0.0705882 0.203922 0.337255
v 0.046188 1 0.167436 0.0705882 0.203922 0.337255
v 0.117617 1 0.291154 0.0705882 0.203922 0.337255
v 0.168098 1 0.291154 0.0705882 0.203922 0.337255
v 0.239526 1 -0.08 0.0705882 0.203922 0.337255
v 0.382383 1 -0.08 0.0705882 0.203922 0.337255
v 0.407624 1 -0.123718 0.0705882 0.203922 0.337255
v 0.382383 1 -0.167436 0.0705882 0.203922 0.337255
v 0.239526 1 -0.167436 0.0705882 0.203922 0.337255
v -0.310955 1 -0.291154 0.0705882 0.203922 0.337255
v -0.336195 1 -0.247436 0.0705882 0.203922 0.337255
v -0.0966691 1 0.167436 0.0705882 0.203922 0.337255
v 0.168098 1 -0.291154 0.0705882 0.203922 0.337255
v 0.191192 0.775 0.331154 0.348235 0.400392 0.473725
v 0.184264 0.73 0.319154 0.403765 0.439686 0.50102
v 0.22567 0.73 0.247436 0.403765 0.439686 0.50102
v 0.239526 0.775 0.247436 0.348235 0.400392 0.473725
v 0.168098 0.775 0.123718 0.348235 0.400392 0.473725
v 0.154241 0.73 0.123718 0.403765 0.439686 0.50102
v 0.22567 0.73 0.247436 0.403765 0.439686 0.50102
v 0.26262 0.775 -0.04 0.348235 0.400392 0.473725
v 0.405477 0.775 -0.04 0.348235 0.400392 0.473725
v 0.453812 0.775 -0.123718 0.348235 0.400392 0.473725
v 0.255692 0.73 -0.052 0.403765 0.439686 0.50102
v 0.154241 0.73 0.123718 0.403765 0.439686 0.50102
v 0.255692 0.73 -0.052 0.403765 0.439686 0.50102
v 0.398549 0.73 -0.052 0.403765 0.439686 0.50102
v 0.398549 0.73 -0.052 0.403765 0.439686 0.50102
v 0.439956 0.73 -0.123718 0.403765 0.439686 0.50102
v 0.405477 0.775 -0.207436 0.348235 0.400392 0.473725
v 0.398549 0.73 -0.195436 0.403765 0.439686 0.50102
v 0.255692 0.73 -0.195436 0.403765 0.439686 0.50102
v 0.26262 0.775 -0.207436 0.348235 0.400392 0.473725
v 0.191192 0.775 -0.331154 0.348235 0.400392 0.473725
v 0.255692 0.73 -0.195436 0.403765 0.439686 0.50102
v 0.184264 0.73 -0.319154 0.403765 0.439686 0.50102
v 0.439956 0.73 -0.123718 0.403765 0.439686 0.50102
v 0.398549 0.73 -0.195436 0.403765 0.439686 0.50102
v 0.0483346 0.775 -0.331154 0.348235 0.400392 0.473725
v 0.0414064 0.73 -0.319154 0.403765 0.439686 0.50102
v 0.023094 0.775 0.207436 0.348235 0.400392 0.473725
v 0.0300222 0.73 0.195436 0.403765 0.439686 0.50102
v 0.101451 0.73 0.319154 0.403765 0.439686 0.50102
v 0.0945226 0.775 0.331154 0.348235 0.400392 0.473725
v 0.184264 0.73 0.319154 0.403765 0.439686 0.50102
v -0.334049 0.775 -0.331154 0.348235 0.400392 0.473725
v -0.191192 0.775 -0.331154 0.348235 0.400392 0.473725
v -0.327121 0.73 -0.319154 0.403765 0.439686 0.50102
v -0.184264 0.73 -0.319154 0.403765 0.439686 0.50102
v -0.191192 0.775 0.0837179 0.348235 0.400392 0.473725
v -0.184264 0.73 0.0717179 0.403765 0.439686 0.50102
v -0.112835 0.73 0.195436 0.403765 0.439686 0.50102
v -0.119763 0.775 0.207436 0.348235 0.400392 0.473725
v -0.112835 0.73 0.195436 0.403765 0.439686 0.50102
v 0.0300222 0.73 0.195436 0.403765 0.439686 0.50102
v -0.382383 0.775 -0.247436 0.348235 0.400392 0.473725
v -0.310955 0.775 -0.123718 0.348235 0.400392 0.473725
v -0.327121 0.73 -0.319154 0.403765 0.439686 0.50102
v -0.368527 0.73 -0.247436 0.403765 0.439686 0.50102
v -0.297098 0.73 -0.123718 0.403765 0.439686 0.50102
v -0.334049 0.775 0.0837179 0.348235 0.400392 0.473725
v -0.327121 0.73 0.0717179 0.403765 0.439686 0.50102
v -0.184264 0.73 0.0717179 0.403765 0.439686 0.50102
v -0.382383 0.775 0 0.348235 0.400392 0.473725
v -0.368527 0.73 0 0.403765 0.439686 0.50102
v -0.327121 0.73 0.0717179 0.403765 0.439686 0.50102
v -0.368527 0.73 0 0.403765 0.439686 0.50102
v -0.0300222 0.73 -0.442872 0.403765 0.439686 0.50102
v -0.023094 0.775 -0.454872 0.348235 0.400392 0.473725
v 0.0414064 0.73 -0.319154 0.403765 0.439686 0.50102
v -0.119763 0.775 -0.454872 0.348235 0.400392 0.473725
v -0.112835 0.73 -0.442872 0.403765 0.439686 0.50102
v -0.112835 0.73 -0.442872 0.403765 0.439686 0.50102
v -0.0300222 0.73 -0.442872 0.403765 0.439686 0.50102
v 0.231828 0.475 0.234102 0.718431 0.662353 0.655686
v 0.239526 0.475 0.247436 0.718431 0.662353 0.655686
v 0.191192 0.475 0.331154 0.718431 0.662353 0.655686
v 0.175796 0.475 0.331154 0.718431 0.662353 0.655686
v 0.26262 0.55 0.247436 0.625882 0.596863 0.610196
v 0.202739 0.55 0.351154 0.625882 0.596863 0.610196
v 0.191192 0.55 0.123718 0.625882 0.596863 0.610196
v 0.154241 0.73 0.123718 0.403765 0.439686 0.50102
v 0.22567 0.73 0.247436 0.403765 0.439686 0.50102
v 0.168098 0.475 0.123718 0.718431 0.662353 0.655686
v 0.183494 0.475 0.31782 0.718431 0.662353 0.655686
v 0.109919 0.475 0.331154 0.718431 0.662353 0.655686
v 0.102221 0.475 0.31782 0.718431 0.662353 0.655686
v 0.413175 0.475 -0.194102 0.718431 0.662353 0.655686
v 0.453812 0.475 -0.123718 0.718431 0.662353 0.655686
v 0.446114 0.475 -0.110385 0.718431 0.662353 0.655686
v 0.397779 0.475 -0.194102 0.718431 0.662353 0.655686
v 0.274167 0.55 -0.02 0.625882 0.596863 0.610196
v 0.255692 0.73 -0.052 0.403765 0.439686 0.50102
v 0.154241 0.73 0.123718 0.403765 0.439686 0.50102
v 0.255692 0.73 -0.052 0.403765 0.439686 0.50102
v 0.417024 0.55 -0.02 0.625882 0.596863 0.610196
v 0.398549 0.73 -0.052 0.403765 0.439686 0.50102
v 0.26262 0.475 -0.04 0.718431 0.662353 0.655686
v 0.254922 0.475 -0.0533333 0.718431 0.662353 0.655686
v 0.413175 0.475 -0.0533333 0.718431 0.662353 0.655686
v 0.405477 0.475 -0.04 0.718431 0.662353 0.655686
v 0.152702 0.475 0.123718 0.718431 0.662353 0.655686
v 0.22413 0.475 0.247436 0.718431 0.662353 0.655686
v 0.438416 0.475 -0.123718 0.718431 0.662353 0.655686
v 0.397779 0.475 -0.0533333 0.718431 0.662353 0.655686
v 0.476906 0.55 -0.123718 0.625882 0.596863 0.610196
v 0.26262 0.475 -0.207436 0.718431 0.662353 0.655686
v 0.254922 0.475 -0.194102 0.718431 0.662353 0.655686
v 0.175796 0.475 -0.331154 0.718431 0.662353 0.655686
v 0.191192 0.475 -0.331154 0.718431 0.662353 0.655686
v 0.405477 0.475 -0.207436 0.718431 0.662353 0.655686
v 0.274167 0.55 -0.227436 0.625882 0.596863 0.610196
v 0.417024 0.55 -0.227436 0.625882 0.596863 0.610196
v 0.202739 0.55 -0.351154 0.625882 0.596863 0.610196
v 0.439956 0.73 -0.123718 0.403765 0.439686 0.50102
v 0.398549 0.73 -0.052 0.403765 0.439686 0.50102
v 0.398549 0.73 -0.195436 0.403765 0.439686 0.50102
v 0.255692 0.73 -0.195436 0.403765 0.439686 0.50102
v 0.398549 0.73 -0.195436 0.403765 0.439686 0.50102
v 0.184264 0.73 -0.319154 0.403765 0.439686 0.50102
v 0.255692 0.73 -0.195436 0.403765 0.439686 0.50102
v 0.184264 0.73 -0.319154 0.403765 0.439686 0.50102
v 0.0598816 0.55 -0.351154 0.625882 0.596863 0.610196
v 0.0329386 0.475 -0.331154 0.718431 0.662353 0.655686
v 0.183494 0.475 -0.31782 0.718431 0.662353 0.655686
v 0.0406366 0.475 -0.31782 0.718431 0.662353 0.655686
v 0.0483346 0.475 -0.331154 0.718431 0.662353 0.655686
v 0.030792 0.475 0.194102 0.718431 0.662353 0.655686
v 0.023094 0.475 0.207436 0.718431 0.662353 0.655686
v -0.104367 0.475 0.207436 0.718431 0.662353 0.655686
v -0.112065 0.475 0.194102 0.718431 0.662353 0.655686
v 0.0945226 0.475 0.331154 0.718431 0.662353 0.655686
v 0.0829756 0.55 0.351154 0.625882 0.596863 0.610196
v 0.011547 0.55 0.227436 0.625882 0.596863 0.610196
v 0.184264 0.73 0.319154 0.403765 0.439686 0.50102
v 0.101451 0.73 0.319154 0.403765 0.439686 0.50102
v 0.101451 0.73 0.319154 0.403765 0.439686 0.50102
v 0.0300222 0.73 0.195436 0.403765 0.439686 0.50102
v 0.184264 0.73 0.319154 0.403765 0.439686 0.50102
v 0.22567 0.73 0.247436 0.403765 0.439686 0.50102
v -0.366987 0.475 -0.247436 0.718431 0.662353 0.655686
v -0.374685 0.475 -0.260769 0.718431 0.662353 0.655686
v -0.334049 0.475 -0.331154 0.718431 0.662353 0.655686
v -0.318653 0.475 -0.331154 0.718431 0.662353 0.655686
v -0.326351 0.475 -0.31782 0.718431 0.662353 0.655686
v -0.175796 0.475 -0.331154 0.718431 0.662353 0.655686
v -0.183494 0.475 -0.31782 0.718431 0.662353 0.655686
v -0.345596 0.55 -0.351154 0.625882 0.596863 0.610196
v -0.202739 0.55 -0.351154 0.625882 0.596863 0.610196
v -0.191192 0.475 -0.331154 0.718431 0.662353 0.655686
v -0.183494 0.475 0.0703846 0.718431 0.662353 0.655686
v -0.119763 0.475 0.207436 0.718431 0.662353 0.655686
v -0.19889 0.475 0.0703846 0.718431 0.662353 0.655686
v -0.191192 0.475 0.0837179 0.718431 0.662353 0.655686
v -0.13131 0.55 0.227436 0.625882 0.596863 0.610196
v -0.202739 0.55 0.103718 0.625882 0.596863 0.610196
v -0.184264 0.73 0.0717179 0.403765 0.439686 0.50102
v -0.112835 0.73 0.195436 0.403765 0.439686 0.50102
v -0.112835 0.73 0.195436 0.403765 0.439686 0.50102
v 0.0300222 0.73 0.195436 0.403765 0.439686 0.50102
v -0.368527 0.73 -0.247436 0.403765 0.439686 0.50102
v -0.405477 0.55 -0.247436 0.625882 0.596863 0.610196
v -0.334049 0.55 -0.123718 0.625882 0.596863 0.610196
v -0.297098 0.73 -0.123718 0.403765 0.439686 0.50102
v -0.327121 0.73 -0.319154 0.403765 0.439686 0.50102
v -0.184264 0.73 -0.319154 0.403765 0.439686 0.50102
v -0.368527 0.73 -0.247436 0.403765 0.439686 0.50102
v -0.327121 0.73 -0.319154 0.403765 0.439686 0.50102
v -0.382383 0.475 -0.247436 0.718431 0.662353 0.655686
v -0.295559 0.475 -0.123718 0.718431 0.662353 0.655686
v -0.303257 0.475 -0.110385 0.718431 0.662353 0.655686
v -0.310955 0.475 -0.123718 0.718431 0.662353 0.655686
v -0.334049 0.475 0.0837179 0.718431 0.662353 0.655686
v -0.341747 0.475 0.0703846 0.718431 0.662353 0.655686
v -0.345596 0.55 0.103718 0.625882 0.596863 0.610196
v -0.327121 0.73 0.0717179 0.403765 0.439686 0.50102
v -0.326351 0.475 0.0703846 0.718431 0.662353 0.655686
v -0.382383 0.475 0 0.718431 0.662353 0.655686
v -0.374685 0.475 -0.0133333 0.718431 0.662353 0.655686
v -0.405477 0.55 0 0.625882 0.596863 0.610196
v -0.368527 0.73 0 0.403765 0.439686 0.50102
v -0.368527 0.73 0 0.403765 0.439686 0.50102
v -0.366987 0.475 0 0.718431 0.662353 0.655686
v -0.03849 0.475 -0.454872 0.718431 0.662353 0.655686
v -0.023094 0.475 -0.454872 0.718431 0.662353 0.655686
v -0.011547 0.55 -0.474872 0.625882 0.596863 0.610196
v 0.0414064 0.73 -0.319154 0.403765 0.439686 0.50102
v -0.119763 0.475 -0.454872 0.718431 0.662353 0.655686
v -0.104367 0.475 -0.454872 0.718431 0.662353 0.655686
v -0.13131 0.55 -0.474872 0.625882 0.596863 0.610196
v -0.184264 0.73 -0.319154 0.403765 0.439686 0.50102
v -0.112835 0.73 -0.442872 0.403765 0.439686 0.50102
v -0.112835 0.73 -0.442872 0.403765 0.439686 0.50102
v -0.0300222 0.73 -0.442872 0.403765 0.439686 0.50102
v -0.112065 0.475 -0.441538 0.718431 0.662353 0.655686
v -0.030792 0.475 -0.441538 0.718431 0.662353 0.655686
v 0.204679 0.25 0.100357 0.903529 0.793333 0.746667
v -0.0560012 0.25 -0.351154 0.903529 0.793333 0.746667
v 0.148678 0.25 0.00336052 0.903529 0.793333 0.746667
v -0.26068 0.25 0.00336052 0.903529 0.793333 0.746667
v 0.0495592 0.25 0.00336052 0.903529 0.793333 0.746667
v 0.0991185 0.25 -0.0824786 0.903529 0.793333 0.746667
v -0.0495592 0.25 0.00336052 0.903529 0.793333 0.746667
v -0.254238 0.25 -0.351154 0.903529 0.793333 0.746667
v 0.0495592 0.25 -0.168318 0.903529 0.793333 0.746667
v -0.148678 0.25 -0.168318 0.903529 0.793333 0.746667
v -0.0495592 0.25 -0.168318 0.903529 0.793333 0.746667
v -0.0991185 0.25 -0.0824786 0.903529 0.793333 0.746667

vt 1 0.5
vt 0.75 0
vt 0.25 0
vt 0 0.5
vt 0.25 1
vt 0.75 1
vt 0.333333 0.757576
vt 0.333333 0
vt 0.5 0
vt 0.5 0.757576
vt 0.666667 0
vt 0.666667 0.757576
vt 0.833333 0
vt 0.833333 0.757576
vt 0.166667 0
vt 0.166667 0.757576
vt 0 0
vt 0.166667 0.757576
vt 0 0.757576
vt 1 0
vt 1 0.757576
vt 0.047551 0
vt 0.0454545 0.5
vt 0.095102 0
vt 0.0909091 0.5
vt 0.142653 0
vt 0.136364 0.5
vt 0.190204 0
vt 0.181818 0.5
vt 0.230068 0
vt 0.227273 0.5
vt 0.277619 0
vt 0.272727 0.5
vt 0.32517 0
vt 0.318182 0.5
vt 0.365034 0
vt 0.363636 0.5
vt 0.412585 0
vt 0.409091 0.5
vt 0.460136 0
vt 0.454545 0.5
vt 0.5 0
vt 0.5 0.5
vt 0.547551 0
vt 0.545455 0.5
vt 0.595102 0
vt 0.590909 0.5
vt 0.642653 0
vt 0.636364 0.5
vt 0.690204 0
vt 0.681818 0.5
vt 0.730068 0
vt 0.727273 0.5
vt 0.769932 0
vt 0.772727 0.5
vt 0.817483 0
vt 0.818182 0.5
vt 0.872721 0
vt 0.863636 0.5
vt 0.920272 0
vt 0.909091 0.5
vt 0.960136 0
vt 0.954545 0.5
vt 1 0
vt 0.551943 0.833333
vt 0.603886 0.833333
vt 0.655829 0.833333
vt 0.707771 0.833333
vt 0 0.833333
vt 0.0519429 0.833333
vt 0.103886 0.833333
vt 0.155829 0.833333
vt 0.207771 0.833333
vt 0.155829 0.833333
vt 0.971848 0.833333
vt 1 0.833333
vt 0.943695 0.833333
vt 0.735924 0.833333
vt 0.764076 0.833333
vt 0.735924 0.833333
vt 0.816019 0.833333
vt 0.764076 0.833333
vt 0.891752 0.833333
vt 0.943695 0.833333
vt 0.891752 0.833333
vt 0.5 0.833333
vt 0.235924 0.833333
vt 0.287867 0.833333
vt 0.235924 0.833333
vt 0.33981 0.833333
vt 0.367962 0.833333
vt 0.419905 0.833333
vt 0.471848 0.833333
vt 0.225993 0.824768
vt 0.485919 0.824768
vt 0.38989 1
vt 0.322022 1
vt 0.225993 0.350463
vt 0.0960295 0.587616
vt 0 0.412384
vt 0.0339337 0.350463
vt 0.711912 0.0619212
vt 0.615882 0.237153
vt 0.514081 0.175232
vt 0.61011 0
vt 0.677978 0
vt 0.774007 0.525695
vt 0.966066 0.525695
vt 1 0.587616
vt 0.966066 0.649537
vt 0.774007 0.649537
vt 0.0339337 0.824768
vt 0 0.762847
vt 0.322022 0.175232
vt 0.677978 0.824768
vt 0.733134 0.5
vt 0.73516 0.2
vt 0.76484 0.2
vt 0.766866 0.5
vt 0.759751 1
vt 0.740249 1
vt 0.816717 0.5
vt 0.814938 1
vt 0.81621 0.2
vt 0.76484 0.2
vt 0.882684 0.5
vt 0.90581 1
vt 0.932534 0.5
vt 0.960997 1
vt 0.966267 0.5
vt 0.980499 1
vt 0.88927 0.2
vt 0.81621 0.2
vt 0.88927 0.2
vt 0.940639 0.2
vt 0.940639 0.2
vt 0.97032 0.2
vt 0 0.2
vt 0.0513699 0.2
vt 0.0498502 0.5
vt 0.0997004 0.5
vt 0.0513699 0.2
vt 0.10274 0.2
vt 1 0.5
vt 0.97032 0.2
vt 1 0.2
vt 0.055187 1
vt 0 1
vt 0.110374 1
vt 1 1
vt 0.149551 0.5
vt 0.165561 1
vt 0.15411 0.2
vt 0.10274 0.2
vt 0.649551 0.5
vt 0.65411 0.2
vt 0.70548 0.2
vt 0.699401 0.5
vt 0.70548 0.2
vt 0.73516 0.2
vt 0.720748 1
vt 0.665561 1
vt 0.332834 0.5
vt 0.350623 1
vt 0.295436 1
vt 0.282984 0.5
vt 0.3379 0.2
vt 0.28653 0.2
vt 0.54985 0.5
vt 0.55137 0.2
vt 0.60274 0.2
vt 0.5997 0.5
vt 0.60274 0.2
vt 0.65411 0.2
vt 0.610374 1
vt 0.555187 1
vt 0.366567 0.5
vt 0.370125 1
vt 0.416417 0.5
vt 0.425312 1
vt 0.3379 0.2
vt 0.36758 0.2
vt 0.36758 0.2
vt 0.41895 0.2
vt 0.5 0.5
vt 0.5 0.2
vt 0.55137 0.2
vt 0.5 1
vt 0.466267 0.5
vt 0.480499 1
vt 0.47032 0.2
vt 0.5 0.2
vt 0.47032 0.2
vt 0.41895 0.2
vt 0.20548 0.2
vt 0.199401 0.5
vt 0.15411 0.2
vt 0.220748 1
vt 0.233134 0.5
vt 0.240249 1
vt 0.23516 0.2
vt 0.28653 0.2
vt 0.23516 0.2
vt 0.20548 0.2
vt 0.734531 0.123471
vt 0.743737 0.106508
vt 0.685934 0
vt 0.667522 0
vt 0.733134 0
vt 0.766866 0
vt 0.769932 0.5
vt 0.730068 0.5
vt 0.817483 0.5
vt 0.816194 0.9
vt 0.764778 0.9
vt 0.816717 0
vt 0.676728 0.016963
vt 0.58874 0
vt 0.579534 0.016963
vt 0.951403 0.668243
vt 1 0.578698
vt 0.990794 0.561735
vt 0.932991 0.668243
vt 0.872721 0.5
vt 0.889472 0.9
vt 0.889472 0.9
vt 0.920272 0.5
vt 0.940889 0.9
vt 0.771355 0.472191
vt 0.762149 0.489154
vt 0.951403 0.489154
vt 0.942197 0.472191
vt 0.639904 0.263905
vt 0.658316 0.263905
vt 0.725325 0.106508
vt 0.882684 0
vt 0.932534 0
vt 0.981588 0.578698
vt 0.932991 0.489154
vt 0.966267 0
vt 0.960136 0.5
vt 0.771355 0.685206
vt 0.762149 0.668243
vt 0.667522 0.842603
vt 0.685934 0.842603
vt 0.942197 0.685206
vt 0.0498502 0
vt 0.047551 0.5
vt 0.0997004 0
vt 0.095102 0.5
vt 1 0
vt 1 0.5
vt 0.970444 0.9
vt 0.940889 0.9
vt 0 0.9
vt 0.0514166 0.9
vt 1 0.9
vt 0.970444 0.9
vt 0.102833 0.9
vt 0.0514166 0.9
vt 0.102833 0.9
vt 0.142653 0.5
vt 0.15425 0.9
vt 0.496681 0.842603
vt 0.676728 0.82564
vt 0.505887 0.82564
vt 0.149551 0
vt 0.494113 0.17436
vt 0.484908 0.157397
vt 0.332478 0.157397
vt 0.323272 0.17436
vt 0.570328 0
vt 0.649551 0
vt 0.699401 0
vt 0.690204 0.5
vt 0.642653 0.5
vt 0.735222 0.9
vt 0.705666 0.9
vt 0.705666 0.9
vt 0.65425 0.9
vt 0.735222 0.9
vt 0.018412 0.736095
vt 0.00920599 0.753058
vt 0.057803 0.842603
vt 0.0762149 0.842603
vt 0.0670089 0.82564
vt 0.247057 0.842603
vt 0.237851 0.82564
vt 0.332834 0
vt 0.32517 0.5
vt 0.277619 0.5
vt 0.282984 0
vt 0.237851 0.331757
vt 0.314066 0.157397
vt 0.219439 0.331757
vt 0.54985 0
vt 0.5997 0
vt 0.595102 0.5
vt 0.547551 0.5
vt 0.551417 0.9
vt 0.602833 0.9
vt 0.602833 0.9
vt 0.65425 0.9
vt 0.367611 0.9
vt 0.365034 0.5
vt 0.412585 0.5
vt 0.419028 0.9
vt 0.338055 0.9
vt 0.286639 0.9
vt 0.367611 0.9
vt 0.338055 0.9
vt 0 0.736095
vt 0.103833 0.578698
vt 0.0946269 0.561735
vt 0.366567 0
vt 0.416417 0
vt 0.057803 0.314794
vt 0.048597 0.331757
vt 0.219439 0.331757
vt 0.228645 0.314794
vt 0.5 0.5
vt 0.5 0
vt 0.5 0.9
vt 0.0670089 0.331757
vt 0 0.421302
vt 0.00920599 0.438265
vt 0.460136 0.5
vt 0.466267 0
vt 0.470444 0.9
vt 0.419028 0.9
vt 0.5 0.9
vt 0.470444 0.9
vt 0.018412 0.421302
vt 0.0854209 0.578698
vt 0.0946269 0.561735
vt 0.41126 1
vt 0.429672 1
vt 0.515092 0.842603
vt 0.496681 0.842603
vt 0.199401 0
vt 0.190204 0.5
vt 0.205666 0.9
vt 0.15425 0.9
vt 0.314066 1
vt 0.332478 1
vt 0.247057 0.842603
vt 0.228645 0.842603
vt 0.230068 0.5
vt 0.233134 0
vt 0.286639 0.9
vt 0.235222 0.9
vt 0.235222 0.9
vt 0.205666 0.9
vt 0.323272 0.983037
vt 0.420466 0.983037
vt 0.689288 0.850225
vt 0.770237 0.70045
vt 0.770237 0.449325
vt 0.691487 0.303618
vt 0.396059 0.850225
vt 1 0.574887
vt 0.932137 0.449325
vt 0.932137 0.70045
vt 0.628021 0.421044
vt 0.676202 0.275338
vt 0.472611 0.149775
vt 0.310712 0.149775
vt 0.164098 0.421044
vt 0.689288 0
vt 0.553561 0
vt 0.757151 0.125563
vt 0.51569 0.421044
vt 0.571856 0.524962
vt 0 0.425113
vt 0.0809496 0.574887
vt 0.229763 0.29955
vt 0.0678634 0.29955
vt 0.40336 0.421044
vt 0 0.724662
vt 0.0678634 0.850225
vt 0.171399 0.850225
vt 0.229763 0.850225
vt 0.310712 1
vt 0.446439 1
vt 0.527389 0.850225
vt 0.51569 0.628881
vt 0.29103 0.628881
vt 0.40336 0.628881
vt 0.347195 0.524962

vn 0 -1 0
vn -0.866025 0 0.5
vn -0.866025 0 0.5
vn 0 0 1
vn 0.866025 0 0.5
vn 0.866025 0 0.5
vn -0.866025 0 -0.5
vn -0.866025 0 -0.5
vn 0 0 -1
vn 0.866025 0 -0.5
vn 0.866025 0 -0.5
vn 0.866025 0 -0.5
vn 0.866025 0 -0.5
vn 0.866025 0 -0.5
vn -0.866025 0 -0.5
vn -0.866025 0 -0.5
vn -0.866025 0 -0.5
vn -0.866025 0 0.5
vn -0.866025 0 0.5
vn -0.866025 0 -0.5
vn -0.866025 0 -0.5
vn -0.866025 0 0.5
vn -0.866025 0 0.5
vn -0.866025 0 0.5
vn -0.866025 0 0.5
vn -0.866025 0 0.5
vn -0.866025 0 0.5
vn 0.866025 0 0.5
vn 0.866025 0 0.5
vn 0.866025 0 -0.5
vn 0.866025 0 -0.5
vn 0.866025 0 0.5
vn 0.866025 0 0.5
vn 0.866025 0 0.5
vn 0.866025 0 -0.5
vn 0.866025 0 -0.5
vn -0.866025 0 0.5
vn -0.866025 0 0.5
vn 0.866025 0 -0.5
vn 0.866025 0 -0.5
vn 0.866025 0 0.5
vn 0.866025 0 0.5
vn 0.866025 0 0.5
vn 0.866025 0 -0.5
vn 0.866025 0 0.5
vn 0.866025 0 0.5
vn -0.866025 0 -0.5
vn -0.866025 0 0.5
vn -0.866025 0 0.5
vn 0 1 0
vn 0.866025 0 0.5
vn 0.866025 0 0.5
vn 0.866025 0 0.5
vn 0.866025 0 0.5
vn 0.866025 0 0.5
vn 0.866025 0 0.5
vn 0.866025 0 0.5
vn 0.866025 0 0.5
vn 0.866025 0 -0.5
vn 0.866025 0 -0.5
vn 0.866025 0 -0.5
vn 0.866025 0 -0.5
vn 0.866025 0 -0.5
vn -0.866025 0 0.5
vn -0.866025 0 -0.5
vn -0.866025 0 -0.5
vn -0.866025 0 -0.5
vn -0.866025 0 0.5
vn -0.866025 0 0.5
vn -0.866025 0 0.5
vn 0.866025 0 -0.5
vn -0.866025 0 -0.5
vn 0.866025 0 0.5
vn 0.866025 0 0.5
vn 0.866025 0 -0.5
vn 0.866025 0 0.5
vn -0.866025 0 -0.5
vn -0.866025 0 0.5

f 1/1/1 2/2/1 3/3/1 4/4/1 5/5/1 6/6/1
f 7/7/2 4/8/3 3/9/3 8/10/2
f 2/11/4 9/12/4 10/10/4 3/9/4
f 2/11/5 1/13/5 11/14/6 9/12/6
f 5/15/7 4/8/7 12/7/8 13/16/8
f 6/17/9 5/15/9 14/18/9 15/19/9
f 6/20/10 16/21/11 17/14/11 1/13/10
f 18/17/9 19/22/9 20/23/9 21/4/9
f 19/22/12 22/24/12 23/25/12 20/23/12
f 22/24/9 24/26/9 25/27/9 23/25/9
f 24/26/13 26/28/13 27/29/14 25/27/14
f 26/28/9 28/30/9 29/31/9 27/29/9
f 28/30/15 30/32/15 31/33/15 29/31/15
f 30/32/9 32/34/9 33/35/9 31/33/9
f 32/34/16 34/36/16 35/37/17 33/35/17
f 34/36/18 36/38/18 37/39/19 35/37/19
f 36/38/20 38/40/20 39/41/21 37/39/21
f 38/40/22 40/42/22 41/43/23 39/41/23
f 40/42/4 42/44/4 43/45/4 41/43/4
f 42/44/24 44/46/24 45/47/25 43/45/25
f 44/46/4 46/48/4 47/49/4 45/47/4
f 46/48/26 48/50/26 49/51/27 47/49/27
f 48/50/4 50/52/4 51/53/4 49/51/4
f 50/52/28 52/54/28 53/55/29 51/53/29
f 52/54/30 54/56/30 55/57/31 53/55/31
f 54/56/32 56/58/32 57/59/33 55/57/33
f 56/58/4 58/60/4 59/61/4 57/59/4
f 58/60/28 60/62/28 61/63/34 59/61/34
f 60/62/35 18/64/35 21/1/36 61/63/36
f 62/65/37 43/45/25 45/47/25 63/66/37
f 63/66/4 45/47/4 47/49/4 64/67/4
f 64/67/38 47/49/27 49/51/27 65/68/38
f 66/69/9 21/4/9 20/23/9 67/70/9
f 67/70/39 20/23/12 23/25/12 68/71/39
f 68/71/9 23/25/9 25/27/9 69/72/9
f 25/27/14 27/29/14 70/73/14 71/74/14
f 72/75/40 61/63/36 21/1/36 66/76/40
f 59/61/34 61/63/34 72/75/41 73/77/41
f 51/53/4 74/78/4 65/68/4 49/51/4
f 51/53/29 53/55/29 75/79/42 76/80/43
f 55/57/31 77/81/44 78/82/44 53/55/31
f 77/81/45 55/57/33 57/59/33 79/83/46
f 57/59/4 59/61/4 80/84/4 81/85/4
f 82/86/4 41/43/4 43/45/4 62/65/4
f 29/31/9 83/87/9 70/73/9 27/29/9
f 29/31/15 31/33/15 84/88/15 85/89/15
f 31/33/9 33/35/9 86/90/9 87/88/9
f 86/90/47 33/35/17 35/37/17 88/91/47
f 88/91/37 35/37/19 37/39/19 89/92/37
f 37/39/21 39/41/21 90/93/15 91/92/15
f 39/41/23 41/43/23 82/86/48 90/93/49
f 92/94/50 93/95/50 94/96/50 95/97/50
f 96/98/50 97/99/50 98/100/50 99/101/50
f 100/102/50 101/103/50 102/104/50 103/105/50 104/106/50
f 105/107/50 106/108/50 107/109/50 108/110/50 109/111/50
f 110/112/50 111/113/50 112/114/50 102/104/50 101/103/50 105/107/50 109/111/50 113/115/50
f 114/116/51 115/117/52 116/118/52 117/119/51
f 114/116/51 117/119/51 100/120/53 104/121/53
f 118/122/31 101/123/30 100/120/30 117/119/31
f 119/124/44 118/122/31 117/119/31 120/125/44
f 121/126/54 105/127/55 101/123/55 118/122/54
f 121/126/4 122/128/4 106/129/4 105/127/4
f 106/129/53 122/128/56 123/130/56 107/131/53
f 124/132/57 121/126/54 118/122/54 125/133/57
f 122/128/4 121/126/4 126/134/4 127/135/4
f 122/128/56 128/136/58 129/137/58 123/130/56
f 130/4/9 131/138/9 132/139/9 133/140/9
f 134/141/59 133/140/59 135/142/60 136/143/60
f 130/144/61 123/130/61 137/145/62 138/146/62
f 130/4/9 133/140/9 109/147/9 108/148/9
f 133/140/59 134/141/59 113/149/14 109/147/14
f 130/144/61 108/150/63 107/131/63 123/130/61
f 113/149/9 134/141/9 139/151/9 93/152/9
f 140/153/9 139/151/9 134/141/9 136/154/9
f 141/155/64 142/156/26 143/157/26 144/158/64
f 144/158/4 143/159/4 145/160/4 114/116/4
f 141/155/64 144/158/64 103/161/26 102/162/26
f 103/161/4 144/158/4 114/116/4 104/121/4
f 146/163/9 110/164/9 92/165/9 147/166/9
f 148/167/9 146/163/9 147/166/9 149/168/9
f 150/169/25 151/170/25 152/171/25 153/172/25
f 153/172/4 154/173/4 155/174/4 141/155/4
f 150/169/25 153/172/25 112/175/37 96/176/37
f 112/175/4 153/172/4 141/155/4 102/162/4
f 156/177/65 111/178/66 110/164/66 146/163/65
f 156/177/19 157/179/19 97/180/18 111/178/18
f 156/177/65 146/163/65 158/181/67 159/182/67
f 156/177/19 159/183/37 160/184/37 157/179/19
f 161/185/4 162/186/4 163/187/4 150/169/4
f 161/185/4 150/169/4 96/176/4 99/188/4
f 164/189/21 98/190/20 97/180/20 157/179/21
f 164/189/68 161/185/68 99/188/69 98/190/69
f 164/189/68 165/191/70 166/192/70 161/185/68
f 167/193/15 164/189/21 157/179/21 160/194/15
f 168/195/71 169/196/12 139/151/12 170/197/71
f 169/196/12 94/198/14 93/152/14 139/151/12
f 169/196/9 171/199/9 95/200/9 94/198/9
f 171/199/17 147/166/17 92/165/15 95/200/15
f 171/199/17 172/201/72 149/202/72 147/166/17
f 173/203/9 171/199/9 169/196/9 174/204/9
f 175/205/1 176/206/1 177/207/1 178/208/1
f 177/209/51 176/210/51 179/211/28 180/212/28
f 181/213/30 182/214/30 183/215/30 179/211/30
f 184/216/31 181/213/30 179/211/30 176/210/31
f 185/217/1 178/208/1 186/218/1 187/219/1
f 188/220/1 189/221/1 190/222/1 191/223/1
f 192/224/32 193/225/73 194/214/73 181/213/32
f 195/226/4 192/224/4 196/227/4 197/228/4
f 198/229/1 199/230/1 200/231/1 201/232/1
f 202/233/1 184/234/1 175/205/1 203/235/1
f 202/233/1 199/230/1 198/229/1 184/234/1
f 198/236/54 192/224/32 181/213/32 184/216/54
f 198/236/4 201/237/4 196/227/4 192/224/4
f 204/238/1 190/222/1 200/231/1 205/239/1
f 196/227/28 201/237/56 189/240/56 206/241/28
f 207/242/1 208/243/1 209/244/1 210/245/1
f 188/220/1 208/243/1 207/242/1 211/246/1
f 211/17/9 207/247/9 212/248/9 213/4/9
f 207/247/59 210/249/59 214/250/12 212/248/12
f 211/251/61 213/252/35 206/241/35 189/240/61
f 215/253/74 216/254/74 196/227/28 206/241/28
f 217/255/9 213/4/9 212/248/9 218/256/9
f 213/252/35 219/257/75 215/258/75 206/241/35
f 214/250/12 220/259/12 221/260/12 212/248/12
f 222/261/9 214/250/9 223/262/9 140/263/9
f 224/264/1 209/244/1 225/265/1 226/266/1
f 227/267/9 223/262/9 214/250/9 210/249/9
f 228/268/1 229/269/1 230/270/1 231/271/1
f 232/272/1 229/269/1 228/268/1 186/218/1
f 229/273/64 232/274/64 233/275/26 234/276/26
f 233/275/4 232/274/4 177/209/4 180/212/4
f 235/277/4 236/278/4 233/275/4 180/212/4
f 237/279/26 238/280/26 234/276/26 233/275/26
f 239/281/76 180/212/28 179/211/28 240/215/76
f 241/282/1 242/283/1 243/284/1 244/285/1
f 245/286/1 244/285/1 246/287/1 247/288/1
f 243/289/9 248/290/9 249/291/9 250/292/9
f 251/293/1 230/270/1 252/294/1 253/295/1
f 254/296/25 252/297/25 255/298/24 256/299/24
f 255/298/4 252/297/4 229/273/4 234/276/4
f 257/300/25 256/299/24 255/298/24 258/301/25
f 259/302/4 255/298/4 234/276/4 260/303/4
f 261/304/18 262/305/18 263/306/18 264/307/18
f 265/308/9 266/309/9 249/291/9 248/290/9
f 262/305/16 267/310/77 268/311/77 248/290/16
f 269/312/1 242/283/1 270/313/1 271/314/1
f 269/315/65 262/305/16 248/290/16 243/289/65
f 269/315/19 272/316/19 263/306/18 262/305/18
f 273/317/1 274/318/1 253/319/1 254/320/1
f 275/321/4 273/322/4 254/296/4 256/299/4
f 275/321/4 256/299/4 257/300/4 276/323/4
f 277/324/1 274/318/1 278/325/1 279/326/1
f 280/327/22 278/328/68 273/322/68 275/321/22
f 280/327/20 281/329/20 264/330/20 263/306/20
f 280/327/22 275/321/22 276/331/78 282/332/78
f 283/333/1 279/326/1 272/334/1 271/335/1
f 278/328/21 280/327/20 263/306/20 272/316/21
f 284/336/1 285/337/1 227/338/1 224/339/1
f 285/340/12 286/341/13 223/262/13 227/267/12
f 286/341/13 174/342/13 287/343/13 223/262/13
f 288/344/1 289/345/1 246/346/1 250/347/1
f 290/348/15 288/349/17 250/292/17 249/291/15
f 290/348/15 249/291/15 291/350/15 292/351/15
f 286/341/9 290/348/9 293/352/9 294/353/9
f 295/354/1 289/345/1 284/336/1 296/355/1
f 288/349/9 290/348/9 286/341/9 285/340/9
f 22/356/1 19/357/1 56/358/1 297/359/1 298/360/1
f 60/361/1 58/362/1 56/358/1 19/357/1 18/363/1
f 299/364/1 297/359/1 54/365/1 46/366/1 44/367/1 300/368/1
f 50/369/1 48/370/1 46/366/1 54/365/1 52/371/1
f 299/364/1 301/372/1 302/373/1
f 38/374/1 36/375/1 42/376/1 40/377/1
f 303/378/1 300/368/1 34/379/1 32/380/1 304/381/1
f 30/382/1 28/383/1 26/384/1 24/385/1
f 298/360/1 305/386/1 306/387/1 304/381/1
f 306/387/1 307/388/1 308/389/1