v -2.3 1 -0.173205 1 0 0
v -2.3 1 0.173205 1 0 0
v -2 1 0 1 0 0
v -2.3 1 0.173205 0 0 1
v -2.3 1 -0.173205 0 0 1
v -2.3 0 -0.173205 0 0 1
v -2.3 0 0.173205 0 0 1
v -0.5 1 -2.59808 0 1 0
v 1 1 -1.73205 0 1 0
v 1 1 -2.07846 0 1 0
v -0.2 1 -2.77128 0 1 0
v 1 0 -2.07846 0 0 1
v -0.2 0 -2.77128 0 0 1
v -0.2 1 -2.77128 0 0 1
v 1 1 -2.07846 0 0 1
v 1 1 2.07846 1 0 0
v 1.3 1 1.90526 1 0 0
v 1 1 1.73205 1 0 0
v 1.3 1 1.90526 0 0 1
v 1 1 2.07846 0 0 1
v 1 0 2.07846 0 0 1
v 1.3 0 1.90526 0 0 1
v 2.8 1 1.03923 1 0 0
v 2.8 1 0.69282 1 0 0
v 2.5 1 0.866025 1 0 0
v 2.8 1 0.69282 0 0 1
v 2.8 1 1.03923 0 0 1
v 2.8 0 1.03923 0 0 1
v 2.8 0 0.69282 0 0 1
v 0.7 1 1.90526 1 0 0
v 0.7 1 1.90526 0 0 1
v 0.7 0 1.90526 0 0 1
v -0.5 1 -2.94449 1 0 0
v -0.8 1 -2.77128 1 0 0
v -0.5 1 -2.59808 1 0 0
v -0.8 1 -2.77128 0 0 1
v -0.5 1 -2.94449 0 0 1
v -0.5 0 -2.94449 0 0 1
v -0.8 0 -2.77128 0 0 1
v 1 1 1.73205 0 1 0
v -0.5 1 0.866025 0 1 0
v -0.5 1 1.21244 0 1 0
v 0.7 1 1.90526 0 1 0
v -0.5 0 1.21244 0 0 1
v -0.5 1 1.21244 0 0 1
v -2 1 0 0 1 0
v -0.5 1 -0.866025 0 1 0
v -0.8 1 -1.03923 0 1 0
v -2 1 -0.34641 0 1 0
v -0.8 0 -1.03923 0 0 1
v -2 0 -0.34641 0 0 1
v -2 1 -0.34641 0 0 1
v -0.8 1 -1.03923 0 0 1
v -2 1 -0.34641 1 0 0
v 1 1 0 0 1 0
v 1.3 1 -0.173205 0 1 0
v 1.3 1 -1.55885 0 1 0
v 1.3 0 -0.173205 0 0 1
v 1.3 0 -1.55885 0 0 1
v 1.3 1 -1.55885 0 0 1
v 1.3 1 -0.173205 0 0 1
v -2.3 1 1.90526 1 0 0
v -2 1 2.07846 1 0 0
v -2 1 1.73205 1 0 0
v -2 1 2.07846 0 0 1
v -2.3 1 1.90526 0 0 1
v -2.3 0 1.90526 0 0 1
v -2 0 2.07846 0 0 1
v -2 1 1.73205 0 1 0
v -2.3 1 0.173205 0 1 0
v -2.3 1 1.55885 0 1 0
v -2.3 0 1.55885 0 0 1
v -2.3 1 1.55885 0 0 1
v -0.2 1 -2.77128 1 0 0
v -0.8 1 -2.42487 1 0 0
v -0.8 1 -2.42487 0 0 1
v -0.8 0 -2.42487 0 0 1
v -1.7 1 1.90526 1 0 0
v -1.7 1 1.90526 0 0 1
v -1.7 0 1.90526 0 0 1
v 1.3 1 -1.55885 1 0 0
v 1.3 1 -1.90526 1 0 0
v 1 1 -1.73205 1 0 0
v 1.3 1 -1.90526 0 0 1
v 1.3 0 -1.90526 0 0 1
v -0.8 1 -2.42487 0 1 0
v 2.5 1 0.519615 1 0 0
v 2.5 1 0.519615 0 0 1
v 2.5 0 0.519615 0 0 1
v -2.3 1 1.55885 1 0 0
v 2.5 1 1.21244 1 0 0
v 2.5 1 1.21244 0 0 1
v 2.5 0 1.21244 0 0 1
v -1.7 1 1.90526 0 1 0
v 1 1 -2.07846 1 0 0
v 2.5 1 0.866025 0 1 0
v 2.5 1 0.519615 0 1 0
v 1.3 1 1.90526 0 1 0
v 2.5 1 1.21244 0 1 0

vt 0 1
vt 0 0
vt 1 0.5
vt 1 0
vt 1 1
vt 0 0.833333
vt 1 0.333333
vt 0.2 1
vt 1 0.5
vt 0 0.5
vt 0 0.5
vt 0 0.5
vt 1 0.166667
vt 0 0.666667
vt 0.8 0
vt 1 0.833333
vt 0.8 1
vt 0 0.333333
vt 0 0.5
vt 1 0.1
vt 1 0.9
vt 0 0.9
vt 0 0.1
vt 1 0.5
vt 0 0.9
vt 0 0.1
vt 1 0.5
vt 1 0.5
vt 0 0.166667
vt 0.2 0
vt 1 0.666667
vt 0 0.833333

f 1/1 2/2 3/3
f 4/4 5/5 6/1 7/2
f 8/6 9/4 10/7 11/8
f 12/5 13/1 14/2 15/4
f 16/2 17/9 18/1
f 19/4 20/2 21/1 22/5
f 23/4 24/5 25/10
f 26/5 27/4 28/2 29/1
f 30/11 16/4 18/5
f 20/4 31/2 32/1 21/5
f 33/5 34/12 35/4
f 36/2 37/4 38/5 39/1
f 40/13 41/1 42/14 43/15
f 44/1 32/5 31/4 45/2
f 46/2 47/16 48/17 49/18
f 50/5 51/1 52/2 53/4
f 54/5 1/19 3/4
f 5/2 52/4 51/5 6/1
f 9/1 55/2 56/20 57/21
f 58/2 59/1 60/5 61/4
f 62/11 63/4 64/5
f 65/4 66/2 67/1 68/5
f 69/4 46/5 70/22 71/23
f 7/1 72/2 73/4 4/5
f 74/24 33/1 35/2
f 37/2 14/4 13/5 38/1
f 34/1 75/2 35/3
f 76/4 36/5 39/1 77/2
f 63/2 78/9 64/1
f 79/4 65/2 68/1 80/5
f 81/4 82/5 83/11
f 84/5 60/4 59/2 85/1
f 47/4 8/5 86/25 48/26
f 77/1 50/2 53/4 76/5
f 24/27 87/1 25/2
f 88/2 26/4 29/5 89/1
f 90/1 62/2 64/28
f 66/4 73/5 72/1 67/2
f 91/2 23/27 25/1
f 27/4 92/2 93/1 28/5
f 41/5 69/29 94/30 42/31
f 80/1 44/5 45/4 79/2
f 82/28 95/1 83/2
f 15/2 84/4 85/5 12/1
f 55/32 96/4 97/7 56/8
f 89/5 58/1 61/2 88/4
f 96/5 40/29 98/30 99/31
f 22/1 93/5 92/4 19/2