v -0.5 1 -2.94449 1 0 0
v -0.8 1 -2.77128 1 0 0
v -0.5 1 -2.59808 1 0 0
v -0.8 1 -2.77128 0 0 1
v -0.5 1 -2.94449 0 0 1
v -0.5 0 -2.94449 0 0 1
v -0.8 0 -2.77128 0 0 1
v 2.5 1 1.21244 1 0 0
v 2.8 1 1.03923 1 0 0
v 2.5 1 0.866025 1 0 0
v 2.8 1 1.03923 0 0 1
v 2.5 1 1.21244 0 0 1
v 2.5 0 1.21244 0 0 1
v 2.8 0 1.03923 0 0 1
v -0.5 1 2.59808 0 1 0
v -0.5 1 0.866025 0 1 0
v -0.8 1 1.03923 0 1 0
v -0.8 1 2.42487 0 1 0
v -0.8 0 1.03923 0 0 1
v -0.8 0 2.42487 0 0 1
v -0.8 1 2.42487 0 0 1
v -0.8 1 1.03923 0 0 1
v -0.8 1 2.77128 1 0 0
v -0.5 1 2.94449 1 0 0
v -0.5 1 2.59808 1 0 0
v -0.5 1 2.94449 0 0 1
v -0.8 1 2.77128 0 0 1
v -0.8 0 2.77128 0 0 1
v -0.5 0 2.94449 0 0 1
v -2.3 1 -1.90526 1 0 0
v -2.3 1 -1.55885 1 0 0
v -2 1 -1.73205 1 0 0
v -2.3 1 -1.55885 0 0 1
v -2.3 1 -1.90526 0 0 1
v -2.3 0 -1.90526 0 0 1
v -2.3 0 -1.55885 0 0 1
v -2 1 -2.07846 1 0 0
v -2 1 -2.07846 0 0 1
v -2 0 -2.07846 0 0 1
v -0.5 1 -0.866025 0 1 0
v 1 1 0 0 1 0
v 1 1 -0.34641 0 1 0
v -0.2 1 -1.03923 0 1 0
v 1 0 -0.34641 0 0 1
v -0.2 0 -1.03923 0 0 1
v -0.2 1 -1.03923 0 0 1
v 1 1 -0.34641 0 0 1
v 1 1 2.07846 1 0 0
v 1.3 1 1.90526 1 0 0
v 1 1 1.73205 1 0 0
v 1.3 1 1.90526 0 0 1
v 1 1 2.07846 0 0 1
v 1 0 2.07846 0 0 1
v 1.3 0 1.90526 0 0 1
v -0.2 1 2.77128 1 0 0
v -0.2 1 2.77128 0 0 1
v -0.2 0 2.77128 0 0 1
v -0.8 1 2.42487 1 0 0
v 2.5 1 0.866025 0 1 0
v 2.5 1 0.519615 0 1 0
v 1.3 1 -0.173205 0 1 0
v 2.5 0 0.519615 0 0 1
v 1.3 0 -0.173205 0 0 1
v 1.3 1 -0.173205 0 0 1
v 2.5 1 0.519615 0 0 1
v 2.8 1 0.69282 1 0 0
v 2.5 1 0.519615 1 0 0
v 2.8 1 0.69282 0 0 1
v 2.8 0 0.69282 0 0 1
v 1 1 1.73205 0 1 0
v -0.2 1 2.77128 0 1 0
v 1 1 2.07846 0 1 0
v 1.3 1 -0.173205 1 0 0
v 1 1 -0.34641 1 0 0
v 1 1 0 1 0 0
v -2.3 1 0.173205 1 0 0
v -2 1 0.34641 1 0 0
v -2 1 0 1 0 0
v -2 1 0.34641 0 0 1
v -2.3 1 0.173205 0 0 1
v -2.3 0 0.173205 0 0 1
v -2 0 0.34641 0 0 1
v -2.3 1 -0.173205 1 0 0
v -2.3 1 -0.173205 0 0 1
v -2.3 0 -0.173205 0 0 1
v -0.2 1 -2.77128 1 0 0
v -0.2 1 -2.77128 0 0 1
v -0.2 0 -2.77128 0 0 1
v -2 1 0 0 1 0
v -2 1 0.34641 0 1 0
v -0.5 1 -2.59808 0 1 0
v -0.2 1 -2.42487 0 1 0
v -0.2 0 -2.42487 0 0 1
v -0.2 1 -2.42487 0 0 1
v -2 1 -1.73205 0 1 0
v -0.8 1 -2.77128 0 1 0
v -2 1 -2.07846 0 1 0
v -0.2 1 -2.42487 1 0 0
v 1.3 1 1.90526 0 1 0
v 2.5 1 1.21244 0 1 0
v -2.3 1 -1.55885 0 1 0
v -2.3 1 -0.173205 0 1 0

vt 1 1
vt 0 0.5
vt 1 0
vt 0 0
vt 0 1
vt 1 0.5
vt 0 0.9
vt 0 0.1
vt 0 0.5
vt 1 0.5
vt 0 0.5
vt 0 0.833333
vt 1 0.333333
vt 0.2 1
vt 1 0.5
vt 1 0.5
vt 1 0.333333
vt 0 0.166667
vt 0.2 0
vt 1 0.666667
vt 0 0.5
vt 1 0.5
vt 1 0.166667
vt 0 0.666667
vt 0.8 0
vt 1 0.1
vt 1 0.9
vt 1 0.833333
vt 0.8 1
vt 0 0.333333
vt 0 0.5
vt 0 0.166667
vt 1 0.666667
vt 0 0.9
vt 0 0.1

f 1/1 2/2 3/3
f 4/4 5/3 6/1 7/5
f 8/4 9/6 10/5
f 11/3 12/4 13/5 14/1
f 15/3 16/1 17/7 18/8
f 19/5 20/4 21/3 22/1
f 23/9 24/3 25/1
f 26/3 27/4 28/5 29/1
f 30/5 31/4 32/10
f 33/3 34/1 35/5 36/4
f 37/1 30/11 32/3
f 34/4 38/3 39/1 35/5
f 40/12 41/3 42/13 43/14
f 44/1 45/5 46/4 47/3
f 48/4 49/10 50/5
f 51/3 52/4 53/5 54/1
f 24/4 55/15 25/5
f 56/3 26/4 29/5 57/1
f 58/5 23/4 25/16
f 27/3 21/1 20/5 28/4
f 41/12 59/3 60/17 61/14
f 62/1 63/5 64/4 65/3
f 66/6 67/5 10/4
f 65/4 68/3 69/1 62/5
f 70/1 15/18 71/19 72/20
f 57/5 53/1 52/3 56/4
f 73/16 74/5 75/4
f 47/4 64/3 63/1 44/5
f 76/21 77/3 78/1
f 79/3 80/4 81/5 82/1
f 83/5 76/4 78/16
f 80/3 84/1 85/5 81/4
f 86/22 1/5 3/4
f 5/4 87/3 88/1 6/5
f 16/23 89/5 90/24 17/25
f 82/5 19/1 22/3 79/4
f 91/5 40/4 43/26 92/27
f 45/4 93/5 94/1 46/3
f 95/4 91/28 96/29 97/30
f 7/1 39/5 38/4 4/3
f 98/3 86/1 3/21
f 87/1 94/3 93/4 88/5
f 9/3 66/1 10/31
f 68/1 11/3 14/4 69/5
f 59/1 70/32 99/19 100/33
f 54/5 13/1 12/3 51/4
f 89/3 95/1 101/34 102/35
f 36/5 85/4 84/3 33/1