v -1.7 1 -3.63731 1 0 0
v -2 1 -3.81051 1 0 0
v -2 1 -3.4641 1 0 0
v -2 1 -3.81051 0 0 1
v -1.7 1 -3.63731 0 0 1
v -1.7 0 -3.63731 0 0 1
v -2 0 -3.81051 0 0 1
v -2.3 1 1.90526 1 0 0
v -2 1 2.07846 1 0 0
v -2 1 1.73205 1 0 0
v -2 1 2.07846 0 0 1
v -2.3 1 1.90526 0 0 1
v -2.3 0 1.90526 0 0 1
v -2 0 2.07846 0 0 1
v 1.3 1 0.173205 1 0 0
v 1.3 1 -0.173205 1 0 0
v 1 1 0 1 0 0
v 1.3 1 -0.173205 0 0 1
v 1.3 1 0.173205 0 0 1
v 1.3 0 0.173205 0 0 1
v 1.3 0 -0.173205 0 0 1
v 1 1 1.73205 1 0 0
v 1.3 1 1.55885 1 0 0
v 1.3 0 1.55885 0 0 1
v 1.3 1 1.55885 0 0 1
v -0.5 1 0.866025 1 0 0
v -1.7 1 1.90526 1 0 0
v -0.5 1 1.21244 1 0 0
v -1.7 0 1.90526 0 0 1
v -0.5 0 1.21244 0 0 1
v -0.5 1 1.21244 0 0 1
v -1.7 1 1.90526 0 0 1
v -2.3 1 1.55885 1 0 0
v -2.3 1 1.55885 0 0 1
v -2.3 0 1.55885 0 0 1
v -0.2 1 -2.77128 1 0 0
v -0.5 1 -2.94449 1 0 0
v -0.5 1 -2.59808 1 0 0
v -0.5 1 -2.94449 0 0 1
v -0.2 1 -2.77128 0 0 1
v -0.2 0 -2.77128 0 0 1
v -0.5 0 -2.94449 0 0 1
v 0.7 1 1.90526 1 0 0
v 0.7 0 1.90526 0 0 1
v 0.7 1 1.90526 0 0 1
v -0.2 1 -2.42487 1 0 0
v -0.2 1 -2.42487 0 0 1
v -0.2 0 -2.42487 0 0 1
v -2 1 -1.73205 1 0 0
v -2.3 1 -3.2909 1 0 0
v -2.3 1 -1.90526 1 0 0
v -2.3 0 -3.2909 0 0 1
v -2.3 0 -1.90526 0 0 1
v -2.3 1 -1.90526 0 0 1
v -2.3 1 -3.2909 0 0 1
v -2.3 1 -0.173205 1 0 0
v -2.3 1 0.173205 1 0 0
v -2 1 0 1 0 0
v -2.3 1 0.173205 0 0 1
v -2.3 1 -0.173205 0 0 1
v -2.3 0 -0.173205 0 0 1
v -2.3 0 0.173205 0 0 1
v -2.3 1 -3.63731 1 0 0
v -2.3 1 -3.63731 0 0 1
v -2.3 0 -3.63731 0 0 1
v 1 1 2.07846 1 0 0
v 1 1 2.07846 0 0 1
v 1 0 2.07846 0 0 1
v -2.3 1 -1.55885 1 0 0
v -2.3 0 -1.55885 0 0 1
v -2.3 1 -1.55885 0 0 1
v 1.3 1 1.90526 1 0 0
v 1.3 1 1.90526 0 0 1
v 1.3 0 1.90526 0 0 1
v 1 1 -0.34641 1 0 0
v 1 1 -0.34641 0 0 1
v 1 0 -0.34641 0 0 1
v -0.5 1 -0.866025 1 0 0
v -0.2 1 -1.03923 1 0 0
v -0.2 0 -1.03923 0 0 1
v -0.2 1 -1.03923 0 0 1
v 1 1 0 0 1 0
v -0.5 1 0.866025 0 1 0
v 1 1 1.73205 0 1 0
v -0.5 1 -0.866025 0 1 0
v -2 1 1.73205 0 1 0
v -2 1 0 0 1 0
v -2 1 -1.73205 0 1 0
v -0.5 1 -2.59808 0 1 0
v -2 1 -3.4641 0 1 0

f 1 2 3
f 4 5 6 7
f 8 9 10
f 11 12 13 14
f 15 16 17
f 18 19 20 21
f 17 22 23 15
f 24 20 19 25
f 26 10 27 28
f 29 30 31 32
f 33 8 10
f 12 34 35 13
f 36 37 38
f 39 40 41 42
f 22 26 28 43
f 30 44 45 31
f 46 36 38
f 40 47 48 41
f 49 3 50 51
f 52 53 54 55
f 56 57 58
f 59 60 61 62
f 2 63 3
f 64 4 7 65
f 43 66 22
f 67 45 44 68
f 3 38 37 1
f 42 6 5 39
f 58 49 69 56
f 70 61 60 71
f 51 69 49
f 71 54 53 70
f 10 58 57 33
f 62 35 34 59
f 72 23 22
f 25 73 74 24
f 16 75 17
f 76 18 21 77
f 38 78 79 46
f 80 48 47 81
f 66 72 22
f 73 67 68 74
f 9 27 10
f 32 11 14 29
f 78 17 75 79
f 77 80 81 76
f 63 50 3
f 55 64 65 52
f 82 83 84
f 83 82 85
f 86 83 87
f 85 87 83
f 87 85 88
f 89 88 85
f 88 89 90