v 2.5 0 -0.866025 1 0.52549 0.439216
v 1 0 -1.73205 1 0.52549 0.439216
v 2.5 0.6 -0.866025 1 0.52549 0.439216
v 1 0 -1.6e-11 1 0.52549 0.439216
v -0.5 0 -0.866025 1 0.52549 0.439216
v 1 0 -1.73205 1 0.52549 0.439216
v 1 0 -8e-12 1 0.52549 0.439216
v -0.5 0 0.866025 1 0.52549 0.439216
v -0.5 0 -0.866025 1 0.52549 0.439216
v 1 0.6 -1.6e-11 1 0.52549 0.439216
v 1 0.6 -8e-12 1 0.52549 0.439216
v 1 0 8e-12 1 0.52549 0.439216
v 1 0 1.73205 1 0.52549 0.439216
v -0.5 0 0.866025 1 0.52549 0.439216
v 1 0.6 1.73205 1 0.52549 0.439216
v 1 0.6 8e-12 1 0.52549 0.439216

f 1 2 3
f 1 4 2
f 5 6 7
f 8 9 7
f 4 1 3 10
f 2 10 3
f 11 6 5
f 11 9 8
f 12 13 14
f 14 15 16
f 14 13 15
f 13 12 16 15