v 0.0952381 0 -0.274929 0.396078 0.262745 0.129412
v 0.166667 0 -0.151211 0.396078 0.262745 0.129412
v 0.0952381 0 -0.0274929 0.396078 0.262745 0.129412
v -0.047619 0 -0.0274929 0.396078 0.262745 0.129412
v -0.119048 0 -0.151211 0.396078 0.262745 0.129412
v -0.047619 0 -0.274929 0.396078 0.262745 0.129412
v -0.0257497 0.25 -0.23705 0.60404 0.672727 0.741414
v -0.075309 0.25 -0.151211 0.60404 0.672727 0.741414
v 0.0733688 0.25 -0.23705 0.60404 0.672727 0.741414
v 0.122928 0.25 -0.151211 0.60404 0.672727 0.741414
v -0.0257497 0.25 -0.23705 0.60404 0.672727 0.741414
v 0.0733688 0.25 -0.23705 0.60404 0.672727 0.741414
v 0.0733688 0.25 -0.0653717 0.60404 0.672727 0.741414
v -0.0257497 0.25 -0.0653717 0.60404 0.672727 0.741414
v -0.075309 0.25 -0.151211 0.60404 0.672727 0.741414
v -0.0257497 0.25 -0.0653717 0.60404 0.672727 0.741414
v -0.345596 0.25 -0.143718 0.903529 0.793333 0.746667
v -0.202739 0.25 -0.143718 0.903529 0.793333 0.746667
v -0.214286 0.325 -0.123718 0.903529 0.793333 0.746667
v -0.357143 0.325 -0.123718 0.903529 0.793333 0.746667
v -0.119763 0.25 0 0.903529 0.793333 0.746667
v -0.142857 0.325 0 0.903529 0.793333 0.746667
v -0.191192 0.25 0.123718 0.903529 0.793333 0.746667
v -0.214286 0.325 0.123718 0.903529 0.793333 0.746667
v -0.13131 0.25 0.227436 0.903529 0.793333 0.746667
v -0.142857 0.325 0.247436 0.903529 0.793333 0.746667
v -0.011547 0.25 0.227436 0.903529 0.793333 0.746667
v 0 0.325 0.247436 0.903529 0.793333 0.746667
v 0.0598816 0.25 0.103718 0.903529 0.793333 0.746667
v 0.0714286 0.325 0.123718 0.903529 0.793333 0.746667
v 0.225833 0.25 0.103718 0.903529 0.793333 0.746667
v 0.214286 0.325 0.123718 0.903529 0.793333 0.746667
v 0.297261 0.25 0.227436 0.903529 0.793333 0.746667
v 0.285714 0.325 0.247436 0.903529 0.793333 0.746667
v 0.417024 0.25 0.227436 0.903529 0.793333 0.746667
v 0.428571 0.325 0.247436 0.903529 0.793333 0.746667
v 0.476906 0.25 0.123718 0.903529 0.793333 0.746667
v 0.5 0.325 0.123718 0.903529 0.793333 0.746667
v 0.405477 0.25 0 0.903529 0.793333 0.746667
v 0.428571 0.325 0 0.903529 0.793333 0.746667
v 0.476906 0.25 -0.123718 0.903529 0.793333 0.746667
v 0.5 0.325 -0.123718 0.903529 0.793333 0.746667
v 0.417024 0.25 -0.227436 0.903529 0.793333 0.746667
v 0.428571 0.325 -0.247436 0.903529 0.793333 0.746667
v 0.274167 0.25 -0.227436 0.903529 0.793333 0.746667
v 0.285714 0.325 -0.247436 0.903529 0.793333 0.746667
v 0.202739 0.25 -0.351154 0.903529 0.793333 0.746667
v 0.214286 0.325 -0.371154 0.903529 0.793333 0.746667
v 0.0598816 0.25 -0.351154 0.903529 0.793333 0.746667
v 0.0714286 0.325 -0.371154 0.903529 0.793333 0.746667
v -0.011547 0.25 -0.474872 0.903529 0.793333 0.746667
v 0 0.325 -0.494872 0.903529 0.793333 0.746667
v -0.154404 0.25 -0.474872 0.903529 0.793333 0.746667
v -0.142857 0.325 -0.494872 0.903529 0.793333 0.746667
v -0.225833 0.25 -0.59859 0.903529 0.793333 0.746667
v -0.214286 0.325 -0.61859 0.903529 0.793333 0.746667
v -0.345596 0.25 -0.59859 0.903529 0.793333 0.746667
v -0.357143 0.325 -0.61859 0.903529 0.793333 0.746667
v -0.405477 0.25 -0.494872 0.903529 0.793333 0.746667
v -0.428571 0.325 -0.494872 0.903529 0.793333 0.746667
v -0.334049 0.25 -0.371154 0.903529 0.793333 0.746667
v -0.357143 0.325 -0.371154 0.903529 0.793333 0.746667
v -0.405477 0.25 -0.247436 0.903529 0.793333 0.746667
v -0.428571 0.325 -0.247436 0.903529 0.793333 0.746667
v 0.183494 0.475 -0.31782 0.718431 0.662353 0.655686
v 0.0406366 0.475 -0.31782 0.718431 0.662353 0.655686
v -0.245078 0.475 -0.565256 0.718431 0.662353 0.655686
v -0.173649 0.475 -0.441538 0.718431 0.662353 0.655686
v -0.030792 0.475 -0.441538 0.718431 0.662353 0.655686
v 0.0406366 0.475 -0.31782 0.718431 0.662353 0.655686
v -0.0812731 0.475 0 0.718431 0.662353 0.655686
v -0.152702 0.475 0.123718 0.718431 0.662353 0.655686
v -0.152702 0.475 0.123718 0.718431 0.662353 0.655686
v -0.112065 0.475 0.194102 0.718431 0.662353 0.655686
v -0.183494 0.475 -0.177051 0.718431 0.662353 0.655686
v -0.326351 0.475 -0.177051 0.718431 0.662353 0.655686
v -0.326351 0.475 -0.565256 0.718431 0.662353 0.655686
v -0.245078 0.475 -0.565256 0.718431 0.662353 0.655686
v -0.366987 0.475 -0.494872 0.718431 0.662353 0.655686
v -0.326351 0.475 -0.565256 0.718431 0.662353 0.655686
v -0.295559 0.475 -0.371154 0.718431 0.662353 0.655686
v -0.366987 0.475 -0.494872 0.718431 0.662353 0.655686
v -0.295559 0.475 -0.371154 0.718431 0.662353 0.655686
v -0.366987 0.475 -0.247436 0.718431 0.662353 0.655686
v -0.366987 0.475 -0.247436 0.718431 0.662353 0.655686
v -0.326351 0.475 -0.177051 0.718431 0.662353 0.655686
v 0.245078 0.475 0.0703846 0.718431 0.662353 0.655686
v 0.0406366 0.475 0.0703846 0.718431 0.662353 0.655686
v 0.438416 0.475 0.123718 0.718431 0.662353 0.655686
v 0.366987 0.475 0 0.718431 0.662353 0.655686
v 0.366987 0.475 0 0.718431 0.662353 0.655686
v 0.438416 0.475 -0.123718 0.718431 0.662353 0.655686
v 0.438416 0.475 -0.123718 0.718431 0.662353 0.655686
v 0.397779 0.475 -0.194102 0.718431 0.662353 0.655686
v 0.397779 0.475 -0.194102 0.718431 0.662353 0.655686
v 0.254922 0.475 -0.194102 0.718431 0.662353 0.655686
v 0.254922 0.475 -0.194102 0.718431 0.662353 0.655686
v 0.183494 0.475 -0.31782 0.718431 0.662353 0.655686
v -0.030792 0.475 0.194102 0.718431 0.662353 0.655686
v -0.112065 0.475 0.194102 0.718431 0.662353 0.655686
v -0.030792 0.475 0.194102 0.718431 0.662353 0.655686
v 0.316506 0.475 0.194102 0.718431 0.662353 0.655686
v 0.245078 0.475 0.0703846 0.718431 0.662353 0.655686
v 0.316506 0.475 0.194102 0.718431 0.662353 0.655686
v 0.397779 0.475 0.194102 0.718431 0.662353 0.655686
v 0.397779 0.475 0.194102 0.718431 0.662353 0.655686
v 0.438416 0.475 0.123718 0.718431 0.662353 0.655686
v -0.046188 1 0.167436 0.0705882 0.203922 0.337255
v 0.0252405 1 0.0437179 0.0705882 0.203922 0.337255
v -0.0504811 1 0 0.0705882 0.203922 0.337255
v -0.12191 1 0.123718 0.0705882 0.203922 0.337255
v -0.0966691 1 0.167436 0.0705882 0.203922 0.337255
v 0.407624 1 0.123718 0.0705882 0.203922 0.337255
v 0.336195 1 0 0.0705882 0.203922 0.337255
v 0.260474 1 0.0437179 0.0705882 0.203922 0.337255
v 0.331902 1 0.167436 0.0705882 0.203922 0.337255
v 0.382383 1 0.167436 0.0705882 0.203922 0.337255
v 0.382383 1 -0.167436 0.0705882 0.203922 0.337255
v 0.239526 1 -0.167436 0.0705882 0.203922 0.337255
v 0.407624 1 -0.123718 0.0705882 0.203922 0.337255
v 0.0252405 1 -0.291154 0.0705882 0.203922 0.337255
v 0.168098 1 -0.291154 0.0705882 0.203922 0.337255
v -0.046188 1 -0.414872 0.0705882 0.203922 0.337255
v -0.189045 1 -0.414872 0.0705882 0.203922 0.337255
v -0.336195 1 -0.494872 0.0705882 0.203922 0.337255
v -0.264767 1 -0.371154 0.0705882 0.203922 0.337255
v -0.260474 1 -0.53859 0.0705882 0.203922 0.337255
v -0.310955 1 -0.53859 0.0705882 0.203922 0.337255
v -0.336195 1 -0.247436 0.0705882 0.203922 0.337255
v -0.310955 1 -0.203718 0.0705882 0.203922 0.337255
v -0.168098 1 -0.203718 0.0705882 0.203922 0.337255
v 0.308808 0.775 0.207436 0.348235 0.400392 0.473725
v 0.315736 0.73 0.195436 0.403765 0.439686 0.50102
v 0.398549 0.73 0.195436 0.403765 0.439686 0.50102
v 0.405477 0.775 0.207436 0.348235 0.400392 0.473725
v 0.382383 0.775 0 0.348235 0.400392 0.473725
v 0.453812 0.775 -0.123718 0.348235 0.400392 0.473725
v 0.368527 0.73 0 0.403765 0.439686 0.50102
v 0.439956 0.73 -0.123718 0.403765 0.439686 0.50102
v 0.0483346 0.775 0.0837179 0.348235 0.400392 0.473725
v 0.23738 0.775 0.0837179 0.348235 0.400392 0.473725
v 0.0414064 0.73 0.0717179 0.403765 0.439686 0.50102
v 0.244308 0.73 0.0717179 0.403765 0.439686 0.50102
v 0.405477 0.775 -0.207436 0.348235 0.400392 0.473725
v 0.26262 0.775 -0.207436 0.348235 0.400392 0.473725
v 0.439956 0.73 -0.123718 0.403765 0.439686 0.50102
v 0.398549 0.73 -0.195436 0.403765 0.439686 0.50102
v 0.398549 0.73 -0.195436 0.403765 0.439686 0.50102
v 0.255692 0.73 -0.195436 0.403765 0.439686 0.50102
v 0.453812 0.775 0.123718 0.348235 0.400392 0.473725
v 0.439956 0.73 0.123718 0.403765 0.439686 0.50102
v 0.368527 0.73 0 0.403765 0.439686 0.50102
v 0.439956 0.73 0.123718 0.403765 0.439686 0.50102
v 0.398549 0.73 0.195436 0.403765 0.439686 0.50102
v 0.244308 0.73 0.0717179 0.403765 0.439686 0.50102
v 0.315736 0.73 0.195436 0.403765 0.439686 0.50102
v -0.168098 0.775 0.123718 0.348235 0.400392 0.473725
v -0.154241 0.73 0.123718 0.403765 0.439686 0.50102
v -0.112835 0.73 0.195436 0.403765 0.439686 0.50102
v -0.119763 0.775 0.207436 0.348235 0.400392 0.473725
v -0.0966691 0.775 0 0.348235 0.400392 0.473725
v -0.023094 0.775 0.207436 0.348235 0.400392 0.473725
v -0.0828127 0.73 0 0.403765 0.439686 0.50102
v -0.154241 0.73 0.123718 0.403765 0.439686 0.50102
v -0.0300222 0.73 0.195436 0.403765 0.439686 0.50102
v 0.0414064 0.73 0.0717179 0.403765 0.439686 0.50102
v 0.191192 0.775 -0.331154 0.348235 0.400392 0.473725
v 0.0483346 0.775 -0.331154 0.348235 0.400392 0.473725
v 0.255692 0.73 -0.195436 0.403765 0.439686 0.50102
v 0.184264 0.73 -0.319154 0.403765 0.439686 0.50102
v 0.184264 0.73 -0.319154 0.403765 0.439686 0.50102
v 0.0414064 0.73 -0.319154 0.403765 0.439686 0.50102
v -0.334049 0.775 -0.163718 0.348235 0.400392 0.473725
v -0.327121 0.73 -0.175718 0.403765 0.439686 0.50102
v -0.184264 0.73 -0.175718 0.403765 0.439686 0.50102
v -0.191192 0.775 -0.163718 0.348235 0.400392 0.473725
v -0.184264 0.73 -0.175718 0.403765 0.439686 0.50102
v -0.382383 0.775 -0.247436 0.348235 0.400392 0.473725
v -0.368527 0.73 -0.247436 0.403765 0.439686 0.50102
v -0.327121 0.73 -0.175718 0.403765 0.439686 0.50102
v -0.23738 0.775 -0.57859 0.348235 0.400392 0.473725
v -0.244308 0.73 -0.56659 0.403765 0.439686 0.50102
v -0.327121 0.73 -0.56659 0.403765 0.439686 0.50102
v -0.334049 0.775 -0.57859 0.348235 0.400392 0.473725
v -0.310955 0.775 -0.371154 0.348235 0.400392 0.473725
v -0.297098 0.73 -0.371154 0.403765 0.439686 0.50102
v -0.368527 0.73 -0.247436 0.403765 0.439686 0.50102
v -0.368527 0.73 -0.494872 0.403765 0.439686 0.50102
v -0.382383 0.775 -0.494872 0.348235 0.400392 0.473725
v -0.327121 0.73 -0.56659 0.403765 0.439686 0.50102
v -0.023094 0.775 -0.454872 0.348235 0.400392 0.473725
v 0.0414064 0.73 -0.319154 0.403765 0.439686 0.50102
v -0.0300222 0.73 -0.442872 0.403765 0.439686 0.50102
v -0.165951 0.775 -0.454872 0.348235 0.400392 0.473725
v -0.368527 0.73 -0.494872 0.403765 0.439686 0.50102
v -0.297098 0.73 -0.371154 0.403765 0.439686 0.50102
v -0.172879 0.73 -0.442872 0.403765 0.439686 0.50102
v -0.0300222 0.73 -0.442872 0.403765 0.439686 0.50102
v -0.172879 0.73 -0.442872 0.403765 0.439686 0.50102
v -0.244308 0.73 -0.56659 0.403765 0.439686 0.50102
v 0.405477 0.475 0.207436 0.718431 0.662353 0.655686
v 0.308808 0.475 0.207436 0.718431 0.662353 0.655686
v 0.30111 0.475 0.194102 0.718431 0.662353 0.655686
v 0.413175 0.475 0.194102 0.718431 0.662353 0.655686
v 0.417024 0.55 0.227436 0.625882 0.596863 0.610196
v 0.297261 0.55 0.227436 0.625882 0.596863 0.610196
v 0.398549 0.73 0.195436 0.403765 0.439686 0.50102
v 0.315736 0.73 0.195436 0.403765 0.439686 0.50102
v 0.397779 0.475 -0.194102 0.718431 0.662353 0.655686
v 0.413175 0.475 -0.194102 0.718431 0.662353 0.655686
v 0.446114 0.475 -0.137051 0.718431 0.662353 0.655686
v 0.438416 0.475 -0.123718 0.718431 0.662353 0.655686
v 0.453812 0.475 -0.123718 0.718431 0.662353 0.655686
v 0.382383 0.475 0 0.718431 0.662353 0.655686
v 0.374685 0.475 -0.0133333 0.718431 0.662353 0.655686
v 0.476906 0.55 -0.123718 0.625882 0.596863 0.610196
v 0.405477 0.55 0 0.625882 0.596863 0.610196
v 0.244308 0.73 0.0717179 0.403765 0.439686 0.50102
v 0.225833 0.55 0.103718 0.625882 0.596863 0.610196
v 0.315736 0.73 0.195436 0.403765 0.439686 0.50102
v 0.0483346 0.475 0.0837179 0.718431 0.662353 0.655686
v 0.23738 0.475 0.0837179 0.718431 0.662353 0.655686
v 0.0598816 0.55 0.103718 0.625882 0.596863 0.610196
v 0.417024 0.55 -0.227436 0.625882 0.596863 0.610196
v 0.398549 0.73 -0.195436 0.403765 0.439686 0.50102
v 0.439956 0.73 -0.123718 0.403765 0.439686 0.50102
v 0.274167 0.55 -0.227436 0.625882 0.596863 0.610196
v 0.255692 0.73 -0.195436 0.403765 0.439686 0.50102
v 0.398549 0.73 -0.195436 0.403765 0.439686 0.50102
v 0.439956 0.73 -0.123718 0.403765 0.439686 0.50102
v 0.368527 0.73 0 0.403765 0.439686 0.50102
v 0.254922 0.475 -0.194102 0.718431 0.662353 0.655686
v 0.26262 0.475 -0.207436 0.718431 0.662353 0.655686
v 0.405477 0.475 -0.207436 0.718431 0.662353 0.655686
v 0.19889 0.475 -0.31782 0.718431 0.662353 0.655686
v 0.183494 0.475 -0.31782 0.718431 0.662353 0.655686
v 0.476906 0.55 0.123718 0.625882 0.596863 0.610196
v 0.439956 0.73 0.123718 0.403765 0.439686 0.50102
v 0.398549 0.73 0.195436 0.403765 0.439686 0.50102
v 0.368527 0.73 0 0.403765 0.439686 0.50102
v 0.439956 0.73 0.123718 0.403765 0.439686 0.50102
v 0.446114 0.475 0.110385 0.718431 0.662353 0.655686
v 0.438416 0.475 0.123718 0.718431 0.662353 0.655686
v 0.366987 0.475 0 0.718431 0.662353 0.655686
v 0.453812 0.475 0.123718 0.718431 0.662353 0.655686
v 0.397779 0.475 0.194102 0.718431 0.662353 0.655686
v -0.104367 0.475 0.207436 0.718431 0.662353 0.655686
v -0.119763 0.475 0.207436 0.718431 0.662353 0.655686
v -0.168098 0.475 0.123718 0.718431 0.662353 0.655686
v -0.1604 0.475 0.110385 0.718431 0.662353 0.655686
v -0.13131 0.55 0.227436 0.625882 0.596863 0.610196
v -0.191192 0.55 0.123718 0.625882 0.596863 0.610196
v -0.112835 0.73 0.195436 0.403765 0.439686 0.50102
v -0.154241 0.73 0.123718 0.403765 0.439686 0.50102
v 0.0414064 0.73 0.0717179 0.403765 0.439686 0.50102
v -0.0300222 0.73 0.195436 0.403765 0.439686 0.50102
v -0.011547 0.55 0.227436 0.625882 0.596863 0.610196
v -0.0300222 0.73 0.195436 0.403765 0.439686 0.50102
v -0.112835 0.73 0.195436 0.403765 0.439686 0.50102
v -0.0828127 0.73 0 0.403765 0.439686 0.50102
v -0.119763 0.55 0 0.625882 0.596863 0.610196
v -0.154241 0.73 0.123718 0.403765 0.439686 0.50102
v -0.0966691 0.475 0 0.718431 0.662353 0.655686
v 0.0406366 0.475 0.0703846 0.718431 0.662353 0.655686
v -0.023094 0.475 0.207436 0.718431 0.662353 0.655686
v -0.03849 0.475 0.207436 0.718431 0.662353 0.655686
v 0.245078 0.475 0.0703846 0.718431 0.662353 0.655686
v 0.316506 0.475 0.194102 0.718431 0.662353 0.655686
v -0.030792 0.475 0.194102 0.718431 0.662353 0.655686
v -0.112065 0.475 0.194102 0.718431 0.662353 0.655686
v 0.202739 0.55 -0.351154 0.625882 0.596863 0.610196
v 0.184264 0.73 -0.319154 0.403765 0.439686 0.50102
v 0.255692 0.73 -0.195436 0.403765 0.439686 0.50102
v 0.0598816 0.55 -0.351154 0.625882 0.596863 0.610196
v 0.0414064 0.73 -0.319154 0.403765 0.439686 0.50102
v 0.184264 0.73 -0.319154 0.403765 0.439686 0.50102
v 0.191192 0.475 -0.331154 0.718431 0.662353 0.655686
v 0.0483346 0.475 -0.331154 0.718431 0.662353 0.655686
v -0.334049 0.475 -0.57859 0.718431 0.662353 0.655686
v -0.23738 0.475 -0.57859 0.718431 0.662353 0.655686
v -0.229682 0.475 -0.565256 0.718431 0.662353 0.655686
v -0.341747 0.475 -0.565256 0.718431 0.662353 0.655686
v -0.345596 0.55 -0.59859 0.625882 0.596863 0.610196
v -0.225833 0.55 -0.59859 0.625882 0.596863 0.610196
v -0.244308 0.73 -0.56659 0.403765 0.439686 0.50102
v -0.382383 0.475 -0.247436 0.718431 0.662353 0.655686
v -0.374685 0.475 -0.260769 0.718431 0.662353 0.655686
v -0.326351 0.475 -0.177051 0.718431 0.662353 0.655686
v -0.341747 0.475 -0.177051 0.718431 0.662353 0.655686
v 0.0406366 0.475 -0.31782 0.718431 0.662353 0.655686
v -0.030792 0.475 -0.441538 0.718431 0.662353 0.655686
v -0.015396 0.475 -0.441538 0.718431 0.662353 0.655686
v -0.334049 0.55 -0.371154 0.625882 0.596863 0.610196
v -0.310955 0.475 -0.371154 0.718431 0.662353 0.655686
v -0.405477 0.55 -0.247436 0.625882 0.596863 0.610196
v -0.382383 0.475 -0.494872 0.718431 0.662353 0.655686
v -0.326351 0.475 -0.565256 0.718431 0.662353 0.655686
v -0.374685 0.475 -0.481538 0.718431 0.662353 0.655686
v -0.405477 0.55 -0.494872 0.625882 0.596863 0.610196
v -0.368527 0.73 -0.494872 0.403765 0.439686 0.50102
v -0.327121 0.73 -0.56659 0.403765 0.439686 0.50102
v -0.023094 0.475 -0.454872 0.718431 0.662353 0.655686
v -0.011547 0.55 -0.474872 0.625882 0.596863 0.610196
v -0.0300222 0.73 -0.442872 0.403765 0.439686 0.50102
v 0.0414064 0.73 -0.319154 0.403765 0.439686 0.50102
v -0.154404 0.55 -0.474872 0.625882 0.596863 0.610196
v -0.172879 0.73 -0.442872 0.403765 0.439686 0.50102
v -0.297098 0.73 -0.371154 0.403765 0.439686 0.50102
v -0.368527 0.73 -0.494872 0.403765 0.439686 0.50102
v -0.172879 0.73 -0.442872 0.403765 0.439686 0.50102
v -0.295559 0.475 -0.371154 0.718431 0.662353 0.655686
v -0.366987 0.475 -0.494872 0.718431 0.662353 0.655686
v -0.366987 0.475 -0.247436 0.718431 0.662353 0.655686
v -0.165951 0.475 -0.454872 0.718431 0.662353 0.655686
v -0.173649 0.475 -0.441538 0.718431 0.662353 0.655686
v -0.245078 0.475 -0.565256 0.718431 0.662353 0.655686
v -0.19889 0.475 -0.177051 0.718431 0.662353 0.655686
v -0.191192 0.475 -0.163718 0.718431 0.662353 0.655686
v -0.334049 0.475 -0.163718 0.718431 0.662353 0.655686
v -0.0812731 0.475 0 0.718431 0.662353 0.655686
v -0.19889 0.475 -0.177051 0.718431 0.662353 0.655686
v -0.183494 0.475 -0.177051 0.718431 0.662353 0.655686
v -0.152702 0.475 0.123718 0.718431 0.662353 0.655686
v -0.202739 0.55 -0.143718 0.625882 0.596863 0.610196
v -0.345596 0.55 -0.143718 0.625882 0.596863 0.610196
v -0.327121 0.73 -0.175718 0.403765 0.439686 0.50102
v -0.368527 0.73 -0.247436 0.403765 0.439686 0.50102
v -0.184264 0.73 -0.175718 0.403765 0.439686 0.50102
v -0.327121 0.73 -0.175718 0.403765 0.439686 0.50102
v -0.0828127 0.73 0 0.403765 0.439686 0.50102
v -0.368527 0.73 -0.247436 0.403765 0.439686 0.50102
v -0.297098 0.73 -0.371154 0.403765 0.439686 0.50102
v 0.268617 0.25 -0.23705 0.903529 0.793333 0.746667
v -0.399481 0.25 -0.23705 0.903529 0.793333 0.746667
v -0.0956837 0.25 0.227436 0.903529 0.793333 0.746667
v 0.172487 0.25 -0.23705 0.903529 0.793333 0.746667
v 0.122928 0.25 -0.151211 0.903529 0.793333 0.746667
v 0.0733688 0.25 -0.23705 0.903529 0.793333 0.746667
v -0.157505 0.25 -0.0653717 0.903529 0.793333 0.746667
v 0.0733688 0.25 -0.0653717 0.903529 0.793333 0.746667
v -0.256624 0.25 -0.23705 0.903529 0.793333 0.746667
v -0.256624 0.25 -0.23705 0.903529 0.793333 0.746667
v -0.0257497 0.25 -0.23705 0.903529 0.793333 0.746667
v -0.124868 0.25 -0.0653717 0.903529 0.793333 0.746667
v -0.183494 0.475 -0.177051 0.718431 0.662353 0.655686
v -0.0812731 0.475 0 0.718431 0.662353 0.655686
v -0.075309 0.25 -0.151211 0.903529 0.793333 0.746667
v -0.0257497 0.25 -0.0653717 0.903529 0.793333 0.746667

vt 0.75 1
vt 1 0.5
vt 0.75 0
vt 0.25 0
vt 0 0.5
vt 0.25 1
vt 0 0.757576
vt 0 0
vt 0.166667 0
vt 0.166667 0.757576
vt 0.666667 0
vt 0.833333 0
vt 0.833333 0.757576
vt 0.666667 0.757576
vt 1 0
vt 1 0.757576
vt 0.833333 0.757576
vt 0.5 0.757576
vt 0.5 0
vt 0.666667 0.757576
vt 0.333333 0.757576
vt 0.333333 0
vt 0.5 0.757576
vt 0.0434215 0
vt 0.0416667 0.5
vt 0.0938625 0
vt 0.0833333 0.5
vt 0.137284 0
vt 0.125 0.5
vt 0.173686 0
vt 0.166667 0.5
vt 0.210088 0
vt 0.208333 0.5
vt 0.25351 0
vt 0.25 0.5
vt 0.303951 0
vt 0.291667 0.5
vt 0.347372 0
vt 0.333333 0.5
vt 0.383774 0
vt 0.375 0.5
vt 0.420176 0
vt 0.416667 0.5
vt 0.463598 0
vt 0.458333 0.5
vt 0.507019 0
vt 0.5 0.5
vt 0.543422 0
vt 0.541667 0.5
vt 0.586843 0
vt 0.583333 0.5
vt 0.630265 0
vt 0.625 0.5
vt 0.673686 0
vt 0.666667 0.5
vt 0.717108 0
vt 0.708333 0.5
vt 0.760529 0
vt 0.75 0.5
vt 0.803951 0
vt 0.791667 0.5
vt 0.840353 0
vt 0.833333 0.5
vt 0.876755 0
vt 0.875 0.5
vt 0.920176 0
vt 0.916667 0.5
vt 0.963598 0
vt 0.958333 0.5
vt 1 0
vt 1 0.5
vt 0.641069 0.833333
vt 0.688092 0.833333
vt 0.829162 0.833333
vt 0.782138 0.833333
vt 0.735115 0.833333
vt 0.735115 0.833333
vt 0.782138 0.833333
vt 0.115472 0.833333
vt 0.162495 0.833333
vt 0.188092 0.833333
vt 0.0470231 0.833333
vt 0 0.833333
vt 0.854759 0.833333
vt 0.880356 0.833333
vt 0.854759 0.833333
vt 0.927379 0.833333
vt 0.880356 0.833333
vt 0.974403 0.833333
vt 1 0.833333
vt 0.329162 0.833333
vt 0.260713 0.833333
vt 0.427379 0.833333
vt 0.474403 0.833333
vt 0.521426 0.833333
vt 0.547023 0.833333
vt 0.594046 0.833333
vt 0.21369 0.833333
vt 0.21369 0.833333
vt 0.376185 0.833333
vt 0.401782 0.833333
vt 0.38989 0
vt 0.485919 0.175232
vt 0.384118 0.237153
vt 0.288088 0.0619212
vt 0.322022 0
vt 1 0.0619212
vt 0.903971 0.237153
vt 0.802169 0.175232
vt 0.898199 0
vt 0.966066 0
vt 0.966066 0.474305
vt 0.774007 0.474305
vt 1 0.412384
vt 0.485919 0.649537
vt 0.677978 0.649537
vt 0.38989 0.824768
vt 0.197831 0.824768
vt 0 0.938079
vt 0.0960295 0.762847
vt 0.101801 1
vt 0.0339337 1
vt 0 0.587616
vt 0.0339337 0.525695
vt 0.225993 0.525695
vt 0.362646 0.5
vt 0.372653 0.2
vt 0.399575 0.2
vt 0.39332 0.5
vt 0.415173 1
vt 0.39761 1
vt 0.469325 0.5
vt 0.514656 0.5
vt 0.532138 1
vt 0.482437 1
vt 0.473078 0.2
vt 0.51966 0.2
vt 0.257328 0.5
vt 0.317315 0.5
vt 0.347909 1
vt 0.266069 1
vt 0.25983 0.2
vt 0.326071 0.2
vt 0.545331 0.5
vt 0.549701 1
vt 0.590661 0.5
vt 0.599403 1
vt 0.51966 0.2
vt 0.546582 0.2
vt 0.546582 0.2
vt 0.593163 0.2
vt 0.423995 0.5
vt 0.432736 1
vt 0.426496 0.2
vt 0.473078 0.2
vt 0.426496 0.2
vt 0.399575 0.2
vt 0.326071 0.2
vt 0.372653 0.2
vt 0.150648 0.5
vt 0.159404 0.2
vt 0.186326 0.2
vt 0.181323 0.5
vt 0.198805 1
vt 0.181242 1
vt 0.131541 1
vt 0.105318 0.5
vt 0.211997 0.5
vt 0.216368 1
vt 0.112823 0.2
vt 0.159404 0.2
vt 0.213248 0.2
vt 0.25983 0.2
vt 0.635992 0.5
vt 0.649104 1
vt 0.681323 0.5
vt 0.698805 1
vt 0.593163 0.2
vt 0.639745 0.2
vt 0.639745 0.2
vt 0.686326 0.2
vt 0 0.2
vt 0.0465816 0.2
vt 0.0453307 0.5
vt 0.0465816 0.2
vt 1 0.5
vt 0.969325 0.5
vt 0.973078 0.2
vt 1 0.2
vt 0.0497013 1
vt 0 1
vt 1 1
vt 0.982437 1
vt 0.817315 0.5
vt 0.826071 0.2
vt 0.852993 0.2
vt 0.847989 0.5
vt 0.865472 1
vt 0.847909 1
vt 0.932736 1
vt 0.923995 0.5
vt 0.926496 0.2
vt 0.973078 0.2
vt 0.879915 0.2
vt 0.878664 0.5
vt 0.852993 0.2
vt 0.883035 1
vt 0.726654 0.5
vt 0.686326 0.2
vt 0.732908 0.2
vt 0.748506 1
vt 0.771984 0.5
vt 0.798208 1
vt 0.879915 0.2
vt 0.926496 0.2
vt 0.779489 0.2
vt 0.732908 0.2
vt 0.779489 0.2
vt 0.826071 0.2
vt 0.942197 0
vt 0.826591 0
vt 0.817385 0.016963
vt 0.951403 0.016963
vt 0.362646 0
vt 0.39332 0
vt 0.383774 0.5
vt 0.347372 0.5
vt 0.39975 0.9
vt 0.372934 0.9
vt 0.932991 0.510846
vt 0.951403 0.510846
vt 0.990794 0.438265
vt 0.981588 0.421302
vt 1 0.421302
vt 0.914579 0.263905
vt 0.905373 0.280868
vt 0.469325 0
vt 0.514656 0
vt 0.507019 0.5
vt 0.463598 0.5
vt 0.326317 0.9
vt 0.303951 0.5
vt 0.372934 0.9
vt 0.257328 0
vt 0.317315 0
vt 0.25351 0.5
vt 0.543422 0.5
vt 0.546617 0.9
vt 0.5198 0.9
vt 0.586843 0.5
vt 0.593233 0.9
vt 0.546617 0.9
vt 0.5198 0.9
vt 0.473183 0.9
vt 0.762149 0.510846
vt 0.771355 0.527809
vt 0.942197 0.527809
vt 0.69514 0.668243
vt 0.676728 0.668243
vt 0.545331 0
vt 0.590661 0
vt 0.420176 0.5
vt 0.426567 0.9
vt 0.39975 0.9
vt 0.473183 0.9
vt 0.426567 0.9
vt 0.990794 0.123471
vt 0.981588 0.106508
vt 0.896167 0.263905
vt 0.905373 0.280868
vt 0.423995 0
vt 0.932991 0.016963
vt 1 0.106508
vt 0.332478 0
vt 0.314066 0
vt 0.256263 0.106508
vt 0.265469 0.123471
vt 0.150648 0
vt 0.181323 0
vt 0.173686 0.5
vt 0.137284 0.5
vt 0.186467 0.9
vt 0.15965 0.9
vt 0.2599 0.9
vt 0.326317 0.9
vt 0.2599 0.9
vt 0.213283 0.9
vt 0.210088 0.5
vt 0.213283 0.9
vt 0.186467 0.9
vt 0.113034 0.9
vt 0.0938625 0.5
vt 0.15965 0.9
vt 0.105318 0
vt 0.505887 0.17436
vt 0.515092 0.157397
vt 0.429672 0
vt 0.41126 0
vt 0.74117 0.157397
vt 0.750376 0.17436
vt 0.835797 0.016963
vt 0.211997 0
vt 0.420466 0.016963
vt 0.323272 0.016963
vt 0.630265 0.5
vt 0.63985 0.9
vt 0.593233 0.9
vt 0.673686 0.5
vt 0.686467 0.9
vt 0.63985 0.9
vt 0.635992 0
vt 0.681323 0
vt 0.057803 1
vt 0.173409 1
vt 0.182615 0.983037
vt 0.048597 0.983037
vt 0.817315 0
vt 0.847989 0
vt 0.840353 0.5
vt 0.803951 0.5
vt 0.826317 0.9
vt 0.853133 0.9
vt 0 0.578698
vt 0.00920599 0.595661
vt 0.0670089 0.489154
vt 0.048597 0.489154
vt 0.515092 0.685206
vt 0.505887 0.668243
vt 0.420466 0.82564
vt 0.438878 0.82564
vt 0.685934 0.685206
vt 0.920176 0.5
vt 0.923995 0
vt 0.969325 0
vt 0.963598 0.5
vt 0 0.893492
vt 0.0670089 0.983037
vt 0.00920599 0.876529
vt 0.878664 0
vt 0.876755 0.5
vt 0.87995 0.9
vt 0.853133 0.9
vt 0.726654 0
vt 0.717108 0.5
vt 0.733083 0.9
vt 0.686467 0.9
vt 0.760529 0.5
vt 0.7797 0.9
vt 0.926567 0.9
vt 0.87995 0.9
vt 0.7797 0.9
vt 0.826317 0.9
vt 0.103833 0.736095
vt 0.0854209 0.736095
vt 0.018412 0.893492
vt 0.018412 0.578698
vt 0.25883 0.842603
vt 0.249624 0.82564
vt 0.164203 0.983037
vt 0.429672 0.842603
vt 0.771984 0
vt 0.219439 0.489154
vt 0.228645 0.472191
vt 0.057803 0.472191
vt 0.360096 0.263905
vt 0.341684 0.263905
vt 0.219439 0.489154
vt 0.237851 0.489154
vt 0.274675 0.106508
vt 0.0453307 0
vt 0.0434215 0.5
vt 1 0.9
vt 0.973183 0.9
vt 0.0466167 0.9
vt 0 0.9
vt 0.113034 0.9
vt 0.973183 0.9
vt 0.926567 0.9
vt 0.527389 0.70045
vt 0.689288 0.70045
vt 0.763947 0.562314
vt 0 0.574887
vt 0.0809496 0.724662
vt 0.00679559 0.562314
vt 0.28454 0.850225
vt 0 0.874437
vt 0.0678634 1
vt 0.20359 1
vt 0.446439 0.850225
vt 0.91905 0.275338
vt 0.770237 0.550675
vt 0.932137 0.550675
vt 1 0.425113
vt 0.79641 0
vt 0.71546 0.149775
vt 1 0.125563
vt 0.932137 0
vt 0.527389 0.149775
vt 0.446439 0
vt 0.351087 0
vt 0.655004 0.562314
vt 0.598839 0.458396
vt 0.542674 0.562314
vt 0.323798 0.275338
vt 0.281025 0.354478
vt 0.542674 0.354478
vt 0.310712 0
vt 0.242849 0.125563
vt 0.168695 0.562314
vt 0.229763 0.449325
vt 0.0678634 0.449325
vt 0.168695 0.562314
vt 0.430343 0.562314
vt 0.318013 0.354478
vt 0.374178 0.458396
vt 0.430343 0.354478

vn 0 -1 0
vn -0.866025 0 -0.5
vn -0.866025 0 -0.5
vn 0.866025 0 -0.5
vn 0.866025 0 -0.5
vn 0 0 -1
vn 0.866025 0 0.5
vn 0.866025 0 0.5
vn -0.866025 0 0.5
vn -0.866025 0 0.5
vn 0 0 1
vn -0.866025 0 0.5
vn -0.866025 0 0.5
vn -0.866025 0 -0.5
vn -0.866025 0 0.5
vn -0.866025 0 0.5
vn 0.866025 0 0.5
vn 0.866025 0 0.5
vn -0.866025 0 0.5
vn -0.866025 0 0.5
vn 0.866025 0 0.5
vn 0.866025 0 0.5
vn 0.866025 0 -0.5
vn 0.866025 0 -0.5
vn 0.866025 0 0.5
vn 0.866025 0 0.5
vn 0.866025 0 -0.5
vn 0.866025 0 -0.5
vn 0.866025 0 -0.5
vn 0.866025 0 -0.5
vn 0.866025 0 -0.5
vn 0.866025 0 -0.5
vn 0.866025 0 -0.5
vn -0.866025 0 -0.5
vn -0.866025 0 -0.5
vn -0.866025 0 0.5
vn -0.866025 0 0.5
vn -0.866025 0 -0.5
vn -0.866025 0 -0.5
vn -0.866025 0 0.5
vn 0.866025 0 -0.5
vn -0.866025 0 -0.5
vn -0.866025 0 0.5
vn -0.866025 0 -0.5
vn -0.866025 0 -0.5
vn -0.866025 0 0.5
vn -0.866025 0 -0.5
vn -0.866025 0 0.5
vn 0.866025 0 -0.5
vn 0.866025 0 0.5
vn 0.866025 0 -0.5
vn 0.866025 0 0.5
vn -0.866025 0 0.5
vn 0.866025 0 0.5
vn 0 1 0
vn 0.866025 0 -0.5
vn 0.866025 0 -0.5
vn 0.866025 0 -0.5
vn 0.866025 0 0.5
vn 0.866025 0 0.5
vn 0.866025 0 0.5
vn -0.866025 0 0.5
vn -0.866025 0 0.5
vn -0.866025 0 0.5
vn -0.866025 0 0.5
vn -0.866025 0 0.5
vn 0.866025 0 0.5
vn 0.866025 0 -0.5
vn -0.866025 0 0.5
vn -0.866025 0 0.5
vn -0.866025 0 0.5
vn -0.866025 0 0.5
vn -0.866025 0 0.5
vn -0.866025 0 0.5
vn -0.866025 0 -0.5
vn -0.866025 0 -0.5
vn -0.866025 0 -0.5
vn 0.866025 0 -0.5
vn 0.866025 0 -0.5
vn 0.866025 0 -0.5
vn 0.866025 0 0.5
vn -0.866025 0 0.5
vn -0.866025 0 -0.5
vn 0.866025 0 -0.5
vn -0.866025 0 0.5
vn -0.866025 0 0.5
vn -0.866025 0 0.5

f 1/1/1 2/2/1 3/3/1 4/4/1 5/5/1 6/6/1
f 7/7/2 6/8/3 5/9/3 8/10/2
f 2/11/4 1/12/4 9/13/5 10/14/5
f 1/12/6 6/15/6 11/16/6 12/17/6
f 13/18/7 3/19/8 2/11/8 10/20/7
f 14/21/9 15/10/9 5/9/10 4/22/10
f 13/23/11 16/21/11 4/22/11 3/19/11
f 17/8/11 18/24/11 19/25/11 20/5/11
f 18/24/12 21/26/12 22/27/13 19/25/13
f 21/26/14 23/28/14 24/29/14 22/27/14
f 23/28/15 25/30/15 26/31/16 24/29/16
f 25/30/11 27/32/11 28/33/11 26/31/11
f 27/32/17 29/34/17 30/35/18 28/33/18
f 29/34/11 31/36/11 32/37/11 30/35/11
f 31/36/19 33/38/19 34/39/20 32/37/20
f 33/38/11 35/40/11 36/41/11 34/39/11
f 35/40/21 37/42/21 38/43/22 36/41/22
f 37/42/23 39/44/23 40/45/24 38/43/24
f 39/44/25 41/46/25 42/47/26 40/45/26
f 41/46/27 43/48/27 44/49/28 42/47/28
f 43/48/6 45/50/6 46/51/6 44/49/6
f 45/50/29 47/52/29 48/53/29 46/51/29
f 47/52/6 49/54/6 50/55/6 48/53/6
f 49/54/30 51/56/30 52/57/31 50/55/31
f 51/56/6 53/58/6 54/59/6 52/57/6
f 53/58/32 55/60/32 56/61/33 54/59/33
f 55/60/6 57/62/6 58/63/6 56/61/6
f 57/62/34 59/64/34 60/65/35 58/63/35
f 59/64/36 61/66/36 62/67/37 60/65/37
f 61/66/38 63/68/38 64/69/39 62/67/39
f 63/68/40 17/70/40 20/71/20 64/69/20
f 65/72/6 48/53/6 50/55/6 66/73/6
f 54/59/33 56/61/33 67/74/41 68/75/41
f 52/57/31 69/76/31 70/73/31 50/55/31
f 69/77/6 52/57/6 54/59/6 68/78/6
f 71/79/42 22/27/14 24/29/14 72/80/42
f 73/80/43 24/29/16 26/31/16 74/81/43
f 20/5/11 19/25/11 75/82/11 76/83/11
f 58/63/6 77/84/6 78/74/6 56/61/6
f 58/63/35 60/65/35 79/85/44 80/86/45
f 62/67/37 81/87/46 82/88/46 60/65/37
f 83/87/47 62/67/39 64/69/39 84/89/47
f 85/89/48 64/69/20 20/71/20 86/90/48
f 30/35/11 32/37/11 87/91/11 88/92/11
f 89/93/49 38/43/24 40/45/24 90/94/49
f 91/94/50 40/45/26 42/47/26 92/95/50
f 93/95/51 42/47/28 44/49/28 94/96/51
f 95/96/6 44/49/6 46/51/6 96/97/6
f 97/97/49 46/51/29 48/53/29 98/72/49
f 28/33/11 99/98/11 100/81/11 26/31/11
f 28/33/18 30/35/18 88/92/52 101/99/52
f 34/39/20 102/100/53 103/91/53 32/37/20
f 104/100/11 34/39/11 36/41/11 105/101/11
f 106/101/54 36/41/22 38/43/22 107/93/54
f 108/102/55 109/103/55 110/104/55 111/105/55 112/106/55
f 113/107/55 114/108/55 115/109/55 116/110/55 117/111/55
f 118/112/55 119/113/55 115/109/55 114/108/55 120/114/55
f 121/115/55 115/109/55 119/113/55 122/116/55
f 121/115/55 123/117/55 124/118/55
f 125/119/55 126/120/55 124/118/55 127/121/55 128/122/55
f 124/118/55 126/120/55 129/123/55 130/124/55 131/125/55
f 121/115/55 124/118/55 131/125/55 110/104/55 109/103/55 115/109/55
f 132/126/11 133/127/11 134/128/11 135/129/11
f 132/126/11 135/129/11 117/130/11 116/131/11
f 136/132/26 137/133/26 120/134/25 114/135/25
f 136/132/26 138/136/50 139/137/50 137/133/26
f 140/138/11 141/139/11 115/140/11 109/141/11
f 141/139/11 140/138/11 142/142/11 143/143/11
f 144/144/56 118/145/57 120/134/57 137/133/56
f 144/144/6 145/146/6 119/147/6 118/145/6
f 144/144/56 137/133/56 146/148/58 147/149/58
f 144/144/6 148/150/6 149/151/6 145/146/6
f 150/152/24 136/132/24 114/135/23 113/153/23
f 150/152/24 151/154/49 152/155/49 136/132/24
f 150/152/59 113/153/60 117/130/60 135/129/59
f 153/156/61 150/152/59 135/129/59 154/157/61
f 141/139/62 155/158/63 156/159/63 132/126/62
f 115/140/53 141/139/62 132/126/62 116/131/53
f 157/160/64 158/161/65 159/162/65 160/163/64
f 157/160/64 160/163/64 112/164/66 111/165/66
f 110/166/42 161/167/14 157/160/14 111/165/42
f 162/168/11 108/169/11 112/164/11 160/163/11
f 108/169/52 162/168/67 140/138/67 109/141/52
f 161/167/14 163/170/42 164/171/42 157/160/14
f 162/168/67 165/172/67 166/173/67 140/138/67
f 165/172/11 162/168/11 160/163/11 159/162/11
f 167/174/68 122/175/31 119/147/31 145/146/68
f 167/174/6 168/176/6 121/177/6 122/175/6
f 167/174/68 145/146/68 169/178/23 170/179/23
f 167/174/6 171/180/6 172/181/6 168/176/6
f 173/5/11 174/182/11 175/183/11 176/184/11
f 176/184/69 177/185/70 163/170/70 161/167/69
f 173/186/71 178/187/71 179/188/72 180/189/72
f 173/5/11 176/184/11 131/190/11 130/191/11
f 131/190/73 176/184/69 161/167/69 110/166/73
f 173/186/71 130/192/74 129/193/74 178/187/71
f 181/194/6 182/195/6 183/196/6 184/197/6
f 181/194/6 184/197/6 128/198/6 127/199/6
f 126/200/38 185/201/39 178/187/39 129/193/38
f 185/201/39 186/202/14 187/203/14 178/187/39
f 188/204/75 189/205/76 184/197/76 190/206/75
f 189/205/76 125/207/77 128/198/77 184/197/76
f 191/208/29 168/176/29 192/209/78 193/210/78
f 191/208/29 123/211/31 121/177/31 168/176/29
f 194/212/6 124/213/6 123/211/6 191/208/6
f 124/213/79 194/212/33 181/194/33 127/199/79
f 125/207/36 189/205/37 185/201/37 126/200/36
f 189/205/37 195/214/46 196/215/46 185/201/37
f 197/216/6 194/212/6 191/208/6 198/217/6
f 194/212/33 199/218/33 200/219/33 181/194/33
f 201/220/1 202/221/1 203/222/1 204/223/1
f 202/224/11 201/225/11 205/226/11 206/227/11
f 205/226/11 207/228/11 208/229/11 206/227/11
f 209/230/1 210/231/1 211/232/1 212/233/1
f 211/232/1 213/234/1 214/235/1 215/236/1
f 214/237/26 213/238/26 216/239/25 217/240/25
f 218/241/63 219/242/19 206/227/19 220/243/63
f 221/244/11 222/245/11 219/242/11 223/246/11
f 224/247/27 225/248/80 226/249/80 216/239/27
f 227/250/6 228/251/6 229/252/6 224/247/6
f 230/253/25 231/254/25 217/240/25 216/239/25
f 232/255/1 233/256/1 234/257/1 210/231/1
f 235/258/1 233/256/1 232/255/1 236/259/1
f 234/260/56 224/247/27 216/239/27 213/238/56
f 234/260/6 233/261/6 227/250/6 224/247/6
f 237/262/21 238/263/81 239/264/81 205/226/21
f 237/262/23 217/240/23 240/265/23 241/266/23
f 242/267/1 243/268/1 244/269/1 215/270/1
f 237/262/23 245/271/24 214/237/24 217/240/23
f 204/223/1 246/272/1 242/267/1 245/273/1
f 245/271/59 237/262/21 205/226/21 201/225/59
f 219/242/19 222/245/62 202/224/62 206/227/19
f 247/274/1 248/275/1 249/276/1 250/277/1
f 249/278/64 248/279/64 251/280/15 252/281/15
f 252/281/15 251/280/15 253/282/82 254/283/82
f 255/284/11 223/246/11 219/242/11 218/285/11
f 255/286/67 256/287/67 257/288/17 223/246/17
f 257/288/11 258/289/11 259/290/11 251/280/11
f 260/291/42 261/292/14 252/281/14 262/293/42
f 261/292/14 263/294/14 249/278/14 252/281/14
f 264/295/1 221/296/1 265/297/1 266/298/1
f 222/299/1 267/300/1 268/301/1 203/222/1
f 222/299/1 221/296/1 264/295/1 267/300/1
f 257/288/17 265/302/67 221/244/67 223/246/17
f 269/303/1 266/298/1 247/274/1 270/304/1
f 265/302/11 257/288/11 251/280/11 248/279/11
f 271/305/29 272/306/29 273/307/29 227/250/29
f 274/308/6 275/309/6 276/310/6 271/305/6
f 277/311/68 271/305/29 227/250/29 233/261/68
f 277/311/6 278/312/6 274/308/6 271/305/6
f 279/313/1 280/314/1 281/315/1 282/316/1
f 280/317/6 279/318/6 283/319/6 284/320/6
f 285/321/6 284/320/6 283/319/6 190/322/6
f 286/323/1 287/324/1 288/325/1 289/326/1
f 278/327/1 290/328/1 291/329/1 292/330/1
f 235/258/1 290/328/1 278/327/1 277/331/1
f 293/332/38 294/333/39 286/334/39 295/335/38
f 296/336/1 282/316/1 297/337/1 298/338/1
f 296/339/76 299/340/34 283/319/34 279/318/76
f 299/340/34 300/341/83 301/342/83 283/319/34
f 302/343/29 303/344/30 274/308/30 278/312/29
f 303/344/30 304/345/30 305/346/30 274/308/30
f 306/347/6 307/348/6 304/345/6 303/344/6
f 308/349/36 309/350/36 299/340/36 293/332/36
f 310/351/84 306/347/32 284/320/32 182/352/84
f 311/353/1 294/354/1 298/338/1 312/355/1
f 287/324/1 294/354/1 311/353/1 313/356/1
f 299/340/36 296/339/37 294/333/37 293/332/36
f 314/357/1 315/358/1 316/359/1 281/315/1
f 292/330/1 315/358/1 314/357/1 302/360/1
f 314/361/6 306/347/6 303/344/6 302/343/6
f 306/347/32 314/361/33 280/317/33 284/320/32
f 317/362/1 318/363/1 319/364/1 289/326/1
f 320/365/1 263/366/1 321/367/1 322/368/1
f 250/277/1 263/366/1 320/365/1 323/369/1
f 319/8/11 318/370/11 324/371/11 325/5/11
f 324/371/12 318/370/69 263/294/69 261/292/12
f 319/70/71 325/186/40 295/335/40 286/334/71
f 325/186/40 326/372/85 327/373/85 295/335/40
f 328/374/11 329/375/11 325/5/11 324/371/11
f 328/374/86 324/371/12 261/292/12 330/376/86
f 331/377/38 332/378/38 293/332/38 295/335/38
f 49/379/1 47/380/1 333/381/1
f 63/382/1 61/383/1 49/379/1 333/381/1 334/384/1
f 53/385/1 59/386/1 57/387/1 55/388/1
f 53/385/1 51/389/1 49/379/1
f 53/385/1 49/379/1 61/383/1 59/386/1
f 39/390/1 45/391/1 43/392/1 41/393/1
f 33/394/1 31/395/1 333/381/1 37/396/1 35/397/1
f 333/381/1 31/395/1 29/398/1
f 29/398/1 27/399/1 335/400/1
f 333/381/1 29/398/1 335/400/1 336/401/1
f 336/401/1 337/402/1 338/403/1
f 21/404/1 339/405/1 340/406/1
f 25/407/1 23/408/1 21/404/1 340/406/1 335/400/1
f 341/409/1 18/410/1 17/411/1 334/384/1
f 342/412/1 343/413/1 344/414/1 339/405/1
f 345/82/87 19/25/13 22/27/13 346/79/87
f 344/414/1 347/415/1 348/416/1