v 0.0714286 0 0.0412393 0.396078 0.262745 0.129412
v 4.8e-11 0 -0.0824786 0.396078 0.262745 0.129412
v 0.0714286 0 -0.206197 0.396078 0.262745 0.129412
v 0.214286 0 -0.206197 0.396078 0.262745 0.129412
v 0.285714 0 -0.0824786 0.396078 0.262745 0.129412
v 0.214286 0 0.0412393 0.396078 0.262745 0.129412
v 0.192416 0.25 0.00336052 0.60404 0.672727 0.741414
v 0.0932979 0.25 0.00336052 0.60404 0.672727 0.741414
v 0.0437387 0.25 -0.0824786 0.60404 0.672727 0.741414
v 0.0932979 0.25 -0.168318 0.60404 0.672727 0.741414
v 0.0932979 0.25 -0.168318 0.60404 0.672727 0.741414
v 0.192416 0.25 -0.168318 0.60404 0.672727 0.741414
v 0.241976 0.25 -0.0824786 0.60404 0.672727 0.741414
v 0.192416 0.25 0.00336052 0.60404 0.672727 0.741414
v 0.192416 0.25 -0.168318 0.60404 0.672727 0.741414
v 0.241976 0.25 -0.0824786 0.60404 0.672727 0.741414
v 0.0945226 0.25 0.123718 0.903529 0.793333 0.746667
v 0.023094 0.25 0.247436 0.903529 0.793333 0.746667
v 0 0.325 0.247436 0.903529 0.793333 0.746667
v 0.0714286 0.325 0.123718 0.903529 0.793333 0.746667
v 0.0829756 0.25 0.351154 0.903529 0.793333 0.746667
v 0.0714286 0.325 0.371154 0.903529 0.793333 0.746667
v 0.202739 0.25 0.351154 0.903529 0.793333 0.746667
v 0.214286 0.325 0.371154 0.903529 0.793333 0.746667
v 0.274167 0.25 0.227436 0.903529 0.793333 0.746667
v 0.285714 0.325 0.247436 0.903529 0.793333 0.746667
v 0.417024 0.25 0.227436 0.903529 0.793333 0.746667
v 0.428571 0.325 0.247436 0.903529 0.793333 0.746667
v 0.488453 0.25 0.103718 0.903529 0.793333 0.746667
v 0.5 0.325 0.123718 0.903529 0.793333 0.746667
v 0.63131 0.25 0.103718 0.903529 0.793333 0.746667
v 0.642857 0.325 0.123718 0.903529 0.793333 0.746667
v 0.691192 0.25 0 0.903529 0.793333 0.746667
v 0.714286 0.325 0 0.903529 0.793333 0.746667
v 0.63131 0.25 -0.103718 0.903529 0.793333 0.746667
v 0.642857 0.325 -0.123718 0.903529 0.793333 0.746667
v 0.488453 0.25 -0.103718 0.903529 0.793333 0.746667
v 0.5 0.325 -0.123718 0.903529 0.793333 0.746667
v 0.417024 0.25 -0.227436 0.903529 0.793333 0.746667
v 0.428571 0.325 -0.247436 0.903529 0.793333 0.746667
v 0.274167 0.25 -0.227436 0.903529 0.793333 0.746667
v 0.285714 0.325 -0.247436 0.903529 0.793333 0.746667
v 0.202739 0.25 -0.351154 0.903529 0.793333 0.746667
v 0.214286 0.325 -0.371154 0.903529 0.793333 0.746667
v 0.0598816 0.25 -0.351154 0.903529 0.793333 0.746667
v 0.0714286 0.325 -0.371154 0.903529 0.793333 0.746667
v -0.011547 0.25 -0.474872 0.903529 0.793333 0.746667
v 0 0.325 -0.494872 0.903529 0.793333 0.746667
v -0.13131 0.25 -0.474872 0.903529 0.793333 0.746667
v -0.142857 0.325 -0.494872 0.903529 0.793333 0.746667
v -0.202739 0.25 -0.351154 0.903529 0.793333 0.746667
v -0.214286 0.325 -0.371154 0.903529 0.793333 0.746667
v -0.345596 0.25 -0.351154 0.903529 0.793333 0.746667
v -0.357143 0.325 -0.371154 0.903529 0.793333 0.746667
v -0.405477 0.25 -0.247436 0.903529 0.793333 0.746667
v -0.428571 0.325 -0.247436 0.903529 0.793333 0.746667
v -0.345596 0.25 -0.143718 0.903529 0.793333 0.746667
v -0.357143 0.325 -0.123718 0.903529 0.793333 0.746667
v -0.202739 0.25 -0.143718 0.903529 0.793333 0.746667
v -0.214286 0.325 -0.123718 0.903529 0.793333 0.746667
v -0.13131 0.25 -0.02 0.903529 0.793333 0.746667
v -0.142857 0.325 0 0.903529 0.793333 0.746667
v -0.326351 0.475 -0.31782 0.718431 0.662353 0.655686
v -0.183494 0.475 -0.31782 0.718431 0.662353 0.655686
v -0.366987 0.475 -0.247436 0.718431 0.662353 0.655686
v -0.326351 0.475 -0.31782 0.718431 0.662353 0.655686
v 0.061584 0.475 0.247436 0.718431 0.662353 0.655686
v 0.133013 0.475 0.123718 0.718431 0.662353 0.655686
v 0.061584 0.475 0.247436 0.718431 0.662353 0.655686
v 0.102221 0.475 0.31782 0.718431 0.662353 0.655686
v 0.102221 0.475 0.31782 0.718431 0.662353 0.655686
v 0.183494 0.475 0.31782 0.718431 0.662353 0.655686
v -0.326351 0.475 -0.177051 0.718431 0.662353 0.655686
v -0.366987 0.475 -0.247436 0.718431 0.662353 0.655686
v -0.183494 0.475 -0.177051 0.718431 0.662353 0.655686
v -0.112065 0.475 -0.0533333 0.718431 0.662353 0.655686
v 0.254922 0.475 0.194102 0.718431 0.662353 0.655686
v 0.183494 0.475 -0.31782 0.718431 0.662353 0.655686
v 0.0406366 0.475 -0.31782 0.718431 0.662353 0.655686
v 0.0406366 0.475 -0.31782 0.718431 0.662353 0.655686
v -0.030792 0.475 -0.441538 0.718431 0.662353 0.655686
v -0.030792 0.475 -0.441538 0.718431 0.662353 0.655686
v -0.112065 0.475 -0.441538 0.718431 0.662353 0.655686
v -0.183494 0.475 -0.31782 0.718431 0.662353 0.655686
v 0.469208 0.475 -0.0703846 0.718431 0.662353 0.655686
v 0.397779 0.475 -0.194102 0.718431 0.662353 0.655686
v 0.397779 0.475 0.194102 0.718431 0.662353 0.655686
v 0.254922 0.475 0.194102 0.718431 0.662353 0.655686
v 0.469208 0.475 0.0703846 0.718431 0.662353 0.655686
v 0.397779 0.475 0.194102 0.718431 0.662353 0.655686
v 0.612065 0.475 0.0703846 0.718431 0.662353 0.655686
v 0.612065 0.475 0.0703846 0.718431 0.662353 0.655686
v 0.652702 0.475 0 0.718431 0.662353 0.655686
v 0.652702 0.475 0 0.718431 0.662353 0.655686
v 0.612065 0.475 -0.0703846 0.718431 0.662353 0.655686
v 0.469208 0.475 -0.0703846 0.718431 0.662353 0.655686
v 0.612065 0.475 -0.0703846 0.718431 0.662353 0.655686
v 0.168098 1 0.291154 0.0705882 0.203922 0.337255
v 0.239526 1 0.167436 0.0705882 0.203922 0.337255
v 0.163805 1 0.123718 0.0705882 0.203922 0.337255
v 0.092376 1 0.247436 0.0705882 0.203922 0.337255
v 0.117617 1 0.291154 0.0705882 0.203922 0.337255
v 0.596669 1 -0.0437179 0.0705882 0.203922 0.337255
v 0.453812 1 -0.0437179 0.0705882 0.203922 0.337255
v 0.453812 1 0.0437179 0.0705882 0.203922 0.337255
v 0.596669 1 0.0437179 0.0705882 0.203922 0.337255
v 0.62191 1 0 0.0705882 0.203922 0.337255
v 0.239526 1 -0.167436 0.0705882 0.203922 0.337255
v 0.382383 1 -0.167436 0.0705882 0.203922 0.337255
v 0.168098 1 -0.291154 0.0705882 0.203922 0.337255
v 0.0252405 1 -0.291154 0.0705882 0.203922 0.337255
v -0.168098 1 -0.291154 0.0705882 0.203922 0.337255
v -0.046188 1 -0.414872 0.0705882 0.203922 0.337255
v -0.0966691 1 -0.414872 0.0705882 0.203922 0.337255
v -0.310955 1 -0.203718 0.0705882 0.203922 0.337255
v -0.168098 1 -0.203718 0.0705882 0.203922 0.337255
v -0.310955 1 -0.291154 0.0705882 0.203922 0.337255
v -0.336195 1 -0.247436 0.0705882 0.203922 0.337255
v 0.046188 1 -0.08 0.0705882 0.203922 0.337255
v -0.0966691 1 -0.08 0.0705882 0.203922 0.337255
v 0.382383 1 0.167436 0.0705882 0.203922 0.337255
v -0.023094 0.775 -0.454872 0.348235 0.400392 0.473725
v -0.0300222 0.73 -0.442872 0.403765 0.439686 0.50102
v -0.112835 0.73 -0.442872 0.403765 0.439686 0.50102
v -0.119763 0.775 -0.454872 0.348235 0.400392 0.473725
v 0.668098 0.775 0 0.348235 0.400392 0.473725
v 0.654241 0.73 0 0.403765 0.439686 0.50102
v 0.612835 0.73 -0.0717179 0.403765 0.439686 0.50102
v 0.619763 0.775 -0.0837179 0.348235 0.400392 0.473725
v 0.619763 0.775 0.0837179 0.348235 0.400392 0.473725
v 0.612835 0.73 0.0717179 0.403765 0.439686 0.50102
v 0.654241 0.73 0 0.403765 0.439686 0.50102
v 0.476906 0.775 0.0837179 0.348235 0.400392 0.473725
v 0.476906 0.775 -0.0837179 0.348235 0.400392 0.473725
v 0.405477 0.775 -0.207436 0.348235 0.400392 0.473725
v 0.469978 0.73 0.0717179 0.403765 0.439686 0.50102
v 0.612835 0.73 0.0717179 0.403765 0.439686 0.50102
v 0.469978 0.73 -0.0717179 0.403765 0.439686 0.50102
v 0.612835 0.73 -0.0717179 0.403765 0.439686 0.50102
v 0.469978 0.73 -0.0717179 0.403765 0.439686 0.50102
v 0.398549 0.73 -0.195436 0.403765 0.439686 0.50102
v 0.191192 0.775 0.331154 0.348235 0.400392 0.473725
v 0.0945226 0.775 0.331154 0.348235 0.400392 0.473725
v 0.26262 0.775 0.207436 0.348235 0.400392 0.473725
v 0.405477 0.775 0.207436 0.348235 0.400392 0.473725
v 0.101451 0.73 0.319154 0.403765 0.439686 0.50102
v 0.184264 0.73 0.319154 0.403765 0.439686 0.50102
v 0.398549 0.73 0.195436 0.403765 0.439686 0.50102
v 0.469978 0.73 0.0717179 0.403765 0.439686 0.50102
v 0.255692 0.73 0.195436 0.403765 0.439686 0.50102
v 0.184264 0.73 0.319154 0.403765 0.439686 0.50102
v 0.255692 0.73 0.195436 0.403765 0.439686 0.50102
v 0.398549 0.73 0.195436 0.403765 0.439686 0.50102
v -0.382383 0.775 -0.247436 0.348235 0.400392 0.473725
v -0.368527 0.73 -0.247436 0.403765 0.439686 0.50102
v -0.327121 0.73 -0.175718 0.403765 0.439686 0.50102
v -0.334049 0.775 -0.163718 0.348235 0.400392 0.473725
v 0.26262 0.775 -0.207436 0.348235 0.400392 0.473725
v 0.255692 0.73 -0.195436 0.403765 0.439686 0.50102
v 0.398549 0.73 -0.195436 0.403765 0.439686 0.50102
v 0.191192 0.775 -0.331154 0.348235 0.400392 0.473725
v 0.0483346 0.775 -0.331154 0.348235 0.400392 0.473725
v 0.255692 0.73 -0.195436 0.403765 0.439686 0.50102
v 0.184264 0.73 -0.319154 0.403765 0.439686 0.50102
v 0.184264 0.73 -0.319154 0.403765 0.439686 0.50102
v 0.0414064 0.73 -0.319154 0.403765 0.439686 0.50102
v 0.0414064 0.73 -0.319154 0.403765 0.439686 0.50102
v -0.0300222 0.73 -0.442872 0.403765 0.439686 0.50102
v 0.117617 0.775 0.123718 0.348235 0.400392 0.473725
v 0.131473 0.73 0.123718 0.403765 0.439686 0.50102
v 0.0600444 0.73 0.247436 0.403765 0.439686 0.50102
v 0.046188 0.775 0.247436 0.348235 0.400392 0.473725
v 0.0600444 0.73 0.247436 0.403765 0.439686 0.50102
v 0.101451 0.73 0.319154 0.403765 0.439686 0.50102
v 0.023094 0.775 -0.04 0.348235 0.400392 0.473725
v -0.119763 0.775 -0.04 0.348235 0.400392 0.473725
v -0.112835 0.73 -0.052 0.403765 0.439686 0.50102
v 0.0300222 0.73 -0.052 0.403765 0.439686 0.50102
v 0.0300222 0.73 -0.052 0.403765 0.439686 0.50102
v 0.131473 0.73 0.123718 0.403765 0.439686 0.50102
v -0.191192 0.775 -0.163718 0.348235 0.400392 0.473725
v -0.184264 0.73 -0.175718 0.403765 0.439686 0.50102
v -0.327121 0.73 -0.175718 0.403765 0.439686 0.50102
v -0.184264 0.73 -0.175718 0.403765 0.439686 0.50102
v -0.112835 0.73 -0.052 0.403765 0.439686 0.50102
v -0.191192 0.775 -0.331154 0.348235 0.400392 0.473725
v -0.334049 0.775 -0.331154 0.348235 0.400392 0.473725
v -0.327121 0.73 -0.319154 0.403765 0.439686 0.50102
v -0.368527 0.73 -0.247436 0.403765 0.439686 0.50102
v -0.184264 0.73 -0.319154 0.403765 0.439686 0.50102
v -0.112835 0.73 -0.442872 0.403765 0.439686 0.50102
v -0.184264 0.73 -0.319154 0.403765 0.439686 0.50102
v -0.327121 0.73 -0.319154 0.403765 0.439686 0.50102
v -0.119763 0.475 -0.454872 0.718431 0.662353 0.655686
v -0.023094 0.475 -0.454872 0.718431 0.662353 0.655686
v -0.015396 0.475 -0.441538 0.718431 0.662353 0.655686
v -0.127461 0.475 -0.441538 0.718431 0.662353 0.655686
v -0.13131 0.55 -0.474872 0.625882 0.596863 0.610196
v -0.011547 0.55 -0.474872 0.625882 0.596863 0.610196
v -0.0300222 0.73 -0.442872 0.403765 0.439686 0.50102
v -0.112835 0.73 -0.442872 0.403765 0.439686 0.50102
v 0.109919 0.475 0.331154 0.718431 0.662353 0.655686
v 0.0945226 0.475 0.331154 0.718431 0.662353 0.655686
v 0.053886 0.475 0.260769 0.718431 0.662353 0.655686
v 0.061584 0.475 0.247436 0.718431 0.662353 0.655686
v 0.102221 0.475 0.31782 0.718431 0.662353 0.655686
v 0.183494 0.475 0.31782 0.718431 0.662353 0.655686
v 0.175796 0.475 0.331154 0.718431 0.662353 0.655686
v 0.668098 0.475 0 0.718431 0.662353 0.655686
v 0.6604 0.475 0.0133333 0.718431 0.662353 0.655686
v 0.604367 0.475 -0.0837179 0.718431 0.662353 0.655686
v 0.619763 0.475 -0.0837179 0.718431 0.662353 0.655686
v 0.63131 0.55 -0.103718 0.625882 0.596863 0.610196
v 0.691192 0.55 0 0.625882 0.596863 0.610196
v 0.612835 0.73 -0.0717179 0.403765 0.439686 0.50102
v 0.654241 0.73 0 0.403765 0.439686 0.50102
v 0.652702 0.475 0 0.718431 0.662353 0.655686
v 0.619763 0.475 0.0837179 0.718431 0.662353 0.655686
v 0.604367 0.475 0.0837179 0.718431 0.662353 0.655686
v 0.63131 0.55 0.103718 0.625882 0.596863 0.610196
v 0.612835 0.73 0.0717179 0.403765 0.439686 0.50102
v 0.488453 0.55 -0.103718 0.625882 0.596863 0.610196
v 0.469978 0.73 -0.0717179 0.403765 0.439686 0.50102
v 0.612835 0.73 -0.0717179 0.403765 0.439686 0.50102
v 0.469978 0.73 0.0717179 0.403765 0.439686 0.50102
v 0.488453 0.55 0.103718 0.625882 0.596863 0.610196
v 0.476906 0.475 0.0837179 0.718431 0.662353 0.655686
v 0.476906 0.475 -0.0837179 0.718431 0.662353 0.655686
v 0.469208 0.475 -0.0703846 0.718431 0.662353 0.655686
v 0.397779 0.475 -0.194102 0.718431 0.662353 0.655686
v 0.413175 0.475 -0.194102 0.718431 0.662353 0.655686
v 0.612065 0.475 -0.0703846 0.718431 0.662353 0.655686
v 0.405477 0.475 -0.207436 0.718431 0.662353 0.655686
v 0.417024 0.55 -0.227436 0.625882 0.596863 0.610196
v 0.191192 0.475 0.331154 0.718431 0.662353 0.655686
v 0.202739 0.55 0.351154 0.625882 0.596863 0.610196
v 0.0829756 0.55 0.351154 0.625882 0.596863 0.610196
v 0.469208 0.475 0.0703846 0.718431 0.662353 0.655686
v 0.405477 0.475 0.207436 0.718431 0.662353 0.655686
v 0.390081 0.475 0.207436 0.718431 0.662353 0.655686
v 0.612065 0.475 0.0703846 0.718431 0.662353 0.655686
v 0.417024 0.55 0.227436 0.625882 0.596863 0.610196
v 0.398549 0.73 0.195436 0.403765 0.439686 0.50102
v 0.26262 0.475 0.207436 0.718431 0.662353 0.655686
v 0.254922 0.475 0.194102 0.718431 0.662353 0.655686
v 0.397779 0.475 0.194102 0.718431 0.662353 0.655686
v 0.274167 0.55 0.227436 0.625882 0.596863 0.610196
v 0.255692 0.73 0.195436 0.403765 0.439686 0.50102
v 0.184264 0.73 0.319154 0.403765 0.439686 0.50102
v 0.398549 0.73 0.195436 0.403765 0.439686 0.50102
v 0.255692 0.73 0.195436 0.403765 0.439686 0.50102
v -0.382383 0.475 -0.247436 0.718431 0.662353 0.655686
v -0.374685 0.475 -0.260769 0.718431 0.662353 0.655686
v -0.318653 0.475 -0.163718 0.718431 0.662353 0.655686
v -0.334049 0.475 -0.163718 0.718431 0.662353 0.655686
v -0.345596 0.55 -0.143718 0.625882 0.596863 0.610196
v -0.405477 0.55 -0.247436 0.625882 0.596863 0.610196
v -0.368527 0.73 -0.247436 0.403765 0.439686 0.50102
v -0.327121 0.73 -0.175718 0.403765 0.439686 0.50102
v 0.398549 0.73 -0.195436 0.403765 0.439686 0.50102
v 0.469978 0.73 -0.0717179 0.403765 0.439686 0.50102
v 0.274167 0.55 -0.227436 0.625882 0.596863 0.610196
v 0.398549 0.73 -0.195436 0.403765 0.439686 0.50102
v 0.26262 0.475 -0.207436 0.718431 0.662353 0.655686
v 0.254922 0.475 -0.194102 0.718431 0.662353 0.655686
v 0.183494 0.475 -0.31782 0.718431 0.662353 0.655686
v 0.19889 0.475 -0.31782 0.718431 0.662353 0.655686
v 0.0414064 0.73 -0.319154 0.403765 0.439686 0.50102
v 0.0598816 0.55 -0.351154 0.625882 0.596863 0.610196
v 0.202739 0.55 -0.351154 0.625882 0.596863 0.610196
v 0.184264 0.73 -0.319154 0.403765 0.439686 0.50102
v 0.255692 0.73 -0.195436 0.403765 0.439686 0.50102
v 0.184264 0.73 -0.319154 0.403765 0.439686 0.50102
v 0.0406366 0.475 -0.31782 0.718431 0.662353 0.655686
v 0.0483346 0.475 -0.331154 0.718431 0.662353 0.655686
v 0.191192 0.475 -0.331154 0.718431 0.662353 0.655686
v -0.030792 0.475 -0.441538 0.718431 0.662353 0.655686
v -0.366987 0.475 -0.247436 0.718431 0.662353 0.655686
v -0.341747 0.475 -0.31782 0.718431 0.662353 0.655686
v -0.326351 0.475 -0.31782 0.718431 0.662353 0.655686
v 0.030792 0.475 -0.0533333 0.718431 0.662353 0.655686
v 0.023094 0.475 -0.04 0.718431 0.662353 0.655686
v -0.119763 0.475 -0.04 0.718431 0.662353 0.655686
v -0.127461 0.475 -0.0533333 0.718431 0.662353 0.655686
v 0.117617 0.475 0.123718 0.718431 0.662353 0.655686
v 0.133013 0.475 0.123718 0.718431 0.662353 0.655686
v 0.046188 0.475 0.247436 0.718431 0.662353 0.655686
v 0.023094 0.55 0.247436 0.625882 0.596863 0.610196
v 0.0945226 0.55 0.123718 0.625882 0.596863 0.610196
v 0.011547 0.55 -0.02 0.625882 0.596863 0.610196
v -0.13131 0.55 -0.02 0.625882 0.596863 0.610196
v 0.101451 0.73 0.319154 0.403765 0.439686 0.50102
v 0.101451 0.73 0.319154 0.403765 0.439686 0.50102
v 0.0600444 0.73 0.247436 0.403765 0.439686 0.50102
v 0.131473 0.73 0.123718 0.403765 0.439686 0.50102
v 0.0300222 0.73 -0.052 0.403765 0.439686 0.50102
v 0.131473 0.73 0.123718 0.403765 0.439686 0.50102
v -0.112835 0.73 -0.052 0.403765 0.439686 0.50102
v -0.202739 0.55 -0.143718 0.625882 0.596863 0.610196
v -0.184264 0.73 -0.175718 0.403765 0.439686 0.50102
v -0.327121 0.73 -0.175718 0.403765 0.439686 0.50102
v -0.184264 0.73 -0.175718 0.403765 0.439686 0.50102
v -0.112835 0.73 -0.052 0.403765 0.439686 0.50102
v -0.191192 0.475 -0.163718 0.718431 0.662353 0.655686
v -0.183494 0.475 -0.177051 0.718431 0.662353 0.655686
v -0.112065 0.475 -0.0533333 0.718431 0.662353 0.655686
v -0.326351 0.475 -0.177051 0.718431 0.662353 0.655686
v -0.345596 0.55 -0.351154 0.625882 0.596863 0.610196
v -0.368527 0.73 -0.247436 0.403765 0.439686 0.50102
v -0.327121 0.73 -0.319154 0.403765 0.439686 0.50102
v -0.184264 0.73 -0.319154 0.403765 0.439686 0.50102
v -0.202739 0.55 -0.351154 0.625882 0.596863 0.610196
v -0.327121 0.73 -0.319154 0.403765 0.439686 0.50102
v -0.184264 0.73 -0.319154 0.403765 0.439686 0.50102
v -0.191192 0.475 -0.331154 0.718431 0.662353 0.655686
v -0.183494 0.475 -0.31782 0.718431 0.662353 0.655686
v -0.334049 0.475 -0.331154 0.718431 0.662353 0.655686
v -0.112065 0.475 -0.441538 0.718431 0.662353 0.655686
v 0.0250342 0.25 0.00336052 0.903529 0.793333 0.746667
v 0.689252 0.25 0.00336052 0.903529 0.793333 0.746667
v 0.198858 0.25 -0.351154 0.903529 0.793333 0.746667
v 0.00766661 0.25 -0.02 0.903529 0.793333 0.746667
v 0.030792 0.475 -0.0533333 0.718431 0.662353 0.655686
v 0 0.325 0 0.903529 0.793333 0.746667
v 0.133013 0.475 0.123718 0.718431 0.662353 0.655686
v 0.030792 0.475 -0.0533333 0.718431 0.662353 0.655686
v -0.112065 0.475 -0.0533333 0.718431 0.662353 0.655686
v 0.011547 0.25 -0.02 0.903529 0.793333 0.746667
v 0.0437387 0.25 -0.0824786 0.903529 0.793333 0.746667
v 0.0932979 0.25 0.00336052 0.903529 0.793333 0.746667
v 0.0932979 0.25 -0.168318 0.903529 0.793333 0.746667
v 0.451156 0.25 -0.168318 0.903529 0.793333 0.746667
v 0.254922 0.475 -0.194102 0.718431 0.662353 0.655686
v 0.183494 0.475 -0.31782 0.718431 0.662353 0.655686
v 0.397779 0.475 -0.194102 0.718431 0.662353 0.655686
v 0.254922 0.475 -0.194102 0.718431 0.662353 0.655686
v 0.291535 0.25 -0.168318 0.903529 0.793333 0.746667
v 0.192416 0.25 0.00336052 0.903529 0.793333 0.746667
v 0.241976 0.25 -0.0824786 0.903529 0.793333 0.746667
v 0.192416 0.25 -0.168318 0.903529 0.793333 0.746667

vt 0.25 0
vt 0 0.5
vt 0.25 1
vt 0.75 1
vt 1 0.5
vt 0.75 0
vt 1 0
vt 1 0.757576
vt 0.833333 0.757576
vt 0.833333 0
vt 0.666667 0
vt 0.666667 0.757576
vt 0.5 0
vt 0.666667 0.757576
vt 0.5 0.757576
vt 0.333333 0
vt 0.5 0.757576
vt 0.333333 0.757576
vt 0.166667 0
vt 0.166667 0.757576
vt 0 0.757576
vt 0 0
vt 0.333333 0.757576
vt 0.166667 0.757576
vt 0.0434215 0
vt 0.0416667 0.5
vt 0.0798236 0
vt 0.0833333 0.5
vt 0.116226 0
vt 0.125 0.5
vt 0.159647 0
vt 0.166667 0.5
vt 0.203069 0
vt 0.208333 0.5
vt 0.24649 0
vt 0.25 0.5
vt 0.289912 0
vt 0.291667 0.5
vt 0.326314 0
vt 0.333333 0.5
vt 0.362716 0
vt 0.375 0.5
vt 0.406138 0
vt 0.416667 0.5
vt 0.449559 0
vt 0.458333 0.5
vt 0.492981 0
vt 0.5 0.5
vt 0.536402 0
vt 0.541667 0.5
vt 0.579824 0
vt 0.583333 0.5
vt 0.623245 0
vt 0.625 0.5
vt 0.659647 0
vt 0.666667 0.5
vt 0.703069 0
vt 0.708333 0.5
vt 0.74649 0
vt 0.75 0.5
vt 0.782892 0
vt 0.791667 0.5
vt 0.819294 0
vt 0.833333 0.5
vt 0.862716 0
vt 0.875 0.5
vt 0.906138 0
vt 0.916667 0.5
vt 0.739287 0.833333
vt 0.692264 0.833333
vt 0.764885 0.833333
vt 0.739287 0.833333
vt 0.0470231 0.833333
vt 0 0.833333
vt 0.0470231 0.833333
vt 0.0726205 0.833333
vt 0.0726205 0.833333
vt 0.098218 0.833333
vt 0.790482 0.833333
vt 0.837505 0.833333
vt 0.884528 0.833333
vt 0.145241 0.833333
vt 0.525597 0.833333
vt 0.572621 0.833333
vt 0.619644 0.833333
vt 0.645241 0.833333
vt 0.692264 0.833333
vt 0.645241 0.833333
vt 0.384528 0.833333
vt 0.431551 0.833333
vt 0.192264 0.833333
vt 0.145241 0.833333
vt 0.239287 0.833333
vt 0.192264 0.833333
vt 0.28631 0.833333
vt 0.311908 0.833333
vt 0.337505 0.833333
vt 0.337505 0.833333
vt 0.526344 0
vt 0.600896 0.175232
vt 0.521863 0.237153
vt 0.447312 0.0619212
vt 0.473656 0
vt 0.973656 0.474305
vt 0.824552 0.474305
vt 0.824552 0.350463
vt 0.973656 0.350463
vt 1 0.412384
vt 0.600896 0.649537
vt 0.75 0.649537
vt 0.526344 0.824768
vt 0.37724 0.824768
vt 0.175448 0.824768
vt 0.302688 1
vt 0.25 1
vt 0.0263442 0.700926
vt 0.175448 0.700926
vt 0.0263442 0.824768
vt 0 0.762847
vt 0.399104 0.525695
vt 0.25 0.525695
vt 0.75 0.175232
vt 0.621336 0.5
vt 0.620085 0.2
vt 0.647007 0.2
vt 0.652011 0.5
vt 0.634528 1
vt 0.616965 1
vt 0.318677 0.5
vt 0.313674 0.2
vt 0.340596 0.2
vt 0.349352 0.5
vt 0.318758 1
vt 0.301195 1
vt 0.288003 0.5
vt 0.286752 0.2
vt 0.313674 0.2
vt 0.283632 1
vt 0.233931 1
vt 0.242672 0.5
vt 0.394682 0.5
vt 0.368459 1
vt 0.440013 0.5
vt 0.41816 1
vt 0.24017 0.2
vt 0.286752 0.2
vt 0.387177 0.2
vt 0.340596 0.2
vt 0.387177 0.2
vt 0.433759 0.2
vt 0.10668 0.5
vt 0.0848269 1
vt 0.0672641 1
vt 0.0760053 0.5
vt 0.152011 0.5
vt 0.134528 1
vt 0.197341 0.5
vt 0.184229 1
vt 0.0735035 0.2
vt 0.100425 0.2
vt 0.193589 0.2
vt 0.24017 0.2
vt 0.147007 0.2
vt 0.100425 0.2
vt 0.147007 0.2
vt 0.193589 0.2
vt 0.773346 0.5
vt 0.767092 0.2
vt 0.794014 0.2
vt 0.804021 0.5
vt 0.769056 1
vt 0.751494 1
vt 0.485344 0.5
vt 0.467862 1
vt 0.48034 0.2
vt 0.433759 0.2
vt 0.530675 0.5
vt 0.517563 1
vt 0.576005 0.5
vt 0.567264 1
vt 0.48034 0.2
vt 0.526922 0.2
vt 0.526922 0.2
vt 0.573504 0.2
vt 0.573504 0.2
vt 0.620085 0.2
vt 0 0.2
vt 0.0465816 0.2
vt 0.0453307 0.5
vt 0.0465816 0.2
vt 0.0735035 0.2
vt 0.940013 0.5
vt 0.894682 0.5
vt 0.887177 0.2
vt 0.933759 0.2
vt 0.933759 0.2
vt 1 0.2
vt 0.0497013 1
vt 0 1
vt 0.91816 1
vt 0.868459 1
vt 1 1
vt 0.849352 0.5
vt 0.818758 1
vt 0.840596 0.2
vt 0.794014 0.2
vt 0.840596 0.2
vt 0.887177 0.2
vt 0.697341 0.5
vt 0.684229 1
vt 0.742672 0.5
vt 0.733931 1
vt 0.74017 0.2
vt 0.767092 0.2
vt 0.693589 0.2
vt 0.647007 0.2
vt 0.693589 0.2
vt 0.74017 0.2
vt 0.25 1
vt 0.342024 1
vt 0.349352 0.983037
vt 0.242672 0.983037
vt 0.621336 0
vt 0.652011 0
vt 0.659647 0.5
vt 0.623245 0.5
vt 0.62005 0.9
vt 0.646867 0.9
vt 0.468644 0
vt 0.453988 0
vt 0.415304 0.0895449
vt 0.422632 0.106508
vt 0.461316 0.016963
vt 0.538684 0.016963
vt 0.531356 0
vt 1 0.421302
vt 0.992672 0.404339
vt 0.939332 0.527809
vt 0.953988 0.527809
vt 0.318677 0
vt 0.349352 0
vt 0.362716 0.5
vt 0.326314 0.5
vt 0.34035 0.9
vt 0.313533 0.9
vt 0.985344 0.421302
vt 0.953988 0.314794
vt 0.939332 0.314794
vt 0.289912 0.5
vt 0.288003 0
vt 0.313533 0.9
vt 0.286717 0.9
vt 0.406138 0.5
vt 0.386966 0.9
vt 0.2401 0.9
vt 0.24649 0.5
vt 0.286717 0.9
vt 0.242672 0
vt 0.817996 0.527809
vt 0.810668 0.510846
vt 0.742672 0.668243
vt 0.757328 0.668243
vt 0.94666 0.510846
vt 0.394682 0
vt 0.440013 0
vt 0.449559 0.5
vt 0.10668 0
vt 0.116226 0.5
vt 0.0798236 0.5
vt 0.0760053 0
vt 0.810668 0.331757
vt 0.817996 0.314794
vt 0.75 0.157397
vt 0.735344 0.157397
vt 0.94666 0.331757
vt 0.203069 0.5
vt 0.197341 0
vt 0.2401 0.9
vt 0.193483 0.9
vt 0.614008 0.157397
vt 0.60668 0.17436
vt 0.742672 0.17436
vt 0.546012 0
vt 0.152011 0
vt 0.159647 0.5
vt 0.146867 0.9
vt 0.10025 0.9
vt 0.193483 0.9
vt 0.146867 0.9
vt 0 0.736095
vt 0.00732807 0.753058
vt 0.060668 0.629587
vt 0.0460118 0.629587
vt 0.773346 0
vt 0.804021 0
vt 0.819294 0.5
vt 0.782892 0.5
vt 0.766917 0.9
vt 0.793733 0.9
vt 0.433583 0.9
vt 0.492981 0.5
vt 0.4802 0.9
vt 0.433583 0.9
vt 0.614008 0.685206
vt 0.60668 0.668243
vt 0.538684 0.82564
vt 0.55334 0.82564
vt 0.75 0.685206
vt 0.485344 0
vt 0.573433 0.9
vt 0.579824 0.5
vt 0.62005 0.9
vt 0.536402 0.5
vt 0.526817 0.9
vt 0.4802 0.9
vt 0.573433 0.9
vt 0.526817 0.9
vt 0.402692 0.82564
vt 0.41002 0.842603
vt 0.546012 0.842603
vt 0.334696 0.983037
vt 0.530675 0
vt 0.576005 0
vt 0.0146561 0.736095
vt 0.0386838 0.82564
vt 0.0533399 0.82564
vt 0.39332 0.489154
vt 0.385992 0.472191
vt 0.25 0.472191
vt 0.242672 0.489154
vt 0.475972 0.263905
vt 0.490629 0.263905
vt 0.407976 0.106508
vt 0.0453307 0
vt 0.0434215 0.5
vt 0.894682 0
vt 0.940013 0
vt 0.949559 0.5
vt 0.906138 0.5
vt 1 0.5
vt 0.0734333 0.9
vt 0.10025 0.9
vt 0.0734333 0.9
vt 0.0466167 0.9
vt 0 0.9
vt 0.933583 0.9
vt 1 0.9
vt 0.886966 0.9
vt 0.862716 0.5
vt 0.84035 0.9
vt 0.793733 0.9
vt 0.84035 0.9
vt 0.886966 0.9
vt 0.182004 0.629587
vt 0.189332 0.64655
vt 0.257328 0.489154
vt 0.0533399 0.64655
vt 0.849352 0
vt 0.74649 0.5
vt 0.766917 0.9
vt 0.7401 0.9
vt 0.693483 0.9
vt 0.703069 0.5
vt 0.646867 0.9
vt 0.182004 0.842603
vt 0.189332 0.82564
vt 0.0460118 0.842603
vt 0.257328 0.983037
vt 0.697341 0
vt 0.742672 0
vt 0.390794 0.125563
vt 0.455926 0.275338
vt 0.619735 0.149775
vt 0.554603 0
vt 0.445397 0
vt 0.815132 0.29955
vt 0.392563 0.421044
vt 0.998231 0.421044
vt 0.945397 0.29955
vt 0.75 0.149775
vt 0.184868 0.5991
vt 0.551065 0.850225
vt 0.376726 0.449325
vt 0.25 0.449325
vt 0.424339 0.850225
vt 0.184868 0.850225
vt 0.25 1
vt 0.359206 1
vt 0 0.724662
vt 0.0546031 0.850225
vt 0.0546031 0.5991
vt 0.931551 0.833333
vt 0.958333 0.5
vt 1 0.5
vt 1 0.833333
vt 0.380265 0.449325
vt 0.409619 0.524962
vt 0.454809 0.421044
vt 0.949559 0
vt 1 0
vt 0.454809 0.628881
vt 0.619735 0.70045
vt 0.75 0.70045
vt 0.781123 0.628881
vt 0.554603 0.850225
vt 0.478574 0.833333
vt 0.635572 0.628881
vt 0.815132 0.550675
vt 0.945397 0.550675
vt 1 0.425113
vt 0.545191 0.421044
vt 0.590381 0.524962
vt 0.545191 0.628881

vn 0 -1 0
vn 0 0 1
vn -0.866025 0 0.5
vn -0.866025 0 0.5
vn -0.866025 0 -0.5
vn -0.866025 0 -0.5
vn -0.866025 0 -0.5
vn 0 0 -1
vn 0.866025 0 0.5
vn 0.866025 0 0.5
vn 0.866025 0 -0.5
vn 0.866025 0 -0.5
vn -0.866025 0 -0.5
vn -0.866025 0 0.5
vn -0.866025 0 0.5
vn 0.866025 0 0.5
vn 0.866025 0 0.5
vn 0.866025 0 0.5
vn 0.866025 0 0.5
vn 0.866025 0 0.5
vn 0.866025 0 -0.5
vn 0.866025 0 -0.5
vn 0.866025 0 -0.5
vn 0.866025 0 -0.5
vn 0.866025 0 -0.5
vn 0.866025 0 -0.5
vn 0.866025 0 -0.5
vn -0.866025 0 -0.5
vn -0.866025 0 -0.5
vn -0.866025 0 -0.5
vn -0.866025 0 0.5
vn -0.866025 0 0.5
vn -0.866025 0 0.5
vn -0.866025 0 -0.5
vn -0.866025 0 -0.5
vn -0.866025 0 -0.5
vn -0.866025 0 0.5
vn -0.866025 0 0.5
vn 0.866025 0 0.5
vn 0.866025 0 0.5
vn 0.866025 0 -0.5
vn 0.866025 0 0.5
vn 0.866025 0 0.5
vn 0.866025 0 -0.5
vn 0 1 0
vn 0.866025 0 -0.5
vn 0.866025 0 -0.5
vn 0.866025 0 -0.5
vn 0.866025 0 0.5
vn 0.866025 0 0.5
vn 0.866025 0 0.5
vn 0.866025 0 -0.5
vn 0.866025 0 0.5
vn 0.866025 0 0.5
vn 0.866025 0 0.5
vn -0.866025 0 0.5
vn -0.866025 0 0.5
vn -0.866025 0 0.5
vn 0.866025 0 -0.5
vn 0.866025 0 -0.5
vn 0.866025 0 -0.5
vn -0.866025 0 0.5
vn -0.866025 0 0.5
vn -0.866025 0 0.5
vn -0.866025 0 0.5
vn -0.866025 0 0.5
vn -0.866025 0 0.5
vn -0.866025 0 0.5
vn -0.866025 0 -0.5
vn -0.866025 0 -0.5
vn -0.866025 0 -0.5
vn -0.866025 0 -0.5
vn 0.866025 0 -0.5
vn 0.866025 0 -0.5
vn 0.866025 0 0.5
vn 0.866025 0 0.5
vn 0.866025 0 0.5
vn -0.866025 0 0.5
vn 0.866025 0 -0.5
vn 0.866025 0 -0.5
vn -0.866025 0 0.5
vn -0.866025 0 0.5
vn -0.866025 0 0.5
vn -0.866025 0 0.5
vn -0.866025 0 -0.5
vn -0.866025 0 0.5
vn -0.866025 0 0.5
vn 0.866025 0 -0.5

f 1/1/1 2/2/1 3/3/1 4/4/1 5/5/1 6/6/1
f 6/7/2 7/8/2 8/9/2 1/10/2
f 2/11/3 1/10/3 8/9/4 9/12/4
f 3/13/5 2/11/5 9/14/6 10/15/7
f 4/16/8 3/13/8 11/17/8 12/18/8
f 5/19/9 13/20/10 14/21/10 6/22/9
f 5/19/11 4/16/11 15/23/12 16/24/12
f 17/22/13 18/25/13 19/26/13 20/2/13
f 18/25/14 21/27/14 22/28/15 19/26/15
f 21/27/2 23/29/2 24/30/2 22/28/2
f 23/29/16 25/31/16 26/32/16 24/30/16
f 25/31/2 27/33/2 28/34/2 26/32/2
f 27/33/17 29/35/17 30/36/18 28/34/18
f 29/35/2 31/37/2 32/38/2 30/36/2
f 31/37/19 33/39/19 34/40/20 32/38/20
f 33/39/21 35/41/21 36/42/22 34/40/22
f 35/41/8 37/43/8 38/44/8 36/42/8
f 37/43/23 39/45/23 40/46/24 38/44/24
f 39/45/8 41/47/8 42/48/8 40/46/8
f 41/47/25 43/49/25 44/50/25 42/48/25
f 43/49/8 45/51/8 46/52/8 44/50/8
f 45/51/26 47/53/26 48/54/27 46/52/27
f 47/53/8 49/55/8 50/56/8 48/54/8
f 49/55/28 51/57/28 52/58/28 50/56/28
f 51/57/8 53/59/8 54/60/8 52/58/8
f 53/59/29 55/61/29 56/62/30 54/60/30
f 55/61/31 57/63/31 58/64/32 56/62/32
f 57/63/2 59/65/2 60/66/2 58/64/2
f 59/65/33 61/67/33 62/68/33 60/66/33
f 54/60/8 63/69/8 64/70/8 52/58/8
f 56/62/30 65/71/34 66/72/35 54/60/30
f 19/26/13 67/73/36 68/74/36 20/2/13
f 69/75/37 19/26/15 22/28/15 70/76/37
f 71/77/2 22/28/2 24/30/2 72/78/2
f 58/64/32 73/79/38 74/71/38 56/62/32
f 58/64/2 60/66/2 75/80/2 73/79/2
f 60/66/33 62/68/33 76/81/33 75/80/33
f 26/32/16 77/82/39 72/78/40 24/30/16
f 78/83/8 44/50/8 46/52/8 79/84/8
f 80/84/27 46/52/27 48/54/27 81/85/27
f 82/85/8 48/54/8 50/56/8 83/86/8
f 50/56/28 52/58/28 84/87/28 83/88/28
f 85/89/41 38/44/24 40/46/24 86/90/41
f 28/34/2 87/91/2 88/92/2 26/32/2
f 28/34/18 30/36/18 89/93/42 90/94/42
f 30/36/2 32/38/2 91/95/2 89/93/2
f 92/95/43 32/38/20 34/40/20 93/96/43
f 94/96/44 34/40/22 36/42/22 95/97/44
f 36/42/8 38/44/8 96/89/8 97/98/8
f 98/99/45 99/100/45 100/101/45 101/102/45 102/103/45
f 103/104/45 104/105/45 105/106/45 106/107/45 107/108/45
f 108/109/45 105/106/45 104/105/45 109/110/45
f 108/109/45 110/111/45 111/112/45
f 112/113/45 111/112/45 113/114/45 114/115/45
f 115/116/45 116/117/45 112/113/45 117/118/45 118/119/45
f 119/120/45 112/113/45 116/117/45 120/121/45
f 105/106/45 119/120/45 100/101/45 99/100/45 121/122/45
f 111/112/45 112/113/45 119/120/45 105/106/45 108/109/45
f 122/123/8 123/124/8 124/125/8 125/126/8
f 122/123/8 125/126/8 114/127/8 113/128/8
f 126/129/46 127/130/47 128/131/47 129/132/46
f 126/129/46 129/132/46 103/133/48 107/134/48
f 130/135/49 131/136/50 132/137/50 126/129/49
f 106/138/51 130/135/49 126/129/49 107/134/51
f 105/139/2 133/140/2 130/135/2 106/138/2
f 134/141/8 104/142/8 103/133/8 129/132/8
f 104/142/41 134/141/41 135/143/41 109/144/41
f 133/140/2 136/145/2 137/146/2 130/135/2
f 138/147/8 134/141/8 129/132/8 139/148/8
f 134/141/41 140/149/52 141/150/52 135/143/41
f 142/151/2 98/152/2 102/153/2 143/154/2
f 98/152/53 142/151/39 144/155/39 99/156/53
f 144/155/2 145/157/2 121/158/2 99/156/2
f 145/157/42 133/140/42 105/139/42 121/158/42
f 142/151/2 143/154/2 146/159/2 147/160/2
f 145/157/42 148/161/54 149/162/54 133/140/42
f 150/163/55 144/155/39 142/151/39 151/164/55
f 144/155/2 152/165/2 153/166/2 145/157/2
f 154/167/56 155/168/57 156/169/57 157/170/56
f 154/167/56 157/170/56 115/171/58 118/172/58
f 158/173/8 108/174/8 109/144/8 135/143/8
f 159/175/8 158/173/8 135/143/8 160/176/8
f 161/177/59 110/178/27 108/174/27 158/173/59
f 161/177/8 162/179/8 111/180/8 110/178/8
f 111/180/27 162/179/25 122/123/25 113/128/27
f 161/177/59 158/173/59 163/181/60 164/182/60
f 161/177/8 165/183/8 166/184/8 162/179/8
f 162/179/25 167/185/61 168/186/61 122/123/25
f 169/2/36 170/187/36 171/188/36 172/189/36
f 172/189/62 173/190/63 174/191/63 143/154/62
f 175/192/2 176/193/2 177/194/2 178/195/2
f 169/5/64 175/192/64 179/196/65 180/197/65
f 169/2/36 172/189/36 101/198/36 100/199/36
f 101/198/66 172/189/62 143/154/62 102/153/66
f 176/193/2 175/192/2 119/200/2 120/201/2
f 175/192/64 169/5/64 100/202/67 119/200/67
f 181/203/2 116/204/2 115/171/2 157/170/2
f 116/204/33 181/203/68 176/193/68 120/201/33
f 182/205/2 181/203/2 157/170/2 183/206/2
f 181/203/68 184/207/68 185/208/68 176/193/68
f 186/209/30 112/210/28 114/127/28 125/126/30
f 186/209/8 187/211/8 117/212/8 112/210/8
f 117/212/69 187/211/70 154/167/70 118/172/69
f 187/211/70 188/213/71 189/214/71 154/167/70
f 190/215/72 186/209/30 125/126/30 191/216/72
f 186/209/8 192/217/8 193/218/8 187/211/8
f 194/219/1 195/220/1 196/221/1 197/222/1
f 195/223/8 194/224/8 198/225/8 199/226/8
f 200/227/8 199/226/8 198/225/8 201/228/8
f 202/229/1 203/230/1 204/231/1 205/232/1
f 202/229/1 206/233/1 207/234/1 208/235/1
f 209/236/1 210/237/1 211/238/1 212/239/1
f 209/240/46 212/241/46 213/242/21 214/243/21
f 213/242/21 215/244/73 216/245/74 214/243/21
f 217/246/1 210/237/1 218/247/1 219/248/1
f 220/249/19 218/250/49 209/240/49 214/243/19
f 220/249/19 214/243/19 216/251/75 221/252/75
f 222/253/8 223/254/8 224/244/8 213/242/8
f 225/255/2 226/256/2 220/249/2 221/257/2
f 226/256/2 227/258/2 218/250/2 220/249/2
f 228/259/1 229/260/1 230/261/1 231/262/1
f 232/263/1 229/260/1 228/259/1 211/238/1
f 228/264/8 222/253/8 213/242/8 212/241/8
f 222/253/23 228/264/41 233/265/41 234/266/23
f 235/267/2 236/268/2 237/269/2 203/270/2
f 238/271/1 227/272/1 239/273/1 240/274/1
f 219/248/1 227/272/1 238/271/1 241/275/1
f 242/276/17 239/277/42 227/258/42 226/256/17
f 242/276/17 226/256/17 225/278/76 243/279/77
f 244/280/1 245/281/1 246/282/1 240/274/1
f 208/235/1 245/281/1 244/280/1 235/283/1
f 244/284/39 247/285/16 236/268/16 235/267/39
f 247/285/2 244/284/2 239/277/2 242/276/2
f 236/268/16 247/285/16 248/286/16 249/287/16
f 247/285/2 242/276/2 250/288/2 251/289/2
f 252/290/1 253/291/1 254/292/1 255/293/1
f 252/294/56 255/295/56 256/296/31 257/297/31
f 258/298/78 257/297/31 256/296/31 259/299/78
f 260/300/79 261/254/80 222/253/23 234/266/23
f 262/301/8 159/302/8 263/303/8 234/266/8
f 264/304/1 265/305/1 266/306/1 267/307/1
f 231/262/1 265/305/1 264/304/1 233/308/1
f 264/309/8 262/301/8 234/266/8 233/265/8
f 268/310/26 269/311/26 199/226/26 200/312/26
f 270/313/25 271/314/25 272/315/25 262/301/25
f 270/313/8 269/311/8 268/316/8 273/317/8
f 274/318/1 275/319/1 276/320/1 267/307/1
f 196/221/1 275/319/1 274/318/1 277/321/1
f 276/322/59 270/313/25 262/301/25 264/309/59
f 276/322/8 275/323/8 269/311/8 270/313/8
f 269/311/26 275/323/25 195/223/25 199/226/26
f 278/324/1 253/291/1 279/325/1 280/326/1
f 281/327/1 282/328/1 283/329/1 284/330/1
f 285/331/1 286/332/1 204/231/1 287/333/1
f 285/331/1 282/328/1 281/327/1 286/332/1
f 285/22/36 287/334/36 288/335/13 289/2/13
f 288/335/14 287/334/62 203/270/62 237/269/14
f 283/336/2 282/337/2 290/338/2 291/339/2
f 282/337/64 285/7/64 289/340/81 290/338/81
f 292/341/2 237/269/2 236/268/2 147/342/2
f 293/343/82 294/344/83 288/335/14 237/269/14
f 294/344/36 295/345/36 289/2/13 288/335/13
f 296/346/84 290/338/81 289/340/81 297/347/84
f 298/348/2 291/339/2 290/338/2 296/346/2
f 299/349/2 300/350/2 301/351/2 256/296/2
f 302/352/68 299/349/33 291/339/33 303/353/68
f 304/354/1 305/355/1 306/356/1 284/330/1
f 307/357/1 305/355/1 304/354/1 254/292/1
f 304/358/2 299/349/2 256/296/2 255/295/2
f 299/349/33 304/358/68 283/336/68 291/339/33
f 308/359/29 257/297/29 309/360/85 310/361/85
f 311/362/8 312/363/8 308/359/8 313/361/8
f 312/363/28 314/362/28 201/364/28 198/225/28
f 315/365/1 316/366/1 279/325/1 317/367/1
f 318/368/1 316/366/1 315/365/1 197/222/1
f 315/369/30 312/363/28 198/225/28 194/224/30
f 315/369/8 317/370/8 308/359/8 312/363/8
f 308/359/29 317/370/70 252/294/70 257/297/29
f 18/371/1 17/372/1 25/373/1 23/374/1 21/375/1
f 29/376/1 319/377/1 320/378/1 31/379/1
f 17/372/1 319/377/1 29/376/1 27/380/1 25/373/1
f 59/381/1 321/382/1 322/383/1 61/384/1
f 45/385/1 51/386/1 49/387/1 47/388/1
f 55/389/1 53/390/1 321/382/1 59/381/1 57/391/1
f 323/392/86 324/393/87 20/394/87 325/395/86
f 326/392/2 327/81/2 62/68/2 324/393/2
f 328/396/1 329/397/1 330/398/1 319/377/1
f 328/396/1 322/383/1 329/397/1
f 328/399/2 324/393/2 62/68/2 61/67/2
f 328/399/81 17/400/81 20/394/87 324/393/87
f 331/401/1 41/402/1 39/403/1 332/404/1
f 43/405/1 41/402/1 331/401/1 321/382/1
f 333/406/88 42/48/25 44/50/25 334/83/88
f 335/90/8 40/46/8 42/48/8 336/406/8
f 337/407/1 332/404/1 37/408/1
f 37/408/1 35/409/1 33/410/1
f 37/408/1 33/410/1 320/378/1 338/411/1 337/407/1
f 337/407/1 339/412/1 340/413/1