v 0.25 0 -1.29904 1 0.52549 0.439216
v -0.125 0 -1.08253 1 0.52549 0.439216
v -0.125 0.45 -1.08253 1 0.52549 0.439216
v 0.25 0.45 -1.29904 1 0.52549 0.439216
v 0.625 0 -1.51554 1 0.52549 0.439216
v 0.25 0.3 -1.29904 1 0.52549 0.439216
v 0.625 0.3 -1.51554 1 0.52549 0.439216
v 1 0 -1.73205 1 0.52549 0.439216
v 0.625 0.15 -1.51554 1 0.52549 0.439216
v 1 0.15 -1.73205 1 0.52549 0.439216
v -0.125 0 -0.649519 1 0.52549 0.439216
v -0.5 0 -0.866025 1 0.52549 0.439216
v 0.25 0 -0.433013 1 0.52549 0.439216
v 0.625 0 -0.216506 1 0.52549 0.439216
v -0.5 0.6 -0.866025 1 0.52549 0.439216
v -0.125 0.6 -0.649519 1 0.52549 0.439216
v -0.125 0.6 -1.08253 1 0.52549 0.439216
v -0.125 0.45 -0.649519 1 0.52549 0.439216
v 0.25 0.45 -0.433013 1 0.52549 0.439216
v 0.25 0.3 -0.433013 1 0.52549 0.439216
v 0.625 0.3 -0.216506 1 0.52549 0.439216
v 0.625 0.15 -0.216506 1 0.52549 0.439216
v -0.125 0.6 -0.649519 1 0.52549 0.439216
v -0.5 0.6 -0.866025 1 0.52549 0.439216
v -0.5 0.6 0.866025 1 0.52549 0.439216
v -0.125 0.6 0.649519 1 0.52549 0.439216
v -0.125 0 0.649519 1 0.52549 0.439216
v -0.5 0 0.866025 1 0.52549 0.439216
v -0.5 0 -0.866025 1 0.52549 0.439216
v -0.125 0 -0.649519 1 0.52549 0.439216
v 1 0 -1.6e-11 1 0.52549 0.439216
v 0.625 0 0.216506 1 0.52549 0.439216
v 0.625 0 -0.216506 1 0.52549 0.439216
v 1 0 -8e-12 1 0.52549 0.439216
v 0.25 0 0.433013 1 0.52549 0.439216
v 0.25 0 -0.433013 1 0.52549 0.439216
v 1 0.15 -1.6e-11 1 0.52549 0.439216
v 1 0.15 -8e-12 1 0.52549 0.439216
v 0.625 0.15 -0.216506 1 0.52549 0.439216
v 0.625 0.15 0.216506 1 0.52549 0.439216
v 0.625 0.3 0.216506 1 0.52549 0.439216
v 0.625 0.3 -0.216506 1 0.52549 0.439216
v -0.125 0.45 0.649519 1 0.52549 0.439216
v -0.125 0.45 -0.649519 1 0.52549 0.439216
v 0.25 0.45 -0.433013 1 0.52549 0.439216
v 0.25 0.45 0.433013 1 0.52549 0.439216
v 0.25 0.3 0.433013 1 0.52549 0.439216
v 0.25 0.3 -0.433013 1 0.52549 0.439216
v -0.125 0 1.08253 1 0.52549 0.439216
v 0.25 0 1.29904 1 0.52549 0.439216
v 0.25 0.45 1.29904 1 0.52549 0.439216
v -0.125 0.45 1.08253 1 0.52549 0.439216
v 0.625 0 1.51554 1 0.52549 0.439216
v 0.625 0.3 1.51554 1 0.52549 0.439216
v 0.25 0.3 1.29904 1 0.52549 0.439216
v 1 0 1.73205 1 0.52549 0.439216
v 1 0.15 1.73205 1 0.52549 0.439216
v 0.625 0.15 1.51554 1 0.52549 0.439216
v -0.125 0 0.649519 1 0.52549 0.439216
v -0.5 0 0.866025 1 0.52549 0.439216
v 0.625 0.15 0.216506 1 0.52549 0.439216
v 0.625 0.3 0.216506 1 0.52549 0.439216
v 0.25 0 0.433013 1 0.52549 0.439216
v 0.625 0 0.216506 1 0.52549 0.439216
v 1 0 8e-12 1 0.52549 0.439216
v 1 0.15 8e-12 1 0.52549 0.439216
v -0.5 0.6 0.866025 1 0.52549 0.439216
v -0.125 0.6 1.08253 1 0.52549 0.439216
v -0.125 0.6 0.649519 1 0.52549 0.439216
v -0.125 0.45 0.649519 1 0.52549 0.439216
v 0.25 0.45 0.433013 1 0.52549 0.439216
v 0.25 0.3 0.433013 1 0.52549 0.439216

f 1 2 3 4
f 5 1 6 7
f 8 5 9 10
f 2 11 12
f 2 1 13 11
f 1 5 14 13
f 15 16 17
f 16 18 3 17
f 18 19 4 3
f 19 20 6 4
f 15 17 2 12
f 20 21 7 6
f 21 22 9 7
f 23 24 25 26
f 27 28 29 30
f 25 24 29 28
f 5 8 31 14
f 32 33 34
f 32 35 36 33
f 35 27 30 36
f 31 8 10 37
f 22 37 10 9
f 38 39 40
f 41 40 39 42
f 23 26 43 44
f 45 44 43 46
f 45 46 47 48
f 42 48 47 41
f 49 50 51 52
f 50 53 54 55
f 53 56 57 58
f 59 49 60
f 54 58 61 62
f 59 63 50 49
f 63 64 53 50
f 64 65 56 53
f 58 57 66 61
f 56 65 66 57
f 67 68 69
f 68 52 70 69
f 68 67 60 49
f 52 51 71 70
f 51 55 72 71
f 55 54 62 72