v -0.5 1 0.866025 1 0 0
v -2 1 0 1 0 0
v -2 1 0.34641 1 0 0
v -0.8 1 1.03923 1 0 0
v -2 0 0.34641 0 0 1
v -0.8 0 1.03923 0 0 1
v -0.8 1 1.03923 0 0 1
v -2 1 0.34641 0 0 1
v -2 1 -1.73205 1 0 0
v -0.5 1 -2.59808 1 0 0
v -0.8 1 -2.77128 1 0 0
v -2 1 -2.07846 1 0 0
v -0.8 0 -2.77128 0 0 1
v -2 0 -2.07846 0 0 1
v -2 1 -2.07846 0 0 1
v -0.8 1 -2.77128 0 0 1
v 2.5 1 -0.866025 1 0 0
v 1 1 0 1 0 0
v 1.3 1 0.173205 1 0 0
v 2.5 1 -0.519615 1 0 0
v 1.3 0 0.173205 0 0 1
v 2.5 0 -0.519615 0 0 1
v 2.5 1 -0.519615 0 0 1
v 1.3 1 0.173205 0 0 1
v 2.8 1 -1.03923 1 0 0
v 2.5 1 -1.21244 1 0 0
v 2.5 1 -1.21244 0 0 1
v 2.8 1 -1.03923 0 0 1
v 2.8 0 -1.03923 0 0 1
v 2.5 0 -1.21244 0 0 1
v 1 1 1.73205 1 0 0
v 1.3 1 1.55885 1 0 0
v 1.3 0 1.55885 0 0 1
v 1.3 1 1.55885 0 0 1
v -0.5 1 1.21244 1 0 0
v -0.5 1 1.21244 0 0 1
v -0.5 0 1.21244 0 0 1
v -0.2 1 -2.77128 1 0 0
v -0.5 1 -2.94449 1 0 0
v -0.5 1 -2.94449 0 0 1
v -0.2 1 -2.77128 0 0 1
v -0.2 0 -2.77128 0 0 1
v -0.5 0 -2.94449 0 0 1
v 0.7 1 1.90526 1 0 0
v 0.7 0 1.90526 0 0 1
v 0.7 1 1.90526 0 0 1
v 1 1 -1.73205 1 0 0
v 1 1 -2.07846 1 0 0
v 1 0 -2.07846 0 0 1
v 1 1 -2.07846 0 0 1
v -2.3 1 -1.90526 1 0 0
v -2.3 1 -1.90526 0 0 1
v -2.3 0 -1.90526 0 0 1
v 2.8 1 -0.69282 1 0 0
v 2.8 1 -0.69282 0 0 1
v 2.8 0 -0.69282 0 0 1
v 1.3 1 -1.90526 1 0 0
v 1.3 1 -1.90526 0 0 1
v 1.3 0 -1.90526 0 0 1
v 1 1 2.07846 1 0 0
v 1 1 2.07846 0 0 1
v 1 0 2.07846 0 0 1
v -2.3 1 -0.173205 1 0 0
v -2.3 1 0.173205 1 0 0
v -2.3 1 0.173205 0 0 1
v -2.3 1 -0.173205 0 0 1
v -2.3 0 -0.173205 0 0 1
v -2.3 0 0.173205 0 0 1
v -2.3 1 -1.55885 1 0 0
v -2.3 0 -1.55885 0 0 1
v -2.3 1 -1.55885 0 0 1
v 1.3 1 1.90526 1 0 0
v 1.3 1 1.90526 0 0 1
v 1.3 0 1.90526 0 0 1
v 1 1 0 0 1 0
v -0.5 1 0.866025 0 1 0
v 1 1 1.73205 0 1 0
v -0.5 1 -0.866025 0 1 0
v -2 1 0 0 1 0
v -2 1 -1.73205 0 1 0
v -0.5 1 -2.59808 0 1 0
v 1 1 -1.73205 0 1 0
v 2.5 1 -0.866025 0 1 0

f 1 2 3 4
f 5 6 7 8
f 9 10 11 12
f 13 14 15 16
f 17 18 19 20
f 21 22 23 24
f 25 26 17
f 27 28 29 30
f 18 31 32 19
f 33 21 24 34
f 4 35 1
f 36 7 6 37
f 38 39 10
f 40 41 42 43
f 31 1 35 44
f 37 45 46 36
f 10 47 48 38
f 49 42 41 50
f 12 51 9
f 52 15 14 53
f 54 25 17
f 28 55 56 29
f 57 48 47
f 50 58 59 49
f 44 60 31
f 61 46 45 62
f 39 11 10
f 16 40 43 13
f 63 64 2
f 65 66 67 68
f 2 9 69 63
f 70 67 66 71
f 64 3 2
f 8 65 68 5
f 72 32 31
f 34 73 74 33
f 47 17 26 57
f 30 59 58 27
f 60 72 31
f 73 61 62 74
f 51 69 9
f 71 52 53 70
f 20 54 17
f 55 23 22 56
f 75 76 77
f 76 75 78
f 78 79 76
f 79 78 80
f 81 80 78
f 82 78 75
f 75 83 82