v 1 1 0 0 1 0
v 2.5 1 0.866025 0 1 0
v 2.5 1 0.519615 0 1 0
v 1.3 1 -0.173205 0 1 0
v 2.5 0 0.519615 0 0 1
v 1.3 0 -0.173205 0 0 1
v 1.3 1 -0.173205 0 0 1
v 2.5 1 0.519615 0 0 1
v -0.8 1 1.03923 1 0 0
v -0.5 1 1.21244 1 0 0
v -0.5 1 0.866025 1 0 0
v -0.5 1 1.21244 0 0 1
v -0.8 1 1.03923 0 0 1
v -0.8 0 1.03923 0 0 1
v -0.5 0 1.21244 0 0 1
v -0.2 1 -2.77128 1 0 0
v -0.5 1 -2.94449 1 0 0
v -0.5 1 -2.59808 1 0 0
v -0.5 1 -2.94449 0 0 1
v -0.2 1 -2.77128 0 0 1
v -0.2 0 -2.77128 0 0 1
v -0.5 0 -2.94449 0 0 1
v 1 1 1.73205 0 1 0
v 1.3 1 1.90526 0 1 0
v 2.5 1 1.21244 0 1 0
v 1.3 0 1.90526 0 0 1
v 2.5 0 1.21244 0 0 1
v 2.5 1 1.21244 0 0 1
v 1.3 1 1.90526 0 0 1
v 1.3 1 -1.55885 1 0 0
v 1.3 1 -1.90526 1 0 0
v 1 1 -1.73205 1 0 0
v 1.3 1 -1.90526 0 0 1
v 1.3 1 -1.55885 0 0 1
v 1.3 0 -1.55885 0 0 1
v 1.3 0 -1.90526 0 0 1
v -2 1 -2.07846 1 0 0
v -2.3 1 -1.90526 1 0 0
v -2 1 -1.73205 1 0 0
v -2.3 1 -1.90526 0 0 1
v -2 1 -2.07846 0 0 1
v -2 0 -2.07846 0 0 1
v -2.3 0 -1.90526 0 0 1
v -0.5 1 -2.59808 0 1 0
v 1 1 -1.73205 0 1 0
v 1 1 -2.07846 0 1 0
v -0.2 1 -2.77128 0 1 0
v 1 0 -2.07846 0 0 1
v 1 1 -2.07846 0 0 1
v -2.3 1 -0.173205 1 0 0
v -2.3 1 0.173205 1 0 0
v -2 1 0 1 0 0
v -2.3 1 0.173205 0 0 1
v -2.3 1 -0.173205 0 0 1
v -2.3 0 -0.173205 0 0 1
v -2.3 0 0.173205 0 0 1
v -2 1 0.34641 1 0 0
v -2 1 0.34641 0 0 1
v -2 0 0.34641 0 0 1
v 1 1 -2.07846 1 0 0
v 1.3 1 -1.55885 0 1 0
v -2 1 0 0 1 0
v -2 1 -1.73205 0 1 0
v -2.3 1 -1.55885 0 1 0
v -2.3 1 -0.173205 0 1 0
v -2.3 0 -1.55885 0 0 1
v -2.3 1 -1.55885 0 0 1
v -0.8 1 -2.77128 1 0 0
v -0.8 1 -2.77128 0 0 1
v -0.8 0 -2.77128 0 0 1
v -0.5 1 0.866025 0 1 0
v -2 1 0.34641 0 1 0
v -0.8 1 1.03923 0 1 0
v 2.8 1 0.69282 1 0 0
v 2.5 1 0.519615 1 0 0
v 2.5 1 0.866025 1 0 0
v 2.8 1 0.69282 0 0 1
v 2.8 0 0.69282 0 0 1
v -0.8 1 -2.77128 0 1 0
v -2 1 -2.07846 0 1 0
v -0.5 1 1.21244 0 1 0
v 0.7 1 1.90526 0 1 0
v 0.7 0 1.90526 0 0 1
v 0.7 1 1.90526 0 0 1
v 2.8 1 1.03923 1 0 0
v 2.8 1 1.03923 0 0 1
v 2.8 0 1.03923 0 0 1
v 0.7 1 1.90526 1 0 0
v 1 1 2.07846 1 0 0
v 1 1 1.73205 1 0 0
v 1 1 2.07846 0 0 1
v 1 0 2.07846 0 0 1
v 2.5 1 1.21244 1 0 0
v -2.3 1 -1.55885 1 0 0
v 1.3 1 1.90526 1 0 0

vt 0 0.833333
vt 1 0
vt 1 0.333333
vt 0.2 1
vt 1 1
vt 0 1
vt 0 0
vt 0 0.5
vt 1 0.5
vt 0 0.166667
vt 0.2 0
vt 1 0.666667
vt 0 0.5
vt 0 0.5
vt 0 0.833333
vt 1 0.5
vt 0 0.5
vt 1 0.5
vt 1 0.1
vt 1 0.9
vt 0 0.9
vt 0 0.1
vt 0 0.5
vt 1 0.166667
vt 0 0.666667
vt 0.8 0
vt 1 0.5
vt 1 0.833333
vt 0.8 1
vt 0 0.333333
vt 0 0.666667
vt 0.8 0
vt 0 0.5
vt 1 0.5

f 1/1 2/2 3/3 4/4
f 5/5 6/6 7/7 8/2
f 9/8 10/2 11/5
f 12/2 13/7 14/6 15/5
f 16/9 17/6 18/7
f 19/7 20/2 21/5 22/6
f 2/5 23/10 24/11 25/12
f 26/6 27/5 28/2 29/7
f 30/2 31/5 32/13
f 33/5 34/2 35/7 36/6
f 37/5 38/14 39/2
f 40/7 41/2 42/5 43/6
f 44/15 45/2 46/3 47/4
f 48/5 21/6 20/7 49/2
f 50/6 51/7 52/16
f 53/2 54/5 55/6 56/7
f 51/17 57/2 52/5
f 58/2 53/7 56/6 59/5
f 31/18 60/6 32/7
f 49/7 33/2 36/5 48/6
f 45/6 1/7 4/19 61/20
f 6/7 35/6 34/5 7/2
f 62/2 63/5 64/21 65/22
f 66/6 55/7 54/2 67/5
f 17/5 68/23 18/2
f 69/7 19/2 22/5 70/6
f 71/24 62/6 72/25 73/26
f 59/6 14/5 13/2 58/7
f 74/27 75/6 76/7
f 8/7 77/2 78/5 5/6
f 63/7 44/28 79/29 80/30
f 70/5 42/6 41/7 69/2
f 23/24 71/6 81/31 82/32
f 15/6 83/5 84/2 12/7
f 85/2 74/5 76/33
f 77/5 86/2 87/7 78/6
f 88/13 89/2 90/5
f 91/2 84/7 83/6 92/5
f 93/7 85/27 76/6
f 86/2 28/7 27/6 87/5
f 38/6 94/7 39/34
f 67/2 40/5 43/6 66/7
f 89/7 95/34 90/6
f 29/2 91/7 92/6 26/5