v -0.190476 0 0.164957 0.396078 0.262745 0.129412
v -0.119048 0 0.0412393 0.396078 0.262745 0.129412
v 0.0238095 0 0.0412393 0.396078 0.262745 0.129412
v 0.0952381 0 0.164957 0.396078 0.262745 0.129412
v 0.0238095 0 0.288675 0.396078 0.262745 0.129412
v -0.119048 0 0.288675 0.396078 0.262745 0.129412
v -0.146738 0.25 0.164957 0.60404 0.672727 0.741414
v -0.0971783 0.25 0.0791181 0.60404 0.672727 0.741414
v -0.0971783 0.25 0.250796 0.60404 0.672727 0.741414
v 0.0019402 0.25 0.0791181 0.60404 0.672727 0.741414
v 0.0019402 0.25 0.250796 0.60404 0.672727 0.741414
v -0.0971783 0.25 0.250796 0.60404 0.672727 0.741414
v 0.0514994 0.25 0.164957 0.60404 0.672727 0.741414
v 0.0019402 0.25 0.0791181 0.60404 0.672727 0.741414
v 0.0514994 0.25 0.164957 0.60404 0.672727 0.741414
v 0.274167 0.25 0.227436 0.903529 0.793333 0.746667
v 0.417024 0.25 0.227436 0.903529 0.793333 0.746667
v 0.428571 0.325 0.247436 0.903529 0.793333 0.746667
v 0.285714 0.325 0.247436 0.903529 0.793333 0.746667
v 0.476906 0.25 0.123718 0.903529 0.793333 0.746667
v 0.5 0.325 0.123718 0.903529 0.793333 0.746667
v 0.417024 0.25 0.02 0.903529 0.793333 0.746667
v 0.428571 0.325 0 0.903529 0.793333 0.746667
v 0.274167 0.25 0.02 0.903529 0.793333 0.746667
v 0.285714 0.325 0 0.903529 0.793333 0.746667
v 0.202739 0.25 -0.103718 0.903529 0.793333 0.746667
v 0.214286 0.325 -0.123718 0.903529 0.793333 0.746667
v 0.0598816 0.25 -0.103718 0.903529 0.793333 0.746667
v 0.0714286 0.325 -0.123718 0.903529 0.793333 0.746667
v -0.011547 0.25 -0.227436 0.903529 0.793333 0.746667
v 0 0.325 -0.247436 0.903529 0.793333 0.746667
v -0.13131 0.25 -0.227436 0.903529 0.793333 0.746667
v -0.142857 0.325 -0.247436 0.903529 0.793333 0.746667
v -0.202739 0.25 -0.103718 0.903529 0.793333 0.746667
v -0.214286 0.325 -0.123718 0.903529 0.793333 0.746667
v -0.345596 0.25 -0.103718 0.903529 0.793333 0.746667
v -0.357143 0.325 -0.123718 0.903529 0.793333 0.746667
v -0.405477 0.25 0 0.903529 0.793333 0.746667
v -0.428571 0.325 0 0.903529 0.793333 0.746667
v -0.334049 0.25 0.123718 0.903529 0.793333 0.746667
v -0.357143 0.325 0.123718 0.903529 0.793333 0.746667
v -0.405477 0.25 0.247436 0.903529 0.793333 0.746667
v -0.428571 0.325 0.247436 0.903529 0.793333 0.746667
v -0.334049 0.25 0.371154 0.903529 0.793333 0.746667
v -0.357143 0.325 0.371154 0.903529 0.793333 0.746667
v -0.405477 0.25 0.494872 0.903529 0.793333 0.746667
v -0.428571 0.325 0.494872 0.903529 0.793333 0.746667
v -0.345596 0.25 0.59859 0.903529 0.793333 0.746667
v -0.357143 0.325 0.61859 0.903529 0.793333 0.746667
v -0.225833 0.25 0.59859 0.903529 0.793333 0.746667
v -0.214286 0.325 0.61859 0.903529 0.793333 0.746667
v -0.154404 0.25 0.474872 0.903529 0.793333 0.746667
v -0.142857 0.325 0.494872 0.903529 0.793333 0.746667
v -0.011547 0.25 0.474872 0.903529 0.793333 0.746667
v 0 0.325 0.494872 0.903529 0.793333 0.746667
v 0.0598816 0.25 0.351154 0.903529 0.793333 0.746667
v 0.0714286 0.325 0.371154 0.903529 0.793333 0.746667
v 0.202739 0.25 0.351154 0.903529 0.793333 0.746667
v 0.214286 0.325 0.371154 0.903529 0.793333 0.746667
v -0.295559 0.475 0.371154 0.718431 0.662353 0.655686
v -0.366987 0.475 0.494872 0.718431 0.662353 0.655686
v -0.326351 0.475 0.565256 0.718431 0.662353 0.655686
v -0.245078 0.475 0.565256 0.718431 0.662353 0.655686
v -0.173649 0.475 0.441538 0.718431 0.662353 0.655686
v -0.030792 0.475 0.441538 0.718431 0.662353 0.655686
v 0.0406366 0.475 0.31782 0.718431 0.662353 0.655686
v -0.030792 0.475 0.441538 0.718431 0.662353 0.655686
v 0.183494 0.475 0.31782 0.718431 0.662353 0.655686
v 0.0406366 0.475 0.31782 0.718431 0.662353 0.655686
v 0.397779 0.475 0.194102 0.718431 0.662353 0.655686
v 0.254922 0.475 0.194102 0.718431 0.662353 0.655686
v 0.438416 0.475 0.123718 0.718431 0.662353 0.655686
v 0.397779 0.475 0.0533333 0.718431 0.662353 0.655686
v 0.254922 0.475 0.0533333 0.718431 0.662353 0.655686
v -0.366987 0.475 0 0.718431 0.662353 0.655686
v -0.295559 0.475 0.123718 0.718431 0.662353 0.655686
v -0.366987 0.475 0.247436 0.718431 0.662353 0.655686
v 0.183494 0.475 -0.0703846 0.718431 0.662353 0.655686
v 0.254922 0.475 0.0533333 0.718431 0.662353 0.655686
v 0.0406366 0.475 -0.0703846 0.718431 0.662353 0.655686
v 0.183494 0.475 -0.0703846 0.718431 0.662353 0.655686
v -0.030792 0.475 -0.194102 0.718431 0.662353 0.655686
v 0.0406366 0.475 -0.0703846 0.718431 0.662353 0.655686
v -0.112065 0.475 -0.194102 0.718431 0.662353 0.655686
v -0.183494 0.475 -0.0703846 0.718431 0.662353 0.655686
v -0.326351 0.475 -0.0703846 0.718431 0.662353 0.655686
v -0.183494 0.475 -0.0703846 0.718431 0.662353 0.655686
v -0.326351 0.475 -0.0703846 0.718431 0.662353 0.655686
v 0.382383 1 0.08 0.0705882 0.203922 0.337255
v 0.239526 1 0.08 0.0705882 0.203922 0.337255
v 0.239526 1 0.167436 0.0705882 0.203922 0.337255
v 0.382383 1 0.167436 0.0705882 0.203922 0.337255
v 0.407624 1 0.123718 0.0705882 0.203922 0.337255
v -0.168098 1 -0.0437179 0.0705882 0.203922 0.337255
v 0.0252405 1 -0.0437179 0.0705882 0.203922 0.337255
v -0.046188 1 -0.167436 0.0705882 0.203922 0.337255
v -0.0966691 1 -0.167436 0.0705882 0.203922 0.337255
v -0.264767 1 0.123718 0.0705882 0.203922 0.337255
v -0.310955 1 -0.0437179 0.0705882 0.203922 0.337255
v -0.336195 1 0 0.0705882 0.203922 0.337255
v -0.260474 1 0.53859 0.0705882 0.203922 0.337255
v -0.189045 1 0.414872 0.0705882 0.203922 0.337255
v -0.264767 1 0.371154 0.0705882 0.203922 0.337255
v -0.336195 1 0.494872 0.0705882 0.203922 0.337255
v -0.310955 1 0.53859 0.0705882 0.203922 0.337255
v 0.0252405 1 0.291154 0.0705882 0.203922 0.337255
v -0.046188 1 0.414872 0.0705882 0.203922 0.337255
v 0.168098 1 0.291154 0.0705882 0.203922 0.337255
v -0.336195 1 0.247436 0.0705882 0.203922 0.337255
v 0.168098 1 -0.0437179 0.0705882 0.203922 0.337255
v 0.191192 0.775 -0.0837179 0.348235 0.400392 0.473725
v 0.0483346 0.775 -0.0837179 0.348235 0.400392 0.473725
v 0.184264 0.73 -0.0717179 0.403765 0.439686 0.50102
v 0.0414064 0.73 -0.0717179 0.403765 0.439686 0.50102
v -0.334049 0.775 0.57859 0.348235 0.400392 0.473725
v -0.327121 0.73 0.56659 0.403765 0.439686 0.50102
v -0.244308 0.73 0.56659 0.403765 0.439686 0.50102
v -0.23738 0.775 0.57859 0.348235 0.400392 0.473725
v -0.165951 0.775 0.454872 0.348235 0.400392 0.473725
v -0.172879 0.73 0.442872 0.403765 0.439686 0.50102
v -0.244308 0.73 0.56659 0.403765 0.439686 0.50102
v 0.405477 0.775 0.04 0.348235 0.400392 0.473725
v 0.453812 0.775 0.123718 0.348235 0.400392 0.473725
v 0.26262 0.775 0.04 0.348235 0.400392 0.473725
v 0.439956 0.73 0.123718 0.403765 0.439686 0.50102
v 0.398549 0.73 0.052 0.403765 0.439686 0.50102
v 0.255692 0.73 0.052 0.403765 0.439686 0.50102
v 0.398549 0.73 0.052 0.403765 0.439686 0.50102
v 0.255692 0.73 0.052 0.403765 0.439686 0.50102
v 0.184264 0.73 -0.0717179 0.403765 0.439686 0.50102
v -0.0300222 0.73 0.442872 0.403765 0.439686 0.50102
v -0.023094 0.775 0.454872 0.348235 0.400392 0.473725
v -0.172879 0.73 0.442872 0.403765 0.439686 0.50102
v 0.26262 0.775 0.207436 0.348235 0.400392 0.473725
v 0.255692 0.73 0.195436 0.403765 0.439686 0.50102
v 0.398549 0.73 0.195436 0.403765 0.439686 0.50102
v 0.405477 0.775 0.207436 0.348235 0.400392 0.473725
v 0.398549 0.73 0.195436 0.403765 0.439686 0.50102
v 0.439956 0.73 0.123718 0.403765 0.439686 0.50102
v 0.191192 0.775 0.331154 0.348235 0.400392 0.473725
v 0.184264 0.73 0.319154 0.403765 0.439686 0.50102
v 0.255692 0.73 0.195436 0.403765 0.439686 0.50102
v 0.0483346 0.775 0.331154 0.348235 0.400392 0.473725
v 0.0414064 0.73 0.319154 0.403765 0.439686 0.50102
v 0.184264 0.73 0.319154 0.403765 0.439686 0.50102
v 0.0414064 0.73 0.319154 0.403765 0.439686 0.50102
v -0.0300222 0.73 0.442872 0.403765 0.439686 0.50102
v -0.310955 0.775 0.371154 0.348235 0.400392 0.473725
v -0.297098 0.73 0.371154 0.403765 0.439686 0.50102
v -0.368527 0.73 0.494872 0.403765 0.439686 0.50102
v -0.382383 0.775 0.494872 0.348235 0.400392 0.473725
v -0.368527 0.73 0.494872 0.403765 0.439686 0.50102
v -0.327121 0.73 0.56659 0.403765 0.439686 0.50102
v -0.023094 0.775 -0.207436 0.348235 0.400392 0.473725
v -0.0300222 0.73 -0.195436 0.403765 0.439686 0.50102
v 0.0414064 0.73 -0.0717179 0.403765 0.439686 0.50102
v -0.310955 0.775 0.123718 0.348235 0.400392 0.473725
v -0.297098 0.73 0.123718 0.403765 0.439686 0.50102
v -0.368527 0.73 0.247436 0.403765 0.439686 0.50102
v -0.382383 0.775 0.247436 0.348235 0.400392 0.473725
v -0.368527 0.73 0.247436 0.403765 0.439686 0.50102
v -0.119763 0.775 -0.207436 0.348235 0.400392 0.473725
v -0.191192 0.775 -0.0837179 0.348235 0.400392 0.473725
v -0.0300222 0.73 -0.195436 0.403765 0.439686 0.50102
v -0.112835 0.73 -0.195436 0.403765 0.439686 0.50102
v -0.112835 0.73 -0.195436 0.403765 0.439686 0.50102
v -0.184264 0.73 -0.0717179 0.403765 0.439686 0.50102
v -0.382383 0.775 0 0.348235 0.400392 0.473725
v -0.368527 0.73 0 0.403765 0.439686 0.50102
v -0.334049 0.775 -0.0837179 0.348235 0.400392 0.473725
v -0.327121 0.73 -0.0717179 0.403765 0.439686 0.50102
v -0.368527 0.73 0 0.403765 0.439686 0.50102
v -0.327121 0.73 -0.0717179 0.403765 0.439686 0.50102
v -0.184264 0.73 -0.0717179 0.403765 0.439686 0.50102
v 0.191192 0.475 -0.0837179 0.718431 0.662353 0.655686
v 0.19889 0.475 -0.0703846 0.718431 0.662353 0.655686
v 0.0406366 0.475 -0.0703846 0.718431 0.662353 0.655686
v 0.0329386 0.475 -0.0837179 0.718431 0.662353 0.655686
v 0.202739 0.55 -0.103718 0.625882 0.596863 0.610196
v 0.0483346 0.475 -0.0837179 0.718431 0.662353 0.655686
v 0.0598816 0.55 -0.103718 0.625882 0.596863 0.610196
v -0.229682 0.475 0.565256 0.718431 0.662353 0.655686
v -0.23738 0.475 0.57859 0.718431 0.662353 0.655686
v -0.334049 0.475 0.57859 0.718431 0.662353 0.655686
v -0.341747 0.475 0.565256 0.718431 0.662353 0.655686
v -0.225833 0.55 0.59859 0.625882 0.596863 0.610196
v -0.345596 0.55 0.59859 0.625882 0.596863 0.610196
v -0.154404 0.55 0.474872 0.625882 0.596863 0.610196
v -0.172879 0.73 0.442872 0.403765 0.439686 0.50102
v -0.244308 0.73 0.56659 0.403765 0.439686 0.50102
v -0.165951 0.475 0.454872 0.718431 0.662353 0.655686
v -0.326351 0.475 0.565256 0.718431 0.662353 0.655686
v -0.374685 0.475 0.508205 0.718431 0.662353 0.655686
v -0.366987 0.475 0.494872 0.718431 0.662353 0.655686
v 0.446114 0.475 0.110385 0.718431 0.662353 0.655686
v 0.453812 0.475 0.123718 0.718431 0.662353 0.655686
v 0.413175 0.475 0.194102 0.718431 0.662353 0.655686
v 0.397779 0.475 0.194102 0.718431 0.662353 0.655686
v 0.397779 0.475 0.0533333 0.718431 0.662353 0.655686
v 0.413175 0.475 0.0533333 0.718431 0.662353 0.655686
v 0.438416 0.475 0.123718 0.718431 0.662353 0.655686
v 0.417024 0.55 0.02 0.625882 0.596863 0.610196
v 0.274167 0.55 0.02 0.625882 0.596863 0.610196
v 0.255692 0.73 0.052 0.403765 0.439686 0.50102
v 0.398549 0.73 0.052 0.403765 0.439686 0.50102
v 0.184264 0.73 -0.0717179 0.403765 0.439686 0.50102
v 0.405477 0.475 0.04 0.718431 0.662353 0.655686
v 0.476906 0.55 0.123718 0.625882 0.596863 0.610196
v 0.254922 0.475 0.0533333 0.718431 0.662353 0.655686
v 0.26262 0.475 0.04 0.718431 0.662353 0.655686
v 0.183494 0.475 -0.0703846 0.718431 0.662353 0.655686
v -0.173649 0.475 0.441538 0.718431 0.662353 0.655686
v -0.015396 0.475 0.441538 0.718431 0.662353 0.655686
v -0.023094 0.475 0.454872 0.718431 0.662353 0.655686
v -0.245078 0.475 0.565256 0.718431 0.662353 0.655686
v -0.011547 0.55 0.474872 0.625882 0.596863 0.610196
v -0.0300222 0.73 0.442872 0.403765 0.439686 0.50102
v -0.172879 0.73 0.442872 0.403765 0.439686 0.50102
v 0.26262 0.475 0.207436 0.718431 0.662353 0.655686
v 0.254922 0.475 0.194102 0.718431 0.662353 0.655686
v 0.405477 0.475 0.207436 0.718431 0.662353 0.655686
v 0.175796 0.475 0.331154 0.718431 0.662353 0.655686
v 0.191192 0.475 0.331154 0.718431 0.662353 0.655686
v 0.417024 0.55 0.227436 0.625882 0.596863 0.610196
v 0.274167 0.55 0.227436 0.625882 0.596863 0.610196
v 0.202739 0.55 0.351154 0.625882 0.596863 0.610196
v 0.439956 0.73 0.123718 0.403765 0.439686 0.50102
v 0.398549 0.73 0.052 0.403765 0.439686 0.50102
v 0.255692 0.73 0.195436 0.403765 0.439686 0.50102
v 0.398549 0.73 0.195436 0.403765 0.439686 0.50102
v 0.398549 0.73 0.195436 0.403765 0.439686 0.50102
v 0.255692 0.73 0.195436 0.403765 0.439686 0.50102
v 0.184264 0.73 0.319154 0.403765 0.439686 0.50102
v 0.0598816 0.55 0.351154 0.625882 0.596863 0.610196
v 0.0414064 0.73 0.319154 0.403765 0.439686 0.50102
v 0.0483346 0.475 0.331154 0.718431 0.662353 0.655686
v 0.0714286 0.475 0.31782 0.718431 0.662353 0.655686
v 0.183494 0.475 0.31782 0.718431 0.662353 0.655686
v 0.0252405 0.475 0.344487 0.718431 0.662353 0.655686
v 0.0406366 0.475 0.31782 0.718431 0.662353 0.655686
v -0.030792 0.475 0.441538 0.718431 0.662353 0.655686
v -0.295559 0.475 0.371154 0.718431 0.662353 0.655686
v -0.310955 0.475 0.371154 0.718431 0.662353 0.655686
v -0.374685 0.475 0.260769 0.718431 0.662353 0.655686
v -0.366987 0.475 0.247436 0.718431 0.662353 0.655686
v -0.382383 0.475 0.494872 0.718431 0.662353 0.655686
v -0.405477 0.55 0.494872 0.625882 0.596863 0.610196
v -0.334049 0.55 0.371154 0.625882 0.596863 0.610196
v -0.327121 0.73 0.56659 0.403765 0.439686 0.50102
v -0.368527 0.73 0.494872 0.403765 0.439686 0.50102
v -0.368527 0.73 0.494872 0.403765 0.439686 0.50102
v -0.297098 0.73 0.371154 0.403765 0.439686 0.50102
v -0.327121 0.73 0.56659 0.403765 0.439686 0.50102
v -0.244308 0.73 0.56659 0.403765 0.439686 0.50102
v -0.112065 0.475 -0.194102 0.718431 0.662353 0.655686
v -0.104367 0.475 -0.207436 0.718431 0.662353 0.655686
v -0.023094 0.475 -0.207436 0.718431 0.662353 0.655686
v -0.015396 0.475 -0.194102 0.718431 0.662353 0.655686
v 0.0414064 0.73 -0.0717179 0.403765 0.439686 0.50102
v -0.030792 0.475 -0.194102 0.718431 0.662353 0.655686
v -0.011547 0.55 -0.227436 0.625882 0.596863 0.610196
v -0.310955 0.475 0.123718 0.718431 0.662353 0.655686
v -0.382383 0.475 0.247436 0.718431 0.662353 0.655686
v -0.405477 0.55 0.247436 0.625882 0.596863 0.610196
v -0.334049 0.55 0.123718 0.625882 0.596863 0.610196
v -0.297098 0.73 0.123718 0.403765 0.439686 0.50102
v -0.368527 0.73 0.247436 0.403765 0.439686 0.50102
v -0.297098 0.73 0.371154 0.403765 0.439686 0.50102
v -0.0300222 0.73 -0.195436 0.403765 0.439686 0.50102
v -0.13131 0.55 -0.227436 0.625882 0.596863 0.610196
v -0.112835 0.73 -0.195436 0.403765 0.439686 0.50102
v -0.112835 0.73 -0.195436 0.403765 0.439686 0.50102
v -0.202739 0.55 -0.103718 0.625882 0.596863 0.610196
v -0.184264 0.73 -0.0717179 0.403765 0.439686 0.50102
v -0.119763 0.475 -0.207436 0.718431 0.662353 0.655686
v -0.175796 0.475 -0.0837179 0.718431 0.662353 0.655686
v -0.191192 0.475 -0.0837179 0.718431 0.662353 0.655686
v -0.295559 0.475 0.123718 0.718431 0.662353 0.655686
v -0.382383 0.475 0 0.718431 0.662353 0.655686
v -0.374685 0.475 -0.0133333 0.718431 0.662353 0.655686
v -0.405477 0.55 0 0.625882 0.596863 0.610196
v -0.297098 0.73 0.123718 0.403765 0.439686 0.50102
v -0.318653 0.475 -0.0837179 0.718431 0.662353 0.655686
v -0.366987 0.475 0 0.718431 0.662353 0.655686
v -0.334049 0.475 -0.0837179 0.718431 0.662353 0.655686
v -0.345596 0.55 -0.103718 0.625882 0.596863 0.610196
v -0.327121 0.73 -0.0717179 0.403765 0.439686 0.50102
v -0.184264 0.73 -0.0717179 0.403765 0.439686 0.50102
v -0.368527 0.73 0 0.403765 0.439686 0.50102
v -0.326351 0.475 -0.0703846 0.718431 0.662353 0.655686
v -0.183494 0.475 -0.0703846 0.718431 0.662353 0.655686
v 0.0103223 0.25 0.436993 0.903529 0.793333 0.746667
v -0.301857 0.25 -0.103718 0.903529 0.793333 0.746667
v -0.196297 0.25 0.0791181 0.903529 0.793333 0.746667
v 0.451156 0.25 0.0791181 0.903529 0.793333 0.746667
v -0.146738 0.25 0.164957 0.903529 0.793333 0.746667
v -0.0971783 0.25 0.0791181 0.903529 0.793333 0.746667
v 0.0019402 0.25 0.0791181 0.903529 0.793333 0.746667
v 0.159 0.25 0.351154 0.903529 0.793333 0.746667
v 0.13422 0.25 0.308234 0.903529 0.793333 0.746667
v -0.0144573 0.25 0.394073 0.903529 0.793333 0.746667
v 0.101059 0.25 0.250796 0.903529 0.793333 0.746667
v -0.0971783 0.25 0.250796 0.903529 0.793333 0.746667
v 0.0019402 0.25 0.250796 0.903529 0.793333 0.746667
v 0.0514994 0.25 0.164957 0.903529 0.793333 0.746667

vt 0 0.5
vt 0.25 1
vt 0.75 1
vt 1 0.5
vt 0.75 0
vt 0.25 0
vt 0.666667 0
vt 0.833333 0
vt 0.833333 0.757576
vt 0.666667 0.757576
vt 1 0
vt 1 0.757576
vt 0.833333 0.757576
vt 0.5 0.757576
vt 0.5 0
vt 0.666667 0.757576
vt 0.166667 0
vt 0.166667 0.757576
vt 0 0.757576
vt 0 0
vt 0.333333 0
vt 0.333333 0.757576
vt 0.166667 0.757576
vt 0.5 0.757576
vt 0.047551 0
vt 0.0454545 0.5
vt 0.087415 0
vt 0.0909091 0.5
vt 0.127279 0
vt 0.136364 0.5
vt 0.17483 0
vt 0.181818 0.5
vt 0.222381 0
vt 0.227273 0.5
vt 0.269932 0
vt 0.272727 0.5
vt 0.317483 0
vt 0.318182 0.5
vt 0.357347 0
vt 0.363636 0.5
vt 0.404898 0
vt 0.409091 0.5
vt 0.452449 0
vt 0.454545 0.5
vt 0.492313 0
vt 0.5 0.5
vt 0.539864 0
vt 0.545455 0.5
vt 0.587415 0
vt 0.590909 0.5
vt 0.634966 0
vt 0.636364 0.5
vt 0.682517 0
vt 0.681818 0.5
vt 0.722381 0
vt 0.727273 0.5
vt 0.762245 0
vt 0.772727 0.5
vt 0.809796 0
vt 0.818182 0.5
vt 0.857347 0
vt 0.863636 0.5
vt 0.904898 0
vt 0.909091 0.5
vt 0.952449 0
vt 0.954545 0.5
vt 1 0.5
vt 0.632038 0.833333
vt 0.683981 0.833333
vt 0.712133 0.833333
vt 0.740286 0.833333
vt 0.712133 0.833333
vt 0.792229 0.833333
vt 0.740286 0.833333
vt 0.844171 0.833333
vt 0.896114 0.833333
vt 0.844171 0.833333
vt 0.948057 0.833333
vt 0.896114 0.833333
vt 0.0519429 0.833333
vt 0 0.833333
vt 0.0800952 0.833333
vt 0.108248 0.833333
vt 0.16019 0.833333
vt 1 0.833333
vt 0.47621 0.833333
vt 0.528152 0.833333
vt 0.580095 0.833333
vt 0.212133 0.833333
vt 0.16019 0.833333
vt 0.264076 0.833333
vt 0.212133 0.833333
vt 0.316019 0.833333
vt 0.264076 0.833333
vt 0.344171 0.833333
vt 0.396114 0.833333
vt 0.448057 0.833333
vt 0.396114 0.833333
vt 0.448057 0.833333
vt 0.966066 0.649537
vt 0.774007 0.649537
vt 0.774007 0.525695
vt 0.966066 0.525695
vt 1 0.587616
vt 0.225993 0.824768
vt 0.485919 0.824768
vt 0.38989 1
vt 0.322022 1
vt 0.0960295 0.587616
vt 0.0339337 0.824768
vt 0 0.762847
vt 0.101801 0
vt 0.197831 0.175232
vt 0.0960295 0.237153
vt 0 0.0619212
vt 0.0339337 0
vt 0.485919 0.350463
vt 0.38989 0.175232
vt 0.677978 0.350463
vt 0 0.412384
vt 0.677978 0.824768
vt 0.217016 0.5
vt 0.266866 0.5
vt 0.259751 1
vt 0.204564 1
vt 0.21347 0.2
vt 0.26484 0.2
vt 0.717016 0.5
vt 0.71347 0.2
vt 0.743151 0.2
vt 0.750749 0.5
vt 0.724065 1
vt 0.704564 1
vt 0.800599 0.5
vt 0.779252 1
vt 0.79452 0.2
vt 0.743151 0.2
vt 0.117316 0.5
vt 0.0941896 1
vt 0.0746883 1
vt 0.083583 0.5
vt 0.167166 0.5
vt 0.149377 1
vt 0.0810502 0.2
vt 0.11073 0.2
vt 0.1621 0.2
vt 0.11073 0.2
vt 0.1621 0.2
vt 0.21347 0.2
vt 0.84589 0.2
vt 0.850449 0.5
vt 0.79452 0.2
vt 0.834439 1
vt 0 0.2
vt 0.0513699 0.2
vt 0.0498502 0.5
vt 0.0513699 0.2
vt 0.0810502 0.2
vt 1 0.5
vt 0.95015 0.5
vt 0.94863 0.2
vt 1 0.2
vt 0.055187 1
vt 0 1
vt 1 1
vt 0.944813 1
vt 0.9003 0.5
vt 0.889626 1
vt 0.89726 0.2
vt 0.94863 0.2
vt 0.89726 0.2
vt 0.84589 0.2
vt 0.633433 0.5
vt 0.63242 0.2
vt 0.68379 0.2
vt 0.683283 0.5
vt 0.68379 0.2
vt 0.71347 0.2
vt 0.685062 1
vt 0.629875 1
vt 0.316717 0.5
vt 0.314938 1
vt 0.31621 0.2
vt 0.26484 0.2
vt 0.533733 0.5
vt 0.52968 0.2
vt 0.58105 0.2
vt 0.583583 0.5
vt 0.58105 0.2
vt 0.574688 1
vt 0.519501 1
vt 0.350449 0.5
vt 0.334439 1
vt 0.4003 0.5
vt 0.389626 1
vt 0.31621 0.2
vt 0.34589 0.2
vt 0.34589 0.2
vt 0.39726 0.2
vt 0.483883 0.5
vt 0.47831 0.2
vt 0.464314 1
vt 0.45015 0.5
vt 0.444813 1
vt 0.44863 0.2
vt 0.47831 0.2
vt 0.44863 0.2
vt 0.39726 0.2
vt 0.685934 0.842603
vt 0.69514 0.82564
vt 0.505887 0.82564
vt 0.496681 0.842603
vt 0.222381 0.5
vt 0.217016 0
vt 0.266866 0
vt 0.269932 0.5
vt 0.182615 0.016963
vt 0.173409 0
vt 0.057803 0
vt 0.048597 0.016963
vt 0.717016 0
vt 0.750749 0
vt 0.762245 0.5
vt 0.722381 0.5
vt 0.809796 0.5
vt 0.794334 0.9
vt 0.742917 0.9
vt 0.800599 0
vt 0.0670089 0.016963
vt 0.00920599 0.0895449
vt 0.018412 0.106508
vt 0.990794 0.595661
vt 1 0.578698
vt 0.951403 0.489154
vt 0.932991 0.489154
vt 0.932991 0.668243
vt 0.951403 0.668243
vt 0.981588 0.578698
vt 0.127279 0.5
vt 0.17483 0.5
vt 0.161945 0.9
vt 0.110528 0.9
vt 0.161945 0.9
vt 0.213361 0.9
vt 0.117316 0
vt 0.087415 0.5
vt 0.083583 0
vt 0.762149 0.668243
vt 0.771355 0.685206
vt 0.942197 0.685206
vt 0.676728 0.82564
vt 0.167166 0
vt 0.25883 0.157397
vt 0.249624 0.17436
vt 0.438878 0.17436
vt 0.429672 0.157397
vt 0.164203 0.016963
vt 0.850449 0
vt 0.857347 0.5
vt 0.84575 0.9
vt 0.794334 0.9
vt 0.771355 0.472191
vt 0.762149 0.489154
vt 0.942197 0.472191
vt 0.667522 0.314794
vt 0.685934 0.314794
vt 0.0498502 0
vt 0.047551 0.5
vt 0.95015 0
vt 1 0
vt 0.952449 0.5
vt 0.0809723 0.9
vt 0.110528 0.9
vt 0 0.9
vt 0.0514166 0.9
vt 0.0809723 0.9
vt 0.0514166 0.9
vt 1 0.9
vt 0.948583 0.9
vt 0.904898 0.5
vt 0.897167 0.9
vt 0.84575 0.9
vt 0.948583 0.9
vt 0.897167 0.9
vt 0.515092 0.314794
vt 0.54271 0.331757
vt 0.676728 0.331757
vt 0.54271 0.331757
vt 0.487475 0.297831
vt 0.505887 0.331757
vt 0.9003 0
vt 0.420466 0.17436
vt 0.487475 0.297831
vt 0.103833 0.263905
vt 0.0854209 0.263905
vt 0.00920599 0.404339
vt 0.018412 0.421302
vt 0 0.106508
vt 0.633433 0
vt 0.683283 0
vt 0.682517 0.5
vt 0.634966 0.5
vt 0.713361 0.9
vt 0.683806 0.9
vt 0.683806 0.9
vt 0.632389 0.9
vt 0.742917 0.9
vt 0.323272 0.983037
vt 0.332478 1
vt 0.429672 1
vt 0.438878 0.983037
vt 0.264778 0.9
vt 0.213361 0.9
vt 0.420466 0.983037
vt 0.515092 0.842603
vt 0.496681 0.842603
vt 0.316717 0
vt 0.317483 0.5
vt 0.533733 0
vt 0.583583 0
vt 0.587415 0.5
vt 0.539864 0.5
vt 0.529556 0.9
vt 0.580972 0.9
vt 0.632389 0.9
vt 0.316194 0.9
vt 0.357347 0.5
vt 0.34575 0.9
vt 0.316194 0.9
vt 0.404898 0.5
vt 0.397167 0.9
vt 0.314066 1
vt 0.247057 0.842603
vt 0.228645 0.842603
vt 0.350449 0
vt 0.4003 0
vt 0.103833 0.578698
vt 0.0854209 0.578698
vt 0 0.736095
vt 0.00920599 0.753058
vt 0 0.421302
vt 0.492313 0.5
vt 0.483883 0
vt 0.529556 0.9
vt 0.478139 0.9
vt 0.0762149 0.842603
vt 0.018412 0.736095
vt 0.057803 0.842603
vt 0.452449 0.5
vt 0.45015 0
vt 0.448583 0.9
vt 0.397167 0.9
vt 0.478139 0.9
vt 0.448583 0.9
vt 0.0670089 0.82564
vt 0.247057 0.842603
vt 0.237851 0.82564
vt 0 0.125563
vt 0.0809496 0.275338
vt 0.28454 0.149775
vt 0.20359 0
vt 0.0678634 0
vt 0.0809496 0.574887
vt 0 0.425113
vt 0 0.724662
vt 0.0678634 0.850225
vt 0.471223 0.195632
vt 0.446439 0.149775
vt 0.117432 0.850225
vt 0.237063 0.628881
vt 0.770237 0.70045
vt 0.932137 0.70045
vt 0.970818 0.628881
vt 0.527389 0.850225
vt 0.229763 0.850225
vt 0.310712 1
vt 0.446439 1
vt 0.689288 0.850225
vt 0.293228 0.524962
vt 0.349394 0.628881
vt 0.932137 0.449325
vt 0.770237 0.449325
vt 0.461724 0.628881
vt 1 0.574887
vt 0.639719 0.29955
vt 0.689288 0.29955
vt 0.527389 0.29955
vt 0.611636 0.351509
vt 0.443141 0.247591
vt 0.574054 0.421044
vt 0.611636 0.351509
vt 0.443141 0.247591
vt 0.349394 0.421044
vt 0.461724 0.421044
vt 0.517889 0.524962

vn 0 -1 0
vn -0.866025 0 -0.5
vn -0.866025 0 -0.5
vn -0.866025 0 0.5
vn -0.866025 0 0.5
vn 0 0 -1
vn 0 0 1
vn 0.866025 0 0.5
vn 0.866025 0 0.5
vn 0.866025 0 0.5
vn 0.866025 0 -0.5
vn 0.866025 0 -0.5
vn 0.866025 0 -0.5
vn 0.866025 0 0.5
vn 0.866025 0 0.5
vn 0.866025 0 -0.5
vn 0.866025 0 -0.5
vn 0.866025 0 -0.5
vn 0.866025 0 -0.5
vn 0.866025 0 -0.5
vn 0.866025 0 -0.5
vn -0.866025 0 -0.5
vn -0.866025 0 -0.5
vn -0.866025 0 -0.5
vn -0.866025 0 -0.5
vn -0.866025 0 0.5
vn -0.866025 0 0.5
vn -0.866025 0 -0.5
vn -0.866025 0 -0.5
vn -0.866025 0 0.5
vn -0.866025 0 -0.5
vn -0.866025 0 -0.5
vn -0.866025 0 0.5
vn -0.866025 0 0.5
vn 0.866025 0 0.5
vn 0.866025 0 0.5
vn 0.866025 0 0.5
vn 0.866025 0 0.5
vn 0.866025 0 0.5
vn -0.866025 0 -0.5
vn -0.866025 0 0.5
vn 0.866025 0 0.5
vn 0.866025 0 0.5
vn 0.866025 0 -0.5
vn 0.866025 0 0.5
vn 0.866025 0 0.5
vn -0.866025 0 0.5
vn -0.866025 0 -0.5
vn 0.866025 0 -0.5
vn 0.866025 0 -0.5
vn -0.866025 0 -0.5
vn -0.866025 0 -0.5
vn 0 1 0
vn 0.866025 0 0.5
vn 0.866025 0 -0.5
vn 0.866025 0 -0.5
vn 0.866025 0 -0.5
vn 0.866025 0 -0.5
vn 0.866025 0 0.5
vn 0.866025 0 0.5
vn 0.866025 0 0.5
vn 0.866025 0 0.5
vn 0.866025 0 0.5
vn -0.866025 0 0.5
vn -0.866025 0 0.5
vn -0.866025 0 0.5
vn 0.866025 0 -0.5
vn -0.866025 0 0.5
vn -0.866025 0 -0.5
vn -0.866025 0 -0.5
vn -0.866025 0 -0.5
vn 0.866025 0 0.5
vn 0.866025 0 -0.5
vn 0.866025 0 0.5
vn -0.866025 0 0.5
vn -0.866025 0 -0.5

f 1/1/1 2/2/1 3/3/1 4/4/1 5/5/1 6/6/1
f 2/7/2 1/8/2 7/9/3 8/10/3
f 1/8/4 6/11/4 9/12/5 7/13/5
f 10/14/6 3/15/6 2/7/6 8/16/6
f 5/17/7 11/18/7 12/19/7 6/20/7
f 5/17/8 4/21/8 13/22/9 11/23/10
f 4/21/11 3/15/11 14/24/12 15/22/13
f 16/20/7 17/25/7 18/26/7 19/1/7
f 17/25/14 20/27/14 21/28/15 18/26/15
f 20/27/16 22/29/16 23/30/17 21/28/17
f 22/29/6 24/31/6 25/32/6 23/30/6
f 24/31/18 26/33/18 27/34/19 25/32/19
f 26/33/6 28/35/6 29/36/6 27/34/6
f 28/35/20 30/37/20 31/38/21 29/36/21
f 30/37/6 32/39/6 33/40/6 31/38/6
f 32/39/22 34/41/22 35/42/23 33/40/23
f 34/41/6 36/43/6 37/44/6 35/42/6
f 36/43/24 38/45/24 39/46/25 37/44/25
f 38/45/26 40/47/26 41/48/27 39/46/27
f 40/47/28 42/49/28 43/50/29 41/48/29
f 42/49/26 44/51/26 45/52/30 43/50/30
f 44/51/31 46/53/31 47/54/32 45/52/32
f 46/53/33 48/55/33 49/56/34 47/54/34
f 48/55/7 50/57/7 51/58/7 49/56/7
f 50/57/35 52/59/35 53/60/36 51/58/36
f 52/59/7 54/61/7 55/62/7 53/60/7
f 54/61/37 56/63/37 57/64/38 55/62/38
f 56/63/7 58/65/7 59/66/7 57/64/7
f 58/65/39 16/11/39 19/67/39 59/66/39
f 60/68/40 45/52/32 47/54/32 61/69/40
f 62/70/41 61/69/41 47/54/34 49/56/34
f 63/71/7 62/72/7 49/56/7 51/58/7
f 53/60/36 64/73/42 63/74/42 51/58/36
f 55/62/7 65/75/7 64/73/7 53/60/7
f 55/62/38 57/64/38 66/76/38 67/77/38
f 59/66/7 68/78/7 69/79/7 57/64/7
f 19/1/7 18/26/7 70/80/7 71/81/7
f 70/80/43 18/26/15 21/28/15 72/82/43
f 72/82/44 21/28/17 23/30/17 73/83/44
f 74/84/6 73/83/6 23/30/6 25/32/6
f 19/67/39 71/85/45 68/78/46 59/66/39
f 75/86/47 39/46/27 41/48/27 76/87/47
f 76/87/48 41/48/29 43/50/29 77/88/48
f 77/88/47 43/50/30 45/52/30 60/68/47
f 27/34/19 78/89/49 79/90/49 25/32/19
f 27/34/6 29/36/6 80/91/6 81/92/6
f 29/36/21 31/38/21 82/93/50 83/94/50
f 82/93/6 31/38/6 33/40/6 84/95/6
f 84/95/48 33/40/23 35/42/23 85/96/48
f 35/42/6 37/44/6 86/97/6 87/98/6
f 37/44/25 39/46/25 75/86/51 88/99/52
f 89/100/53 90/101/53 91/102/53 92/103/53 93/104/53
f 94/105/53 95/106/53 96/107/53 97/108/53
f 98/109/53 94/105/53 99/110/53 100/111/53
f 101/112/53 102/113/53 103/114/53 104/115/53 105/116/53
f 106/117/53 103/114/53 102/113/53 107/118/53
f 106/117/53 108/119/53 91/102/53
f 94/105/53 109/120/53 103/114/53 106/117/53 91/102/53 90/101/53 110/121/53
f 111/122/6 112/123/6 95/124/6 110/125/6
f 111/122/6 113/126/6 114/127/6 112/123/6
f 115/128/7 116/129/7 117/130/7 118/131/7
f 115/128/7 118/131/7 101/132/7 105/133/7
f 119/134/36 102/135/54 101/132/54 118/131/36
f 120/136/36 119/134/36 118/131/36 121/137/36
f 122/138/55 89/139/56 93/140/56 123/141/55
f 122/138/6 124/142/6 90/143/6 89/139/6
f 90/143/57 124/142/18 111/122/18 110/125/57
f 122/138/55 123/141/55 125/144/58 126/145/58
f 127/146/6 124/142/6 122/138/6 128/147/6
f 124/142/18 129/148/19 130/149/19 111/122/18
f 131/150/7 132/151/7 119/134/7 133/152/7
f 132/151/7 107/153/7 102/135/7 119/134/7
f 134/1/7 135/154/7 136/155/7 137/156/7
f 137/156/59 138/157/60 139/158/60 123/141/59
f 134/159/45 140/160/45 141/161/61 142/162/61
f 134/1/7 137/156/7 92/163/7 91/164/7
f 92/163/62 137/156/59 123/141/59 93/140/62
f 140/160/45 134/159/45 91/165/38 108/166/38
f 143/167/7 140/160/7 108/166/7 106/168/7
f 143/167/7 144/169/7 145/170/7 140/160/7
f 132/151/39 143/167/39 106/168/38 107/153/38
f 146/171/63 143/167/39 132/151/39 147/172/63
f 148/173/32 149/174/40 150/175/40 151/176/32
f 151/176/64 152/177/65 153/178/65 115/128/64
f 148/173/32 151/176/32 104/179/31 103/180/31
f 104/179/66 151/176/64 115/128/64 105/133/66
f 154/181/67 96/182/50 95/124/50 112/123/67
f 155/183/67 154/181/67 112/123/67 156/184/67
f 157/185/29 158/186/48 159/187/48 160/188/29
f 160/188/30 161/189/68 149/174/68 148/173/30
f 157/185/29 160/188/29 109/190/28 98/191/28
f 109/190/26 160/188/30 148/173/30 103/180/26
f 162/192/6 97/193/6 96/182/6 154/181/6
f 162/192/23 163/194/23 94/195/48 97/193/48
f 162/192/6 154/181/6 164/196/6 165/197/6
f 162/192/23 166/198/23 167/199/23 163/194/23
f 168/200/27 169/201/47 158/186/47 157/185/27
f 168/200/27 157/185/27 98/191/26 100/202/26
f 170/203/6 99/204/6 94/195/6 163/194/6
f 170/203/69 168/200/69 100/202/70 99/204/70
f 170/203/69 171/205/71 172/206/71 168/200/69
f 173/207/6 170/203/6 163/194/6 174/208/6
f 175/209/1 176/210/1 177/211/1 178/212/1
f 179/213/6 175/214/6 180/215/6 181/216/6
f 182/217/1 183/218/1 184/219/1 185/220/1
f 184/221/7 183/222/7 186/223/7 187/224/7
f 188/225/35 189/226/72 190/227/72 186/223/35
f 191/228/36 188/225/35 186/223/35 183/222/36
f 192/229/1 185/220/1 193/230/1 194/231/1
f 195/232/1 196/233/1 197/234/1 198/235/1
f 199/236/1 200/237/1 195/232/1 201/238/1
f 202/239/6 203/240/6 204/241/6 205/242/6
f 127/243/19 203/240/18 179/213/18 206/244/19
f 207/245/55 202/239/16 208/246/16 196/247/55
f 209/248/1 210/249/1 207/250/1 200/237/1
f 176/210/1 210/249/1 209/248/1 211/251/1
f 210/252/6 203/240/6 202/239/6 207/245/6
f 203/240/18 210/252/18 175/214/18 179/213/18
f 191/253/1 212/254/1 213/255/1 214/256/1
f 215/257/1 212/254/1 191/253/1 182/217/1
f 214/258/7 216/259/7 188/225/7 191/228/7
f 216/259/7 217/260/7 218/261/7 188/225/7
f 219/262/1 220/263/1 197/234/1 221/264/1
f 222/265/1 220/263/1 219/262/1 223/266/1
f 219/20/7 221/267/7 224/268/7 225/1/7
f 224/268/14 221/267/59 196/247/59 208/246/14
f 223/269/45 219/270/45 225/4/39 226/271/39
f 227/272/73 208/246/16 202/239/16 228/273/73
f 229/274/7 225/1/7 224/268/7 230/275/7
f 227/276/74 231/277/74 224/268/14 208/246/14
f 226/271/39 225/4/39 232/278/39 233/279/39
f 216/259/37 234/280/37 146/281/37 217/282/37
f 234/280/7 226/271/7 145/283/7 235/284/7
f 222/265/1 236/285/1 237/286/1 238/287/1
f 237/288/1 239/289/1 240/290/1
f 234/280/7 236/291/7 223/269/7 226/271/7
f 213/255/1 241/292/1 239/293/1 236/285/1
f 236/291/39 234/280/37 216/259/37 214/258/39
f 242/294/1 243/295/1 244/296/1 245/297/1
f 246/298/1 243/295/1 242/294/1 193/230/1
f 243/299/32 246/300/32 247/301/31 248/302/31
f 247/301/33 246/300/64 184/221/64 187/224/33
f 249/303/75 250/304/75 247/301/33 187/224/33
f 251/305/31 252/306/31 248/302/31 247/301/31
f 253/303/7 187/224/7 186/223/7 254/307/7
f 255/308/1 256/309/1 257/310/1 258/311/1
f 259/312/6 206/313/6 179/213/6 181/216/6
f 260/314/1 258/311/1 180/315/1 178/316/1
f 257/317/67 261/318/20 181/216/20 180/215/67
f 262/319/29 263/320/29 264/321/28 265/322/28
f 264/321/26 263/320/30 243/299/30 248/302/26
f 266/323/28 265/322/28 264/321/28 267/324/28
f 267/324/26 264/321/26 248/302/26 268/325/26
f 269/326/67 259/312/67 181/216/20 261/318/20
f 270/327/6 271/328/6 164/329/6 261/318/6
f 272/328/23 270/327/22 273/330/22 274/331/23
f 275/332/1 256/309/1 276/333/1 277/334/1
f 275/335/6 270/327/6 261/318/6 257/317/6
f 275/335/23 277/336/23 273/330/22 270/327/22
f 278/337/1 262/338/1 279/339/1 280/340/1
f 263/341/1 262/338/1 278/337/1 244/296/1
f 281/342/26 279/343/27 262/319/27 265/322/26
f 281/342/26 265/322/26 282/344/26 169/345/26
f 283/346/1 284/347/1 280/340/1 285/348/1
f 286/349/24 285/350/69 279/343/69 281/342/24
f 286/349/6 287/351/6 288/352/6 273/330/6
f 286/349/24 281/342/24 289/353/76 287/354/76
f 290/355/1 283/346/1 276/356/1 291/357/1
f 285/350/6 286/349/6 273/330/6 277/336/6
f 46/358/1 44/359/1 52/360/1 50/361/1 48/362/1
f 40/363/1 52/360/1 44/359/1 42/364/1
f 40/363/1 38/365/1 36/366/1
f 292/367/1 54/368/1 52/360/1 40/363/1 36/366/1 293/369/1
f 294/370/1 24/371/1 22/372/1 295/373/1
f 28/374/1 34/375/1 32/376/1 30/377/1
f 26/378/1 24/371/1 294/370/1 293/369/1
f 296/379/1 294/370/1 297/380/1
f 17/381/1 16/382/1 298/383/1 295/373/1 20/384/1
f 299/385/1 298/383/1 16/382/1 58/386/1
f 56/387/1 300/388/1 299/385/1
f 301/389/1 56/387/1 292/367/1
f 302/390/1 300/391/1 301/392/1 303/393/1
f 302/390/1 304/394/1 305/395/1