v -0.0714286 0 -0.0687322 0.396078 0.262745 0.129412
v 2.4e-11 0 -0.19245 0.396078 0.262745 0.129412
v 0.142857 0 -0.19245 0.396078 0.262745 0.129412
v 0.214286 0 -0.0687322 0.396078 0.262745 0.129412
v 0.142857 0 0.0549857 0.396078 0.262745 0.129412
v 2.4e-11 0 0.0549857 0.396078 0.262745 0.129412
v 0.0218693 0.25 0.017107 0.60404 0.672727 0.741414
v 0.120988 0.25 0.017107 0.60404 0.672727 0.741414
v 0.120988 0.25 0.017107 0.60404 0.672727 0.741414
v 0.170547 0.25 -0.0687322 0.60404 0.672727 0.741414
v -0.0276899 0.25 -0.0687322 0.60404 0.672727 0.741414
v 0.0218693 0.25 0.017107 0.60404 0.672727 0.741414
v 0.120988 0.25 -0.154571 0.60404 0.672727 0.741414
v 0.170547 0.25 -0.0687322 0.60404 0.672727 0.741414
v 0.0218693 0.25 -0.154571 0.60404 0.672727 0.741414
v 0.120988 0.25 -0.154571 0.60404 0.672727 0.741414
v -0.0276899 0.25 -0.0687322 0.60404 0.672727 0.741414
v 0.0218693 0.25 -0.154571 0.60404 0.672727 0.741414
v -0.13131 0.25 -0.474872 0.903529 0.793333 0.746667
v -0.202739 0.25 -0.351154 0.903529 0.793333 0.746667
v -0.214286 0.325 -0.371154 0.903529 0.793333 0.746667
v -0.142857 0.325 -0.494872 0.903529 0.793333 0.746667
v -0.345596 0.25 -0.351154 0.903529 0.793333 0.746667
v -0.357143 0.325 -0.371154 0.903529 0.793333 0.746667
v -0.405477 0.25 -0.247436 0.903529 0.793333 0.746667
v -0.428571 0.325 -0.247436 0.903529 0.793333 0.746667
v -0.345596 0.25 -0.143718 0.903529 0.793333 0.746667
v -0.357143 0.325 -0.123718 0.903529 0.793333 0.746667
v -0.202739 0.25 -0.143718 0.903529 0.793333 0.746667
v -0.214286 0.325 -0.123718 0.903529 0.793333 0.746667
v -0.119763 0.25 0 0.903529 0.793333 0.746667
v -0.142857 0.325 0 0.903529 0.793333 0.746667
v -0.191192 0.25 0.123718 0.903529 0.793333 0.746667
v -0.214286 0.325 0.123718 0.903529 0.793333 0.746667
v -0.13131 0.25 0.227436 0.903529 0.793333 0.746667
v -0.142857 0.325 0.247436 0.903529 0.793333 0.746667
v 0.011547 0.25 0.227436 0.903529 0.793333 0.746667
v 0 0.325 0.247436 0.903529 0.793333 0.746667
v 0.0829756 0.25 0.351154 0.903529 0.793333 0.746667
v 0.0714286 0.325 0.371154 0.903529 0.793333 0.746667
v 0.202739 0.25 0.351154 0.903529 0.793333 0.746667
v 0.214286 0.325 0.371154 0.903529 0.793333 0.746667
v 0.274167 0.25 0.227436 0.903529 0.793333 0.746667
v 0.285714 0.325 0.247436 0.903529 0.793333 0.746667
v 0.417024 0.25 0.227436 0.903529 0.793333 0.746667
v 0.428571 0.325 0.247436 0.903529 0.793333 0.746667
v 0.476906 0.25 0.123718 0.903529 0.793333 0.746667
v 0.5 0.325 0.123718 0.903529 0.793333 0.746667
v 0.405477 0.25 0 0.903529 0.793333 0.746667
v 0.428571 0.325 0 0.903529 0.793333 0.746667
v 0.476906 0.25 -0.123718 0.903529 0.793333 0.746667
v 0.5 0.325 -0.123718 0.903529 0.793333 0.746667
v 0.417024 0.25 -0.227436 0.903529 0.793333 0.746667
v 0.428571 0.325 -0.247436 0.903529 0.793333 0.746667
v 0.274167 0.25 -0.227436 0.903529 0.793333 0.746667
v 0.285714 0.325 -0.247436 0.903529 0.793333 0.746667
v 0.202739 0.25 -0.351154 0.903529 0.793333 0.746667
v 0.214286 0.325 -0.371154 0.903529 0.793333 0.746667
v 0.0598816 0.25 -0.351154 0.903529 0.793333 0.746667
v 0.0714286 0.325 -0.371154 0.903529 0.793333 0.746667
v -0.011547 0.25 -0.474872 0.903529 0.793333 0.746667
v 0 0.325 -0.494872 0.903529 0.793333 0.746667
v 0.254922 0.475 0.194102 0.718431 0.662353 0.655686
v 0.397779 0.475 0.194102 0.718431 0.662353 0.655686
v 0.438416 0.475 0.123718 0.718431 0.662353 0.655686
v 0.366987 0.475 0 0.718431 0.662353 0.655686
v 0.183494 0.475 0.31782 0.718431 0.662353 0.655686
v 0.438416 0.475 -0.123718 0.718431 0.662353 0.655686
v 0.397779 0.475 -0.194102 0.718431 0.662353 0.655686
v 0.438416 0.475 -0.123718 0.718431 0.662353 0.655686
v 0.254922 0.475 -0.194102 0.718431 0.662353 0.655686
v 0.397779 0.475 -0.194102 0.718431 0.662353 0.655686
v 0.183494 0.475 -0.31782 0.718431 0.662353 0.655686
v 0.0406366 0.475 -0.31782 0.718431 0.662353 0.655686
v 0.183494 0.475 -0.31782 0.718431 0.662353 0.655686
v -0.112065 0.475 -0.441538 0.718431 0.662353 0.655686
v -0.183494 0.475 -0.31782 0.718431 0.662353 0.655686
v -0.030792 0.475 -0.441538 0.718431 0.662353 0.655686
v 0.0406366 0.475 -0.31782 0.718431 0.662353 0.655686
v -0.326351 0.475 -0.31782 0.718431 0.662353 0.655686
v -0.183494 0.475 -0.31782 0.718431 0.662353 0.655686
v -0.366987 0.475 -0.247436 0.718431 0.662353 0.655686
v -0.326351 0.475 -0.177051 0.718431 0.662353 0.655686
v -0.183494 0.475 -0.177051 0.718431 0.662353 0.655686
v -0.0812731 0.475 0 0.718431 0.662353 0.655686
v -0.183494 0.475 -0.177051 0.718431 0.662353 0.655686
v -0.152702 0.475 0.123718 0.718431 0.662353 0.655686
v -0.0812731 0.475 0 0.718431 0.662353 0.655686
v -0.112065 0.475 0.194102 0.718431 0.662353 0.655686
v 0.030792 0.475 0.194102 0.718431 0.662353 0.655686
v 0.102221 0.475 0.31782 0.718431 0.662353 0.655686
v -0.310955 1 -0.203718 0.0705882 0.203922 0.337255
v -0.168098 1 -0.203718 0.0705882 0.203922 0.337255
v -0.168098 1 -0.291154 0.0705882 0.203922 0.337255
v -0.310955 1 -0.291154 0.0705882 0.203922 0.337255
v -0.336195 1 -0.247436 0.0705882 0.203922 0.337255
v 0.046188 1 0.167436 0.0705882 0.203922 0.337255
v -0.0504811 1 0 0.0705882 0.203922 0.337255
v -0.12191 1 0.123718 0.0705882 0.203922 0.337255
v -0.0966691 1 0.167436 0.0705882 0.203922 0.337255
v 0.239526 1 0.167436 0.0705882 0.203922 0.337255
v 0.117617 1 0.291154 0.0705882 0.203922 0.337255
v 0.168098 1 0.291154 0.0705882 0.203922 0.337255
v 0.239526 1 -0.167436 0.0705882 0.203922 0.337255
v 0.336195 1 0 0.0705882 0.203922 0.337255
v 0.407624 1 -0.123718 0.0705882 0.203922 0.337255
v 0.382383 1 -0.167436 0.0705882 0.203922 0.337255
v 0.0252405 1 -0.291154 0.0705882 0.203922 0.337255
v -0.046188 1 -0.414872 0.0705882 0.203922 0.337255
v -0.0966691 1 -0.414872 0.0705882 0.203922 0.337255
v 0.382383 1 0.167436 0.0705882 0.203922 0.337255
v 0.407624 1 0.123718 0.0705882 0.203922 0.337255
v 0.168098 1 -0.291154 0.0705882 0.203922 0.337255
v -0.382383 0.775 -0.247436 0.348235 0.400392 0.473725
v -0.368527 0.73 -0.247436 0.403765 0.439686 0.50102
v -0.327121 0.73 -0.175718 0.403765 0.439686 0.50102
v -0.334049 0.775 -0.163718 0.348235 0.400392 0.473725
v -0.168098 0.775 0.123718 0.348235 0.400392 0.473725
v -0.154241 0.73 0.123718 0.403765 0.439686 0.50102
v -0.112835 0.73 0.195436 0.403765 0.439686 0.50102
v -0.119763 0.775 0.207436 0.348235 0.400392 0.473725
v -0.0966691 0.775 0 0.348235 0.400392 0.473725
v -0.0828127 0.73 0 0.403765 0.439686 0.50102
v -0.154241 0.73 0.123718 0.403765 0.439686 0.50102
v -0.191192 0.775 -0.163718 0.348235 0.400392 0.473725
v -0.184264 0.73 -0.175718 0.403765 0.439686 0.50102
v -0.327121 0.73 -0.175718 0.403765 0.439686 0.50102
v 0.26262 0.775 0.207436 0.348235 0.400392 0.473725
v 0.255692 0.73 0.195436 0.403765 0.439686 0.50102
v 0.398549 0.73 0.195436 0.403765 0.439686 0.50102
v 0.405477 0.775 0.207436 0.348235 0.400392 0.473725
v 0.023094 0.775 0.207436 0.348235 0.400392 0.473725
v 0.0300222 0.73 0.195436 0.403765 0.439686 0.50102
v -0.112835 0.73 0.195436 0.403765 0.439686 0.50102
v 0.191192 0.775 0.331154 0.348235 0.400392 0.473725
v 0.184264 0.73 0.319154 0.403765 0.439686 0.50102
v 0.255692 0.73 0.195436 0.403765 0.439686 0.50102
v 0.0945226 0.775 0.331154 0.348235 0.400392 0.473725
v 0.101451 0.73 0.319154 0.403765 0.439686 0.50102
v 0.184264 0.73 0.319154 0.403765 0.439686 0.50102
v 0.0300222 0.73 0.195436 0.403765 0.439686 0.50102
v 0.0483346 0.775 -0.331154 0.348235 0.400392 0.473725
v -0.023094 0.775 -0.454872 0.348235 0.400392 0.473725
v 0.0414064 0.73 -0.319154 0.403765 0.439686 0.50102
v -0.0300222 0.73 -0.442872 0.403765 0.439686 0.50102
v -0.119763 0.775 -0.454872 0.348235 0.400392 0.473725
v -0.112835 0.73 -0.442872 0.403765 0.439686 0.50102
v -0.184264 0.73 -0.319154 0.403765 0.439686 0.50102
v -0.191192 0.775 -0.331154 0.348235 0.400392 0.473725
v -0.334049 0.775 -0.331154 0.348235 0.400392 0.473725
v -0.327121 0.73 -0.319154 0.403765 0.439686 0.50102
v -0.0300222 0.73 -0.442872 0.403765 0.439686 0.50102
v -0.112835 0.73 -0.442872 0.403765 0.439686 0.50102
v -0.327121 0.73 -0.319154 0.403765 0.439686 0.50102
v -0.368527 0.73 -0.247436 0.403765 0.439686 0.50102
v 0.191192 0.775 -0.331154 0.348235 0.400392 0.473725
v 0.184264 0.73 -0.319154 0.403765 0.439686 0.50102
v 0.0414064 0.73 -0.319154 0.403765 0.439686 0.50102
v 0.453812 0.775 -0.123718 0.348235 0.400392 0.473725
v 0.439956 0.73 -0.123718 0.403765 0.439686 0.50102
v 0.398549 0.73 -0.195436 0.403765 0.439686 0.50102
v 0.405477 0.775 -0.207436 0.348235 0.400392 0.473725
v 0.453812 0.775 0.123718 0.348235 0.400392 0.473725
v 0.398549 0.73 0.195436 0.403765 0.439686 0.50102
v 0.439956 0.73 0.123718 0.403765 0.439686 0.50102
v 0.382383 0.775 0 0.348235 0.400392 0.473725
v 0.26262 0.775 -0.207436 0.348235 0.400392 0.473725
v 0.255692 0.73 -0.195436 0.403765 0.439686 0.50102
v 0.255692 0.73 -0.195436 0.403765 0.439686 0.50102
v 0.184264 0.73 -0.319154 0.403765 0.439686 0.50102
v 0.368527 0.73 0 0.403765 0.439686 0.50102
v 0.439956 0.73 0.123718 0.403765 0.439686 0.50102
v 0.368527 0.73 0 0.403765 0.439686 0.50102
v 0.439956 0.73 -0.123718 0.403765 0.439686 0.50102
v -0.127461 0.475 0.194102 0.718431 0.662353 0.655686
v -0.168098 0.475 0.123718 0.718431 0.662353 0.655686
v -0.1604 0.475 0.110385 0.718431 0.662353 0.655686
v -0.112065 0.475 0.194102 0.718431 0.662353 0.655686
v -0.152702 0.475 0.123718 0.718431 0.662353 0.655686
v -0.0966691 0.475 0 0.718431 0.662353 0.655686
v -0.0889711 0.475 0.0133333 0.718431 0.662353 0.655686
v -0.119763 0.55 0 0.625882 0.596863 0.610196
v -0.191192 0.55 0.123718 0.625882 0.596863 0.610196
v 0.438416 0.475 0.123718 0.718431 0.662353 0.655686
v 0.446114 0.475 0.137051 0.718431 0.662353 0.655686
v 0.413175 0.475 0.194102 0.718431 0.662353 0.655686
v 0.397779 0.475 0.194102 0.718431 0.662353 0.655686
v -0.202739 0.55 -0.143718 0.625882 0.596863 0.610196
v -0.191192 0.475 -0.163718 0.718431 0.662353 0.655686
v 0.26262 0.475 0.207436 0.718431 0.662353 0.655686
v 0.405477 0.475 0.207436 0.718431 0.662353 0.655686
v 0.417024 0.55 0.227436 0.625882 0.596863 0.610196
v 0.274167 0.55 0.227436 0.625882 0.596863 0.610196
v -0.154241 0.73 0.123718 0.403765 0.439686 0.50102
v -0.0828127 0.73 0 0.403765 0.439686 0.50102
v -0.13131 0.55 0.227436 0.625882 0.596863 0.610196
v -0.112835 0.73 0.195436 0.403765 0.439686 0.50102
v -0.154241 0.73 0.123718 0.403765 0.439686 0.50102
v -0.112835 0.73 0.195436 0.403765 0.439686 0.50102
v 0.011547 0.55 0.227436 0.625882 0.596863 0.610196
v 0.0300222 0.73 0.195436 0.403765 0.439686 0.50102
v 0.015396 0.475 0.194102 0.718431 0.662353 0.655686
v 0.023094 0.475 0.207436 0.718431 0.662353 0.655686
v -0.119763 0.475 0.207436 0.718431 0.662353 0.655686
v 0.254922 0.475 0.194102 0.718431 0.662353 0.655686
v 0.191192 0.475 0.331154 0.718431 0.662353 0.655686
v 0.175796 0.475 0.331154 0.718431 0.662353 0.655686
v 0.202739 0.55 0.351154 0.625882 0.596863 0.610196
v 0.255692 0.73 0.195436 0.403765 0.439686 0.50102
v 0.184264 0.73 0.319154 0.403765 0.439686 0.50102
v 0.183494 0.475 0.31782 0.718431 0.662353 0.655686
v 0.0945226 0.475 0.331154 0.718431 0.662353 0.655686
v 0.0868246 0.475 0.31782 0.718431 0.662353 0.655686
v 0.0829756 0.55 0.351154 0.625882 0.596863 0.610196
v 0.101451 0.73 0.319154 0.403765 0.439686 0.50102
v 0.0300222 0.73 0.195436 0.403765 0.439686 0.50102
v 0.184264 0.73 0.319154 0.403765 0.439686 0.50102
v 0.102221 0.475 0.31782 0.718431 0.662353 0.655686
v 0.030792 0.475 0.194102 0.718431 0.662353 0.655686
v -0.318653 0.475 -0.163718 0.718431 0.662353 0.655686
v -0.334049 0.475 -0.163718 0.718431 0.662353 0.655686
v -0.382383 0.475 -0.247436 0.718431 0.662353 0.655686
v -0.374685 0.475 -0.260769 0.718431 0.662353 0.655686
v -0.345596 0.55 -0.143718 0.625882 0.596863 0.610196
v -0.405477 0.55 -0.247436 0.625882 0.596863 0.610196
v -0.327121 0.73 -0.175718 0.403765 0.439686 0.50102
v -0.368527 0.73 -0.247436 0.403765 0.439686 0.50102
v -0.184264 0.73 -0.175718 0.403765 0.439686 0.50102
v -0.327121 0.73 -0.175718 0.403765 0.439686 0.50102
v -0.184264 0.73 -0.175718 0.403765 0.439686 0.50102
v -0.0828127 0.73 0 0.403765 0.439686 0.50102
v -0.183494 0.475 -0.177051 0.718431 0.662353 0.655686
v -0.326351 0.475 -0.177051 0.718431 0.662353 0.655686
v -0.0889711 0.475 0.0133333 0.718431 0.662353 0.655686
v -0.0812731 0.475 0 0.718431 0.662353 0.655686
v -0.112065 0.475 -0.441538 0.718431 0.662353 0.655686
v -0.104367 0.475 -0.454872 0.718431 0.662353 0.655686
v -0.023094 0.475 -0.454872 0.718431 0.662353 0.655686
v -0.015396 0.475 -0.441538 0.718431 0.662353 0.655686
v 0.0598816 0.55 -0.351154 0.625882 0.596863 0.610196
v 0.0483346 0.475 -0.331154 0.718431 0.662353 0.655686
v -0.011547 0.55 -0.474872 0.625882 0.596863 0.610196
v 0.0406366 0.475 -0.31782 0.718431 0.662353 0.655686
v 0.175796 0.475 -0.331154 0.718431 0.662353 0.655686
v 0.183494 0.475 -0.31782 0.718431 0.662353 0.655686
v -0.030792 0.475 -0.441538 0.718431 0.662353 0.655686
v -0.183494 0.475 -0.31782 0.718431 0.662353 0.655686
v -0.191192 0.475 -0.331154 0.718431 0.662353 0.655686
v -0.119763 0.475 -0.454872 0.718431 0.662353 0.655686
v -0.334049 0.475 -0.331154 0.718431 0.662353 0.655686
v -0.341747 0.475 -0.31782 0.718431 0.662353 0.655686
v -0.202739 0.55 -0.351154 0.625882 0.596863 0.610196
v -0.13131 0.55 -0.474872 0.625882 0.596863 0.610196
v -0.345596 0.55 -0.351154 0.625882 0.596863 0.610196
v -0.368527 0.73 -0.247436 0.403765 0.439686 0.50102
v -0.327121 0.73 -0.319154 0.403765 0.439686 0.50102
v -0.112835 0.73 -0.442872 0.403765 0.439686 0.50102
v -0.184264 0.73 -0.319154 0.403765 0.439686 0.50102
v -0.112835 0.73 -0.442872 0.403765 0.439686 0.50102
v -0.0300222 0.73 -0.442872 0.403765 0.439686 0.50102
v -0.0300222 0.73 -0.442872 0.403765 0.439686 0.50102
v 0.0414064 0.73 -0.319154 0.403765 0.439686 0.50102
v -0.327121 0.73 -0.319154 0.403765 0.439686 0.50102
v -0.184264 0.73 -0.319154 0.403765 0.439686 0.50102
v -0.326351 0.475 -0.31782 0.718431 0.662353 0.655686
v -0.366987 0.475 -0.247436 0.718431 0.662353 0.655686
v 0.202739 0.55 -0.351154 0.625882 0.596863 0.610196
v 0.191192 0.475 -0.331154 0.718431 0.662353 0.655686
v 0.390081 0.475 -0.207436 0.718431 0.662353 0.655686
v 0.405477 0.475 -0.207436 0.718431 0.662353 0.655686
v 0.453812 0.475 -0.123718 0.718431 0.662353 0.655686
v 0.446114 0.475 -0.110385 0.718431 0.662353 0.655686
v 0.417024 0.55 -0.227436 0.625882 0.596863 0.610196
v 0.476906 0.55 -0.123718 0.625882 0.596863 0.610196
v 0.439956 0.73 -0.123718 0.403765 0.439686 0.50102
v 0.398549 0.73 -0.195436 0.403765 0.439686 0.50102
v 0.453812 0.475 0.123718 0.718431 0.662353 0.655686
v 0.476906 0.55 0.123718 0.625882 0.596863 0.610196
v 0.405477 0.55 0 0.625882 0.596863 0.610196
v 0.368527 0.73 0 0.403765 0.439686 0.50102
v 0.439956 0.73 0.123718 0.403765 0.439686 0.50102
v 0.398549 0.73 0.195436 0.403765 0.439686 0.50102
v 0.255692 0.73 0.195436 0.403765 0.439686 0.50102
v 0.439956 0.73 0.123718 0.403765 0.439686 0.50102
v 0.398549 0.73 0.195436 0.403765 0.439686 0.50102
v 0.184264 0.73 -0.319154 0.403765 0.439686 0.50102
v 0.255692 0.73 -0.195436 0.403765 0.439686 0.50102
v 0.274167 0.55 -0.227436 0.625882 0.596863 0.610196
v 0.184264 0.73 -0.319154 0.403765 0.439686 0.50102
v 0.255692 0.73 -0.195436 0.403765 0.439686 0.50102
v 0.398549 0.73 -0.195436 0.403765 0.439686 0.50102
v 0.368527 0.73 0 0.403765 0.439686 0.50102
v 0.439956 0.73 -0.123718 0.403765 0.439686 0.50102
v 0.254922 0.475 -0.194102 0.718431 0.662353 0.655686
v 0.26262 0.475 -0.207436 0.718431 0.662353 0.655686
v 0.397779 0.475 -0.194102 0.718431 0.662353 0.655686
v 0.382383 0.475 0 0.718431 0.662353 0.655686
v 0.366987 0.475 0 0.718431 0.662353 0.655686
v 0.438416 0.475 -0.123718 0.718431 0.662353 0.655686
v -0.196742 0.25 -0.36154 0.903529 0.793333 0.746667
v 0.208735 0.25 0.340768 0.903529 0.793333 0.746667
v -0.0772492 0.25 -0.154571 0.903529 0.793333 0.746667
v 0.316236 0.25 -0.154571 0.903529 0.793333 0.746667
v 0.0218693 0.25 -0.154571 0.903529 0.793333 0.746667
v -0.0276899 0.25 -0.0687322 0.903529 0.793333 0.746667
v 0.120988 0.25 -0.154571 0.903529 0.793333 0.746667
v 0.34154 0.25 0.227436 0.903529 0.793333 0.746667
v 0.307854 0.25 0.16909 0.903529 0.793333 0.746667
v 0.0218693 0.25 0.017107 0.903529 0.793333 0.746667
v 0.220106 0.25 0.017107 0.903529 0.793333 0.746667
v 0.120988 0.25 0.017107 0.903529 0.793333 0.746667
v 0.170547 0.25 -0.0687322 0.903529 0.793333 0.746667

vt 0 0.5
vt 0.25 1
vt 0.75 1
vt 1 0.5
vt 0.75 0
vt 0.25 0
vt 0 0.757576
vt 0 0
vt 0.166667 0
vt 0.166667 0.757576
vt 0.333333 0
vt 0.333333 0.757576
vt 0.833333 0.757576
vt 0.833333 0
vt 1 0
vt 1 0.757576
vt 0.5 0
vt 0.5 0.757576
vt 0.666667 0
vt 0.666667 0.757576
vt 0.047551 0
vt 0.0454545 0.5
vt 0.095102 0
vt 0.0909091 0.5
vt 0.134966 0
vt 0.136364 0.5
vt 0.17483 0
vt 0.181818 0.5
vt 0.222381 0
vt 0.227273 0.5
vt 0.277619 0
vt 0.272727 0.5
vt 0.32517 0
vt 0.318182 0.5
vt 0.365034 0
vt 0.363636 0.5
vt 0.412585 0
vt 0.409091 0.5
vt 0.460136 0
vt 0.454545 0.5
vt 0.5 0
vt 0.5 0.5
vt 0.547551 0
vt 0.545455 0.5
vt 0.595102 0
vt 0.590909 0.5
vt 0.634966 0
vt 0.636364 0.5
vt 0.682517 0
vt 0.681818 0.5
vt 0.730068 0
vt 0.727273 0.5
vt 0.769932 0
vt 0.772727 0.5
vt 0.817483 0
vt 0.818182 0.5
vt 0.865034 0
vt 0.863636 0.5
vt 0.912585 0
vt 0.909091 0.5
vt 0.960136 0
vt 0.954545 0.5
vt 0.551943 0.833333
vt 0.603886 0.833333
vt 0.632038 0.833333
vt 0.683981 0.833333
vt 0.5 0.833333
vt 0.735924 0.833333
vt 0.764076 0.833333
vt 0.816019 0.833333
vt 0.764076 0.833333
vt 0.867962 0.833333
vt 0.919905 0.833333
vt 0.867962 0.833333
vt 0 0.833333
vt 0.0519429 0.833333
vt 0.971848 0.833333
vt 0.919905 0.833333
vt 1 0.833333
vt 0.103886 0.833333
vt 0.0519429 0.833333
vt 0.132038 0.833333
vt 0.16019 0.833333
vt 0.212133 0.833333
vt 0.287867 0.833333
vt 0.212133 0.833333
vt 0.33981 0.833333
vt 0.287867 0.833333
vt 0.367962 0.833333
vt 0.419905 0.833333
vt 0.471848 0.833333
vt 0.0339337 0.700926
vt 0.225993 0.700926
vt 0.225993 0.824768
vt 0.0339337 0.824768
vt 0 0.762847
vt 0.514081 0.175232
vt 0.384118 0.412384
vt 0.288088 0.237153
vt 0.322022 0.175232
vt 0.774007 0.175232
vt 0.61011 0
vt 0.677978 0
vt 0.774007 0.649537
vt 0.903971 0.412384
vt 1 0.587616
vt 0.966066 0.649537
vt 0.485919 0.824768
vt 0.38989 1
vt 0.322022 1
vt 0.966066 0.175232
vt 1 0.237153
vt 0.677978 0.824768
vt 0.133433 0.5
vt 0.13242 0.2
vt 0.1621 0.2
vt 0.167166 0.5
vt 0.332834 0.5
vt 0.3379 0.2
vt 0.36758 0.2
vt 0.366567 0.5
vt 0.149377 1
vt 0.129875 1
vt 0.370125 1
vt 0.350623 1
vt 0.295436 1
vt 0.282984 0.5
vt 0.28653 0.2
vt 0.3379 0.2
vt 0.204564 1
vt 0.217016 0.5
vt 0.21347 0.2
vt 0.21347 0.2
vt 0.1621 0.2
vt 0.54985 0.5
vt 0.55137 0.2
vt 0.60274 0.2
vt 0.5997 0.5
vt 0.610374 1
vt 0.555187 1
vt 0.416417 0.5
vt 0.425312 1
vt 0.41895 0.2
vt 0.36758 0.2
vt 0.5 0.5
vt 0.5 0.2
vt 0.55137 0.2
vt 0.5 1
vt 0.466267 0.5
vt 0.480499 1
vt 0.47032 0.2
vt 0.5 0.2
vt 0.41895 0.2
vt 0.916417 0.5
vt 0.966267 0.5
vt 0.980499 1
vt 0.925312 1
vt 0.91895 0.2
vt 0.97032 0.2
vt 0 0.2
vt 0.0513699 0.2
vt 0.0498502 0.5
vt 0.0997004 0.5
vt 0.0513699 0.2
vt 0.10274 0.2
vt 1 0.5
vt 0.97032 0.2
vt 1 0.2
vt 0 1
vt 0.055187 1
vt 0.110374 1
vt 1 1
vt 0.10274 0.2
vt 0.13242 0.2
vt 0.866567 0.5
vt 0.86758 0.2
vt 0.91895 0.2
vt 0.733134 0.5
vt 0.73516 0.2
vt 0.76484 0.2
vt 0.766866 0.5
vt 0.759751 1
vt 0.740249 1
vt 0.633433 0.5
vt 0.60274 0.2
vt 0.63242 0.2
vt 0.629875 1
vt 0.683283 0.5
vt 0.685062 1
vt 0.816717 0.5
vt 0.814938 1
vt 0.870125 1
vt 0.81621 0.2
vt 0.81621 0.2
vt 0.86758 0.2
vt 0.68379 0.2
vt 0.63242 0.2
vt 0.68379 0.2
vt 0.73516 0.2
vt 0.30486 0.17436
vt 0.256263 0.263905
vt 0.265469 0.280868
vt 0.323272 0.17436
vt 0.274675 0.263905
vt 0.341684 0.421302
vt 0.35089 0.404339
vt 0.277619 0.5
vt 0.282984 0
vt 0.332834 0
vt 0.32517 0.5
vt 0.981588 0.263905
vt 0.990794 0.246942
vt 0.951403 0.17436
vt 0.932991 0.17436
vt 0.222381 0.5
vt 0.217016 0
vt 0.54985 0
vt 0.5997 0
vt 0.595102 0.5
vt 0.547551 0.5
vt 0.338055 0.9
vt 0.286639 0.9
vt 0.365034 0.5
vt 0.367611 0.9
vt 0.338055 0.9
vt 0.367611 0.9
vt 0.412585 0.5
vt 0.419028 0.9
vt 0.475702 0.17436
vt 0.484908 0.157397
vt 0.314066 0.157397
vt 0.366567 0
vt 0.416417 0
vt 0.762149 0.17436
vt 0.771355 0.157397
vt 0.685934 0
vt 0.667522 0
vt 0.942197 0.157397
vt 0.5 0.5
vt 0.5 0
vt 0.551417 0.9
vt 0.5 0.9
vt 0.676728 0.016963
vt 0.570328 0
vt 0.561122 0.016963
vt 0.460136 0.5
vt 0.466267 0
vt 0.470444 0.9
vt 0.419028 0.9
vt 0.5 0.9
vt 0.579534 0.016963
vt 0.475702 0.17436
vt 0.494113 0.17436
vt 0.0762149 0.629587
vt 0.057803 0.629587
vt 0 0.736095
vt 0.00920599 0.753058
vt 0.133433 0
vt 0.167166 0
vt 0.17483 0.5
vt 0.134966 0.5
vt 0.161945 0.9
vt 0.132389 0.9
vt 0.213361 0.9
vt 0.161945 0.9
vt 0.213361 0.9
vt 0.286639 0.9
vt 0.237851 0.64655
vt 0.228645 0.629587
vt 0.0670089 0.64655
vt 0.35089 0.404339
vt 0.360096 0.421302
vt 0.323272 0.983037
vt 0.332478 1
vt 0.429672 1
vt 0.438878 0.983037
vt 0.912585 0.5
vt 0.916417 0
vt 0.966267 0
vt 0.960136 0.5
vt 0.505887 0.82564
vt 0.515092 0.842603
vt 0.667522 0.842603
vt 0.676728 0.82564
vt 0.420466 0.983037
vt 0.237851 0.82564
vt 0.228645 0.842603
vt 0.314066 1
vt 0.057803 0.842603
vt 0.048597 0.82564
vt 0.0498502 0
vt 0.047551 0.5
vt 0.0997004 0
vt 0.095102 0.5
vt 1 0
vt 0.132389 0.9
vt 0.102833 0.9
vt 0 0.9
vt 0.0514166 0.9
vt 1 0.9
vt 0.970444 0.9
vt 0.970444 0.9
vt 0.919028 0.9
vt 0.102833 0.9
vt 0.0670089 0.82564
vt 0.018412 0.736095
vt 0.865034 0.5
vt 0.866567 0
vt 0.923785 0.685206
vt 0.942197 0.685206
vt 1 0.578698
vt 0.990794 0.561735
vt 0.733134 0
vt 0.766866 0
vt 0.769932 0.5
vt 0.730068 0.5
vt 0.735222 0.9
vt 0.764778 0.9
vt 0.633433 0
vt 0.634966 0.5
vt 0.682517 0.5
vt 0.683806 0.9
vt 0.632389 0.9
vt 0.602833 0.9
vt 0.551417 0.9
vt 0.632389 0.9
vt 0.602833 0.9
vt 0.867611 0.9
vt 0.816194 0.9
vt 0.817483 0.5
vt 0.867611 0.9
vt 0.919028 0.9
vt 0.816194 0.9
vt 0.764778 0.9
vt 0.683806 0.9
vt 0.735222 0.9
vt 0.762149 0.668243
vt 0.771355 0.685206
vt 0.932991 0.668243
vt 0.685934 0.842603
vt 0.816717 0
vt 0.914579 0.421302
vt 0.896167 0.421302
vt 0.981588 0.578698
vt 1 0.263905
vt 0.683283 0
vt 0.323798 0.425113
vt 0.472611 0.149775
vt 0.310712 0.149775
vt 0.242849 0.275338
vt 0.0678634 0.850225
vt 0.229763 0.850225
vt 0.229763 0.5991
vt 0.0678634 0.5991
vt 0 0.724662
vt 0.553561 0
vt 0.236558 0.862798
vt 0.696083 0.0125734
vt 0.689288 0
vt 0.371979 0.612239
vt 0.527389 0.850225
vt 0.689288 0.850225
vt 0.817913 0.612239
vt 0.310712 1
vt 0.446439 1
vt 0.48431 0.612239
vt 0.428144 0.508321
vt 1 0.574887
vt 0.91905 0.425113
vt 0.770237 0.70045
vt 0.932137 0.70045
vt 0.59664 0.612239
vt 1 0.275338
vt 0.932137 0.149775
vt 0.84659 0.149775
vt 0.770237 0.149775
vt 0.808414 0.22041
vt 0.48431 0.404403
vt 0.70897 0.404403
vt 0.808414 0.22041
vt 0.59664 0.404403
vt 0.652805 0.508321

vn 0 -1 0
vn 0 0 1
vn 0.866025 0 0.5
vn 0.866025 0 0.5
vn -0.866025 0 0.5
vn -0.866025 0 0.5
vn 0.866025 0 -0.5
vn 0.866025 0 -0.5
vn 0 0 -1
vn -0.866025 0 -0.5
vn -0.866025 0 -0.5
vn -0.866025 0 -0.5
vn -0.866025 0 -0.5
vn -0.866025 0 -0.5
vn -0.866025 0 0.5
vn -0.866025 0 0.5
vn -0.866025 0 0.5
vn -0.866025 0 0.5
vn -0.866025 0 -0.5
vn -0.866025 0 0.5
vn -0.866025 0 0.5
vn -0.866025 0 0.5
vn -0.866025 0 0.5
vn 0.866025 0 0.5
vn 0.866025 0 0.5
vn 0.866025 0 0.5
vn 0.866025 0 -0.5
vn 0.866025 0 -0.5
vn 0.866025 0 0.5
vn 0.866025 0 0.5
vn 0.866025 0 -0.5
vn 0.866025 0 -0.5
vn 0.866025 0 -0.5
vn 0.866025 0 -0.5
vn 0.866025 0 -0.5
vn 0.866025 0 0.5
vn 0.866025 0 -0.5
vn 0.866025 0 0.5
vn 0.866025 0 -0.5
vn 0.866025 0 -0.5
vn -0.866025 0 -0.5
vn -0.866025 0 0.5
vn -0.866025 0 0.5
vn -0.866025 0 -0.5
vn -0.866025 0 0.5
vn -0.866025 0 0.5
vn 0 1 0
vn -0.866025 0 0.5
vn -0.866025 0 0.5
vn -0.866025 0 0.5
vn -0.866025 0 0.5
vn -0.866025 0 0.5
vn -0.866025 0 0.5
vn -0.866025 0 0.5
vn -0.866025 0 0.5
vn -0.866025 0 0.5
vn 0.866025 0 0.5
vn 0.866025 0 0.5
vn -0.866025 0 0.5
vn 0.866025 0 -0.5
vn -0.866025 0 -0.5
vn -0.866025 0 -0.5
vn -0.866025 0 -0.5
vn -0.866025 0 -0.5
vn 0.866025 0 -0.5
vn 0.866025 0 -0.5
vn 0.866025 0 -0.5
vn 0.866025 0 0.5
vn 0.866025 0 0.5
vn 0.866025 0 0.5
vn -0.866025 0 0.5
vn -0.866025 0 0.5
vn -0.866025 0 0.5
vn -0.866025 0 -0.5
vn 0.866025 0 -0.5
vn 0.866025 0 0.5

f 1/1/1 2/2/1 3/3/1 4/4/1 5/5/1 6/6/1
f 7/7/2 6/8/2 5/9/2 8/10/2
f 9/10/3 5/9/4 4/11/4 10/12/3
f 11/13/5 1/14/6 6/15/6 12/16/5
f 3/17/7 13/18/8 14/12/8 4/11/7
f 3/17/9 2/19/9 15/20/9 16/18/9
f 2/19/10 1/14/10 17/13/11 18/20/11
f 19/8/12 20/21/12 21/22/12 22/1/12
f 20/21/9 23/23/9 24/24/9 21/22/9
f 23/23/13 25/25/13 26/26/14 24/24/14
f 25/25/15 27/27/15 28/28/16 26/26/16
f 27/27/2 29/29/2 30/30/2 28/28/2
f 29/29/17 31/31/17 32/32/18 30/30/18
f 31/31/19 33/33/19 34/34/19 32/32/19
f 33/33/20 35/35/20 36/36/21 34/34/21
f 35/35/2 37/37/2 38/38/2 36/36/2
f 37/37/22 39/39/22 40/40/23 38/38/23
f 39/39/2 41/41/2 42/42/2 40/40/2
f 41/41/24 43/43/24 44/44/24 42/42/24
f 43/43/2 45/45/2 46/46/2 44/44/2
f 45/45/25 47/47/25 48/48/26 46/46/26
f 47/47/27 49/49/27 50/50/28 48/48/28
f 49/49/29 51/51/29 52/52/30 50/50/30
f 51/51/31 53/53/31 54/54/32 52/52/32
f 53/53/9 55/55/9 56/56/9 54/54/9
f 55/55/33 57/57/33 58/58/33 56/56/33
f 57/57/9 59/59/9 60/60/9 58/58/9
f 59/59/34 61/61/34 62/62/35 60/60/35
f 61/61/9 19/15/9 22/4/9 62/62/9
f 63/63/2 44/44/2 46/46/2 64/64/2
f 64/64/36 46/46/26 48/48/26 65/65/36
f 65/65/37 48/48/28 50/50/28 66/66/37
f 67/67/38 42/42/24 44/44/24 63/63/38
f 52/52/30 68/68/38 66/66/38 50/50/30
f 52/52/32 54/54/32 69/69/39 70/68/39
f 56/56/9 71/70/9 72/71/9 54/54/9
f 58/58/33 73/72/40 71/70/37 56/56/33
f 58/58/9 60/60/9 74/73/9 75/74/9
f 76/75/12 22/1/12 21/22/12 77/76/12
f 62/62/35 78/77/35 79/78/35 60/60/35
f 78/77/9 62/62/9 22/4/9 76/79/9
f 24/24/9 80/80/9 81/81/9 21/22/9
f 80/80/41 24/24/14 26/26/14 82/82/41
f 82/82/42 26/26/16 28/28/16 83/83/42
f 83/83/2 28/28/2 30/30/2 84/84/2
f 30/30/18 32/32/18 85/85/43 86/86/43
f 32/32/19 34/34/19 87/87/44 88/88/44
f 87/87/45 34/34/21 36/36/21 89/89/45
f 89/89/2 36/36/2 38/38/2 90/90/2
f 38/38/23 40/40/23 91/91/46 90/90/46
f 40/40/2 42/42/2 67/67/2 91/91/2
f 92/92/47 93/93/47 94/94/47 95/95/47 96/96/47
f 97/97/47 98/98/47 99/99/47 100/100/47
f 101/101/47 97/97/47 102/102/47 103/103/47
f 104/104/47 105/105/47 106/106/47 107/107/47
f 108/108/47 109/109/47 110/110/47 94/94/47
f 97/97/47 111/111/47 112/112/47 113/113/47 94/94/47 93/93/47
f 114/114/48 115/115/49 116/116/49 117/117/48
f 118/118/50 119/119/51 120/120/51 121/121/50
f 114/114/48 117/117/48 92/122/52 96/123/52
f 118/118/50 121/121/50 100/124/53 99/125/53
f 98/126/44 122/127/19 118/118/19 99/125/44
f 122/127/19 123/128/44 124/129/44 118/118/19
f 93/130/54 125/131/55 122/127/55 98/126/54
f 125/131/55 126/132/56 123/128/56 122/127/55
f 125/131/2 93/130/2 92/122/2 117/117/2
f 126/133/2 125/131/2 117/117/2 127/134/2
f 128/135/2 129/136/2 130/137/2 131/138/2
f 128/135/2 131/138/2 111/139/2 101/140/2
f 132/141/2 97/142/2 100/124/2 121/121/2
f 133/143/2 132/141/2 121/121/2 134/144/2
f 135/145/57 136/146/29 137/147/29 128/135/57
f 135/145/57 128/135/57 101/140/58 103/148/58
f 138/149/59 102/150/22 97/142/22 132/141/59
f 138/149/2 135/145/2 103/148/2 102/150/2
f 138/149/2 139/151/2 140/152/2 135/145/2
f 139/151/22 138/149/59 132/141/59 141/153/22
f 142/154/33 143/155/33 109/156/35 108/157/35
f 142/154/33 144/158/60 145/159/60 143/155/33
f 146/1/14 147/160/61 148/161/61 149/162/14
f 150/163/9 149/162/9 148/164/9 151/165/9
f 146/166/9 143/155/9 152/167/9 153/168/9
f 110/169/12 146/1/14 149/162/14 94/170/12
f 149/162/9 150/163/9 95/171/9 94/170/9
f 146/166/9 110/172/9 109/156/9 143/155/9
f 150/163/62 114/114/62 96/123/63 95/171/63
f 150/163/62 154/173/64 155/174/64 114/114/62
f 156/175/9 157/176/9 158/177/9 142/154/9
f 159/178/65 160/179/66 161/180/66 162/181/65
f 159/178/65 162/181/65 107/182/67 106/183/67
f 163/184/68 131/138/68 164/185/69 165/186/69
f 163/184/68 112/187/70 111/139/70 131/138/68
f 166/188/28 105/189/27 112/187/27 163/184/28
f 105/189/29 166/188/30 159/178/30 106/183/29
f 167/190/9 104/191/9 107/182/9 162/181/9
f 113/192/35 104/191/35 167/190/40 156/175/40
f 113/192/9 156/175/9 142/154/9 108/157/9
f 168/193/9 167/190/9 162/181/9 161/180/9
f 167/190/40 169/194/27 170/195/27 156/175/40
f 171/196/37 166/188/28 163/184/28 172/197/37
f 166/188/30 173/198/38 174/199/38 159/178/30
f 175/200/1 176/201/1 177/202/1 178/203/1
f 179/204/1 177/202/1 180/205/1 181/206/1
f 182/207/19 180/208/19 176/209/19 183/210/19
f 184/211/1 185/212/1 186/213/1 187/214/1
f 188/215/17 189/216/55 180/208/55 182/207/17
f 190/217/2 191/218/2 192/219/2 193/220/2
f 194/221/44 195/222/44 182/207/19 183/210/19
f 196/223/20 197/224/71 198/225/71 183/210/20
f 199/226/2 196/223/2 200/227/2 201/228/2
f 202/229/1 203/230/1 204/231/1 175/200/1
f 204/232/50 196/223/20 183/210/20 176/209/50
f 204/232/2 203/233/2 200/227/2 196/223/2
f 205/234/1 190/235/1 206/236/1 207/237/1
f 191/238/1 190/235/1 205/234/1 186/213/1
f 208/239/24 206/240/57 190/217/57 193/220/24
f 208/239/24 193/220/24 209/241/24 210/242/24
f 211/243/1 207/237/1 212/244/1 213/245/1
f 214/246/2 212/247/2 206/240/2 208/239/2
f 214/246/22 215/248/22 216/249/22 200/227/22
f 214/246/2 208/239/2 217/250/2 215/248/2
f 218/251/1 213/245/1 202/252/1 219/253/1
f 212/247/59 214/246/22 200/227/22 203/233/59
f 220/254/1 221/255/1 222/256/1 223/257/1
f 222/258/48 221/259/48 224/260/15 225/261/15
f 225/261/15 224/260/15 226/262/72 227/263/72
f 228/264/2 229/265/2 224/260/2 188/215/2
f 230/266/73 188/215/17 182/207/17 231/267/73
f 232/268/1 189/269/1 220/254/1 233/270/1
f 234/271/1 189/269/1 232/268/1 235/272/1
f 224/260/2 221/259/2 189/216/2 188/215/2
f 236/273/1 237/274/1 238/275/1 239/276/1
f 240/277/34 241/278/33 238/279/33 242/280/34
f 243/281/1 241/282/1 244/283/1 245/284/1
f 239/276/1 241/282/1 243/281/1 246/285/1
f 247/286/1 248/287/1 249/288/1 237/274/1
f 250/289/1 248/287/1 247/286/1 251/290/1
f 249/8/14 248/291/14 252/292/12 253/1/12
f 248/291/9 250/293/9 254/294/9 252/292/9
f 249/295/9 253/4/9 242/280/9 238/279/9
f 254/294/13 225/261/13 255/296/74 256/297/74
f 257/298/12 253/1/12 252/292/12 258/299/12
f 253/4/9 259/300/9 260/301/9 242/280/9
f 261/302/34 262/303/34 240/277/34 242/280/34
f 252/292/9 254/294/9 263/304/9 264/299/9
f 251/290/1 265/305/1 266/306/1 223/257/1
f 254/294/13 250/293/62 222/258/62 225/261/13
f 267/307/9 268/308/9 241/278/9 240/277/9
f 269/309/1 270/310/1 271/311/1 272/312/1
f 271/313/65 270/314/65 273/315/31 274/316/31
f 275/317/75 274/316/31 273/315/31 276/318/75
f 277/319/68 278/320/25 192/219/25 191/218/68
f 279/321/27 280/322/27 281/323/27 278/320/27
f 282/324/2 283/325/2 193/220/2 192/219/2
f 278/320/25 284/326/76 285/327/76 192/219/25
f 286/328/33 287/329/33 288/330/33 267/307/33
f 289/331/9 267/307/9 240/277/9 262/332/9
f 288/330/9 290/333/9 291/334/9 273/315/9
f 292/335/29 279/321/29 274/316/29 293/336/29
f 294/337/1 295/338/1 269/309/1 296/339/1
f 268/340/1 295/338/1 294/337/1 244/283/1
f 295/341/9 288/330/9 273/315/9 270/314/9
f 288/330/33 295/341/40 268/308/40 267/307/33
f 297/342/1 298/343/1 299/344/1 272/312/1
f 185/212/1 298/343/1 297/342/1 277/345/1
f 297/346/28 279/321/27 278/320/27 277/319/28
f 279/321/29 297/346/30 271/313/30 274/316/29
f 31/347/1 37/348/1 35/349/1 33/350/1
f 23/351/1 20/352/1 29/353/1 27/354/1 25/355/1
f 39/356/1 29/353/1 20/352/1 300/357/1 301/358/1 41/359/1
f 302/360/1 59/361/1 57/362/1 303/363/1
f 19/364/1 61/365/1 59/361/1 302/360/1 300/357/1
f 302/360/1 304/366/1 305/367/1
f 51/368/1 49/369/1 55/370/1 53/371/1
f 306/372/1 303/363/1 47/373/1 45/374/1 307/375/1
f 307/375/1 43/376/1 308/377/1
f 301/358/1 309/378/1 310/379/1 308/380/1
f 310/379/1 311/381/1 312/382/1