v -2 1 1.73205 1 0 0
v -2 1 0 1 0 0
v -2.3 1 0.173205 1 0 0
v -2.3 1 1.55885 1 0 0
v -2.3 0 0.173205 0 0 1
v -2.3 0 1.55885 0 0 1
v -2.3 1 1.55885 0 0 1
v -2.3 1 0.173205 0 0 1
v -0.5 1 2.94449 1 0 0
v -0.2 1 2.77128 1 0 0
v -0.5 1 2.59808 1 0 0
v -0.2 1 2.77128 0 0 1
v -0.5 1 2.94449 0 0 1
v -0.5 0 2.94449 0 0 1
v -0.2 0 2.77128 0 0 1
v -2 1 3.81051 1 0 0
v -1.7 1 3.63731 1 0 0
v -2 1 3.4641 1 0 0
v -1.7 1 3.63731 0 0 1
v -2 1 3.81051 0 0 1
v -2 0 3.81051 0 0 1
v -1.7 0 3.63731 0 0 1
v -2.3 1 1.90526 1 0 0
v -2.3 1 3.2909 1 0 0
v -2.3 0 1.90526 0 0 1
v -2.3 0 3.2909 0 0 1
v -2.3 1 3.2909 0 0 1
v -2.3 1 1.90526 0 0 1
v 2.5 1 1.21244 1 0 0
v 2.8 1 1.03923 1 0 0
v 2.5 1 0.866025 1 0 0
v 2.8 1 1.03923 0 0 1
v 2.5 1 1.21244 0 0 1
v 2.5 0 1.21244 0 0 1
v 2.8 0 1.03923 0 0 1
v -0.5 1 -1.21244 1 0 0
v -0.8 1 -1.03923 1 0 0
v -0.5 1 -0.866025 1 0 0
v -0.8 1 -1.03923 0 0 1
v -0.5 1 -1.21244 0 0 1
v -0.5 0 -1.21244 0 0 1
v -0.8 0 -1.03923 0 0 1
v -2 1 -0.34641 1 0 0
v -2 0 -0.34641 0 0 1
v -2 1 -0.34641 0 0 1
v 1 1 0 1 0 0
v 2.5 1 0.519615 1 0 0
v 1.3 1 -0.173205 1 0 0
v 2.5 0 0.519615 0 0 1
v 1.3 0 -0.173205 0 0 1
v 1.3 1 -0.173205 0 0 1
v 2.5 1 0.519615 0 0 1
v -2.3 1 -0.173205 1 0 0
v -2.3 1 -0.173205 0 0 1
v -2.3 0 -0.173205 0 0 1
v -2.3 1 3.63731 1 0 0
v -2.3 1 3.63731 0 0 1
v -2.3 0 3.63731 0 0 1
v 1 1 1.73205 1 0 0
v 1 1 2.07846 1 0 0
v 1 0 2.07846 0 0 1
v 1 1 2.07846 0 0 1
v 2.8 1 0.69282 1 0 0
v 2.8 1 0.69282 0 0 1
v 2.8 0 0.69282 0 0 1
v 1.3 1 1.90526 1 0 0
v 1.3 0 1.90526 0 0 1
v 1.3 1 1.90526 0 0 1
v 1 1 -0.34641 1 0 0
v 1 1 -0.34641 0 0 1
v 1 0 -0.34641 0 0 1
v -0.2 1 -1.03923 1 0 0
v -0.2 1 -1.03923 0 0 1
v -0.2 0 -1.03923 0 0 1
v 1 1 1.73205 0 1 0
v 2.5 1 0.866025 0 1 0
v 1 1 0 0 1 0
v -0.5 1 0.866025 0 1 0
v -0.5 1 2.59808 0 1 0
v -2 1 1.73205 0 1 0
v -2 1 3.4641 0 1 0
v -2 1 0 0 1 0
v -0.5 1 -0.866025 0 1 0

f 1 2 3 4
f 5 6 7 8
f 9 10 11
f 12 13 14 15
f 16 17 18
f 19 20 21 22
f 18 1 23 24
f 25 26 27 28
f 29 30 31
f 32 33 34 35
f 36 37 38
f 39 40 41 42
f 2 38 37 43
f 42 44 45 39
f 46 31 47 48
f 49 50 51 52
f 53 3 2
f 8 54 55 5
f 4 23 1
f 28 7 6 25
f 56 16 18
f 20 57 58 21
f 43 53 2
f 54 45 44 55
f 59 11 10 60
f 15 61 62 12
f 30 63 31
f 64 32 35 65
f 11 18 17 9
f 22 14 13 19
f 24 56 18
f 57 27 26 58
f 31 59 66 29
f 67 34 33 68
f 48 69 46
f 70 51 50 71
f 72 36 38
f 40 73 74 41
f 60 66 59
f 68 62 61 67
f 38 46 69 72
f 71 74 73 70
f 63 47 31
f 52 64 65 49
f 75 76 77
f 77 78 75
f 79 75 78
f 78 80 79
f 81 79 80
f 80 78 82
f 83 82 78