v -0.8 1 1.03923 1 0 0
v -0.5 1 1.21244 1 0 0
v -0.5 1 0.866025 1 0 0
v -0.5 1 1.21244 0 0 1
v -0.8 1 1.03923 0 0 1
v -0.8 0 1.03923 0 0 1
v -0.5 0 1.21244 0 0 1
v 2.5 1 1.21244 1 0 0
v 2.8 1 1.03923 1 0 0
v 2.5 1 0.866025 1 0 0
v 2.8 1 1.03923 0 0 1
v 2.5 1 1.21244 0 0 1
v 2.5 0 1.21244 0 0 1
v 2.8 0 1.03923 0 0 1
v -2.3 1 0.173205 1 0 0
v -2 1 0.34641 1 0 0
v -2 1 0 1 0 0
v -2 1 0.34641 0 0 1
v -2.3 1 0.173205 0 0 1
v -2.3 0 0.173205 0 0 1
v -2 0 0.34641 0 0 1
v 2.5 1 -1.21244 1 0 0
v 2.2 1 -1.03923 1 0 0
v 2.5 1 -0.866025 1 0 0
v 2.2 1 -1.03923 0 0 1
v 2.5 1 -1.21244 0 0 1
v 2.5 0 -1.21244 0 0 1
v 2.2 0 -1.03923 0 0 1
v 1 1 1.73205 1 0 0
v 0.7 1 1.90526 1 0 0
v 0.7 0 1.90526 0 0 1
v 0.7 1 1.90526 0 0 1
v 2.8 1 -0.69282 1 0 0
v 2.8 1 -1.03923 1 0 0
v 2.8 1 -1.03923 0 0 1
v 2.8 1 -0.69282 0 0 1
v 2.8 0 -0.69282 0 0 1
v 2.8 0 -1.03923 0 0 1
v -2.3 1 -0.173205 1 0 0
v -2.3 1 -0.173205 0 0 1
v -2.3 0 -0.173205 0 0 1
v -2 1 -2.07846 1 0 0
v -2.3 1 -1.90526 1 0 0
v -2 1 -1.73205 1 0 0
v -2.3 1 -1.90526 0 0 1
v -2 1 -2.07846 0 0 1
v -2 0 -2.07846 0 0 1
v -2.3 0 -1.90526 0 0 1
v 1 1 2.07846 1 0 0
v 1.3 1 1.90526 1 0 0
v 1.3 1 1.90526 0 0 1
v 1 1 2.07846 0 0 1
v 1 0 2.07846 0 0 1
v 1.3 0 1.90526 0 0 1
v 1 1 0 1 0 0
v 1 1 -0.34641 1 0 0
v 1 0 -0.34641 0 0 1
v 1 1 -0.34641 0 0 1
v -2.3 1 -1.55885 1 0 0
v -2.3 0 -1.55885 0 0 1
v -2.3 1 -1.55885 0 0 1
v -0.5 1 -2.59808 1 0 0
v -0.8 1 -2.77128 1 0 0
v -0.8 0 -2.77128 0 0 1
v -0.8 1 -2.77128 0 0 1
v -0.2 1 -2.42487 1 0 0
v -0.2 1 -2.77128 1 0 0
v -0.2 1 -2.77128 0 0 1
v -0.2 1 -2.42487 0 0 1
v -0.2 0 -2.42487 0 0 1
v -0.2 0 -2.77128 0 0 1
v 2.8 1 0.69282 1 0 0
v 2.8 1 0.69282 0 0 1
v 2.8 0 0.69282 0 0 1
v -0.5 1 -2.94449 1 0 0
v -0.5 1 -2.94449 0 0 1
v -0.5 0 -2.94449 0 0 1
v -0.5 1 -0.866025 1 0 0
v -0.2 1 -1.03923 1 0 0
v -0.2 0 -1.03923 0 0 1
v -0.2 1 -1.03923 0 0 1
v 2.5 1 -0.866025 0 1 0
v 1 1 0 0 1 0
v 2.5 1 0.866025 0 1 0
v 1 1 1.73205 0 1 0
v -0.5 1 0.866025 0 1 0
v -0.5 1 -0.866025 0 1 0
v -2 1 0 0 1 0
v -2 1 -1.73205 0 1 0
v -0.5 1 -2.59808 0 1 0

f 1 2 3
f 4 5 6 7
f 8 9 10
f 11 12 13 14
f 15 16 17
f 18 19 20 21
f 22 23 24
f 25 26 27 28
f 29 3 2 30
f 7 31 32 4
f 33 34 24
f 35 36 37 38
f 39 15 17
f 19 40 41 20
f 3 17 16 1
f 21 6 5 18
f 42 43 44
f 45 46 47 48
f 49 50 29
f 51 52 53 54
f 55 24 23 56
f 28 57 58 25
f 10 29 50 8
f 54 13 12 51
f 17 44 59 39
f 60 41 40 61
f 34 22 24
f 26 35 38 27
f 44 62 63 42
f 64 47 46 65
f 66 67 62
f 68 69 70 71
f 9 72 10
f 73 11 14 74
f 67 75 62
f 76 68 71 77
f 75 63 62
f 65 76 77 64
f 30 49 29
f 52 32 31 53
f 78 55 56 79
f 57 80 81 58
f 62 78 79 66
f 80 70 69 81
f 43 59 44
f 61 45 48 60
f 24 10 72 33
f 74 37 36 73
f 82 83 84
f 85 84 83
f 83 86 85
f 86 83 87
f 87 88 86
f 88 87 89
f 90 89 87