v 0.625 0 -0.216506 0.792157 0.666667 0.596078
v 0.625 0 0.216506 0.792157 0.666667 0.596078
v 0.625 0.1 0.216506 0.792157 0.666667 0.596078
v 0.625 0.1 -0.216506 0.792157 0.666667 0.596078
v 0.8125 0 0.108253 0.792157 0.666667 0.596078
v 0.8125 0.1 0.108253 0.792157 0.666667 0.596078
v 0.8125 0.1 -0.108253 0.792157 0.666667 0.596078
v 0.8125 0 -0.108253 0.792157 0.666667 0.596078
v 1 0.5 0 0.541176 0.796078 0.815686
v 0.8125 0.5 -0.108253 0.541176 0.796078 0.815686
v 0.8125 0.5 0.108253 0.541176 0.796078 0.815686
v 0.8125 0.1 -0.108253 0.541176 0.796078 0.815686
v 0.8125 0.1 0.108253 0.541176 0.796078 0.815686
v 0.8125 0 0.108253 0.541176 0.796078 0.815686
v 1 0 0 0.541176 0.796078 0.815686
v 0.8125 0 -0.108253 0.541176 0.796078 0.815686

f 1 2 3 4
f 3 2 5 6
f 3 6 7 4
f 5 2 1 8
f 8 1 4 7
f 9 10 11
f 10 12 13 11
f 14 15 9 11
f 15 16 10 9
f 14 16 15