v -0.5 1 0.866025 1 0 0
v -2 1 1.73205 1 0 0
v -1.7 1 1.90526 1 0 0
v -0.5 1 1.21244 1 0 0
v -1.7 0 1.90526 0 0 1
v -0.5 0 1.21244 0 0 1
v -0.5 1 1.21244 0 0 1
v -1.7 1 1.90526 0 0 1
v 1 1 -1.73205 1 0 0
v 2.5 1 -0.866025 1 0 0
v 2.5 1 -1.21244 1 0 0
v 1.3 1 -1.90526 1 0 0
v 2.5 0 -1.21244 0 0 1
v 1.3 0 -1.90526 0 0 1
v 1.3 1 -1.90526 0 0 1
v 2.5 1 -1.21244 0 0 1
v -2 1 0 1 0 0
v -2.3 1 0.173205 1 0 0
v -2.3 1 1.55885 1 0 0
v -2.3 0 0.173205 0 0 1
v -2.3 0 1.55885 0 0 1
v -2.3 1 1.55885 0 0 1
v -2.3 1 0.173205 0 0 1
v 1 1 1.73205 1 0 0
v 0.7 1 1.90526 1 0 0
v 0.7 0 1.90526 0 0 1
v 0.7 1 1.90526 0 0 1
v 1 1 -2.07846 1 0 0
v 1 1 -2.07846 0 0 1
v 1 0 -2.07846 0 0 1
v 2.8 1 -0.69282 1 0 0
v 2.8 1 -1.03923 1 0 0
v 2.8 1 -1.03923 0 0 1
v 2.8 1 -0.69282 0 0 1
v 2.8 0 -0.69282 0 0 1
v 2.8 0 -1.03923 0 0 1
v -2.3 1 -0.173205 1 0 0
v -2.3 1 -0.173205 0 0 1
v -2.3 0 -0.173205 0 0 1
v -0.5 1 -0.866025 1 0 0
v -0.8 1 -1.03923 1 0 0
v -2 1 -0.34641 1 0 0
v -0.8 0 -1.03923 0 0 1
v -2 0 -0.34641 0 0 1
v -2 1 -0.34641 0 0 1
v -0.8 1 -1.03923 0 0 1
v 1 1 2.07846 1 0 0
v 1.3 1 1.90526 1 0 0
v 1.3 1 1.90526 0 0 1
v 1 1 2.07846 0 0 1
v 1 0 2.07846 0 0 1
v 1.3 0 1.90526 0 0 1
v 1.3 1 1.55885 1 0 0
v 1.3 1 1.55885 0 0 1
v 1.3 0 1.55885 0 0 1
v 1 1 0 1 0 0
v 1.3 1 0.173205 1 0 0
v 2.5 1 -0.519615 1 0 0
v 1.3 0 0.173205 0 0 1
v 2.5 0 -0.519615 0 0 1
v 2.5 1 -0.519615 0 0 1
v 1.3 1 0.173205 0 0 1
v -2 1 2.07846 1 0 0
v -2 1 2.07846 0 0 1
v -2 0 2.07846 0 0 1
v -0.5 1 -2.59808 1 0 0
v -0.2 1 -2.77128 1 0 0
v -0.2 0 -2.77128 0 0 1
v -0.2 1 -2.77128 0 0 1
v -0.8 1 -2.77128 1 0 0
v -0.8 1 -2.42487 1 0 0
v -0.8 1 -2.42487 0 0 1
v -0.8 1 -2.77128 0 0 1
v -0.8 0 -2.77128 0 0 1
v -0.8 0 -2.42487 0 0 1
v -2.3 1 1.90526 1 0 0
v -2.3 1 1.90526 0 0 1
v -2.3 0 1.90526 0 0 1
v -0.5 1 -2.94449 1 0 0
v -0.5 1 -2.94449 0 0 1
v -0.5 0 -2.94449 0 0 1
v -2 1 1.73205 0 1 0
v -0.5 1 0.866025 0 1 0
v -2 1 0 0 1 0
v -0.5 1 -0.866025 0 1 0
v 1 1 0 0 1 0
v 1 1 1.73205 0 1 0
v 2.5 1 -0.866025 0 1 0
v 1 1 -1.73205 0 1 0
v -0.5 1 -2.59808 0 1 0

f 1 2 3 4
f 5 6 7 8
f 9 10 11 12
f 13 14 15 16
f 2 17 18 19
f 20 21 22 23
f 24 1 4 25
f 6 26 27 7
f 12 28 9
f 29 15 14 30
f 31 32 10
f 33 34 35 36
f 37 18 17
f 23 38 39 20
f 17 40 41 42
f 43 44 45 46
f 47 48 24
f 49 50 51 52
f 48 53 24
f 54 49 52 55
f 42 37 17
f 38 45 44 39
f 32 11 10
f 16 33 36 13
f 10 56 57 58
f 59 60 61 62
f 63 3 2
f 8 64 65 5
f 66 9 28 67
f 30 68 69 29
f 70 71 66
f 72 73 74 75
f 76 63 2
f 64 77 78 65
f 19 76 2
f 77 22 21 78
f 25 47 24
f 50 27 26 51
f 40 66 71 41
f 75 43 46 72
f 56 24 53 57
f 55 59 62 54
f 79 70 66
f 73 80 81 74
f 58 31 10
f 34 61 60 35
f 67 79 66
f 80 69 68 81
f 82 83 84
f 85 84 83
f 83 86 85
f 86 83 87
f 86 88 89
f 89 85 86
f 85 89 90