v -0.5 0.02 0.866025 0.74902 0.635294 0.54902
v -0.125 0.02 0.649519 0.74902 0.635294 0.54902
v -0.5 0.02 0.433013 0.74902 0.635294 0.54902
v -0.125 0.02 0.216506 0.74902 0.635294 0.54902
v -0.125 0.02 0.649519 0.729412 0.74902 0.580392
v 0.25 0.02 0.433013 0.729412 0.74902 0.580392
v -0.125 0.02 0.216506 0.729412 0.74902 0.580392
v 0.625 0.02 0.216506 0.662745 0.545098 0.462745
v 1 0.02 0 0.662745 0.545098 0.462745
v 0.625 0.02 -0.216506 0.662745 0.545098 0.462745
v 0.625 0.02 0.216506 0.729412 0.74902 0.580392
v 0.25 0.02 0 0.729412 0.74902 0.580392
v -0.5 0.02 0.433013 0.952941 0.894118 0.788235
v -0.125 0.02 0.216506 0.952941 0.894118 0.788235
v -0.5 0.02 0 0.952941 0.894118 0.788235
v 0.25 0.02 0.433013 0.662745 0.545098 0.462745
v 0.25 0.02 0 0.662745 0.545098 0.462745
v -0.125 0.02 0.216506 0.662745 0.545098 0.462745
v 0.625 0.02 0.216506 0.74902 0.635294 0.54902
v 0.625 0.02 -0.216506 0.74902 0.635294 0.54902
v 0.25 0.02 0 0.74902 0.635294 0.54902
v 0.625 0.02 -0.216506 0.729412 0.74902 0.580392
v 0.25 0.02 -0.433013 0.729412 0.74902 0.580392
v -0.125 0.02 -0.216506 0.729412 0.74902 0.580392
v -0.5 0.02 0 0.729412 0.74902 0.580392
v -0.125 0.02 -0.216506 0.662745 0.545098 0.462745
v 0.25 0.02 0 0.952941 0.894118 0.788235
v 0.25 0.02 -0.433013 0.952941 0.894118 0.788235
v -0.125 0.02 -0.216506 0.952941 0.894118 0.788235
v -0.5 0.02 0 0.662745 0.545098 0.462745
v -0.5 0.02 -0.433013 0.662745 0.545098 0.462745
v -0.125 0.02 -0.649519 0.952941 0.894118 0.788235
v -0.5 0.02 -0.433013 0.952941 0.894118 0.788235
v -0.125 0.02 -0.216506 0.74902 0.635294 0.54902
v 0.25 0.02 -0.433013 0.74902 0.635294 0.54902
v -0.125 0.02 -0.649519 0.74902 0.635294 0.54902
v -0.5 0.02 -0.866025 0.952941 0.894118 0.788235
v -0.5 0 0.433013 0.74902 0.635294 0.54902
v -0.5 0 0.866025 0.74902 0.635294 0.54902
v -0.5 0 0 0.952941 0.894118 0.788235
v -0.5 0 0.433013 0.952941 0.894118 0.788235
v -0.5 0 -0.433013 0.662745 0.545098 0.462745
v -0.5 0 0 0.662745 0.545098 0.462745
v -0.5 0 -0.866025 0.952941 0.894118 0.788235
v -0.5 0 -0.433013 0.952941 0.894118 0.788235
v 1 0 0 0.662745 0.545098 0.462745
v 0.625 0 -0.216506 0.662745 0.545098 0.462745
v 0.625 0 -0.216506 0.729412 0.74902 0.580392
v 0.25 0 -0.433013 0.729412 0.74902 0.580392
v 0.25 0 -0.433013 0.74902 0.635294 0.54902
v -0.125 0 -0.649519 0.74902 0.635294 0.54902
v -0.125 0 -0.649519 0.952941 0.894118 0.788235
v -0.125 0 0.649519 0.74902 0.635294 0.54902
v -0.125 0 0.649519 0.729412 0.74902 0.580392
v 0.25 0 0.433013 0.729412 0.74902 0.580392
v 0.625 0 0.216506 0.729412 0.74902 0.580392
v 0.625 0 0.216506 0.662745 0.545098 0.462745
v -0.125 0 0.216506 0.74902 0.635294 0.54902
v -0.125 0 0.216506 0.729412 0.74902 0.580392
v 0.25 0 0 0.729412 0.74902 0.580392
v -0.125 0 0.216506 0.952941 0.894118 0.788235
v -0.125 0 0.216506 0.662745 0.545098 0.462745
v 0.25 0 0 0.662745 0.545098 0.462745
v 0.25 0 0.433013 0.662745 0.545098 0.462745
v -0.5 0 0 0.729412 0.74902 0.580392
v -0.125 0 -0.216506 0.729412 0.74902 0.580392
v 0.25 0 0 0.74902 0.635294 0.54902
v 0.625 0 -0.216506 0.74902 0.635294 0.54902
v 0.625 0 0.216506 0.74902 0.635294 0.54902
v -0.125 0 -0.216506 0.662745 0.545098 0.462745
v -0.125 0 -0.216506 0.952941 0.894118 0.788235
v 0.25 0 -0.433013 0.952941 0.894118 0.788235
v 0.25 0 0 0.952941 0.894118 0.788235
v -0.125 0 -0.216506 0.74902 0.635294 0.54902

f 1 2 3
f 2 4 3
f 5 6 7
f 8 9 10
f 6 11 12
f 13 14 15
f 16 17 18
f 19 20 21
f 12 22 23
f 7 24 25
f 18 17 26
f 27 28 29
f 30 26 31
f 29 32 33
f 34 35 36
f 33 32 37
f 38 39 1 3
f 40 41 13 15
f 42 43 30 31
f 44 45 33 37
f 46 47 10 9
f 48 49 23 22
f 50 51 36 35
f 52 44 37 32
f 39 53 2 1
f 54 55 6 5
f 55 56 11 6
f 57 46 9 8
f 38 53 39
f 38 58 53
f 59 55 54
f 47 46 57
f 60 56 55
f 40 61 41
f 62 63 64
f 65 66 59
f 67 68 69
f 49 48 60
f 70 63 62
f 42 70 43
f 45 52 71
f 71 72 73
f 51 50 74
f 44 52 45