v 4.3 1 0.173205 1 0 0
v 4.3 1 -0.173205 1 0 0
v 4 1 0 1 0 0
v 4.3 1 -0.173205 0 0 1
v 4.3 1 0.173205 0 0 1
v 4.3 0 0.173205 0 0 1
v 4.3 0 -0.173205 0 0 1
v 2.5 1 -0.866025 0 1 0
v 4 1 0 0 1 0
v 4 1 -0.34641 0 1 0
v 2.8 1 -1.03923 0 1 0
v 4 0 -0.34641 0 0 1
v 2.8 0 -1.03923 0 0 1
v 2.8 1 -1.03923 0 0 1
v 4 1 -0.34641 0 0 1
v 2.5 1 1.21244 1 0 0
v 2.8 1 1.03923 1 0 0
v 2.5 1 0.866025 1 0 0
v 2.8 1 1.03923 0 0 1
v 2.5 1 1.21244 0 0 1
v 2.5 0 1.21244 0 0 1
v 2.8 0 1.03923 0 0 1
v -0.5 1 0.866025 0 1 0
v -2 1 1.73205 0 1 0
v -1.7 1 1.90526 0 1 0
v -0.5 1 1.21244 0 1 0
v -1.7 0 1.90526 0 0 1
v -0.5 0 1.21244 0 0 1
v -0.5 1 1.21244 0 0 1
v -1.7 1 1.90526 0 0 1
v 2.8 1 -1.03923 1 0 0
v 2.5 1 -1.21244 1 0 0
v 2.5 1 -0.866025 1 0 0
v 2.5 1 -1.21244 0 0 1
v 2.5 0 -1.21244 0 0 1
v -2 1 2.07846 1 0 0
v -1.7 1 1.90526 1 0 0
v -2 1 1.73205 1 0 0
v -2 1 2.07846 0 0 1
v -2 0 2.07846 0 0 1
v 1 1 2.07846 1 0 0
v 1.3 1 1.90526 1 0 0
v 1 1 1.73205 1 0 0
v 1.3 1 1.90526 0 0 1
v 1 1 2.07846 0 0 1
v 1 0 2.07846 0 0 1
v 1.3 0 1.90526 0 0 1
v -0.5 1 -0.866025 0 1 0
v 1 1 0 0 1 0
v 1 1 -0.34641 0 1 0
v -0.2 1 -1.03923 0 1 0
v 1 0 -0.34641 0 0 1
v -0.2 0 -1.03923 0 0 1
v -0.2 1 -1.03923 0 0 1
v 1 1 -0.34641 0 0 1
v 2.2 1 -1.03923 1 0 0
v 2.2 1 -1.03923 0 0 1
v 2.2 0 -1.03923 0 0 1
v -2.3 1 1.90526 1 0 0
v -2.3 1 1.90526 0 0 1
v -2.3 0 1.90526 0 0 1
v -2.3 1 1.55885 1 0 0
v -2.3 1 1.55885 0 0 1
v -2.3 0 1.55885 0 0 1
v 0.7 1 1.90526 1 0 0
v 0.7 1 1.90526 0 0 1
v 0.7 0 1.90526 0 0 1
v 2.2 1 -1.03923 0 1 0
v -2 1 0 0 1 0
v -0.8 1 -1.03923 0 1 0
v -2 1 -0.34641 0 1 0
v -0.8 0 -1.03923 0 0 1
v -2 0 -0.34641 0 0 1
v -2 1 -0.34641 0 0 1
v -0.8 1 -1.03923 0 0 1
v 1 1 1.73205 0 1 0
v 0.7 1 1.90526 0 1 0
v -2.3 1 -0.173205 1 0 0
v -2.3 1 0.173205 1 0 0
v -2 1 0 1 0 0
v -2.3 1 0.173205 0 0 1
v -2.3 1 -0.173205 0 0 1
v -2.3 0 -0.173205 0 0 1
v -2.3 0 0.173205 0 0 1
v -2.3 1 0.173205 0 1 0
v -2.3 1 1.55885 0 1 0
v -0.2 1 -1.03923 1 0 0
v -0.5 1 -1.21244 1 0 0
v -0.5 1 -0.866025 1 0 0
v -0.5 1 -1.21244 0 0 1
v -0.5 0 -1.21244 0 0 1
v 4 1 0.34641 1 0 0
v 4 1 0.34641 0 0 1
v 4 0 0.34641 0 0 1
v 2.5 1 0.866025 0 1 0
v 2.8 1 1.03923 0 1 0
v 4 1 0.34641 0 1 0
v 1.3 1 1.90526 0 1 0
v 2.5 1 1.21244 0 1 0
v 4 1 -0.34641 1 0 0
v -0.8 1 -1.03923 1 0 0
v -2 1 -0.34641 1 0 0

vt 1 0
vt 1 1
vt 0 0.5
vt 0 0
vt 0 1
vt 0 0.833333
vt 1 0.333333
vt 0.2 1
vt 1 0.5
vt 0 0.166667
vt 0.2 0
vt 1 0.666667
vt 1 0.5
vt 1 0.5
vt 0.2 1
vt 0 0.5
vt 0 0.5
vt 1 0.5
vt 1 0.833333
vt 0.8 1
vt 0 0.333333
vt 1 0.166667
vt 0 0.666667
vt 0.8 0
vt 1 0.5
vt 0 0.9
vt 0 0.1
vt 0.2 0
vt 1 0.666667

f 1/1 2/2 3/3
f 4/2 5/1 6/4 7/5
f 8/6 9/1 10/7 11/8
f 12/2 13/5 14/4 15/1
f 16/4 17/9 18/5
f 19/1 20/4 21/5 22/2
f 23/2 24/10 25/11 26/12
f 27/5 28/2 29/1 30/4
f 31/13 32/5 33/4
f 34/4 14/1 13/2 35/5
f 36/4 37/14 38/5
f 30/1 39/4 40/5 27/2
f 41/4 42/14 43/5
f 44/1 45/4 46/5 47/2
f 48/6 49/1 50/7 51/15
f 52/2 53/5 54/4 55/1
f 32/2 56/16 33/1
f 57/4 34/1 35/2 58/5
f 59/17 36/1 38/2
f 39/1 60/4 61/5 40/2
f 62/5 59/4 38/18
f 60/1 63/2 64/5 61/4
f 65/17 41/1 43/2
f 45/1 66/4 67/5 46/2
f 49/4 8/19 68/20 50/21
f 58/2 52/5 55/4 57/1
f 69/4 48/19 70/20 71/21
f 72/2 73/5 74/4 75/1
f 76/22 23/5 26/23 77/24
f 28/5 67/2 66/1 29/4
f 78/5 79/4 80/25
f 81/1 82/2 83/5 84/4
f 24/1 69/2 85/26 86/27
f 84/5 64/4 63/1 81/2
f 87/13 88/5 89/4
f 90/4 54/1 53/2 91/5
f 92/4 1/25 3/5
f 5/1 93/4 94/5 6/2
f 9/2 95/10 96/28 97/29
f 22/5 94/2 93/1 19/4
f 95/2 76/10 98/11 99/12
f 47/5 21/2 20/1 44/4
f 2/25 100/5 3/4
f 15/4 4/1 7/2 12/5
f 88/2 101/16 89/1
f 75/4 90/1 91/2 72/5
f 102/2 78/3 80/1
f 82/4 74/1 73/2 83/5