v 4.3 1 0.173205 1 0 0
v 4.3 1 -0.173205 1 0 0
v 4 1 0 1 0 0
v 4.3 1 -0.173205 0 0 1
v 4.3 1 0.173205 0 0 1
v 4.3 0 0.173205 0 0 1
v 4.3 0 -0.173205 0 0 1
v 2.5 1 -0.866025 0 1 0
v 4 1 0 0 1 0
v 4 1 -0.34641 0 1 0
v 2.8 1 -1.03923 0 1 0
v 4 0 -0.34641 0 0 1
v 2.8 0 -1.03923 0 0 1
v 2.8 1 -1.03923 0 0 1
v 4 1 -0.34641 0 0 1
v 2.5 1 1.21244 1 0 0
v 2.8 1 1.03923 1 0 0
v 2.5 1 0.866025 1 0 0
v 2.8 1 1.03923 0 0 1
v 2.5 1 1.21244 0 0 1
v 2.5 0 1.21244 0 0 1
v 2.8 0 1.03923 0 0 1
v -0.8 1 1.03923 1 0 0
v -0.5 1 1.21244 1 0 0
v -0.5 1 0.866025 1 0 0
v -0.5 1 1.21244 0 0 1
v -0.8 1 1.03923 0 0 1
v -0.8 0 1.03923 0 0 1
v -0.5 0 1.21244 0 0 1
v 2.5 1 -1.21244 1 0 0
v 2.2 1 -1.03923 1 0 0
v 2.5 1 -0.866025 1 0 0
v 2.2 1 -1.03923 0 0 1
v 2.5 1 -1.21244 0 0 1
v 2.5 0 -1.21244 0 0 1
v 2.2 0 -1.03923 0 0 1
v -2.3 1 -1.90526 1 0 0
v -2.3 1 -1.55885 1 0 0
v -2 1 -1.73205 1 0 0
v -2.3 1 -1.55885 0 0 1
v -2.3 1 -1.90526 0 0 1
v -2.3 0 -1.90526 0 0 1
v -2.3 0 -1.55885 0 0 1
v 1 1 2.07846 1 0 0
v 1.3 1 1.90526 1 0 0
v 1 1 1.73205 1 0 0
v 1.3 1 1.90526 0 0 1
v 1 1 2.07846 0 0 1
v 1 0 2.07846 0 0 1
v 1.3 0 1.90526 0 0 1
v -0.5 1 -0.866025 0 1 0
v 1 1 0 0 1 0
v 1 1 -0.34641 0 1 0
v -0.2 1 -1.03923 0 1 0
v 1 0 -0.34641 0 0 1
v -0.2 0 -1.03923 0 0 1
v -0.2 1 -1.03923 0 0 1
v 1 1 -0.34641 0 0 1
v 2.8 1 -1.03923 1 0 0
v -2 1 -2.07846 1 0 0
v -2 1 -2.07846 0 0 1
v -2 0 -2.07846 0 0 1
v 0.7 1 1.90526 1 0 0
v 0.7 1 1.90526 0 0 1
v 0.7 0 1.90526 0 0 1
v 2.5 1 0.866025 0 1 0
v 1 1 1.73205 0 1 0
v 1.3 1 1.90526 0 1 0
v 2.5 1 1.21244 0 1 0
v -2.3 1 0.173205 1 0 0
v -2 1 0.34641 1 0 0
v -2 1 0 1 0 0
v -2 1 0.34641 0 0 1
v -2.3 1 0.173205 0 0 1
v -2.3 0 0.173205 0 0 1
v -2 0 0.34641 0 0 1
v -2.3 1 -0.173205 1 0 0
v -2.3 1 -0.173205 0 0 1
v -2.3 0 -0.173205 0 0 1
v -0.5 1 0.866025 0 1 0
v -0.5 1 1.21244 0 1 0
v 0.7 1 1.90526 0 1 0
v -2 1 0 0 1 0
v -2 1 0.34641 0 1 0
v -0.8 1 1.03923 0 1 0
v -0.2 1 -1.03923 1 0 0
v -0.5 1 -1.21244 1 0 0
v -0.5 1 -0.866025 1 0 0
v -0.5 1 -1.21244 0 0 1
v -0.5 0 -1.21244 0 0 1
v 2.8 1 1.03923 0 1 0
v 4 1 0.34641 0 1 0
v 4 0 0.34641 0 0 1
v 4 1 0.34641 0 0 1
v 4 1 0.34641 1 0 0
v -1.7 1 -1.90526 1 0 0
v -1.7 1 -1.90526 0 0 1
v -1.7 0 -1.90526 0 0 1
v 2.2 1 -1.03923 0 1 0
v 4 1 -0.34641 1 0 0
v -2 1 -1.73205 0 1 0
v -0.5 1 -1.21244 0 1 0
v -1.7 1 -1.90526 0 1 0
v -2.3 1 -1.55885 0 1 0
v -2.3 1 -0.173205 0 1 0

vt 1 0
vt 1 1
vt 0 0.5
vt 0 0
vt 0 1
vt 0 0.833333
vt 1 0.333333
vt 0.2 1
vt 1 0.5
vt 0 0.5
vt 0 0.5
vt 1 0.5
vt 0.2 1
vt 1 0.5
vt 0 0.5
vt 0 0.5
vt 0 0.166667
vt 0.2 0
vt 1 0.666667
vt 1 0.5
vt 1 0.166667
vt 0 0.666667
vt 0.8 0
vt 0 0.666667
vt 0.8 0
vt 0.2 0
vt 1 0.666667
vt 1 0.5
vt 1 0.833333
vt 0.8 1
vt 0 0.333333
vt 0 0.833333
vt 1 0.333333
vt 0 0.9
vt 0 0.1

f 1/1 2/2 3/3
f 4/2 5/1 6/4 7/5
f 8/6 9/1 10/7 11/8
f 12/2 13/5 14/4 15/1
f 16/4 17/9 18/5
f 19/1 20/4 21/5 22/2
f 23/10 24/1 25/2
f 26/1 27/4 28/5 29/2
f 30/2 31/11 32/1
f 33/4 34/1 35/2 36/5
f 37/5 38/4 39/12
f 40/1 41/2 42/5 43/4
f 44/4 45/12 46/5
f 47/1 48/4 49/5 50/2
f 51/6 52/1 53/7 54/13
f 55/2 56/5 57/4 58/1
f 59/14 30/5 32/4
f 34/4 14/1 13/2 35/5
f 60/2 37/15 39/1
f 41/4 61/1 62/2 42/5
f 63/16 44/1 46/2
f 48/1 64/4 65/5 49/2
f 66/2 67/17 68/18 69/19
f 50/5 21/2 20/1 47/4
f 70/3 71/1 72/2
f 73/1 74/4 75/5 76/2
f 77/5 70/4 72/20
f 74/1 78/2 79/5 75/4
f 67/21 80/5 81/22 82/23
f 29/5 65/2 64/1 26/4
f 80/21 83/5 84/24 85/25
f 76/5 28/2 27/1 73/4
f 86/14 87/5 88/4
f 89/4 57/1 56/2 90/5
f 9/2 66/17 91/26 92/27
f 22/5 93/2 94/1 19/4
f 95/4 1/20 3/5
f 5/1 94/4 93/5 6/2
f 96/28 60/5 39/4
f 61/4 97/1 98/2 62/5
f 52/4 8/29 99/30 53/31
f 36/2 55/5 58/4 33/1
f 2/20 100/5 3/4
f 15/4 4/1 7/2 12/5
f 101/32 51/1 102/33 103/13
f 90/2 98/5 97/4 89/1
f 83/1 101/2 104/34 105/35
f 43/5 79/4 78/1 40/2