v 0.142857 0 -0.19245 0.396078 0.262745 0.129412
v 0.214286 0 -0.0687322 0.396078 0.262745 0.129412
v 0.142857 0 0.0549857 0.396078 0.262745 0.129412
v 2.4e-11 0 0.0549857 0.396078 0.262745 0.129412
v -0.0714286 0 -0.0687322 0.396078 0.262745 0.129412
v 2.4e-11 0 -0.19245 0.396078 0.262745 0.129412
v 0.120988 0.25 -0.154571 0.60404 0.672727 0.741414
v 0.0218693 0.25 -0.154571 0.60404 0.672727 0.741414
v 0.170547 0.25 -0.0687322 0.60404 0.672727 0.741414
v 0.120988 0.25 0.017107 0.60404 0.672727 0.741414
v 0.120988 0.25 -0.154571 0.60404 0.672727 0.741414
v -0.0276899 0.25 -0.0687322 0.60404 0.672727 0.741414
v 0.0218693 0.25 -0.154571 0.60404 0.672727 0.741414
v 0.0218693 0.25 0.017107 0.60404 0.672727 0.741414
v -0.0276899 0.25 -0.0687322 0.60404 0.672727 0.741414
v 0.120988 0.25 0.017107 0.60404 0.672727 0.741414
v 0.476906 0.25 0.123718 0.903529 0.793333 0.746667
v 0.405477 0.25 0 0.903529 0.793333 0.746667
v 0.428571 0.325 0 0.903529 0.793333 0.746667
v 0.5 0.325 0.123718 0.903529 0.793333 0.746667
v 0.476906 0.25 -0.123718 0.903529 0.793333 0.746667
v 0.5 0.325 -0.123718 0.903529 0.793333 0.746667
v 0.417024 0.25 -0.227436 0.903529 0.793333 0.746667
v 0.428571 0.325 -0.247436 0.903529 0.793333 0.746667
v 0.274167 0.25 -0.227436 0.903529 0.793333 0.746667
v 0.285714 0.325 -0.247436 0.903529 0.793333 0.746667
v 0.202739 0.25 -0.351154 0.903529 0.793333 0.746667
v 0.214286 0.325 -0.371154 0.903529 0.793333 0.746667
v 0.0598816 0.25 -0.351154 0.903529 0.793333 0.746667
v 0.0714286 0.325 -0.371154 0.903529 0.793333 0.746667
v -0.011547 0.25 -0.474872 0.903529 0.793333 0.746667
v 0 0.325 -0.494872 0.903529 0.793333 0.746667
v -0.13131 0.25 -0.474872 0.903529 0.793333 0.746667
v -0.142857 0.325 -0.494872 0.903529 0.793333 0.746667
v -0.202739 0.25 -0.351154 0.903529 0.793333 0.746667
v -0.214286 0.325 -0.371154 0.903529 0.793333 0.746667
v -0.345596 0.25 -0.351154 0.903529 0.793333 0.746667
v -0.357143 0.325 -0.371154 0.903529 0.793333 0.746667
v -0.405477 0.25 -0.247436 0.903529 0.793333 0.746667
v -0.428571 0.325 -0.247436 0.903529 0.793333 0.746667
v -0.345596 0.25 -0.143718 0.903529 0.793333 0.746667
v -0.357143 0.325 -0.123718 0.903529 0.793333 0.746667
v -0.202739 0.25 -0.143718 0.903529 0.793333 0.746667
v -0.214286 0.325 -0.123718 0.903529 0.793333 0.746667
v -0.119763 0.25 0 0.903529 0.793333 0.746667
v -0.142857 0.325 0 0.903529 0.793333 0.746667
v -0.191192 0.25 0.123718 0.903529 0.793333 0.746667
v -0.214286 0.325 0.123718 0.903529 0.793333 0.746667
v -0.13131 0.25 0.227436 0.903529 0.793333 0.746667
v -0.142857 0.325 0.247436 0.903529 0.793333 0.746667
v 0.011547 0.25 0.227436 0.903529 0.793333 0.746667
v 0 0.325 0.247436 0.903529 0.793333 0.746667
v 0.0829756 0.25 0.351154 0.903529 0.793333 0.746667
v 0.0714286 0.325 0.371154 0.903529 0.793333 0.746667
v 0.202739 0.25 0.351154 0.903529 0.793333 0.746667
v 0.214286 0.325 0.371154 0.903529 0.793333 0.746667
v 0.274167 0.25 0.227436 0.903529 0.793333 0.746667
v 0.285714 0.325 0.247436 0.903529 0.793333 0.746667
v 0.417024 0.25 0.227436 0.903529 0.793333 0.746667
v 0.428571 0.325 0.247436 0.903529 0.793333 0.746667
v 0.397779 0.475 -0.194102 0.718431 0.662353 0.655686
v 0.254922 0.475 -0.194102 0.718431 0.662353 0.655686
v 0.438416 0.475 -0.123718 0.718431 0.662353 0.655686
v 0.366987 0.475 0 0.718431 0.662353 0.655686
v 0.438416 0.475 -0.123718 0.718431 0.662353 0.655686
v 0.254922 0.475 0.194102 0.718431 0.662353 0.655686
v 0.183494 0.475 0.31782 0.718431 0.662353 0.655686
v 0.438416 0.475 0.123718 0.718431 0.662353 0.655686
v 0.366987 0.475 0 0.718431 0.662353 0.655686
v 0.397779 0.475 0.194102 0.718431 0.662353 0.655686
v 0.102221 0.475 0.31782 0.718431 0.662353 0.655686
v 0.030792 0.475 0.194102 0.718431 0.662353 0.655686
v 0.102221 0.475 0.31782 0.718431 0.662353 0.655686
v -0.366987 0.475 -0.247436 0.718431 0.662353 0.655686
v -0.326351 0.475 -0.177051 0.718431 0.662353 0.655686
v -0.183494 0.475 -0.177051 0.718431 0.662353 0.655686
v -0.0812731 0.475 0 0.718431 0.662353 0.655686
v -0.152702 0.475 0.123718 0.718431 0.662353 0.655686
v -0.112065 0.475 0.194102 0.718431 0.662353 0.655686
v -0.112065 0.475 0.194102 0.718431 0.662353 0.655686
v 0.030792 0.475 0.194102 0.718431 0.662353 0.655686
v 0.183494 0.475 -0.31782 0.718431 0.662353 0.655686
v 0.0406366 0.475 -0.31782 0.718431 0.662353 0.655686
v 0.183494 0.475 -0.31782 0.718431 0.662353 0.655686
v -0.030792 0.475 -0.441538 0.718431 0.662353 0.655686
v 0.0406366 0.475 -0.31782 0.718431 0.662353 0.655686
v -0.112065 0.475 -0.441538 0.718431 0.662353 0.655686
v -0.183494 0.475 -0.31782 0.718431 0.662353 0.655686
v -0.326351 0.475 -0.31782 0.718431 0.662353 0.655686
v -0.183494 0.475 -0.31782 0.718431 0.662353 0.655686
v -0.326351 0.475 -0.31782 0.718431 0.662353 0.655686
v 0.239526 1 -0.167436 0.0705882 0.203922 0.337255
v 0.336195 1 0 0.0705882 0.203922 0.337255
v 0.407624 1 -0.123718 0.0705882 0.203922 0.337255
v 0.382383 1 -0.167436 0.0705882 0.203922 0.337255
v -0.168098 1 -0.291154 0.0705882 0.203922 0.337255
v 0.0252405 1 -0.291154 0.0705882 0.203922 0.337255
v -0.046188 1 -0.414872 0.0705882 0.203922 0.337255
v -0.0966691 1 -0.414872 0.0705882 0.203922 0.337255
v -0.310955 1 -0.203718 0.0705882 0.203922 0.337255
v -0.168098 1 -0.203718 0.0705882 0.203922 0.337255
v -0.310955 1 -0.291154 0.0705882 0.203922 0.337255
v -0.336195 1 -0.247436 0.0705882 0.203922 0.337255
v 0.046188 1 0.167436 0.0705882 0.203922 0.337255
v -0.0504811 1 0 0.0705882 0.203922 0.337255
v -0.12191 1 0.123718 0.0705882 0.203922 0.337255
v -0.0966691 1 0.167436 0.0705882 0.203922 0.337255
v 0.239526 1 0.167436 0.0705882 0.203922 0.337255
v 0.117617 1 0.291154 0.0705882 0.203922 0.337255
v 0.168098 1 0.291154 0.0705882 0.203922 0.337255
v 0.168098 1 -0.291154 0.0705882 0.203922 0.337255
v 0.382383 1 0.167436 0.0705882 0.203922 0.337255
v 0.407624 1 0.123718 0.0705882 0.203922 0.337255
v 0.0945226 0.775 0.331154 0.348235 0.400392 0.473725
v 0.101451 0.73 0.319154 0.403765 0.439686 0.50102
v 0.184264 0.73 0.319154 0.403765 0.439686 0.50102
v 0.191192 0.775 0.331154 0.348235 0.400392 0.473725
v 0.023094 0.775 0.207436 0.348235 0.400392 0.473725
v 0.26262 0.775 0.207436 0.348235 0.400392 0.473725
v 0.405477 0.775 0.207436 0.348235 0.400392 0.473725
v 0.255692 0.73 0.195436 0.403765 0.439686 0.50102
v 0.255692 0.73 0.195436 0.403765 0.439686 0.50102
v 0.398549 0.73 0.195436 0.403765 0.439686 0.50102
v 0.0300222 0.73 0.195436 0.403765 0.439686 0.50102
v 0.453812 0.775 0.123718 0.348235 0.400392 0.473725
v 0.439956 0.73 0.123718 0.403765 0.439686 0.50102
v 0.368527 0.73 0 0.403765 0.439686 0.50102
v 0.382383 0.775 0 0.348235 0.400392 0.473725
v 0.453812 0.775 -0.123718 0.348235 0.400392 0.473725
v 0.368527 0.73 0 0.403765 0.439686 0.50102
v 0.439956 0.73 -0.123718 0.403765 0.439686 0.50102
v 0.439956 0.73 0.123718 0.403765 0.439686 0.50102
v 0.26262 0.775 -0.207436 0.348235 0.400392 0.473725
v 0.405477 0.775 -0.207436 0.348235 0.400392 0.473725
v 0.398549 0.73 -0.195436 0.403765 0.439686 0.50102
v 0.255692 0.73 -0.195436 0.403765 0.439686 0.50102
v 0.255692 0.73 -0.195436 0.403765 0.439686 0.50102
v 0.184264 0.73 -0.319154 0.403765 0.439686 0.50102
v 0.191192 0.775 -0.331154 0.348235 0.400392 0.473725
v 0.398549 0.73 -0.195436 0.403765 0.439686 0.50102
v 0.439956 0.73 -0.123718 0.403765 0.439686 0.50102
v -0.119763 0.775 0.207436 0.348235 0.400392 0.473725
v -0.112835 0.73 0.195436 0.403765 0.439686 0.50102
v 0.0300222 0.73 0.195436 0.403765 0.439686 0.50102
v 0.0483346 0.775 -0.331154 0.348235 0.400392 0.473725
v -0.023094 0.775 -0.454872 0.348235 0.400392 0.473725
v 0.0414064 0.73 -0.319154 0.403765 0.439686 0.50102
v 0.184264 0.73 -0.319154 0.403765 0.439686 0.50102
v 0.0414064 0.73 -0.319154 0.403765 0.439686 0.50102
v -0.0300222 0.73 -0.442872 0.403765 0.439686 0.50102
v -0.382383 0.775 -0.247436 0.348235 0.400392 0.473725
v -0.368527 0.73 -0.247436 0.403765 0.439686 0.50102
v -0.327121 0.73 -0.175718 0.403765 0.439686 0.50102
v -0.334049 0.775 -0.163718 0.348235 0.400392 0.473725
v -0.119763 0.775 -0.454872 0.348235 0.400392 0.473725
v -0.191192 0.775 -0.331154 0.348235 0.400392 0.473725
v -0.334049 0.775 -0.331154 0.348235 0.400392 0.473725
v -0.191192 0.775 -0.163718 0.348235 0.400392 0.473725
v -0.327121 0.73 -0.319154 0.403765 0.439686 0.50102
v -0.368527 0.73 -0.247436 0.403765 0.439686 0.50102
v -0.0300222 0.73 -0.442872 0.403765 0.439686 0.50102
v -0.112835 0.73 -0.442872 0.403765 0.439686 0.50102
v -0.327121 0.73 -0.175718 0.403765 0.439686 0.50102
v -0.184264 0.73 -0.175718 0.403765 0.439686 0.50102
v -0.184264 0.73 -0.319154 0.403765 0.439686 0.50102
v -0.112835 0.73 -0.442872 0.403765 0.439686 0.50102
v -0.327121 0.73 -0.319154 0.403765 0.439686 0.50102
v -0.0828127 0.73 0 0.403765 0.439686 0.50102
v -0.0966691 0.775 0 0.348235 0.400392 0.473725
v -0.0828127 0.73 0 0.403765 0.439686 0.50102
v -0.154241 0.73 0.123718 0.403765 0.439686 0.50102
v -0.168098 0.775 0.123718 0.348235 0.400392 0.473725
v -0.154241 0.73 0.123718 0.403765 0.439686 0.50102
v -0.112835 0.73 0.195436 0.403765 0.439686 0.50102
v 0.19889 0.475 0.31782 0.718431 0.662353 0.655686
v 0.191192 0.475 0.331154 0.718431 0.662353 0.655686
v 0.0945226 0.475 0.331154 0.718431 0.662353 0.655686
v 0.0868246 0.475 0.31782 0.718431 0.662353 0.655686
v 0.202739 0.55 0.351154 0.625882 0.596863 0.610196
v 0.0829756 0.55 0.351154 0.625882 0.596863 0.610196
v 0.101451 0.73 0.319154 0.403765 0.439686 0.50102
v 0.438416 0.475 0.123718 0.718431 0.662353 0.655686
v 0.446114 0.475 0.137051 0.718431 0.662353 0.655686
v 0.405477 0.475 0.207436 0.718431 0.662353 0.655686
v 0.390081 0.475 0.207436 0.718431 0.662353 0.655686
v 0.274167 0.55 0.227436 0.625882 0.596863 0.610196
v 0.255692 0.73 0.195436 0.403765 0.439686 0.50102
v 0.184264 0.73 0.319154 0.403765 0.439686 0.50102
v 0.0300222 0.73 0.195436 0.403765 0.439686 0.50102
v 0.011547 0.55 0.227436 0.625882 0.596863 0.610196
v 0.254922 0.475 0.194102 0.718431 0.662353 0.655686
v 0.26262 0.475 0.207436 0.718431 0.662353 0.655686
v 0.183494 0.475 0.31782 0.718431 0.662353 0.655686
v 0.397779 0.475 0.194102 0.718431 0.662353 0.655686
v 0.417024 0.55 0.227436 0.625882 0.596863 0.610196
v 0.015396 0.475 0.194102 0.718431 0.662353 0.655686
v 0.030792 0.475 0.194102 0.718431 0.662353 0.655686
v 0.102221 0.475 0.31782 0.718431 0.662353 0.655686
v 0.023094 0.475 0.207436 0.718431 0.662353 0.655686
v 0.366987 0.475 0 0.718431 0.662353 0.655686
v 0.382383 0.475 0 0.718431 0.662353 0.655686
v 0.453812 0.475 0.123718 0.718431 0.662353 0.655686
v 0.453812 0.475 -0.123718 0.718431 0.662353 0.655686
v 0.446114 0.475 -0.137051 0.718431 0.662353 0.655686
v 0.405477 0.55 0 0.625882 0.596863 0.610196
v 0.476906 0.55 0.123718 0.625882 0.596863 0.610196
v 0.476906 0.55 -0.123718 0.625882 0.596863 0.610196
v 0.439956 0.73 0.123718 0.403765 0.439686 0.50102
v 0.368527 0.73 0 0.403765 0.439686 0.50102
v 0.398549 0.73 0.195436 0.403765 0.439686 0.50102
v 0.255692 0.73 0.195436 0.403765 0.439686 0.50102
v 0.439956 0.73 0.123718 0.403765 0.439686 0.50102
v 0.398549 0.73 0.195436 0.403765 0.439686 0.50102
v 0.368527 0.73 0 0.403765 0.439686 0.50102
v 0.439956 0.73 -0.123718 0.403765 0.439686 0.50102
v 0.254922 0.475 -0.194102 0.718431 0.662353 0.655686
v 0.26262 0.475 -0.207436 0.718431 0.662353 0.655686
v 0.405477 0.475 -0.207436 0.718431 0.662353 0.655686
v 0.413175 0.475 -0.194102 0.718431 0.662353 0.655686
v 0.191192 0.475 -0.331154 0.718431 0.662353 0.655686
v 0.175796 0.475 -0.331154 0.718431 0.662353 0.655686
v 0.274167 0.55 -0.227436 0.625882 0.596863 0.610196
v 0.417024 0.55 -0.227436 0.625882 0.596863 0.610196
v 0.202739 0.55 -0.351154 0.625882 0.596863 0.610196
v 0.398549 0.73 -0.195436 0.403765 0.439686 0.50102
v 0.439956 0.73 -0.123718 0.403765 0.439686 0.50102
v 0.255692 0.73 -0.195436 0.403765 0.439686 0.50102
v 0.398549 0.73 -0.195436 0.403765 0.439686 0.50102
v 0.397779 0.475 -0.194102 0.718431 0.662353 0.655686
v 0.438416 0.475 -0.123718 0.718431 0.662353 0.655686
v -0.119763 0.475 0.207436 0.718431 0.662353 0.655686
v -0.127461 0.475 0.194102 0.718431 0.662353 0.655686
v -0.13131 0.55 0.227436 0.625882 0.596863 0.610196
v -0.112065 0.475 0.194102 0.718431 0.662353 0.655686
v -0.1604 0.475 0.137051 0.718431 0.662353 0.655686
v -0.152702 0.475 0.123718 0.718431 0.662353 0.655686
v -0.112065 0.475 -0.441538 0.718431 0.662353 0.655686
v -0.104367 0.475 -0.454872 0.718431 0.662353 0.655686
v -0.023094 0.475 -0.454872 0.718431 0.662353 0.655686
v -0.015396 0.475 -0.441538 0.718431 0.662353 0.655686
v 0.184264 0.73 -0.319154 0.403765 0.439686 0.50102
v 0.255692 0.73 -0.195436 0.403765 0.439686 0.50102
v 0.0598816 0.55 -0.351154 0.625882 0.596863 0.610196
v 0.0414064 0.73 -0.319154 0.403765 0.439686 0.50102
v 0.184264 0.73 -0.319154 0.403765 0.439686 0.50102
v 0.0483346 0.475 -0.331154 0.718431 0.662353 0.655686
v 0.0406366 0.475 -0.31782 0.718431 0.662353 0.655686
v -0.030792 0.475 -0.441538 0.718431 0.662353 0.655686
v 0.183494 0.475 -0.31782 0.718431 0.662353 0.655686
v -0.011547 0.55 -0.474872 0.625882 0.596863 0.610196
v -0.334049 0.475 -0.163718 0.718431 0.662353 0.655686
v -0.382383 0.475 -0.247436 0.718431 0.662353 0.655686
v -0.374685 0.475 -0.260769 0.718431 0.662353 0.655686
v -0.318653 0.475 -0.163718 0.718431 0.662353 0.655686
v -0.345596 0.55 -0.143718 0.625882 0.596863 0.610196
v -0.405477 0.55 -0.247436 0.625882 0.596863 0.610196
v -0.327121 0.73 -0.175718 0.403765 0.439686 0.50102
v -0.368527 0.73 -0.247436 0.403765 0.439686 0.50102
v -0.202739 0.55 -0.351154 0.625882 0.596863 0.610196
v -0.184264 0.73 -0.319154 0.403765 0.439686 0.50102
v -0.112835 0.73 -0.442872 0.403765 0.439686 0.50102
v -0.13131 0.55 -0.474872 0.625882 0.596863 0.610196
v -0.0300222 0.73 -0.442872 0.403765 0.439686 0.50102
v -0.0300222 0.73 -0.442872 0.403765 0.439686 0.50102
v -0.184264 0.73 -0.319154 0.403765 0.439686 0.50102
v -0.345596 0.55 -0.351154 0.625882 0.596863 0.610196
v -0.327121 0.73 -0.319154 0.403765 0.439686 0.50102
v -0.368527 0.73 -0.247436 0.403765 0.439686 0.50102
v -0.327121 0.73 -0.319154 0.403765 0.439686 0.50102
v -0.184264 0.73 -0.175718 0.403765 0.439686 0.50102
v -0.327121 0.73 -0.175718 0.403765 0.439686 0.50102
v -0.202739 0.55 -0.143718 0.625882 0.596863 0.610196
v -0.366987 0.475 -0.247436 0.718431 0.662353 0.655686
v -0.334049 0.475 -0.331154 0.718431 0.662353 0.655686
v -0.318653 0.475 -0.331154 0.718431 0.662353 0.655686
v -0.119763 0.475 -0.454872 0.718431 0.662353 0.655686
v -0.191192 0.475 -0.163718 0.718431 0.662353 0.655686
v -0.191192 0.475 -0.331154 0.718431 0.662353 0.655686
v -0.183494 0.475 -0.31782 0.718431 0.662353 0.655686
v -0.326351 0.475 -0.31782 0.718431 0.662353 0.655686
v -0.168098 0.475 0.123718 0.718431 0.662353 0.655686
v -0.0966691 0.475 0 0.718431 0.662353 0.655686
v -0.0889711 0.475 0.0133333 0.718431 0.662353 0.655686
v -0.183494 0.475 -0.177051 0.718431 0.662353 0.655686
v -0.0812731 0.475 0 0.718431 0.662353 0.655686
v -0.0889711 0.475 0.0133333 0.718431 0.662353 0.655686
v -0.326351 0.475 -0.177051 0.718431 0.662353 0.655686
v -0.119763 0.55 0 0.625882 0.596863 0.610196
v -0.191192 0.55 0.123718 0.625882 0.596863 0.610196
v -0.112835 0.73 0.195436 0.403765 0.439686 0.50102
v -0.154241 0.73 0.123718 0.403765 0.439686 0.50102
v -0.0828127 0.73 0 0.403765 0.439686 0.50102
v -0.154241 0.73 0.123718 0.403765 0.439686 0.50102
v -0.112835 0.73 0.195436 0.403765 0.439686 0.50102
v -0.0828127 0.73 0 0.403765 0.439686 0.50102
v -0.184264 0.73 -0.175718 0.403765 0.439686 0.50102
v -0.351862 0.25 -0.154571 0.903529 0.793333 0.746667
v 0.459093 0.25 -0.154571 0.903529 0.793333 0.746667
v -0.00044562 0.25 0.227436 0.903529 0.793333 0.746667
v 0.220106 0.25 -0.154571 0.903529 0.793333 0.746667
v 0.120988 0.25 -0.154571 0.903529 0.793333 0.746667
v 0.170547 0.25 -0.0687322 0.903529 0.793333 0.746667
v 0.120988 0.25 0.017107 0.903529 0.793333 0.746667
v -0.12964 0.25 0.017107 0.903529 0.793333 0.746667
v 0.0218693 0.25 -0.154571 0.903529 0.793333 0.746667
v -0.0772492 0.25 0.017107 0.903529 0.793333 0.746667
v -0.0276899 0.25 -0.0687322 0.903529 0.793333 0.746667
v 0.0218693 0.25 0.017107 0.903529 0.793333 0.746667

vt 0.75 1
vt 1 0.5
vt 0.75 0
vt 0.25 0
vt 0 0.5
vt 0.25 1
vt 0.833333 0.757576
vt 0.833333 0
vt 1 0
vt 1 0.757576
vt 0.666667 0.757576
vt 0.5 0.757576
vt 0.5 0
vt 0.666667 0
vt 0.166667 0
vt 0.166667 0.757576
vt 0 0.757576
vt 0 0
vt 0.333333 0
vt 0.333333 0.757576
vt 0.166667 0.757576
vt 0.333333 0.757576
vt 0.047551 0
vt 0.0454545 0.5
vt 0.095102 0
vt 0.0909091 0.5
vt 0.134966 0
vt 0.136364 0.5
vt 0.182517 0
vt 0.181818 0.5
vt 0.230068 0
vt 0.227273 0.5
vt 0.277619 0
vt 0.272727 0.5
vt 0.32517 0
vt 0.318182 0.5
vt 0.365034 0
vt 0.363636 0.5
vt 0.412585 0
vt 0.409091 0.5
vt 0.460136 0
vt 0.454545 0.5
vt 0.5 0
vt 0.5 0.5
vt 0.539864 0
vt 0.545455 0.5
vt 0.587415 0
vt 0.590909 0.5
vt 0.642653 0
vt 0.636364 0.5
vt 0.690204 0
vt 0.681818 0.5
vt 0.730068 0
vt 0.727273 0.5
vt 0.777619 0
vt 0.772727 0.5
vt 0.82517 0
vt 0.818182 0.5
vt 0.865034 0
vt 0.863636 0.5
vt 0.912585 0
vt 0.909091 0.5
vt 0.960136 0
vt 0.954545 0.5
vt 0.132038 0.833333
vt 0.183981 0.833333
vt 0.103886 0.833333
vt 0.0519429 0.833333
vt 0.919905 0.833333
vt 0.867962 0.833333
vt 0 0.833333
vt 0.0519429 0.833333
vt 0.971848 0.833333
vt 0.919905 0.833333
vt 1 0.833333
vt 0.83981 0.833333
vt 0.787867 0.833333
vt 0.867962 0.833333
vt 0.5 0.833333
vt 0.528152 0.833333
vt 0.580095 0.833333
vt 0.655829 0.833333
vt 0.707771 0.833333
vt 0.735924 0.833333
vt 0.735924 0.833333
vt 0.787867 0.833333
vt 0.235924 0.833333
vt 0.287867 0.833333
vt 0.235924 0.833333
vt 0.33981 0.833333
vt 0.287867 0.833333
vt 0.367962 0.833333
vt 0.419905 0.833333
vt 0.471848 0.833333
vt 0.419905 0.833333
vt 0.471848 0.833333
vt 0.774007 0.649537
vt 0.903971 0.412384
vt 1 0.587616
vt 0.966066 0.649537
vt 0.225993 0.824768
vt 0.485919 0.824768
vt 0.38989 1
vt 0.322022 1
vt 0.0339337 0.700926
vt 0.225993 0.700926
vt 0.0339337 0.824768
vt 0 0.762847
vt 0.514081 0.175232
vt 0.384118 0.412384
vt 0.288088 0.237153
vt 0.322022 0.175232
vt 0.774007 0.175232
vt 0.61011 0
vt 0.677978 0
vt 0.677978 0.824768
vt 0.966066 0.175232
vt 1 0.237153
vt 0.832834 0.5
vt 0.8379 0.2
vt 0.86758 0.2
vt 0.866567 0.5
vt 0.870125 1
vt 0.850623 1
vt 0.795436 1
vt 0.782984 0.5
vt 0.916417 0.5
vt 0.925312 1
vt 0.966267 0.5
vt 0.980499 1
vt 0.91895 0.2
vt 0.91895 0.2
vt 0.97032 0.2
vt 0.78653 0.2
vt 0 0.2
vt 0.0513699 0.2
vt 0.0498502 0.5
vt 0.0997004 0.5
vt 0.0513699 0.2
vt 0.10274 0.2
vt 1 0.5
vt 1 0.2
vt 0.055187 1
vt 0 1
vt 0.110374 1
vt 1 1
vt 0.183283 0.5
vt 0.133433 0.5
vt 0.13242 0.2
vt 0.18379 0.2
vt 0.18379 0.2
vt 0.23516 0.2
vt 0.233134 0.5
vt 0.185062 1
vt 0.129875 1
vt 0.240249 1
vt 0.13242 0.2
vt 0.10274 0.2
vt 0.733134 0.5
vt 0.73516 0.2
vt 0.78653 0.2
vt 0.740249 1
vt 0.282984 0.5
vt 0.295436 1
vt 0.332834 0.5
vt 0.350623 1
vt 0.28653 0.2
vt 0.23516 0.2
vt 0.28653 0.2
vt 0.3379 0.2
vt 0.5 0.5
vt 0.5 0.2
vt 0.52968 0.2
vt 0.533733 0.5
vt 0.519501 1
vt 0.5 1
vt 0.366567 0.5
vt 0.370125 1
vt 0.416417 0.5
vt 0.425312 1
vt 0.466267 0.5
vt 0.480499 1
vt 0.583583 0.5
vt 0.574688 1
vt 0.47032 0.2
vt 0.5 0.2
vt 0.3379 0.2
vt 0.36758 0.2
vt 0.52968 0.2
vt 0.58105 0.2
vt 0.41895 0.2
vt 0.36758 0.2
vt 0.41895 0.2
vt 0.47032 0.2
vt 0.65411 0.2
vt 0.649551 0.5
vt 0.58105 0.2
vt 0.65411 0.2
vt 0.70548 0.2
vt 0.699401 0.5
vt 0.70548 0.2
vt 0.73516 0.2
vt 0.665561 1
vt 0.720748 1
vt 0.69514 0.016963
vt 0.685934 0
vt 0.570328 0
vt 0.561122 0.016963
vt 0.832834 0
vt 0.866567 0
vt 0.865034 0.5
vt 0.82517 0.5
vt 0.867611 0.9
vt 0.838055 0.9
vt 0.981588 0.263905
vt 0.990794 0.246942
vt 0.942197 0.157397
vt 0.923785 0.157397
vt 0.912585 0.5
vt 0.919028 0.9
vt 0.867611 0.9
vt 0.786639 0.9
vt 0.777619 0.5
vt 0.762149 0.17436
vt 0.771355 0.157397
vt 0.676728 0.016963
vt 0.932991 0.17436
vt 0.916417 0
vt 0.966267 0
vt 0.960136 0.5
vt 0.475702 0.17436
vt 0.494113 0.17436
vt 0.579534 0.016963
vt 0.782984 0
vt 0.896167 0.421302
vt 0.914579 0.421302
vt 1 0.263905
vt 1 0.578698
vt 0.990794 0.595661
vt 0.0498502 0
vt 0.047551 0.5
vt 0.0997004 0
vt 0.095102 0.5
vt 1 0
vt 0 0.9
vt 0.0514166 0.9
vt 0.970444 0.9
vt 0.919028 0.9
vt 1 0.9
vt 0.970444 0.9
vt 0.0514166 0.9
vt 0.102833 0.9
vt 0.762149 0.668243
vt 0.771355 0.685206
vt 0.942197 0.685206
vt 0.951403 0.668243
vt 0.685934 0.842603
vt 0.667522 0.842603
vt 0.133433 0
vt 0.183283 0
vt 0.182517 0.5
vt 0.134966 0.5
vt 0.233134 0
vt 0.230068 0.5
vt 0.132389 0.9
vt 0.102833 0.9
vt 0.183806 0.9
vt 0.132389 0.9
vt 0.932991 0.668243
vt 0.981588 0.578698
vt 0.314066 0.157397
vt 0.30486 0.17436
vt 0.475702 0.17436
vt 0.484908 0.157397
vt 0.730068 0.5
vt 0.733134 0
vt 0.323272 0.17436
vt 0.265469 0.246942
vt 0.274675 0.263905
vt 0.323272 0.983037
vt 0.332478 1
vt 0.429672 1
vt 0.438878 0.983037
vt 0.235222 0.9
vt 0.183806 0.9
vt 0.277619 0.5
vt 0.286639 0.9
vt 0.235222 0.9
vt 0.282984 0
vt 0.515092 0.842603
vt 0.505887 0.82564
vt 0.420466 0.983037
vt 0.676728 0.82564
vt 0.332834 0
vt 0.32517 0.5
vt 0.057803 0.629587
vt 0 0.736095
vt 0.00920599 0.753058
vt 0.0762149 0.629587
vt 0.5 0
vt 0.533733 0
vt 0.539864 0.5
vt 0.5 0.5
vt 0.529556 0.9
vt 0.5 0.9
vt 0.412585 0.5
vt 0.419028 0.9
vt 0.367611 0.9
vt 0.365034 0.5
vt 0.338055 0.9
vt 0.286639 0.9
vt 0.367611 0.9
vt 0.338055 0.9
vt 0.419028 0.9
vt 0.460136 0.5
vt 0.470444 0.9
vt 0.5 0.9
vt 0.470444 0.9
vt 0.580972 0.9
vt 0.529556 0.9
vt 0.587415 0.5
vt 0.018412 0.736095
vt 0.057803 0.842603
vt 0.0762149 0.842603
vt 0.466267 0
vt 0.366567 0
vt 0.583583 0
vt 0.228645 0.842603
vt 0.237851 0.82564
vt 0.0670089 0.82564
vt 0.314066 1
vt 0.416417 0
vt 0.256263 0.263905
vt 0.341684 0.421302
vt 0.35089 0.404339
vt 0.228645 0.629587
vt 0.237851 0.64655
vt 0.360096 0.421302
vt 0.35089 0.404339
vt 0.0670089 0.64655
vt 0.649551 0
vt 0.642653 0.5
vt 0.699401 0
vt 0.690204 0.5
vt 0.735222 0.9
vt 0.705666 0.9
vt 0.65425 0.9
vt 0.580972 0.9
vt 0.060762 0.612239
vt 0.770237 0.70045
vt 0.932137 0.70045
vt 0.979812 0.612239
vt 0.527389 0.850225
vt 0.229763 0.850225
vt 0.310712 1
vt 0.446439 1
vt 0.0678634 0.850225
vt 0.689288 0.850225
vt 0 0.724662
vt 0.472611 0.149775
vt 0.770237 0.149775
vt 0.689288 0
vt 0.553561 0
vt 1 0.574887
vt 0.91905 0.425113
vt 0.45902 0.149775
vt 0.70897 0.612239
vt 0.932137 0.149775
vt 1 0.275338
vt 0.59664 0.612239
vt 0.652805 0.508321
vt 0.59664 0.404403
vt 0.310712 0.149775
vt 0.242849 0.275338
vt 0.312605 0.404403
vt 0.48431 0.612239
vt 0.229763 0.5991
vt 0.0678634 0.5991
vt 0.371979 0.404403
vt 0.323798 0.425113
vt 0.428144 0.508321
vt 0.48431 0.404403

vn 0 -1 0
vn 0 0 -1
vn 0.866025 0 0.5
vn 0.866025 0 0.5
vn 0.866025 0 0.5
vn 0.866025 0 -0.5
vn 0.866025 0 -0.5
vn 0.866025 0 -0.5
vn -0.866025 0 -0.5
vn -0.866025 0 -0.5
vn -0.866025 0 -0.5
vn -0.866025 0 0.5
vn -0.866025 0 0.5
vn -0.866025 0 0.5
vn 0 0 1
vn 0.866025 0 -0.5
vn 0.866025 0 -0.5
vn 0.866025 0 0.5
vn 0.866025 0 0.5
vn 0.866025 0 -0.5
vn 0.866025 0 -0.5
vn 0.866025 0 -0.5
vn 0.866025 0 -0.5
vn 0.866025 0 -0.5
vn -0.866025 0 -0.5
vn -0.866025 0 -0.5
vn -0.866025 0 -0.5
vn -0.866025 0 0.5
vn -0.866025 0 0.5
vn -0.866025 0 0.5
vn -0.866025 0 0.5
vn -0.866025 0 -0.5
vn -0.866025 0 0.5
vn -0.866025 0 0.5
vn -0.866025 0 0.5
vn -0.866025 0 0.5
vn 0.866025 0 0.5
vn 0.866025 0 0.5
vn 0.866025 0 0.5
vn 0.866025 0 0.5
vn 0.866025 0 -0.5
vn 0.866025 0 0.5
vn 0.866025 0 -0.5
vn 0.866025 0 0.5
vn -0.866025 0 0.5
vn -0.866025 0 0.5
vn -0.866025 0 0.5
vn -0.866025 0 -0.5
vn -0.866025 0 0.5
vn 0.866025 0 -0.5
vn -0.866025 0 -0.5
vn 0 1 0
vn -0.866025 0 0.5
vn 0.866025 0 0.5
vn 0.866025 0 0.5
vn 0.866025 0 0.5
vn 0.866025 0 0.5
vn 0.866025 0 -0.5
vn 0.866025 0 -0.5
vn 0.866025 0 -0.5
vn 0.866025 0 -0.5
vn -0.866025 0 0.5
vn -0.866025 0 0.5
vn -0.866025 0 0.5
vn -0.866025 0 -0.5
vn -0.866025 0 -0.5
vn -0.866025 0 -0.5
vn -0.866025 0 -0.5
vn -0.866025 0 0.5
vn -0.866025 0 0.5
vn -0.866025 0 0.5
vn -0.866025 0 0.5
vn -0.866025 0 0.5
vn -0.866025 0 0.5
vn 0.866025 0 0.5
vn 0.866025 0 -0.5
vn -0.866025 0 0.5
vn -0.866025 0 -0.5
vn -0.866025 0 0.5
vn -0.866025 0 0.5

f 1/1/1 2/2/1 3/3/1 4/4/1 5/5/1 6/6/1
f 7/7/2 1/8/2 6/9/2 8/10/2
f 9/11/3 10/12/4 3/13/5 2/14/5
f 9/11/6 2/14/7 1/8/7 11/7/8
f 5/15/9 12/16/10 13/17/11 6/18/9
f 5/15/12 4/19/12 14/20/13 15/21/14
f 4/19/15 3/13/15 16/12/15 14/22/15
f 17/18/16 18/23/16 19/24/17 20/5/17
f 18/23/18 21/25/18 22/26/19 19/24/19
f 21/25/20 23/27/20 24/28/21 22/26/21
f 23/27/2 25/29/2 26/30/2 24/28/2
f 25/29/22 27/31/22 28/32/22 26/30/22
f 27/31/2 29/33/2 30/34/2 28/32/2
f 29/33/23 31/35/23 32/36/24 30/34/24
f 31/35/2 33/37/2 34/38/2 32/36/2
f 33/37/25 35/39/25 36/40/25 34/38/25
f 35/39/2 37/41/2 38/42/2 36/40/2
f 37/41/26 39/43/26 40/44/27 38/42/27
f 39/43/28 41/45/28 42/46/29 40/44/29
f 41/45/15 43/47/15 44/48/15 42/46/15
f 43/47/30 45/49/30 46/50/31 44/48/31
f 45/49/32 47/51/32 48/52/32 46/50/32
f 47/51/33 49/53/33 50/54/34 48/52/34
f 49/53/15 51/55/15 52/56/15 50/54/15
f 51/55/35 53/57/35 54/58/36 52/56/36
f 53/57/15 55/59/15 56/60/15 54/58/15
f 55/59/37 57/61/37 58/62/37 56/60/37
f 57/61/15 59/63/15 60/64/15 58/62/15
f 59/63/38 17/9/38 20/2/39 60/64/39
f 61/65/2 24/28/2 26/30/2 62/66/2
f 19/24/19 22/26/19 63/67/40 64/68/40
f 22/26/21 24/28/21 61/65/41 65/67/41
f 56/60/37 58/62/37 66/69/42 67/70/42
f 68/71/43 20/5/17 19/24/17 69/72/43
f 60/64/15 70/73/15 66/74/15 58/62/15
f 70/73/44 60/64/39 20/2/39 68/75/44
f 52/56/36 54/58/36 71/76/35 72/77/45
f 54/58/15 56/60/15 67/78/15 73/76/15
f 74/79/46 40/44/29 42/46/29 75/80/46
f 75/80/15 42/46/15 44/48/15 76/81/15
f 44/48/31 46/50/31 77/82/47 76/81/47
f 46/50/32 48/52/32 78/83/48 77/82/48
f 79/84/49 78/83/49 48/52/34 50/54/34
f 80/85/15 50/54/15 52/56/15 81/86/15
f 28/32/22 82/87/50 62/66/43 26/30/22
f 28/32/2 30/34/2 83/88/2 84/89/2
f 30/34/24 32/36/24 85/90/24 86/91/24
f 85/90/2 32/36/2 34/38/2 87/92/2
f 87/92/25 34/38/25 36/40/25 88/93/25
f 36/40/2 38/42/2 89/94/2 90/95/2
f 38/42/27 40/44/27 74/79/51 91/96/51
f 92/97/52 93/98/52 94/99/52 95/100/52
f 96/101/52 97/102/52 98/103/52 99/104/52
f 100/105/52 101/106/52 96/101/52 102/107/52 103/108/52
f 104/109/52 105/110/52 106/111/52 107/112/52
f 108/113/52 104/109/52 109/114/52 110/115/52
f 111/116/52 96/101/52 101/106/52 104/109/52 112/117/52 113/118/52
f 114/119/15 115/120/15 116/121/15 117/122/15
f 114/119/15 117/122/15 110/123/15 109/124/15
f 104/125/35 118/126/53 114/119/53 109/124/35
f 119/127/42 108/128/54 110/123/54 117/122/42
f 108/128/15 119/127/15 120/129/15 112/130/15
f 121/131/18 119/127/42 117/122/42 116/121/18
f 119/127/15 122/132/15 123/133/15 120/129/15
f 118/126/53 124/134/35 115/120/35 114/119/53
f 125/5/17 126/135/43 127/136/43 128/137/17
f 129/138/19 128/137/19 130/139/40 131/140/40
f 125/141/55 120/129/55 123/133/56 132/142/56
f 125/5/17 128/137/17 93/143/16 113/144/16
f 128/137/19 129/138/19 94/145/18 93/143/18
f 125/141/55 113/146/57 112/130/57 120/129/55
f 133/147/2 134/148/2 135/149/2 136/150/2
f 133/147/50 137/151/16 138/152/16 139/153/50
f 134/148/2 133/147/2 92/154/2 95/155/2
f 133/147/50 139/153/50 111/156/24 92/154/24
f 134/148/58 95/155/59 94/145/59 129/138/58
f 140/157/60 134/148/58 129/138/58 141/158/60
f 142/159/15 143/160/15 144/161/15 118/126/15
f 142/159/15 118/126/15 104/125/15 107/162/15
f 145/163/2 97/164/2 111/156/2 139/153/2
f 97/164/24 145/163/22 146/165/22 98/166/24
f 147/167/2 145/163/2 139/153/2 148/168/2
f 145/163/22 149/169/61 150/170/61 146/165/22
f 151/171/62 152/172/63 153/173/63 154/174/62
f 151/171/62 154/174/62 100/175/64 103/176/64
f 155/177/2 99/178/2 98/166/2 146/165/2
f 155/177/27 156/179/27 96/180/25 99/178/25
f 156/179/2 157/181/2 102/182/2 96/180/2
f 102/182/65 157/181/66 151/171/66 103/176/65
f 100/175/15 154/174/15 158/183/15 101/184/15
f 157/181/66 159/185/67 160/186/67 151/171/66
f 155/177/2 146/165/2 161/187/2 162/188/2
f 154/174/15 163/189/15 164/190/15 158/183/15
f 165/191/68 156/179/27 155/177/27 166/192/68
f 156/179/2 165/193/2 167/194/2 157/181/2
f 168/195/69 169/196/70 158/183/70 164/197/69
f 169/196/32 170/198/48 171/199/48 172/200/32
f 172/200/71 173/201/72 174/202/72 142/159/71
f 169/196/70 105/203/73 101/184/73 158/183/70
f 169/196/32 172/200/32 106/204/48 105/203/48
f 106/204/74 172/200/71 142/159/71 107/162/74
f 175/205/1 176/206/1 177/207/1 178/208/1
f 177/209/15 176/210/15 179/211/15 180/212/15
f 180/212/15 179/211/15 116/213/15 181/214/15
f 182/215/1 183/216/1 184/217/1 185/218/1
f 186/219/37 187/220/37 188/221/37 179/211/37
f 189/222/35 190/223/35 180/212/35 181/214/35
f 191/224/1 192/225/1 175/205/1 193/226/1
f 185/218/1 192/225/1 191/224/1 194/227/1
f 192/228/42 186/219/37 179/211/37 176/210/42
f 186/219/15 192/228/15 184/229/15 195/230/15
f 178/208/1 196/231/1 197/232/1 198/233/1
f 190/223/35 199/234/53 177/209/53 180/212/35
f 200/235/1 201/236/1 202/237/1 183/216/1
f 203/238/1 201/236/1 200/235/1 204/239/1
f 202/18/17 201/240/17 205/241/16 206/5/16
f 201/240/19 203/242/19 207/243/18 205/241/18
f 202/244/55 206/2/38 195/230/38 184/229/55
f 208/245/16 206/5/16 205/241/16 209/246/16
f 210/247/15 211/248/15 186/219/15 195/230/15
f 206/2/38 212/249/75 213/250/75 195/230/38
f 214/251/18 205/241/18 207/243/18 215/252/18
f 216/253/1 217/254/1 218/255/1 219/256/1
f 220/257/1 217/254/1 216/253/1 221/258/1
f 218/259/2 217/260/2 222/261/2 223/262/2
f 217/260/50 220/263/50 224/264/22 222/261/22
f 223/262/20 225/265/76 226/266/76 207/243/20
f 223/262/2 222/261/2 227/267/2 228/268/2
f 229/269/1 219/256/1 204/239/1 230/270/1
f 218/259/58 223/262/20 207/243/20 203/242/58
f 231/271/1 232/272/1 196/273/1 199/274/1
f 233/275/15 231/276/15 199/234/15 190/223/15
f 234/277/1 232/272/1 235/278/1 236/279/1
f 237/280/1 238/281/1 239/282/1 240/283/1
f 241/284/22 242/285/22 222/261/22 224/264/22
f 243/286/2 244/287/2 245/288/2 224/264/2
f 246/289/2 243/286/2 224/264/2 220/263/2
f 246/290/1 247/291/1 248/292/1 240/283/1
f 249/293/1 247/291/1 246/290/1 221/258/1
f 243/286/23 246/289/22 239/294/22 250/295/23
f 251/296/1 252/297/1 253/298/1 254/299/1
f 252/300/62 251/301/62 255/302/28 256/303/28
f 255/302/28 257/304/77 258/305/77 256/303/28
f 259/306/25 260/307/25 261/308/25 262/309/25
f 263/310/23 244/311/23 243/286/23 250/295/23
f 262/309/2 261/312/2 264/313/2 250/295/2
f 265/314/2 259/306/2 266/315/2 267/316/2
f 266/315/26 256/303/26 268/317/78 269/318/78
f 270/319/15 271/320/15 255/302/15 272/321/15
f 273/322/1 253/298/1 274/323/1 275/324/1
f 266/315/26 274/325/66 252/300/66 256/303/26
f 276/326/2 262/309/2 250/295/2 239/294/2
f 255/302/15 251/301/15 277/327/15 272/321/15
f 278/328/1 279/329/1 280/330/1 275/324/1
f 238/281/1 279/329/1 278/328/1 276/331/1
f 278/332/27 259/306/25 262/309/25 276/326/27
f 259/306/2 278/332/2 274/325/2 266/315/2
f 281/333/1 282/334/1 283/335/1 235/278/1
f 277/336/1 284/337/1 285/338/1 286/339/1
f 287/340/1 284/337/1 277/336/1 254/299/1
f 282/341/70 288/342/30 272/321/30 277/327/70
f 282/341/32 281/343/32 289/344/32 288/342/32
f 289/344/33 281/343/71 231/276/71 233/275/33
f 290/345/79 291/346/79 289/344/33 233/275/33
f 292/347/48 288/342/32 289/344/32 293/346/48
f 294/345/15 233/275/15 190/223/15 189/222/15
f 288/342/30 295/347/80 296/348/80 272/321/30
f 297/349/1 25/350/1 23/351/1 298/352/1
f 29/353/1 35/354/1 33/355/1 31/356/1
f 37/357/1 27/358/1 25/350/1 297/349/1 39/359/1
f 51/360/1 57/361/1 55/362/1 53/363/1
f 21/364/1 18/365/1 299/366/1 300/367/1 298/352/1
f 59/368/1 299/366/1 18/365/1 17/369/1
f 301/370/1 300/367/1 302/371/1
f 303/372/1 299/366/1 49/373/1 47/374/1 304/375/1
f 305/376/1 43/377/1 41/378/1 297/349/1
f 306/379/1 304/375/1 45/380/1
f 45/380/1 43/377/1 305/376/1 306/379/1
f 306/379/1 307/381/1 308/382/1