v 1 1 2.07846 1 0 0
v 1.3 1 1.90526 1 0 0
v 1 1 1.73205 1 0 0
v 1.3 1 1.90526 0 0 1
v 1 1 2.07846 0 0 1
v 1 0 2.07846 0 0 1
v 1.3 0 1.90526 0 0 1
v -0.5 1 -2.59808 0 1 0
v 1 1 -1.73205 0 1 0
v 1 1 -2.07846 0 1 0
v -0.2 1 -2.77128 0 1 0
v 1 0 -2.07846 0 0 1
v -0.2 0 -2.77128 0 0 1
v -0.2 1 -2.77128 0 0 1
v 1 1 -2.07846 0 0 1
v -2.3 1 -1.55885 1 0 0
v -2 1 -1.38564 1 0 0
v -2 1 -1.73205 1 0 0
v -2 1 -1.38564 0 0 1
v -2.3 1 -1.55885 0 0 1
v -2.3 0 -1.55885 0 0 1
v -2 0 -1.38564 0 0 1
v 2.8 1 1.03923 1 0 0
v 2.8 1 0.69282 1 0 0
v 2.5 1 0.866025 1 0 0
v 2.8 1 0.69282 0 0 1
v 2.8 1 1.03923 0 0 1
v 2.8 0 1.03923 0 0 1
v 2.8 0 0.69282 0 0 1
v 1 1 1.73205 0 1 0
v -0.5 1 0.866025 0 1 0
v -0.5 1 1.21244 0 1 0
v 0.7 1 1.90526 0 1 0
v -0.5 0 1.21244 0 0 1
v 0.7 0 1.90526 0 0 1
v 0.7 1 1.90526 0 0 1
v -0.5 1 1.21244 0 0 1
v 2.8 1 -1.03923 1 0 0
v 2.5 1 -1.21244 1 0 0
v 2.5 1 -0.866025 1 0 0
v 2.5 1 -1.21244 0 0 1
v 2.8 1 -1.03923 0 0 1
v 2.8 0 -1.03923 0 0 1
v 2.5 0 -1.21244 0 0 1
v -0.5 1 -0.866025 0 1 0
v -2 1 -1.73205 0 1 0
v -2 1 -1.38564 0 1 0
v -0.8 1 -0.69282 0 1 0
v -0.8 0 -0.69282 0 0 1
v -0.8 1 -0.69282 0 0 1
v -2.3 1 -1.90526 1 0 0
v -2.3 1 -1.90526 0 0 1
v -2.3 0 -1.90526 0 0 1
v -0.8 1 0.69282 0 1 0
v -0.8 0 0.69282 0 0 1
v -0.8 1 0.69282 0 0 1
v -0.5 1 -2.94449 1 0 0
v -0.8 1 -2.77128 1 0 0
v -0.5 1 -2.59808 1 0 0
v -0.8 1 -2.77128 0 0 1
v -0.5 1 -2.94449 0 0 1
v -0.5 0 -2.94449 0 0 1
v -0.8 0 -2.77128 0 0 1
v 0.7 1 1.90526 1 0 0
v -0.8 1 -2.77128 0 1 0
v -2 1 -2.07846 0 1 0
v -2 0 -2.07846 0 0 1
v -2 1 -2.07846 0 0 1
v -0.2 1 -2.77128 1 0 0
v -0.8 1 0.69282 1 0 0
v -0.8 1 1.03923 1 0 0
v -0.5 1 0.866025 1 0 0
v -0.8 1 1.03923 0 0 1
v -0.8 0 1.03923 0 0 1
v 2.5 1 -0.866025 0 1 0
v 2.5 1 -1.21244 0 1 0
v 1.3 1 -1.90526 0 1 0
v 1.3 0 -1.90526 0 0 1
v 1.3 1 -1.90526 0 0 1
v 2.5 1 0.866025 0 1 0
v 2.8 1 0.69282 0 1 0
v 2.8 1 -0.69282 0 1 0
v 2.8 0 -0.69282 0 0 1
v 2.8 1 -0.69282 0 0 1
v 2.8 1 -0.69282 1 0 0
v 2.5 1 1.21244 1 0 0
v 2.5 1 1.21244 0 0 1
v 2.5 0 1.21244 0 0 1
v -0.5 1 1.21244 1 0 0
v 1.3 1 -1.90526 1 0 0
v 1 1 -2.07846 1 0 0
v 1 1 -1.73205 1 0 0
v 1.3 1 1.90526 0 1 0
v 2.5 1 1.21244 0 1 0
v -2 1 -2.07846 1 0 0

vt 0 0
vt 1 0.5
vt 0 1
vt 1 0
vt 1 1
vt 0 0.833333
vt 1 0.333333
vt 0.2 1
vt 0 0.5
vt 0 0.5
vt 1 0.166667
vt 0 0.666667
vt 0.8 0
vt 1 0.5
vt 0 0.666667
vt 0.8 0
vt 0 0.9
vt 0 0.1
vt 0 0.5
vt 0 0.5
vt 1 0.833333
vt 0.8 1
vt 0 0.333333
vt 1 0.5
vt 1 0.333333
vt 1 0.1
vt 1 0.9
vt 0 0.5
vt 1 0.5
vt 1 0.5
vt 0 0.166667
vt 0.2 0
vt 1 0.666667
vt 0 0.5

f 1/1 2/2 3/3
f 4/4 5/1 6/3 7/5
f 8/6 9/4 10/7 11/8
f 12/5 13/3 14/1 15/4
f 16/9 17/4 18/5
f 19/4 20/1 21/3 22/5
f 23/4 24/5 25/10
f 26/5 27/4 28/1 29/3
f 30/11 31/3 32/12 33/13
f 34/3 35/5 36/4 37/1
f 38/14 39/3 40/1
f 41/1 42/4 43/5 44/3
f 45/11 46/3 47/15 48/16
f 22/3 49/5 50/4 19/1
f 51/3 16/1 18/2
f 20/4 52/5 53/3 21/1
f 31/4 45/5 48/17 54/18
f 49/3 55/1 56/4 50/5
f 57/5 58/19 59/4
f 60/1 61/4 62/5 63/3
f 64/20 1/4 3/5
f 5/4 36/1 35/3 6/5
f 46/1 8/21 65/22 66/23
f 63/5 67/3 68/1 60/4
f 69/24 57/3 59/1
f 61/1 14/4 13/5 62/3
f 70/3 71/1 72/14
f 73/4 56/5 55/3 74/1
f 9/6 75/4 76/25 77/8
f 44/5 78/3 79/1 41/4
f 75/3 80/1 81/26 82/27
f 29/1 83/3 84/5 26/4
f 85/4 38/5 40/28
f 42/5 84/4 83/1 43/3
f 86/1 23/29 25/3
f 27/4 87/1 88/3 28/5
f 71/28 89/4 72/5
f 37/4 73/1 74/3 34/5
f 90/30 91/3 92/1
f 15/1 79/4 78/5 12/3
f 80/5 30/31 93/32 94/33
f 7/3 88/5 87/4 4/1
f 95/5 51/34 18/4
f 52/1 68/4 67/5 53/3