v 2.5 1 1.21244 1 0 0
v 2.8 1 1.03923 1 0 0
v 2.5 1 0.866025 1 0 0
v 2.8 1 1.03923 0 0 1
v 2.5 1 1.21244 0 0 1
v 2.5 0 1.21244 0 0 1
v 2.8 0 1.03923 0 0 1
v -0.8 1 -0.69282 1 0 0
v -0.5 1 -0.519615 1 0 0
v -0.5 1 -0.866025 1 0 0
v -0.5 1 -0.519615 0 0 1
v -0.8 1 -0.69282 0 0 1
v -0.8 0 -0.69282 0 0 1
v -0.5 0 -0.519615 0 0 1
v 1 1 -1.73205 1 0 0
v 2.5 1 -0.866025 1 0 0
v 2.5 1 -1.21244 1 0 0
v 1.3 1 -1.90526 1 0 0
v 2.5 0 -1.21244 0 0 1
v 1.3 0 -1.90526 0 0 1
v 1.3 1 -1.90526 0 0 1
v 2.5 1 -1.21244 0 0 1
v 0.7 1 1.55885 1 0 0
v 0.7 1 1.90526 1 0 0
v 1 1 1.73205 1 0 0
v 0.7 1 1.90526 0 0 1
v 0.7 1 1.55885 0 0 1
v 0.7 0 1.55885 0 0 1
v 0.7 0 1.90526 0 0 1
v 1 1 0 1 0 0
v 0.7 1 0.173205 1 0 0
v 0.7 0 0.173205 0 0 1
v 0.7 1 0.173205 0 0 1
v 4.3 1 -0.173205 1 0 0
v 4 1 -0.34641 1 0 0
v 4 1 0 1 0 0
v 4 1 -0.34641 0 0 1
v 4.3 1 -0.173205 0 0 1
v 4.3 0 -0.173205 0 0 1
v 4 0 -0.34641 0 0 1
v 4.3 1 0.173205 1 0 0
v 4.3 1 0.173205 0 0 1
v 4.3 0 0.173205 0 0 1
v 1 1 -2.07846 1 0 0
v 1 1 -2.07846 0 0 1
v 1 0 -2.07846 0 0 1
v -2 1 -1.73205 1 0 0
v -2 1 -1.38564 1 0 0
v -2 0 -1.38564 0 0 1
v -2 1 -1.38564 0 0 1
v 1 1 2.07846 1 0 0
v 1.3 1 1.90526 1 0 0
v 1.3 1 1.90526 0 0 1
v 1 1 2.07846 0 0 1
v 1 0 2.07846 0 0 1
v 1.3 0 1.90526 0 0 1
v -2 1 -2.07846 1 0 0
v -2.3 1 -1.90526 1 0 0
v -2.3 1 -1.90526 0 0 1
v -2 1 -2.07846 0 0 1
v -2 0 -2.07846 0 0 1
v -2.3 0 -1.90526 0 0 1
v 2.8 1 -1.03923 1 0 0
v 2.8 0 -1.03923 0 0 1
v 2.8 1 -1.03923 0 0 1
v -2.3 1 -1.55885 1 0 0
v -2.3 1 -1.55885 0 0 1
v -2.3 0 -1.55885 0 0 1
v -0.5 1 -2.59808 1 0 0
v -0.8 1 -2.77128 1 0 0
v -0.8 0 -2.77128 0 0 1
v -0.8 1 -2.77128 0 0 1
v -0.2 1 -2.77128 1 0 0
v -0.2 0 -2.77128 0 0 1
v -0.2 1 -2.77128 0 0 1
v 4 1 0.34641 1 0 0
v 4 0 0.34641 0 0 1
v 4 1 0.34641 0 0 1
v -0.5 1 -2.94449 1 0 0
v -0.5 1 -2.94449 0 0 1
v -0.5 0 -2.94449 0 0 1
v 1 1 1.73205 0 1 0
v 2.5 1 0.866025 0 1 0
v 1 1 0 0 1 0
v 4 1 0 0 1 0
v 2.5 1 -0.866025 0 1 0
v 1 1 -1.73205 0 1 0
v -0.5 1 -0.866025 0 1 0
v -0.5 1 -2.59808 0 1 0
v -2 1 -1.73205 0 1 0

f 1 2 3
f 4 5 6 7
f 8 9 10
f 11 12 13 14
f 15 16 17 18
f 19 20 21 22
f 23 24 25
f 26 27 28 29
f 25 30 31 23
f 32 28 27 33
f 34 35 36
f 37 38 39 40
f 30 10 9 31
f 14 32 33 11
f 41 34 36
f 38 42 43 39
f 18 44 15
f 45 21 20 46
f 10 47 48 8
f 49 13 12 50
f 51 52 25
f 53 54 55 56
f 57 58 47
f 59 60 61 62
f 16 36 35 63
f 40 64 65 37
f 3 25 52 1
f 56 6 5 53
f 66 48 47
f 50 67 68 49
f 63 17 16
f 22 65 64 19
f 47 69 70 57
f 71 61 60 72
f 69 15 44 73
f 46 74 75 45
f 36 3 2 76
f 7 77 78 4
f 73 79 69
f 80 75 74 81
f 79 70 69
f 72 80 81 71
f 24 51 25
f 54 26 29 55
f 76 41 36
f 42 78 77 43
f 58 66 47
f 67 59 62 68
f 82 83 84
f 83 85 86
f 86 84 83
f 84 86 87
f 87 88 84
f 88 87 89
f 89 90 88