v -0.5 1 2.94449 1 0 0
v -0.2 1 2.77128 1 0 0
v -0.5 1 2.59808 1 0 0
v -0.2 1 2.77128 0 0 1
v -0.5 1 2.94449 0 0 1
v -0.5 0 2.94449 0 0 1
v -0.2 0 2.77128 0 0 1
v -2.3 1 1.90526 1 0 0
v -2 1 2.07846 1 0 0
v -2 1 1.73205 1 0 0
v -2 1 2.07846 0 0 1
v -2.3 1 1.90526 0 0 1
v -2.3 0 1.90526 0 0 1
v -2 0 2.07846 0 0 1
v 2.5 1 1.21244 1 0 0
v 2.8 1 1.03923 1 0 0
v 2.5 1 0.866025 1 0 0
v 2.8 1 1.03923 0 0 1
v 2.5 1 1.21244 0 0 1
v 2.5 0 1.21244 0 0 1
v 2.8 0 1.03923 0 0 1
v -1.7 1 -1.90526 1 0 0
v -2 1 -2.07846 1 0 0
v -2 1 -1.73205 1 0 0
v -2 1 -2.07846 0 0 1
v -1.7 1 -1.90526 0 0 1
v -1.7 0 -1.90526 0 0 1
v -2 0 -2.07846 0 0 1
v -0.5 1 -0.866025 1 0 0
v -0.5 1 -1.21244 1 0 0
v -0.5 0 -1.21244 0 0 1
v -0.5 1 -1.21244 0 0 1
v 1 1 0 1 0 0
v 2.5 1 0.519615 1 0 0
v 1.3 1 -0.173205 1 0 0
v 2.5 0 0.519615 0 0 1
v 1.3 0 -0.173205 0 0 1
v 1.3 1 -0.173205 0 0 1
v 2.5 1 0.519615 0 0 1
v -2.3 1 -0.173205 1 0 0
v -2.3 1 0.173205 1 0 0
v -2 1 0 1 0 0
v -2.3 1 0.173205 0 0 1
v -2.3 1 -0.173205 0 0 1
v -2.3 0 -0.173205 0 0 1
v -2.3 0 0.173205 0 0 1
v -2.3 1 1.55885 1 0 0
v -2.3 1 1.55885 0 0 1
v -2.3 0 1.55885 0 0 1
v -2.3 1 -1.55885 1 0 0
v -2.3 0 -1.55885 0 0 1
v -2.3 1 -1.55885 0 0 1
v -2.3 1 -1.90526 1 0 0
v -2.3 1 -1.90526 0 0 1
v -2.3 0 -1.90526 0 0 1
v 1 1 1.73205 1 0 0
v 1 1 2.07846 1 0 0
v 1 0 2.07846 0 0 1
v 1 1 2.07846 0 0 1
v 2.8 1 0.69282 1 0 0
v 2.8 1 0.69282 0 0 1
v 2.8 0 0.69282 0 0 1
v -0.8 1 2.77128 1 0 0
v -0.8 1 2.77128 0 0 1
v -0.8 0 2.77128 0 0 1
v 1.3 1 1.90526 1 0 0
v 1.3 0 1.90526 0 0 1
v 1.3 1 1.90526 0 0 1
v 1 1 -0.34641 1 0 0
v 1 1 -0.34641 0 0 1
v 1 0 -0.34641 0 0 1
v -0.2 1 -1.03923 1 0 0
v -0.2 1 -1.03923 0 0 1
v -0.2 0 -1.03923 0 0 1
v -0.5 1 2.59808 0 1 0
v 1 1 1.73205 0 1 0
v -0.5 1 0.866025 0 1 0
v 1 1 0 0 1 0
v 2.5 1 0.866025 0 1 0
v -0.5 1 -0.866025 0 1 0
v -2 1 1.73205 0 1 0
v -2 1 0 0 1 0
v -2 1 -1.73205 0 1 0

f 1 2 3
f 4 5 6 7
f 8 9 10
f 11 12 13 14
f 15 16 17
f 18 19 20 21
f 22 23 24
f 25 26 27 28
f 24 29 30 22
f 31 27 26 32
f 33 17 34 35
f 36 37 38 39
f 40 41 42
f 43 44 45 46
f 47 8 10
f 12 48 49 13
f 42 24 50 40
f 51 45 44 52
f 53 50 24
f 52 54 55 51
f 23 53 24
f 54 25 28 55
f 56 3 2 57
f 7 58 59 4
f 16 60 17
f 61 18 21 62
f 63 1 3
f 5 64 65 6
f 10 42 41 47
f 46 49 48 43
f 17 56 66 15
f 67 20 19 68
f 35 69 33
f 70 38 37 71
f 72 30 29
f 32 73 74 31
f 57 66 56
f 68 59 58 67
f 3 10 9 63
f 14 65 64 11
f 60 34 17
f 39 61 62 36
f 29 33 69 72
f 71 74 73 70
f 75 76 77
f 78 77 76
f 76 79 78
f 77 78 80
f 81 77 82
f 80 82 77
f 82 80 83