v -0.047619 0 0.0549857 0.396078 0.262745 0.129412
v -0.190476 0 0.0549857 0.396078 0.262745 0.129412
v -0.261905 0 -0.0687322 0.396078 0.262745 0.129412
v -0.190476 0 -0.19245 0.396078 0.262745 0.129412
v -0.047619 0 -0.19245 0.396078 0.262745 0.129412
v 0.0238095 0 -0.0687322 0.396078 0.262745 0.129412
v -0.218166 0.25 -0.0687322 0.60404 0.672727 0.741414
v -0.168607 0.25 -0.154571 0.60404 0.672727 0.741414
v -0.168607 0.25 0.017107 0.60404 0.672727 0.741414
v -0.218166 0.25 -0.0687322 0.60404 0.672727 0.741414
v -0.168607 0.25 0.017107 0.60404 0.672727 0.741414
v -0.0694884 0.25 0.017107 0.60404 0.672727 0.741414
v -0.0694884 0.25 -0.154571 0.60404 0.672727 0.741414
v -0.0199291 0.25 -0.0687322 0.60404 0.672727 0.741414
v -0.168607 0.25 -0.154571 0.60404 0.672727 0.741414
v -0.0694884 0.25 -0.154571 0.60404 0.672727 0.741414
v -0.225833 0.25 0.351154 0.903529 0.793333 0.746667
v -0.154404 0.25 0.227436 0.903529 0.793333 0.746667
v -0.142857 0.325 0.247436 0.903529 0.793333 0.746667
v -0.214286 0.325 0.371154 0.903529 0.793333 0.746667
v 0.011547 0.25 0.227436 0.903529 0.793333 0.746667
v 0 0.325 0.247436 0.903529 0.793333 0.746667
v 0.0829756 0.25 0.351154 0.903529 0.793333 0.746667
v 0.0714286 0.325 0.371154 0.903529 0.793333 0.746667
v 0.202739 0.25 0.351154 0.903529 0.793333 0.746667
v 0.214286 0.325 0.371154 0.903529 0.793333 0.746667
v 0.26262 0.25 0.247436 0.903529 0.793333 0.746667
v 0.285714 0.325 0.247436 0.903529 0.793333 0.746667
v 0.191192 0.25 0.123718 0.903529 0.793333 0.746667
v 0.214286 0.325 0.123718 0.903529 0.793333 0.746667
v 0.26262 0.25 0 0.903529 0.793333 0.746667
v 0.285714 0.325 0 0.903529 0.793333 0.746667
v 0.202739 0.25 -0.103718 0.903529 0.793333 0.746667
v 0.214286 0.325 -0.123718 0.903529 0.793333 0.746667
v 0.0598816 0.25 -0.103718 0.903529 0.793333 0.746667
v 0.0714286 0.325 -0.123718 0.903529 0.793333 0.746667
v -0.023094 0.25 -0.247436 0.903529 0.793333 0.746667
v 0.0483346 0.25 -0.371154 0.903529 0.793333 0.746667
v 0.0714286 0.325 -0.371154 0.903529 0.793333 0.746667
v 0 0.325 -0.247436 0.903529 0.793333 0.746667
v -0.011547 0.25 -0.474872 0.903529 0.793333 0.746667
v 0 0.325 -0.494872 0.903529 0.793333 0.746667
v -0.154404 0.25 -0.474872 0.903529 0.793333 0.746667
v -0.142857 0.325 -0.494872 0.903529 0.793333 0.746667
v -0.225833 0.25 -0.59859 0.903529 0.793333 0.746667
v -0.214286 0.325 -0.61859 0.903529 0.793333 0.746667
v -0.345596 0.25 -0.59859 0.903529 0.793333 0.746667
v -0.357143 0.325 -0.61859 0.903529 0.793333 0.746667
v -0.405477 0.25 -0.494872 0.903529 0.793333 0.746667
v -0.428571 0.325 -0.494872 0.903529 0.793333 0.746667
v -0.334049 0.25 -0.371154 0.903529 0.793333 0.746667
v -0.357143 0.325 -0.371154 0.903529 0.793333 0.746667
v -0.405477 0.25 -0.247436 0.903529 0.793333 0.746667
v -0.428571 0.325 -0.247436 0.903529 0.793333 0.746667
v -0.334049 0.25 -0.123718 0.903529 0.793333 0.746667
v -0.357143 0.325 -0.123718 0.903529 0.793333 0.746667
v -0.405477 0.25 0 0.903529 0.793333 0.746667
v -0.428571 0.325 0 0.903529 0.793333 0.746667
v -0.334049 0.25 0.123718 0.903529 0.793333 0.746667
v -0.357143 0.325 0.123718 0.903529 0.793333 0.746667
v -0.405477 0.25 0.247436 0.903529 0.793333 0.746667
v -0.428571 0.325 0.247436 0.903529 0.793333 0.746667
v -0.345596 0.25 0.351154 0.903529 0.793333 0.746667
v -0.357143 0.325 0.371154 0.903529 0.793333 0.746667
v -0.326351 0.475 -0.565256 0.718431 0.662353 0.655686
v -0.366987 0.475 -0.494872 0.718431 0.662353 0.655686
v -0.366987 0.475 -0.494872 0.718431 0.662353 0.655686
v -0.295559 0.475 -0.371154 0.718431 0.662353 0.655686
v -0.366987 0.475 -0.247436 0.718431 0.662353 0.655686
v -0.295559 0.475 -0.123718 0.718431 0.662353 0.655686
v -0.366987 0.475 -0.247436 0.718431 0.662353 0.655686
v -0.245078 0.475 0.31782 0.718431 0.662353 0.655686
v -0.173649 0.475 0.194102 0.718431 0.662353 0.655686
v -0.366987 0.475 0 0.718431 0.662353 0.655686
v -0.295559 0.475 0.123718 0.718431 0.662353 0.655686
v -0.366987 0.475 0 0.718431 0.662353 0.655686
v -0.366987 0.475 0.247436 0.718431 0.662353 0.655686
v -0.295559 0.475 0.123718 0.718431 0.662353 0.655686
v -0.366987 0.475 0.247436 0.718431 0.662353 0.655686
v -0.326351 0.475 0.31782 0.718431 0.662353 0.655686
v -0.326351 0.475 0.31782 0.718431 0.662353 0.655686
v -0.245078 0.475 0.31782 0.718431 0.662353 0.655686
v 0.030792 0.475 0.194102 0.718431 0.662353 0.655686
v 0.102221 0.475 0.31782 0.718431 0.662353 0.655686
v 0.030792 0.475 0.194102 0.718431 0.662353 0.655686
v 0.183494 0.475 0.31782 0.718431 0.662353 0.655686
v 0.102221 0.475 0.31782 0.718431 0.662353 0.655686
v 0.22413 0.475 0.247436 0.718431 0.662353 0.655686
v 0.183494 0.475 0.31782 0.718431 0.662353 0.655686
v 0.152702 0.475 0.123718 0.718431 0.662353 0.655686
v 0.22413 0.475 0.247436 0.718431 0.662353 0.655686
v 0.22413 0.475 0 0.718431 0.662353 0.655686
v 0.152702 0.475 0.123718 0.718431 0.662353 0.655686
v 0.22413 0.475 0 0.718431 0.662353 0.655686
v 0.183494 0.475 -0.0703846 0.718431 0.662353 0.655686
v 0.183494 0.475 -0.0703846 0.718431 0.662353 0.655686
v 0.0406366 0.475 -0.0703846 0.718431 0.662353 0.655686
v 0.00984454 0.475 -0.371154 0.718431 0.662353 0.655686
v -0.061584 0.475 -0.247436 0.718431 0.662353 0.655686
v 0.00984454 0.475 -0.371154 0.718431 0.662353 0.655686
v -0.030792 0.475 -0.441538 0.718431 0.662353 0.655686
v -0.030792 0.475 -0.441538 0.718431 0.662353 0.655686
v -0.173649 0.475 -0.441538 0.718431 0.662353 0.655686
v -0.245078 0.475 -0.565256 0.718431 0.662353 0.655686
v -0.173649 0.475 -0.441538 0.718431 0.662353 0.655686
v -0.326351 0.475 -0.565256 0.718431 0.662353 0.655686
v 0.193338 1 0.247436 0.0705882 0.203922 0.337255
v 0.12191 1 0.123718 0.0705882 0.203922 0.337255
v 0.046188 1 0.167436 0.0705882 0.203922 0.337255
v 0.117617 1 0.291154 0.0705882 0.203922 0.337255
v 0.168098 1 0.291154 0.0705882 0.203922 0.337255
v 0.168098 1 -0.0437179 0.0705882 0.203922 0.337255
v 0.0252405 1 -0.0437179 0.0705882 0.203922 0.337255
v 0.193338 1 0 0.0705882 0.203922 0.337255
v -0.189045 1 -0.414872 0.0705882 0.203922 0.337255
v -0.092376 1 -0.247436 0.0705882 0.203922 0.337255
v -0.0209475 1 -0.371154 0.0705882 0.203922 0.337255
v -0.046188 1 -0.414872 0.0705882 0.203922 0.337255
v -0.336195 1 -0.494872 0.0705882 0.203922 0.337255
v -0.264767 1 -0.371154 0.0705882 0.203922 0.337255
v -0.260474 1 -0.53859 0.0705882 0.203922 0.337255
v -0.310955 1 -0.53859 0.0705882 0.203922 0.337255
v -0.264767 1 -0.123718 0.0705882 0.203922 0.337255
v -0.336195 1 -0.247436 0.0705882 0.203922 0.337255
v -0.336195 1 0 0.0705882 0.203922 0.337255
v -0.264767 1 0.123718 0.0705882 0.203922 0.337255
v -0.336195 1 0.247436 0.0705882 0.203922 0.337255
v -0.310955 1 0.291154 0.0705882 0.203922 0.337255
v -0.260474 1 0.291154 0.0705882 0.203922 0.337255
v -0.189045 1 0.167436 0.0705882 0.203922 0.337255
v -0.334049 0.775 -0.57859 0.348235 0.400392 0.473725
v -0.327121 0.73 -0.56659 0.403765 0.439686 0.50102
v -0.368527 0.73 -0.494872 0.403765 0.439686 0.50102
v -0.382383 0.775 -0.494872 0.348235 0.400392 0.473725
v 0.168098 0.775 0.123718 0.348235 0.400392 0.473725
v 0.239526 0.775 0 0.348235 0.400392 0.473725
v 0.154241 0.73 0.123718 0.403765 0.439686 0.50102
v 0.22567 0.73 0 0.403765 0.439686 0.50102
v 0.191192 0.775 -0.0837179 0.348235 0.400392 0.473725
v 0.22567 0.73 0 0.403765 0.439686 0.50102
v 0.184264 0.73 -0.0717179 0.403765 0.439686 0.50102
v 0.0252405 0.775 -0.371154 0.348235 0.400392 0.473725
v 0.0113841 0.73 -0.371154 0.403765 0.439686 0.50102
v -0.0300222 0.73 -0.442872 0.403765 0.439686 0.50102
v -0.023094 0.775 -0.454872 0.348235 0.400392 0.473725
v 0.0483346 0.775 -0.0837179 0.348235 0.400392 0.473725
v -0.046188 0.775 -0.247436 0.348235 0.400392 0.473725
v -0.165951 0.775 -0.454872 0.348235 0.400392 0.473725
v 0.0414064 0.73 -0.0717179 0.403765 0.439686 0.50102
v 0.184264 0.73 -0.0717179 0.403765 0.439686 0.50102
v -0.0600444 0.73 -0.247436 0.403765 0.439686 0.50102
v 0.0414064 0.73 -0.0717179 0.403765 0.439686 0.50102
v -0.0600444 0.73 -0.247436 0.403765 0.439686 0.50102
v 0.0113841 0.73 -0.371154 0.403765 0.439686 0.50102
v -0.172879 0.73 -0.442872 0.403765 0.439686 0.50102
v -0.310955 0.775 -0.371154 0.348235 0.400392 0.473725
v -0.297098 0.73 -0.371154 0.403765 0.439686 0.50102
v -0.368527 0.73 -0.494872 0.403765 0.439686 0.50102
v -0.244308 0.73 -0.56659 0.403765 0.439686 0.50102
v -0.23738 0.775 -0.57859 0.348235 0.400392 0.473725
v -0.172879 0.73 -0.442872 0.403765 0.439686 0.50102
v -0.244308 0.73 -0.56659 0.403765 0.439686 0.50102
v -0.327121 0.73 -0.56659 0.403765 0.439686 0.50102
v 0.0945226 0.775 0.331154 0.348235 0.400392 0.473725
v 0.101451 0.73 0.319154 0.403765 0.439686 0.50102
v 0.184264 0.73 0.319154 0.403765 0.439686 0.50102
v 0.191192 0.775 0.331154 0.348235 0.400392 0.473725
v 0.023094 0.775 0.207436 0.348235 0.400392 0.473725
v 0.239526 0.775 0.247436 0.348235 0.400392 0.473725
v 0.0300222 0.73 0.195436 0.403765 0.439686 0.50102
v 0.22567 0.73 0.247436 0.403765 0.439686 0.50102
v 0.154241 0.73 0.123718 0.403765 0.439686 0.50102
v 0.22567 0.73 0.247436 0.403765 0.439686 0.50102
v -0.382383 0.775 0.247436 0.348235 0.400392 0.473725
v -0.368527 0.73 0.247436 0.403765 0.439686 0.50102
v -0.327121 0.73 0.319154 0.403765 0.439686 0.50102
v -0.334049 0.775 0.331154 0.348235 0.400392 0.473725
v -0.310955 0.775 0.123718 0.348235 0.400392 0.473725
v -0.297098 0.73 0.123718 0.403765 0.439686 0.50102
v -0.368527 0.73 0.247436 0.403765 0.439686 0.50102
v -0.310955 0.775 -0.123718 0.348235 0.400392 0.473725
v -0.382383 0.775 0 0.348235 0.400392 0.473725
v -0.297098 0.73 -0.123718 0.403765 0.439686 0.50102
v -0.368527 0.73 0 0.403765 0.439686 0.50102
v -0.368527 0.73 0 0.403765 0.439686 0.50102
v -0.23738 0.775 0.331154 0.348235 0.400392 0.473725
v -0.244308 0.73 0.319154 0.403765 0.439686 0.50102
v -0.172879 0.73 0.195436 0.403765 0.439686 0.50102
v -0.165951 0.775 0.207436 0.348235 0.400392 0.473725
v -0.172879 0.73 0.195436 0.403765 0.439686 0.50102
v 0.0300222 0.73 0.195436 0.403765 0.439686 0.50102
v -0.244308 0.73 0.319154 0.403765 0.439686 0.50102
v -0.368527 0.73 -0.247436 0.403765 0.439686 0.50102
v -0.382383 0.775 -0.247436 0.348235 0.400392 0.473725
v -0.297098 0.73 -0.371154 0.403765 0.439686 0.50102
v -0.368527 0.73 -0.247436 0.403765 0.439686 0.50102
v -0.334049 0.475 -0.57859 0.718431 0.662353 0.655686
v -0.318653 0.475 -0.57859 0.718431 0.662353 0.655686
v -0.374685 0.475 -0.481538 0.718431 0.662353 0.655686
v -0.382383 0.475 -0.494872 0.718431 0.662353 0.655686
v -0.405477 0.55 -0.494872 0.625882 0.596863 0.610196
v -0.345596 0.55 -0.59859 0.625882 0.596863 0.610196
v -0.368527 0.73 -0.494872 0.403765 0.439686 0.50102
v -0.327121 0.73 -0.56659 0.403765 0.439686 0.50102
v 0.22413 0.475 0 0.718431 0.662353 0.655686
v 0.231828 0.475 0.0133333 0.718431 0.662353 0.655686
v 0.168098 0.475 0.123718 0.718431 0.662353 0.655686
v 0.1604 0.475 0.110385 0.718431 0.662353 0.655686
v 0.191192 0.55 0.123718 0.625882 0.596863 0.610196
v 0.239526 0.475 0 0.718431 0.662353 0.655686
v 0.26262 0.55 0 0.625882 0.596863 0.610196
v -0.03849 0.475 -0.454872 0.718431 0.662353 0.655686
v -0.023094 0.475 -0.454872 0.718431 0.662353 0.655686
v 0.0252405 0.475 -0.371154 0.718431 0.662353 0.655686
v 0.0175425 0.475 -0.35782 0.718431 0.662353 0.655686
v 0.175796 0.475 -0.0837179 0.718431 0.662353 0.655686
v 0.191192 0.475 -0.0837179 0.718431 0.662353 0.655686
v 0.202739 0.55 -0.103718 0.625882 0.596863 0.610196
v -0.011547 0.55 -0.474872 0.625882 0.596863 0.610196
v 0.0483346 0.55 -0.371154 0.625882 0.596863 0.610196
v 0.184264 0.73 -0.0717179 0.403765 0.439686 0.50102
v 0.22567 0.73 0 0.403765 0.439686 0.50102
v 0.0598816 0.55 -0.103718 0.625882 0.596863 0.610196
v 0.0414064 0.73 -0.0717179 0.403765 0.439686 0.50102
v -0.023094 0.55 -0.247436 0.625882 0.596863 0.610196
v -0.0600444 0.73 -0.247436 0.403765 0.439686 0.50102
v -0.0600444 0.73 -0.247436 0.403765 0.439686 0.50102
v 0.0113841 0.73 -0.371154 0.403765 0.439686 0.50102
v 0.0483346 0.475 -0.0837179 0.718431 0.662353 0.655686
v -0.046188 0.475 -0.247436 0.718431 0.662353 0.655686
v 0.183494 0.475 -0.0703846 0.718431 0.662353 0.655686
v 0.0560326 0.475 -0.0703846 0.718431 0.662353 0.655686
v -0.061584 0.475 -0.247436 0.718431 0.662353 0.655686
v 0.00984454 0.475 -0.371154 0.718431 0.662353 0.655686
v 0.0406366 0.475 -0.0703846 0.718431 0.662353 0.655686
v -0.0300222 0.73 -0.442872 0.403765 0.439686 0.50102
v -0.165951 0.475 -0.454872 0.718431 0.662353 0.655686
v -0.154404 0.55 -0.474872 0.625882 0.596863 0.610196
v -0.173649 0.475 -0.441538 0.718431 0.662353 0.655686
v -0.252776 0.475 -0.57859 0.718431 0.662353 0.655686
v -0.23738 0.475 -0.57859 0.718431 0.662353 0.655686
v -0.030792 0.475 -0.441538 0.718431 0.662353 0.655686
v -0.225833 0.55 -0.59859 0.625882 0.596863 0.610196
v -0.172879 0.73 -0.442872 0.403765 0.439686 0.50102
v -0.244308 0.73 -0.56659 0.403765 0.439686 0.50102
v -0.327121 0.73 -0.56659 0.403765 0.439686 0.50102
v -0.244308 0.73 -0.56659 0.403765 0.439686 0.50102
v -0.334049 0.55 -0.371154 0.625882 0.596863 0.610196
v -0.297098 0.73 -0.371154 0.403765 0.439686 0.50102
v -0.368527 0.73 -0.494872 0.403765 0.439686 0.50102
v -0.326351 0.475 -0.565256 0.718431 0.662353 0.655686
v -0.245078 0.475 -0.565256 0.718431 0.662353 0.655686
v -0.310955 0.475 -0.371154 0.718431 0.662353 0.655686
v 0.19889 0.475 0.31782 0.718431 0.662353 0.655686
v 0.191192 0.475 0.331154 0.718431 0.662353 0.655686
v 0.0945226 0.475 0.331154 0.718431 0.662353 0.655686
v 0.0868246 0.475 0.31782 0.718431 0.662353 0.655686
v 0.202739 0.55 0.351154 0.625882 0.596863 0.610196
v 0.0829756 0.55 0.351154 0.625882 0.596863 0.610196
v 0.184264 0.73 0.319154 0.403765 0.439686 0.50102
v 0.101451 0.73 0.319154 0.403765 0.439686 0.50102
v 0.154241 0.73 0.123718 0.403765 0.439686 0.50102
v 0.22567 0.73 0 0.403765 0.439686 0.50102
v 0.154241 0.73 0.123718 0.403765 0.439686 0.50102
v 0.22567 0.73 0.247436 0.403765 0.439686 0.50102
v 0.26262 0.55 0.247436 0.625882 0.596863 0.610196
v 0.22567 0.73 0.247436 0.403765 0.439686 0.50102
v 0.0300222 0.73 0.195436 0.403765 0.439686 0.50102
v 0.011547 0.55 0.227436 0.625882 0.596863 0.610196
v 0.023094 0.475 0.207436 0.718431 0.662353 0.655686
v 0.239526 0.475 0.247436 0.718431 0.662353 0.655686
v 0.231828 0.475 0.260769 0.718431 0.662353 0.655686
v 0.152702 0.475 0.123718 0.718431 0.662353 0.655686
v 0.22413 0.475 0.247436 0.718431 0.662353 0.655686
v 0.183494 0.475 0.31782 0.718431 0.662353 0.655686
v -0.334049 0.475 0.331154 0.718431 0.662353 0.655686
v -0.341747 0.475 0.31782 0.718431 0.662353 0.655686
v -0.245078 0.475 0.31782 0.718431 0.662353 0.655686
v -0.252776 0.475 0.331154 0.718431 0.662353 0.655686
v -0.326351 0.475 0.31782 0.718431 0.662353 0.655686
v -0.382383 0.475 0.247436 0.718431 0.662353 0.655686
v -0.374685 0.475 0.234102 0.718431 0.662353 0.655686
v -0.405477 0.55 0.247436 0.625882 0.596863 0.610196
v -0.345596 0.55 0.351154 0.625882 0.596863 0.610196
v -0.297098 0.73 0.123718 0.403765 0.439686 0.50102
v -0.334049 0.55 0.123718 0.625882 0.596863 0.610196
v -0.368527 0.73 0.247436 0.403765 0.439686 0.50102
v -0.310955 0.475 0.123718 0.718431 0.662353 0.655686
v -0.295559 0.475 0.123718 0.718431 0.662353 0.655686
v -0.366987 0.475 0.247436 0.718431 0.662353 0.655686
v -0.366987 0.475 0 0.718431 0.662353 0.655686
v -0.374685 0.475 0.0133333 0.718431 0.662353 0.655686
v -0.310955 0.475 -0.123718 0.718431 0.662353 0.655686
v -0.310955 0.475 -0.0970512 0.718431 0.662353 0.655686
v -0.382383 0.475 0 0.718431 0.662353 0.655686
v -0.295559 0.475 -0.123718 0.718431 0.662353 0.655686
v -0.310955 0.475 -0.150385 0.718431 0.662353 0.655686
v -0.405477 0.55 0 0.625882 0.596863 0.610196
v -0.334049 0.55 -0.123718 0.625882 0.596863 0.610196
v -0.368527 0.73 0 0.403765 0.439686 0.50102
v -0.297098 0.73 -0.123718 0.403765 0.439686 0.50102
v -0.297098 0.73 0.123718 0.403765 0.439686 0.50102
v -0.173649 0.475 0.194102 0.718431 0.662353 0.655686
v -0.165951 0.475 0.207436 0.718431 0.662353 0.655686
v -0.23738 0.475 0.331154 0.718431 0.662353 0.655686
v 0.030792 0.475 0.194102 0.718431 0.662353 0.655686
v 0.102221 0.475 0.31782 0.718431 0.662353 0.655686
v -0.154404 0.55 0.227436 0.625882 0.596863 0.610196
v -0.225833 0.55 0.351154 0.625882 0.596863 0.610196
v -0.244308 0.73 0.319154 0.403765 0.439686 0.50102
v -0.327121 0.73 0.319154 0.403765 0.439686 0.50102
v -0.172879 0.73 0.195436 0.403765 0.439686 0.50102
v -0.295559 0.475 -0.371154 0.718431 0.662353 0.655686
v -0.374685 0.475 -0.234102 0.718431 0.662353 0.655686
v -0.382383 0.475 -0.247436 0.718431 0.662353 0.655686
v -0.366987 0.475 -0.494872 0.718431 0.662353 0.655686
v -0.405477 0.55 -0.247436 0.625882 0.596863 0.610196
v -0.297098 0.73 -0.123718 0.403765 0.439686 0.50102
v -0.368527 0.73 -0.247436 0.403765 0.439686 0.50102
v -0.368527 0.73 -0.247436 0.403765 0.439686 0.50102
v -0.297098 0.73 -0.371154 0.403765 0.439686 0.50102
v -0.366987 0.475 -0.247436 0.718431 0.662353 0.655686
v 0.0300757 0.25 -0.155343 0.903529 0.793333 0.746667
v -0.26235 0.25 0.351154 0.903529 0.793333 0.746667
v -0.334049 0.25 -0.269447 0.903529 0.793333 0.746667
v -0.119048 0.25 0.102946 0.903529 0.793333 0.746667
v -0.0694884 0.25 0.017107 0.903529 0.793333 0.746667
v -0.168607 0.25 0.017107 0.903529 0.793333 0.746667
v 0.00238582 0.25 -0.450739 0.903529 0.793333 0.746667
v -0.218166 0.25 -0.0687322 0.903529 0.793333 0.746667
v -0.119048 0.25 -0.24041 0.903529 0.793333 0.746667
v -0.0199291 0.25 -0.0687322 0.903529 0.793333 0.746667
v -0.061584 0.475 -0.247436 0.718431 0.662353 0.655686
v -0.168607 0.25 -0.154571 0.903529 0.793333 0.746667
v -0.0694884 0.25 -0.154571 0.903529 0.793333 0.746667

vt 0.75 0
vt 0.25 0
vt 0 0.5
vt 0.25 1
vt 0.75 1
vt 1 0.5
vt 0.333333 0
vt 0.5 0
vt 0.5 0.757576
vt 0.333333 0.757576
vt 0.666667 0
vt 0.666667 0.757576
vt 0.666667 0.757576
vt 0.833333 0
vt 0.833333 0.757576
vt 0 0
vt 0.166667 0
vt 0.166667 0.757576
vt 0 0.757576
vt 0.333333 0.757576
vt 1 0
vt 1 0.757576
vt 0.833333 0.757576
vt 0.0434215 0
vt 0.0416667 0.5
vt 0.0938625 0
vt 0.0833333 0.5
vt 0.137284 0
vt 0.125 0.5
vt 0.173686 0
vt 0.166667 0.5
vt 0.210088 0
vt 0.208333 0.5
vt 0.25351 0
vt 0.25 0.5
vt 0.296931 0
vt 0.291667 0.5
vt 0.333333 0
vt 0.333333 0.5
vt 0.376755 0
vt 0.375 0.5
vt 0.427196 0
vt 0.470617 0
vt 0.458333 0.5
vt 0.416667 0.5
vt 0.507019 0
vt 0.5 0.5
vt 0.550441 0
vt 0.541667 0.5
vt 0.593862 0
vt 0.583333 0.5
vt 0.630265 0
vt 0.625 0.5
vt 0.666667 0
vt 0.666667 0.5
vt 0.710088 0
vt 0.708333 0.5
vt 0.75351 0
vt 0.75 0.5
vt 0.796931 0
vt 0.791667 0.5
vt 0.840353 0
vt 0.833333 0.5
vt 0.883774 0
vt 0.875 0.5
vt 0.927196 0
vt 0.916667 0.5
vt 0.963598 0
vt 0.958333 0.5
vt 1 0.5
vt 0.641069 0.833333
vt 0.666667 0.833333
vt 0.71369 0.833333
vt 0.760713 0.833333
vt 0.807736 0.833333
vt 0 0.833333
vt 0.0470231 0.833333
vt 0.854759 0.833333
vt 0.807736 0.833333
vt 0.901782 0.833333
vt 0.948805 0.833333
vt 0.901782 0.833333
vt 0.974403 0.833333
vt 1 0.833333
vt 0.115472 0.833333
vt 0.162495 0.833333
vt 0.115472 0.833333
vt 0.188092 0.833333
vt 0.162495 0.833333
vt 0.21369 0.833333
vt 0.188092 0.833333
vt 0.260713 0.833333
vt 0.307736 0.833333
vt 0.260713 0.833333
vt 0.333333 0.833333
vt 0.380356 0.833333
vt 0.495828 0.833333
vt 0.448805 0.833333
vt 0.521426 0.833333
vt 0.568449 0.833333
vt 0.615472 0.833333
vt 0.568449 0.833333
vt 0.615472 0.833333
vt 1 0.0526885
vt 0.86511 0.201792
vt 0.722114 0.149104
vt 0.857003 0
vt 0.952334 0
vt 0.952334 0.403585
vt 0.682555 0.403585
vt 1 0.350896
vt 0.277886 0.850896
vt 0.460442 0.649104
vt 0.595331 0.798208
vt 0.547666 0.850896
vt 0 0.947312
vt 0.13489 0.798208
vt 0.142997 1
vt 0.0476656 1
vt 0.13489 0.5
vt 0 0.649104
vt 0 0.350896
vt 0.13489 0.201792
vt 0 0.0526885
vt 0.0476656 0
vt 0.142997 0
vt 0.277886 0.149104
vt 0.635992 0.5
vt 0.639745 0.2
vt 0.666667 0.2
vt 0.666667 0.5
vt 0.666667 1
vt 0.649104 1
vt 0.266069 1
vt 0.257328 0.5
vt 0.302659 0.5
vt 0.315771 1
vt 0.25983 0.2
vt 0.306411 0.2
vt 0.333333 0.5
vt 0.306411 0.2
vt 0.333333 0.2
vt 0.483982 0.5
vt 0.492738 0.2
vt 0.51966 0.2
vt 0.514656 0.5
vt 0.333333 1
vt 0.532138 1
vt 0.514576 1
vt 0.378664 0.5
vt 0.383035 1
vt 0.438651 0.5
vt 0.464874 1
vt 0.559987 0.5
vt 0.58184 1
vt 0.379915 0.2
vt 0.333333 0.2
vt 0.446156 0.2
vt 0.379915 0.2
vt 0.446156 0.2
vt 0.492738 0.2
vt 0.566241 0.2
vt 0.51966 0.2
vt 0.711997 0.5
vt 0.716368 1
vt 0.713248 0.2
vt 0.666667 0.2
vt 0.612823 0.2
vt 0.605318 0.5
vt 0.566241 0.2
vt 0.631541 1
vt 0.612823 0.2
vt 0.639745 0.2
vt 0.150648 0.5
vt 0.159404 0.2
vt 0.186326 0.2
vt 0.181323 0.5
vt 0.198805 1
vt 0.181242 1
vt 0.131541 1
vt 0.105318 0.5
vt 0.211997 0.5
vt 0.216368 1
vt 0.112823 0.2
vt 0.213248 0.2
vt 0.25983 0.2
vt 0.213248 0.2
vt 0.938651 0.5
vt 0.946156 0.2
vt 0.973078 0.2
vt 0.969325 0.5
vt 0.964874 1
vt 0.982437 1
vt 0.915173 1
vt 0.89332 0.5
vt 0.899575 0.2
vt 0.946156 0.2
vt 0.802659 0.5
vt 0.847989 0.5
vt 0.865472 1
vt 0.815771 1
vt 0.806411 0.2
vt 0.852993 0.2
vt 0.852993 0.2
vt 0 0.2
vt 0.0465816 0.2
vt 0.0453307 0.5
vt 0.0465816 0.2
vt 0.112823 0.2
vt 1 0.5
vt 1 0.2
vt 0.0497013 1
vt 0 1
vt 1 1
vt 0.75983 0.2
vt 0.757328 0.5
vt 0.713248 0.2
vt 0.766069 1
vt 0.75983 0.2
vt 0.0777196 1
vt 0.102476 1
vt 0.012378 0.89332
vt 0 0.907976
vt 0.635992 0
vt 0.666667 0
vt 0.666667 0.5
vt 0.630265 0.5
vt 0.666667 0.9
vt 0.63985 0.9
vt 0.975244 0.364008
vt 0.987622 0.349352
vt 0.885146 0.228016
vt 0.872768 0.242672
vt 0.25351 0.5
vt 0.257328 0
vt 0.302659 0
vt 0.296931 0.5
vt 0.552964 0.864008
vt 0.57772 0.864008
vt 0.655439 0.771984
vt 0.643061 0.757328
vt 0.897524 0.456032
vt 0.92228 0.456032
vt 1 0.364008
vt 0.333333 0
vt 0.333333 0.5
vt 0.483982 0
vt 0.514656 0
vt 0.507019 0.5
vt 0.470617 0.5
vt 0.333333 0.9
vt 0.306517 0.9
vt 0.376755 0.5
vt 0.37995 0.9
vt 0.333333 0.9
vt 0.427196 0.5
vt 0.446367 0.9
vt 0.492984 0.9
vt 0.378664 0
vt 0.438651 0
vt 0.909902 0.441375
vt 0.704951 0.441375
vt 0.692573 0.456032
vt 0.540586 0.635992
vt 0.51583 0.635992
vt 0.630683 0.771984
vt 0.680195 0.441375
vt 0.704951 0.441375
vt 0.5198 0.9
vt 0.559987 0
vt 0.550441 0.5
vt 0.348012 0.864008
vt 0.335634 0.849352
vt 0.208403 1
vt 0.233159 1
vt 0.565342 0.849352
vt 0.605318 0
vt 0.593862 0.5
vt 0.566417 0.9
vt 0.5198 0.9
vt 0.566417 0.9
vt 0.613034 0.9
vt 0.613034 0.9
vt 0.710088 0.5
vt 0.713283 0.9
vt 0.666667 0.9
vt 0.0900976 0.985344
vt 0.220781 0.985344
vt 0.711997 0
vt 0.934658 0.0146561
vt 0.92228 0
vt 0.766841 0
vt 0.754463 0.0146561
vt 0.150648 0
vt 0.181323 0
vt 0.173686 0.5
vt 0.137284 0.5
vt 0.186467 0.9
vt 0.15965 0.9
vt 0.2599 0.9
vt 0.2599 0.9
vt 0.213283 0.9
vt 0.210088 0.5
vt 0.213283 0.9
vt 0.186467 0.9
vt 0.113034 0.9
vt 0.0938625 0.5
vt 0.105318 0
vt 1 0.0920237
vt 0.987622 0.0773675
vt 0.86039 0.228016
vt 0.872768 0.242672
vt 0.211997 0
vt 0.975244 0.0920237
vt 0.909902 0.0146561
vt 0.0777196 0
vt 0.0653416 0.0146561
vt 0.220781 0.0146561
vt 0.208403 0
vt 0.0900976 0.0146561
vt 0 0.0920237
vt 0.012378 0.10668
vt 0.927196 0.5
vt 0.938651 0
vt 0.969325 0
vt 0.963598 0.5
vt 0.89975 0.9
vt 0.883774 0.5
vt 0.946367 0.9
vt 0.114854 0.228016
vt 0.13961 0.228016
vt 0.024756 0.0920237
vt 0.024756 0.364008
vt 0.012378 0.349352
vt 0.89332 0
vt 0.114854 0.5
vt 0.114854 0.470688
vt 0 0.364008
vt 0.13961 0.5
vt 0.114854 0.470688
vt 0.114854 0.529312
vt 0.802659 0
vt 0.847989 0
vt 0.840353 0.5
vt 0.796931 0.5
vt 0.853133 0.9
vt 0.806517 0.9
vt 0.853133 0.9
vt 0.89975 0.9
vt 0.335634 0.150648
vt 0.348012 0.135992
vt 0.233159 0
vt 0.651988 0.135992
vt 0.664366 0.150648
vt 0.779219 0.0146561
vt 0.0453307 0
vt 0.0434215 0.5
vt 1 0
vt 1 0.9
vt 0.973183 0.9
vt 0 0.9
vt 0.0466167 0.9
vt 0.973183 0.9
vt 0.114854 0.771984
vt 0.13961 0.771984
vt 0.012378 0.621336
vt 0 0.635992
vt 0.024756 0.907976
vt 0.757328 0
vt 0.75351 0.5
vt 0.7599 0.9
vt 0.024756 0.635992
vt 0.114854 0.529312
vt 0.893087 0.239471
vt 0.696543 0.478942
vt 0.91037 0.478942
vt 1 0.369735
vt 0.65193 0.533299
vt 0.375803 0.130265
vt 0.26889 0
vt 0.214231 0
vt 0.73111 0
vt 0.624197 0.130265
vt 1 0.109206
vt 0.91037 0
vt 0.106913 0.239471
vt 0 0.369735
vt 0.106913 0.5
vt 0.106913 0.65344
vt 0.428724 0.261342
vt 0.08963 0
vt 0 0.109206
vt 0.502904 0.351723
vt 0.354545 0.351723
vt 0.106913 0.760529
vt 0 0.630265
vt 0.610484 0.844326
vt 0.280365 0.442105
vt 0.375803 0.869735
vt 0 0.890794
vt 0.08963 1
vt 0.26889 1
vt 0.58963 0.869735
vt 0.428724 0.622867
vt 0.572347 0.630265
vt 0.577084 0.442105
vt 0.67926 0.760529
vt 0.448805 0.833333
vt 0.354545 0.532486
vt 0.502904 0.532486

vn 0 -1 0
vn -0.866025 0 -0.5
vn -0.866025 0 -0.5
vn -0.866025 0 0.5
vn -0.866025 0 0.5
vn -0.866025 0 0.5
vn 0 0 1
vn 0.866025 0 -0.5
vn 0.866025 0 -0.5
vn 0 0 -1
vn 0.866025 0 0.5
vn 0.866025 0 0.5
vn 0.866025 0 0.5
vn 0.866025 0 0.5
vn -0.866025 0 0.5
vn -0.866025 0 0.5
vn 0.866025 0 0.5
vn 0.866025 0 -0.5
vn 0.866025 0 -0.5
vn 0.866025 0 0.5
vn 0.866025 0 0.5
vn 0.866025 0 -0.5
vn 0.866025 0 -0.5
vn 0.866025 0 0.5
vn 0.866025 0 -0.5
vn 0.866025 0 -0.5
vn 0.866025 0 -0.5
vn 0.866025 0 -0.5
vn -0.866025 0 -0.5
vn -0.866025 0 -0.5
vn -0.866025 0 0.5
vn -0.866025 0 -0.5
vn -0.866025 0 -0.5
vn -0.866025 0 0.5
vn -0.866025 0 0.5
vn -0.866025 0 -0.5
vn -0.866025 0 0.5
vn -0.866025 0 0.5
vn -0.866025 0 -0.5
vn -0.866025 0 -0.5
vn -0.866025 0 0.5
vn -0.866025 0 0.5
vn -0.866025 0 -0.5
vn -0.866025 0 0.5
vn -0.866025 0 -0.5
vn -0.866025 0 -0.5
vn -0.866025 0 0.5
vn -0.866025 0 0.5
vn -0.866025 0 -0.5
vn -0.866025 0 0.5
vn -0.866025 0 0.5
vn 0.866025 0 0.5
vn 0.866025 0 0.5
vn 0.866025 0 -0.5
vn 0.866025 0 0.5
vn 0.866025 0 -0.5
vn 0.866025 0 0.5
vn 0.866025 0 -0.5
vn 0.866025 0 -0.5
vn 0 1 0
vn -0.866025 0 -0.5
vn -0.866025 0 -0.5
vn -0.866025 0 -0.5
vn 0.866025 0 -0.5
vn 0.866025 0 -0.5
vn 0.866025 0 -0.5
vn 0.866025 0 -0.5
vn 0.866025 0 -0.5
vn 0.866025 0 -0.5
vn 0.866025 0 -0.5
vn 0.866025 0 -0.5
vn 0.866025 0 -0.5
vn 0.866025 0 0.5
vn 0.866025 0 0.5
vn 0.866025 0 0.5
vn -0.866025 0 0.5
vn -0.866025 0 0.5
vn -0.866025 0 0.5
vn -0.866025 0 -0.5
vn -0.866025 0 -0.5
vn 0.866025 0 -0.5
vn 0.866025 0 -0.5
vn 0.866025 0 -0.5
vn 0.866025 0 -0.5
vn 0.866025 0 0.5
vn -0.866025 0 0.5
vn -0.866025 0 0.5
vn 0.866025 0 -0.5
vn 0.866025 0 -0.5

f 1/1/1 2/2/1 3/3/1 4/4/1 5/5/1 6/6/1
f 4/7/2 3/8/2 7/9/3 8/10/3
f 2/11/4 9/12/5 10/9/6 3/8/4
f 11/13/7 2/11/7 1/14/7 12/15/7
f 6/16/8 5/17/8 13/18/9 14/19/9
f 5/17/10 4/7/10 15/20/10 16/18/10
f 6/21/11 14/22/12 12/23/12 1/14/11
f 17/16/13 18/24/13 19/25/14 20/3/14
f 18/24/7 21/26/7 22/27/7 19/25/7
f 21/26/15 23/28/15 24/29/16 22/27/16
f 23/28/7 25/30/7 26/31/7 24/29/7
f 25/30/17 27/32/17 28/33/13 26/31/13
f 27/32/18 29/34/18 30/35/19 28/33/19
f 29/34/20 31/36/20 32/37/21 30/35/21
f 31/36/22 33/38/22 34/39/23 32/37/23
f 33/38/10 35/40/10 36/41/10 34/39/10
f 37/42/14 38/43/14 39/44/24 40/45/24
f 38/43/25 41/46/25 42/47/26 39/44/26
f 41/46/10 43/48/10 44/49/10 42/47/10
f 43/48/27 45/50/27 46/51/28 44/49/28
f 45/50/10 47/52/10 48/53/10 46/51/10
f 47/52/29 49/54/29 50/55/30 48/53/30
f 49/54/31 51/56/31 52/57/16 50/55/16
f 51/56/32 53/58/32 54/59/33 52/57/33
f 53/58/34 55/60/34 56/61/35 54/59/35
f 55/60/32 57/62/32 58/63/36 56/61/36
f 57/62/37 59/64/37 60/65/38 58/63/38
f 59/64/39 61/66/39 62/67/40 60/65/40
f 61/66/41 63/68/41 64/69/42 62/67/42
f 63/68/7 17/21/7 20/70/7 64/69/7
f 65/71/43 48/53/30 50/55/30 66/72/43
f 67/72/44 50/55/16 52/57/16 68/73/44
f 54/59/33 69/74/45 68/73/46 52/57/33
f 54/59/35 56/61/35 70/75/47 71/74/48
f 72/76/21 20/3/14 19/25/14 73/77/24
f 58/63/36 74/78/46 70/79/46 56/61/36
f 58/63/38 60/65/38 75/80/44 76/78/44
f 60/65/40 62/67/40 77/81/49 78/82/49
f 79/81/50 62/67/42 64/69/42 80/83/50
f 81/83/7 64/69/7 20/70/7 82/84/7
f 22/27/7 83/85/7 73/77/7 19/25/7
f 24/29/16 84/86/51 85/87/51 22/27/16
f 24/29/7 26/31/7 86/88/7 87/89/7
f 28/33/13 88/90/52 89/91/53 26/31/13
f 28/33/19 30/35/19 90/92/54 91/90/54
f 30/35/21 32/37/21 92/93/55 93/94/55
f 94/93/56 32/37/23 34/39/23 95/95/56
f 96/95/10 34/39/10 36/41/10 97/96/10
f 40/45/24 39/44/24 98/97/57 99/98/57
f 100/97/58 39/44/26 42/47/26 101/99/58
f 102/99/10 42/47/10 44/49/10 103/100/10
f 44/49/28 46/51/28 104/101/59 105/102/59
f 46/51/10 48/53/10 106/71/10 104/103/10
f 107/104/60 108/105/60 109/106/60 110/107/60 111/108/60
f 112/109/60 113/110/60 109/106/60 108/105/60 114/111/60
f 115/112/60 116/113/60 117/114/60 118/115/60
f 119/116/60 120/117/60 115/112/60 121/118/60 122/119/60
f 123/120/60 115/112/60 120/117/60 124/121/60
f 123/120/60 125/122/60 126/123/60
f 126/123/60 127/124/60 128/125/60 129/126/60 130/127/60
f 115/112/60 123/120/60 126/123/60 130/127/60 109/106/60 113/110/60
f 131/128/61 132/129/62 133/130/62 134/131/61
f 131/128/61 134/131/61 119/132/63 122/133/63
f 108/134/20 135/135/21 136/136/21 114/137/20
f 135/135/21 137/138/55 138/139/55 136/136/21
f 139/140/64 136/136/64 140/141/65 141/142/65
f 142/143/66 143/144/67 144/145/67 145/146/66
f 139/140/64 112/147/68 114/137/68 136/136/64
f 142/143/66 145/146/66 118/148/69 117/149/69
f 146/150/10 113/151/10 112/147/10 139/140/10
f 146/150/70 147/152/70 116/153/71 113/151/71
f 116/153/14 147/152/14 142/143/14 117/149/14
f 148/154/10 115/155/10 118/148/10 145/146/10
f 149/156/10 146/150/10 139/140/10 150/157/10
f 151/158/72 147/152/70 146/150/70 152/159/72
f 147/152/14 153/160/14 154/161/14 142/143/14
f 155/162/10 148/154/10 145/146/10 144/163/10
f 156/164/16 120/165/31 119/132/31 134/131/16
f 157/166/44 156/164/16 134/131/16 158/167/44
f 159/168/28 160/169/28 148/154/28 161/170/28
f 160/169/28 121/171/19 115/155/19 148/154/28
f 121/171/10 160/169/10 131/128/10 122/133/10
f 160/169/10 162/172/10 163/173/10 131/128/10
f 164/174/7 165/175/7 166/176/7 167/177/7
f 164/174/7 167/177/7 111/178/7 110/179/7
f 109/180/15 168/181/44 164/174/44 110/179/15
f 169/182/73 107/183/74 111/178/74 167/177/73
f 107/183/18 169/182/19 135/135/19 108/134/18
f 168/181/44 170/184/15 165/175/15 164/174/44
f 169/182/19 171/185/54 172/186/54 135/135/19
f 173/187/75 169/182/73 167/177/73 166/176/75
f 174/188/76 175/189/77 176/190/77 177/191/76
f 127/192/78 174/188/76 177/191/76 128/193/78
f 126/194/39 178/195/40 174/188/40 127/192/39
f 178/195/40 179/196/49 180/197/49 174/188/40
f 181/198/36 182/199/36 125/200/32 123/201/32
f 125/200/37 182/199/38 178/195/38 126/194/37
f 181/198/36 183/202/46 184/203/46 182/199/36
f 182/199/38 185/204/44 179/196/44 178/195/38
f 186/3/24 187/205/21 188/206/21 189/207/24
f 189/207/7 190/208/7 191/209/7 168/181/7
f 186/210/7 177/191/7 176/190/7 192/211/7
f 186/3/24 189/207/24 130/212/13 129/213/13
f 130/212/7 189/207/7 168/181/7 109/180/7
f 186/210/7 129/214/7 128/193/7 177/191/7
f 193/215/79 194/216/33 156/164/33 195/217/79
f 194/216/33 124/218/32 120/165/32 156/164/33
f 194/216/35 181/198/35 123/201/34 124/218/34
f 194/216/35 196/219/47 183/202/47 181/198/35
f 197/220/1 198/221/1 199/222/1 200/223/1
f 197/224/61 200/225/61 201/226/29 202/227/29
f 201/226/29 203/228/80 204/229/80 202/227/29
f 205/230/1 206/231/1 207/232/1 208/233/1
f 209/234/20 207/235/21 210/236/21 211/237/20
f 212/238/1 213/239/1 214/240/1 215/241/1
f 216/242/1 217/243/1 210/244/1 206/231/1
f 217/245/64 218/246/22 211/237/22 210/236/64
f 214/247/66 213/248/66 219/249/25 220/250/25
f 218/246/22 221/251/81 222/252/81 211/237/22
f 223/253/10 224/254/10 221/255/10 218/246/10
f 225/256/82 226/257/83 224/254/83 223/253/82
f 227/257/14 225/256/14 220/250/14 228/258/14
f 229/259/70 230/260/70 225/256/82 223/253/82
f 216/242/1 231/261/1 232/262/1 229/263/1
f 229/259/10 223/253/10 218/246/10 217/245/10
f 230/264/1 233/265/1 234/266/1 215/241/1
f 235/267/1 233/265/1 230/264/1 232/268/1
f 225/256/14 230/260/14 214/247/14 220/250/14
f 236/269/84 228/258/84 220/250/25 219/249/25
f 237/270/10 238/271/10 219/249/10 213/248/10
f 237/272/1 239/273/1 240/274/1 241/275/1
f 242/276/1 239/273/1 237/272/1 212/238/1
f 241/277/28 243/278/27 238/271/27 237/270/28
f 244/279/10 236/280/10 219/249/10 238/271/10
f 244/281/18 238/271/27 243/278/27 245/282/18
f 243/278/10 202/227/10 246/229/10 247/283/10
f 248/284/31 249/285/31 250/286/31 201/226/31
f 251/287/1 198/221/1 240/274/1 252/288/1
f 243/278/10 241/277/10 197/224/10 202/227/10
f 253/289/16 248/284/31 201/226/31 200/225/16
f 254/290/1 255/291/1 256/292/1 257/293/1
f 256/294/7 255/295/7 258/296/7 259/297/7
f 259/297/7 258/296/7 260/298/7 261/299/7
f 262/300/20 209/234/20 211/237/20 263/252/20
f 264/301/18 265/302/18 266/303/18 209/234/18
f 266/303/17 267/304/85 260/305/85 258/296/17
f 268/306/15 269/307/15 259/297/15 261/299/15
f 269/307/15 270/308/44 256/294/44 259/297/15
f 271/309/1 272/310/1 273/311/1 208/312/1
f 266/303/18 271/313/19 207/235/19 209/234/18
f 274/314/1 272/310/1 254/290/1 275/315/1
f 271/313/73 266/303/17 258/296/17 255/295/73
f 276/316/1 277/317/1 278/318/1 279/319/1
f 280/320/1 277/317/1 281/321/1 282/322/1
f 283/323/41 281/324/76 276/325/76 284/326/41
f 285/327/39 286/328/39 283/323/39 287/329/39
f 288/330/1 289/331/1 290/332/1 282/322/1
f 291/333/1 289/331/1 288/330/1 292/334/1
f 286/328/39 288/335/40 281/324/40 283/323/39
f 293/336/1 294/337/1 292/334/1 295/338/1
f 296/339/1 294/340/1 297/341/1
f 293/342/36 295/343/36 298/344/32 299/345/32
f 298/344/37 295/343/38 288/335/38 286/328/37
f 299/345/32 298/344/32 300/346/32 301/347/32
f 185/348/37 298/344/37 286/328/37 302/349/37
f 303/350/1 304/351/1 305/352/1 279/319/1
f 270/353/1 306/354/1 307/355/1 257/293/1
f 270/353/1 304/351/1 303/350/1 306/354/1
f 305/16/24 304/356/24 308/357/13 309/3/13
f 308/357/7 304/356/7 270/308/7 269/307/7
f 305/358/7 309/6/7 284/326/7 276/325/7
f 309/6/7 310/359/7 311/360/7 284/326/7
f 310/361/13 309/3/13 308/357/13 312/362/13
f 311/363/86 287/329/87 283/323/41 284/326/41
f 312/362/7 308/357/7 269/307/7 268/306/7
f 253/364/1 313/365/1 314/366/1 315/367/1
f 316/368/1 313/365/1 253/364/1 199/222/1
f 315/369/33 317/370/32 248/284/32 253/289/33
f 317/370/34 299/345/34 318/347/34 319/371/34
f 317/370/32 320/371/32 321/285/32 248/284/32
f 314/366/1 322/372/1 297/373/1 293/336/1
f 317/370/34 315/369/35 293/342/35 299/345/34
f 29/374/1 35/375/1 33/376/1 31/377/1
f 323/378/1 18/379/1 17/380/1 324/381/1
f 23/382/1 21/383/1 323/378/1 27/384/1 25/385/1
f 18/379/1 323/378/1 21/383/1
f 59/386/1 57/387/1 55/388/1
f 59/386/1 325/389/1 326/390/1
f 63/391/1 61/392/1 59/386/1 326/390/1 324/381/1
f 327/393/1 326/390/1 328/394/1
f 51/395/1 55/388/1 53/396/1
f 51/395/1 329/397/1 330/398/1 325/389/1
f 43/399/1 49/400/1 47/401/1 45/402/1
f 43/399/1 41/403/1 329/397/1
f 43/399/1 329/397/1 51/395/1 49/400/1
f 331/404/1 37/405/1 323/378/1 332/406/1
f 38/407/1 37/405/1 331/404/1 329/397/1
f 37/42/82 40/45/88 36/41/88 35/40/82
f 40/45/88 333/408/89 97/96/89 36/41/88
f 334/409/1 331/404/1 335/410/1