v 0.0952381 0 0.0824786 0.396078 0.262745 0.129412
v 0.0238095 0 0.206197 0.396078 0.262745 0.129412
v -0.119048 0 0.206197 0.396078 0.262745 0.129412
v -0.190476 0 0.0824786 0.396078 0.262745 0.129412
v -0.119048 0 -0.0412393 0.396078 0.262745 0.129412
v 0.0238095 0 -0.0412393 0.396078 0.262745 0.129412
v -0.146738 0.25 0.0824786 0.60404 0.672727 0.741414
v -0.0971783 0.25 -0.00336052 0.60404 0.672727 0.741414
v -0.0971783 0.25 0.168318 0.60404 0.672727 0.741414
v -0.146738 0.25 0.0824786 0.60404 0.672727 0.741414
v 0.0019402 0.25 0.168318 0.60404 0.672727 0.741414
v -0.0971783 0.25 0.168318 0.60404 0.672727 0.741414
v -0.0971783 0.25 -0.00336052 0.60404 0.672727 0.741414
v 0.0019402 0.25 -0.00336052 0.60404 0.672727 0.741414
v 0.0514994 0.25 0.0824786 0.60404 0.672727 0.741414
v 0.0019402 0.25 0.168318 0.60404 0.672727 0.741414
v 0.0019402 0.25 -0.00336052 0.60404 0.672727 0.741414
v 0.0514994 0.25 0.0824786 0.60404 0.672727 0.741414
v -0.011547 0.25 0.474872 0.903529 0.793333 0.746667
v 0.0598816 0.25 0.351154 0.903529 0.793333 0.746667
v 0.0714286 0.325 0.371154 0.903529 0.793333 0.746667
v 0 0.325 0.494872 0.903529 0.793333 0.746667
v 0.202739 0.25 0.351154 0.903529 0.793333 0.746667
v 0.214286 0.325 0.371154 0.903529 0.793333 0.746667
v 0.274167 0.25 0.227436 0.903529 0.793333 0.746667
v 0.285714 0.325 0.247436 0.903529 0.793333 0.746667
v 0.417024 0.25 0.227436 0.903529 0.793333 0.746667
v 0.428571 0.325 0.247436 0.903529 0.793333 0.746667
v 0.476906 0.25 0.123718 0.903529 0.793333 0.746667
v 0.5 0.325 0.123718 0.903529 0.793333 0.746667
v 0.417024 0.25 0.02 0.903529 0.793333 0.746667
v 0.428571 0.325 0 0.903529 0.793333 0.746667
v 0.274167 0.25 0.02 0.903529 0.793333 0.746667
v 0.285714 0.325 0 0.903529 0.793333 0.746667
v 0.202739 0.25 -0.103718 0.903529 0.793333 0.746667
v 0.214286 0.325 -0.123718 0.903529 0.793333 0.746667
v 0.0598816 0.25 -0.103718 0.903529 0.793333 0.746667
v 0.0714286 0.325 -0.123718 0.903529 0.793333 0.746667
v -0.011547 0.25 -0.227436 0.903529 0.793333 0.746667
v 0 0.325 -0.247436 0.903529 0.793333 0.746667
v -0.154404 0.25 -0.227436 0.903529 0.793333 0.746667
v -0.142857 0.325 -0.247436 0.903529 0.793333 0.746667
v -0.225833 0.25 -0.351154 0.903529 0.793333 0.746667
v -0.214286 0.325 -0.371154 0.903529 0.793333 0.746667
v -0.345596 0.25 -0.351154 0.903529 0.793333 0.746667
v -0.357143 0.325 -0.371154 0.903529 0.793333 0.746667
v -0.405477 0.25 -0.247436 0.903529 0.793333 0.746667
v -0.428571 0.325 -0.247436 0.903529 0.793333 0.746667
v -0.334049 0.25 -0.123718 0.903529 0.793333 0.746667
v -0.357143 0.325 -0.123718 0.903529 0.793333 0.746667
v -0.405477 0.25 0 0.903529 0.793333 0.746667
v -0.428571 0.325 0 0.903529 0.793333 0.746667
v -0.334049 0.25 0.123718 0.903529 0.793333 0.746667
v -0.357143 0.325 0.123718 0.903529 0.793333 0.746667
v -0.405477 0.25 0.247436 0.903529 0.793333 0.746667
v -0.428571 0.325 0.247436 0.903529 0.793333 0.746667
v -0.345596 0.25 0.351154 0.903529 0.793333 0.746667
v -0.357143 0.325 0.371154 0.903529 0.793333 0.746667
v -0.202739 0.25 0.351154 0.903529 0.793333 0.746667
v -0.214286 0.325 0.371154 0.903529 0.793333 0.746667
v -0.13131 0.25 0.474872 0.903529 0.793333 0.746667
v -0.142857 0.325 0.494872 0.903529 0.793333 0.746667
v 0.0406366 0.475 0.31782 0.718431 0.662353 0.655686
v 0.183494 0.475 0.31782 0.718431 0.662353 0.655686
v 0.254922 0.475 0.194102 0.718431 0.662353 0.655686
v 0.397779 0.475 0.194102 0.718431 0.662353 0.655686
v 0.438416 0.475 0.123718 0.718431 0.662353 0.655686
v 0.397779 0.475 0.0533333 0.718431 0.662353 0.655686
v 0.438416 0.475 0.123718 0.718431 0.662353 0.655686
v 0.254922 0.475 0.0533333 0.718431 0.662353 0.655686
v 0.397779 0.475 0.0533333 0.718431 0.662353 0.655686
v 0.183494 0.475 -0.0703846 0.718431 0.662353 0.655686
v 0.0406366 0.475 -0.0703846 0.718431 0.662353 0.655686
v -0.030792 0.475 0.441538 0.718431 0.662353 0.655686
v -0.366987 0.475 0 0.718431 0.662353 0.655686
v -0.295559 0.475 -0.123718 0.718431 0.662353 0.655686
v -0.295559 0.475 0.123718 0.718431 0.662353 0.655686
v -0.366987 0.475 0 0.718431 0.662353 0.655686
v -0.112065 0.475 0.441538 0.718431 0.662353 0.655686
v -0.183494 0.475 0.31782 0.718431 0.662353 0.655686
v -0.030792 0.475 -0.194102 0.718431 0.662353 0.655686
v -0.173649 0.475 -0.194102 0.718431 0.662353 0.655686
v -0.245078 0.475 -0.31782 0.718431 0.662353 0.655686
v -0.326351 0.475 -0.31782 0.718431 0.662353 0.655686
v -0.366987 0.475 -0.247436 0.718431 0.662353 0.655686
v -0.366987 0.475 0.247436 0.718431 0.662353 0.655686
v -0.295559 0.475 0.123718 0.718431 0.662353 0.655686
v -0.326351 0.475 0.31782 0.718431 0.662353 0.655686
v -0.326351 0.475 0.31782 0.718431 0.662353 0.655686
v -0.183494 0.475 0.31782 0.718431 0.662353 0.655686
v 0.382383 1 0.08 0.0705882 0.203922 0.337255
v 0.239526 1 0.08 0.0705882 0.203922 0.337255
v 0.239526 1 0.167436 0.0705882 0.203922 0.337255
v 0.382383 1 0.167436 0.0705882 0.203922 0.337255
v 0.407624 1 0.123718 0.0705882 0.203922 0.337255
v 0.0252405 1 -0.0437179 0.0705882 0.203922 0.337255
v 0.168098 1 -0.0437179 0.0705882 0.203922 0.337255
v -0.046188 1 -0.167436 0.0705882 0.203922 0.337255
v -0.189045 1 -0.167436 0.0705882 0.203922 0.337255
v -0.336195 1 -0.247436 0.0705882 0.203922 0.337255
v -0.264767 1 -0.123718 0.0705882 0.203922 0.337255
v -0.260474 1 -0.291154 0.0705882 0.203922 0.337255
v -0.310955 1 -0.291154 0.0705882 0.203922 0.337255
v -0.168098 1 0.291154 0.0705882 0.203922 0.337255
v -0.264767 1 0.123718 0.0705882 0.203922 0.337255
v -0.336195 1 0.247436 0.0705882 0.203922 0.337255
v -0.310955 1 0.291154 0.0705882 0.203922 0.337255
v -0.0966691 1 0.414872 0.0705882 0.203922 0.337255
v -0.046188 1 0.414872 0.0705882 0.203922 0.337255
v 0.0252405 1 0.291154 0.0705882 0.203922 0.337255
v -0.336195 1 0 0.0705882 0.203922 0.337255
v 0.168098 1 0.291154 0.0705882 0.203922 0.337255
v -0.165951 0.775 -0.207436 0.348235 0.400392 0.473725
v -0.23738 0.775 -0.331154 0.348235 0.400392 0.473725
v -0.172879 0.73 -0.195436 0.403765 0.439686 0.50102
v -0.244308 0.73 -0.319154 0.403765 0.439686 0.50102
v -0.334049 0.775 -0.331154 0.348235 0.400392 0.473725
v -0.327121 0.73 -0.319154 0.403765 0.439686 0.50102
v -0.244308 0.73 -0.319154 0.403765 0.439686 0.50102
v 0.191192 0.775 -0.0837179 0.348235 0.400392 0.473725
v 0.0483346 0.775 -0.0837179 0.348235 0.400392 0.473725
v -0.023094 0.775 -0.207436 0.348235 0.400392 0.473725
v -0.0300222 0.73 -0.195436 0.403765 0.439686 0.50102
v -0.172879 0.73 -0.195436 0.403765 0.439686 0.50102
v 0.0414064 0.73 -0.0717179 0.403765 0.439686 0.50102
v 0.184264 0.73 -0.0717179 0.403765 0.439686 0.50102
v 0.0414064 0.73 -0.0717179 0.403765 0.439686 0.50102
v -0.0300222 0.73 -0.195436 0.403765 0.439686 0.50102
v 0.191192 0.775 0.331154 0.348235 0.400392 0.473725
v 0.0483346 0.775 0.331154 0.348235 0.400392 0.473725
v 0.0414064 0.73 0.319154 0.403765 0.439686 0.50102
v 0.184264 0.73 0.319154 0.403765 0.439686 0.50102
v 0.405477 0.775 0.04 0.348235 0.400392 0.473725
v 0.26262 0.775 0.04 0.348235 0.400392 0.473725
v 0.255692 0.73 0.052 0.403765 0.439686 0.50102
v 0.398549 0.73 0.052 0.403765 0.439686 0.50102
v 0.255692 0.73 0.052 0.403765 0.439686 0.50102
v 0.184264 0.73 -0.0717179 0.403765 0.439686 0.50102
v 0.26262 0.775 0.207436 0.348235 0.400392 0.473725
v 0.255692 0.73 0.195436 0.403765 0.439686 0.50102
v -0.023094 0.775 0.454872 0.348235 0.400392 0.473725
v -0.0300222 0.73 0.442872 0.403765 0.439686 0.50102
v 0.0414064 0.73 0.319154 0.403765 0.439686 0.50102
v -0.382383 0.775 0.247436 0.348235 0.400392 0.473725
v -0.368527 0.73 0.247436 0.403765 0.439686 0.50102
v -0.327121 0.73 0.319154 0.403765 0.439686 0.50102
v -0.334049 0.775 0.331154 0.348235 0.400392 0.473725
v -0.119763 0.775 0.454872 0.348235 0.400392 0.473725
v -0.112835 0.73 0.442872 0.403765 0.439686 0.50102
v -0.0300222 0.73 0.442872 0.403765 0.439686 0.50102
v -0.310955 0.775 0.123718 0.348235 0.400392 0.473725
v -0.191192 0.775 0.331154 0.348235 0.400392 0.473725
v -0.184264 0.73 0.319154 0.403765 0.439686 0.50102
v -0.327121 0.73 0.319154 0.403765 0.439686 0.50102
v -0.184264 0.73 0.319154 0.403765 0.439686 0.50102
v -0.112835 0.73 0.442872 0.403765 0.439686 0.50102
v -0.297098 0.73 0.123718 0.403765 0.439686 0.50102
v -0.368527 0.73 0.247436 0.403765 0.439686 0.50102
v -0.382383 0.775 0 0.348235 0.400392 0.473725
v -0.368527 0.73 0 0.403765 0.439686 0.50102
v -0.382383 0.775 -0.247436 0.348235 0.400392 0.473725
v -0.327121 0.73 -0.319154 0.403765 0.439686 0.50102
v -0.368527 0.73 -0.247436 0.403765 0.439686 0.50102
v -0.310955 0.775 -0.123718 0.348235 0.400392 0.473725
v -0.297098 0.73 -0.123718 0.403765 0.439686 0.50102
v -0.368527 0.73 0 0.403765 0.439686 0.50102
v 0.398549 0.73 0.195436 0.403765 0.439686 0.50102
v 0.405477 0.775 0.207436 0.348235 0.400392 0.473725
v 0.255692 0.73 0.195436 0.403765 0.439686 0.50102
v 0.453812 0.775 0.123718 0.348235 0.400392 0.473725
v 0.439956 0.73 0.123718 0.403765 0.439686 0.50102
v 0.398549 0.73 0.052 0.403765 0.439686 0.50102
v 0.439956 0.73 0.123718 0.403765 0.439686 0.50102
v 0.398549 0.73 0.195436 0.403765 0.439686 0.50102
v -0.374685 0.475 -0.260769 0.718431 0.662353 0.655686
v -0.334049 0.475 -0.331154 0.718431 0.662353 0.655686
v -0.318653 0.475 -0.331154 0.718431 0.662353 0.655686
v -0.366987 0.475 -0.247436 0.718431 0.662353 0.655686
v -0.326351 0.475 -0.31782 0.718431 0.662353 0.655686
v -0.252776 0.475 -0.331154 0.718431 0.662353 0.655686
v -0.245078 0.475 -0.31782 0.718431 0.662353 0.655686
v -0.172879 0.73 -0.195436 0.403765 0.439686 0.50102
v -0.154404 0.55 -0.227436 0.625882 0.596863 0.610196
v -0.225833 0.55 -0.351154 0.625882 0.596863 0.610196
v -0.244308 0.73 -0.319154 0.403765 0.439686 0.50102
v -0.165951 0.475 -0.207436 0.718431 0.662353 0.655686
v -0.23738 0.475 -0.331154 0.718431 0.662353 0.655686
v -0.345596 0.55 -0.351154 0.625882 0.596863 0.610196
v -0.173649 0.475 -0.194102 0.718431 0.662353 0.655686
v -0.023094 0.475 -0.207436 0.718431 0.662353 0.655686
v -0.015396 0.475 -0.194102 0.718431 0.662353 0.655686
v -0.011547 0.55 -0.227436 0.625882 0.596863 0.610196
v -0.0300222 0.73 -0.195436 0.403765 0.439686 0.50102
v 0.0406366 0.475 -0.0703846 0.718431 0.662353 0.655686
v 0.0483346 0.475 -0.0837179 0.718431 0.662353 0.655686
v 0.191192 0.475 -0.0837179 0.718431 0.662353 0.655686
v 0.19889 0.475 -0.0703846 0.718431 0.662353 0.655686
v -0.030792 0.475 -0.194102 0.718431 0.662353 0.655686
v 0.0598816 0.55 -0.103718 0.625882 0.596863 0.610196
v 0.202739 0.55 -0.103718 0.625882 0.596863 0.610196
v -0.0300222 0.73 -0.195436 0.403765 0.439686 0.50102
v 0.0414064 0.73 -0.0717179 0.403765 0.439686 0.50102
v 0.0329386 0.475 0.331154 0.718431 0.662353 0.655686
v 0.0406366 0.475 0.31782 0.718431 0.662353 0.655686
v 0.19889 0.475 0.31782 0.718431 0.662353 0.655686
v 0.191192 0.475 0.331154 0.718431 0.662353 0.655686
v 0.0483346 0.475 0.331154 0.718431 0.662353 0.655686
v 0.202739 0.55 0.351154 0.625882 0.596863 0.610196
v 0.0598816 0.55 0.351154 0.625882 0.596863 0.610196
v 0.184264 0.73 -0.0717179 0.403765 0.439686 0.50102
v 0.255692 0.73 0.052 0.403765 0.439686 0.50102
v 0.274167 0.55 0.02 0.625882 0.596863 0.610196
v 0.398549 0.73 0.052 0.403765 0.439686 0.50102
v 0.417024 0.55 0.02 0.625882 0.596863 0.610196
v 0.255692 0.73 0.052 0.403765 0.439686 0.50102
v 0.254922 0.475 0.0533333 0.718431 0.662353 0.655686
v 0.26262 0.475 0.04 0.718431 0.662353 0.655686
v 0.390081 0.475 0.04 0.718431 0.662353 0.655686
v 0.397779 0.475 0.0533333 0.718431 0.662353 0.655686
v 0.183494 0.475 -0.0703846 0.718431 0.662353 0.655686
v 0.405477 0.475 0.04 0.718431 0.662353 0.655686
v 0.274167 0.55 0.227436 0.625882 0.596863 0.610196
v 0.184264 0.73 0.319154 0.403765 0.439686 0.50102
v 0.26262 0.475 0.207436 0.718431 0.662353 0.655686
v -0.023094 0.475 0.454872 0.718431 0.662353 0.655686
v -0.03849 0.475 0.454872 0.718431 0.662353 0.655686
v -0.011547 0.55 0.474872 0.625882 0.596863 0.610196
v 0.0414064 0.73 0.319154 0.403765 0.439686 0.50102
v 0.0414064 0.73 0.319154 0.403765 0.439686 0.50102
v 0.184264 0.73 0.319154 0.403765 0.439686 0.50102
v -0.382383 0.475 0.247436 0.718431 0.662353 0.655686
v -0.374685 0.475 0.234102 0.718431 0.662353 0.655686
v -0.318653 0.475 0.331154 0.718431 0.662353 0.655686
v -0.334049 0.475 0.331154 0.718431 0.662353 0.655686
v -0.345596 0.55 0.351154 0.625882 0.596863 0.610196
v -0.405477 0.55 0.247436 0.625882 0.596863 0.610196
v -0.327121 0.73 0.319154 0.403765 0.439686 0.50102
v -0.368527 0.73 0.247436 0.403765 0.439686 0.50102
v -0.119763 0.475 0.454872 0.718431 0.662353 0.655686
v -0.127461 0.475 0.441538 0.718431 0.662353 0.655686
v -0.030792 0.475 0.441538 0.718431 0.662353 0.655686
v -0.13131 0.55 0.474872 0.625882 0.596863 0.610196
v -0.0300222 0.73 0.442872 0.403765 0.439686 0.50102
v -0.112835 0.73 0.442872 0.403765 0.439686 0.50102
v -0.184264 0.73 0.319154 0.403765 0.439686 0.50102
v -0.202739 0.55 0.351154 0.625882 0.596863 0.610196
v -0.112835 0.73 0.442872 0.403765 0.439686 0.50102
v -0.184264 0.73 0.319154 0.403765 0.439686 0.50102
v -0.327121 0.73 0.319154 0.403765 0.439686 0.50102
v -0.297098 0.73 0.123718 0.403765 0.439686 0.50102
v -0.334049 0.55 0.123718 0.625882 0.596863 0.610196
v -0.326351 0.475 0.31782 0.718431 0.662353 0.655686
v -0.19889 0.475 0.31782 0.718431 0.662353 0.655686
v -0.191192 0.475 0.331154 0.718431 0.662353 0.655686
v -0.183494 0.475 0.31782 0.718431 0.662353 0.655686
v -0.112065 0.475 0.441538 0.718431 0.662353 0.655686
v -0.366987 0.475 0.247436 0.718431 0.662353 0.655686
v -0.310955 0.475 0.123718 0.718431 0.662353 0.655686
v -0.303257 0.475 0.137051 0.718431 0.662353 0.655686
v -0.382383 0.475 0 0.718431 0.662353 0.655686
v -0.374685 0.475 -0.0133333 0.718431 0.662353 0.655686
v -0.295559 0.475 0.123718 0.718431 0.662353 0.655686
v -0.405477 0.55 0 0.625882 0.596863 0.610196
v -0.297098 0.73 0.123718 0.403765 0.439686 0.50102
v -0.382383 0.475 -0.247436 0.718431 0.662353 0.655686
v -0.405477 0.55 -0.247436 0.625882 0.596863 0.610196
v -0.310955 0.475 -0.123718 0.718431 0.662353 0.655686
v -0.295559 0.475 -0.123718 0.718431 0.662353 0.655686
v -0.366987 0.475 0 0.718431 0.662353 0.655686
v -0.334049 0.55 -0.123718 0.625882 0.596863 0.610196
v -0.327121 0.73 -0.319154 0.403765 0.439686 0.50102
v -0.368527 0.73 -0.247436 0.403765 0.439686 0.50102
v -0.368527 0.73 -0.247436 0.403765 0.439686 0.50102
v -0.297098 0.73 -0.123718 0.403765 0.439686 0.50102
v -0.368527 0.73 0 0.403765 0.439686 0.50102
v -0.297098 0.73 -0.123718 0.403765 0.439686 0.50102
v 0.254922 0.475 0.194102 0.718431 0.662353 0.655686
v 0.413175 0.475 0.194102 0.718431 0.662353 0.655686
v 0.405477 0.475 0.207436 0.718431 0.662353 0.655686
v 0.183494 0.475 0.31782 0.718431 0.662353 0.655686
v 0.417024 0.55 0.227436 0.625882 0.596863 0.610196
v 0.398549 0.73 0.195436 0.403765 0.439686 0.50102
v 0.255692 0.73 0.195436 0.403765 0.439686 0.50102
v 0.453812 0.475 0.123718 0.718431 0.662353 0.655686
v 0.446114 0.475 0.137051 0.718431 0.662353 0.655686
v 0.476906 0.55 0.123718 0.625882 0.596863 0.610196
v 0.398549 0.73 0.052 0.403765 0.439686 0.50102
v 0.439956 0.73 0.123718 0.403765 0.439686 0.50102
v 0.398549 0.73 0.195436 0.403765 0.439686 0.50102
v 0.397779 0.475 0.194102 0.718431 0.662353 0.655686
v 0.438416 0.475 0.123718 0.718431 0.662353 0.655686
v 0.204679 0.25 0.347793 0.903529 0.793333 0.746667
v -0.12743 0.25 -0.227436 0.903529 0.793333 0.746667
v 0.101059 0.25 0.168318 0.903529 0.793333 0.746667
v -0.359799 0.25 0.168318 0.903529 0.793333 0.746667
v 0.0514994 0.25 0.0824786 0.903529 0.793333 0.746667
v 0.0019402 0.25 0.168318 0.903529 0.793333 0.746667
v -0.308299 0.25 0.168318 0.903529 0.793333 0.746667
v -0.0971783 0.25 0.168318 0.903529 0.793333 0.746667
v -0.371346 0.25 -0.306554 0.903529 0.793333 0.746667
v -0.196297 0.25 -0.00336052 0.903529 0.793333 0.746667
v 0.0019402 0.25 -0.00336052 0.903529 0.793333 0.746667
v -0.146738 0.25 0.0824786 0.903529 0.793333 0.746667
v -0.0971783 0.25 -0.00336052 0.903529 0.793333 0.746667

vt 1 0.5
vt 0.75 0
vt 0.25 0
vt 0 0.5
vt 0.25 1
vt 0.75 1
vt 0.333333 0
vt 0.333333 0.757576
vt 0.166667 0.757576
vt 0.166667 0
vt 0.5 0
vt 0.5 0.757576
vt 0.666667 0
vt 0.666667 0.757576
vt 0 0
vt 0.166667 0.757576
vt 0 0.757576
vt 0.833333 0
vt 0.833333 0.757576
vt 0.666667 0.757576
vt 1 0
vt 1 0.757576
vt 0.833333 0.757576
vt 0.047551 0
vt 0.0454545 0.5
vt 0.095102 0
vt 0.0909091 0.5
vt 0.142653 0
vt 0.136364 0.5
vt 0.190204 0
vt 0.181818 0.5
vt 0.230068 0
vt 0.227273 0.5
vt 0.269932 0
vt 0.272727 0.5
vt 0.317483 0
vt 0.318182 0.5
vt 0.365034 0
vt 0.363636 0.5
vt 0.412585 0
vt 0.409091 0.5
vt 0.460136 0
vt 0.454545 0.5
vt 0.507687 0
vt 0.5 0.5
vt 0.555238 0
vt 0.545455 0.5
vt 0.595102 0
vt 0.590909 0.5
vt 0.634966 0
vt 0.636364 0.5
vt 0.682517 0
vt 0.681818 0.5
vt 0.730068 0
vt 0.727273 0.5
vt 0.777619 0
vt 0.772727 0.5
vt 0.82517 0
vt 0.818182 0.5
vt 0.865034 0
vt 0.863636 0.5
vt 0.912585 0
vt 0.909091 0.5
vt 0.960136 0
vt 0.954545 0.5
vt 1 0
vt 0.0519429 0.833333
vt 0.103886 0.833333
vt 0.155829 0.833333
vt 0.207771 0.833333
vt 0.235924 0.833333
vt 0.264076 0.833333
vt 0.316019 0.833333
vt 0.264076 0.833333
vt 0.367962 0.833333
vt 0.419905 0.833333
vt 0 0.833333
vt 0.735924 0.833333
vt 0.683981 0.833333
vt 0.787867 0.833333
vt 0.971848 0.833333
vt 0.919905 0.833333
vt 1 0.833333
vt 0.471848 0.833333
vt 0.52379 0.833333
vt 0.575733 0.833333
vt 0.603886 0.833333
vt 0.632038 0.833333
vt 0.632038 0.833333
vt 0.83981 0.833333
vt 0.867962 0.833333
vt 0.867962 0.833333
vt 0.919905 0.833333
vt 0.966066 0.474305
vt 0.774007 0.474305
vt 0.774007 0.350463
vt 0.966066 0.350463
vt 1 0.412384
vt 0.485919 0.649537
vt 0.677978 0.649537
vt 0.38989 0.824768
vt 0.197831 0.824768
vt 0 0.938079
vt 0.0960295 0.762847
vt 0.101801 1
vt 0.0339337 1
vt 0.225993 0.175232
vt 0.0960295 0.412384
vt 0 0.237153
vt 0.0339337 0.175232
vt 0.322022 0
vt 0.38989 0
vt 0.485919 0.175232
vt 0 0.587616
vt 0.677978 0.175232
vt 0.516117 0.5
vt 0.565968 0.5
vt 0.590873 1
vt 0.535686 1
vt 0.52169 0.2
vt 0.573059 0.2
vt 0.5997 0.5
vt 0.610374 1
vt 0.60274 0.2
vt 0.573059 0.2
vt 0.370125 1
vt 0.366567 0.5
vt 0.416417 0.5
vt 0.425312 1
vt 0.466267 0.5
vt 0.480499 1
vt 0.47032 0.2
vt 0.52169 0.2
vt 0.41895 0.2
vt 0.36758 0.2
vt 0.41895 0.2
vt 0.47032 0.2
vt 0.0997004 0.5
vt 0.0498502 0.5
vt 0.0513699 0.2
vt 0.10274 0.2
vt 0.110374 1
vt 0.055187 1
vt 0.266866 0.5
vt 0.316717 0.5
vt 0.314938 1
vt 0.259751 1
vt 0.31621 0.2
vt 0.26484 0.2
vt 0.31621 0.2
vt 0.36758 0.2
vt 0.149551 0.5
vt 0.165561 1
vt 0.15411 0.2
vt 0 0.2
vt 0.0513699 0.2
vt 0 1
vt 0.832834 0.5
vt 0.8379 0.2
vt 0.86758 0.2
vt 0.866567 0.5
vt 0.870125 1
vt 0.850623 1
vt 0.966267 0.5
vt 0.97032 0.2
vt 1 0.2
vt 0.980499 1
vt 1 1
vt 0.795436 1
vt 0.782984 0.5
vt 0.916417 0.5
vt 0.925312 1
vt 0.91895 0.2
vt 0.86758 0.2
vt 0.91895 0.2
vt 0.97032 0.2
vt 0.78653 0.2
vt 0.8379 0.2
vt 0.733134 0.5
vt 0.73516 0.2
vt 0.740249 1
vt 0.633433 0.5
vt 0.60274 0.2
vt 0.63242 0.2
vt 0.629875 1
vt 0.683283 0.5
vt 0.685062 1
vt 0.68379 0.2
vt 0.63242 0.2
vt 0.68379 0.2
vt 0.73516 0.2
vt 0.20548 0.2
vt 0.199401 0.5
vt 0.15411 0.2
vt 0.220748 1
vt 0.233134 0.5
vt 0.240249 1
vt 0.23516 0.2
vt 0.26484 0.2
vt 0.23516 0.2
vt 0.20548 0.2
vt 0.00920599 0.910455
vt 0.057803 1
vt 0.0762149 1
vt 0.018412 0.893492
vt 0.0670089 0.983037
vt 0.154997 1
vt 0.164203 0.983037
vt 0.521861 0.9
vt 0.507687 0.5
vt 0.555238 0.5
vt 0.573278 0.9
vt 0.516117 0
vt 0.565968 0
vt 0.5997 0
vt 0.595102 0.5
vt 0.249624 0.82564
vt 0.25883 0.842603
vt 0.429672 0.842603
vt 0.438878 0.82564
vt 0.173409 1
vt 0.460136 0.5
vt 0.466267 0
vt 0.470444 0.9
vt 0.505887 0.668243
vt 0.515092 0.685206
vt 0.685934 0.685206
vt 0.69514 0.668243
vt 0.420466 0.82564
vt 0.416417 0
vt 0.412585 0.5
vt 0.365034 0.5
vt 0.366567 0
vt 0.470444 0.9
vt 0.419028 0.9
vt 0.496681 0.157397
vt 0.505887 0.17436
vt 0.69514 0.17436
vt 0.685934 0.157397
vt 0.0498502 0
vt 0.0997004 0
vt 0.095102 0.5
vt 0.047551 0.5
vt 0.367611 0.9
vt 0.367611 0.9
vt 0.316194 0.9
vt 0.317483 0.5
vt 0.264778 0.9
vt 0.269932 0.5
vt 0.316194 0.9
vt 0.762149 0.510846
vt 0.771355 0.527809
vt 0.923785 0.527809
vt 0.932991 0.510846
vt 0.676728 0.668243
vt 0.316717 0
vt 0.266866 0
vt 0.142653 0.5
vt 0.15425 0.9
vt 0.102833 0.9
vt 0.149551 0
vt 0.429672 0
vt 0.41126 0
vt 0.496681 0.157397
vt 0.515092 0.157397
vt 0.0514166 0.9
vt 0 0.9
vt 0.0514166 0.9
vt 0.102833 0.9
vt 0 0.263905
vt 0.00920599 0.280868
vt 0.0762149 0.157397
vt 0.057803 0.157397
vt 0.832834 0
vt 0.866567 0
vt 0.865034 0.5
vt 0.82517 0.5
vt 0.867611 0.9
vt 0.838055 0.9
vt 0.314066 0
vt 0.30486 0.016963
vt 0.420466 0.016963
vt 0.960136 0.5
vt 0.966267 0
vt 1 0.5
vt 1 0.9
vt 0.970444 0.9
vt 0.919028 0.9
vt 0.912585 0.5
vt 0.919028 0.9
vt 0.867611 0.9
vt 0.786639 0.9
vt 0.777619 0.5
vt 0.0670089 0.17436
vt 0.219439 0.17436
vt 0.228645 0.157397
vt 0.219439 0.17436
vt 0.237851 0.17436
vt 0.323272 0.016963
vt 0.916417 0
vt 0.018412 0.263905
vt 0.0854209 0.421302
vt 0.0946269 0.404339
vt 0.782984 0
vt 0 0.578698
vt 0.00920599 0.595661
vt 0.103833 0.421302
vt 0.0946269 0.404339
vt 0.730068 0.5
vt 0.733134 0
vt 0.786639 0.9
vt 0.735222 0.9
vt 0.633433 0
vt 0.634966 0.5
vt 0.0854209 0.736095
vt 0.103833 0.736095
vt 0.018412 0.578698
vt 0 0.893492
vt 0.683283 0
vt 0.682517 0.5
vt 0.602833 0.9
vt 0.632389 0.9
vt 0.632389 0.9
vt 0.683806 0.9
vt 0.735222 0.9
vt 0.771355 0.314794
vt 0.762149 0.331757
vt 0.951403 0.331757
vt 0.942197 0.314794
vt 0.676728 0.17436
vt 0.199401 0
vt 0.190204 0.5
vt 0.205666 0.9
vt 0.15425 0.9
vt 1 0.421302
vt 0.990794 0.404339
vt 0.942197 0.527809
vt 0.230068 0.5
vt 0.233134 0
vt 0.264778 0.9
vt 0.235222 0.9
vt 0.235222 0.9
vt 0.205666 0.9
vt 0.932991 0.331757
vt 0.981588 0.421302
vt 0.932137 0.29955
vt 0.770237 0.29955
vt 0.770237 0.550675
vt 0.932137 0.550675
vt 1 0.425113
vt 0.527389 0.70045
vt 0.691487 0.153843
vt 0.31511 0.850225
vt 0.446439 0.850225
vt 0.689288 0.70045
vt 0.527389 0.149775
vt 0.446439 0
vt 0.310712 0
vt 0.229763 0.149775
vt 0.574054 0.371119
vt 0.689288 0.149775
vt 0.0678634 0.149775
vt 0 0.275338
vt 0.0517676 0.371119
vt 0.517889 0.475038
vt 0.461724 0.371119
vt 0.0809496 0.425113
vt 0.110132 0.371119
vt 0.0809496 0.724662
vt 0.349394 0.371119
vt 0.110132 0.371119
vt 0 0.574887
vt 0.0386814 0.946007
vt 0 0.874437
vt 0.20359 1
vt 0.28454 0.850225
vt 0.237063 0.578956
vt 0.0678634 1
vt 0.461724 0.578956
vt 0.293228 0.475038
vt 0.349394 0.578956

vn 0 -1 0
vn -0.866025 0 -0.5
vn -0.866025 0 -0.5
vn -0.866025 0 0.5
vn -0.866025 0 0.5
vn 0 0 1
vn 0 0 -1
vn 0.866025 0 0.5
vn 0.866025 0 0.5
vn 0.866025 0 -0.5
vn 0.866025 0 -0.5
vn 0.866025 0 0.5
vn 0.866025 0 0.5
vn 0.866025 0 0.5
vn 0.866025 0 0.5
vn 0.866025 0 0.5
vn 0.866025 0 -0.5
vn 0.866025 0 -0.5
vn 0.866025 0 -0.5
vn 0.866025 0 -0.5
vn 0.866025 0 -0.5
vn 0.866025 0 -0.5
vn 0.866025 0 -0.5
vn -0.866025 0 -0.5
vn -0.866025 0 -0.5
vn -0.866025 0 0.5
vn -0.866025 0 0.5
vn -0.866025 0 -0.5
vn -0.866025 0 -0.5
vn -0.866025 0 0.5
vn -0.866025 0 0.5
vn -0.866025 0 -0.5
vn -0.866025 0 -0.5
vn -0.866025 0 0.5
vn -0.866025 0 0.5
vn -0.866025 0 0.5
vn 0.866025 0 0.5
vn 0.866025 0 0.5
vn 0.866025 0 -0.5
vn 0.866025 0 -0.5
vn -0.866025 0 -0.5
vn 0.866025 0 -0.5
vn -0.866025 0 -0.5
vn -0.866025 0 0.5
vn -0.866025 0 -0.5
vn -0.866025 0 0.5
vn -0.866025 0 0.5
vn 0 1 0
vn 0.866025 0 -0.5
vn 0.866025 0 -0.5
vn 0.866025 0 0.5
vn 0.866025 0 0.5
vn 0.866025 0 0.5
vn -0.866025 0 0.5
vn -0.866025 0 0.5
vn -0.866025 0 0.5
vn -0.866025 0 0.5
vn -0.866025 0 -0.5
vn -0.866025 0 -0.5
vn -0.866025 0 -0.5
vn 0.866025 0 0.5
vn 0.866025 0 0.5
vn 0.866025 0 -0.5
vn 0.866025 0 -0.5
vn 0.866025 0 -0.5
vn 0.866025 0 0.5
vn -0.866025 0 0.5
vn -0.866025 0 -0.5
vn 0.866025 0 -0.5
vn 0.866025 0 0.5

f 1/1/1 2/2/1 3/3/1 4/4/1 5/5/1 6/6/1
f 4/7/2 7/8/3 8/9/3 5/10/2
f 4/7/4 3/11/4 9/12/5 10/8/5
f 3/11/6 2/13/6 11/14/6 12/12/6
f 6/15/7 5/10/7 13/16/7 14/17/7
f 1/18/8 15/19/9 16/20/9 2/13/8
f 1/18/10 6/21/10 17/22/11 18/23/11
f 19/15/12 20/24/12 21/25/13 22/4/13
f 20/24/6 23/26/6 24/27/6 21/25/6
f 23/26/14 25/28/14 26/29/14 24/27/14
f 25/28/6 27/30/6 28/31/6 26/29/6
f 27/30/15 29/32/15 30/33/16 28/31/16
f 29/32/17 31/34/17 32/35/18 30/33/18
f 31/34/7 33/36/7 34/37/7 32/35/7
f 33/36/19 35/38/19 36/39/20 34/37/20
f 35/38/7 37/40/7 38/41/7 36/39/7
f 37/40/21 39/42/21 40/43/22 38/41/22
f 39/42/7 41/44/7 42/45/7 40/43/7
f 41/44/19 43/46/19 44/47/23 42/45/23
f 43/46/7 45/48/7 46/49/7 44/47/7
f 45/48/24 47/50/24 48/51/25 46/49/25
f 47/50/26 49/52/26 50/53/27 48/51/27
f 49/52/28 51/54/28 52/55/29 50/53/29
f 51/54/30 53/56/30 54/57/31 52/55/31
f 53/56/32 55/58/32 56/59/33 54/57/33
f 55/58/34 57/60/34 58/61/35 56/59/35
f 57/60/6 59/62/6 60/63/6 58/61/6
f 59/62/36 61/64/36 62/65/36 60/63/36
f 61/64/6 19/66/6 22/1/6 62/65/6
f 63/67/6 21/25/6 24/27/6 64/68/6
f 64/68/37 24/27/14 26/29/14 65/69/37
f 65/69/6 26/29/6 28/31/6 66/70/6
f 67/71/38 66/70/38 28/31/16 30/33/16
f 68/72/39 69/71/39 30/33/18 32/35/18
f 34/37/7 70/73/7 71/74/7 32/35/7
f 70/73/40 34/37/20 36/39/20 72/75/40
f 72/75/7 36/39/7 38/41/7 73/76/7
f 74/77/13 22/4/13 21/25/13 63/67/13
f 52/55/29 75/78/41 76/79/41 50/53/29
f 52/55/31 54/57/31 77/80/36 78/78/36
f 60/63/36 62/65/36 79/81/36 80/82/36
f 79/81/6 62/65/6 22/1/6 74/83/6
f 40/43/22 81/84/42 73/76/42 38/41/22
f 40/43/7 42/45/7 82/85/7 81/84/7
f 42/45/23 44/47/23 83/86/20 82/85/20
f 83/86/7 44/47/7 46/49/7 84/87/7
f 84/87/43 46/49/25 48/51/25 85/88/43
f 48/51/27 50/53/27 76/79/44 85/89/44
f 56/59/33 86/90/45 87/80/45 54/57/33
f 88/91/46 86/90/47 56/59/35 58/61/35
f 89/92/6 58/61/6 60/63/6 90/93/6
f 91/94/48 92/95/48 93/96/48 94/97/48 95/98/48
f 96/99/48 93/96/48 92/95/48 97/100/48
f 96/99/48 98/101/48 99/102/48
f 100/103/48 101/104/48 99/102/48 102/105/48 103/106/48
f 104/107/48 105/108/48 106/109/48 107/110/48
f 104/107/48 108/111/48 109/112/48 110/113/48
f 96/99/48 99/102/48 101/104/48 111/114/48 104/107/48 112/115/48 93/96/48
f 113/116/49 114/117/49 102/118/19 99/119/19
f 113/116/49 115/120/20 116/121/20 114/117/49
f 117/122/7 103/123/7 102/118/7 114/117/7
f 118/124/7 117/122/7 114/117/7 119/125/7
f 97/126/7 120/127/7 121/128/7 96/129/7
f 121/128/50 122/130/50 98/131/42 96/129/42
f 122/130/7 113/116/7 99/119/7 98/131/7
f 122/130/7 123/132/7 124/133/7 113/116/7
f 125/134/7 121/128/7 120/127/7 126/135/7
f 121/128/50 127/136/50 128/137/50 122/130/50
f 129/138/6 130/139/6 131/140/6 132/141/6
f 130/139/6 129/138/6 112/142/6 110/143/6
f 133/144/7 134/145/7 92/146/7 91/147/7
f 92/146/23 134/145/19 120/127/19 97/126/23
f 135/148/7 134/145/7 133/144/7 136/149/7
f 134/145/19 137/150/20 138/151/20 120/127/19
f 139/152/51 93/153/13 112/142/13 129/138/51
f 140/154/52 139/152/51 129/138/51 132/141/52
f 141/4/14 142/155/53 143/156/53 130/139/14
f 109/157/13 141/4/14 130/139/14 110/143/13
f 144/158/54 145/159/55 146/160/55 147/161/54
f 144/158/54 147/161/54 107/162/56 106/163/56
f 148/164/6 149/165/6 150/166/6 141/1/6
f 108/167/6 148/164/6 141/1/6 109/168/6
f 105/169/32 151/170/33 144/158/33 106/163/32
f 152/171/6 104/172/6 107/162/6 147/161/6
f 104/172/36 152/171/35 148/164/35 108/167/36
f 153/173/6 152/171/6 147/161/6 154/174/6
f 152/171/35 155/175/57 156/176/57 148/164/35
f 151/170/33 157/177/45 158/178/45 144/158/33
f 159/179/31 160/180/36 157/177/36 151/170/31
f 159/179/31 151/170/31 105/169/30 111/181/30
f 161/182/58 117/122/58 162/183/59 163/184/59
f 161/182/58 100/185/60 103/123/60 117/122/58
f 100/185/26 161/182/27 164/186/27 101/187/26
f 164/186/29 159/179/29 111/181/28 101/187/28
f 165/188/44 164/186/27 161/182/27 163/189/44
f 164/186/29 165/190/41 166/191/41 159/179/29
f 167/192/6 168/193/6 139/152/6 169/194/6
f 168/193/6 94/195/6 93/153/6 139/152/6
f 168/193/61 170/196/61 95/197/62 94/195/62
f 170/196/63 133/144/63 91/147/64 95/197/64
f 170/196/63 171/198/65 172/199/65 133/144/63
f 173/200/66 170/196/61 168/193/61 174/201/66
f 175/202/1 176/203/1 177/204/1 178/205/1
f 179/206/1 177/204/1 180/207/1 181/208/1
f 182/209/19 183/210/19 184/211/19 185/212/19
f 186/213/49 187/214/49 184/211/19 183/210/19
f 184/211/7 187/214/7 176/215/7 188/216/7
f 189/217/1 186/218/1 190/219/1 191/220/1
f 187/221/1 186/218/1 189/217/1 180/207/1
f 192/222/7 190/223/7 186/213/7 183/210/7
f 192/222/7 183/210/7 182/209/7 193/224/7
f 194/225/1 195/226/1 196/227/1 197/228/1
f 191/220/1 195/226/1 194/225/1 198/229/1
f 195/230/7 199/231/7 200/232/7 196/233/7
f 199/231/21 195/230/50 190/223/50 192/222/21
f 199/231/21 192/222/21 201/234/50 202/235/50
f 203/236/1 204/237/1 205/238/1 206/239/1
f 207/240/6 206/241/6 208/242/6 209/243/6
f 210/244/7 200/232/7 199/231/7 202/235/7
f 210/245/20 211/246/20 212/247/19 200/232/19
f 213/248/7 214/249/7 212/247/7 215/250/7
f 216/251/1 217/252/1 218/253/1 219/254/1
f 197/228/1 217/252/1 216/251/1 220/255/1
f 217/256/7 212/247/7 214/249/7 221/257/7
f 212/247/19 217/256/19 196/233/19 200/232/19
f 222/258/14 140/259/14 223/260/14 208/242/14
f 224/261/51 222/258/14 208/242/14 206/241/51
f 225/262/1 226/263/1 203/264/1 207/265/1
f 227/4/12 225/15/14 207/240/14 209/243/12
f 228/266/12 142/267/12 227/4/12 209/243/12
f 229/268/6 209/243/6 208/242/6 230/269/6
f 231/270/1 232/271/1 233/272/1 234/273/1
f 231/274/54 234/275/54 235/276/34 236/277/34
f 236/277/34 235/276/34 237/278/67 238/279/67
f 226/263/1 239/280/1 240/281/1 241/282/1
f 242/283/6 239/284/6 225/21/6 227/285/6
f 242/283/6 227/285/6 243/286/6 244/287/6
f 245/288/36 246/289/36 242/283/36 247/287/36
f 246/289/6 248/290/6 249/291/6 235/276/6
f 250/292/32 251/293/32 236/277/32 238/279/32
f 233/272/1 252/294/1 253/295/1 254/296/1
f 253/297/1 255/298/1 256/299/1 240/281/1
f 254/300/6 246/289/6 235/276/6 234/275/6
f 246/289/36 254/300/35 239/284/35 242/283/36
f 257/301/1 232/271/1 258/302/1 259/303/1
f 251/293/32 258/304/33 231/274/33 236/277/32
f 260/305/1 261/306/1 262/307/1 259/308/1
f 263/309/30 260/310/31 258/304/31 251/293/30
f 263/309/30 251/293/30 264/311/30 160/312/30
f 265/313/58 266/314/24 188/216/24 176/215/58
f 267/315/1 268/316/1 269/317/1 261/306/1
f 175/202/1 268/316/1 267/315/1 265/318/1
f 267/319/27 270/320/26 266/314/26 265/313/27
f 270/320/28 267/319/29 260/310/29 263/309/28
f 271/321/7 185/212/7 184/211/7 188/216/7
f 266/314/24 272/322/68 271/321/68 188/216/24
f 273/323/26 266/314/26 270/320/26 274/324/26
f 270/320/28 263/309/28 275/325/28 276/324/28
f 224/326/1 277/327/1 278/328/1 279/329/1
f 280/330/1 277/327/1 224/326/1 205/238/1
f 279/331/6 281/332/6 222/258/6 224/261/6
f 281/332/6 282/333/6 283/334/6 222/258/6
f 284/335/1 285/336/1 218/253/1 221/337/1
f 286/338/17 284/339/63 221/257/63 214/249/17
f 286/338/17 214/249/17 287/340/69 288/341/69
f 281/332/15 286/338/15 288/342/70 289/343/70
f 278/328/1 290/344/1 291/345/1 285/336/1
f 284/339/61 286/338/15 281/332/15 279/331/61
f 27/346/1 25/347/1 33/348/1 31/349/1 29/350/1
f 37/351/1 292/352/1 293/353/1 39/354/1
f 25/347/1 292/352/1 37/351/1 35/355/1 33/348/1
f 20/356/1 19/357/1 61/358/1 59/359/1
f 294/360/1 292/352/1 23/361/1 57/362/1 55/363/1 295/364/1
f 296/365/1 294/360/1 297/366/1
f 295/364/1 53/367/1 298/368/1
f 49/369/1 299/370/1 298/371/1 51/372/1
f 300/373/1 299/370/1 49/369/1 47/374/1
f 43/375/1 41/376/1 301/377/1 300/373/1 45/378/1
f 41/376/1 293/353/1 302/379/1 301/377/1
f 303/380/1 301/377/1 304/381/1