v -0.5 1 -2.94449 1 0 0
v -0.8 1 -2.77128 1 0 0
v -0.5 1 -2.59808 1 0 0
v -0.8 1 -2.77128 0 0 1
v -0.5 1 -2.94449 0 0 1
v -0.5 0 -2.94449 0 0 1
v -0.8 0 -2.77128 0 0 1
v 2.5 1 1.21244 1 0 0
v 2.8 1 1.03923 1 0 0
v 2.5 1 0.866025 1 0 0
v 2.8 1 1.03923 0 0 1
v 2.5 1 1.21244 0 0 1
v 2.5 0 1.21244 0 0 1
v 2.8 0 1.03923 0 0 1
v -0.8 1 1.03923 1 0 0
v -0.5 1 1.21244 1 0 0
v -0.5 1 0.866025 1 0 0
v -0.5 1 1.21244 0 0 1
v -0.8 1 1.03923 0 0 1
v -0.8 0 1.03923 0 0 1
v -0.5 0 1.21244 0 0 1
v 1.3 1 -1.55885 1 0 0
v 1.3 1 -1.90526 1 0 0
v 1 1 -1.73205 1 0 0
v 1.3 1 -1.90526 0 0 1
v 1.3 1 -1.55885 0 0 1
v 1.3 0 -1.55885 0 0 1
v 1.3 0 -1.90526 0 0 1
v -2.3 1 -1.90526 1 0 0
v -2.3 1 -1.55885 1 0 0
v -2 1 -1.73205 1 0 0
v -2.3 1 -1.55885 0 0 1
v -2.3 1 -1.90526 0 0 1
v -2.3 0 -1.90526 0 0 1
v -2.3 0 -1.55885 0 0 1
v -2 1 -2.07846 1 0 0
v -2 1 -2.07846 0 0 1
v -2 0 -2.07846 0 0 1
v 1 1 2.07846 1 0 0
v 1.3 1 1.90526 1 0 0
v 1 1 1.73205 1 0 0
v 1.3 1 1.90526 0 0 1
v 1 1 2.07846 0 0 1
v 1 0 2.07846 0 0 1
v 1.3 0 1.90526 0 0 1
v 1 1 -2.07846 1 0 0
v 1 1 -2.07846 0 0 1
v 1 0 -2.07846 0 0 1
v 1 1 0 0 1 0
v 2.5 1 0.866025 0 1 0
v 2.5 1 0.519615 0 1 0
v 1.3 1 -0.173205 0 1 0
v 2.5 0 0.519615 0 0 1
v 1.3 0 -0.173205 0 0 1
v 1.3 1 -0.173205 0 0 1
v 2.5 1 0.519615 0 0 1
v 2.8 1 0.69282 1 0 0
v 2.5 1 0.519615 1 0 0
v 2.8 1 0.69282 0 0 1
v 2.8 0 0.69282 0 0 1
v 0.7 1 1.90526 1 0 0
v 0.7 1 1.90526 0 0 1
v 0.7 0 1.90526 0 0 1
v 1 1 -1.73205 0 1 0
v 1.3 1 -1.55885 0 1 0
v -2.3 1 0.173205 1 0 0
v -2 1 0.34641 1 0 0
v -2 1 0 1 0 0
v -2 1 0.34641 0 0 1
v -2.3 1 0.173205 0 0 1
v -2.3 0 0.173205 0 0 1
v -2 0 0.34641 0 0 1
v 1 1 1.73205 0 1 0
v -0.5 1 0.866025 0 1 0
v -0.5 1 1.21244 0 1 0
v 0.7 1 1.90526 0 1 0
v -2 1 -1.73205 0 1 0
v -0.5 1 -2.59808 0 1 0
v -0.8 1 -2.77128 0 1 0
v -2 1 -2.07846 0 1 0
v -2.3 1 -0.173205 1 0 0
v -2.3 1 -0.173205 0 0 1
v -2.3 0 -0.173205 0 0 1
v -0.2 1 -2.77128 1 0 0
v -0.2 1 -2.77128 0 0 1
v -0.2 0 -2.77128 0 0 1
v 1 1 -2.07846 0 1 0
v -0.2 1 -2.77128 0 1 0
v -2 1 0 0 1 0
v -2 1 0.34641 0 1 0
v -0.8 1 1.03923 0 1 0
v 1.3 1 1.90526 0 1 0
v 2.5 1 1.21244 0 1 0
v -2.3 1 -1.55885 0 1 0
v -2.3 1 -0.173205 0 1 0

vt 1 1
vt 0 0.5
vt 1 0
vt 0 0
vt 0 1
vt 1 0.5
vt 0 0.5
vt 0 0.5
vt 1 0.5
vt 0 0.5
vt 1 0.5
vt 0 0.833333
vt 1 0.333333
vt 0.2 1
vt 1 0.1
vt 1 0.9
vt 0 0.5
vt 1 0.166667
vt 0 0.666667
vt 0.8 0
vt 1 0.833333
vt 0.8 1
vt 0 0.333333
vt 1 0.5
vt 1 0.5
vt 0 0.5
vt 0 0.833333
vt 0 0.666667
vt 0.8 0
vt 0 0.166667
vt 0.2 0
vt 1 0.666667
vt 0 0.9
vt 0 0.1

f 1/1 2/2 3/3
f 4/4 5/3 6/1 7/5
f 8/4 9/6 10/5
f 11/3 12/4 13/5 14/1
f 15/7 16/3 17/1
f 18/3 19/4 20/5 21/1
f 22/3 23/1 24/8
f 25/1 26/3 27/4 28/5
f 29/5 30/4 31/9
f 32/3 33/1 34/5 35/4
f 36/1 29/10 31/3
f 33/4 37/3 38/1 34/5
f 39/4 40/9 41/5
f 42/3 43/4 44/5 45/1
f 23/11 46/5 24/4
f 47/4 25/3 28/1 48/5
f 49/12 50/3 51/13 52/14
f 53/1 54/5 55/4 56/3
f 57/6 58/5 10/4
f 56/4 59/3 60/1 53/5
f 61/8 39/3 41/1
f 43/3 62/4 63/5 44/1
f 64/5 49/4 52/15 65/16
f 54/4 27/5 26/1 55/3
f 66/17 67/3 68/1
f 69/3 70/4 71/5 72/1
f 73/18 74/5 75/19 76/20
f 21/5 63/1 62/3 18/4
f 77/4 78/21 79/22 80/23
f 7/1 38/5 37/4 4/3
f 81/5 66/4 68/24
f 70/3 82/1 83/5 71/4
f 84/25 1/5 3/4
f 5/4 85/3 86/1 6/5
f 9/3 57/1 10/26
f 59/1 11/3 14/4 60/5
f 78/27 64/3 87/13 88/14
f 48/1 86/5 85/4 47/3
f 74/18 89/5 90/28 91/29
f 72/5 20/1 19/3 69/4
f 50/1 73/30 92/31 93/32
f 45/5 13/1 12/3 42/4
f 89/3 77/1 94/33 95/34
f 35/5 83/4 82/3 32/1