v 0.0714286 0 -0.123718 0.396078 0.262745 0.129412
v 0.142857 0 0 0.396078 0.262745 0.129412
v 0.0714286 0 0.123718 0.396078 0.262745 0.129412
v -0.0714286 0 0.123718 0.396078 0.262745 0.129412
v -0.142857 0 0 0.396078 0.262745 0.129412
v -0.0714286 0 -0.123718 0.396078 0.262745 0.129412
v 0.0991185 0.25 0 0.60404 0.672727 0.741414
v 0.0495592 0.25 -0.0858391 0.60404 0.672727 0.741414
v -0.0495592 0.25 -0.0858391 0.60404 0.672727 0.741414
v -0.0991185 0.25 0 0.60404 0.672727 0.741414
v -0.0495592 0.25 0.0858391 0.60404 0.672727 0.741414
v -0.0991185 0.25 0 0.60404 0.672727 0.741414
v 0.0495592 0.25 0.0858391 0.60404 0.672727 0.741414
v 0.0495592 0.25 0.0858391 0.60404 0.672727 0.741414
v 0.0991185 0.25 0 0.60404 0.672727 0.741414
v -0.0495592 0.25 -0.0858391 0.60404 0.672727 0.741414
v 0.0495592 0.25 -0.0858391 0.60404 0.672727 0.741414
v 0.476906 0.25 0.123718 0.903529 0.793333 0.746667
v 0.417024 0.25 0.02 0.903529 0.793333 0.746667
v 0.428571 0.325 0 0.903529 0.793333 0.746667
v 0.5 0.325 0.123718 0.903529 0.793333 0.746667
v 0.274167 0.25 0.02 0.903529 0.793333 0.746667
v 0.285714 0.325 0 0.903529 0.793333 0.746667
v 0.191192 0.25 -0.123718 0.903529 0.793333 0.746667
v 0.214286 0.325 -0.123718 0.903529 0.793333 0.746667
v 0.26262 0.25 -0.247436 0.903529 0.793333 0.746667
v 0.285714 0.325 -0.247436 0.903529 0.793333 0.746667
v 0.202739 0.25 -0.351154 0.903529 0.793333 0.746667
v 0.214286 0.325 -0.371154 0.903529 0.793333 0.746667
v 0.0598816 0.25 -0.351154 0.903529 0.793333 0.746667
v 0.0714286 0.325 -0.371154 0.903529 0.793333 0.746667
v -0.011547 0.25 -0.474872 0.903529 0.793333 0.746667
v 0 0.325 -0.494872 0.903529 0.793333 0.746667
v -0.13131 0.25 -0.474872 0.903529 0.793333 0.746667
v -0.142857 0.325 -0.494872 0.903529 0.793333 0.746667
v -0.191192 0.25 -0.371154 0.903529 0.793333 0.746667
v -0.214286 0.325 -0.371154 0.903529 0.793333 0.746667
v -0.119763 0.25 -0.247436 0.903529 0.793333 0.746667
v -0.142857 0.325 -0.247436 0.903529 0.793333 0.746667
v -0.202739 0.25 -0.103718 0.903529 0.793333 0.746667
v -0.345596 0.25 -0.103718 0.903529 0.793333 0.746667
v -0.357143 0.325 -0.123718 0.903529 0.793333 0.746667
v -0.214286 0.325 -0.123718 0.903529 0.793333 0.746667
v -0.405477 0.25 0 0.903529 0.793333 0.746667
v -0.428571 0.325 0 0.903529 0.793333 0.746667
v -0.334049 0.25 0.123718 0.903529 0.793333 0.746667
v -0.357143 0.325 0.123718 0.903529 0.793333 0.746667
v -0.405477 0.25 0.247436 0.903529 0.793333 0.746667
v -0.428571 0.325 0.247436 0.903529 0.793333 0.746667
v -0.345596 0.25 0.351154 0.903529 0.793333 0.746667
v -0.357143 0.325 0.371154 0.903529 0.793333 0.746667
v -0.225833 0.25 0.351154 0.903529 0.793333 0.746667
v -0.214286 0.325 0.371154 0.903529 0.793333 0.746667
v -0.154404 0.25 0.227436 0.903529 0.793333 0.746667
v -0.142857 0.325 0.247436 0.903529 0.793333 0.746667
v 0.011547 0.25 0.227436 0.903529 0.793333 0.746667
v 0 0.325 0.247436 0.903529 0.793333 0.746667
v 0.0829756 0.25 0.351154 0.903529 0.793333 0.746667
v 0.0714286 0.325 0.371154 0.903529 0.793333 0.746667
v 0.202739 0.25 0.351154 0.903529 0.793333 0.746667
v 0.214286 0.325 0.371154 0.903529 0.793333 0.746667
v 0.274167 0.25 0.227436 0.903529 0.793333 0.746667
v 0.285714 0.325 0.247436 0.903529 0.793333 0.746667
v 0.417024 0.25 0.227436 0.903529 0.793333 0.746667
v 0.428571 0.325 0.247436 0.903529 0.793333 0.746667
v -0.173649 0.475 0.194102 0.718431 0.662353 0.655686
v -0.245078 0.475 0.31782 0.718431 0.662353 0.655686
v 0.22413 0.475 -0.247436 0.718431 0.662353 0.655686
v 0.152702 0.475 -0.123718 0.718431 0.662353 0.655686
v 0.397779 0.475 0.0533333 0.718431 0.662353 0.655686
v 0.254922 0.475 0.0533333 0.718431 0.662353 0.655686
v 0.254922 0.475 0.0533333 0.718431 0.662353 0.655686
v 0.397779 0.475 0.0533333 0.718431 0.662353 0.655686
v 0.438416 0.475 0.123718 0.718431 0.662353 0.655686
v 0.030792 0.475 0.194102 0.718431 0.662353 0.655686
v -0.173649 0.475 0.194102 0.718431 0.662353 0.655686
v 0.102221 0.475 0.31782 0.718431 0.662353 0.655686
v 0.030792 0.475 0.194102 0.718431 0.662353 0.655686
v 0.183494 0.475 0.31782 0.718431 0.662353 0.655686
v 0.102221 0.475 0.31782 0.718431 0.662353 0.655686
v 0.254922 0.475 0.194102 0.718431 0.662353 0.655686
v 0.183494 0.475 0.31782 0.718431 0.662353 0.655686
v 0.254922 0.475 0.194102 0.718431 0.662353 0.655686
v 0.397779 0.475 0.194102 0.718431 0.662353 0.655686
v 0.397779 0.475 0.194102 0.718431 0.662353 0.655686
v -0.183494 0.475 -0.0703846 0.718431 0.662353 0.655686
v -0.326351 0.475 -0.0703846 0.718431 0.662353 0.655686
v -0.326351 0.475 -0.0703846 0.718431 0.662353 0.655686
v -0.366987 0.475 0 0.718431 0.662353 0.655686
v -0.366987 0.475 0 0.718431 0.662353 0.655686
v -0.295559 0.475 0.123718 0.718431 0.662353 0.655686
v -0.295559 0.475 0.123718 0.718431 0.662353 0.655686
v -0.366987 0.475 0.247436 0.718431 0.662353 0.655686
v -0.366987 0.475 0.247436 0.718431 0.662353 0.655686
v -0.326351 0.475 0.31782 0.718431 0.662353 0.655686
v -0.326351 0.475 0.31782 0.718431 0.662353 0.655686
v 0.183494 0.475 -0.31782 0.718431 0.662353 0.655686
v 0.22413 0.475 -0.247436 0.718431 0.662353 0.655686
v 0.0406366 0.475 -0.31782 0.718431 0.662353 0.655686
v 0.183494 0.475 -0.31782 0.718431 0.662353 0.655686
v -0.030792 0.475 -0.441538 0.718431 0.662353 0.655686
v -0.030792 0.475 -0.441538 0.718431 0.662353 0.655686
v -0.112065 0.475 -0.441538 0.718431 0.662353 0.655686
v -0.112065 0.475 -0.441538 0.718431 0.662353 0.655686
v -0.152702 0.475 -0.371154 0.718431 0.662353 0.655686
v -0.0812731 0.475 -0.247436 0.718431 0.662353 0.655686
v 0.0252405 1 -0.291154 0.0705882 0.203922 0.337255
v 0.12191 1 -0.123718 0.0705882 0.203922 0.337255
v 0.193338 1 -0.247436 0.0705882 0.203922 0.337255
v 0.168098 1 -0.291154 0.0705882 0.203922 0.337255
v -0.12191 1 -0.371154 0.0705882 0.203922 0.337255
v -0.0504811 1 -0.247436 0.0705882 0.203922 0.337255
v -0.046188 1 -0.414872 0.0705882 0.203922 0.337255
v -0.0966691 1 -0.414872 0.0705882 0.203922 0.337255
v -0.264767 1 0.123718 0.0705882 0.203922 0.337255
v -0.168098 1 -0.0437179 0.0705882 0.203922 0.337255
v -0.310955 1 -0.0437179 0.0705882 0.203922 0.337255
v -0.336195 1 0 0.0705882 0.203922 0.337255
v -0.260474 1 0.291154 0.0705882 0.203922 0.337255
v -0.189045 1 0.167436 0.0705882 0.203922 0.337255
v -0.336195 1 0.247436 0.0705882 0.203922 0.337255
v -0.310955 1 0.291154 0.0705882 0.203922 0.337255
v 0.239526 1 0.167436 0.0705882 0.203922 0.337255
v 0.046188 1 0.167436 0.0705882 0.203922 0.337255
v 0.117617 1 0.291154 0.0705882 0.203922 0.337255
v 0.168098 1 0.291154 0.0705882 0.203922 0.337255
v 0.239526 1 0.08 0.0705882 0.203922 0.337255
v 0.382383 1 0.167436 0.0705882 0.203922 0.337255
v 0.407624 1 0.123718 0.0705882 0.203922 0.337255
v 0.382383 1 0.08 0.0705882 0.203922 0.337255
v -0.382383 0.775 0.247436 0.348235 0.400392 0.473725
v -0.368527 0.73 0.247436 0.403765 0.439686 0.50102
v -0.327121 0.73 0.319154 0.403765 0.439686 0.50102
v -0.334049 0.775 0.331154 0.348235 0.400392 0.473725
v 0.26262 0.775 0.207436 0.348235 0.400392 0.473725
v 0.191192 0.775 0.331154 0.348235 0.400392 0.473725
v 0.255692 0.73 0.195436 0.403765 0.439686 0.50102
v 0.184264 0.73 0.319154 0.403765 0.439686 0.50102
v 0.255692 0.73 0.195436 0.403765 0.439686 0.50102
v 0.398549 0.73 0.195436 0.403765 0.439686 0.50102
v 0.405477 0.775 0.207436 0.348235 0.400392 0.473725
v 0.023094 0.775 0.207436 0.348235 0.400392 0.473725
v 0.0945226 0.775 0.331154 0.348235 0.400392 0.473725
v 0.0300222 0.73 0.195436 0.403765 0.439686 0.50102
v 0.101451 0.73 0.319154 0.403765 0.439686 0.50102
v -0.119763 0.775 -0.454872 0.348235 0.400392 0.473725
v -0.112835 0.73 -0.442872 0.403765 0.439686 0.50102
v -0.154241 0.73 -0.371154 0.403765 0.439686 0.50102
v -0.168098 0.775 -0.371154 0.348235 0.400392 0.473725
v -0.023094 0.775 -0.454872 0.348235 0.400392 0.473725
v -0.0300222 0.73 -0.442872 0.403765 0.439686 0.50102
v -0.112835 0.73 -0.442872 0.403765 0.439686 0.50102
v 0.0483346 0.775 -0.331154 0.348235 0.400392 0.473725
v -0.0966691 0.775 -0.247436 0.348235 0.400392 0.473725
v -0.191192 0.775 -0.0837179 0.348235 0.400392 0.473725
v 0.0414064 0.73 -0.319154 0.403765 0.439686 0.50102
v -0.0300222 0.73 -0.442872 0.403765 0.439686 0.50102
v -0.0828127 0.73 -0.247436 0.403765 0.439686 0.50102
v -0.154241 0.73 -0.371154 0.403765 0.439686 0.50102
v -0.184264 0.73 -0.0717179 0.403765 0.439686 0.50102
v -0.0828127 0.73 -0.247436 0.403765 0.439686 0.50102
v 0.26262 0.775 0.04 0.348235 0.400392 0.473725
v 0.168098 0.775 -0.123718 0.348235 0.400392 0.473725
v 0.154241 0.73 -0.123718 0.403765 0.439686 0.50102
v 0.255692 0.73 0.052 0.403765 0.439686 0.50102
v -0.327121 0.73 -0.0717179 0.403765 0.439686 0.50102
v -0.334049 0.775 -0.0837179 0.348235 0.400392 0.473725
v -0.184264 0.73 -0.0717179 0.403765 0.439686 0.50102
v -0.382383 0.775 0 0.348235 0.400392 0.473725
v -0.310955 0.775 0.123718 0.348235 0.400392 0.473725
v -0.327121 0.73 -0.0717179 0.403765 0.439686 0.50102
v -0.368527 0.73 0 0.403765 0.439686 0.50102
v -0.368527 0.73 0 0.403765 0.439686 0.50102
v -0.297098 0.73 0.123718 0.403765 0.439686 0.50102
v -0.368527 0.73 0.247436 0.403765 0.439686 0.50102
v -0.23738 0.775 0.331154 0.348235 0.400392 0.473725
v -0.327121 0.73 0.319154 0.403765 0.439686 0.50102
v -0.244308 0.73 0.319154 0.403765 0.439686 0.50102
v -0.165951 0.775 0.207436 0.348235 0.400392 0.473725
v -0.172879 0.73 0.195436 0.403765 0.439686 0.50102
v -0.244308 0.73 0.319154 0.403765 0.439686 0.50102
v -0.172879 0.73 0.195436 0.403765 0.439686 0.50102
v 0.0300222 0.73 0.195436 0.403765 0.439686 0.50102
v 0.453812 0.775 0.123718 0.348235 0.400392 0.473725
v 0.439956 0.73 0.123718 0.403765 0.439686 0.50102
v 0.398549 0.73 0.052 0.403765 0.439686 0.50102
v 0.405477 0.775 0.04 0.348235 0.400392 0.473725
v 0.239526 0.775 -0.247436 0.348235 0.400392 0.473725
v 0.22567 0.73 -0.247436 0.403765 0.439686 0.50102
v 0.184264 0.73 -0.319154 0.403765 0.439686 0.50102
v 0.191192 0.775 -0.331154 0.348235 0.400392 0.473725
v 0.439956 0.73 0.123718 0.403765 0.439686 0.50102
v 0.398549 0.73 0.052 0.403765 0.439686 0.50102
v 0.255692 0.73 0.052 0.403765 0.439686 0.50102
v 0.154241 0.73 -0.123718 0.403765 0.439686 0.50102
v 0.184264 0.73 -0.319154 0.403765 0.439686 0.50102
v 0.0414064 0.73 -0.319154 0.403765 0.439686 0.50102
v -0.334049 0.475 0.331154 0.718431 0.662353 0.655686
v -0.382383 0.475 0.247436 0.718431 0.662353 0.655686
v -0.374685 0.475 0.234102 0.718431 0.662353 0.655686
v -0.318653 0.475 0.331154 0.718431 0.662353 0.655686
v -0.345596 0.55 0.351154 0.625882 0.596863 0.610196
v -0.405477 0.55 0.247436 0.625882 0.596863 0.610196
v -0.368527 0.73 0.247436 0.403765 0.439686 0.50102
v -0.327121 0.73 0.319154 0.403765 0.439686 0.50102
v 0.109919 0.475 0.331154 0.718431 0.662353 0.655686
v 0.102221 0.475 0.31782 0.718431 0.662353 0.655686
v 0.19889 0.475 0.31782 0.718431 0.662353 0.655686
v 0.191192 0.475 0.331154 0.718431 0.662353 0.655686
v 0.255692 0.73 0.195436 0.403765 0.439686 0.50102
v 0.274167 0.55 0.227436 0.625882 0.596863 0.610196
v 0.417024 0.55 0.227436 0.625882 0.596863 0.610196
v 0.398549 0.73 0.195436 0.403765 0.439686 0.50102
v 0.183494 0.475 0.31782 0.718431 0.662353 0.655686
v 0.247224 0.475 0.207436 0.718431 0.662353 0.655686
v 0.26262 0.475 0.207436 0.718431 0.662353 0.655686
v 0.202739 0.55 0.351154 0.625882 0.596863 0.610196
v 0.397779 0.475 0.194102 0.718431 0.662353 0.655686
v 0.390081 0.475 0.207436 0.718431 0.662353 0.655686
v 0.254922 0.475 0.194102 0.718431 0.662353 0.655686
v 0.405477 0.475 0.207436 0.718431 0.662353 0.655686
v 0.184264 0.73 0.319154 0.403765 0.439686 0.50102
v 0.0300222 0.73 0.195436 0.403765 0.439686 0.50102
v 0.011547 0.55 0.227436 0.625882 0.596863 0.610196
v 0.0829756 0.55 0.351154 0.625882 0.596863 0.610196
v 0.101451 0.73 0.319154 0.403765 0.439686 0.50102
v 0.184264 0.73 0.319154 0.403765 0.439686 0.50102
v 0.0945226 0.475 0.331154 0.718431 0.662353 0.655686
v 0.023094 0.475 0.207436 0.718431 0.662353 0.655686
v 0.03849 0.475 0.207436 0.718431 0.662353 0.655686
v -0.119763 0.475 -0.454872 0.718431 0.662353 0.655686
v -0.104367 0.475 -0.454872 0.718431 0.662353 0.655686
v -0.1604 0.475 -0.35782 0.718431 0.662353 0.655686
v -0.168098 0.475 -0.371154 0.718431 0.662353 0.655686
v -0.191192 0.55 -0.371154 0.625882 0.596863 0.610196
v -0.13131 0.55 -0.474872 0.625882 0.596863 0.610196
v -0.154241 0.73 -0.371154 0.403765 0.439686 0.50102
v -0.112835 0.73 -0.442872 0.403765 0.439686 0.50102
v -0.112065 0.475 -0.441538 0.718431 0.662353 0.655686
v -0.023094 0.475 -0.454872 0.718431 0.662353 0.655686
v -0.015396 0.475 -0.441538 0.718431 0.662353 0.655686
v -0.011547 0.55 -0.474872 0.625882 0.596863 0.610196
v -0.0300222 0.73 -0.442872 0.403765 0.439686 0.50102
v -0.119763 0.55 -0.247436 0.625882 0.596863 0.610196
v -0.0828127 0.73 -0.247436 0.403765 0.439686 0.50102
v -0.202739 0.55 -0.103718 0.625882 0.596863 0.610196
v -0.184264 0.73 -0.0717179 0.403765 0.439686 0.50102
v -0.0828127 0.73 -0.247436 0.403765 0.439686 0.50102
v 0.0414064 0.73 -0.319154 0.403765 0.439686 0.50102
v 0.0598816 0.55 -0.351154 0.625882 0.596863 0.610196
v 0.0483346 0.475 -0.331154 0.718431 0.662353 0.655686
v -0.0966691 0.475 -0.247436 0.718431 0.662353 0.655686
v -0.191192 0.475 -0.0837179 0.718431 0.662353 0.655686
v 0.191192 0.55 -0.123718 0.625882 0.596863 0.610196
v 0.154241 0.73 -0.123718 0.403765 0.439686 0.50102
v 0.255692 0.73 0.052 0.403765 0.439686 0.50102
v 0.274167 0.55 0.02 0.625882 0.596863 0.610196
v 0.26262 0.475 0.04 0.718431 0.662353 0.655686
v 0.168098 0.475 -0.123718 0.718431 0.662353 0.655686
v -0.183494 0.475 -0.0703846 0.718431 0.662353 0.655686
v -0.341747 0.475 -0.0703846 0.718431 0.662353 0.655686
v -0.334049 0.475 -0.0837179 0.718431 0.662353 0.655686
v -0.0812731 0.475 -0.247436 0.718431 0.662353 0.655686
v -0.152702 0.475 -0.371154 0.718431 0.662353 0.655686
v -0.345596 0.55 -0.103718 0.625882 0.596863 0.610196
v -0.366987 0.475 0 0.718431 0.662353 0.655686
v -0.374685 0.475 -0.0133333 0.718431 0.662353 0.655686
v -0.326351 0.475 -0.0703846 0.718431 0.662353 0.655686
v -0.405477 0.55 0 0.625882 0.596863 0.610196
v -0.368527 0.73 0 0.403765 0.439686 0.50102
v -0.327121 0.73 -0.0717179 0.403765 0.439686 0.50102
v -0.334049 0.55 0.123718 0.625882 0.596863 0.610196
v -0.297098 0.73 0.123718 0.403765 0.439686 0.50102
v -0.368527 0.73 0.247436 0.403765 0.439686 0.50102
v -0.327121 0.73 -0.0717179 0.403765 0.439686 0.50102
v -0.295559 0.475 0.123718 0.718431 0.662353 0.655686
v -0.310955 0.475 0.123718 0.718431 0.662353 0.655686
v -0.382383 0.475 0 0.718431 0.662353 0.655686
v -0.366987 0.475 0.247436 0.718431 0.662353 0.655686
v -0.245078 0.475 0.31782 0.718431 0.662353 0.655686
v -0.252776 0.475 0.331154 0.718431 0.662353 0.655686
v -0.326351 0.475 0.31782 0.718431 0.662353 0.655686
v -0.23738 0.475 0.331154 0.718431 0.662353 0.655686
v -0.225833 0.55 0.351154 0.625882 0.596863 0.610196
v -0.244308 0.73 0.319154 0.403765 0.439686 0.50102
v -0.327121 0.73 0.319154 0.403765 0.439686 0.50102
v -0.154404 0.55 0.227436 0.625882 0.596863 0.610196
v -0.172879 0.73 0.195436 0.403765 0.439686 0.50102
v -0.173649 0.475 0.194102 0.718431 0.662353 0.655686
v -0.165951 0.475 0.207436 0.718431 0.662353 0.655686
v 0.030792 0.475 0.194102 0.718431 0.662353 0.655686
v 0.175796 0.475 -0.331154 0.718431 0.662353 0.655686
v 0.191192 0.475 -0.331154 0.718431 0.662353 0.655686
v 0.239526 0.475 -0.247436 0.718431 0.662353 0.655686
v 0.231828 0.475 -0.234102 0.718431 0.662353 0.655686
v 0.390081 0.475 0.04 0.718431 0.662353 0.655686
v 0.405477 0.475 0.04 0.718431 0.662353 0.655686
v 0.453812 0.475 0.123718 0.718431 0.662353 0.655686
v 0.446114 0.475 0.137051 0.718431 0.662353 0.655686
v 0.417024 0.55 0.02 0.625882 0.596863 0.610196
v 0.476906 0.55 0.123718 0.625882 0.596863 0.610196
v 0.202739 0.55 -0.351154 0.625882 0.596863 0.610196
v 0.26262 0.55 -0.247436 0.625882 0.596863 0.610196
v 0.439956 0.73 0.123718 0.403765 0.439686 0.50102
v 0.398549 0.73 0.195436 0.403765 0.439686 0.50102
v 0.255692 0.73 0.052 0.403765 0.439686 0.50102
v 0.398549 0.73 0.052 0.403765 0.439686 0.50102
v 0.398549 0.73 0.052 0.403765 0.439686 0.50102
v 0.439956 0.73 0.123718 0.403765 0.439686 0.50102
v 0.0414064 0.73 -0.319154 0.403765 0.439686 0.50102
v 0.184264 0.73 -0.319154 0.403765 0.439686 0.50102
v 0.22567 0.73 -0.247436 0.403765 0.439686 0.50102
v 0.22567 0.73 -0.247436 0.403765 0.439686 0.50102
v 0.438416 0.475 0.123718 0.718431 0.662353 0.655686
v 0.254922 0.475 0.0533333 0.718431 0.662353 0.655686
v 0.397779 0.475 0.0533333 0.718431 0.662353 0.655686
v 0.152702 0.475 -0.123718 0.718431 0.662353 0.655686
v 0.22413 0.475 -0.247436 0.718431 0.662353 0.655686
v 0.0406366 0.475 -0.31782 0.718431 0.662353 0.655686
v 0.183494 0.475 -0.31782 0.718431 0.662353 0.655686
v -0.030792 0.475 -0.441538 0.718431 0.662353 0.655686
v 0.213061 0.25 -0.0858391 0.903529 0.793333 0.746667
v -0.355918 0.25 -0.0858391 0.903529 0.793333 0.746667
v -0.0812731 0.475 -0.247436 0.718431 0.662353 0.655686
v -0.183494 0.475 -0.0703846 0.718431 0.662353 0.655686
v 0.148678 0.25 -0.0858391 0.903529 0.793333 0.746667
v -0.0321917 0.25 0.227436 0.903529 0.793333 0.746667
v 0.0495592 0.25 -0.0858391 0.903529 0.793333 0.746667
v 0.0991185 0.25 0 0.903529 0.793333 0.746667
v -0.355918 0.25 0.0858391 0.903529 0.793333 0.746667
v 0.0495592 0.25 0.0858391 0.903529 0.793333 0.746667
v -0.0495592 0.25 -0.0858391 0.903529 0.793333 0.746667
v -0.148678 0.25 0.0858391 0.903529 0.793333 0.746667
v -0.0495592 0.25 0.0858391 0.903529 0.793333 0.746667
v -0.0991185 0.25 0 0.903529 0.793333 0.746667

vt 0.75 1
vt 1 0.5
vt 0.75 0
vt 0.25 0
vt 0 0.5
vt 0.25 1
vt 0.666667 0.757576
vt 0.666667 0
vt 0.833333 0
vt 0.833333 0.757576
vt 0 0.757576
vt 0 0
vt 0.166667 0
vt 0.166667 0.757576
vt 0.333333 0
vt 0.333333 0.757576
vt 0.333333 0.757576
vt 0.5 0
vt 0.5 0.757576
vt 0.5 0.757576
vt 1 0
vt 1 0.757576
vt 0.0364021 0
vt 0.0416667 0.5
vt 0.0798236 0
vt 0.0833333 0.5
vt 0.130265 0
vt 0.125 0.5
vt 0.173686 0
vt 0.166667 0.5
vt 0.210088 0
vt 0.208333 0.5
vt 0.25351 0
vt 0.25 0.5
vt 0.296931 0
vt 0.291667 0.5
vt 0.333333 0
vt 0.333333 0.5
vt 0.369735 0
vt 0.375 0.5
vt 0.413157 0
vt 0.416667 0.5
vt 0.463598 0
vt 0.507019 0
vt 0.5 0.5
vt 0.458333 0.5
vt 0.543422 0
vt 0.541667 0.5
vt 0.586843 0
vt 0.583333 0.5
vt 0.630265 0
vt 0.625 0.5
vt 0.666667 0
vt 0.666667 0.5
vt 0.703069 0
vt 0.708333 0.5
vt 0.74649 0
vt 0.75 0.5
vt 0.796931 0
vt 0.791667 0.5
vt 0.840353 0
vt 0.833333 0.5
vt 0.876755 0
vt 0.875 0.5
vt 0.920176 0
vt 0.916667 0.5
vt 0.963598 0
vt 0.958333 0.5
vt 1 0.5
vt 0.739287 0.833333
vt 0.692264 0.833333
vt 0.188092 0.833333
vt 0.141069 0.833333
vt 0.0255974 0.833333
vt 0.0726205 0.833333
vt 0.0726205 0.833333
vt 0.0255974 0.833333
vt 0 0.833333
vt 0.807736 0.833333
vt 0.739287 0.833333
vt 0.854759 0.833333
vt 0.807736 0.833333
vt 0.880356 0.833333
vt 0.854759 0.833333
vt 0.927379 0.833333
vt 0.880356 0.833333
vt 0.974403 0.833333
vt 1 0.833333
vt 0.474403 0.833333
vt 0.521426 0.833333
vt 0.547023 0.833333
vt 0.594046 0.833333
vt 0.641069 0.833333
vt 0.666667 0.833333
vt 0.692264 0.833333
vt 0.21369 0.833333
vt 0.260713 0.833333
vt 0.21369 0.833333
vt 0.307736 0.833333
vt 0.260713 0.833333
vt 0.333333 0.833333
vt 0.358931 0.833333
vt 0.405954 0.833333
vt 0.358931 0.833333
vt 0.485919 0.824768
vt 0.615882 0.587616
vt 0.711912 0.762847
vt 0.677978 0.824768
vt 0.288088 0.938079
vt 0.384118 0.762847
vt 0.38989 1
vt 0.322022 1
vt 0.0960295 0.237153
vt 0.225993 0.474305
vt 0.0339337 0.474305
vt 0 0.412384
vt 0.101801 0
vt 0.197831 0.175232
vt 0 0.0619212
vt 0.0339337 0
vt 0.774007 0.175232
vt 0.514081 0.175232
vt 0.61011 0
vt 0.677978 0
vt 0.774007 0.299074
vt 0.966066 0.175232
vt 1 0.237153
vt 0.966066 0.299074
vt 0.635992 0.5
vt 0.639745 0.2
vt 0.666667 0.2
vt 0.666667 0.5
vt 0.666667 1
vt 0.649104 1
vt 0.923995 0.5
vt 0.932736 1
vt 0.883035 1
vt 0.878664 0.5
vt 0.926496 0.2
vt 0.879915 0.2
vt 0.926496 0.2
vt 0.973078 0.2
vt 0.969325 0.5
vt 0.982437 1
vt 0.802659 0.5
vt 0.847989 0.5
vt 0.865472 1
vt 0.815771 1
vt 0.806411 0.2
vt 0.852993 0.2
vt 0.852993 0.2
vt 0.333333 0.5
vt 0.333333 0.2
vt 0.360255 0.2
vt 0.364008 0.5
vt 0.350896 1
vt 0.333333 1
vt 0.302659 0.5
vt 0.306411 0.2
vt 0.333333 0.2
vt 0.315771 1
vt 0.266069 1
vt 0.257328 0.5
vt 0.409339 0.5
vt 0.400597 1
vt 0.469325 0.5
vt 0.482437 1
vt 0.25983 0.2
vt 0.306411 0.2
vt 0.406837 0.2
vt 0.360255 0.2
vt 0.473078 0.2
vt 0.406837 0.2
vt 0.0760053 0.5
vt 0.135992 0.5
vt 0.149104 1
vt 0.0672641 1
vt 0.139745 0.2
vt 0.0735035 0.2
vt 0.51966 0.2
vt 0.514656 0.5
vt 0.473078 0.2
vt 0.532138 1
vt 0.545331 0.5
vt 0.549701 1
vt 0.590661 0.5
vt 0.599403 1
vt 0.51966 0.2
vt 0.546582 0.2
vt 0.546582 0.2
vt 0.593163 0.2
vt 0.639745 0.2
vt 0.697341 0.5
vt 0.666667 0.2
vt 0.693589 0.2
vt 0.684229 1
vt 0.742672 0.5
vt 0.733931 1
vt 0.74017 0.2
vt 0.693589 0.2
vt 0.74017 0.2
vt 0.806411 0.2
vt 0 0.2
vt 0.0269219 0.2
vt 0.0306746 0.5
vt 0.181323 0.5
vt 0.186326 0.2
vt 0.213248 0.2
vt 0.211997 0.5
vt 0.0175628 1
vt 0 1
vt 0.216368 1
vt 0.198805 1
vt 1 0.2
vt 1 0.5
vt 1 1
vt 0.0269219 0.2
vt 0.0735035 0.2
vt 0.186326 0.2
vt 0.139745 0.2
vt 0.213248 0.2
vt 0.25983 0.2
vt 0.057803 0
vt 0 0.106508
vt 0.00920599 0.123471
vt 0.0762149 0
vt 0.635992 0
vt 0.666667 0
vt 0.666667 0.5
vt 0.630265 0.5
vt 0.63985 0.9
vt 0.666667 0.9
vt 0.58874 0
vt 0.579534 0.016963
vt 0.69514 0.016963
vt 0.685934 0
vt 0.926567 0.9
vt 0.920176 0.5
vt 0.963598 0.5
vt 0.973183 0.9
vt 0.676728 0.016963
vt 0.752943 0.157397
vt 0.771355 0.157397
vt 0.923995 0
vt 0.876755 0.5
vt 0.878664 0
vt 0.932991 0.17436
vt 0.923785 0.157397
vt 0.752943 0.157397
vt 0.762149 0.17436
vt 0.969325 0
vt 0.87995 0.9
vt 0.926567 0.9
vt 0.806517 0.9
vt 0.796931 0.5
vt 0.840353 0.5
vt 0.853133 0.9
vt 0.87995 0.9
vt 0.570328 0
vt 0.484908 0.157397
vt 0.503319 0.157397
vt 0.802659 0
vt 0.847989 0
vt 0.314066 1
vt 0.332478 1
vt 0.265469 0.876529
vt 0.256263 0.893492
vt 0.333333 0
vt 0.364008 0
vt 0.369735 0.5
vt 0.333333 0.5
vt 0.36015 0.9
vt 0.333333 0.9
vt 0.323272 0.983037
vt 0.429672 1
vt 0.438878 0.983037
vt 0.296931 0.5
vt 0.302659 0
vt 0.333333 0.9
vt 0.306517 0.9
vt 0.413157 0.5
vt 0.406767 0.9
vt 0.463598 0.5
vt 0.473183 0.9
vt 0.406767 0.9
vt 0.2599 0.9
vt 0.25351 0.5
vt 0.306517 0.9
vt 0.257328 0
vt 0.409339 0
vt 0.469325 0
vt 0.130265 0.5
vt 0.13985 0.9
vt 0.0734333 0.9
vt 0.0798236 0.5
vt 0.0760053 0
vt 0.135992 0
vt 0.228645 0.527809
vt 0.237851 0.510846
vt 0.048597 0.510846
vt 0.057803 0.527809
vt 0.360096 0.736095
vt 0.341684 0.736095
vt 0.274675 0.893492
vt 0.514656 0
vt 0.507019 0.5
vt 0.018412 0.421302
vt 0.00920599 0.438265
vt 0.0670089 0.510846
vt 0.543422 0.5
vt 0.546617 0.9
vt 0.5198 0.9
vt 0.586843 0.5
vt 0.593233 0.9
vt 0.63985 0.9
vt 0.473183 0.9
vt 0.103833 0.263905
vt 0.0854209 0.263905
vt 0 0.421302
vt 0.018412 0.106508
vt 0.545331 0
vt 0.590661 0
vt 0.164203 0.016963
vt 0.154997 0
vt 0.0670089 0.016963
vt 0.697341 0
vt 0.703069 0.5
vt 0.693483 0.9
vt 0.666667 0.9
vt 0.74649 0.5
vt 0.7401 0.9
vt 0.693483 0.9
vt 0.249624 0.17436
vt 0.25883 0.157397
vt 0.173409 0
vt 0.503319 0.157397
vt 0.494113 0.17436
vt 0.742672 0
vt 0.667522 0.842603
vt 0.685934 0.842603
vt 0.743737 0.736095
vt 0.734531 0.719132
vt 0.923785 0.370413
vt 0.942197 0.370413
vt 1 0.263905
vt 0.990794 0.246942
vt 0.0306746 0
vt 0.0364021 0.5
vt 0.181323 0
vt 0.211997 0
vt 0.210088 0.5
vt 0.173686 0.5
vt 1 0.9
vt 0.973183 0.9
vt 0.0268166 0.9
vt 0.0268166 0.9
vt 0 0.9
vt 0.2599 0.9
vt 0.213283 0.9
vt 0.186467 0.9
vt 0.213283 0.9
vt 0.186467 0.9
vt 0.981588 0.263905
vt 0.942197 0.157397
vt 1 0
vt 0.762149 0.35345
vt 0.771355 0.370413
vt 0.932991 0.35345
vt 0.658316 0.578698
vt 0.639904 0.578698
vt 0.725325 0.736095
vt 0.505887 0.82564
vt 0.515092 0.842603
vt 0.676728 0.82564
vt 0.420466 0.983037
vt 0.446439 1
vt 0.527389 0.850225
vt 0.323798 0.724662
vt 0.242849 0.874437
vt 0.310712 1
vt 0.757151 0.724662
vt 0.676202 0.574887
vt 0.689288 0.850225
vt 0.229763 0.550675
vt 0.700986 0.529031
vt 0.0561652 0.529031
vt 0.0678634 0.550675
vt 0.472611 0.149775
vt 0.770237 0.149775
vt 0.689288 0
vt 0.553561 0
vt 0.628021 0.529031
vt 0.770237 0.4009
vt 0.932137 0.149775
vt 0.932137 0.4009
vt 1 0.275338
vt 0.423043 0.149775
vt 0.51569 0.529031
vt 0.571856 0.425113
vt 0 0.125563
vt 0.0809496 0.275338
vt 0.28454 0.149775
vt 0.20359 0
vt 0.0678634 0
vt 0.0561652 0.321194
vt 0.51569 0.321194
vt 0.40336 0.529031
vt 0.29103 0.321194
vt 0 0.425113
vt 0.40336 0.321194
vt 0.347195 0.425113

vn 0 -1 0
vn 0.866025 0 -0.5
vn 0.866025 0 -0.5
vn -0.866025 0 -0.5
vn -0.866025 0 -0.5
vn -0.866025 0 0.5
vn -0.866025 0 0.5
vn 0 0 1
vn 0.866025 0 0.5
vn 0.866025 0 0.5
vn 0 0 -1
vn 0.866025 0 -0.5
vn 0.866025 0 -0.5
vn 0.866025 0 -0.5
vn 0.866025 0 -0.5
vn 0.866025 0 0.5
vn 0.866025 0 0.5
vn 0.866025 0 -0.5
vn 0.866025 0 -0.5
vn 0.866025 0 -0.5
vn -0.866025 0 -0.5
vn -0.866025 0 -0.5
vn -0.866025 0 0.5
vn -0.866025 0 -0.5
vn -0.866025 0 -0.5
vn -0.866025 0 0.5
vn -0.866025 0 0.5
vn -0.866025 0 -0.5
vn -0.866025 0 -0.5
vn -0.866025 0 0.5
vn -0.866025 0 0.5
vn 0.866025 0 0.5
vn 0.866025 0 0.5
vn -0.866025 0 0.5
vn 0.866025 0 0.5
vn 0.866025 0 0.5
vn 0.866025 0 0.5
vn 0.866025 0 0.5
vn 0.866025 0 -0.5
vn 0.866025 0 -0.5
vn -0.866025 0 0.5
vn 0.866025 0 0.5
vn 0.866025 0 0.5
vn -0.866025 0 -0.5
vn -0.866025 0 0.5
vn -0.866025 0 -0.5
vn -0.866025 0 0.5
vn 0.866025 0 -0.5
vn 0.866025 0 -0.5
vn -0.866025 0 -0.5
vn 0 1 0
vn -0.866025 0 0.5
vn -0.866025 0 0.5
vn -0.866025 0 0.5
vn 0.866025 0 0.5
vn -0.866025 0 -0.5
vn -0.866025 0 -0.5
vn -0.866025 0 -0.5
vn -0.866025 0 -0.5
vn -0.866025 0 -0.5
vn 0.866025 0 -0.5
vn -0.866025 0 -0.5
vn 0.866025 0 -0.5
vn 0.866025 0 -0.5
vn 0.866025 0 -0.5
vn -0.866025 0 -0.5
vn -0.866025 0 -0.5
vn -0.866025 0 -0.5
vn 0.866025 0 -0.5
vn 0.866025 0 -0.5
vn 0.866025 0 -0.5
vn 0.866025 0 -0.5
vn 0.866025 0 -0.5
vn 0.866025 0 0.5
vn 0.866025 0 0.5
vn 0.866025 0 0.5
vn -0.866025 0 0.5
vn -0.866025 0 -0.5
vn -0.866025 0 -0.5
vn -0.866025 0 -0.5
vn -0.866025 0 -0.5
vn 0.866025 0 -0.5
vn -0.866025 0 -0.5
vn 0.866025 0 0.5
vn 0.866025 0 -0.5
vn 0.866025 0 -0.5
vn -0.866025 0 -0.5
vn -0.866025 0 -0.5

f 1/1/1 2/2/1 3/3/1 4/4/1 5/5/1 6/6/1
f 7/7/2 2/8/3 1/9/3 8/10/2
f 9/11/4 6/12/5 5/13/5 10/14/4
f 4/15/6 11/16/7 12/14/7 5/13/6
f 11/17/8 4/15/8 3/18/8 13/19/8
f 14/20/9 3/18/10 2/8/10 15/7/9
f 6/21/11 16/22/11 17/10/11 1/9/11
f 18/12/12 19/23/12 20/24/13 21/5/13
f 19/23/11 22/25/11 23/26/11 20/24/11
f 22/25/14 24/27/14 25/28/15 23/26/15
f 24/27/16 26/29/16 27/30/17 25/28/17
f 26/29/12 28/31/12 29/32/18 27/30/18
f 28/31/11 30/33/11 31/34/11 29/32/11
f 30/33/19 32/35/19 33/36/20 31/34/20
f 32/35/11 34/37/11 35/38/11 33/36/11
f 34/37/21 36/39/21 37/40/22 35/38/22
f 36/39/23 38/41/23 39/42/23 37/40/23
f 40/43/11 41/44/11 42/45/11 43/46/11
f 41/44/24 44/47/24 45/48/25 42/45/25
f 44/47/26 46/49/26 47/50/27 45/48/27
f 46/49/28 48/51/28 49/52/29 47/50/29
f 48/51/30 50/53/30 51/54/31 49/52/31
f 50/53/8 52/55/8 53/56/8 51/54/8
f 52/55/32 54/57/32 55/58/33 53/56/33
f 54/57/8 56/59/8 57/60/8 55/58/8
f 56/59/23 58/61/23 59/62/34 57/60/34
f 58/61/8 60/63/8 61/64/8 59/62/8
f 60/63/32 62/65/32 63/66/32 61/64/32
f 62/65/8 64/67/8 65/68/8 63/66/8
f 64/67/35 18/21/35 21/69/36 65/68/36
f 53/56/33 55/58/33 66/70/37 67/71/37
f 25/28/17 27/30/17 68/72/38 69/73/16
f 70/74/11 20/24/11 23/26/11 71/75/11
f 72/76/39 23/26/15 25/28/15 69/73/39
f 21/5/13 20/24/13 73/77/40 74/78/40
f 75/79/8 76/80/8 55/58/8 57/60/8
f 59/62/34 77/81/41 78/82/41 57/60/34
f 79/83/8 80/84/8 59/62/8 61/64/8
f 63/66/32 81/85/42 82/86/37 61/64/32
f 83/85/8 63/66/8 65/68/8 84/87/8
f 85/87/43 65/68/36 21/69/36 74/88/43
f 86/89/11 43/46/11 42/45/11 87/90/11
f 88/90/44 42/45/25 45/48/25 89/91/44
f 90/91/45 45/48/27 47/50/27 91/92/45
f 92/92/46 47/50/29 49/52/29 93/93/46
f 94/93/47 49/52/31 51/54/31 95/94/47
f 51/54/8 53/56/8 67/95/8 96/94/8
f 29/32/18 97/96/48 98/72/49 27/30/18
f 29/32/11 31/34/11 99/97/11 100/98/11
f 31/34/20 33/36/20 101/99/20 99/100/20
f 102/99/11 33/36/11 35/38/11 103/101/11
f 104/101/50 35/38/22 37/40/22 105/102/50
f 37/40/23 39/42/23 106/103/41 105/104/41
f 107/105/51 108/106/51 109/107/51 110/108/51
f 111/109/51 112/110/51 107/105/51 113/111/51 114/112/51
f 115/113/51 116/114/51 117/115/51 118/116/51
f 119/117/51 120/118/51 115/113/51 121/119/51 122/120/51
f 123/121/51 124/122/51 125/123/51 126/124/51
f 127/125/51 123/121/51 128/126/51 129/127/51 130/128/51
f 115/113/51 120/118/51 123/121/51 127/125/51 107/105/51 112/110/51
f 131/129/52 132/130/53 133/131/53 134/132/52
f 131/129/52 134/132/52 122/133/54 121/134/54
f 135/135/37 123/136/33 126/137/33 136/138/37
f 137/139/55 135/135/37 136/138/37 138/140/55
f 135/135/8 139/141/8 140/142/8 141/143/8
f 123/136/8 135/135/8 141/143/8 128/144/8
f 142/145/45 143/146/45 125/147/23 124/148/23
f 125/147/8 143/146/8 136/138/8 126/137/8
f 142/145/45 144/149/23 145/150/23 143/146/45
f 143/146/8 145/151/8 138/140/8 136/138/8
f 146/152/56 147/153/57 148/154/57 149/155/56
f 146/152/56 149/155/56 111/156/58 114/157/58
f 150/158/11 151/159/11 152/160/11 146/152/11
f 113/161/11 150/158/11 146/152/11 114/157/11
f 107/162/20 153/163/18 150/158/18 113/161/20
f 154/164/23 112/165/34 111/156/34 149/155/23
f 154/164/59 155/166/59 116/167/60 112/165/60
f 153/163/18 156/168/61 157/169/61 150/158/18
f 158/170/41 154/164/23 149/155/23 159/171/41
f 160/172/62 155/166/59 154/164/59 161/173/62
f 162/174/63 163/175/63 108/176/64 127/177/64
f 164/178/65 163/175/63 162/174/63 165/179/65
f 166/180/11 167/181/11 155/166/11 168/182/11
f 167/181/11 117/183/11 116/167/11 155/166/11
f 169/184/66 118/185/67 117/183/67 167/181/66
f 169/184/27 170/186/27 115/187/26 118/185/26
f 115/187/28 170/186/29 131/129/29 121/134/28
f 169/184/66 167/181/66 171/188/68 172/189/68
f 169/184/27 173/190/45 174/191/45 170/186/27
f 170/186/29 174/191/46 175/192/46 131/129/29
f 176/193/8 134/132/8 177/194/8 178/195/8
f 176/193/8 119/196/8 122/133/8 134/132/8
f 179/197/37 120/198/32 119/196/32 176/193/37
f 120/198/8 179/197/8 142/145/8 124/148/8
f 180/199/55 179/197/37 176/193/37 181/200/55
f 179/197/8 182/201/8 183/202/8 142/145/8
f 184/5/69 185/203/70 186/204/70 187/205/69
f 188/206/71 189/207/72 190/208/72 191/209/71
f 184/5/69 187/205/69 130/210/73 129/211/73
f 188/206/71 191/209/71 110/212/73 109/213/73
f 192/214/74 184/215/75 141/143/75 140/142/74
f 184/215/75 129/216/76 128/144/76 141/143/75
f 187/205/11 193/217/11 194/218/11 162/174/11
f 189/219/38 188/206/17 163/175/17 195/220/38
f 187/205/11 162/174/11 127/177/11 130/210/11
f 188/206/17 109/213/16 108/176/16 163/175/17
f 191/209/11 153/163/11 107/162/11 110/212/11
f 191/209/11 196/221/11 197/222/11 153/163/11
f 198/223/1 199/224/1 200/225/1 201/226/1
f 199/227/52 198/228/52 202/229/30 203/230/30
f 204/231/77 203/230/30 202/229/30 205/232/77
f 206/233/1 207/234/1 208/235/1 209/236/1
f 210/237/8 211/238/8 212/239/8 213/240/8
f 208/235/1 214/241/1 215/242/1 216/243/1
f 216/244/37 211/238/32 217/245/32 209/246/37
f 218/247/1 219/248/1 215/249/1 220/250/1
f 211/238/8 216/244/8 221/251/8 212/239/8
f 222/252/32 217/245/32 211/238/32 137/253/32
f 223/254/23 224/255/23 225/256/23 226/257/23
f 227/258/8 226/257/8 225/256/8 217/245/8
f 228/259/1 229/260/1 230/261/1 206/233/1
f 229/262/45 228/263/45 225/256/23 224/255/23
f 225/256/8 228/263/8 209/246/8 217/245/8
f 231/264/1 232/265/1 233/266/1 234/267/1
f 231/268/56 234/269/56 235/270/21 236/271/21
f 235/270/21 237/272/78 238/273/78 236/271/21
f 239/274/1 232/265/1 240/275/1 241/276/1
f 242/277/11 240/278/11 231/268/11 236/271/11
f 242/277/11 236/271/11 238/279/11 243/280/11
f 244/281/23 245/282/41 237/272/41 235/270/23
f 246/283/79 247/284/80 248/285/81 244/281/79
f 249/286/19 250/287/19 242/277/19 243/288/19
f 250/287/19 251/289/18 240/278/18 242/277/19
f 252/290/23 244/281/23 235/270/23 234/269/23
f 253/291/59 246/283/79 244/281/79 252/290/59
f 254/292/14 255/293/82 256/294/82 257/295/14
f 258/296/63 259/297/63 254/292/14 257/295/14
f 253/298/1 260/299/1 261/300/1 262/301/1
f 263/302/1 252/303/1 233/266/1 264/304/1
f 263/302/1 260/299/1 253/298/1 252/303/1
f 262/305/11 265/306/11 246/283/11 253/291/11
f 266/307/1 267/308/1 261/300/1 268/309/1
f 269/310/24 270/311/83 271/312/83 265/306/24
f 272/313/26 273/314/26 270/311/26 269/310/26
f 273/314/28 272/313/28 203/230/28 274/315/28
f 265/306/11 275/312/11 247/316/11 246/283/11
f 276/317/1 277/318/1 278/319/1 267/308/1
f 200/225/1 277/318/1 276/317/1 279/320/1
f 278/321/66 269/310/24 265/306/24 262/305/66
f 278/321/27 277/322/27 272/313/26 269/310/26
f 272/313/28 277/322/29 199/227/29 203/230/28
f 280/323/1 281/324/1 201/226/1 282/325/1
f 283/326/8 284/327/8 202/229/8 198/228/8
f 284/327/8 285/328/8 286/329/8 202/229/8
f 284/327/32 287/330/32 288/331/32 285/332/32
f 288/331/8 287/330/8 224/255/8 223/254/8
f 289/333/1 290/334/1 283/335/1 281/324/1
f 230/336/1 290/334/1 289/333/1 291/337/1
f 290/338/37 287/330/32 284/327/32 283/326/37
f 287/330/8 290/338/8 229/262/8 224/255/8
f 292/339/1 293/340/1 294/341/1 295/342/1
f 296/343/1 297/344/1 298/345/1 299/346/1
f 298/12/69 297/347/69 300/348/12 301/5/12
f 294/349/71 293/350/71 302/351/12 303/352/12
f 301/2/35 304/353/84 305/354/84 212/239/35
f 300/348/11 257/295/11 306/294/11 307/355/11
f 301/5/12 300/348/12 308/356/85 309/357/85
f 302/351/11 250/287/11 310/358/11 311/359/11
f 303/352/16 312/360/16 255/293/16 254/292/16
f 303/352/12 302/351/12 311/361/86 313/362/86
f 314/363/1 299/346/1 221/364/1 219/248/1
f 298/365/75 301/2/35 212/239/35 221/251/75
f 315/366/1 258/367/1 296/343/1 316/368/1
f 259/369/1 317/370/1 318/371/1 295/342/1
f 259/369/1 258/367/1 315/366/1 317/370/1
f 300/348/11 297/347/11 258/296/11 257/295/11
f 294/349/17 303/352/16 254/292/16 259/297/17
f 319/372/1 251/373/1 292/339/1 320/374/1
f 241/276/1 251/373/1 319/372/1 321/375/1
f 302/351/11 293/350/11 251/289/11 250/287/11
f 32/376/1 30/377/1 38/378/1 36/379/1 34/380/1
f 26/381/1 24/382/1 38/378/1 30/377/1 28/383/1
f 40/384/1 322/385/1 323/386/1 41/387/1
f 40/384/1 38/378/1 24/382/1 322/385/1
f 38/41/79 40/43/79 43/46/87 39/42/87
f 324/103/88 39/42/87 43/46/87 325/89/88
f 56/388/1 62/389/1 60/390/1 58/391/1
f 326/392/1 322/385/1 22/393/1
f 64/394/1 22/393/1 19/395/1 18/396/1
f 22/393/1 64/394/1 327/397/1 326/392/1
f 328/398/1 326/392/1 329/399/1
f 48/400/1 46/401/1 54/402/1 52/403/1 50/404/1
f 54/402/1 46/401/1 330/405/1 331/406/1 327/397/1
f 332/407/1 333/408/1 330/405/1 44/409/1 323/386/1
f 334/410/1 333/408/1 335/411/1