v -2.3 1 -3.63731 1 0 0
v -2.3 1 -3.2909 1 0 0
v -2 1 -3.4641 1 0 0
v -2.3 1 -3.2909 0 0 1
v -2.3 1 -3.63731 0 0 1
v -2.3 0 -3.63731 0 0 1
v -2.3 0 -3.2909 0 0 1
v -0.5 1 -2.59808 0 1 0
v 1 1 -1.73205 0 1 0
v 1 1 -2.07846 0 1 0
v -0.2 1 -2.77128 0 1 0
v 1 0 -2.07846 0 0 1
v -0.2 0 -2.77128 0 0 1
v -0.2 1 -2.77128 0 0 1
v 1 1 -2.07846 0 0 1
v -0.5 1 0.866025 0 1 0
v -0.5 1 -0.866025 0 1 0
v -0.8 1 -0.69282 0 1 0
v -0.8 1 0.69282 0 1 0
v -0.8 0 -0.69282 0 0 1
v -0.8 0 0.69282 0 0 1
v -0.8 1 0.69282 0 0 1
v -0.8 1 -0.69282 0 0 1
v 2.8 1 1.03923 1 0 0
v 2.8 1 0.69282 1 0 0
v 2.5 1 0.866025 1 0 0
v 2.8 1 0.69282 0 0 1
v 2.8 1 1.03923 0 0 1
v 2.8 0 1.03923 0 0 1
v 2.8 0 0.69282 0 0 1
v 2.8 1 -1.03923 1 0 0
v 2.5 1 -1.21244 1 0 0
v 2.5 1 -0.866025 1 0 0
v 2.5 1 -1.21244 0 0 1
v 2.8 1 -1.03923 0 0 1
v 2.8 0 -1.03923 0 0 1
v 2.5 0 -1.21244 0 0 1
v -2 1 -3.4641 0 1 0
v -0.5 1 -2.94449 0 1 0
v -1.7 1 -3.63731 0 1 0
v -0.5 0 -2.94449 0 0 1
v -1.7 0 -3.63731 0 0 1
v -1.7 1 -3.63731 0 0 1
v -0.5 1 -2.94449 0 0 1
v -0.5 1 1.21244 1 0 0
v -0.2 1 1.03923 1 0 0
v -0.5 1 0.866025 1 0 0
v -0.2 1 1.03923 0 0 1
v -0.5 1 1.21244 0 0 1
v -0.5 0 1.21244 0 0 1
v -0.2 0 1.03923 0 0 1
v 1 1 0 0 1 0
v -0.2 1 1.03923 0 1 0
v 1 1 0.34641 0 1 0
v 1 0 0.34641 0 0 1
v 1 1 0.34641 0 0 1
v -2.3 1 -1.90526 1 0 0
v -2.3 1 -1.55885 1 0 0
v -2 1 -1.73205 1 0 0
v -2.3 1 -1.55885 0 0 1
v -2.3 1 -1.90526 0 0 1
v -2.3 0 -1.90526 0 0 1
v -2.3 0 -1.55885 0 0 1
v -2 1 -1.38564 1 0 0
v -2 1 -1.38564 0 0 1
v -2 0 -1.38564 0 0 1
v 2.5 1 0.866025 0 1 0
v 2.2 1 1.03923 0 1 0
v 2.2 0 1.03923 0 0 1
v 2.2 1 1.03923 0 0 1
v -2 1 -1.73205 0 1 0
v -2 1 -1.38564 0 1 0
v -0.2 1 -2.77128 1 0 0
v -0.5 1 -2.94449 1 0 0
v -0.5 1 -2.59808 1 0 0
v -2 1 -3.81051 1 0 0
v -2 1 -3.81051 0 0 1
v -2 0 -3.81051 0 0 1
v 2.5 1 -0.866025 0 1 0
v 2.5 1 -1.21244 0 1 0
v 1.3 1 -1.90526 0 1 0
v 1.3 0 -1.90526 0 0 1
v 1.3 1 -1.90526 0 0 1
v -1.7 1 -3.63731 1 0 0
v 2.8 1 0.69282 0 1 0
v 2.8 1 -0.69282 0 1 0
v 2.8 0 -0.69282 0 0 1
v 2.8 1 -0.69282 0 0 1
v 2.8 1 -0.69282 1 0 0
v 2.5 1 1.21244 1 0 0
v 2.5 1 1.21244 0 0 1
v 2.5 0 1.21244 0 0 1
v -0.8 1 0.69282 1 0 0
v -0.8 1 1.03923 1 0 0
v -0.8 1 1.03923 0 0 1
v -0.8 0 1.03923 0 0 1
v 1.3 1 -1.90526 1 0 0
v 1 1 -2.07846 1 0 0
v 1 1 -1.73205 1 0 0
v -2.3 1 -3.2909 0 1 0
v -2.3 1 -1.90526 0 1 0
v 2.2 1 1.03923 1 0 0

vt 0 1
vt 0 0
vt 1 0.5
vt 1 0
vt 1 1
vt 0 0.833333
vt 1 0.333333
vt 0.2 1
vt 0 0.9
vt 0 0.1
vt 0 0.5
vt 1 0.5
vt 1 0.333333
vt 1 0.5
vt 0 0.166667
vt 0.2 0
vt 1 0.666667
vt 1 0.5
vt 0 0.5
vt 1 0.166667
vt 0 0.666667
vt 0.8 0
vt 0 0.666667
vt 1 0.5
vt 1 0.5
vt 1 0.1
vt 1 0.9
vt 0 0.5
vt 1 0.5
vt 0 0.9
vt 0 0.1

f 1/1 2/2 3/3
f 4/4 5/5 6/1 7/2
f 8/6 9/4 10/7 11/8
f 12/5 13/1 14/2 15/4
f 16/4 17/5 18/9 19/10
f 20/1 21/2 22/4 23/5
f 24/4 25/5 26/11
f 27/5 28/4 29/2 30/1
f 31/12 32/1 33/2
f 34/2 35/4 36/5 37/1
f 38/6 8/4 39/13 40/8
f 41/5 42/1 43/2 44/4
f 45/2 46/14 47/1
f 48/4 49/2 50/1 51/5
f 52/5 16/15 53/16 54/17
f 51/1 55/5 56/4 48/2
f 57/1 58/2 59/18
f 60/4 61/5 62/1 63/2
f 58/19 64/4 59/5
f 65/4 60/2 63/1 66/5
f 67/20 52/1 54/21 68/22
f 55/1 69/5 70/4 56/2
f 17/20 71/1 72/23 18/22
f 66/1 20/5 23/4 65/2
f 73/24 74/1 75/2
f 44/2 14/4 13/5 41/1
f 76/5 1/19 3/4
f 5/2 77/4 78/5 6/1
f 9/6 79/4 80/13 81/8
f 37/5 82/1 83/2 34/4
f 84/25 76/1 3/2
f 77/2 43/4 42/5 78/1
f 79/1 67/2 85/26 86/27
f 30/2 87/1 88/5 27/4
f 89/4 31/5 33/28
f 35/5 88/4 87/2 36/1
f 90/2 24/14 26/1
f 28/4 91/2 92/1 29/5
f 93/1 94/2 47/12
f 95/4 22/5 21/1 96/2
f 94/28 45/4 47/5
f 49/4 95/2 96/1 50/5
f 97/29 98/1 99/2
f 15/2 83/4 82/5 12/1
f 71/4 38/5 100/30 101/31
f 7/1 62/2 61/4 4/5
f 102/28 90/4 26/5
f 91/4 70/2 69/1 92/5