v -0.5 1 -2.94449 1 0 0
v -0.8 1 -2.77128 1 0 0
v -0.5 1 -2.59808 1 0 0
v -0.8 1 -2.77128 0 0 1
v -0.5 1 -2.94449 0 0 1
v -0.5 0 -2.94449 0 0 1
v -0.8 0 -2.77128 0 0 1
v 1.3 1 -1.55885 1 0 0
v 1.3 1 -1.90526 1 0 0
v 1 1 -1.73205 1 0 0
v 1.3 1 -1.90526 0 0 1
v 1.3 1 -1.55885 0 0 1
v 1.3 0 -1.55885 0 0 1
v 1.3 0 -1.90526 0 0 1
v -0.8 1 1.03923 1 0 0
v -0.5 1 1.21244 1 0 0
v -0.5 1 0.866025 1 0 0
v -0.5 1 1.21244 0 0 1
v -0.8 1 1.03923 0 0 1
v -0.8 0 1.03923 0 0 1
v -0.5 0 1.21244 0 0 1
v -2.3 1 -1.90526 1 0 0
v -2.3 1 -1.55885 1 0 0
v -2 1 -1.73205 1 0 0
v -2.3 1 -1.55885 0 0 1
v -2.3 1 -1.90526 0 0 1
v -2.3 0 -1.90526 0 0 1
v -2.3 0 -1.55885 0 0 1
v 1 1 2.07846 1 0 0
v 1.3 1 1.90526 1 0 0
v 1 1 1.73205 1 0 0
v 1.3 1 1.90526 0 0 1
v 1 1 2.07846 0 0 1
v 1 0 2.07846 0 0 1
v 1.3 0 1.90526 0 0 1
v -2 1 -2.07846 1 0 0
v -2 1 -2.07846 0 0 1
v -2 0 -2.07846 0 0 1
v 1 1 -2.07846 1 0 0
v 1 1 -2.07846 0 0 1
v 1 0 -2.07846 0 0 1
v 1.3 1 0.173205 1 0 0
v 1.3 1 -0.173205 1 0 0
v 1 1 0 1 0 0
v 1.3 1 -0.173205 0 0 1
v 1.3 1 0.173205 0 0 1
v 1.3 0 0.173205 0 0 1
v 1.3 0 -0.173205 0 0 1
v 0.7 1 1.90526 1 0 0
v 0.7 1 1.90526 0 0 1
v 0.7 0 1.90526 0 0 1
v 1.3 1 1.55885 1 0 0
v 1.3 1 1.55885 0 0 1
v 1.3 0 1.55885 0 0 1
v 1 1 -1.73205 0 1 0
v 1 1 0 0 1 0
v 1.3 1 -0.173205 0 1 0
v 1.3 1 -1.55885 0 1 0
v -2 1 -1.73205 0 1 0
v -0.5 1 -2.59808 0 1 0
v -0.8 1 -2.77128 0 1 0
v -2 1 -2.07846 0 1 0
v -0.2 1 -2.77128 1 0 0
v -0.2 1 -2.77128 0 0 1
v -0.2 0 -2.77128 0 0 1
v -0.5 1 0.866025 0 1 0
v -2 1 0 0 1 0
v -2 1 0.34641 0 1 0
v -0.8 1 1.03923 0 1 0
v -2 0 0.34641 0 0 1
v -2 1 0.34641 0 0 1
v -2.3 1 -0.173205 1 0 0
v -2.3 1 0.173205 1 0 0
v -2 1 0 1 0 0
v -2.3 1 0.173205 0 0 1
v -2.3 1 -0.173205 0 0 1
v -2.3 0 -0.173205 0 0 1
v -2.3 0 0.173205 0 0 1
v 1 1 -2.07846 0 1 0
v -0.2 1 -2.77128 0 1 0
v 1 1 1.73205 0 1 0
v -0.5 1 1.21244 0 1 0
v 0.7 1 1.90526 0 1 0
v -2 1 0.34641 1 0 0
v 1.3 1 1.55885 0 1 0
v 1.3 1 0.173205 0 1 0
v -2.3 1 -1.55885 0 1 0
v -2.3 1 -0.173205 0 1 0

vt 1 1
vt 0 0.5
vt 1 0
vt 0 0
vt 0 1
vt 0 0.5
vt 0 0.5
vt 1 0.5
vt 0 0.5
vt 1 0.5
vt 0 0.5
vt 1 0.1
vt 1 0.9
vt 1 0.833333
vt 0.8 1
vt 0 0.333333
vt 1 0.5
vt 1 0.166667
vt 0 0.666667
vt 0.8 0
vt 1 0.5
vt 0 0.833333
vt 1 0.333333
vt 0.2 1
vt 0 0.666667
vt 0.8 0
vt 1 0.9
vt 0 0.9
vt 0 0.1

f 1/1 2/2 3/3
f 4/4 5/3 6/1 7/5
f 8/3 9/1 10/6
f 11/1 12/3 13/4 14/5
f 15/7 16/3 17/1
f 18/3 19/4 20/5 21/1
f 22/5 23/4 24/8
f 25/3 26/1 27/5 28/4
f 29/4 30/8 31/5
f 32/3 33/4 34/5 35/1
f 36/1 22/9 24/3
f 26/4 37/3 38/1 27/5
f 9/10 39/5 10/4
f 40/4 11/3 14/1 41/5
f 42/3 43/1 44/11
f 45/1 46/3 47/4 48/5
f 49/6 29/3 31/1
f 33/3 50/4 51/5 34/1
f 30/3 52/1 31/9
f 53/1 32/3 35/4 54/5
f 55/5 56/4 57/12 58/13
f 48/4 13/5 12/1 45/3
f 59/4 60/14 61/15 62/16
f 7/1 38/5 37/4 4/3
f 63/17 1/5 3/4
f 5/4 64/3 65/1 6/5
f 66/18 67/5 68/19 69/20
f 70/5 20/1 19/3 71/4
f 72/5 73/4 74/21
f 75/3 76/1 77/5 78/4
f 60/22 55/3 79/23 80/24
f 41/1 65/5 64/4 40/3
f 81/18 66/5 82/25 83/26
f 21/5 51/1 50/3 18/4
f 73/11 84/3 74/1
f 71/3 75/4 78/5 70/1
f 56/5 81/4 85/12 86/27
f 54/4 47/5 46/1 53/3
f 67/3 59/1 87/28 88/29
f 28/5 77/4 76/3 25/1