v -2.3 1 1.90526 1 0 0
v -2 1 2.07846 1 0 0
v -2 1 1.73205 1 0 0
v -2 1 2.07846 0 0 1
v -2.3 1 1.90526 0 0 1
v -2.3 0 1.90526 0 0 1
v -2 0 2.07846 0 0 1
v 4 1 0.34641 1 0 0
v 4.3 1 0.173205 1 0 0
v 4 1 0 1 0 0
v 4.3 1 0.173205 0 0 1
v 4 1 0.34641 0 0 1
v 4 0 0.34641 0 0 1
v 4.3 0 0.173205 0 0 1
v 2.5 1 1.21244 1 0 0
v 2.8 1 1.03923 1 0 0
v 2.5 1 0.866025 1 0 0
v 2.8 1 1.03923 0 0 1
v 2.5 1 1.21244 0 0 1
v 2.5 0 1.21244 0 0 1
v 2.8 0 1.03923 0 0 1
v -0.5 1 -1.21244 1 0 0
v -0.8 1 -1.03923 1 0 0
v -0.5 1 -0.866025 1 0 0
v -0.8 1 -1.03923 0 0 1
v -0.5 1 -1.21244 0 0 1
v -0.5 0 -1.21244 0 0 1
v -0.8 0 -1.03923 0 0 1
v -2 1 0 1 0 0
v -2 1 -0.34641 1 0 0
v -2 0 -0.34641 0 0 1
v -2 1 -0.34641 0 0 1
v 2.8 1 -1.03923 1 0 0
v 2.5 1 -1.21244 1 0 0
v 2.5 1 -0.866025 1 0 0
v 2.5 1 -1.21244 0 0 1
v 2.8 1 -1.03923 0 0 1
v 2.8 0 -1.03923 0 0 1
v 2.5 0 -1.21244 0 0 1
v 4.3 1 -0.173205 1 0 0
v 4 1 -0.34641 1 0 0
v 4 1 -0.34641 0 0 1
v 4.3 1 -0.173205 0 0 1
v 4.3 0 -0.173205 0 0 1
v 4 0 -0.34641 0 0 1
v -2.3 1 1.55885 1 0 0
v -2.3 1 1.55885 0 0 1
v -2.3 0 1.55885 0 0 1
v -0.5 1 0.866025 1 0 0
v -1.7 1 1.90526 1 0 0
v -0.5 1 1.21244 1 0 0
v -1.7 0 1.90526 0 0 1
v -0.5 0 1.21244 0 0 1
v -0.5 1 1.21244 0 0 1
v -1.7 1 1.90526 0 0 1
v 1 1 1.73205 1 0 0
v 0.7 1 1.90526 1 0 0
v 0.7 0 1.90526 0 0 1
v 0.7 1 1.90526 0 0 1
v -2.3 1 -0.173205 1 0 0
v -2.3 1 0.173205 1 0 0
v -2.3 1 0.173205 0 0 1
v -2.3 1 -0.173205 0 0 1
v -2.3 0 -0.173205 0 0 1
v -2.3 0 0.173205 0 0 1
v 2.2 1 -1.03923 1 0 0
v 2.2 1 -1.03923 0 0 1
v 2.2 0 -1.03923 0 0 1
v 1 1 2.07846 1 0 0
v 1 1 2.07846 0 0 1
v 1 0 2.07846 0 0 1
v 1.3 1 1.90526 1 0 0
v 1.3 0 1.90526 0 0 1
v 1.3 1 1.90526 0 0 1
v 1 1 0 1 0 0
v 1 1 -0.34641 1 0 0
v 1 0 -0.34641 0 0 1
v 1 1 -0.34641 0 0 1
v -0.2 1 -1.03923 1 0 0
v -0.2 1 -1.03923 0 0 1
v -0.2 0 -1.03923 0 0 1
v 2.5 1 0.866025 0 1 0
v 4 1 0 0 1 0
v 2.5 1 -0.866025 0 1 0
v 1 1 0 0 1 0
v 1 1 1.73205 0 1 0
v -0.5 1 0.866025 0 1 0
v -0.5 1 -0.866025 0 1 0
v -2 1 0 0 1 0
v -2 1 1.73205 0 1 0

f 1 2 3
f 4 5 6 7
f 8 9 10
f 11 12 13 14
f 15 16 17
f 18 19 20 21
f 22 23 24
f 25 26 27 28
f 29 24 23 30
f 28 31 32 25
f 33 34 35
f 36 37 38 39
f 40 41 10
f 42 43 44 45
f 46 1 3
f 5 47 48 6
f 49 3 50 51
f 52 53 54 55
f 56 49 51 57
f 53 58 59 54
f 60 61 29
f 62 63 64 65
f 30 60 29
f 63 32 31 64
f 35 10 41 33
f 45 38 37 42
f 34 66 35
f 67 36 39 68
f 57 69 56
f 70 59 58 71
f 10 17 16 8
f 21 13 12 18
f 9 40 10
f 43 11 14 44
f 3 29 61 46
f 65 48 47 62
f 17 56 72 15
f 73 20 19 74
f 75 35 66 76
f 68 77 78 67
f 79 22 24
f 26 80 81 27
f 69 72 56
f 74 70 71 73
f 2 50 3
f 55 4 7 52
f 24 75 76 79
f 77 81 80 78
f 82 83 84
f 84 85 82
f 86 82 85
f 85 87 86
f 87 85 88
f 88 89 87
f 90 87 89