v -0.8 1 1.03923 1 0 0
v -0.5 1 1.21244 1 0 0
v -0.5 1 0.866025 1 0 0
v -0.5 1 1.21244 0 0 1
v -0.8 1 1.03923 0 0 1
v -0.8 0 1.03923 0 0 1
v -0.5 0 1.21244 0 0 1
v 2.5 1 1.21244 1 0 0
v 2.8 1 1.03923 1 0 0
v 2.5 1 0.866025 1 0 0
v 2.8 1 1.03923 0 0 1
v 2.5 1 1.21244 0 0 1
v 2.5 0 1.21244 0 0 1
v 2.8 0 1.03923 0 0 1
v -0.5 1 -0.866025 1 0 0
v -0.8 1 -0.69282 1 0 0
v -0.8 1 0.69282 1 0 0
v -0.8 0 -0.69282 0 0 1
v -0.8 0 0.69282 0 0 1
v -0.8 1 0.69282 0 0 1
v -0.8 1 -0.69282 0 0 1
v 1 1 -1.73205 1 0 0
v 2.5 1 -0.866025 1 0 0
v 2.5 1 -1.21244 1 0 0
v 1.3 1 -1.90526 1 0 0
v 2.5 0 -1.21244 0 0 1
v 1.3 0 -1.90526 0 0 1
v 1.3 1 -1.90526 0 0 1
v 2.5 1 -1.21244 0 0 1
v 1 1 1.73205 1 0 0
v 0.7 1 1.90526 1 0 0
v 0.7 0 1.90526 0 0 1
v 0.7 1 1.90526 0 0 1
v 1 1 -2.07846 1 0 0
v 1 1 -2.07846 0 0 1
v 1 0 -2.07846 0 0 1
v 2.8 1 -0.69282 1 0 0
v 2.8 1 -1.03923 1 0 0
v 2.8 1 -1.03923 0 0 1
v 2.8 1 -0.69282 0 0 1
v 2.8 0 -0.69282 0 0 1
v 2.8 0 -1.03923 0 0 1
v -2 1 -1.73205 1 0 0
v -2 1 -1.38564 1 0 0
v -2 0 -1.38564 0 0 1
v -2 1 -1.38564 0 0 1
v 1 1 2.07846 1 0 0
v 1.3 1 1.90526 1 0 0
v 1.3 1 1.90526 0 0 1
v 1 1 2.07846 0 0 1
v 1 0 2.07846 0 0 1
v 1.3 0 1.90526 0 0 1
v -2 1 -2.07846 1 0 0
v -2.3 1 -1.90526 1 0 0
v -2.3 1 -1.90526 0 0 1
v -2 1 -2.07846 0 0 1
v -2 0 -2.07846 0 0 1
v -2.3 0 -1.90526 0 0 1
v -2.3 1 -1.55885 1 0 0
v -2.3 1 -1.55885 0 0 1
v -2.3 0 -1.55885 0 0 1
v -0.5 1 -2.59808 1 0 0
v -0.8 1 -2.77128 1 0 0
v -0.8 0 -2.77128 0 0 1
v -0.8 1 -2.77128 0 0 1
v -0.2 1 -2.77128 1 0 0
v -0.2 0 -2.77128 0 0 1
v -0.2 1 -2.77128 0 0 1
v 2.8 1 0.69282 1 0 0
v 2.8 1 0.69282 0 0 1
v 2.8 0 0.69282 0 0 1
v -0.5 1 -2.94449 1 0 0
v -0.5 1 -2.94449 0 0 1
v -0.5 0 -2.94449 0 0 1
v 1 1 0 0 1 0
v -0.5 1 0.866025 0 1 0
v 1 1 1.73205 0 1 0
v 2.5 1 0.866025 0 1 0
v 2.5 1 -0.866025 0 1 0
v 1 1 -1.73205 0 1 0
v -0.5 1 -0.866025 0 1 0
v -0.5 1 -2.59808 0 1 0
v -2 1 -1.73205 0 1 0

f 1 2 3
f 4 5 6 7
f 8 9 10
f 11 12 13 14
f 3 15 16 17
f 18 19 20 21
f 22 23 24 25
f 26 27 28 29
f 30 3 2 31
f 7 32 33 4
f 25 34 22
f 35 28 27 36
f 37 38 23
f 39 40 41 42
f 17 1 3
f 5 20 19 6
f 15 43 44 16
f 45 18 21 46
f 47 48 30
f 49 50 51 52
f 53 54 43
f 55 56 57 58
f 10 30 48 8
f 52 13 12 49
f 59 44 43
f 46 60 61 45
f 38 24 23
f 29 39 42 26
f 43 62 63 53
f 64 57 56 65
f 62 22 34 66
f 36 67 68 35
f 9 69 10
f 70 11 14 71
f 66 72 62
f 73 68 67 74
f 72 63 62
f 65 73 74 64
f 31 47 30
f 50 33 32 51
f 54 59 43
f 60 55 58 61
f 23 10 69 37
f 71 41 40 70
f 75 76 77
f 77 78 75
f 79 75 78
f 75 79 80
f 80 81 75
f 81 80 82
f 82 83 81