v 0.25 0 -1.29904 1 0.52549 0.439216
v -0.125 0 -1.08253 1 0.52549 0.439216
v -0.125 0.3 -1.08253 1 0.52549 0.439216
v 0.25 0.3 -1.29904 1 0.52549 0.439216
v 0.25 0.45 -1.29904 1 0.52549 0.439216
v 0.625 0.45 -1.51554 1 0.52549 0.439216
v 0.625 0 -1.51554 1 0.52549 0.439216
v 0.625 0.6 -1.51554 1 0.52549 0.439216
v 1 0.6 -1.73205 1 0.52549 0.439216
v 1 0 -1.73205 1 0.52549 0.439216
v -0.5 0.15 -0.866025 1 0.52549 0.439216
v -0.125 0.15 -0.649519 1 0.52549 0.439216
v -0.125 0.15 -1.08253 1 0.52549 0.439216
v -0.125 0 -0.649519 1 0.52549 0.439216
v -0.5 0 -0.866025 1 0.52549 0.439216
v -0.125 0.3 -0.649519 1 0.52549 0.439216
v 0.25 0.3 -0.433013 1 0.52549 0.439216
v 0.25 0 -0.433013 1 0.52549 0.439216
v 0.25 0.45 -0.433013 1 0.52549 0.439216
v 0.625 0.45 -0.216506 1 0.52549 0.439216
v 0.625 0 -0.216506 1 0.52549 0.439216
v 0.625 0.6 -0.216506 1 0.52549 0.439216
v 1 0 -1.6e-11 1 0.52549 0.439216
v 0.625 0 0.216506 1 0.52549 0.439216
v 0.625 0 -0.216506 1 0.52549 0.439216
v 1 0 -8e-12 1 0.52549 0.439216
v 0.25 0 0.433013 1 0.52549 0.439216
v 0.25 0 -0.433013 1 0.52549 0.439216
v -0.125 0 0.649519 1 0.52549 0.439216
v -0.125 0 -0.649519 1 0.52549 0.439216
v -0.5 0 0.866025 1 0.52549 0.439216
v -0.5 0 -0.866025 1 0.52549 0.439216
v -0.5 0.15 0.866025 1 0.52549 0.439216
v -0.5 0.15 -0.866025 1 0.52549 0.439216
v 1 0.6 -1.6e-11 1 0.52549 0.439216
v 1 0.6 -8e-12 1 0.52549 0.439216
v 0.625 0.6 -0.216506 1 0.52549 0.439216
v 0.625 0.6 0.216506 1 0.52549 0.439216
v 0.625 0.45 -0.216506 1 0.52549 0.439216
v 0.625 0.45 0.216506 1 0.52549 0.439216
v 0.25 0.45 -0.433013 1 0.52549 0.439216
v 0.25 0.45 0.433013 1 0.52549 0.439216
v 0.25 0.3 -0.433013 1 0.52549 0.439216
v 0.25 0.3 0.433013 1 0.52549 0.439216
v -0.125 0.3 -0.649519 1 0.52549 0.439216
v -0.125 0.3 0.649519 1 0.52549 0.439216
v -0.125 0.15 -0.649519 1 0.52549 0.439216
v -0.125 0.15 0.649519 1 0.52549 0.439216
v -0.125 0 1.08253 1 0.52549 0.439216
v 0.25 0 1.29904 1 0.52549 0.439216
v 0.25 0.3 1.29904 1 0.52549 0.439216
v -0.125 0.3 1.08253 1 0.52549 0.439216
v 0.625 0.45 1.51554 1 0.52549 0.439216
v 0.25 0.45 1.29904 1 0.52549 0.439216
v 0.625 0 1.51554 1 0.52549 0.439216
v 1 0.6 1.73205 1 0.52549 0.439216
v 0.625 0.6 1.51554 1 0.52549 0.439216
v 1 0 1.73205 1 0.52549 0.439216
v -0.125 0 0.649519 1 0.52549 0.439216
v -0.5 0 0.866025 1 0.52549 0.439216
v 0.25 0 0.433013 1 0.52549 0.439216
v 0.625 0 0.216506 1 0.52549 0.439216
v 1 0 8e-12 1 0.52549 0.439216
v -0.125 0.15 1.08253 1 0.52549 0.439216
v -0.5 0.15 0.866025 1 0.52549 0.439216
v -0.125 0.15 0.649519 1 0.52549 0.439216
v -0.125 0.3 0.649519 1 0.52549 0.439216
v 0.25 0.3 0.433013 1 0.52549 0.439216
v 0.25 0.45 0.433013 1 0.52549 0.439216
v 1 0.6 8e-12 1 0.52549 0.439216
v 0.625 0.6 0.216506 1 0.52549 0.439216
v 0.625 0.45 0.216506 1 0.52549 0.439216

f 1 2 3 4
f 5 6 7 1
f 8 9 10 7
f 11 12 13
f 2 14 15
f 2 15 11 13
f 3 13 12 16
f 16 17 4 3
f 2 1 18 14
f 19 20 6 5
f 1 7 21 18
f 19 5 4 17
f 22 8 6 20
f 7 10 23 21
f 24 25 26
f 24 27 28 25
f 27 29 30 28
f 29 31 32 30
f 32 31 33 34
f 22 35 9 8
f 9 35 23 10
f 36 37 38
f 37 39 40 38
f 39 41 42 40
f 41 43 44 42
f 43 45 46 44
f 45 47 48 46
f 47 34 33 48
f 49 50 51 52
f 53 54 50 55
f 56 57 55 58
f 59 49 60
f 59 61 50 49
f 61 62 55 50
f 62 63 58 55
f 60 49 64 65
f 65 64 66
f 67 66 64 52
f 52 51 68 67
f 54 69 68 51
f 57 56 70 71
f 57 71 72 53
f 70 56 58 63
f 54 53 72 69