v -0.125 0 0.649519 0.662745 0.545098 0.462745
v -0.375 0 0.649519 0.662745 0.545098 0.462745
v -0.375 0.02 0.649519 0.662745 0.545098 0.462745
v -0.125 0.02 0.649519 0.662745 0.545098 0.462745
v -0.5 0 0.866025 0.662745 0.545098 0.462745
v -0.5 0.02 0.866025 0.662745 0.545098 0.462745
v -0.125 0 0.649519 0.74902 0.635294 0.54902
v -0.5 0 0.433013 0.74902 0.635294 0.54902
v -0.5 0.02 0.433013 0.74902 0.635294 0.54902
v -0.125 0.02 0.649519 0.74902 0.635294 0.54902
v -0.375 0 0.649519 0.74902 0.635294 0.54902
v -0.375 0.02 0.649519 0.74902 0.635294 0.54902
v -0.5 0 0.866025 0.952941 0.894118 0.788235
v -0.375 0 0.649519 0.952941 0.894118 0.788235
v -0.375 0.02 0.649519 0.952941 0.894118 0.788235
v -0.5 0.02 0.866025 0.952941 0.894118 0.788235
v -0.5 0 0.433013 0.952941 0.894118 0.788235
v -0.5 0.02 0.433013 0.952941 0.894118 0.788235
v -0.125 0 0.216506 0.662745 0.545098 0.462745
v -0.125 0.02 0.216506 0.662745 0.545098 0.462745
v -0.25 0 0.433013 0.662745 0.545098 0.462745
v -0.25 0.02 0.433013 0.662745 0.545098 0.462745
v -0.125 0 0.216506 0.74902 0.635294 0.54902
v -0.125 0.02 0.216506 0.74902 0.635294 0.54902
v -0.25 0 0.433013 0.74902 0.635294 0.54902
v -0.25 0.02 0.433013 0.74902 0.635294 0.54902
v -0.125 0 0.649519 0.952941 0.894118 0.788235
v -0.125 0.02 0.649519 0.952941 0.894118 0.788235
v -0.25 0 0.433013 0.952941 0.894118 0.788235
v -0.25 0.02 0.433013 0.952941 0.894118 0.788235
v 0.25 0 0.433013 0.662745 0.545098 0.462745
v 0 0 0.433013 0.662745 0.545098 0.462745
v 0 0.02 0.433013 0.662745 0.545098 0.462745
v 0.25 0.02 0.433013 0.662745 0.545098 0.462745
v 0.25 0 0.433013 0.74902 0.635294 0.54902
v 0.25 0.02 0.433013 0.74902 0.635294 0.54902
v 0 0 0.433013 0.74902 0.635294 0.54902
v 0 0.02 0.433013 0.74902 0.635294 0.54902
v -0.125 0 0.216506 0.952941 0.894118 0.788235
v -0.125 0.02 0.216506 0.952941 0.894118 0.788235
v 0 0 0.433013 0.952941 0.894118 0.788235
v 0 0.02 0.433013 0.952941 0.894118 0.788235
v 0.25 0 0 0.662745 0.545098 0.462745
v 0.25 0.02 0 0.662745 0.545098 0.462745
v 0.125 0 0.216506 0.662745 0.545098 0.462745
v 0.125 0.02 0.216506 0.662745 0.545098 0.462745
v 0.25 0 0 0.74902 0.635294 0.54902
v 0.25 0.02 0 0.74902 0.635294 0.54902
v 0.125 0 0.216506 0.74902 0.635294 0.54902
v 0.125 0.02 0.216506 0.74902 0.635294 0.54902
v 0.25 0 0.433013 0.952941 0.894118 0.788235
v 0.25 0.02 0.433013 0.952941 0.894118 0.788235
v 0.125 0 0.216506 0.952941 0.894118 0.788235
v 0.125 0.02 0.216506 0.952941 0.894118 0.788235
v 0.625 0 0.216506 0.662745 0.545098 0.462745
v 0.375 0 0.216506 0.662745 0.545098 0.462745
v 0.375 0.02 0.216506 0.662745 0.545098 0.462745
v 0.625 0.02 0.216506 0.662745 0.545098 0.462745
v 0.625 0 0.216506 0.74902 0.635294 0.54902
v 0.625 0.02 0.216506 0.74902 0.635294 0.54902
v 0.375 0 0.216506 0.74902 0.635294 0.54902
v 0.375 0.02 0.216506 0.74902 0.635294 0.54902
v 0.25 0 0 0.952941 0.894118 0.788235
v 0.25 0.02 0 0.952941 0.894118 0.788235
v 0.375 0 0.216506 0.952941 0.894118 0.788235
v 0.375 0.02 0.216506 0.952941 0.894118 0.788235
v 0.625 0 -0.216506 0.662745 0.545098 0.462745
v 0.625 0.02 -0.216506 0.662745 0.545098 0.462745
v 0.5 0 0 0.662745 0.545098 0.462745
v 0.5 0.02 0 0.662745 0.545098 0.462745
v 0.625 0 -0.216506 0.74902 0.635294 0.54902
v 0.625 0.02 -0.216506 0.74902 0.635294 0.54902
v 0.5 0 0 0.74902 0.635294 0.54902
v 0.5 0.02 0 0.74902 0.635294 0.54902
v 0.625 0 0.216506 0.952941 0.894118 0.788235
v 0.625 0.02 0.216506 0.952941 0.894118 0.788235
v 0.5 0 0 0.952941 0.894118 0.788235
v 0.5 0.02 0 0.952941 0.894118 0.788235
v 1 0 0 0.662745 0.545098 0.462745
v 0.75 0 0 0.662745 0.545098 0.462745
v 0.75 0.02 0 0.662745 0.545098 0.462745
v 1 0.02 0 0.662745 0.545098 0.462745
v 0.75 0 0 0.74902 0.635294 0.54902
v 0.75 0.02 0 0.74902 0.635294 0.54902
v 1 0 0 0.74902 0.635294 0.54902
v 1 0.02 0 0.74902 0.635294 0.54902
v 0.625 0 -0.216506 0.952941 0.894118 0.788235
v 0.625 0.02 -0.216506 0.952941 0.894118 0.788235
v 0.75 0 0 0.952941 0.894118 0.788235
v 0.75 0.02 0 0.952941 0.894118 0.788235
v -0.5 0 0.433013 0.662745 0.545098 0.462745
v -0.5 0.02 0.433013 0.662745 0.545098 0.462745
v -0.375 0 0.216506 0.662745 0.545098 0.462745
v -0.375 0.02 0.216506 0.662745 0.545098 0.462745
v -0.5 0 0 0.74902 0.635294 0.54902
v -0.5 0.02 0 0.74902 0.635294 0.54902
v -0.375 0 0.216506 0.74902 0.635294 0.54902
v -0.375 0.02 0.216506 0.74902 0.635294 0.54902
v -0.375 0 0.216506 0.952941 0.894118 0.788235
v -0.375 0.02 0.216506 0.952941 0.894118 0.788235
v -0.5 0 0 0.952941 0.894118 0.788235
v -0.5 0.02 0 0.952941 0.894118 0.788235
v -0.125 0 -0.216506 0.662745 0.545098 0.462745
v -0.125 0.02 -0.216506 0.662745 0.545098 0.462745
v -0.25 0 0 0.662745 0.545098 0.462745
v -0.25 0.02 0 0.662745 0.545098 0.462745
v -0.125 0 -0.216506 0.74902 0.635294 0.54902
v -0.125 0.02 -0.216506 0.74902 0.635294 0.54902
v -0.25 0 0 0.74902 0.635294 0.54902
v -0.25 0.02 0 0.74902 0.635294 0.54902
v -0.25 0 0 0.952941 0.894118 0.788235
v -0.25 0.02 0 0.952941 0.894118 0.788235
v 0 0 0 0.662745 0.545098 0.462745
v 0 0.02 0 0.662745 0.545098 0.462745
v 0 0 0 0.74902 0.635294 0.54902
v 0 0.02 0 0.74902 0.635294 0.54902
v -0.125 0 -0.216506 0.952941 0.894118 0.788235
v -0.125 0.02 -0.216506 0.952941 0.894118 0.788235
v 0 0 0 0.952941 0.894118 0.788235
v 0 0.02 0 0.952941 0.894118 0.788235
v 0.25 0 -0.433013 0.662745 0.545098 0.462745
v 0.25 0.02 -0.433013 0.662745 0.545098 0.462745
v 0.125 0 -0.216506 0.662745 0.545098 0.462745
v 0.125 0.02 -0.216506 0.662745 0.545098 0.462745
v 0.25 0 -0.433013 0.74902 0.635294 0.54902
v 0.25 0.02 -0.433013 0.74902 0.635294 0.54902
v 0.125 0 -0.216506 0.74902 0.635294 0.54902
v 0.125 0.02 -0.216506 0.74902 0.635294 0.54902
v 0.125 0 -0.216506 0.952941 0.894118 0.788235
v 0.125 0.02 -0.216506 0.952941 0.894118 0.788235
v 0.375 0 -0.216506 0.662745 0.545098 0.462745
v 0.375 0.02 -0.216506 0.662745 0.545098 0.462745
v 0.375 0 -0.216506 0.74902 0.635294 0.54902
v 0.375 0.02 -0.216506 0.74902 0.635294 0.54902
v 0.25 0 -0.433013 0.952941 0.894118 0.788235
v 0.25 0.02 -0.433013 0.952941 0.894118 0.788235
v 0.375 0 -0.216506 0.952941 0.894118 0.788235
v 0.375 0.02 -0.216506 0.952941 0.894118 0.788235
v -0.5 0 0 0.662745 0.545098 0.462745
v -0.5 0.02 0 0.662745 0.545098 0.462745
v -0.375 0 -0.216506 0.662745 0.545098 0.462745
v -0.375 0.02 -0.216506 0.662745 0.545098 0.462745
v -0.5 0 -0.433013 0.74902 0.635294 0.54902
v -0.5 0.02 -0.433013 0.74902 0.635294 0.54902
v -0.375 0 -0.216506 0.74902 0.635294 0.54902
v -0.375 0.02 -0.216506 0.74902 0.635294 0.54902
v -0.375 0 -0.216506 0.952941 0.894118 0.788235
v -0.375 0.02 -0.216506 0.952941 0.894118 0.788235
v -0.5 0 -0.433013 0.952941 0.894118 0.788235
v -0.5 0.02 -0.433013 0.952941 0.894118 0.788235
v -0.125 0 -0.649519 0.662745 0.545098 0.462745
v -0.125 0.02 -0.649519 0.662745 0.545098 0.462745
v -0.25 0 -0.433013 0.662745 0.545098 0.462745
v -0.25 0.02 -0.433013 0.662745 0.545098 0.462745
v -0.125 0 -0.649519 0.74902 0.635294 0.54902
v -0.125 0.02 -0.649519 0.74902 0.635294 0.54902
v -0.25 0 -0.433013 0.74902 0.635294 0.54902
v -0.25 0.02 -0.433013 0.74902 0.635294 0.54902
v -0.25 0 -0.433013 0.952941 0.894118 0.788235
v -0.25 0.02 -0.433013 0.952941 0.894118 0.788235
v 0 0 -0.433013 0.662745 0.545098 0.462745
v 0 0.02 -0.433013 0.662745 0.545098 0.462745
v 0 0 -0.433013 0.74902 0.635294 0.54902
v 0 0.02 -0.433013 0.74902 0.635294 0.54902
v -0.125 0 -0.649519 0.952941 0.894118 0.788235
v -0.125 0.02 -0.649519 0.952941 0.894118 0.788235
v 0 0 -0.433013 0.952941 0.894118 0.788235
v 0 0.02 -0.433013 0.952941 0.894118 0.788235
v -0.5 0 -0.433013 0.662745 0.545098 0.462745
v -0.5 0.02 -0.433013 0.662745 0.545098 0.462745
v -0.375 0 -0.649519 0.662745 0.545098 0.462745
v -0.375 0.02 -0.649519 0.662745 0.545098 0.462745
v -0.5 0 -0.866025 0.74902 0.635294 0.54902
v -0.375 0 -0.649519 0.74902 0.635294 0.54902
v -0.375 0.02 -0.649519 0.74902 0.635294 0.54902
v -0.5 0.02 -0.866025 0.74902 0.635294 0.54902
v -0.375 0 -0.649519 0.952941 0.894118 0.788235
v -0.375 0.02 -0.649519 0.952941 0.894118 0.788235
v -0.5 0 -0.866025 0.952941 0.894118 0.788235
v -0.5 0.02 -0.866025 0.952941 0.894118 0.788235

f 1 2 3 4
f 2 5 6 3
f 7 8 9 10
f 8 11 12 9
f 11 7 10 12
f 13 14 15 16
f 14 17 18 15
f 1 19 20 4
f 19 21 22 20
f 21 1 4 22
f 23 8 9 24
f 8 25 26 9
f 25 23 24 26
f 17 27 28 18
f 27 29 30 28
f 29 17 18 30
f 31 32 33 34
f 32 1 4 33
f 35 23 24 36
f 23 37 38 24
f 37 35 36 38
f 39 27 28 40
f 27 41 42 28
f 41 39 40 42
f 31 43 44 34
f 43 45 46 44
f 45 31 34 46
f 47 23 24 48
f 23 49 50 24
f 49 47 48 50
f 39 51 52 40
f 51 53 54 52
f 53 39 40 54
f 6 4 3
f 10 9 12
f 18 16 15
f 4 20 22
f 24 9 26
f 18 28 30
f 4 34 33
f 36 24 38
f 40 28 42
f 34 44 46
f 48 24 50
f 40 52 54
f 17 13 16 18
f 5 1 4 6
f 1 31 34 4
f 2 1 5
f 11 8 7
f 14 13 17
f 21 19 1
f 25 8 23
f 29 27 17
f 32 31 1
f 37 23 35
f 41 27 39
f 45 43 31
f 49 23 47
f 53 51 39
f 55 56 57 58
f 56 31 34 57
f 59 47 48 60
f 47 61 62 48
f 61 59 60 62
f 63 51 52 64
f 51 65 66 52
f 65 63 64 66
f 55 67 68 58
f 67 69 70 68
f 69 55 58 70
f 71 47 48 72
f 47 73 74 48
f 73 71 72 74
f 63 75 76 64
f 75 77 78 76
f 77 63 64 78
f 79 80 81 82
f 80 55 58 81
f 71 83 84 72
f 83 85 86 84
f 87 75 76 88
f 75 89 90 76
f 89 87 88 90
f 91 19 20 92
f 19 93 94 20
f 93 91 92 94
f 23 95 96 24
f 95 97 98 96
f 97 23 24 98
f 17 99 100 18
f 99 101 102 100
f 34 58 57
f 60 48 62
f 64 52 66
f 58 68 70
f 72 48 74
f 64 76 78
f 58 82 81
f 86 72 84
f 88 76 90
f 92 20 94
f 24 96 98
f 102 18 100
f 101 17 18 102
f 85 71 72 86
f 31 55 58 34
f 55 79 82 58
f 56 55 31
f 61 47 59
f 65 51 63
f 69 67 55
f 73 47 71
f 77 75 63
f 80 79 55
f 83 71 85
f 89 75 87
f 93 19 91
f 97 95 23
f 99 17 101
f 19 103 104 20
f 103 105 106 104
f 105 19 20 106
f 107 95 96 108
f 95 109 110 96
f 109 107 108 110
f 101 39 40 102
f 39 111 112 40
f 111 101 102 112
f 19 43 44 20
f 43 113 114 44
f 113 19 20 114
f 47 107 108 48
f 107 115 116 108
f 115 47 48 116
f 117 39 40 118
f 39 119 120 40
f 119 117 118 120
f 43 121 122 44
f 121 123 124 122
f 123 43 44 124
f 125 107 108 126
f 107 127 128 108
f 127 125 126 128
f 117 63 64 118
f 63 129 130 64
f 129 117 118 130
f 43 67 68 44
f 67 131 132 68
f 131 43 44 132
f 125 133 134 126
f 133 71 72 134
f 135 63 64 136
f 63 137 138 64
f 137 135 136 138
f 20 104 106
f 108 96 110
f 102 40 112
f 20 44 114
f 48 108 116
f 118 40 120
f 44 122 124
f 126 108 128
f 118 64 130
f 44 68 132
f 72 126 134
f 136 64 138
f 71 125 126 72
f 105 103 19
f 109 95 107
f 111 39 101
f 113 43 19
f 115 107 47
f 119 39 117
f 123 121 43
f 127 107 125
f 129 63 117
f 131 67 43
f 133 125 71
f 137 63 135
f 139 103 104 140
f 103 141 142 104
f 141 139 140 142
f 107 143 144 108
f 143 145 146 144
f 145 107 108 146
f 101 147 148 102
f 147 149 150 148
f 103 151 152 104
f 151 153 154 152
f 153 103 104 154
f 155 143 144 156
f 143 157 158 144
f 157 155 156 158
f 149 117 118 150
f 117 159 160 118
f 159 149 150 160
f 103 121 122 104
f 121 161 162 122
f 161 103 104 162
f 155 163 164 156
f 163 125 126 164
f 165 117 118 166
f 117 167 168 118
f 167 165 166 168
f 169 151 152 170
f 151 171 172 152
f 171 169 170 172
f 173 174 175 176
f 174 155 156 175
f 149 177 178 150
f 177 179 180 178
f 140 104 142
f 108 144 146
f 150 102 148
f 104 152 154
f 156 144 158
f 150 118 160
f 104 122 162
f 126 156 164
f 166 118 168
f 170 152 172
f 156 176 175
f 180 150 178
f 149 101 102 150
f 179 149 150 180
f 125 155 156 126
f 155 173 176 156
f 141 103 139
f 145 143 107
f 147 101 149
f 153 151 103
f 157 143 155
f 159 117 149
f 161 121 103
f 163 155 125
f 167 117 165
f 171 151 169
f 174 173 155
f 177 149 179