v -0.3125 0 0.757772 0.952941 0.894118 0.788235
v -0.5 0 0.649519 0.952941 0.894118 0.788235
v -0.5 0.02 0.649519 0.952941 0.894118 0.788235
v -0.3125 0.02 0.757772 0.952941 0.894118 0.788235
v -0.375 0 0.649519 0.662745 0.545098 0.462745
v -0.5 0 0.649519 0.662745 0.545098 0.462745
v -0.5 0.02 0.649519 0.662745 0.545098 0.462745
v -0.375 0.02 0.649519 0.662745 0.545098 0.462745
v -0.3125 0 0.757772 0.662745 0.545098 0.462745
v -0.3125 0.02 0.757772 0.662745 0.545098 0.462745
v -0.125 0 0.649519 0.952941 0.894118 0.788235
v -0.3125 0 0.541266 0.952941 0.894118 0.788235
v -0.3125 0.02 0.541266 0.952941 0.894118 0.788235
v -0.125 0.02 0.649519 0.952941 0.894118 0.788235
v -0.3125 0 0.541266 0.662745 0.545098 0.462745
v -0.3125 0.02 0.541266 0.662745 0.545098 0.462745
v -0.5 0 0.433013 0.662745 0.545098 0.462745
v -0.5 0.02 0.433013 0.662745 0.545098 0.462745
v -0.125 0 0.649519 0.729412 0.74902 0.580392
v -0.125 0 0.433013 0.729412 0.74902 0.580392
v -0.125 0.02 0.433013 0.729412 0.74902 0.580392
v -0.125 0.02 0.649519 0.729412 0.74902 0.580392
v -0.3125 0 0.541266 0.729412 0.74902 0.580392
v -0.3125 0.02 0.541266 0.729412 0.74902 0.580392
v -0.25 0 0.433013 0.662745 0.545098 0.462745
v -0.25 0.02 0.433013 0.662745 0.545098 0.462745
v -0.125 0 0.433013 0.662745 0.545098 0.462745
v -0.125 0.02 0.433013 0.662745 0.545098 0.462745
v -0.125 0 0.216506 0.729412 0.74902 0.580392
v -0.3125 0 0.32476 0.729412 0.74902 0.580392
v -0.3125 0.02 0.32476 0.729412 0.74902 0.580392
v -0.125 0.02 0.216506 0.729412 0.74902 0.580392
v -0.3125 0 0.32476 0.662745 0.545098 0.462745
v -0.3125 0.02 0.32476 0.662745 0.545098 0.462745
v -0.5 0 0.433013 0.952941 0.894118 0.788235
v -0.5 0.02 0.433013 0.952941 0.894118 0.788235
v -0.3125 0 0.32476 0.952941 0.894118 0.788235
v -0.3125 0.02 0.32476 0.952941 0.894118 0.788235
v -0.5 0.02 0.866025 0.952941 0.894118 0.788235
v -0.5 0 0.866025 0.952941 0.894118 0.788235
v 0.0625 0 0.541266 0.729412 0.74902 0.580392
v 0.0625 0.02 0.541266 0.729412 0.74902 0.580392
v 0 0 0.433013 0.662745 0.545098 0.462745
v 0 0.02 0.433013 0.662745 0.545098 0.462745
v 0.0625 0 0.541266 0.662745 0.545098 0.462745
v 0.0625 0.02 0.541266 0.662745 0.545098 0.462745
v 0.25 0 0.433013 0.74902 0.635294 0.54902
v 0.0625 0 0.32476 0.74902 0.635294 0.54902
v 0.0625 0.02 0.32476 0.74902 0.635294 0.54902
v 0.25 0.02 0.433013 0.74902 0.635294 0.54902
v 0.0625 0 0.541266 0.74902 0.635294 0.54902
v 0.0625 0.02 0.541266 0.74902 0.635294 0.54902
v 0.0625 0 0.32476 0.662745 0.545098 0.462745
v 0.0625 0.02 0.32476 0.662745 0.545098 0.462745
v -0.125 0 0.216506 0.952941 0.894118 0.788235
v -0.125 0 0.433013 0.952941 0.894118 0.788235
v -0.125 0.02 0.433013 0.952941 0.894118 0.788235
v -0.125 0.02 0.216506 0.952941 0.894118 0.788235
v 0.0625 0 0.32476 0.952941 0.894118 0.788235
v 0.0625 0.02 0.32476 0.952941 0.894118 0.788235
v 0.25 0 0.216506 0.74902 0.635294 0.54902
v 0.25 0.02 0.216506 0.74902 0.635294 0.54902
v 0.125 0 0.216506 0.662745 0.545098 0.462745
v 0.125 0.02 0.216506 0.662745 0.545098 0.462745
v 0.25 0 0.216506 0.662745 0.545098 0.462745
v 0.25 0.02 0.216506 0.662745 0.545098 0.462745
v 0.25 0 0 0.729412 0.74902 0.580392
v 0.0625 0 0.108253 0.729412 0.74902 0.580392
v 0.0625 0.02 0.108253 0.729412 0.74902 0.580392
v 0.25 0.02 0 0.729412 0.74902 0.580392
v 0.25 0 0.216506 0.729412 0.74902 0.580392
v 0.25 0.02 0.216506 0.729412 0.74902 0.580392
v 0.0625 0.02 0.108253 0.662745 0.545098 0.462745
v 0.0625 0 0.108253 0.662745 0.545098 0.462745
v -0.125 0 0.216506 0.74902 0.635294 0.54902
v -0.125 0.02 0.216506 0.74902 0.635294 0.54902
v 0.0625 0 0.108253 0.74902 0.635294 0.54902
v 0.0625 0.02 0.108253 0.74902 0.635294 0.54902
v 0.4375 0 0.32476 0.74902 0.635294 0.54902
v 0.4375 0.02 0.32476 0.74902 0.635294 0.54902
v 0.375 0 0.216506 0.662745 0.545098 0.462745
v 0.375 0.02 0.216506 0.662745 0.545098 0.462745
v 0.4375 0 0.32476 0.662745 0.545098 0.462745
v 0.4375 0.02 0.32476 0.662745 0.545098 0.462745
v 0.625 0 0.216506 0.74902 0.635294 0.54902
v 0.4375 0 0.108253 0.74902 0.635294 0.54902
v 0.4375 0.02 0.108253 0.74902 0.635294 0.54902
v 0.625 0.02 0.216506 0.74902 0.635294 0.54902
v 0.4375 0 0.108253 0.662745 0.545098 0.462745
v 0.4375 0.02 0.108253 0.662745 0.545098 0.462745
v 0.25 0 0 0.662745 0.545098 0.462745
v 0.25 0.02 0 0.662745 0.545098 0.462745
v 0.625 0 0.216506 0.952941 0.894118 0.788235
v 0.625 0 0 0.952941 0.894118 0.788235
v 0.625 0.02 0 0.952941 0.894118 0.788235
v 0.625 0.02 0.216506 0.952941 0.894118 0.788235
v 0.4375 0 0.108253 0.952941 0.894118 0.788235
v 0.4375 0.02 0.108253 0.952941 0.894118 0.788235
v 0.5 0 0 0.662745 0.545098 0.462745
v 0.5 0.02 0 0.662745 0.545098 0.462745
v 0.625 0 0 0.662745 0.545098 0.462745
v 0.625 0.02 0 0.662745 0.545098 0.462745
v 0.625 0.02 -0.216506 0.952941 0.894118 0.788235
v 0.4375 0.02 -0.108253 0.952941 0.894118 0.788235
v 0.4375 0 -0.108253 0.952941 0.894118 0.788235
v 0.625 0 -0.216506 0.952941 0.894118 0.788235
v 0.4375 0 -0.108253 0.662745 0.545098 0.462745
v 0.4375 0.02 -0.108253 0.662745 0.545098 0.462745
v 0.25 0 0 0.952941 0.894118 0.788235
v 0.25 0.02 0 0.952941 0.894118 0.788235
v 0.8125 0 0.108253 0.952941 0.894118 0.788235
v 0.8125 0.02 0.108253 0.952941 0.894118 0.788235
v 0.75 0 0 0.662745 0.545098 0.462745
v 0.75 0.02 0 0.662745 0.545098 0.462745
v 0.8125 0 0.108253 0.662745 0.545098 0.462745
v 0.8125 0.02 0.108253 0.662745 0.545098 0.462745
v 0.8125 0 -0.108253 0.662745 0.545098 0.462745
v 0.8125 0.02 -0.108253 0.662745 0.545098 0.462745
v 0.625 0 -0.216506 0.74902 0.635294 0.54902
v 0.625 0 0 0.74902 0.635294 0.54902
v 0.625 0.02 0 0.74902 0.635294 0.54902
v 0.625 0.02 -0.216506 0.74902 0.635294 0.54902
v 0.8125 0 -0.108253 0.74902 0.635294 0.54902
v 0.8125 0.02 -0.108253 0.74902 0.635294 0.54902
v -0.5 0 0.433013 0.74902 0.635294 0.54902
v -0.3125 0 0.32476 0.74902 0.635294 0.54902
v -0.3125 0.02 0.32476 0.74902 0.635294 0.54902
v -0.5 0.02 0.433013 0.74902 0.635294 0.54902
v -0.5 0 0.216506 0.74902 0.635294 0.54902
v -0.5 0.02 0.216506 0.74902 0.635294 0.54902
v 1 0.02 0 0.662745 0.545098 0.462745
v -0.375 0.02 0.216506 0.662745 0.545098 0.462745
v -0.5 0.02 0.216506 0.662745 0.545098 0.462745
v 1 0 0 0.662745 0.545098 0.462745
v -0.375 0 0.216506 0.662745 0.545098 0.462745
v -0.5 0 0.216506 0.662745 0.545098 0.462745
v -0.125 0 0.216506 0.662745 0.545098 0.462745
v -0.3125 0 0.108253 0.662745 0.545098 0.462745
v -0.3125 0.02 0.108253 0.662745 0.545098 0.462745
v -0.125 0.02 0.216506 0.662745 0.545098 0.462745
v -0.5 0 0.216506 0.952941 0.894118 0.788235
v -0.3125 0 0.108253 0.952941 0.894118 0.788235
v -0.3125 0.02 0.108253 0.952941 0.894118 0.788235
v -0.5 0.02 0.216506 0.952941 0.894118 0.788235
v -0.5 0 0 0.952941 0.894118 0.788235
v -0.5 0.02 0 0.952941 0.894118 0.788235
v -0.125 0 0 0.662745 0.545098 0.462745
v -0.125 0.02 0 0.662745 0.545098 0.462745
v -0.25 0 0 0.662745 0.545098 0.462745
v -0.25 0.02 0 0.662745 0.545098 0.462745
v -0.125 0 -0.216506 0.662745 0.545098 0.462745
v -0.3125 0 -0.108253 0.662745 0.545098 0.462745
v -0.3125 0.02 -0.108253 0.662745 0.545098 0.462745
v -0.125 0.02 -0.216506 0.662745 0.545098 0.462745
v -0.5 0 0 0.729412 0.74902 0.580392
v -0.3125 0 0.108253 0.729412 0.74902 0.580392
v -0.3125 0.02 0.108253 0.729412 0.74902 0.580392
v -0.5 0.02 0 0.729412 0.74902 0.580392
v -0.3125 0 -0.108253 0.729412 0.74902 0.580392
v -0.3125 0.02 -0.108253 0.729412 0.74902 0.580392
v -0.125 0 0 0.729412 0.74902 0.580392
v -0.125 0.02 0 0.729412 0.74902 0.580392
v 0 0 0 0.662745 0.545098 0.462745
v 0 0.02 0 0.662745 0.545098 0.462745
v 0.0625 0 -0.108253 0.729412 0.74902 0.580392
v 0.0625 0.02 -0.108253 0.729412 0.74902 0.580392
v 0.0625 0 -0.108253 0.662745 0.545098 0.462745
v 0.0625 0.02 -0.108253 0.662745 0.545098 0.462745
v -0.125 0 -0.216506 0.729412 0.74902 0.580392
v -0.125 0.02 -0.216506 0.729412 0.74902 0.580392
v 0.25 0 -0.216506 0.952941 0.894118 0.788235
v 0.25 0.02 -0.216506 0.952941 0.894118 0.788235
v 0.0625 0 -0.108253 0.952941 0.894118 0.788235
v 0.0625 0.02 -0.108253 0.952941 0.894118 0.788235
v 0.125 0 -0.216506 0.662745 0.545098 0.462745
v 0.125 0.02 -0.216506 0.662745 0.545098 0.462745
v 0.25 0 -0.216506 0.662745 0.545098 0.462745
v 0.25 0.02 -0.216506 0.662745 0.545098 0.462745
v 0.25 0 -0.433013 0.662745 0.545098 0.462745
v 0.0625 0 -0.32476 0.662745 0.545098 0.462745
v 0.0625 0.02 -0.32476 0.662745 0.545098 0.462745
v 0.25 0.02 -0.433013 0.662745 0.545098 0.462745
v 0.0625 0 -0.32476 0.729412 0.74902 0.580392
v 0.0625 0.02 -0.32476 0.729412 0.74902 0.580392
v 0.375 0 -0.216506 0.662745 0.545098 0.462745
v 0.375 0.02 -0.216506 0.662745 0.545098 0.462745
v 0.4375 0 -0.32476 0.662745 0.545098 0.462745
v 0.4375 0.02 -0.32476 0.662745 0.545098 0.462745
v 0.625 0 -0.216506 0.662745 0.545098 0.462745
v 0.625 0.02 -0.216506 0.662745 0.545098 0.462745
v 0.25 0 -0.433013 0.74902 0.635294 0.54902
v 0.25 0 -0.216506 0.74902 0.635294 0.54902
v 0.25 0.02 -0.216506 0.74902 0.635294 0.54902
v 0.25 0.02 -0.433013 0.74902 0.635294 0.54902
v 0.4375 0 -0.32476 0.74902 0.635294 0.54902
v 0.4375 0.02 -0.32476 0.74902 0.635294 0.54902
v -0.3125 0 -0.108253 0.952941 0.894118 0.788235
v -0.3125 0.02 -0.108253 0.952941 0.894118 0.788235
v -0.5 0 -0.216506 0.952941 0.894118 0.788235
v -0.5 0.02 -0.216506 0.952941 0.894118 0.788235
v -0.375 0 -0.216506 0.662745 0.545098 0.462745
v -0.5 0 -0.216506 0.662745 0.545098 0.462745
v -0.5 0.02 -0.216506 0.662745 0.545098 0.462745
v -0.375 0.02 -0.216506 0.662745 0.545098 0.462745
v -0.3125 0 -0.32476 0.662745 0.545098 0.462745
v -0.3125 0.02 -0.32476 0.662745 0.545098 0.462745
v -0.5 0 -0.433013 0.662745 0.545098 0.462745
v -0.5 0.02 -0.433013 0.662745 0.545098 0.462745
v -0.125 0 -0.433013 0.729412 0.74902 0.580392
v -0.125 0.02 -0.433013 0.729412 0.74902 0.580392
v -0.3125 0 -0.32476 0.729412 0.74902 0.580392
v -0.3125 0.02 -0.32476 0.729412 0.74902 0.580392
v -0.25 0 -0.433013 0.662745 0.545098 0.462745
v -0.25 0.02 -0.433013 0.662745 0.545098 0.462745
v -0.125 0 -0.433013 0.662745 0.545098 0.462745
v -0.125 0.02 -0.433013 0.662745 0.545098 0.462745
v -0.125 0 -0.649519 0.729412 0.74902 0.580392
v -0.3125 0 -0.541266 0.729412 0.74902 0.580392
v -0.3125 0.02 -0.541266 0.729412 0.74902 0.580392
v -0.125 0.02 -0.649519 0.729412 0.74902 0.580392
v -0.3125 0 -0.541266 0.662745 0.545098 0.462745
v -0.3125 0.02 -0.541266 0.662745 0.545098 0.462745
v -0.5 0 -0.433013 0.74902 0.635294 0.54902
v -0.3125 0 -0.32476 0.74902 0.635294 0.54902
v -0.3125 0.02 -0.32476 0.74902 0.635294 0.54902
v -0.5 0.02 -0.433013 0.74902 0.635294 0.54902
v -0.3125 0 -0.541266 0.74902 0.635294 0.54902
v -0.3125 0.02 -0.541266 0.74902 0.635294 0.54902
v -0.125 0 -0.216506 0.74902 0.635294 0.54902
v 0.0625 0 -0.32476 0.74902 0.635294 0.54902
v 0.0625 0.02 -0.32476 0.74902 0.635294 0.54902
v -0.125 0.02 -0.216506 0.74902 0.635294 0.54902
v -0.125 0 -0.433013 0.74902 0.635294 0.54902
v -0.125 0.02 -0.433013 0.74902 0.635294 0.54902
v 0 0 -0.433013 0.662745 0.545098 0.462745
v 0 0.02 -0.433013 0.662745 0.545098 0.462745
v 0.25 0.02 -0.433013 0.729412 0.74902 0.580392
v 0.0625 0.02 -0.541266 0.729412 0.74902 0.580392
v 0.0625 0 -0.541266 0.729412 0.74902 0.580392
v 0.25 0 -0.433013 0.729412 0.74902 0.580392
v 0.0625 0 -0.541266 0.662745 0.545098 0.462745
v 0.0625 0.02 -0.541266 0.662745 0.545098 0.462745
v -0.5 0 -0.649519 0.74902 0.635294 0.54902
v -0.5 0.02 -0.649519 0.74902 0.635294 0.54902
v -0.375 0 -0.649519 0.662745 0.545098 0.462745
v -0.5 0 -0.649519 0.662745 0.545098 0.462745
v -0.5 0.02 -0.649519 0.662745 0.545098 0.462745
v -0.375 0.02 -0.649519 0.662745 0.545098 0.462745
v -0.3125 0 -0.757772 0.729412 0.74902 0.580392
v -0.3125 0.02 -0.757772 0.729412 0.74902 0.580392
v -0.3125 0 -0.757772 0.662745 0.545098 0.462745
v -0.3125 0.02 -0.757772 0.662745 0.545098 0.462745
v -0.3125 0 -0.757772 0.74902 0.635294 0.54902
v -0.3125 0.02 -0.757772 0.74902 0.635294 0.54902
v -0.5 0.02 -0.866025 0.74902 0.635294 0.54902
v -0.5 0 -0.866025 0.74902 0.635294 0.54902

f 1 2 3 4
f 5 6 7 8
f 6 9 10 7
f 9 5 8 10
f 11 12 13 14
f 12 1 4 13
f 5 9 10 8
f 9 15 16 10
f 15 5 8 16
f 6 15 16 7
f 15 17 18 16
f 5 15 16 8
f 15 6 7 16
f 6 5 8 7
f 19 20 21 22
f 20 23 24 21
f 23 19 22 24
f 25 15 16 26
f 15 27 28 16
f 27 25 26 28
f 29 30 31 32
f 30 20 21 31
f 20 29 32 21
f 25 27 28 26
f 27 33 34 28
f 33 25 26 34
f 35 12 13 36
f 12 37 38 13
f 39 4 3
f 8 7 10
f 14 13 4
f 8 10 16
f 18 7 16
f 8 16 7
f 22 21 24
f 26 16 28
f 32 31 21
f 26 28 34
f 36 13 38
f 2 40 39 3
f 17 6 7 18
f 40 1 4 39
f 1 11 14 4
f 2 1 40
f 9 6 5
f 1 12 11
f 15 9 5
f 15 6 17
f 6 15 5
f 23 20 19
f 27 15 25
f 20 30 29
f 33 27 25
f 37 12 35
f 37 35 36 38
f 25 33 34 26
f 33 15 16 34
f 15 25 26 16
f 41 20 21 42
f 20 19 22 21
f 43 27 28 44
f 27 45 46 28
f 45 43 44 46
f 47 48 49 50
f 48 51 52 49
f 43 45 46 44
f 45 53 54 46
f 53 43 44 54
f 55 56 57 58
f 56 59 60 57
f 59 55 58 60
f 43 53 54 44
f 53 27 28 54
f 27 43 44 28
f 47 61 62 50
f 61 48 49 62
f 48 47 50 49
f 63 53 54 64
f 53 65 66 54
f 65 63 64 66
f 67 68 69 70
f 68 71 72 69
f 71 67 70 72
f 63 65 66 64
f 26 34 16
f 22 42 21
f 44 28 46
f 50 49 52
f 44 46 54
f 58 57 60
f 44 54 28
f 50 62 49
f 64 54 66
f 70 69 72
f 64 66 73
f 19 41 42 22
f 51 47 50 52
f 15 33 25
f 20 41 19
f 45 27 43
f 51 48 47
f 53 45 43
f 59 56 55
f 27 53 43
f 48 61 47
f 65 53 63
f 71 68 67
f 74 65 63
f 65 74 73 66
f 74 63 64 73
f 75 48 49 76
f 48 77 78 49
f 77 75 76 78
f 63 74 73 64
f 74 53 54 73
f 53 63 64 54
f 79 61 62 80
f 61 47 50 62
f 81 65 66 82
f 65 83 84 66
f 83 81 82 84
f 85 86 87 88
f 86 79 80 87
f 81 83 84 82
f 83 89 90 84
f 89 81 82 90
f 91 65 66 92
f 65 89 90 66
f 89 91 92 90
f 81 89 90 82
f 89 65 66 90
f 65 81 82 66
f 93 94 95 96
f 94 97 98 95
f 97 93 96 98
f 99 89 90 100
f 89 101 102 90
f 101 99 100 102
f 76 49 78
f 64 73 54
f 50 80 62
f 82 66 84
f 88 87 80
f 82 84 90
f 92 66 90
f 82 90 66
f 96 95 98
f 100 90 102
f 103 104 95
f 47 79 80 50
f 79 85 88 80
f 77 48 75
f 53 74 63
f 61 79 47
f 83 65 81
f 79 86 85
f 89 83 81
f 89 65 91
f 65 89 81
f 97 94 93
f 101 89 99
f 94 105 106
f 106 105 104 103
f 105 94 95 104
f 94 106 103 95
f 99 101 102 100
f 101 107 108 102
f 107 99 100 108
f 109 97 98 110
f 97 105 104 98
f 105 109 110 104
f 99 107 108 100
f 107 89 90 108
f 89 99 100 90
f 111 94 95 112
f 94 93 96 95
f 113 101 102 114
f 101 115 116 102
f 115 113 114 116
f 117 115 116 118
f 113 115 116 114
f 115 117 118 116
f 117 113 114 118
f 119 120 121 122
f 120 123 124 121
f 113 117 118 114
f 117 101 102 118
f 101 113 114 102
f 125 126 127 128
f 126 129 130 127
f 100 102 108
f 110 98 104
f 100 108 90
f 96 112 95
f 114 102 116
f 131 118 116
f 114 116 118
f 122 121 124
f 114 118 102
f 128 127 130
f 132 133 34
f 129 125 128 130
f 134 117 118 131
f 123 119 122 124
f 93 111 112 96
f 115 134 131 116
f 107 101 99
f 105 97 109
f 89 107 99
f 94 111 93
f 115 101 113
f 115 117 134
f 117 115 113
f 123 120 119
f 101 117 113
f 129 126 125
f 135 136 133 132
f 136 33 34 133
f 33 135 132 34
f 137 138 139 140
f 138 33 34 139
f 33 137 140 34
f 135 33 34 132
f 33 138 139 34
f 138 135 132 139
f 141 142 143 144
f 142 145 146 143
f 135 138 139 132
f 138 136 133 139
f 136 135 132 133
f 137 147 148 140
f 147 138 139 148
f 138 137 140 139
f 149 138 139 150
f 138 147 148 139
f 147 149 150 148
f 151 152 153 154
f 152 147 148 153
f 147 151 154 148
f 149 147 148 150
f 147 152 153 148
f 152 149 150 153
f 155 156 157 158
f 156 159 160 157
f 159 155 158 160
f 149 152 153 150
f 152 138 139 153
f 138 149 150 139
f 140 139 34
f 132 34 139
f 146 144 143
f 132 139 133
f 140 148 139
f 150 139 148
f 154 153 148
f 150 148 153
f 158 157 160
f 150 153 139
f 145 141 144 146
f 33 136 135
f 33 138 137
f 138 33 135
f 142 141 145
f 136 138 135
f 138 147 137
f 147 138 149
f 147 152 151
f 152 147 149
f 159 156 155
f 138 152 149
f 29 68 69 32
f 68 161 162 69
f 161 29 32 162
f 163 147 148 164
f 147 74 73 148
f 74 163 164 73
f 67 165 166 70
f 165 68 69 166
f 68 67 70 69
f 163 74 73 164
f 74 167 168 73
f 167 163 164 168
f 169 161 162 170
f 161 165 166 162
f 165 169 170 166
f 163 167 168 164
f 167 147 148 168
f 147 163 164 148
f 109 171 172 110
f 171 173 174 172
f 173 109 110 174
f 175 167 168 176
f 167 177 178 168
f 177 175 176 178
f 179 180 181 182
f 180 177 178 181
f 177 179 182 178
f 175 177 178 176
f 177 180 181 178
f 180 175 176 181
f 169 165 166 170
f 165 183 184 166
f 32 69 162
f 164 148 73
f 70 166 69
f 164 73 168
f 170 162 166
f 164 168 148
f 110 172 174
f 176 168 178
f 182 181 178
f 176 178 181
f 170 166 184
f 161 68 29
f 74 147 163
f 68 165 67
f 167 74 163
f 165 161 169
f 147 167 163
f 173 171 109
f 177 167 175
f 177 180 179
f 180 177 175
f 183 165 169
f 183 169 170 184
f 175 180 181 176
f 180 167 168 181
f 167 175 176 168
f 91 107 108 92
f 107 177 178 108
f 177 91 92 178
f 185 177 178 186
f 177 107 108 178
f 107 185 186 108
f 187 107 108 188
f 107 189 190 108
f 185 107 108 186
f 107 187 188 108
f 187 185 186 188
f 191 192 193 194
f 192 195 196 193
f 185 187 188 186
f 187 177 178 188
f 177 185 186 178
f 145 197 198 146
f 197 199 200 198
f 201 202 203 204
f 202 152 153 203
f 152 201 204 153
f 151 205 206 154
f 205 152 153 206
f 152 151 154 153
f 201 152 153 204
f 176 181 168
f 92 108 178
f 186 178 108
f 190 188 108
f 186 108 188
f 194 193 196
f 186 188 178
f 146 198 200
f 204 203 153
f 154 206 153
f 204 153 206
f 199 145 146 200
f 189 187 188 190
f 195 191 194 196
f 167 180 175
f 177 107 91
f 107 177 185
f 107 187 189
f 187 107 185
f 195 192 191
f 177 187 185
f 199 197 145
f 152 202 201
f 152 205 151
f 205 152 201
f 152 205 206 153
f 205 201 204 206
f 202 205 206 203
f 205 207 208 206
f 201 205 206 204
f 205 202 203 206
f 202 201 204 203
f 169 209 210 170
f 209 211 212 210
f 211 169 170 212
f 213 205 206 214
f 205 215 216 206
f 215 213 214 216
f 217 218 219 220
f 218 209 210 219
f 209 217 220 210
f 213 215 216 214
f 215 221 222 216
f 221 213 214 222
f 223 224 225 226
f 224 227 228 225
f 227 223 226 228
f 213 221 222 214
f 221 205 206 222
f 205 213 214 206
f 229 230 231 232
f 230 233 234 231
f 233 229 232 234
f 235 215 216 236
f 215 180 181 216
f 180 235 236 181
f 208 203 206
f 204 206 203
f 170 210 212
f 214 206 216
f 220 219 210
f 214 216 222
f 226 225 228
f 214 222 206
f 232 231 234
f 236 216 181
f 237 238 184
f 207 202 203 208
f 205 202 207
f 202 205 201
f 211 209 169
f 215 205 213
f 209 218 217
f 221 215 213
f 227 224 223
f 205 221 213
f 233 230 229
f 180 215 235
f 183 239 240
f 239 183 184 238
f 183 240 237 184
f 235 180 181 236
f 180 241 242 181
f 241 235 236 242
f 217 209 210 220
f 209 239 238 210
f 235 241 242 236
f 241 215 216 242
f 215 235 236 216
f 223 227 228 226
f 227 243 244 228
f 245 246 247 248
f 246 221 222 247
f 221 245 248 222
f 249 218 219 250
f 218 217 220 219
f 245 221 222 248
f 221 251 252 222
f 251 245 248 252
f 243 253 254 244
f 245 251 252 248
f 251 246 247 252
f 246 245 248 247
f 236 181 242
f 220 210 238
f 236 242 216
f 226 228 244
f 248 247 222
f 220 250 219
f 248 222 252
f 255 244 254
f 248 252 247
f 243 223 226 244
f 256 243 244 255
f 240 239 238 237
f 239 217 220 238
f 217 249 250 220
f 253 256 255 254
f 241 180 235
f 239 209 217
f 215 241 235
f 243 227 223
f 221 246 245
f 218 249 217
f 251 221 245
f 253 243 256
f 246 251 245