v 0.238095 0 -0.109971 0.396078 0.262745 0.129412
v 0.166667 0 0.0137464 0.396078 0.262745 0.129412
v 0.0238095 0 0.0137464 0.396078 0.262745 0.129412
v -0.047619 0 -0.109971 0.396078 0.262745 0.129412
v 0.0238095 0 -0.233689 0.396078 0.262745 0.129412
v 0.166667 0 -0.233689 0.396078 0.262745 0.129412
v 0.0456789 0.25 -0.195811 0.60404 0.672727 0.741414
v 0.144797 0.25 -0.195811 0.60404 0.672727 0.741414
v -0.00388039 0.25 -0.109971 0.60404 0.672727 0.741414
v 0.0456789 0.25 -0.195811 0.60404 0.672727 0.741414
v 0.194357 0.25 -0.109971 0.60404 0.672727 0.741414
v 0.194357 0.25 -0.109971 0.60404 0.672727 0.741414
v 0.144797 0.25 -0.0241324 0.60404 0.672727 0.741414
v 0.0456789 0.25 -0.0241324 0.60404 0.672727 0.741414
v 0.144797 0.25 -0.0241324 0.60404 0.672727 0.741414
v 0.0456789 0.25 -0.0241324 0.60404 0.672727 0.741414
v 0.691192 0.25 0 0.903529 0.793333 0.746667
v 0.63131 0.25 -0.103718 0.903529 0.793333 0.746667
v 0.642857 0.325 -0.123718 0.903529 0.793333 0.746667
v 0.714286 0.325 0 0.903529 0.793333 0.746667
v 0.488453 0.25 -0.103718 0.903529 0.793333 0.746667
v 0.5 0.325 -0.123718 0.903529 0.793333 0.746667
v 0.417024 0.25 -0.227436 0.903529 0.793333 0.746667
v 0.428571 0.325 -0.247436 0.903529 0.793333 0.746667
v 0.274167 0.25 -0.227436 0.903529 0.793333 0.746667
v 0.285714 0.325 -0.247436 0.903529 0.793333 0.746667
v 0.202739 0.25 -0.351154 0.903529 0.793333 0.746667
v 0.0598816 0.25 -0.351154 0.903529 0.793333 0.746667
v 0.0714286 0.325 -0.371154 0.903529 0.793333 0.746667
v 0.214286 0.325 -0.371154 0.903529 0.793333 0.746667
v -0.011547 0.25 -0.474872 0.903529 0.793333 0.746667
v 0 0.325 -0.494872 0.903529 0.793333 0.746667
v -0.13131 0.25 -0.474872 0.903529 0.793333 0.746667
v -0.142857 0.325 -0.494872 0.903529 0.793333 0.746667
v -0.202739 0.25 -0.351154 0.903529 0.793333 0.746667
v -0.214286 0.325 -0.371154 0.903529 0.793333 0.746667
v -0.345596 0.25 -0.351154 0.903529 0.793333 0.746667
v -0.357143 0.325 -0.371154 0.903529 0.793333 0.746667
v -0.405477 0.25 -0.247436 0.903529 0.793333 0.746667
v -0.428571 0.325 -0.247436 0.903529 0.793333 0.746667
v -0.334049 0.25 -0.123718 0.903529 0.793333 0.746667
v -0.357143 0.325 -0.123718 0.903529 0.793333 0.746667
v -0.405477 0.25 0 0.903529 0.793333 0.746667
v -0.428571 0.325 0 0.903529 0.793333 0.746667
v -0.345596 0.25 0.103718 0.903529 0.793333 0.746667
v -0.357143 0.325 0.123718 0.903529 0.793333 0.746667
v -0.225833 0.25 0.103718 0.903529 0.793333 0.746667
v -0.214286 0.325 0.123718 0.903529 0.793333 0.746667
v -0.154404 0.25 -0.02 0.903529 0.793333 0.746667
v -0.142857 0.325 0 0.903529 0.793333 0.746667
v 0.0829756 0.25 0.103718 0.903529 0.793333 0.746667
v 0.225833 0.25 0.103718 0.903529 0.793333 0.746667
v 0.214286 0.325 0.123718 0.903529 0.793333 0.746667
v 0.0714286 0.325 0.123718 0.903529 0.793333 0.746667
v 0.297261 0.25 0.227436 0.903529 0.793333 0.746667
v 0.285714 0.325 0.247436 0.903529 0.793333 0.746667
v 0.417024 0.25 0.227436 0.903529 0.793333 0.746667
v 0.428571 0.325 0.247436 0.903529 0.793333 0.746667
v 0.488453 0.25 0.103718 0.903529 0.793333 0.746667
v 0.5 0.325 0.123718 0.903529 0.793333 0.746667
v 0.63131 0.25 0.103718 0.903529 0.793333 0.746667
v 0.642857 0.325 0.123718 0.903529 0.793333 0.746667
v 0.469208 0.475 0.0703846 0.718431 0.662353 0.655686
v 0.612065 0.475 0.0703846 0.718431 0.662353 0.655686
v -0.326351 0.475 0.0703846 0.718431 0.662353 0.655686
v -0.245078 0.475 0.0703846 0.718431 0.662353 0.655686
v 0.245078 0.475 0.0703846 0.718431 0.662353 0.655686
v 0.102221 0.475 0.0703846 0.718431 0.662353 0.655686
v 0.612065 0.475 -0.0703846 0.718431 0.662353 0.655686
v 0.652702 0.475 0 0.718431 0.662353 0.655686
v 0.612065 0.475 -0.0703846 0.718431 0.662353 0.655686
v 0.469208 0.475 -0.0703846 0.718431 0.662353 0.655686
v 0.612065 0.475 0.0703846 0.718431 0.662353 0.655686
v -0.295559 0.475 -0.123718 0.718431 0.662353 0.655686
v -0.366987 0.475 0 0.718431 0.662353 0.655686
v -0.326351 0.475 0.0703846 0.718431 0.662353 0.655686
v -0.173649 0.475 -0.0533333 0.718431 0.662353 0.655686
v -0.245078 0.475 0.0703846 0.718431 0.662353 0.655686
v 0.316506 0.475 0.194102 0.718431 0.662353 0.655686
v 0.245078 0.475 0.0703846 0.718431 0.662353 0.655686
v 0.397779 0.475 0.194102 0.718431 0.662353 0.655686
v 0.469208 0.475 0.0703846 0.718431 0.662353 0.655686
v 0.397779 0.475 -0.194102 0.718431 0.662353 0.655686
v 0.469208 0.475 -0.0703846 0.718431 0.662353 0.655686
v 0.254922 0.475 -0.194102 0.718431 0.662353 0.655686
v 0.397779 0.475 -0.194102 0.718431 0.662353 0.655686
v -0.295559 0.475 -0.123718 0.718431 0.662353 0.655686
v -0.366987 0.475 -0.247436 0.718431 0.662353 0.655686
v 0.0406366 0.475 -0.31782 0.718431 0.662353 0.655686
v 0.183494 0.475 -0.31782 0.718431 0.662353 0.655686
v -0.030792 0.475 -0.441538 0.718431 0.662353 0.655686
v 0.0406366 0.475 -0.31782 0.718431 0.662353 0.655686
v -0.030792 0.475 -0.441538 0.718431 0.662353 0.655686
v -0.112065 0.475 -0.441538 0.718431 0.662353 0.655686
v -0.112065 0.475 -0.441538 0.718431 0.662353 0.655686
v -0.183494 0.475 -0.31782 0.718431 0.662353 0.655686
v -0.326351 0.475 -0.31782 0.718431 0.662353 0.655686
v -0.183494 0.475 -0.31782 0.718431 0.662353 0.655686
v -0.326351 0.475 -0.31782 0.718431 0.662353 0.655686
v 0.453812 1 -0.0437179 0.0705882 0.203922 0.337255
v 0.596669 1 0.0437179 0.0705882 0.203922 0.337255
v 0.62191 1 0 0.0705882 0.203922 0.337255
v 0.596669 1 -0.0437179 0.0705882 0.203922 0.337255
v 0.382383 1 -0.167436 0.0705882 0.203922 0.337255
v 0.239526 1 -0.167436 0.0705882 0.203922 0.337255
v 0.168098 1 -0.291154 0.0705882 0.203922 0.337255
v 0.0252405 1 -0.291154 0.0705882 0.203922 0.337255
v -0.168098 1 -0.291154 0.0705882 0.203922 0.337255
v -0.046188 1 -0.414872 0.0705882 0.203922 0.337255
v -0.0966691 1 -0.414872 0.0705882 0.203922 0.337255
v -0.260474 1 0.0437179 0.0705882 0.203922 0.337255
v -0.189045 1 -0.08 0.0705882 0.203922 0.337255
v -0.264767 1 -0.123718 0.0705882 0.203922 0.337255
v -0.336195 1 0 0.0705882 0.203922 0.337255
v -0.310955 1 0.0437179 0.0705882 0.203922 0.337255
v 0.046188 1 -0.08 0.0705882 0.203922 0.337255
v 0.117617 1 0.0437179 0.0705882 0.203922 0.337255
v 0.260474 1 0.0437179 0.0705882 0.203922 0.337255
v 0.453812 1 0.0437179 0.0705882 0.203922 0.337255
v 0.331902 1 0.167436 0.0705882 0.203922 0.337255
v 0.382383 1 0.167436 0.0705882 0.203922 0.337255
v -0.310955 1 -0.291154 0.0705882 0.203922 0.337255
v -0.336195 1 -0.247436 0.0705882 0.203922 0.337255
v -0.310955 0.775 -0.123718 0.348235 0.400392 0.473725
v -0.297098 0.73 -0.123718 0.403765 0.439686 0.50102
v -0.368527 0.73 0 0.403765 0.439686 0.50102
v -0.382383 0.775 0 0.348235 0.400392 0.473725
v -0.368527 0.73 0 0.403765 0.439686 0.50102
v -0.327121 0.73 0.0717179 0.403765 0.439686 0.50102
v -0.334049 0.775 0.0837179 0.348235 0.400392 0.473725
v -0.119763 0.775 -0.454872 0.348235 0.400392 0.473725
v -0.023094 0.775 -0.454872 0.348235 0.400392 0.473725
v -0.191192 0.775 -0.331154 0.348235 0.400392 0.473725
v -0.0300222 0.73 -0.442872 0.403765 0.439686 0.50102
v -0.112835 0.73 -0.442872 0.403765 0.439686 0.50102
v -0.112835 0.73 -0.442872 0.403765 0.439686 0.50102
v -0.184264 0.73 -0.319154 0.403765 0.439686 0.50102
v -0.382383 0.775 -0.247436 0.348235 0.400392 0.473725
v -0.368527 0.73 -0.247436 0.403765 0.439686 0.50102
v -0.297098 0.73 -0.123718 0.403765 0.439686 0.50102
v -0.334049 0.775 -0.331154 0.348235 0.400392 0.473725
v -0.327121 0.73 -0.319154 0.403765 0.439686 0.50102
v -0.327121 0.73 -0.319154 0.403765 0.439686 0.50102
v 0.476906 0.775 0.0837179 0.348235 0.400392 0.473725
v 0.405477 0.775 0.207436 0.348235 0.400392 0.473725
v 0.469978 0.73 0.0717179 0.403765 0.439686 0.50102
v 0.398549 0.73 0.195436 0.403765 0.439686 0.50102
v 0.469978 0.73 0.0717179 0.403765 0.439686 0.50102
v 0.612835 0.73 0.0717179 0.403765 0.439686 0.50102
v 0.619763 0.775 0.0837179 0.348235 0.400392 0.473725
v 0.23738 0.775 0.0837179 0.348235 0.400392 0.473725
v 0.308808 0.775 0.207436 0.348235 0.400392 0.473725
v 0.244308 0.73 0.0717179 0.403765 0.439686 0.50102
v 0.315736 0.73 0.195436 0.403765 0.439686 0.50102
v 0.315736 0.73 0.195436 0.403765 0.439686 0.50102
v 0.398549 0.73 0.195436 0.403765 0.439686 0.50102
v 0.0483346 0.775 -0.331154 0.348235 0.400392 0.473725
v 0.0414064 0.73 -0.319154 0.403765 0.439686 0.50102
v -0.0300222 0.73 -0.442872 0.403765 0.439686 0.50102
v 0.405477 0.775 -0.207436 0.348235 0.400392 0.473725
v 0.476906 0.775 -0.0837179 0.348235 0.400392 0.473725
v 0.26262 0.775 -0.207436 0.348235 0.400392 0.473725
v 0.191192 0.775 -0.331154 0.348235 0.400392 0.473725
v 0.469978 0.73 -0.0717179 0.403765 0.439686 0.50102
v 0.398549 0.73 -0.195436 0.403765 0.439686 0.50102
v 0.184264 0.73 -0.319154 0.403765 0.439686 0.50102
v 0.0414064 0.73 -0.319154 0.403765 0.439686 0.50102
v 0.255692 0.73 -0.195436 0.403765 0.439686 0.50102
v 0.398549 0.73 -0.195436 0.403765 0.439686 0.50102
v 0.255692 0.73 -0.195436 0.403765 0.439686 0.50102
v 0.184264 0.73 -0.319154 0.403765 0.439686 0.50102
v -0.23738 0.775 0.0837179 0.348235 0.400392 0.473725
v -0.165951 0.775 -0.04 0.348235 0.400392 0.473725
v 0.023094 0.775 -0.04 0.348235 0.400392 0.473725
v 0.0945226 0.775 0.0837179 0.348235 0.400392 0.473725
v -0.327121 0.73 0.0717179 0.403765 0.439686 0.50102
v -0.244308 0.73 0.0717179 0.403765 0.439686 0.50102
v 0.101451 0.73 0.0717179 0.403765 0.439686 0.50102
v 0.244308 0.73 0.0717179 0.403765 0.439686 0.50102
v -0.172879 0.73 -0.052 0.403765 0.439686 0.50102
v -0.244308 0.73 0.0717179 0.403765 0.439686 0.50102
v 0.0300222 0.73 -0.052 0.403765 0.439686 0.50102
v -0.172879 0.73 -0.052 0.403765 0.439686 0.50102
v 0.0300222 0.73 -0.052 0.403765 0.439686 0.50102
v 0.668098 0.775 0 0.348235 0.400392 0.473725
v 0.654241 0.73 0 0.403765 0.439686 0.50102
v 0.612835 0.73 -0.0717179 0.403765 0.439686 0.50102
v 0.619763 0.775 -0.0837179 0.348235 0.400392 0.473725
v 0.612835 0.73 -0.0717179 0.403765 0.439686 0.50102
v 0.469978 0.73 -0.0717179 0.403765 0.439686 0.50102
v 0.654241 0.73 0 0.403765 0.439686 0.50102
v 0.612835 0.73 0.0717179 0.403765 0.439686 0.50102
v -0.318653 0.475 0.0837179 0.718431 0.662353 0.655686
v -0.334049 0.475 0.0837179 0.718431 0.662353 0.655686
v -0.374685 0.475 0.0133333 0.718431 0.662353 0.655686
v -0.366987 0.475 1e-12 0.718431 0.662353 0.655686
v -0.112065 0.475 -0.441538 0.718431 0.662353 0.655686
v -0.104367 0.475 -0.454872 0.718431 0.662353 0.655686
v -0.023094 0.475 -0.454872 0.718431 0.662353 0.655686
v -0.015396 0.475 -0.441538 0.718431 0.662353 0.655686
v -0.245078 0.475 0.0703846 0.718431 0.662353 0.655686
v -0.252776 0.475 0.0837179 0.718431 0.662353 0.655686
v -0.326351 0.475 0.0703846 0.718431 0.662353 0.655686
v -0.310955 0.475 -0.123718 0.718431 0.662353 0.655686
v -0.382383 0.475 0 0.718431 0.662353 0.655686
v -0.405477 0.55 0 0.625882 0.596863 0.610196
v -0.334049 0.55 -0.123718 0.625882 0.596863 0.610196
v -0.345596 0.55 0.103718 0.625882 0.596863 0.610196
v -0.297098 0.73 -0.123718 0.403765 0.439686 0.50102
v -0.368527 0.73 0 0.403765 0.439686 0.50102
v -0.184264 0.73 -0.319154 0.403765 0.439686 0.50102
v -0.112835 0.73 -0.442872 0.403765 0.439686 0.50102
v -0.13131 0.55 -0.474872 0.625882 0.596863 0.610196
v -0.202739 0.55 -0.351154 0.625882 0.596863 0.610196
v -0.119763 0.475 -0.454872 0.718431 0.662353 0.655686
v -0.011547 0.55 -0.474872 0.625882 0.596863 0.610196
v -0.191192 0.475 -0.331154 0.718431 0.662353 0.655686
v -0.295559 0.475 -0.123718 0.718431 0.662353 0.655686
v -0.382383 0.475 -0.247436 0.718431 0.662353 0.655686
v -0.374685 0.475 -0.260769 0.718431 0.662353 0.655686
v -0.405477 0.55 -0.247436 0.625882 0.596863 0.610196
v -0.297098 0.73 -0.123718 0.403765 0.439686 0.50102
v -0.368527 0.73 -0.247436 0.403765 0.439686 0.50102
v -0.183494 0.475 -0.31782 0.718431 0.662353 0.655686
v -0.341747 0.475 -0.31782 0.718431 0.662353 0.655686
v -0.334049 0.475 -0.331154 0.718431 0.662353 0.655686
v -0.345596 0.55 -0.351154 0.625882 0.596863 0.610196
v -0.327121 0.73 -0.319154 0.403765 0.439686 0.50102
v -0.368527 0.73 -0.247436 0.403765 0.439686 0.50102
v -0.326351 0.475 -0.31782 0.718431 0.662353 0.655686
v -0.366987 0.475 -0.247436 0.718431 0.662353 0.655686
v 0.324204 0.475 0.207436 0.718431 0.662353 0.655686
v 0.316506 0.475 0.194102 0.718431 0.662353 0.655686
v 0.413175 0.475 0.194102 0.718431 0.662353 0.655686
v 0.405477 0.475 0.207436 0.718431 0.662353 0.655686
v 0.469978 0.73 0.0717179 0.403765 0.439686 0.50102
v 0.488453 0.55 0.103718 0.625882 0.596863 0.610196
v 0.63131 0.55 0.103718 0.625882 0.596863 0.610196
v 0.612835 0.73 0.0717179 0.403765 0.439686 0.50102
v 0.397779 0.475 0.194102 0.718431 0.662353 0.655686
v 0.46151 0.475 0.0837179 0.718431 0.662353 0.655686
v 0.476906 0.475 0.0837179 0.718431 0.662353 0.655686
v 0.417024 0.55 0.227436 0.625882 0.596863 0.610196
v 0.612065 0.475 0.0703846 0.718431 0.662353 0.655686
v 0.604367 0.475 0.0837179 0.718431 0.662353 0.655686
v 0.469208 0.475 0.0703846 0.718431 0.662353 0.655686
v 0.619763 0.475 0.0837179 0.718431 0.662353 0.655686
v 0.398549 0.73 0.195436 0.403765 0.439686 0.50102
v 0.244308 0.73 0.0717179 0.403765 0.439686 0.50102
v 0.225833 0.55 0.103718 0.625882 0.596863 0.610196
v 0.297261 0.55 0.227436 0.625882 0.596863 0.610196
v 0.315736 0.73 0.195436 0.403765 0.439686 0.50102
v 0.308808 0.475 0.207436 0.718431 0.662353 0.655686
v 0.23738 0.475 0.0837179 0.718431 0.662353 0.655686
v 0.252776 0.475 0.0837179 0.718431 0.662353 0.655686
v -0.0300222 0.73 -0.442872 0.403765 0.439686 0.50102
v -0.112835 0.73 -0.442872 0.403765 0.439686 0.50102
v 0.0414064 0.73 -0.319154 0.403765 0.439686 0.50102
v 0.184264 0.73 -0.319154 0.403765 0.439686 0.50102
v 0.202739 0.55 -0.351154 0.625882 0.596863 0.610196
v 0.0598816 0.55 -0.351154 0.625882 0.596863 0.610196
v -0.0300222 0.73 -0.442872 0.403765 0.439686 0.50102
v 0.255692 0.73 -0.195436 0.403765 0.439686 0.50102
v 0.274167 0.55 -0.227436 0.625882 0.596863 0.610196
v 0.417024 0.55 -0.227436 0.625882 0.596863 0.610196
v 0.255692 0.73 -0.195436 0.403765 0.439686 0.50102
v 0.398549 0.73 -0.195436 0.403765 0.439686 0.50102
v 0.398549 0.73 -0.195436 0.403765 0.439686 0.50102
v 0.469978 0.73 -0.0717179 0.403765 0.439686 0.50102
v 0.488453 0.55 -0.103718 0.625882 0.596863 0.610196
v 0.405477 0.475 -0.207436 0.718431 0.662353 0.655686
v 0.476906 0.475 -0.0837179 0.718431 0.662353 0.655686
v 0.0406366 0.475 -0.31782 0.718431 0.662353 0.655686
v 0.0483346 0.475 -0.331154 0.718431 0.662353 0.655686
v 0.191192 0.475 -0.331154 0.718431 0.662353 0.655686
v 0.19889 0.475 -0.31782 0.718431 0.662353 0.655686
v -0.030792 0.475 -0.441538 0.718431 0.662353 0.655686
v 0.26262 0.475 -0.207436 0.718431 0.662353 0.655686
v 0.254922 0.475 -0.194102 0.718431 0.662353 0.655686
v 0.183494 0.475 -0.31782 0.718431 0.662353 0.655686
v 0.413175 0.475 -0.194102 0.718431 0.662353 0.655686
v 0.109919 0.475 0.0837179 0.718431 0.662353 0.655686
v 0.102221 0.475 0.0703846 0.718431 0.662353 0.655686
v 0.245078 0.475 0.0703846 0.718431 0.662353 0.655686
v -0.225833 0.55 0.103718 0.625882 0.596863 0.610196
v -0.244308 0.73 0.0717179 0.403765 0.439686 0.50102
v -0.327121 0.73 0.0717179 0.403765 0.439686 0.50102
v -0.172879 0.73 -0.052 0.403765 0.439686 0.50102
v -0.244308 0.73 0.0717179 0.403765 0.439686 0.50102
v -0.154404 0.55 -0.02 0.625882 0.596863 0.610196
v -0.368527 0.73 0 0.403765 0.439686 0.50102
v 0.0829756 0.55 0.103718 0.625882 0.596863 0.610196
v 0.244308 0.73 0.0717179 0.403765 0.439686 0.50102
v 0.101451 0.73 0.0717179 0.403765 0.439686 0.50102
v 0.011547 0.55 -0.02 0.625882 0.596863 0.610196
v 0.0300222 0.73 -0.052 0.403765 0.439686 0.50102
v 0.0300222 0.73 -0.052 0.403765 0.439686 0.50102
v -0.23738 0.475 0.0837179 0.718431 0.662353 0.655686
v 0.0945226 0.475 0.0837179 0.718431 0.662353 0.655686
v 0.023094 0.475 -0.04 0.718431 0.662353 0.655686
v 0.030792 0.475 -0.0533333 0.718431 0.662353 0.655686
v -0.173649 0.475 -0.0533333 0.718431 0.662353 0.655686
v -0.165951 0.475 -0.04 0.718431 0.662353 0.655686
v 0.604367 0.475 -0.0837179 0.718431 0.662353 0.655686
v 0.619763 0.475 -0.0837179 0.718431 0.662353 0.655686
v 0.668098 0.475 0 0.718431 0.662353 0.655686
v 0.6604 0.475 0.0133333 0.718431 0.662353 0.655686
v 0.63131 0.55 -0.103718 0.625882 0.596863 0.610196
v 0.691192 0.55 0 0.625882 0.596863 0.610196
v 0.654241 0.73 0 0.403765 0.439686 0.50102
v 0.612835 0.73 0.0717179 0.403765 0.439686 0.50102
v 0.612835 0.73 -0.0717179 0.403765 0.439686 0.50102
v 0.612835 0.73 -0.0717179 0.403765 0.439686 0.50102
v 0.654241 0.73 0 0.403765 0.439686 0.50102
v 0.469208 0.475 -0.0703846 0.718431 0.662353 0.655686
v 0.612065 0.475 -0.0703846 0.718431 0.662353 0.655686
v 0.397779 0.475 -0.194102 0.718431 0.662353 0.655686
v 0.652702 0.475 0 0.718431 0.662353 0.655686
v 0.31773 0.25 0.103718 0.903529 0.793333 0.746667
v -0.0163186 0.25 -0.474872 0.903529 0.793333 0.746667
v 0.183494 0.475 -0.31782 0.718431 0.662353 0.655686
v 0.254922 0.475 -0.194102 0.718431 0.662353 0.655686
v 0.011547 0.25 -0.02 0.903529 0.793333 0.746667
v 0.243916 0.25 -0.0241324 0.903529 0.793333 0.746667
v -0.391545 0.25 -0.0241324 0.903529 0.793333 0.746667
v 0 0.325 0 0.903529 0.793333 0.746667
v -0.173649 0.475 -0.0533333 0.718431 0.662353 0.655686
v 0.030792 0.475 -0.0533333 0.718431 0.662353 0.655686
v 0.144797 0.25 -0.0241324 0.903529 0.793333 0.746667
v 0.194357 0.25 -0.109971 0.903529 0.793333 0.746667
v 0.0456789 0.25 -0.0241324 0.903529 0.793333 0.746667
v -0.172933 0.25 -0.402779 0.903529 0.793333 0.746667
v 0.144797 0.25 -0.195811 0.903529 0.793333 0.746667
v -0.0534396 0.25 -0.195811 0.903529 0.793333 0.746667
v 0.0456789 0.25 -0.195811 0.903529 0.793333 0.746667
v -0.00388039 0.25 -0.109971 0.903529 0.793333 0.746667

vt 1 0.5
vt 0.75 0
vt 0.25 0
vt 0 0.5
vt 0.25 1
vt 0.75 1
vt 0.166667 0.757576
vt 0 0.757576
vt 0 0
vt 0.166667 0
vt 0.333333 0
vt 0.333333 0.757576
vt 0.833333 0
vt 1 0
vt 1 0.757576
vt 0.833333 0.757576
vt 0.666667 0
vt 0.666667 0.757576
vt 0.5 0
vt 0.5 0.757576
vt 0.666667 0.757576
vt 0.5 0.757576
vt 0.0364021 0
vt 0.0416667 0.5
vt 0.0798236 0
vt 0.0833333 0.5
vt 0.123245 0
vt 0.125 0.5
vt 0.166667 0
vt 0.166667 0.5
vt 0.210088 0
vt 0.25351 0
vt 0.25 0.5
vt 0.208333 0.5
vt 0.296931 0
vt 0.291667 0.5
vt 0.333333 0
vt 0.333333 0.5
vt 0.376755 0
vt 0.375 0.5
vt 0.420176 0
vt 0.416667 0.5
vt 0.456578 0
vt 0.458333 0.5
vt 0.5 0
vt 0.5 0.5
vt 0.543422 0
vt 0.541667 0.5
vt 0.579824 0
vt 0.583333 0.5
vt 0.616226 0
vt 0.625 0.5
vt 0.659647 0
vt 0.666667 0.5
vt 0.75351 0
vt 0.796931 0
vt 0.791667 0.5
vt 0.75 0.5
vt 0.840353 0
vt 0.833333 0.5
vt 0.876755 0
vt 0.875 0.5
vt 0.920176 0
vt 0.916667 0.5
vt 0.963598 0
vt 0.958333 0.5
vt 1 0
vt 1 0.5
vt 0.927379 0.833333
vt 0.974403 0.833333
vt 0.572621 0.833333
vt 0.598218 0.833333
vt 0.807736 0.833333
vt 0.760713 0.833333
vt 0.0255974 0.833333
vt 0 0.833333
vt 0.0255974 0.833333
vt 0.0726205 0.833333
vt 1 0.833333
vt 0.5 0.833333
vt 0.547023 0.833333
vt 0.645241 0.833333
vt 0.854759 0.833333
vt 0.880356 0.833333
vt 0.119644 0.833333
vt 0.166667 0.833333
vt 0.452977 0.833333
vt 0.260713 0.833333
vt 0.21369 0.833333
vt 0.307736 0.833333
vt 0.260713 0.833333
vt 0.333333 0.833333
vt 0.380356 0.833333
vt 0.427379 0.833333
vt 0.380356 0.833333
vt 0.452977 0.833333
vt 0.427379 0.833333
vt 0.824552 0.362616
vt 0.973656 0.212461
vt 1 0.287539
vt 0.973656 0.362616
vt 0.75 0.575077
vt 0.600896 0.575077
vt 0.526344 0.787539
vt 0.37724 0.787539
vt 0.175448 0.787539
vt 0.302688 1
vt 0.25 1
vt 0.0790327 0.212461
vt 0.153585 0.424923
vt 0.0745519 0.5
vt 0 0.287539
vt 0.0263442 0.212461
vt 0.399104 0.424923
vt 0.473656 0.212461
vt 0.62276 0.212461
vt 0.824552 0.212461
vt 0.697312 0
vt 0.0263442 0.787539
vt 0 0.712461
vt 0.5 0.5
vt 0.5 0.2
vt 0.546582 0.2
vt 0.545331 0.5
vt 0.546582 0.2
vt 0.573504 0.2
vt 0.576005 0.5
vt 0.549701 1
vt 0.5 1
vt 0.567264 1
vt 0.333333 0.5
vt 0.333333 1
vt 0.315771 1
vt 0.302659 0.5
vt 0.378664 0.5
vt 0.383035 1
vt 0.306411 0.2
vt 0.333333 0.2
vt 0.333333 0.2
vt 0.379915 0.2
vt 0.454669 0.5
vt 0.453418 0.2
vt 0.5 0.2
vt 0.450299 1
vt 0.423995 0.5
vt 0.432736 1
vt 0.426496 0.2
vt 0.379915 0.2
vt 0.426496 0.2
vt 0.453418 0.2
vt 0.923995 0.5
vt 0.932736 1
vt 0.883035 1
vt 0.878664 0.5
vt 0.926496 0.2
vt 0.879915 0.2
vt 0.926496 0.2
vt 0.973078 0.2
vt 0.969325 0.5
vt 0.982437 1
vt 0.802659 0.5
vt 0.847989 0.5
vt 0.865472 1
vt 0.815771 1
vt 0.806411 0.2
vt 0.852993 0.2
vt 0.852993 0.2
vt 0.879915 0.2
vt 0.266069 1
vt 0.257328 0.5
vt 0.25983 0.2
vt 0.306411 0.2
vt 0.121336 0.5
vt 0.116965 1
vt 0.0672641 1
vt 0.0760053 0.5
vt 0.166667 0.5
vt 0.166667 1
vt 0.211997 0.5
vt 0.216368 1
vt 0.0735035 0.2
vt 0.120085 0.2
vt 0.213248 0.2
vt 0.25983 0.2
vt 0.166667 0.2
vt 0.120085 0.2
vt 0.166667 0.2
vt 0.213248 0.2
vt 0.60668 0.5
vt 0.584827 1
vt 0.652011 0.5
vt 0.634528 1
vt 0.711997 0.5
vt 0.716368 1
vt 0.757328 0.5
vt 0.766069 1
vt 0.573504 0.2
vt 0.600425 0.2
vt 0.75983 0.2
vt 0.806411 0.2
vt 0.647007 0.2
vt 0.600425 0.2
vt 0.713248 0.2
vt 0.647007 0.2
vt 0.713248 0.2
vt 0.75983 0.2
vt 0 0.2
vt 0.0269219 0.2
vt 0.0306746 0.5
vt 0.0175628 1
vt 0 1
vt 0.0269219 0.2
vt 0.0735035 0.2
vt 1 0.2
vt 1 0.5
vt 0.973078 0.2
vt 1 1
vt 0.060668 0.186798
vt 0.0460118 0.186798
vt 0.00732807 0.29307
vt 0.0146561 0.313202
vt 0.257328 0.979868
vt 0.264656 1
vt 0.342024 1
vt 0.349352 0.979868
vt 0.130707 0.20693
vt 0.123379 0.186798
vt 0.0533399 0.20693
vt 0.5 0
vt 0.545331 0
vt 0.543422 0.5
vt 0.5 0.5
vt 0.576005 0
vt 0.579824 0.5
vt 0.5 0.9
vt 0.546617 0.9
vt 0.37995 0.9
vt 0.333333 0.9
vt 0.333333 0.5
vt 0.376755 0.5
vt 0.333333 0
vt 0.296931 0.5
vt 0.302659 0
vt 0.378664 0
vt 0.0826522 0.5
vt 0.0679961 0.5
vt 0 0.686798
vt 0.00732807 0.70693
vt 0 0.313202
vt 0.456578 0.5
vt 0.454669 0
vt 0.453383 0.9
vt 0.182004 0.813202
vt 0.189332 0.79307
vt 0.0386838 0.79307
vt 0.0460118 0.813202
vt 0.25 1
vt 0.423995 0
vt 0.420176 0.5
vt 0.426567 0.9
vt 0.426567 0.9
vt 0.0533399 0.79307
vt 0.0146561 0.686798
vt 0.672632 0
vt 0.665304 0.0201316
vt 0.757328 0.0201316
vt 0.75 0
vt 0.926567 0.9
vt 0.920176 0.5
vt 0.963598 0.5
vt 0.973183 0.9
vt 0.742672 0.0201316
vt 0.80334 0.186798
vt 0.817996 0.186798
vt 0.923995 0
vt 0.876755 0.5
vt 0.878664 0
vt 0.94666 0.20693
vt 0.939332 0.186798
vt 0.80334 0.186798
vt 0.810668 0.20693
vt 0.969325 0
vt 0.87995 0.9
vt 0.926567 0.9
vt 0.806517 0.9
vt 0.796931 0.5
vt 0.840353 0.5
vt 0.853133 0.9
vt 0.853133 0.9
vt 0.657976 0
vt 0.58998 0.186798
vt 0.604636 0.186798
vt 0.802659 0
vt 0.847989 0
vt 0.306517 0.9
vt 0.333333 0.9
vt 0.2599 0.9
vt 0.213283 0.9
vt 0.210088 0.5
vt 0.25351 0.5
vt 0.306517 0.9
vt 0.2599 0.9
vt 0.213283 0.9
vt 0.166667 0.9
vt 0.166667 0.5
vt 0.123245 0.5
vt 0.166667 0.9
vt 0.12005 0.9
vt 0.12005 0.9
vt 0.0734333 0.9
vt 0.0798236 0.5
vt 0.121336 0
vt 0.0760053 0
vt 0.402692 0.79307
vt 0.41002 0.813202
vt 0.546012 0.813202
vt 0.55334 0.79307
vt 0.334696 0.979868
vt 0.211997 0
vt 0.257328 0
vt 0.614008 0.626403
vt 0.60668 0.606272
vt 0.538684 0.79307
vt 0.757328 0.606272
vt 0.75 0.626403
vt 0.166667 0
vt 0.468644 0.186798
vt 0.461316 0.20693
vt 0.597308 0.20693
vt 0.604636 0.186798
vt 0.616226 0.5
vt 0.60025 0.9
vt 0.573433 0.9
vt 0.646867 0.9
vt 0.60025 0.9
vt 0.659647 0.5
vt 0.546617 0.9
vt 0.75351 0.5
vt 0.806517 0.9
vt 0.7599 0.9
vt 0.710088 0.5
vt 0.7599 0.9
vt 0.713283 0.9
vt 0.60668 0
vt 0.757328 0
vt 0.385992 0.373597
vt 0.39332 0.393728
vt 0.453988 0.186798
vt 0.198703 0.393728
vt 0.206032 0.373597
vt 0.138035 0.186798
vt 0.652011 0
vt 0.711997 0
vt 0.939332 0.439605
vt 0.953988 0.439605
vt 1 0.313202
vt 0.992672 0.29307
vt 0.0306746 0
vt 0.0364021 0.5
vt 1 0.5
vt 1 0.9
vt 0.973183 0.9
vt 0.0734333 0.9
vt 0.0268166 0.9
vt 0.0268166 0.9
vt 0 0.9
vt 0.810668 0.419473
vt 0.817996 0.439605
vt 0.94666 0.419473
vt 0.742672 0.606272
vt 0.985344 0.313202
vt 0.953988 0.186798
vt 1 0
vt 0.945397 0.176159
vt 0.659458 0.176159
vt 0.815132 0.471522
vt 0.945397 0.471522
vt 1 0.323841
vt 0.424339 0.823841
vt 0.354855 1
vt 0.359206 1
vt 0.619735 0.647682
vt 0.554603 0.823841
vt 0.75 0.647682
vt 0.21369 0.833333
vt 0.640794 0
vt 0.575661 0.176159
vt 0.815132 0.176159
vt 0.75 0
vt 0.380265 0.352318
vt 0.592151 0.358202
vt 0.445397 0.176159
vt 0 0.323841
vt 0.0127047 0.358202
vt 0.228942 0.352318
vt 0.163809 0.176159
vt 0.0546031 0.176159
vt 0.710088 0
vt 0.708333 0.5
vt 0.71369 0.833333
vt 0.501769 0.358202
vt 0.54696 0.480427
vt 0.411388 0.358202
vt 0.0651323 0.5
vt 0.0546031 0.823841
vt 0.184868 0.823841
vt 0 0.676159
vt 0.212046 0.897349
vt 0.501769 0.602651
vt 0.321006 0.602651
vt 0.25 1
vt 0.411388 0.602651
vt 0.366197 0.480427

vn 0 -1 0
vn 0 0 -1
vn -0.866025 0 -0.5
vn -0.866025 0 -0.5
vn 0.866025 0 -0.5
vn 0.866025 0 -0.5
vn 0.866025 0 0.5
vn 0.866025 0 0.5
vn -0.866025 0 0.5
vn -0.866025 0 0.5
vn 0 0 1
vn 0.866025 0 -0.5
vn 0.866025 0 -0.5
vn 0.866025 0 -0.5
vn 0.866025 0 -0.5
vn 0.866025 0 -0.5
vn 0.866025 0 -0.5
vn -0.866025 0 -0.5
vn -0.866025 0 -0.5
vn -0.866025 0 -0.5
vn -0.866025 0 0.5
vn -0.866025 0 0.5
vn -0.866025 0 -0.5
vn -0.866025 0 -0.5
vn -0.866025 0 0.5
vn -0.866025 0 0.5
vn 0.866025 0 0.5
vn 0.866025 0 0.5
vn -0.866025 0 0.5
vn 0.866025 0 0.5
vn 0.866025 0 0.5
vn 0.866025 0 0.5
vn 0.866025 0 0.5
vn 0.866025 0 -0.5
vn 0.866025 0 0.5
vn -0.866025 0 0.5
vn -0.866025 0 0.5
vn 0.866025 0 0.5
vn -0.866025 0 0.5
vn 0.866025 0 0.5
vn 0.866025 0 -0.5
vn -0.866025 0 0.5
vn -0.866025 0 -0.5
vn -0.866025 0 -0.5
vn 0 1 0
vn -0.866025 0 0.5
vn -0.866025 0 0.5
vn -0.866025 0 0.5
vn -0.866025 0 -0.5
vn -0.866025 0 -0.5
vn -0.866025 0 -0.5
vn -0.866025 0 -0.5
vn 0.866025 0 0.5
vn -0.866025 0 0.5
vn 0.866025 0 -0.5
vn 0.866025 0 -0.5
vn 0.866025 0 -0.5
vn 0.866025 0 -0.5
vn 0.866025 0 -0.5
vn -0.866025 0 0.5
vn -0.866025 0 0.5
vn 0.866025 0 -0.5
vn 0.866025 0 -0.5
vn 0.866025 0 -0.5
vn 0.866025 0 0.5
vn 0.866025 0 0.5
vn 0.866025 0 0.5
vn -0.866025 0 -0.5
vn -0.866025 0 -0.5
vn 0.866025 0 0.5
vn 0.866025 0 -0.5
vn -0.866025 0 0.5
vn -0.866025 0 0.5
vn 0.866025 0 0.5
vn 0.866025 0 -0.5
vn 0.866025 0 -0.5
vn -0.866025 0 0.5

f 1/1/1 2/2/1 3/3/1 4/4/1 5/5/1 6/6/1
f 7/7/2 8/8/2 6/9/2 5/10/2
f 4/11/3 9/12/4 10/7/4 5/10/3
f 1/13/5 6/14/5 8/15/6 11/16/6
f 2/17/7 1/13/7 12/16/8 13/18/8
f 4/11/9 3/19/9 14/20/10 9/12/10
f 3/19/11 2/17/11 15/21/11 16/22/11
f 17/9/12 18/23/12 19/24/13 20/4/13
f 18/23/2 21/25/2 22/26/2 19/24/2
f 21/25/14 23/27/14 24/28/15 22/26/15
f 23/27/2 25/29/2 26/30/2 24/28/2
f 27/31/2 28/32/2 29/33/2 30/34/2
f 28/32/16 31/35/16 32/36/17 29/33/17
f 31/35/2 33/37/2 34/38/2 32/36/2
f 33/37/18 35/39/18 36/40/18 34/38/18
f 35/39/2 37/41/2 38/42/2 36/40/2
f 37/41/19 39/43/19 40/44/20 38/42/20
f 39/43/21 41/45/21 42/46/22 40/44/22
f 41/45/23 43/47/23 44/48/24 42/46/24
f 43/47/25 45/49/25 46/50/26 44/48/26
f 45/49/11 47/51/11 48/52/11 46/50/11
f 47/51/27 49/53/27 50/54/28 48/52/28
f 51/55/11 52/56/11 53/57/11 54/58/11
f 52/56/29 55/59/29 56/60/22 53/57/22
f 55/59/11 57/61/11 58/62/11 56/60/11
f 57/61/30 59/63/30 60/64/31 58/62/31
f 59/63/11 61/65/11 62/66/11 60/64/11
f 61/65/32 17/67/32 20/68/33 62/66/33
f 63/69/11 60/64/11 62/66/11 64/70/11
f 65/71/11 46/50/11 48/52/11 66/72/11
f 54/58/11 53/57/11 67/73/11 68/74/11
f 20/4/13 19/24/13 69/75/34 70/76/34
f 71/77/2 19/24/2 22/26/2 72/78/2
f 20/68/33 70/79/35 73/70/35 62/66/33
f 74/80/18 42/46/24 44/48/24 75/81/18
f 44/48/26 46/50/26 76/71/36 75/81/37
f 50/54/28 77/82/38 78/72/38 48/52/28
f 56/60/22 79/83/39 80/73/39 53/57/22
f 81/84/11 79/83/11 56/60/11 58/62/11
f 81/84/40 58/62/31 60/64/31 82/69/40
f 24/28/15 83/85/41 84/78/41 22/26/15
f 24/28/2 26/30/2 85/86/2 86/85/2
f 40/44/22 42/46/22 87/80/42 88/87/42
f 30/34/2 29/33/2 89/88/2 90/89/2
f 29/33/17 32/36/17 91/90/17 92/91/17
f 93/90/2 32/36/2 34/38/2 94/92/2
f 95/92/18 34/38/18 36/40/18 96/93/18
f 36/40/2 38/42/2 97/94/2 98/95/2
f 38/42/20 40/44/20 88/96/43 99/97/44
f 100/98/45 101/99/45 102/100/45 103/101/45
f 100/98/45 104/102/45 105/103/45
f 105/103/45 106/104/45 107/105/45
f 108/106/45 107/105/45 109/107/45 110/108/45
f 111/109/45 112/110/45 113/111/45 114/112/45 115/113/45
f 116/114/45 117/115/45 118/116/45
f 119/117/45 118/116/45 120/118/45 121/2/45
f 113/111/45 112/110/45 116/114/45 108/106/45 122/119/45 123/120/45
f 107/105/45 108/106/45 116/114/45 118/116/45 101/99/45 100/98/45
f 124/121/24 125/122/18 126/123/18 127/124/24
f 127/124/46 128/125/47 129/126/47 130/127/46
f 124/121/24 127/124/24 114/128/23 113/129/23
f 114/128/48 127/124/46 130/127/46 115/130/48
f 131/131/2 110/132/2 109/133/2 132/134/2
f 131/131/20 133/135/20 108/136/18 110/132/18
f 131/131/2 132/134/2 134/137/2 135/138/2
f 131/131/20 136/139/49 137/140/49 133/135/20
f 138/141/22 139/142/42 140/143/42 124/121/22
f 138/141/22 124/121/22 113/129/21 123/144/21
f 141/145/2 122/146/2 108/136/2 133/135/2
f 141/145/50 138/141/50 123/144/51 122/146/51
f 142/147/2 141/145/2 133/135/2 137/148/2
f 141/145/50 143/149/52 139/150/52 138/141/50
f 144/151/40 119/152/40 121/153/40 145/154/40
f 146/155/53 144/151/40 145/154/40 147/156/53
f 144/151/11 148/157/11 149/158/11 150/159/11
f 119/152/11 144/151/11 150/159/11 101/160/11
f 151/161/54 152/162/54 120/163/39 118/164/39
f 120/163/11 152/162/11 145/154/11 121/153/11
f 151/161/54 153/165/21 154/166/21 152/162/54
f 152/162/11 155/167/11 156/168/11 145/154/11
f 107/169/17 157/170/55 132/134/55 109/133/17
f 157/170/55 158/171/56 159/172/56 132/134/55
f 160/173/41 104/174/41 100/175/41 161/176/41
f 104/174/2 160/173/2 162/177/2 105/178/2
f 162/177/57 163/179/57 106/180/17 105/178/17
f 163/179/2 157/170/2 107/169/2 106/180/2
f 160/173/41 161/176/41 164/181/58 165/182/58
f 163/179/2 166/183/2 167/184/2 157/170/2
f 168/185/2 162/177/2 160/173/2 169/186/2
f 162/177/57 170/187/59 171/188/59 163/179/57
f 172/189/11 111/190/11 115/130/11 130/127/11
f 172/189/27 173/191/27 112/192/27 111/190/27
f 112/192/11 173/191/11 174/193/11 116/194/11
f 174/193/60 175/195/60 117/196/60 116/194/60
f 175/195/11 151/161/11 118/164/11 117/196/11
f 172/189/11 130/127/11 176/197/11 177/198/11
f 175/195/11 178/199/11 179/200/11 151/161/11
f 180/201/38 173/191/27 172/189/27 181/202/38
f 182/203/11 174/193/11 173/191/11 183/204/11
f 174/193/60 184/205/61 178/206/61 175/195/60
f 185/4/62 186/207/63 187/208/63 188/209/62
f 185/4/62 188/209/62 103/210/64 102/211/64
f 188/209/2 189/212/2 190/213/2 161/176/2
f 188/209/2 161/176/2 100/175/2 103/210/2
f 191/214/65 185/215/66 150/159/66 192/216/65
f 185/215/66 102/217/67 101/160/67 150/159/66
f 193/218/1 194/219/1 195/220/1 196/221/1
f 197/222/1 198/223/1 199/224/1 200/225/1
f 201/226/1 202/227/1 193/218/1 203/228/1
f 204/229/24 205/230/24 206/231/23 207/232/23
f 206/231/25 205/230/46 194/233/46 208/234/25
f 209/235/23 207/232/23 206/231/23 210/236/23
f 211/237/18 212/238/18 213/239/18 214/240/18
f 215/241/2 213/239/2 216/242/2 199/243/2
f 215/241/20 217/244/20 214/240/18 213/239/18
f 218/245/1 204/246/1 219/247/1 220/248/1
f 205/249/1 204/246/1 218/245/1 195/220/1
f 221/250/21 219/251/22 204/229/22 207/232/21
f 221/250/21 207/232/21 222/235/21 223/252/21
f 217/253/1 224/254/1 225/255/1 226/256/1
f 198/223/1 224/254/1 217/253/1 215/257/1
f 226/258/2 227/259/2 214/240/2 217/244/2
f 227/259/2 228/260/2 211/237/2 214/240/2
f 227/259/19 221/250/19 229/252/68 228/261/69
f 225/255/1 230/262/1 231/263/1 220/248/1
f 227/259/19 226/258/50 219/251/50 221/250/19
f 232/264/1 233/265/1 234/266/1 235/267/1
f 236/268/11 237/269/11 238/270/11 239/271/11
f 234/266/1 240/272/1 241/273/1 242/274/1
f 242/275/40 237/269/30 243/276/30 235/277/40
f 244/278/1 245/279/1 241/280/1 246/281/1
f 237/269/11 242/275/11 247/282/11 238/270/11
f 248/283/70 243/276/30 237/269/30 148/284/70
f 249/285/21 250/286/29 251/287/29 252/288/21
f 147/283/11 154/289/11 251/287/11 243/276/11
f 253/290/1 254/291/1 255/292/1 232/264/1
f 254/293/54 253/294/54 251/287/29 250/286/29
f 251/287/11 253/294/11 235/277/11 243/276/11
f 256/295/2 216/242/2 213/239/2 257/296/2
f 258/297/2 259/298/2 260/299/2 261/300/2
f 262/301/16 258/302/16 261/300/16 216/242/16
f 260/299/55 259/303/55 263/304/55 264/305/55
f 265/306/2 264/305/2 266/307/2 267/308/2
f 265/306/14 268/309/71 269/310/71 270/311/14
f 271/312/41 265/306/14 270/311/14 272/313/41
f 273/314/1 274/315/1 275/316/1 276/317/1
f 200/225/1 274/315/1 273/314/1 277/318/1
f 275/319/2 274/320/2 261/300/2 260/299/2
f 261/300/16 274/320/55 199/243/55 216/242/16
f 278/321/1 279/322/1 280/323/1 276/317/1
f 281/324/1 279/322/1 278/321/1 271/325/1
f 278/326/2 264/305/2 265/306/2 271/312/2
f 264/305/55 278/326/57 275/319/57 260/299/55
f 282/327/1 283/328/1 284/329/1 255/330/1
f 285/331/11 286/332/11 287/333/11 208/234/11
f 288/334/38 289/335/38 285/331/27 290/336/27
f 287/333/72 291/337/73 206/231/25 208/234/25
f 292/338/11 250/286/11 293/339/11 294/340/11
f 295/341/60 292/338/60 294/342/61 296/343/61
f 288/334/11 290/336/11 295/341/11 297/343/11
f 298/344/11 285/331/11 208/234/11 194/233/11
f 292/338/11 299/345/11 254/293/11 250/286/11
f 300/346/1 301/347/1 282/327/1 299/348/1
f 302/349/1 303/350/1 298/351/1 202/227/1
f 302/349/1 301/347/1 300/346/1 303/350/1
f 303/352/27 290/336/27 285/331/27 298/344/27
f 303/352/11 300/353/11 295/341/11 290/336/11
f 295/341/60 300/353/60 299/345/60 292/338/60
f 304/354/1 305/355/1 306/356/1 307/357/1
f 306/9/62 305/358/62 308/359/12 309/4/12
f 309/360/32 310/361/74 311/362/74 238/270/32
f 308/359/2 270/311/2 190/363/2 312/364/2
f 309/4/12 308/359/12 313/365/75 314/366/75
f 315/367/1 272/368/1 304/354/1 316/369/1
f 281/324/1 272/368/1 315/367/1 317/370/1
f 308/359/2 305/358/2 272/313/2 270/311/2
f 318/371/1 307/357/1 247/372/1 245/279/1
f 306/373/66 309/360/32 238/270/32 247/282/66
f 61/374/1 319/375/1 21/376/1 18/377/1 17/378/1
f 28/379/1 319/375/1 320/380/1 31/381/1
f 25/382/1 319/375/1 28/379/1 27/383/1
f 21/376/1 319/375/1 25/382/1 23/384/1
f 25/29/55 27/31/55 30/34/55 26/30/55
f 30/34/55 321/385/57 322/86/76 26/30/55
f 55/386/1 52/387/1 59/388/1 57/389/1
f 323/390/1 324/391/1 319/375/1 51/392/1
f 43/393/1 325/394/1 49/395/1 47/396/1 45/397/1
f 325/394/1 324/391/1 323/390/1 49/395/1
f 49/53/11 323/398/11 326/399/11 50/54/11
f 323/398/60 51/55/60 54/58/77 326/399/77
f 327/82/11 50/54/11 326/399/11 328/400/11
f 328/400/60 326/399/77 54/58/77 68/74/60
f 324/391/1 329/401/1 330/402/1
f 331/403/1 325/394/1 41/404/1
f 37/405/1 35/406/1 331/403/1 41/404/1 39/407/1
f 331/403/1 35/406/1 332/408/1
f 333/409/1 334/410/1 332/408/1 33/411/1 320/380/1
f 335/412/1 336/413/1 334/410/1