v 0.166667 0 -0.0412393 0.396078 0.262745 0.129412
v 0.0952381 0 0.0824786 0.396078 0.262745 0.129412
v -0.047619 0 0.0824786 0.396078 0.262745 0.129412
v -0.119048 0 -0.0412393 0.396078 0.262745 0.129412
v -0.047619 0 -0.164957 0.396078 0.262745 0.129412
v 0.0952381 0 -0.164957 0.396078 0.262745 0.129412
v -0.0257497 0.25 -0.127078 0.60404 0.672727 0.741414
v 0.0733688 0.25 -0.127078 0.60404 0.672727 0.741414
v 0.0684821 0.305862 -0.118614 0.650509 0.764337 0.878165
v 0.0463944 0.25 -0.127078 0.60404 0.672727 0.741414
v 0.086856 0.25 -0.103718 0.60404 0.672727 0.741414
v 0.0733688 0.25 -0.127078 0.60404 0.672727 0.741414
v 0.0684821 0.305862 -0.118614 0.650509 0.764337 0.878165
v 0.0733688 0.25 0.0445998 0.60404 0.672727 0.741414
v 0.122928 0.25 -0.0412393 0.60404 0.672727 0.741414
v -0.075309 0.25 -0.0412393 0.60404 0.672727 0.741414
v -0.0257497 0.25 -0.127078 0.60404 0.672727 0.741414
v -0.0257497 0.25 0.0445998 0.60404 0.672727 0.741414
v -0.075309 0.25 -0.0412393 0.60404 0.672727 0.741414
v 0.0733688 0.25 0.0445998 0.60404 0.672727 0.741414
v -0.0257497 0.25 0.0445998 0.60404 0.672727 0.741414
v 0.011547 0.25 0.227436 0.903529 0.793333 0.746667
v 0.0829756 0.25 0.351154 0.903529 0.793333 0.746667
v 0.0714286 0.325 0.371154 0.903529 0.793333 0.746667
v 0 0.325 0.247436 0.903529 0.793333 0.746667
v 0.202739 0.25 0.351154 0.903529 0.793333 0.746667
v 0.214286 0.325 0.371154 0.903529 0.793333 0.746667
v 0.274167 0.25 0.227436 0.903529 0.793333 0.746667
v 0.285714 0.325 0.247436 0.903529 0.793333 0.746667
v 0.417024 0.25 0.227436 0.903529 0.793333 0.746667
v 0.428571 0.325 0.247436 0.903529 0.793333 0.746667
v 0.476906 0.25 0.123718 0.903529 0.793333 0.746667
v 0.5 0.325 0.123718 0.903529 0.793333 0.746667
v 0.405477 0.25 0 0.903529 0.793333 0.746667
v 0.428571 0.325 0 0.903529 0.793333 0.746667
v 0.476906 0.25 -0.123718 0.903529 0.793333 0.746667
v 0.5 0.325 -0.123718 0.903529 0.793333 0.746667
v 0.417024 0.25 -0.227436 0.903529 0.793333 0.746667
v 0.428571 0.325 -0.247436 0.903529 0.793333 0.746667
v 0.297261 0.25 -0.227436 0.903529 0.793333 0.746667
v 0.285714 0.325 -0.247436 0.903529 0.793333 0.746667
v 0.225833 0.25 -0.103718 0.903529 0.793333 0.746667
v 0.214286 0.325 -0.123718 0.903529 0.793333 0.746667
v -0.023094 0.25 -0.247436 0.903529 0.793333 0.746667
v 0.0483346 0.25 -0.371154 0.903529 0.793333 0.746667
v 0.0714286 0.325 -0.371154 0.903529 0.793333 0.746667
v 0 0.325 -0.247436 0.903529 0.793333 0.746667
v -0.011547 0.25 -0.474872 0.903529 0.793333 0.746667
v 0 0.325 -0.494872 0.903529 0.793333 0.746667
v -0.13131 0.25 -0.474872 0.903529 0.793333 0.746667
v -0.142857 0.325 -0.494872 0.903529 0.793333 0.746667
v -0.202739 0.25 -0.351154 0.903529 0.793333 0.746667
v -0.214286 0.325 -0.371154 0.903529 0.793333 0.746667
v -0.345596 0.25 -0.351154 0.903529 0.793333 0.746667
v -0.357143 0.325 -0.371154 0.903529 0.793333 0.746667
v -0.405477 0.25 -0.247436 0.903529 0.793333 0.746667
v -0.428571 0.325 -0.247436 0.903529 0.793333 0.746667
v -0.334049 0.25 -0.123718 0.903529 0.793333 0.746667
v -0.357143 0.325 -0.123718 0.903529 0.793333 0.746667
v -0.405477 0.25 0 0.903529 0.793333 0.746667
v -0.428571 0.325 0 0.903529 0.793333 0.746667
v -0.345596 0.25 0.103718 0.903529 0.793333 0.746667
v -0.357143 0.325 0.123718 0.903529 0.793333 0.746667
v -0.202739 0.25 0.103718 0.903529 0.793333 0.746667
v -0.214286 0.325 0.123718 0.903529 0.793333 0.746667
v -0.13131 0.25 0.227436 0.903529 0.793333 0.746667
v -0.142857 0.325 0.247436 0.903529 0.793333 0.746667
v -0.112065 0.475 -0.441538 0.718431 0.662353 0.655686
v -0.183494 0.475 -0.31782 0.718431 0.662353 0.655686
v -0.366987 0.475 0 0.718431 0.662353 0.655686
v -0.295559 0.475 -0.123718 0.718431 0.662353 0.655686
v -0.326351 0.475 0.0703846 0.718431 0.662353 0.655686
v -0.366987 0.475 0 0.718431 0.662353 0.655686
v -0.183494 0.475 0.0703846 0.718431 0.662353 0.655686
v -0.326351 0.475 0.0703846 0.718431 0.662353 0.655686
v -0.112065 0.475 0.194102 0.718431 0.662353 0.655686
v 0.030792 0.475 0.194102 0.718431 0.662353 0.655686
v 0.397779 0.475 0.194102 0.718431 0.662353 0.655686
v 0.254922 0.475 0.194102 0.718431 0.662353 0.655686
v 0.00984454 0.475 -0.371154 0.718431 0.662353 0.655686
v -0.061584 0.475 -0.247436 0.718431 0.662353 0.655686
v -0.030792 0.475 -0.441538 0.718431 0.662353 0.655686
v -0.030792 0.475 -0.441538 0.718431 0.662353 0.655686
v -0.112065 0.475 -0.441538 0.718431 0.662353 0.655686
v 0.102221 0.475 0.31782 0.718431 0.662353 0.655686
v 0.030792 0.475 0.194102 0.718431 0.662353 0.655686
v 0.102221 0.475 0.31782 0.718431 0.662353 0.655686
v 0.183494 0.475 0.31782 0.718431 0.662353 0.655686
v 0.183494 0.475 0.31782 0.718431 0.662353 0.655686
v 0.254922 0.475 0.194102 0.718431 0.662353 0.655686
v -0.326351 0.475 -0.31782 0.718431 0.662353 0.655686
v -0.183494 0.475 -0.31782 0.718431 0.662353 0.655686
v -0.366987 0.475 -0.247436 0.718431 0.662353 0.655686
v -0.326351 0.475 -0.31782 0.718431 0.662353 0.655686
v -0.295559 0.475 -0.123718 0.718431 0.662353 0.655686
v 0.438416 0.475 0.123718 0.718431 0.662353 0.655686
v 0.397779 0.475 0.194102 0.718431 0.662353 0.655686
v 0.366987 0.475 0 0.718431 0.662353 0.655686
v 0.438416 0.475 0.123718 0.718431 0.662353 0.655686
v 0.438416 0.475 -0.123718 0.718431 0.662353 0.655686
v 0.366987 0.475 0 0.718431 0.662353 0.655686
v 0.438416 0.475 -0.123718 0.718431 0.662353 0.655686
v 0.397779 0.475 -0.194102 0.718431 0.662353 0.655686
v 0.397779 0.475 -0.194102 0.718431 0.662353 0.655686
v 0.316506 0.475 -0.194102 0.718431 0.662353 0.655686
v 0.316506 0.475 -0.194102 0.718431 0.662353 0.655686
v 0.245078 0.475 -0.0703846 0.718431 0.662353 0.655686
v 0.239526 1 0.167436 0.0705882 0.203922 0.337255
v 0.046188 1 0.167436 0.0705882 0.203922 0.337255
v 0.117617 1 0.291154 0.0705882 0.203922 0.337255
v 0.168098 1 0.291154 0.0705882 0.203922 0.337255
v 0.331902 1 -0.167436 0.0705882 0.203922 0.337255
v 0.260474 1 -0.0437179 0.0705882 0.203922 0.337255
v 0.336195 1 0 0.0705882 0.203922 0.337255
v 0.407624 1 -0.123718 0.0705882 0.203922 0.337255
v 0.382383 1 -0.167436 0.0705882 0.203922 0.337255
v -0.0966691 1 -0.414872 0.0705882 0.203922 0.337255
v -0.168098 1 -0.291154 0.0705882 0.203922 0.337255
v -0.092376 1 -0.247436 0.0705882 0.203922 0.337255
v -0.0209475 1 -0.371154 0.0705882 0.203922 0.337255
v -0.046188 1 -0.414872 0.0705882 0.203922 0.337255
v -0.336195 1 -0.247436 0.0705882 0.203922 0.337255
v -0.264767 1 -0.123718 0.0705882 0.203922 0.337255
v -0.310955 1 -0.291154 0.0705882 0.203922 0.337255
v -0.310955 1 0.0437179 0.0705882 0.203922 0.337255
v -0.168098 1 0.0437179 0.0705882 0.203922 0.337255
v -0.336195 1 0 0.0705882 0.203922 0.337255
v 0.0252405 1 -0.0437179 0.0705882 0.203922 0.337255
v 0.382383 1 0.167436 0.0705882 0.203922 0.337255
v 0.407624 1 0.123718 0.0705882 0.203922 0.337255
v -0.0966691 1 0.167436 0.0705882 0.203922 0.337255
v 0.0252405 0.775 -0.371154 0.348235 0.400392 0.473725
v 0.0113841 0.73 -0.371154 0.403765 0.439686 0.50102
v -0.0300222 0.73 -0.442872 0.403765 0.439686 0.50102
v -0.023094 0.775 -0.454872 0.348235 0.400392 0.473725
v -0.046188 0.775 -0.247436 0.348235 0.400392 0.473725
v -0.0600444 0.73 -0.247436 0.403765 0.439686 0.50102
v 0.0113841 0.73 -0.371154 0.403765 0.439686 0.50102
v 0.0483346 0.775 -0.0837179 0.348235 0.400392 0.473725
v 0.0414064 0.73 -0.0717179 0.403765 0.439686 0.50102
v 0.382383 0.775 0 0.348235 0.400392 0.473725
v 0.453812 0.775 -0.123718 0.348235 0.400392 0.473725
v 0.23738 0.775 -0.0837179 0.348235 0.400392 0.473725
v 0.368527 0.73 0 0.403765 0.439686 0.50102
v 0.439956 0.73 -0.123718 0.403765 0.439686 0.50102
v 0.244308 0.73 -0.0717179 0.403765 0.439686 0.50102
v 0.405477 0.775 -0.207436 0.348235 0.400392 0.473725
v 0.439956 0.73 -0.123718 0.403765 0.439686 0.50102
v 0.398549 0.73 -0.195436 0.403765 0.439686 0.50102
v 0.398549 0.73 -0.195436 0.403765 0.439686 0.50102
v 0.315736 0.73 -0.195436 0.403765 0.439686 0.50102
v 0.308808 0.775 -0.207436 0.348235 0.400392 0.473725
v 0.315736 0.73 -0.195436 0.403765 0.439686 0.50102
v 0.244308 0.73 -0.0717179 0.403765 0.439686 0.50102
v 0.26262 0.775 0.207436 0.348235 0.400392 0.473725
v 0.191192 0.775 0.331154 0.348235 0.400392 0.473725
v 0.255692 0.73 0.195436 0.403765 0.439686 0.50102
v 0.184264 0.73 0.319154 0.403765 0.439686 0.50102
v 0.023094 0.775 0.207436 0.348235 0.400392 0.473725
v 0.0300222 0.73 0.195436 0.403765 0.439686 0.50102
v 0.101451 0.73 0.319154 0.403765 0.439686 0.50102
v 0.0945226 0.775 0.331154 0.348235 0.400392 0.473725
v -0.119763 0.775 0.207436 0.348235 0.400392 0.473725
v -0.112835 0.73 0.195436 0.403765 0.439686 0.50102
v 0.0300222 0.73 0.195436 0.403765 0.439686 0.50102
v -0.191192 0.775 0.0837179 0.348235 0.400392 0.473725
v -0.334049 0.775 0.0837179 0.348235 0.400392 0.473725
v -0.184264 0.73 0.0717179 0.403765 0.439686 0.50102
v -0.327121 0.73 0.0717179 0.403765 0.439686 0.50102
v -0.184264 0.73 0.0717179 0.403765 0.439686 0.50102
v -0.112835 0.73 0.195436 0.403765 0.439686 0.50102
v -0.334049 0.775 -0.331154 0.348235 0.400392 0.473725
v -0.327121 0.73 -0.319154 0.403765 0.439686 0.50102
v -0.368527 0.73 -0.247436 0.403765 0.439686 0.50102
v -0.382383 0.775 -0.247436 0.348235 0.400392 0.473725
v -0.382383 0.775 0 0.348235 0.400392 0.473725
v -0.368527 0.73 0 0.403765 0.439686 0.50102
v -0.327121 0.73 0.0717179 0.403765 0.439686 0.50102
v -0.119763 0.775 -0.454872 0.348235 0.400392 0.473725
v -0.191192 0.775 -0.331154 0.348235 0.400392 0.473725
v -0.310955 0.775 -0.123718 0.348235 0.400392 0.473725
v -0.112835 0.73 -0.442872 0.403765 0.439686 0.50102
v -0.297098 0.73 -0.123718 0.403765 0.439686 0.50102
v -0.368527 0.73 -0.247436 0.403765 0.439686 0.50102
v -0.297098 0.73 -0.123718 0.403765 0.439686 0.50102
v -0.368527 0.73 0 0.403765 0.439686 0.50102
v -0.184264 0.73 -0.319154 0.403765 0.439686 0.50102
v -0.112835 0.73 -0.442872 0.403765 0.439686 0.50102
v -0.327121 0.73 -0.319154 0.403765 0.439686 0.50102
v 0.398549 0.73 0.195436 0.403765 0.439686 0.50102
v 0.405477 0.775 0.207436 0.348235 0.400392 0.473725
v 0.255692 0.73 0.195436 0.403765 0.439686 0.50102
v 0.453812 0.775 0.123718 0.348235 0.400392 0.473725
v 0.439956 0.73 0.123718 0.403765 0.439686 0.50102
v 0.368527 0.73 0 0.403765 0.439686 0.50102
v 0.439956 0.73 0.123718 0.403765 0.439686 0.50102
v 0.398549 0.73 0.195436 0.403765 0.439686 0.50102
v 0.19889 0.475 0.31782 0.718431 0.662353 0.655686
v 0.191192 0.475 0.331154 0.718431 0.662353 0.655686
v 0.109919 0.475 0.331154 0.718431 0.662353 0.655686
v 0.102221 0.475 0.31782 0.718431 0.662353 0.655686
v -0.03849 0.475 -0.454872 0.718431 0.662353 0.655686
v -0.023094 0.475 -0.454872 0.718431 0.662353 0.655686
v 0.0252405 0.475 -0.371154 0.718431 0.662353 0.655686
v 0.0175425 0.475 -0.35782 0.718431 0.662353 0.655686
v -0.011547 0.55 -0.474872 0.625882 0.596863 0.610196
v 0.0483346 0.55 -0.371154 0.625882 0.596863 0.610196
v -0.0600444 0.73 -0.247436 0.403765 0.439686 0.50102
v -0.023094 0.55 -0.247436 0.625882 0.596863 0.610196
v 0.0113841 0.73 -0.371154 0.403765 0.439686 0.50102
v -0.112065 0.475 -0.441538 0.718431 0.662353 0.655686
v -0.104367 0.475 -0.454872 0.718431 0.662353 0.655686
v -0.030792 0.475 -0.441538 0.718431 0.662353 0.655686
v -0.046188 0.475 -0.247436 0.718431 0.662353 0.655686
v 0.405477 0.475 -0.207436 0.718431 0.662353 0.655686
v 0.413175 0.475 -0.194102 0.718431 0.662353 0.655686
v 0.30111 0.475 -0.194102 0.718431 0.662353 0.655686
v 0.308808 0.475 -0.207436 0.718431 0.662353 0.655686
v 0.297261 0.55 -0.227436 0.625882 0.596863 0.610196
v 0.417024 0.55 -0.227436 0.625882 0.596863 0.610196
v 0.315736 0.73 -0.195436 0.403765 0.439686 0.50102
v 0.398549 0.73 -0.195436 0.403765 0.439686 0.50102
v 0.0414064 0.73 -0.0717179 0.403765 0.439686 0.50102
v 0.0598816 0.55 -0.103718 0.625882 0.596863 0.610196
v -0.0600444 0.73 -0.247436 0.403765 0.439686 0.50102
v 0.0483346 0.475 -0.0837179 0.718431 0.662353 0.655686
v 0.397779 0.475 -0.194102 0.718431 0.662353 0.655686
v 0.453812 0.475 -0.123718 0.718431 0.662353 0.655686
v 0.446114 0.475 -0.110385 0.718431 0.662353 0.655686
v 0.476906 0.55 -0.123718 0.625882 0.596863 0.610196
v 0.398549 0.73 -0.195436 0.403765 0.439686 0.50102
v 0.439956 0.73 -0.123718 0.403765 0.439686 0.50102
v 0.225833 0.55 -0.103718 0.625882 0.596863 0.610196
v 0.244308 0.73 -0.0717179 0.403765 0.439686 0.50102
v 0.315736 0.73 -0.195436 0.403765 0.439686 0.50102
v 0.244308 0.73 -0.0717179 0.403765 0.439686 0.50102
v 0.368527 0.73 0 0.403765 0.439686 0.50102
v 0.405477 0.55 0 0.625882 0.596863 0.610196
v 0.439956 0.73 -0.123718 0.403765 0.439686 0.50102
v 0.382383 0.475 0 0.718431 0.662353 0.655686
v 0.23738 0.475 -0.0837179 0.718431 0.662353 0.655686
v 0.245078 0.475 -0.0703846 0.718431 0.662353 0.655686
v 0.316506 0.475 -0.194102 0.718431 0.662353 0.655686
v -0.061584 0.475 -0.247436 0.718431 0.662353 0.655686
v 0.00984454 0.475 -0.371154 0.718431 0.662353 0.655686
v 0.0406366 0.475 -0.0703846 0.718431 0.662353 0.655686
v 0.26262 0.475 0.207436 0.718431 0.662353 0.655686
v 0.274167 0.55 0.227436 0.625882 0.596863 0.610196
v 0.202739 0.55 0.351154 0.625882 0.596863 0.610196
v 0.030792 0.475 0.194102 0.718431 0.662353 0.655686
v 0.023094 0.475 0.207436 0.718431 0.662353 0.655686
v -0.119763 0.475 0.207436 0.718431 0.662353 0.655686
v -0.127461 0.475 0.194102 0.718431 0.662353 0.655686
v 0.0945226 0.475 0.331154 0.718431 0.662353 0.655686
v 0.0829756 0.55 0.351154 0.625882 0.596863 0.610196
v 0.011547 0.55 0.227436 0.625882 0.596863 0.610196
v -0.13131 0.55 0.227436 0.625882 0.596863 0.610196
v 0.101451 0.73 0.319154 0.403765 0.439686 0.50102
v 0.0300222 0.73 0.195436 0.403765 0.439686 0.50102
v -0.112835 0.73 0.195436 0.403765 0.439686 0.50102
v 0.0300222 0.73 0.195436 0.403765 0.439686 0.50102
v 0.184264 0.73 0.319154 0.403765 0.439686 0.50102
v 0.184264 0.73 0.319154 0.403765 0.439686 0.50102
v -0.374685 0.475 0.0133333 0.718431 0.662353 0.655686
v -0.366987 0.475 1e-12 0.718431 0.662353 0.655686
v -0.318653 0.475 0.0837179 0.718431 0.662353 0.655686
v -0.334049 0.475 0.0837179 0.718431 0.662353 0.655686
v -0.184264 0.73 0.0717179 0.403765 0.439686 0.50102
v -0.202739 0.55 0.103718 0.625882 0.596863 0.610196
v -0.112835 0.73 0.195436 0.403765 0.439686 0.50102
v -0.191192 0.475 0.0837179 0.718431 0.662353 0.655686
v -0.345596 0.55 0.103718 0.625882 0.596863 0.610196
v -0.183494 0.475 0.0703846 0.718431 0.662353 0.655686
v -0.112065 0.475 0.194102 0.718431 0.662353 0.655686
v -0.326351 0.475 0.0703846 0.718431 0.662353 0.655686
v -0.382383 0.475 -0.247436 0.718431 0.662353 0.655686
v -0.334049 0.475 -0.331154 0.718431 0.662353 0.655686
v -0.318653 0.475 -0.331154 0.718431 0.662353 0.655686
v -0.374685 0.475 -0.234102 0.718431 0.662353 0.655686
v -0.405477 0.55 -0.247436 0.625882 0.596863 0.610196
v -0.345596 0.55 -0.351154 0.625882 0.596863 0.610196
v -0.327121 0.73 -0.319154 0.403765 0.439686 0.50102
v -0.368527 0.73 -0.247436 0.403765 0.439686 0.50102
v -0.405477 0.55 0 0.625882 0.596863 0.610196
v -0.382383 0.475 0 0.718431 0.662353 0.655686
v -0.0300222 0.73 -0.442872 0.403765 0.439686 0.50102
v 0.0113841 0.73 -0.371154 0.403765 0.439686 0.50102
v -0.327121 0.73 0.0717179 0.403765 0.439686 0.50102
v -0.368527 0.73 0 0.403765 0.439686 0.50102
v -0.297098 0.73 -0.123718 0.403765 0.439686 0.50102
v -0.334049 0.55 -0.123718 0.625882 0.596863 0.610196
v -0.368527 0.73 0 0.403765 0.439686 0.50102
v -0.13131 0.55 -0.474872 0.625882 0.596863 0.610196
v -0.112835 0.73 -0.442872 0.403765 0.439686 0.50102
v -0.0300222 0.73 -0.442872 0.403765 0.439686 0.50102
v -0.184264 0.73 -0.319154 0.403765 0.439686 0.50102
v -0.112835 0.73 -0.442872 0.403765 0.439686 0.50102
v -0.202739 0.55 -0.351154 0.625882 0.596863 0.610196
v -0.297098 0.73 -0.123718 0.403765 0.439686 0.50102
v -0.368527 0.73 -0.247436 0.403765 0.439686 0.50102
v -0.119763 0.475 -0.454872 0.718431 0.662353 0.655686
v -0.310955 0.475 -0.123718 0.718431 0.662353 0.655686
v -0.303257 0.475 -0.110385 0.718431 0.662353 0.655686
v -0.366987 0.475 -0.247436 0.718431 0.662353 0.655686
v -0.295559 0.475 -0.123718 0.718431 0.662353 0.655686
v -0.303257 0.475 -0.110385 0.718431 0.662353 0.655686
v -0.191192 0.475 -0.331154 0.718431 0.662353 0.655686
v -0.183494 0.475 -0.31782 0.718431 0.662353 0.655686
v -0.326351 0.475 -0.31782 0.718431 0.662353 0.655686
v 0.254922 0.475 0.194102 0.718431 0.662353 0.655686
v 0.413175 0.475 0.194102 0.718431 0.662353 0.655686
v 0.405477 0.475 0.207436 0.718431 0.662353 0.655686
v 0.183494 0.475 0.31782 0.718431 0.662353 0.655686
v 0.417024 0.55 0.227436 0.625882 0.596863 0.610196
v 0.398549 0.73 0.195436 0.403765 0.439686 0.50102
v 0.255692 0.73 0.195436 0.403765 0.439686 0.50102
v 0.366987 0.475 0 0.718431 0.662353 0.655686
v 0.453812 0.475 0.123718 0.718431 0.662353 0.655686
v 0.446114 0.475 0.137051 0.718431 0.662353 0.655686
v 0.438416 0.475 -0.123718 0.718431 0.662353 0.655686
v 0.476906 0.55 0.123718 0.625882 0.596863 0.610196
v 0.439956 0.73 0.123718 0.403765 0.439686 0.50102
v 0.398549 0.73 0.195436 0.403765 0.439686 0.50102
v 0.397779 0.475 0.194102 0.718431 0.662353 0.655686
v 0.438416 0.475 0.123718 0.718431 0.662353 0.655686
v 0.278048 0.25 0.227436 0.903529 0.793333 0.746667
v 0.086856 0.25 -0.103718 0.903529 0.793333 0.746667
v 0.0684821 0.305862 -0.118614 0.903529 0.793333 0.746667
v 0.0714286 0.325 -0.123718 0.903529 0.793333 0.746667
v 0.172487 0.25 0.0445998 0.903529 0.793333 0.746667
v -0.379728 0.25 0.0445998 0.903529 0.793333 0.746667
v -0.183494 0.475 0.0703846 0.718431 0.662353 0.655686
v -0.112065 0.475 0.194102 0.718431 0.662353 0.655686
v 0.0733688 0.25 0.0445998 0.903529 0.793333 0.746667
v 0.122928 0.25 -0.0412393 0.903529 0.793333 0.746667
v -0.236871 0.25 0.0445998 0.903529 0.793333 0.746667
v -0.0257497 0.25 0.0445998 0.903529 0.793333 0.746667
v -0.254238 0.25 -0.351154 0.903529 0.793333 0.746667
v 0.0463944 0.25 -0.127078 0.903529 0.793333 0.746667
v -0.124868 0.25 -0.127078 0.903529 0.793333 0.746667
v 0.0406366 0.475 -0.0703846 0.718431 0.662353 0.655686
v -0.061584 0.475 -0.247436 0.718431 0.662353 0.655686
v 0.0406366 0.475 -0.0703846 0.718431 0.662353 0.655686
v 0.245078 0.475 -0.0703846 0.718431 0.662353 0.655686
v -0.075309 0.25 -0.0412393 0.903529 0.793333 0.746667
v -0.0257497 0.25 -0.127078 0.903529 0.793333 0.746667

vt 1 0.5
vt 0.75 0
vt 0.25 0
vt 0 0.5
vt 0.25 1
vt 0.75 1
vt 0.166667 0.757576
vt 0 0.757576
vt 0 0
vt 0.166667 0
vt 0 0.926855
vt 0.0453572 0.757576
vt 0.954643 0.757576
vt 1 0.757576
vt 1 0.926855
vt 0.666667 0.757576
vt 0.666667 0
vt 0.833333 0
vt 0.833333 0.757576
vt 1 0
vt 0.833333 0.757576
vt 0.333333 0
vt 0.333333 0.757576
vt 0.5 0
vt 0.5 0.757576
vt 0.0434215 0
vt 0.0416667 0.5
vt 0.0798236 0
vt 0.0833333 0.5
vt 0.123245 0
vt 0.125 0.5
vt 0.166667 0
vt 0.166667 0.5
vt 0.203069 0
vt 0.208333 0.5
vt 0.24649 0
vt 0.25 0.5
vt 0.289912 0
vt 0.291667 0.5
vt 0.326314 0
vt 0.333333 0.5
vt 0.362716 0
vt 0.375 0.5
vt 0.406138 0
vt 0.416667 0.5
vt 0.507019 0
vt 0.550441 0
vt 0.541667 0.5
vt 0.5 0.5
vt 0.586843 0
vt 0.583333 0.5
vt 0.623245 0
vt 0.625 0.5
vt 0.666667 0
vt 0.666667 0.5
vt 0.710088 0
vt 0.708333 0.5
vt 0.74649 0
vt 0.75 0.5
vt 0.789912 0
vt 0.791667 0.5
vt 0.833333 0
vt 0.833333 0.5
vt 0.869735 0
vt 0.875 0.5
vt 0.913157 0
vt 0.916667 0.5
vt 0.956578 0
vt 0.958333 0.5
vt 1 0
vt 1 0.5
vt 0.619644 0.833333
vt 0.666667 0.833333
vt 0.833333 0.833333
vt 0.78631 0.833333
vt 0.858931 0.833333
vt 0.833333 0.833333
vt 0.905954 0.833333
vt 0.858931 0.833333
vt 0.952977 0.833333
vt 1 0.833333
vt 0.166667 0.833333
vt 0.119644 0.833333
vt 0.568449 0.833333
vt 0.521426 0.833333
vt 0.594046 0.833333
vt 0.568449 0.833333
vt 0.0470231 0.833333
vt 0 0.833333
vt 0.0470231 0.833333
vt 0.0726205 0.833333
vt 0.0726205 0.833333
vt 0.71369 0.833333
vt 0.739287 0.833333
vt 0.192264 0.833333
vt 0.239287 0.833333
vt 0.192264 0.833333
vt 0.28631 0.833333
vt 0.311908 0.833333
vt 0.337505 0.833333
vt 0.384528 0.833333
vt 0.774007 0.175232
vt 0.514081 0.175232
vt 0.61011 0
vt 0.677978 0
vt 0.898199 0.649537
vt 0.802169 0.474305
vt 0.903971 0.412384
vt 1 0.587616
vt 0.966066 0.649537
vt 0.322022 1
vt 0.225993 0.824768
vt 0.327794 0.762847
vt 0.423823 0.938079
vt 0.38989 1
vt 0 0.762847
vt 0.0960295 0.587616
vt 0.0339337 0.824768
vt 0.0339337 0.350463
vt 0.225993 0.350463
vt 0 0.412384
vt 0.485919 0.474305
vt 0.966066 0.175232
vt 1 0.237153
vt 0.322022 0.175232
vt 0.559987 0.5
vt 0.566241 0.2
vt 0.593163 0.2
vt 0.590661 0.5
vt 0.599403 1
vt 0.58184 1
vt 0.532138 1
vt 0.514656 0.5
vt 0.51966 0.2
vt 0.566241 0.2
vt 0.450299 1
vt 0.454669 0.5
vt 0.453418 0.2
vt 0.51966 0.2
vt 0.233931 1
vt 0.242672 0.5
vt 0.288003 0.5
vt 0.283632 1
vt 0.368459 1
vt 0.394682 0.5
vt 0.24017 0.2
vt 0.286752 0.2
vt 0.387177 0.2
vt 0.318677 0.5
vt 0.286752 0.2
vt 0.313674 0.2
vt 0.313674 0.2
vt 0.340596 0.2
vt 0.349352 0.5
vt 0.340596 0.2
vt 0.387177 0.2
vt 0.301195 1
vt 0.318758 1
vt 0.121336 0.5
vt 0.116965 1
vt 0.0672641 1
vt 0.0760053 0.5
vt 0.120085 0.2
vt 0.0735035 0.2
vt 0 0.2
vt 0.0465816 0.2
vt 0.0453307 0.5
vt 0.0465816 0.2
vt 1 0.5
vt 0.954669 0.5
vt 0.953418 0.2
vt 1 0.2
vt 0.0497013 1
vt 0 1
vt 1 1
vt 0.950299 1
vt 0.909339 0.5
vt 0.900597 1
vt 0.850896 1
vt 0.864008 0.5
vt 0.906837 0.2
vt 0.860255 0.2
vt 0.906837 0.2
vt 0.953418 0.2
vt 0.711997 0.5
vt 0.713248 0.2
vt 0.74017 0.2
vt 0.742672 0.5
vt 0.733931 1
vt 0.716368 1
vt 0.833333 0.5
vt 0.833333 0.2
vt 0.860255 0.2
vt 0.621336 0.5
vt 0.616965 1
vt 0.666667 0.5
vt 0.666667 1
vt 0.788003 0.5
vt 0.783632 1
vt 0.833333 1
vt 0.593163 0.2
vt 0.620085 0.2
vt 0.786752 0.2
vt 0.74017 0.2
vt 0.786752 0.2
vt 0.833333 0.2
vt 0.666667 0.2
vt 0.620085 0.2
vt 0.666667 0.2
vt 0.713248 0.2
vt 0.166667 0.2
vt 0.166667 0.5
vt 0.120085 0.2
vt 0.166667 1
vt 0.197341 0.5
vt 0.184229 1
vt 0.193589 0.2
vt 0.24017 0.2
vt 0.193589 0.2
vt 0.166667 0.2
vt 0.69514 0.016963
vt 0.685934 0
vt 0.58874 0
vt 0.579534 0.016963
vt 0.41126 1
vt 0.429672 1
vt 0.487475 0.893492
vt 0.478269 0.876529
vt 0.559987 0
vt 0.590661 0
vt 0.586843 0.5
vt 0.550441 0.5
vt 0.5198 0.9
vt 0.507019 0.5
vt 0.566417 0.9
vt 0.323272 0.983037
vt 0.332478 1
vt 0.420466 0.983037
vt 0.514656 0
vt 0.942197 0.685206
vt 0.951403 0.668243
vt 0.817385 0.668243
vt 0.826591 0.685206
vt 0.318677 0
vt 0.349352 0
vt 0.362716 0.5
vt 0.326314 0.5
vt 0.34035 0.9
vt 0.313533 0.9
vt 0.453383 0.9
vt 0.456578 0.5
vt 0.5198 0.9
vt 0.454669 0
vt 0.932991 0.668243
vt 1 0.578698
vt 0.990794 0.561735
vt 0.289912 0.5
vt 0.288003 0
vt 0.313533 0.9
vt 0.286717 0.9
vt 0.406138 0.5
vt 0.386966 0.9
vt 0.34035 0.9
vt 0.2401 0.9
vt 0.24649 0.5
vt 0.286717 0.9
vt 0.242672 0
vt 0.394682 0
vt 0.750376 0.510846
vt 0.74117 0.527809
vt 0.835797 0.668243
vt 0.402054 0.736095
vt 0.383642 0.736095
vt 0.469063 0.893492
vt 0.515092 0.527809
vt 0.505887 0.510846
vt 0.121336 0
vt 0.123245 0.5
vt 0.0798236 0.5
vt 0.0760053 0
vt 0.494113 0.17436
vt 0.484908 0.157397
vt 0.314066 0.157397
vt 0.30486 0.17436
vt 0.570328 0
vt 0.0453307 0
vt 0.0434215 0.5
vt 0.954669 0
vt 1 0
vt 1 0.5
vt 0.956578 0.5
vt 0.0466167 0.9
vt 0 0.9
vt 0.953383 0.9
vt 1 0.9
vt 0.0734333 0.9
vt 0.0466167 0.9
vt 0.0734333 0.9
vt 0.12005 0.9
vt 0.00920599 0.404339
vt 0.018412 0.421302
vt 0.0762149 0.314794
vt 0.057803 0.314794
vt 0.906767 0.9
vt 0.913157 0.5
vt 0.953383 0.9
vt 0.909339 0
vt 0.869735 0.5
vt 0.864008 0
vt 0.228645 0.314794
vt 0.237851 0.331757
vt 0.323272 0.17436
vt 0.0670089 0.331757
vt 0 0.736095
vt 0.057803 0.842603
vt 0.0762149 0.842603
vt 0.00920599 0.719132
vt 0.711997 0
vt 0.742672 0
vt 0.74649 0.5
vt 0.710088 0.5
vt 0.713283 0.9
vt 0.7401 0.9
vt 0.833333 0.5
vt 0.833333 0
vt 0.593233 0.9
vt 0.86015 0.9
vt 0.906767 0.9
vt 0.833333 0.9
vt 0.786717 0.9
vt 0.789912 0.5
vt 0.86015 0.9
vt 0.833333 0.9
vt 0.623245 0.5
vt 0.62005 0.9
vt 0.593233 0.9
vt 0.666667 0.9
vt 0.62005 0.9
vt 0.666667 0.5
vt 0.713283 0.9
vt 0.621336 0
vt 0.0854209 0.578698
vt 0.0946269 0.561735
vt 0 0.421302
vt 0.018412 0.736095
vt 0.103833 0.578698
vt 0.0946269 0.561735
vt 0.788003 0
vt 0.228645 0.842603
vt 0.237851 0.82564
vt 0.0670089 0.82564
vt 0.314066 1
vt 0.666667 0
vt 0.771355 0.157397
vt 0.762149 0.17436
vt 0.951403 0.17436
vt 0.942197 0.157397
vt 0.676728 0.016963
vt 0.166667 0
vt 0.166667 0.5
vt 0.166667 0.9
vt 0.12005 0.9
vt 0.896167 0.421302
vt 0.914579 0.421302
vt 1 0.263905
vt 0.990794 0.246942
vt 0.981588 0.578698
vt 0.203069 0.5
vt 0.197341 0
vt 0.193483 0.9
vt 0.166667 0.9
vt 0.932991 0.17436
vt 0.981588 0.263905
vt 0.774635 0.149775
vt 0.557959 0.550675
vt 0.71546 0.550675
vt 0.932137 0.70045
vt 1 0.574887
vt 0.91905 0.425113
vt 1 0.275338
vt 0.932137 0.149775
vt 0.79641 0.70045
vt 0.44838 0
vt 0.457886 0.372414
vt 0.458333 0.5
vt 0.655004 0.371119
vt 0.229763 0.29955
vt 0.0678634 0.29955
vt 0.029182 0.371119
vt 0.472611 0.149775
vt 0.770237 0.149775
vt 0.689288 0
vt 0.553561 0
vt 0.310712 0.149775
vt 0.542674 0.371119
vt 0.598839 0.475038
vt 0 0.425113
vt 0.0809496 0.574887
vt 0.191081 0.371119
vt 0.430343 0.371119
vt 0.191081 0.371119
vt 0 0.724662
vt 0.0678634 0.850225
vt 0.171399 0.850225
vt 0.229763 0.850225
vt 0.433353 0.724662
vt 0.512104 0.578956
vt 0.318013 0.578956
vt 0.446439 1
vt 0.514302 0.874437
vt 0.310712 1
vt 0.464777 0
vt 0.457886 0.372414
vt 0.452977 0.833333
vt 0.384528 0.833333
vt 0.374178 0.475038
vt 0.430343 0.578956

vn 0 -1 0
vn 0 0 -1
vn 0.866025 0 -0.5
vn 0.866025 0 -0.5
vn 0.866025 0 0.5
vn 0.866025 0 0.5
vn 0.866025 0 -0.5
vn -0.866025 0 -0.5
vn -0.866025 0 -0.5
vn -0.866025 0 -0.5
vn -0.866025 0 0.5
vn -0.866025 0 0.5
vn -0.866025 0 0.5
vn 0 0 1
vn -0.866025 0 0.5
vn -0.866025 0 0.5
vn 0.866025 0 0.5
vn 0.866025 0 0.5
vn 0.866025 0 0.5
vn 0.866025 0 -0.5
vn 0.866025 0 -0.5
vn 0.866025 0 0.5
vn 0.866025 0 0.5
vn 0.866025 0 -0.5
vn 0.866025 0 -0.5
vn -0.866025 0 -0.5
vn -0.866025 0 -0.5
vn 0.866025 0 0.5
vn 0.866025 0 0.5
vn 0.866025 0 -0.5
vn 0.866025 0 -0.5
vn -0.866025 0 -0.5
vn -0.866025 0 -0.5
vn -0.866025 0 -0.5
vn -0.866025 0 0.5
vn -0.866025 0 0.5
vn -0.866025 0 -0.5
vn -0.866025 0 -0.5
vn -0.866025 0 0.5
vn -0.866025 0 0.5
vn -0.866025 0 0.5
vn -0.866025 0 0.5
vn -0.866025 0 0.5
vn 0.866025 0 0.5
vn 0.866025 0 -0.5
vn 0.866025 0 -0.5
vn -0.866025 0 0.5
vn -0.866025 0 -0.5
vn -0.866025 0 0.5
vn 0.866025 0 0.5
vn 0.866025 0 -0.5
vn 0.866025 0 -0.5
vn -0.866025 0 -0.5
vn 0 1 0
vn 0.866025 0 -0.5
vn 0.866025 0 -0.5
vn 0.866025 0 -0.5
vn 0.866025 0 -0.5
vn 0.866025 0 -0.5
vn 0.866025 0 -0.5
vn 0.866025 0 -0.5
vn 0.866025 0 -0.5
vn -0.866025 0 -0.5
vn -0.866025 0 -0.5
vn 0.866025 0 -0.5
vn -0.866025 0 0.5
vn -0.866025 0 -0.5
vn -0.866025 0 -0.5
vn -0.866025 0 -0.5
vn -0.866025 0 0.5
vn -0.866025 0 0.5
vn -0.866025 0 0.5
vn -0.866025 0 -0.5
vn 0.866025 0 0.5
vn 0.866025 0 0.5
vn 0.866025 0 0.5
vn 0.866025 0 -0.5
vn 0.866025 0 -0.5
vn 0.866025 0 -0.5
vn -0.866025 0 -0.5
vn -0.866025 0 -0.5
vn -0.866025 0 -0.5
vn 0.866025 0 -0.5
vn 0.866025 0 -0.5
vn -0.866025 0 0.5
vn 0.866025 0 0.5
vn 0.866025 0 -0.5
vn 0.866025 0 -0.5
vn 0.866025 0 -0.5

f 1/1/1 2/2/1 3/3/1 4/4/1 5/5/1 6/6/1
f 7/7/2 8/8/2 6/9/2 5/10/2
f 9/11/2 8/8/2 10/12/2
f 11/13/3 12/14/3 13/15/4
f 14/16/5 2/17/6 1/18/6 15/19/5
f 1/18/7 6/20/7 12/14/3 15/21/3
f 4/22/8 16/23/9 17/7/10 5/10/8
f 4/22/11 3/24/11 18/25/12 19/23/13
f 3/24/14 2/17/14 20/16/14 21/25/14
f 22/9/15 23/26/15 24/27/16 25/4/16
f 23/26/14 26/28/14 27/29/14 24/27/14
f 26/28/17 28/30/17 29/31/17 27/29/17
f 28/30/14 30/32/14 31/33/14 29/31/14
f 30/32/18 32/34/18 33/35/19 31/33/19
f 32/34/20 34/36/20 35/37/21 33/35/21
f 34/36/22 36/38/22 37/39/23 35/37/23
f 36/38/24 38/40/24 39/41/25 37/39/25
f 38/40/2 40/42/2 41/43/2 39/41/2
f 40/42/26 42/44/26 43/45/27 41/43/27
f 44/46/28 45/47/28 46/48/29 47/49/29
f 45/47/30 48/50/30 49/51/31 46/48/31
f 48/50/2 50/52/2 51/53/2 49/51/2
f 50/52/32 52/54/32 53/55/32 51/53/32
f 52/54/2 54/56/2 55/57/2 53/55/2
f 54/56/33 56/58/33 57/59/34 55/57/34
f 56/58/35 58/60/35 59/61/36 57/59/36
f 58/60/37 60/62/37 61/63/38 59/61/38
f 60/62/39 62/64/39 63/65/40 61/63/40
f 62/64/14 64/66/14 65/67/14 63/65/14
f 64/66/41 66/68/41 67/69/42 65/67/42
f 66/68/14 22/70/14 25/71/14 67/69/14
f 68/72/32 51/53/32 53/55/32 69/73/32
f 70/74/32 71/75/32 59/61/38 61/63/38
f 72/76/43 73/77/43 61/63/40 63/65/40
f 65/67/14 74/78/14 75/79/14 63/65/14
f 76/80/14 67/69/14 25/71/14 77/81/14
f 31/33/14 78/82/14 79/83/14 29/31/14
f 46/48/29 80/84/44 81/85/44 47/49/29
f 46/48/31 49/51/31 82/86/45 80/87/46
f 83/86/2 49/51/2 51/53/2 84/72/2
f 24/27/16 85/88/47 86/89/47 25/4/16
f 87/90/14 24/27/14 27/29/14 88/91/14
f 89/92/44 27/29/17 29/31/17 90/83/44
f 55/57/2 91/93/2 92/73/2 53/55/2
f 93/94/48 94/93/48 55/57/34 57/59/34
f 93/94/49 57/59/36 59/61/36 95/75/49
f 33/35/19 96/95/50 97/82/50 31/33/19
f 33/35/21 35/37/21 98/96/51 99/97/51
f 35/37/23 37/39/23 100/98/44 101/96/44
f 102/98/52 37/39/25 39/41/25 103/99/52
f 104/99/2 39/41/2 41/43/2 105/100/2
f 106/100/53 41/43/27 43/45/27 107/101/53
f 108/102/54 109/103/54 110/104/54 111/105/54
f 112/106/54 113/107/54 114/108/54 115/109/54 116/110/54
f 117/111/54 118/112/54 119/113/54 120/114/54 121/115/54
f 122/116/54 123/117/54 119/113/54 118/112/54 124/118/54
f 125/119/54 126/120/54 119/113/54 123/117/54 127/121/54
f 114/108/54 113/107/54 128/122/54 109/103/54 129/123/54 130/124/54
f 109/103/54 128/122/54 119/113/54 126/120/54 131/125/54
f 132/126/55 133/127/56 134/128/56 135/129/55
f 132/126/55 135/129/55 121/130/57 120/131/57
f 119/132/28 136/133/28 132/126/28 120/131/28
f 136/133/28 137/134/28 138/135/28 132/126/28
f 128/136/58 139/137/59 136/133/59 119/132/58
f 139/137/59 140/138/60 137/139/60 136/133/59
f 114/140/22 141/141/23 142/142/23 115/143/22
f 113/144/2 143/145/2 139/137/2 128/136/2
f 141/141/23 144/146/44 145/147/44 142/142/23
f 143/145/2 146/148/2 140/138/2 139/137/2
f 147/149/61 142/142/61 148/150/62 149/151/62
f 147/149/2 150/152/2 151/153/2 152/154/2
f 152/154/63 153/155/64 154/156/64 143/145/63
f 147/149/61 116/157/65 115/143/65 142/142/61
f 147/149/2 152/154/2 112/158/2 116/157/2
f 112/158/53 152/154/63 143/145/63 113/144/53
f 155/159/29 108/160/28 111/161/28 156/162/29
f 157/163/22 155/159/29 156/162/29 158/164/22
f 159/4/66 160/165/15 161/166/15 162/167/66
f 162/167/14 161/168/14 158/164/14 156/162/14
f 159/169/14 163/170/14 164/171/14 165/172/14
f 159/4/66 162/167/66 110/173/15 109/174/15
f 110/173/14 162/167/14 156/162/14 111/161/14
f 163/170/14 159/169/14 109/175/14 131/176/14
f 166/177/14 126/178/14 125/179/14 167/180/14
f 168/181/14 166/177/14 167/180/14 169/182/14
f 166/177/42 170/183/42 171/184/42 163/170/42
f 126/178/49 166/177/42 163/170/42 131/176/49
f 172/185/67 173/186/68 174/187/68 175/188/67
f 172/185/67 175/188/67 122/189/69 124/190/69
f 176/191/70 177/192/71 178/193/71 167/180/70
f 179/194/2 117/195/2 121/130/2 135/129/2
f 179/194/34 180/196/34 118/197/32 117/195/32
f 118/197/2 180/196/2 172/185/2 124/190/2
f 181/198/36 123/199/35 122/189/35 175/188/36
f 127/200/37 123/199/37 181/198/38 176/191/38
f 127/200/72 176/191/70 167/180/70 125/179/72
f 179/194/2 135/129/2 134/201/2 182/202/2
f 183/203/49 181/198/36 175/188/36 184/204/49
f 181/198/38 185/205/32 186/206/32 176/191/38
f 187/207/73 180/196/34 179/194/34 188/208/73
f 180/196/2 187/209/2 189/210/2 172/185/2
f 190/211/14 191/212/14 155/159/14 192/213/14
f 191/212/14 129/214/14 108/160/14 155/159/14
f 191/212/74 193/215/74 130/216/75 129/214/75
f 193/215/21 141/141/21 114/140/20 130/216/20
f 193/215/21 194/217/51 195/218/51 141/141/21
f 196/219/76 193/215/74 191/212/74 197/220/76
f 198/221/1 199/222/1 200/223/1 201/224/1
f 202/225/1 203/226/1 204/227/1 205/228/1
f 204/229/55 203/230/55 206/231/30 207/232/30
f 208/233/28 209/234/28 207/232/28 210/235/28
f 211/236/1 212/237/1 202/225/1 213/238/1
f 209/234/28 214/239/28 204/229/28 207/232/28
f 215/240/1 216/241/1 217/242/1 218/243/1
f 215/244/2 218/245/2 219/246/2 220/247/2
f 219/246/2 221/248/2 222/249/2 220/247/2
f 223/250/77 224/251/78 209/234/78 225/252/77
f 224/251/78 226/253/59 214/239/59 209/234/78
f 227/254/1 216/241/1 228/255/1 229/256/1
f 230/257/24 228/258/61 215/244/61 220/247/24
f 230/257/24 220/247/24 231/259/79 232/260/79
f 233/261/26 234/262/80 235/263/80 219/246/26
f 236/262/2 233/261/2 224/251/2 223/250/2
f 237/264/22 238/265/22 230/257/22 239/266/22
f 238/265/22 240/267/23 228/258/23 230/257/22
f 241/268/63 233/261/26 219/246/26 218/245/63
f 242/269/1 241/270/1 217/242/1 243/271/1
f 214/272/1 244/273/1 245/274/1 205/228/1
f 226/275/1 241/270/1 242/269/1 246/276/1
f 246/276/1 244/273/1 214/272/1 226/275/1
f 233/261/2 241/268/2 226/253/2 224/251/2
f 247/277/29 248/278/17 249/279/17 199/280/29
f 250/281/1 251/282/1 252/283/1 253/284/1
f 254/285/1 251/282/1 250/281/1 200/223/1
f 251/9/66 254/286/66 255/287/15 256/4/15
f 255/287/14 254/286/14 199/280/14 249/279/14
f 252/288/14 251/289/14 256/290/14 257/291/14
f 255/287/15 258/292/15 259/293/15 256/4/15
f 260/294/14 257/291/14 256/290/14 261/295/14
f 262/296/14 258/297/14 255/287/14 249/279/14
f 263/298/17 249/279/17 248/278/17 157/299/17
f 264/300/1 265/301/1 266/302/1 267/303/1
f 268/304/42 269/305/41 257/291/41 270/306/42
f 271/307/14 269/305/14 272/308/14 267/309/14
f 271/310/1 273/311/1 274/312/1 253/284/1
f 275/313/1 273/311/1 271/310/1 266/302/1
f 269/305/41 271/307/42 252/288/42 257/291/41
f 276/314/1 277/315/1 278/316/1 279/317/1
f 277/318/67 276/319/67 280/320/33 281/321/33
f 282/322/81 281/321/33 280/320/33 283/323/82
f 284/324/39 285/325/70 267/309/70 272/308/39
f 286/326/83 287/235/84 207/232/30 206/231/30
f 288/327/14 272/308/14 269/305/14 268/328/14
f 289/329/37 290/330/37 291/331/37 284/324/37
f 288/332/85 292/333/85 284/324/39 272/308/39
f 293/334/2 294/335/2 295/336/2 206/231/2
f 296/337/32 297/338/32 293/334/32 298/339/32
f 291/331/35 299/330/35 300/323/35 280/320/35
f 296/337/2 298/339/2 281/321/2 282/340/2
f 301/341/2 293/334/2 206/231/2 203/230/2
f 302/342/1 303/343/1 264/300/1 285/344/1
f 279/317/1 304/345/1 305/346/1 306/347/1
f 302/348/36 291/331/35 280/320/35 276/319/36
f 291/331/37 302/348/38 285/325/38 284/324/37
f 307/349/1 308/350/1 309/351/1 278/316/1
f 212/237/1 308/350/1 307/349/1 301/352/1
f 307/353/34 298/339/32 293/334/32 301/341/34
f 298/339/2 307/353/2 277/318/2 281/321/2
f 247/354/1 310/355/1 311/356/1 312/357/1
f 313/358/1 310/355/1 247/354/1 198/221/1
f 312/359/14 314/360/14 248/278/14 247/277/14
f 314/360/14 315/361/14 316/362/14 248/278/14
f 317/363/1 240/364/1 318/365/1 319/366/1
f 229/256/1 240/364/1 317/363/1 320/367/1
f 321/368/20 318/369/21 240/267/21 238/265/20
f 321/368/20 238/265/20 237/264/20 322/370/20
f 314/360/18 321/368/18 322/370/86 323/371/86
f 311/356/1 324/372/1 325/373/1 319/366/1
f 318/369/74 321/368/18 314/360/18 312/359/74
f 326/374/1 327/375/1 42/376/1
f 38/377/1 36/378/1 34/379/1
f 326/374/1 34/379/1 32/380/1 30/381/1
f 38/377/1 34/379/1 326/374/1 42/376/1 40/382/1
f 43/45/2 42/44/2 327/383/2 328/384/2 329/385/2
f 330/386/1 64/387/1 62/388/1 331/389/1
f 22/390/1 28/391/1 26/392/1 23/393/1
f 330/386/1 326/374/1 66/394/1 64/387/1
f 332/78/49 65/67/42 67/69/42 333/80/49
f 334/395/1 335/396/1 330/386/1
f 60/397/1 58/398/1 336/399/1 331/389/1
f 337/400/1 336/401/1 56/402/1 54/403/1 338/404/1
f 338/404/1 52/405/1 44/406/1 339/407/1 340/408/1
f 48/409/1 45/410/1 44/406/1 52/405/1 50/411/1
f 339/412/78 44/46/78 47/49/87 329/385/87 328/413/88
f 341/414/89 329/385/87 47/49/87 342/85/89
f 343/414/2 344/415/2 43/45/2 329/385/2
f 345/416/1 340/408/1 346/417/1