v 0.166667 0 0.0412393 0.396078 0.262745 0.129412
v 0.0952381 0 0.164957 0.396078 0.262745 0.129412
v -0.047619 0 0.164957 0.396078 0.262745 0.129412
v -0.119048 0 0.0412393 0.396078 0.262745 0.129412
v -0.047619 0 -0.0824786 0.396078 0.262745 0.129412
v 0.0952381 0 -0.0824786 0.396078 0.262745 0.129412
v 0.0733688 0.25 -0.0445998 0.60404 0.672727 0.741414
v 0.122928 0.25 0.0412393 0.60404 0.672727 0.741414
v -0.0257497 0.25 -0.0445998 0.60404 0.672727 0.741414
v -0.0257497 0.25 -0.0445998 0.60404 0.672727 0.741414
v -0.075309 0.25 0.0412393 0.60404 0.672727 0.741414
v -0.075309 0.25 0.0412393 0.60404 0.672727 0.741414
v -0.0257497 0.25 0.127078 0.60404 0.672727 0.741414
v 0.0733688 0.25 0.127078 0.60404 0.672727 0.741414
v -0.0257497 0.25 0.127078 0.60404 0.672727 0.741414
v 0.122928 0.25 0.0412393 0.60404 0.672727 0.741414
v 0.0598816 0.25 0.351154 0.903529 0.793333 0.746667
v 0.202739 0.25 0.351154 0.903529 0.793333 0.746667
v 0.214286 0.325 0.371154 0.903529 0.793333 0.746667
v 0.0714286 0.325 0.371154 0.903529 0.793333 0.746667
v 0.274167 0.25 0.227436 0.903529 0.793333 0.746667
v 0.285714 0.325 0.247436 0.903529 0.793333 0.746667
v 0.417024 0.25 0.227436 0.903529 0.793333 0.746667
v 0.428571 0.325 0.247436 0.903529 0.793333 0.746667
v 0.476906 0.25 0.123718 0.903529 0.793333 0.746667
v 0.5 0.325 0.123718 0.903529 0.793333 0.746667
v 0.417024 0.25 0.02 0.903529 0.793333 0.746667
v 0.428571 0.325 0 0.903529 0.793333 0.746667
v 0.274167 0.25 0.02 0.903529 0.793333 0.746667
v 0.285714 0.325 0 0.903529 0.793333 0.746667
v 0.191192 0.25 -0.123718 0.903529 0.793333 0.746667
v 0.214286 0.325 -0.123718 0.903529 0.793333 0.746667
v 0.26262 0.25 -0.247436 0.903529 0.793333 0.746667
v 0.285714 0.325 -0.247436 0.903529 0.793333 0.746667
v 0.202739 0.25 -0.351154 0.903529 0.793333 0.746667
v 0.214286 0.325 -0.371154 0.903529 0.793333 0.746667
v 0.0598816 0.25 -0.351154 0.903529 0.793333 0.746667
v 0.0714286 0.325 -0.371154 0.903529 0.793333 0.746667
v -0.011547 0.25 -0.474872 0.903529 0.793333 0.746667
v 0 0.325 -0.494872 0.903529 0.793333 0.746667
v -0.13131 0.25 -0.474872 0.903529 0.793333 0.746667
v -0.142857 0.325 -0.494872 0.903529 0.793333 0.746667
v -0.191192 0.25 -0.371154 0.903529 0.793333 0.746667
v -0.214286 0.325 -0.371154 0.903529 0.793333 0.746667
v -0.119763 0.25 -0.247436 0.903529 0.793333 0.746667
v -0.142857 0.325 -0.247436 0.903529 0.793333 0.746667
v -0.191192 0.25 -0.123718 0.903529 0.793333 0.746667
v -0.214286 0.325 -0.123718 0.903529 0.793333 0.746667
v -0.119763 0.25 0 0.903529 0.793333 0.746667
v -0.142857 0.325 0 0.903529 0.793333 0.746667
v -0.202739 0.25 0.143718 0.903529 0.793333 0.746667
v -0.214286 0.325 0.123718 0.903529 0.793333 0.746667
v -0.345596 0.25 0.143718 0.903529 0.793333 0.746667
v -0.357143 0.325 0.123718 0.903529 0.793333 0.746667
v -0.405477 0.25 0.247436 0.903529 0.793333 0.746667
v -0.428571 0.325 0.247436 0.903529 0.793333 0.746667
v -0.345596 0.25 0.351154 0.903529 0.793333 0.746667
v -0.357143 0.325 0.371154 0.903529 0.793333 0.746667
v -0.202739 0.25 0.351154 0.903529 0.793333 0.746667
v -0.214286 0.325 0.371154 0.903529 0.793333 0.746667
v -0.13131 0.25 0.474872 0.903529 0.793333 0.746667
v -0.142857 0.325 0.494872 0.903529 0.793333 0.746667
v -0.011547 0.25 0.474872 0.903529 0.793333 0.746667
v 0 0.325 0.494872 0.903529 0.793333 0.746667
v -0.112065 0.475 0.441538 0.718431 0.662353 0.655686
v -0.183494 0.475 0.31782 0.718431 0.662353 0.655686
v -0.112065 0.475 0.441538 0.718431 0.662353 0.655686
v -0.030792 0.475 0.441538 0.718431 0.662353 0.655686
v -0.030792 0.475 0.441538 0.718431 0.662353 0.655686
v 0.0406366 0.475 0.31782 0.718431 0.662353 0.655686
v 0.183494 0.475 0.31782 0.718431 0.662353 0.655686
v 0.0406366 0.475 0.31782 0.718431 0.662353 0.655686
v 0.183494 0.475 0.31782 0.718431 0.662353 0.655686
v 0.254922 0.475 0.194102 0.718431 0.662353 0.655686
v 0.254922 0.475 0.194102 0.718431 0.662353 0.655686
v 0.397779 0.475 0.194102 0.718431 0.662353 0.655686
v 0.397779 0.475 0.194102 0.718431 0.662353 0.655686
v 0.438416 0.475 0.123718 0.718431 0.662353 0.655686
v -0.326351 0.475 0.31782 0.718431 0.662353 0.655686
v -0.366987 0.475 0.247436 0.718431 0.662353 0.655686
v -0.326351 0.475 0.31782 0.718431 0.662353 0.655686
v -0.183494 0.475 0.31782 0.718431 0.662353 0.655686
v -0.326351 0.475 0.177051 0.718431 0.662353 0.655686
v -0.183494 0.475 0.177051 0.718431 0.662353 0.655686
v -0.366987 0.475 0.247436 0.718431 0.662353 0.655686
v 0.397779 0.475 0.0533333 0.718431 0.662353 0.655686
v 0.438416 0.475 0.123718 0.718431 0.662353 0.655686
v 0.254922 0.475 0.0533333 0.718431 0.662353 0.655686
v 0.152702 0.475 -0.123718 0.718431 0.662353 0.655686
v 0.22413 0.475 -0.247436 0.718431 0.662353 0.655686
v 0.22413 0.475 -0.247436 0.718431 0.662353 0.655686
v 0.183494 0.475 -0.31782 0.718431 0.662353 0.655686
v 0.0406366 0.475 -0.31782 0.718431 0.662353 0.655686
v 0.183494 0.475 -0.31782 0.718431 0.662353 0.655686
v -0.030792 0.475 -0.441538 0.718431 0.662353 0.655686
v 0.0406366 0.475 -0.31782 0.718431 0.662353 0.655686
v -0.030792 0.475 -0.441538 0.718431 0.662353 0.655686
v -0.112065 0.475 -0.441538 0.718431 0.662353 0.655686
v -0.112065 0.475 -0.441538 0.718431 0.662353 0.655686
v -0.152702 0.475 -0.371154 0.718431 0.662353 0.655686
v -0.152702 0.475 -0.371154 0.718431 0.662353 0.655686
v -0.0812731 0.475 -0.247436 0.718431 0.662353 0.655686
v -0.0812731 0.475 -0.247436 0.718431 0.662353 0.655686
v -0.152702 0.475 -0.123718 0.718431 0.662353 0.655686
v 0.382383 1 0.08 0.0705882 0.203922 0.337255
v 0.239526 1 0.08 0.0705882 0.203922 0.337255
v 0.239526 1 0.167436 0.0705882 0.203922 0.337255
v 0.382383 1 0.167436 0.0705882 0.203922 0.337255
v 0.407624 1 0.123718 0.0705882 0.203922 0.337255
v -0.12191 1 -0.371154 0.0705882 0.203922 0.337255
v -0.0504811 1 -0.247436 0.0705882 0.203922 0.337255
v 0.0252405 1 -0.291154 0.0705882 0.203922 0.337255
v -0.046188 1 -0.414872 0.0705882 0.203922 0.337255
v -0.0966691 1 -0.414872 0.0705882 0.203922 0.337255
v -0.310955 1 0.291154 0.0705882 0.203922 0.337255
v -0.168098 1 0.291154 0.0705882 0.203922 0.337255
v -0.168098 1 0.203718 0.0705882 0.203922 0.337255
v -0.310955 1 0.203718 0.0705882 0.203922 0.337255
v -0.336195 1 0.247436 0.0705882 0.203922 0.337255
v -0.046188 1 0.414872 0.0705882 0.203922 0.337255
v 0.0252405 1 0.291154 0.0705882 0.203922 0.337255
v -0.0966691 1 0.414872 0.0705882 0.203922 0.337255
v -0.12191 1 -0.123718 0.0705882 0.203922 0.337255
v -0.0504811 1 0 0.0705882 0.203922 0.337255
v 0.12191 1 -0.123718 0.0705882 0.203922 0.337255
v 0.193338 1 -0.247436 0.0705882 0.203922 0.337255
v 0.168098 1 -0.291154 0.0705882 0.203922 0.337255
v 0.168098 1 0.291154 0.0705882 0.203922 0.337255
v 0.239526 0.775 -0.247436 0.348235 0.400392 0.473725
v 0.22567 0.73 -0.247436 0.403765 0.439686 0.50102
v 0.184264 0.73 -0.319154 0.403765 0.439686 0.50102
v 0.191192 0.775 -0.331154 0.348235 0.400392 0.473725
v -0.023094 0.775 -0.454872 0.348235 0.400392 0.473725
v -0.0300222 0.73 -0.442872 0.403765 0.439686 0.50102
v -0.112835 0.73 -0.442872 0.403765 0.439686 0.50102
v -0.119763 0.775 -0.454872 0.348235 0.400392 0.473725
v 0.0483346 0.775 -0.331154 0.348235 0.400392 0.473725
v 0.0414064 0.73 -0.319154 0.403765 0.439686 0.50102
v -0.0300222 0.73 -0.442872 0.403765 0.439686 0.50102
v 0.26262 0.775 0.04 0.348235 0.400392 0.473725
v 0.168098 0.775 -0.123718 0.348235 0.400392 0.473725
v 0.255692 0.73 0.052 0.403765 0.439686 0.50102
v 0.154241 0.73 -0.123718 0.403765 0.439686 0.50102
v -0.168098 0.775 -0.371154 0.348235 0.400392 0.473725
v -0.0966691 0.775 -0.247436 0.348235 0.400392 0.473725
v -0.112835 0.73 -0.442872 0.403765 0.439686 0.50102
v -0.154241 0.73 -0.371154 0.403765 0.439686 0.50102
v -0.0828127 0.73 -0.247436 0.403765 0.439686 0.50102
v 0.0414064 0.73 -0.319154 0.403765 0.439686 0.50102
v 0.184264 0.73 -0.319154 0.403765 0.439686 0.50102
v 0.154241 0.73 -0.123718 0.403765 0.439686 0.50102
v 0.22567 0.73 -0.247436 0.403765 0.439686 0.50102
v 0.405477 0.775 0.207436 0.348235 0.400392 0.473725
v 0.398549 0.73 0.195436 0.403765 0.439686 0.50102
v 0.439956 0.73 0.123718 0.403765 0.439686 0.50102
v 0.453812 0.775 0.123718 0.348235 0.400392 0.473725
v 0.26262 0.775 0.207436 0.348235 0.400392 0.473725
v 0.405477 0.775 0.04 0.348235 0.400392 0.473725
v 0.255692 0.73 0.195436 0.403765 0.439686 0.50102
v 0.398549 0.73 0.052 0.403765 0.439686 0.50102
v 0.255692 0.73 0.052 0.403765 0.439686 0.50102
v 0.398549 0.73 0.052 0.403765 0.439686 0.50102
v 0.439956 0.73 0.123718 0.403765 0.439686 0.50102
v -0.168098 0.775 -0.123718 0.348235 0.400392 0.473725
v -0.0966691 0.775 0 0.348235 0.400392 0.473725
v -0.191192 0.775 0.163718 0.348235 0.400392 0.473725
v -0.334049 0.775 0.163718 0.348235 0.400392 0.473725
v -0.382383 0.775 0.247436 0.348235 0.400392 0.473725
v -0.0828127 0.73 -0.247436 0.403765 0.439686 0.50102
v -0.154241 0.73 -0.123718 0.403765 0.439686 0.50102
v -0.327121 0.73 0.175718 0.403765 0.439686 0.50102
v -0.368527 0.73 0.247436 0.403765 0.439686 0.50102
v -0.0828127 0.73 0 0.403765 0.439686 0.50102
v -0.154241 0.73 -0.123718 0.403765 0.439686 0.50102
v -0.184264 0.73 0.175718 0.403765 0.439686 0.50102
v -0.0828127 0.73 0 0.403765 0.439686 0.50102
v -0.184264 0.73 0.175718 0.403765 0.439686 0.50102
v -0.327121 0.73 0.175718 0.403765 0.439686 0.50102
v 0.0483346 0.775 0.331154 0.348235 0.400392 0.473725
v 0.0414064 0.73 0.319154 0.403765 0.439686 0.50102
v 0.184264 0.73 0.319154 0.403765 0.439686 0.50102
v 0.191192 0.775 0.331154 0.348235 0.400392 0.473725
v 0.255692 0.73 0.195436 0.403765 0.439686 0.50102
v -0.023094 0.775 0.454872 0.348235 0.400392 0.473725
v -0.0300222 0.73 0.442872 0.403765 0.439686 0.50102
v -0.334049 0.775 0.331154 0.348235 0.400392 0.473725
v -0.368527 0.73 0.247436 0.403765 0.439686 0.50102
v -0.327121 0.73 0.319154 0.403765 0.439686 0.50102
v -0.119763 0.775 0.454872 0.348235 0.400392 0.473725
v -0.112835 0.73 0.442872 0.403765 0.439686 0.50102
v -0.0300222 0.73 0.442872 0.403765 0.439686 0.50102
v -0.191192 0.775 0.331154 0.348235 0.400392 0.473725
v -0.184264 0.73 0.319154 0.403765 0.439686 0.50102
v -0.112835 0.73 0.442872 0.403765 0.439686 0.50102
v 0.191192 0.475 -0.331154 0.718431 0.662353 0.655686
v 0.239526 0.475 -0.247436 0.718431 0.662353 0.655686
v 0.231828 0.475 -0.234102 0.718431 0.662353 0.655686
v 0.175796 0.475 -0.331154 0.718431 0.662353 0.655686
v 0.202739 0.55 -0.351154 0.625882 0.596863 0.610196
v 0.26262 0.55 -0.247436 0.625882 0.596863 0.610196
v 0.184264 0.73 -0.319154 0.403765 0.439686 0.50102
v 0.22567 0.73 -0.247436 0.403765 0.439686 0.50102
v -0.127461 0.475 -0.441538 0.718431 0.662353 0.655686
v -0.119763 0.475 -0.454872 0.718431 0.662353 0.655686
v -0.023094 0.475 -0.454872 0.718431 0.662353 0.655686
v -0.015396 0.475 -0.441538 0.718431 0.662353 0.655686
v -0.13131 0.55 -0.474872 0.625882 0.596863 0.610196
v -0.011547 0.55 -0.474872 0.625882 0.596863 0.610196
v 0.0598816 0.55 -0.351154 0.625882 0.596863 0.610196
v 0.0414064 0.73 -0.319154 0.403765 0.439686 0.50102
v 0.0414064 0.73 -0.319154 0.403765 0.439686 0.50102
v -0.0300222 0.73 -0.442872 0.403765 0.439686 0.50102
v 0.0483346 0.475 -0.331154 0.718431 0.662353 0.655686
v -0.152702 0.475 -0.371154 0.718431 0.662353 0.655686
v -0.1604 0.475 -0.384487 0.718431 0.662353 0.655686
v -0.112065 0.475 -0.441538 0.718431 0.662353 0.655686
v 0.154241 0.73 -0.123718 0.403765 0.439686 0.50102
v 0.191192 0.55 -0.123718 0.625882 0.596863 0.610196
v 0.22567 0.73 -0.247436 0.403765 0.439686 0.50102
v 0.26262 0.475 0.04 0.718431 0.662353 0.655686
v 0.168098 0.475 -0.123718 0.718431 0.662353 0.655686
v 0.274167 0.55 0.02 0.625882 0.596863 0.610196
v -0.191192 0.55 -0.371154 0.625882 0.596863 0.610196
v -0.154241 0.73 -0.371154 0.403765 0.439686 0.50102
v -0.112835 0.73 -0.442872 0.403765 0.439686 0.50102
v -0.119763 0.55 -0.247436 0.625882 0.596863 0.610196
v -0.0828127 0.73 -0.247436 0.403765 0.439686 0.50102
v -0.154241 0.73 -0.371154 0.403765 0.439686 0.50102
v -0.112835 0.73 -0.442872 0.403765 0.439686 0.50102
v -0.0966691 0.475 -0.247436 0.718431 0.662353 0.655686
v -0.0812731 0.475 -0.247436 0.718431 0.662353 0.655686
v -0.152702 0.475 -0.123718 0.718431 0.662353 0.655686
v -0.1604 0.475 -0.137051 0.718431 0.662353 0.655686
v -0.168098 0.475 -0.371154 0.718431 0.662353 0.655686
v 0.0406366 0.475 -0.31782 0.718431 0.662353 0.655686
v 0.183494 0.475 -0.31782 0.718431 0.662353 0.655686
v -0.030792 0.475 -0.441538 0.718431 0.662353 0.655686
v 0.446114 0.475 0.110385 0.718431 0.662353 0.655686
v 0.453812 0.475 0.123718 0.718431 0.662353 0.655686
v 0.405477 0.475 0.207436 0.718431 0.662353 0.655686
v 0.390081 0.475 0.207436 0.718431 0.662353 0.655686
v 0.476906 0.55 0.123718 0.625882 0.596863 0.610196
v 0.417024 0.55 0.227436 0.625882 0.596863 0.610196
v 0.439956 0.73 0.123718 0.403765 0.439686 0.50102
v 0.398549 0.73 0.195436 0.403765 0.439686 0.50102
v 0.255692 0.73 0.052 0.403765 0.439686 0.50102
v 0.255692 0.73 0.052 0.403765 0.439686 0.50102
v 0.398549 0.73 0.052 0.403765 0.439686 0.50102
v 0.417024 0.55 0.02 0.625882 0.596863 0.610196
v 0.398549 0.73 0.052 0.403765 0.439686 0.50102
v 0.439956 0.73 0.123718 0.403765 0.439686 0.50102
v 0.255692 0.73 0.195436 0.403765 0.439686 0.50102
v 0.274167 0.55 0.227436 0.625882 0.596863 0.610196
v 0.398549 0.73 0.195436 0.403765 0.439686 0.50102
v 0.26262 0.475 0.207436 0.718431 0.662353 0.655686
v 0.254922 0.475 0.0533333 0.718431 0.662353 0.655686
v 0.405477 0.475 0.04 0.718431 0.662353 0.655686
v 0.413175 0.475 0.0533333 0.718431 0.662353 0.655686
v 0.152702 0.475 -0.123718 0.718431 0.662353 0.655686
v 0.22413 0.475 -0.247436 0.718431 0.662353 0.655686
v 0.397779 0.475 0.0533333 0.718431 0.662353 0.655686
v 0.438416 0.475 0.123718 0.718431 0.662353 0.655686
v -0.366987 0.475 0.247436 0.718431 0.662353 0.655686
v -0.374685 0.475 0.234102 0.718431 0.662353 0.655686
v -0.341747 0.475 0.177051 0.718431 0.662353 0.655686
v -0.326351 0.475 0.177051 0.718431 0.662353 0.655686
v -0.191192 0.55 -0.123718 0.625882 0.596863 0.610196
v -0.154241 0.73 -0.123718 0.403765 0.439686 0.50102
v -0.0828127 0.73 -0.247436 0.403765 0.439686 0.50102
v -0.0828127 0.73 0 0.403765 0.439686 0.50102
v -0.119763 0.55 0 0.625882 0.596863 0.610196
v -0.184264 0.73 0.175718 0.403765 0.439686 0.50102
v -0.202739 0.55 0.143718 0.625882 0.596863 0.610196
v -0.345596 0.55 0.143718 0.625882 0.596863 0.610196
v -0.327121 0.73 0.175718 0.403765 0.439686 0.50102
v -0.168098 0.475 -0.123718 0.718431 0.662353 0.655686
v -0.334049 0.475 0.163718 0.718431 0.662353 0.655686
v -0.382383 0.475 0.247436 0.718431 0.662353 0.655686
v -0.405477 0.55 0.247436 0.625882 0.596863 0.610196
v -0.191192 0.475 0.163718 0.718431 0.662353 0.655686
v -0.183494 0.475 0.177051 0.718431 0.662353 0.655686
v -0.0812731 0.475 0 0.718431 0.662353 0.655686
v -0.0966691 0.475 0 0.718431 0.662353 0.655686
v -0.368527 0.73 0.247436 0.403765 0.439686 0.50102
v -0.327121 0.73 0.175718 0.403765 0.439686 0.50102
v 0.254922 0.475 0.194102 0.718431 0.662353 0.655686
v 0.19889 0.475 0.31782 0.718431 0.662353 0.655686
v 0.183494 0.475 0.31782 0.718431 0.662353 0.655686
v 0.397779 0.475 0.194102 0.718431 0.662353 0.655686
v -0.326351 0.475 0.31782 0.718431 0.662353 0.655686
v -0.341747 0.475 0.31782 0.718431 0.662353 0.655686
v 0.0329386 0.475 0.331154 0.718431 0.662353 0.655686
v 0.0483346 0.475 0.331154 0.718431 0.662353 0.655686
v -0.023094 0.475 0.454872 0.718431 0.662353 0.655686
v -0.03849 0.475 0.454872 0.718431 0.662353 0.655686
v 0.0406366 0.475 0.31782 0.718431 0.662353 0.655686
v 0.191192 0.475 0.331154 0.718431 0.662353 0.655686
v 0.202739 0.55 0.351154 0.625882 0.596863 0.610196
v 0.0598816 0.55 0.351154 0.625882 0.596863 0.610196
v -0.011547 0.55 0.474872 0.625882 0.596863 0.610196
v 0.255692 0.73 0.195436 0.403765 0.439686 0.50102
v 0.184264 0.73 0.319154 0.403765 0.439686 0.50102
v 0.184264 0.73 0.319154 0.403765 0.439686 0.50102
v 0.0414064 0.73 0.319154 0.403765 0.439686 0.50102
v -0.0300222 0.73 0.442872 0.403765 0.439686 0.50102
v 0.0414064 0.73 0.319154 0.403765 0.439686 0.50102
v -0.334049 0.475 0.331154 0.718431 0.662353 0.655686
v -0.345596 0.55 0.351154 0.625882 0.596863 0.610196
v -0.327121 0.73 0.319154 0.403765 0.439686 0.50102
v -0.368527 0.73 0.247436 0.403765 0.439686 0.50102
v -0.119763 0.475 0.454872 0.718431 0.662353 0.655686
v -0.127461 0.475 0.441538 0.718431 0.662353 0.655686
v -0.030792 0.475 0.441538 0.718431 0.662353 0.655686
v -0.13131 0.55 0.474872 0.625882 0.596863 0.610196
v -0.0300222 0.73 0.442872 0.403765 0.439686 0.50102
v -0.112835 0.73 0.442872 0.403765 0.439686 0.50102
v -0.202739 0.55 0.351154 0.625882 0.596863 0.610196
v -0.184264 0.73 0.319154 0.403765 0.439686 0.50102
v -0.327121 0.73 0.319154 0.403765 0.439686 0.50102
v -0.112835 0.73 0.442872 0.403765 0.439686 0.50102
v -0.184264 0.73 0.319154 0.403765 0.439686 0.50102
v -0.112065 0.475 0.441538 0.718431 0.662353 0.655686
v -0.191192 0.475 0.331154 0.718431 0.662353 0.655686
v -0.175796 0.475 0.331154 0.718431 0.662353 0.655686
v -0.183494 0.475 0.31782 0.718431 0.662353 0.655686
v -0.153179 0.25 -0.436993 0.903529 0.793333 0.746667
v 0.252298 0.25 0.265315 0.903529 0.793333 0.746667
v 0.152702 0.475 -0.123718 0.718431 0.662353 0.655686
v -0.193132 0.25 0.127078 0.903529 0.793333 0.746667
v 0.172487 0.25 0.127078 0.903529 0.793333 0.746667
v 0.0733688 0.25 0.127078 0.903529 0.793333 0.746667
v 0.122928 0.25 0.0412393 0.903529 0.793333 0.746667
v -0.0257497 0.25 0.127078 0.903529 0.793333 0.746667
v -0.180869 0.25 -0.141597 0.903529 0.793333 0.746667
v -0.152702 0.475 -0.123718 0.718431 0.662353 0.655686
v -0.0812731 0.475 0 0.718431 0.662353 0.655686
v -0.0812731 0.475 0 0.718431 0.662353 0.655686
v 0.0733688 0.25 -0.0445998 0.903529 0.793333 0.746667
v -0.124868 0.25 -0.0445998 0.903529 0.793333 0.746667
v -0.0257497 0.25 -0.0445998 0.903529 0.793333 0.746667
v -0.075309 0.25 0.0412393 0.903529 0.793333 0.746667

vt 1 0.5
vt 0.75 0
vt 0.25 0
vt 0 0.5
vt 0.25 1
vt 0.75 1
vt 1 0.757576
vt 0.833333 0.757576
vt 0.833333 0
vt 1 0
vt 0.166667 0
vt 0.166667 0.757576
vt 0 0.757576
vt 0 0
vt 0.333333 0
vt 0.333333 0.757576
vt 0.5 0
vt 0.5 0.757576
vt 0.666667 0
vt 0.666667 0.757576
vt 0.666667 0.757576
vt 0.0434215 0
vt 0.0416667 0.5
vt 0.0868431 0
vt 0.0833333 0.5
vt 0.130265 0
vt 0.125 0.5
vt 0.166667 0
vt 0.166667 0.5
vt 0.203069 0
vt 0.208333 0.5
vt 0.24649 0
vt 0.25 0.5
vt 0.296931 0
vt 0.291667 0.5
vt 0.340353 0
vt 0.333333 0.5
vt 0.376755 0
vt 0.375 0.5
vt 0.420176 0
vt 0.416667 0.5
vt 0.463598 0
vt 0.458333 0.5
vt 0.5 0
vt 0.5 0.5
vt 0.536402 0
vt 0.541667 0.5
vt 0.579824 0
vt 0.583333 0.5
vt 0.623245 0
vt 0.625 0.5
vt 0.666667 0
vt 0.666667 0.5
vt 0.717108 0
vt 0.708333 0.5
vt 0.760529 0
vt 0.75 0.5
vt 0.796931 0
vt 0.791667 0.5
vt 0.833333 0
vt 0.833333 0.5
vt 0.876755 0
vt 0.875 0.5
vt 0.920176 0
vt 0.916667 0.5
vt 0.956578 0
vt 0.958333 0.5
vt 1 0
vt 0.927379 0.833333
vt 0.880356 0.833333
vt 0.952977 0.833333
vt 1 0.833333
vt 0.0470231 0.833333
vt 0 0.833333
vt 0.0940462 0.833333
vt 0.141069 0.833333
vt 0.166667 0.833333
vt 0.833333 0.833333
vt 0.807736 0.833333
vt 0.833333 0.833333
vt 0.880356 0.833333
vt 0.782138 0.833333
vt 0.735115 0.833333
vt 0.192264 0.833333
vt 0.239287 0.833333
vt 0.307736 0.833333
vt 0.354759 0.833333
vt 0.380356 0.833333
vt 0.427379 0.833333
vt 0.474403 0.833333
vt 0.427379 0.833333
vt 0.5 0.833333
vt 0.525597 0.833333
vt 0.572621 0.833333
vt 0.619644 0.833333
vt 0.966066 0.403585
vt 0.774007 0.403585
vt 0.774007 0.298208
vt 0.966066 0.298208
vt 1 0.350896
vt 0.288088 0.947312
vt 0.384118 0.798208
vt 0.485919 0.850896
vt 0.38989 1
vt 0.322022 1
vt 0.0339337 0.149104
vt 0.225993 0.149104
vt 0.225993 0.254481
vt 0.0339337 0.254481
vt 0 0.201792
vt 0.38989 0
vt 0.485919 0.149104
vt 0.322022 0
vt 0.288088 0.649104
vt 0.384118 0.5
vt 0.615882 0.649104
vt 0.711912 0.798208
vt 0.677978 0.850896
vt 0.677978 0.149104
vt 0.347989 0.5
vt 0.352993 0.2
vt 0.379915 0.2
vt 0.378664 0.5
vt 0.383035 1
vt 0.365472 1
vt 0.469325 0.5
vt 0.473078 0.2
vt 0.5 0.2
vt 0.5 0.5
vt 0.5 1
vt 0.482437 1
vt 0.432736 1
vt 0.423995 0.5
vt 0.426496 0.2
vt 0.473078 0.2
vt 0.242672 0.5
vt 0.302659 0.5
vt 0.315771 1
vt 0.233931 1
vt 0.24017 0.2
vt 0.306411 0.2
vt 0.530675 0.5
vt 0.517563 1
vt 0.576005 0.5
vt 0.567264 1
vt 0.5 0.2
vt 0.526922 0.2
vt 0.573504 0.2
vt 0.426496 0.2
vt 0.379915 0.2
vt 0.306411 0.2
vt 0.352993 0.2
vt 0.135992 0.5
vt 0.139745 0.2
vt 0.166667 0.2
vt 0.166667 0.5
vt 0.166667 1
vt 0.149104 1
vt 0.0994026 1
vt 0.0906614 0.5
vt 0.197341 0.5
vt 0.184229 1
vt 0.0931632 0.2
vt 0.193589 0.2
vt 0.24017 0.2
vt 0.193589 0.2
vt 0.166667 0.2
vt 0.621336 0.5
vt 0.616965 1
vt 0.666667 0.5
vt 0.666667 1
vt 0.726654 0.5
vt 0.748506 1
vt 0.771984 0.5
vt 0.798208 1
vt 0.802659 0.5
vt 0.815771 1
vt 0.573504 0.2
vt 0.620085 0.2
vt 0.779489 0.2
vt 0.806411 0.2
vt 0.666667 0.2
vt 0.620085 0.2
vt 0.732908 0.2
vt 0.666667 0.2
vt 0.732908 0.2
vt 0.779489 0.2
vt 0 0.2
vt 0.0465816 0.2
vt 0.0453307 0.5
vt 0.0931632 0.2
vt 1 0.5
vt 0.954669 0.5
vt 0.953418 0.2
vt 1 0.2
vt 0.0497013 1
vt 0 1
vt 0.950299 1
vt 1 1
vt 0.833333 0.5
vt 0.806411 0.2
vt 0.833333 0.2
vt 0.833333 1
vt 0.923995 0.5
vt 0.926496 0.2
vt 0.953418 0.2
vt 0.932736 1
vt 0.878664 0.5
vt 0.883035 1
vt 0.879915 0.2
vt 0.926496 0.2
vt 0.685934 0.864008
vt 0.743737 0.771984
vt 0.734531 0.757328
vt 0.667522 0.864008
vt 0.347989 0
vt 0.378664 0
vt 0.376755 0.5
vt 0.340353 0.5
vt 0.37995 0.9
vt 0.353133 0.9
vt 0.30486 0.985344
vt 0.314066 1
vt 0.429672 1
vt 0.438878 0.985344
vt 0.469325 0
vt 0.5 0
vt 0.5 0.5
vt 0.463598 0.5
vt 0.420176 0.5
vt 0.426567 0.9
vt 0.37995 0.9
vt 0.426567 0.9
vt 0.473183 0.9
vt 0.423995 0
vt 0.274675 0.907976
vt 0.265469 0.922632
vt 0.323272 0.985344
vt 0.306517 0.9
vt 0.296931 0.5
vt 0.242672 0
vt 0.302659 0
vt 0.24649 0.5
vt 0.536402 0.5
vt 0.526817 0.9
vt 0.5 0.9
vt 0.579824 0.5
vt 0.573433 0.9
vt 0.526817 0.9
vt 0.5 0.9
vt 0.473183 0.9
vt 0.341684 0.771984
vt 0.360096 0.771984
vt 0.274675 0.635992
vt 0.265469 0.650648
vt 0.256263 0.907976
vt 0.530675 0
vt 0.576005 0
vt 0.505887 0.849352
vt 0.515092 0.864008
vt 0.676728 0.849352
vt 0.420466 0.985344
vt 0.990794 0.378664
vt 1 0.364008
vt 0.942197 0.271984
vt 0.923785 0.271984
vt 0.135992 0
vt 0.166667 0
vt 0.166667 0.5
vt 0.130265 0.5
vt 0.166667 0.9
vt 0.13985 0.9
vt 0.2401 0.9
vt 0.193483 0.9
vt 0.203069 0.5
vt 0.193483 0.9
vt 0.166667 0.9
vt 0.0932334 0.9
vt 0.0868431 0.5
vt 0.13985 0.9
vt 0.0906614 0
vt 0.762149 0.441375
vt 0.771355 0.456032
vt 0.942197 0.456032
vt 0.951403 0.441375
vt 0.658316 0.635992
vt 0.639904 0.635992
vt 0.725325 0.771984
vt 0.197341 0
vt 0.932991 0.441375
vt 0.981588 0.364008
vt 0.018412 0.228016
vt 0.00920599 0.242672
vt 0.048597 0.305383
vt 0.0670089 0.305383
vt 0.623245 0.5
vt 0.62005 0.9
vt 0.573433 0.9
vt 0.666667 0.9
vt 0.666667 0.5
vt 0.733083 0.9
vt 0.717108 0.5
vt 0.760529 0.5
vt 0.7797 0.9
vt 0.621336 0
vt 0.771984 0
vt 0.802659 0
vt 0.796931 0.5
vt 0.228645 0.320039
vt 0.237851 0.305383
vt 0.057803 0.320039
vt 0.360096 0.5
vt 0.341684 0.5
vt 0.256263 0.635992
vt 0.666667 0
vt 0.726654 0
vt 0.806517 0.9
vt 0.7797 0.9
vt 0.762149 0.28664
vt 0.771355 0.271984
vt 0.69514 0.150648
vt 0.676728 0.150648
vt 0.932991 0.28664
vt 0.0670089 0.150648
vt 0.048597 0.150648
vt 0 0.228016
vt 0.496681 0.135992
vt 0.515092 0.135992
vt 0.429672 0
vt 0.41126 0
vt 0.505887 0.150648
vt 0.685934 0.135992
vt 0.496681 0.135992
vt 0.0453307 0
vt 0.0434215 0.5
vt 0.954669 0
vt 1 0
vt 1 0.5
vt 0.956578 0.5
vt 0.0932334 0.9
vt 0.0466167 0.9
vt 0.0466167 0.9
vt 0 0.9
vt 0.953383 0.9
vt 1 0.9
vt 0.833333 0
vt 0.833333 0.5
vt 0.833333 0.9
vt 0.806517 0.9
vt 0.314066 0
vt 0.30486 0.0146561
vt 0.420466 0.0146561
vt 0.920176 0.5
vt 0.923995 0
vt 0.926567 0.9
vt 0.876755 0.5
vt 0.87995 0.9
vt 0.833333 0.9
vt 0.87995 0.9
vt 0.323272 0.0146561
vt 0.228645 0.135992
vt 0.247057 0.135992
vt 0.237851 0.150648
vt 0.247057 0.135992
vt 0.057803 0.135992
vt 0.878664 0
vt 0.932137 0.260529
vt 0.770237 0.260529
vt 0.770237 0.478942
vt 0.932137 0.478942
vt 1 0.369735
vt 0.676202 0.630265
vt 0.527389 0.869735
vt 0.689288 0.869735
vt 0.757151 0.760529
vt 0.285928 0.960117
vt 0.310712 1
vt 0.446439 1
vt 0.745453 0.220646
vt 0.229763 0.130265
vt 0.527389 0.130265
vt 0.446439 0
vt 0.310712 0
vt 0.229763 0.348677
vt 0.24065 0.366197
vt 0.655004 0.366197
vt 0.0678634 0.130265
vt 0 0.239471
vt 0.0678634 0.348677
vt 0.689288 0.130265
vt 0.542674 0.366197
vt 0.598839 0.456578
vt 0.430343 0.366197
vt 0.323798 0.5
vt 0.242849 0.630265
vt 0.254547 0.649089
vt 0.666667 0.833333
vt 0.323798 0.760529
vt 0.542674 0.54696
vt 0.318013 0.54696
vt 0.242849 0.890794
vt 0.430343 0.54696
vt 0.374178 0.456578

vn 0 -1 0
vn 0.866025 0 -0.5
vn 0.866025 0 -0.5
vn 0.866025 0 -0.5
vn 0 0 -1
vn -0.866025 0 -0.5
vn -0.866025 0 -0.5
vn -0.866025 0 0.5
vn -0.866025 0 0.5
vn 0 0 1
vn 0.866025 0 0.5
vn 0.866025 0 0.5
vn 0.866025 0 0.5
vn 0.866025 0 0.5
vn 0.866025 0 0.5
vn 0.866025 0 -0.5
vn 0.866025 0 -0.5
vn 0.866025 0 -0.5
vn 0.866025 0 -0.5
vn 0.866025 0 0.5
vn 0.866025 0 0.5
vn 0.866025 0 -0.5
vn 0.866025 0 -0.5
vn 0.866025 0 -0.5
vn -0.866025 0 -0.5
vn -0.866025 0 -0.5
vn -0.866025 0 0.5
vn -0.866025 0 -0.5
vn -0.866025 0 0.5
vn -0.866025 0 -0.5
vn -0.866025 0 -0.5
vn -0.866025 0 -0.5
vn -0.866025 0 -0.5
vn -0.866025 0 0.5
vn -0.866025 0 0.5
vn -0.866025 0 0.5
vn 0.866025 0 0.5
vn 0.866025 0 0.5
vn 0.866025 0 0.5
vn 0.866025 0 0.5
vn -0.866025 0 0.5
vn -0.866025 0 0.5
vn -0.866025 0 -0.5
vn 0.866025 0 -0.5
vn 0.866025 0 0.5
vn 0.866025 0 -0.5
vn -0.866025 0 -0.5
vn -0.866025 0 0.5
vn -0.866025 0 -0.5
vn 0 1 0
vn 0.866025 0 -0.5
vn 0.866025 0 -0.5
vn 0.866025 0 -0.5
vn 0.866025 0 -0.5
vn 0.866025 0 -0.5
vn 0.866025 0 -0.5
vn 0.866025 0 -0.5
vn -0.866025 0 -0.5
vn -0.866025 0 -0.5
vn -0.866025 0 0.5
vn -0.866025 0 -0.5
vn 0.866025 0 0.5
vn 0.866025 0 0.5
vn 0.866025 0 0.5
vn 0.866025 0 -0.5
vn 0.866025 0 -0.5
vn -0.866025 0 -0.5
vn -0.866025 0 -0.5
vn -0.866025 0 -0.5
vn -0.866025 0 -0.5
vn -0.866025 0 -0.5
vn -0.866025 0 -0.5
vn 0.866025 0 0.5
vn 0.866025 0 0.5
vn 0.866025 0 0.5
vn -0.866025 0 0.5
vn -0.866025 0 0.5
vn -0.866025 0 0.5
vn -0.866025 0 0.5
vn 0.866025 0 -0.5
vn 0.866025 0 -0.5
vn -0.866025 0 -0.5
vn 0.866025 0 0.5
vn 0.866025 0 -0.5
vn 0.866025 0 -0.5
vn -0.866025 0 -0.5
vn -0.866025 0 -0.5
vn -0.866025 0 0.5
vn 0.866025 0 -0.5
vn 0.866025 0 -0.5
vn -0.866025 0 -0.5
vn -0.866025 0 -0.5

f 1/1/1 2/2/1 3/3/1 4/4/1 5/5/1 6/6/1
f 7/7/2 8/8/3 1/9/4 6/10/4
f 5/11/5 9/12/5 7/13/5 6/14/5
f 10/12/6 5/11/7 4/15/7 11/16/6
f 12/16/8 4/15/9 3/17/9 13/18/8
f 2/19/10 14/20/10 15/18/10 3/17/10
f 14/21/11 2/19/12 1/9/12 16/8/11
f 17/14/10 18/22/10 19/23/10 20/4/10
f 18/22/13 21/24/13 22/25/13 19/23/13
f 21/24/10 23/26/10 24/27/10 22/25/10
f 23/26/14 25/28/14 26/29/15 24/27/15
f 25/28/16 27/30/16 28/31/17 26/29/17
f 27/30/5 29/32/5 30/33/5 28/31/5
f 29/32/18 31/34/18 32/35/19 30/33/19
f 31/34/20 33/36/20 34/37/21 32/35/21
f 33/36/16 35/38/16 36/39/22 34/37/22
f 35/38/5 37/40/5 38/41/5 36/39/5
f 37/40/23 39/42/23 40/43/24 38/41/24
f 39/42/5 41/44/5 42/45/5 40/43/5
f 41/44/25 43/46/25 44/47/26 42/45/26
f 43/46/27 45/48/27 46/49/27 44/47/27
f 45/48/28 47/50/28 48/51/28 46/49/28
f 47/50/29 49/52/29 50/53/29 48/51/29
f 49/52/30 51/54/30 52/55/31 50/53/31
f 51/54/5 53/56/5 54/57/5 52/55/5
f 53/56/32 55/58/32 56/59/33 54/57/33
f 55/58/34 57/60/34 58/61/35 56/59/35
f 57/60/10 59/62/10 60/63/10 58/61/10
f 59/62/36 61/64/36 62/65/36 60/63/36
f 61/64/10 63/66/10 64/67/10 62/65/10
f 63/66/37 17/68/37 20/1/38 64/67/38
f 60/63/36 62/65/36 65/69/36 66/70/36
f 67/69/10 62/65/10 64/67/10 68/71/10
f 69/71/38 64/67/38 20/1/38 70/72/38
f 19/23/10 71/73/10 72/74/10 20/4/10
f 73/73/39 19/23/13 22/25/13 74/75/39
f 75/75/10 22/25/10 24/27/10 76/76/10
f 77/76/40 24/27/15 26/29/15 78/77/40
f 79/78/41 80/79/42 56/59/35 58/61/35
f 81/80/10 58/61/10 60/63/10 82/81/10
f 54/57/5 83/82/5 84/83/5 52/55/5
f 54/57/33 56/59/33 85/79/43 83/82/43
f 28/31/17 86/84/44 87/77/44 26/29/17
f 28/31/5 30/33/5 88/85/5 86/84/5
f 89/86/45 32/35/21 34/37/21 90/87/45
f 91/87/46 34/37/22 36/39/22 92/88/46
f 38/41/5 93/89/5 94/88/5 36/39/5
f 38/41/24 40/43/24 95/90/24 96/91/24
f 97/90/5 40/43/5 42/45/5 98/92/5
f 99/92/47 42/45/26 44/47/26 100/93/47
f 101/93/48 44/47/27 46/49/27 102/94/48
f 103/94/49 46/49/28 48/51/28 104/95/49
f 105/96/50 106/97/50 107/98/50 108/99/50 109/100/50
f 110/101/50 111/102/50 112/103/50 113/104/50 114/105/50
f 115/106/50 116/107/50 117/108/50 118/109/50 119/110/50
f 120/111/50 121/112/50 117/108/50 116/107/50 122/113/50
f 112/103/50 111/102/50 123/114/50 124/115/50 125/116/50 126/117/50 127/118/50
f 106/97/50 125/116/50 124/115/50 117/108/50 121/112/50 128/119/50 107/98/50
f 129/120/51 130/121/52 131/122/52 132/123/51
f 129/120/51 132/123/51 127/124/53 126/125/53
f 133/126/5 134/127/5 135/128/5 136/129/5
f 133/126/5 136/129/5 114/130/5 113/131/5
f 112/132/24 137/133/22 133/126/22 113/131/24
f 137/133/22 138/134/54 139/135/54 133/126/22
f 140/136/55 141/137/55 125/138/56 106/139/56
f 141/137/55 140/136/55 142/140/57 143/141/57
f 144/142/58 110/143/59 114/130/59 136/129/58
f 144/142/27 145/144/27 111/145/60 110/143/60
f 144/142/58 136/129/58 146/146/61 147/147/61
f 144/142/27 147/147/48 148/148/48 145/144/27
f 137/133/5 112/132/5 127/124/5 132/123/5
f 149/149/5 137/133/5 132/123/5 150/150/5
f 141/137/21 151/151/45 152/152/45 129/120/21
f 125/138/20 141/137/21 129/120/21 126/125/20
f 153/153/62 154/154/63 155/155/63 156/156/62
f 153/153/62 156/156/62 109/157/64 108/158/64
f 107/159/10 157/160/10 153/153/10 108/158/10
f 158/161/65 105/162/53 109/157/53 156/156/65
f 105/162/5 158/161/5 140/136/5 106/139/5
f 157/160/10 159/163/10 154/154/10 153/153/10
f 158/161/5 160/164/5 161/165/5 140/136/5
f 162/166/66 158/161/65 156/156/65 163/167/66
f 164/168/28 123/169/49 111/145/49 145/144/28
f 164/168/29 165/170/29 124/171/48 123/169/48
f 165/170/67 166/172/67 117/173/68 124/171/68
f 166/172/5 167/174/5 118/175/5 117/173/5
f 118/175/69 167/174/70 168/176/70 119/177/69
f 164/168/28 145/144/28 169/178/49 170/179/49
f 167/174/70 171/180/71 172/181/71 168/176/70
f 173/182/48 165/170/29 164/168/29 174/183/48
f 175/184/72 166/172/67 165/170/67 176/185/72
f 166/172/5 177/186/5 178/187/5 167/174/5
f 179/4/10 180/188/10 181/189/10 182/190/10
f 182/190/73 181/189/74 183/191/74 157/160/73
f 179/192/13 184/193/13 185/194/75 180/195/75
f 179/4/10 182/190/10 128/196/10 121/197/10
f 182/190/73 157/160/73 107/159/38 128/196/38
f 120/198/38 184/193/13 179/192/13 121/199/38
f 186/200/76 168/176/76 187/201/77 188/202/77
f 186/200/76 115/203/78 119/177/78 168/176/76
f 189/204/10 190/205/10 191/206/10 184/193/10
f 122/207/10 189/204/10 184/193/10 120/198/10
f 186/200/10 192/208/10 116/209/10 115/203/10
f 192/208/35 189/204/35 122/207/36 116/209/36
f 193/210/10 192/208/10 186/200/10 188/202/10
f 192/208/35 193/210/79 194/211/79 189/204/35
f 195/212/1 196/213/1 197/214/1 198/215/1
f 196/216/51 195/217/51 199/218/16 200/219/16
f 199/218/16 201/220/80 202/221/81 200/219/16
f 203/222/1 204/223/1 205/224/1 206/225/1
f 205/226/5 204/227/5 207/228/5 208/229/5
f 209/230/5 210/231/5 201/232/5 199/218/5
f 211/233/23 209/230/23 208/229/23 212/234/23
f 209/230/23 213/235/22 205/226/22 208/229/23
f 214/236/1 215/237/1 203/222/1 216/238/1
f 217/239/20 218/240/20 200/219/20 219/221/20
f 220/241/55 221/242/55 218/240/18 222/243/18
f 223/244/25 224/245/82 225/246/82 207/228/25
f 226/247/27 227/248/48 228/249/60 223/244/27
f 229/250/5 212/251/5 208/229/5 207/228/5
f 230/252/1 231/253/1 232/254/1 233/255/1
f 215/237/1 231/253/1 230/252/1 234/256/1
f 234/257/58 223/244/25 207/228/25 204/227/58
f 234/257/27 230/258/27 226/247/27 223/244/27
f 235/259/1 213/260/1 198/215/1 236/261/1
f 206/225/1 213/260/1 235/259/1 237/262/1
f 213/235/5 209/230/5 199/218/5 195/217/5
f 218/240/20 221/242/21 196/216/21 200/219/20
f 238/263/1 239/264/1 240/265/1 241/266/1
f 240/267/62 239/268/62 242/269/14 243/270/14
f 243/270/14 242/269/14 244/271/83 245/272/83
f 246/273/84 222/243/18 218/240/18 217/239/84
f 247/273/5 248/274/5 249/275/5 222/243/5
f 249/275/16 250/276/85 251/277/85 242/269/16
f 252/278/10 253/279/10 243/270/10 254/280/10
f 253/279/10 255/281/10 240/267/10 243/270/10
f 256/282/1 220/283/1 257/284/1 258/285/1
f 221/286/1 259/287/1 260/288/1 197/214/1
f 221/286/1 220/283/1 256/282/1 259/287/1
f 249/275/5 257/289/5 220/241/5 222/243/5
f 261/290/1 258/285/1 238/263/1 262/291/1
f 257/289/65 249/275/16 242/269/16 239/268/65
f 263/292/1 264/293/1 265/294/1 266/295/1
f 267/296/28 268/297/49 269/298/49 226/247/28
f 270/299/48 268/297/48 267/296/29 271/300/29
f 272/301/5 273/302/5 274/303/5 275/304/5
f 273/302/30 272/301/86 270/299/86 271/300/30
f 276/305/28 267/296/28 226/247/28 230/258/28
f 274/303/32 277/306/70 278/307/70 279/308/32
f 280/309/1 281/310/1 265/294/1 277/311/1
f 282/312/1 283/313/1 276/314/1 233/255/1
f 282/312/1 281/310/1 280/309/1 283/313/1
f 283/315/29 271/300/29 267/296/29 276/305/29
f 283/315/67 280/316/67 273/302/30 271/300/30
f 273/302/5 280/316/5 277/306/5 274/303/5
f 284/317/87 285/318/87 274/303/32 279/308/32
f 286/319/1 255/320/1 287/321/1 288/322/1
f 241/266/1 255/320/1 286/319/1 289/323/1
f 290/324/1 291/325/1 278/326/1 264/293/1
f 292/327/1 293/328/1 294/329/1 295/330/1
f 296/331/1 287/321/1 297/332/1 292/333/1
f 293/14/10 297/334/10 298/335/10 299/4/10
f 298/335/13 297/334/73 255/281/73 253/279/13
f 294/336/13 293/337/13 299/338/37 300/339/37
f 298/335/13 253/279/13 301/340/13 302/341/13
f 299/4/10 298/335/10 303/342/10 304/343/10
f 305/344/37 300/339/37 299/338/37 306/345/37
f 307/346/76 308/347/34 279/308/34 278/307/76
f 308/347/34 309/348/88 310/349/88 279/308/34
f 295/330/1 311/350/1 312/351/1 313/352/1
f 314/353/10 311/354/10 294/336/10 300/339/10
f 314/353/10 300/339/10 315/344/10 316/355/10
f 308/347/10 317/356/10 318/357/10 319/358/10
f 317/356/36 314/353/36 320/355/36 321/359/36
f 322/360/1 312/351/1 323/361/1 324/362/1
f 325/363/1 324/364/1 307/365/1 291/325/1
f 323/366/10 317/356/10 308/347/10 307/346/10
f 317/356/36 323/366/35 311/354/35 314/353/36
f 23/367/1 21/368/1 29/369/1 27/370/1 25/371/1
f 31/372/1 37/373/1 35/374/1 33/375/1
f 326/376/1 41/377/1 39/378/1 29/369/1 21/368/1 327/379/1
f 30/33/19 32/35/19 328/86/89 88/85/90
f 59/380/1 17/381/1 63/382/1 61/383/1
f 327/379/1 51/384/1 329/385/1 330/386/1
f 57/387/1 55/388/1 53/389/1 51/384/1 327/379/1 18/390/1
f 330/386/1 331/391/1 332/392/1
f 333/393/1 49/394/1 47/395/1 334/396/1
f 333/393/1 329/385/1 49/394/1
f 335/95/48 48/51/29 50/53/29 336/397/48
f 337/397/91 50/53/31 52/55/31 84/83/92
f 45/398/1 338/399/1 339/400/1 334/396/1
f 326/376/1 338/399/1 45/398/1 43/401/1
f 339/400/1 340/402/1 341/403/1