v 0.0714286 0 -0.206197 0.396078 0.262745 0.129412
v 0.142857 0 -0.0824786 0.396078 0.262745 0.129412
v 0.0714286 0 0.0412393 0.396078 0.262745 0.129412
v -0.0714286 0 0.0412393 0.396078 0.262745 0.129412
v -0.142857 0 -0.0824786 0.396078 0.262745 0.129412
v -0.0714286 0 -0.206197 0.396078 0.262745 0.129412
v 0.0991185 0.25 -0.0824786 0.60404 0.672727 0.741414
v 0.0495592 0.25 -0.168318 0.60404 0.672727 0.741414
v -0.0495592 0.25 -0.168318 0.60404 0.672727 0.741414
v -0.0991185 0.25 -0.0824786 0.60404 0.672727 0.741414
v -0.0991185 0.25 -0.0824786 0.60404 0.672727 0.741414
v -0.0495592 0.25 0.00336052 0.60404 0.672727 0.741414
v -0.0495592 0.25 0.00336052 0.60404 0.672727 0.741414
v 0.0495592 0.25 0.00336052 0.60404 0.672727 0.741414
v 0.0495592 0.25 0.00336052 0.60404 0.672727 0.741414
v 0.0991185 0.25 -0.0824786 0.60404 0.672727 0.741414
v -0.0495592 0.25 -0.168318 0.60404 0.672727 0.741414
v 0.0495592 0.25 -0.168318 0.60404 0.672727 0.741414
v -0.334049 0.25 -0.123718 0.903529 0.793333 0.746667
v -0.405477 0.25 0 0.903529 0.793333 0.746667
v -0.428571 0.325 0 0.903529 0.793333 0.746667
v -0.357143 0.325 -0.123718 0.903529 0.793333 0.746667
v -0.345596 0.25 0.103718 0.903529 0.793333 0.746667
v -0.357143 0.325 0.123718 0.903529 0.793333 0.746667
v -0.202739 0.25 0.103718 0.903529 0.793333 0.746667
v -0.214286 0.325 0.123718 0.903529 0.793333 0.746667
v -0.13131 0.25 0.227436 0.903529 0.793333 0.746667
v -0.142857 0.325 0.247436 0.903529 0.793333 0.746667
v 0.011547 0.25 0.227436 0.903529 0.793333 0.746667
v 0 0.325 0.247436 0.903529 0.793333 0.746667
v 0.0829756 0.25 0.351154 0.903529 0.793333 0.746667
v 0.0714286 0.325 0.371154 0.903529 0.793333 0.746667
v 0.202739 0.25 0.351154 0.903529 0.793333 0.746667
v 0.214286 0.325 0.371154 0.903529 0.793333 0.746667
v 0.26262 0.25 0.247436 0.903529 0.793333 0.746667
v 0.285714 0.325 0.247436 0.903529 0.793333 0.746667
v 0.191192 0.25 0.123718 0.903529 0.793333 0.746667
v 0.214286 0.325 0.123718 0.903529 0.793333 0.746667
v 0.274167 0.25 -0.02 0.903529 0.793333 0.746667
v 0.285714 0.325 0 0.903529 0.793333 0.746667
v 0.417024 0.25 -0.02 0.903529 0.793333 0.746667
v 0.428571 0.325 0 0.903529 0.793333 0.746667
v 0.476906 0.25 -0.123718 0.903529 0.793333 0.746667
v 0.5 0.325 -0.123718 0.903529 0.793333 0.746667
v 0.417024 0.25 -0.227436 0.903529 0.793333 0.746667
v 0.428571 0.325 -0.247436 0.903529 0.793333 0.746667
v 0.274167 0.25 -0.227436 0.903529 0.793333 0.746667
v 0.285714 0.325 -0.247436 0.903529 0.793333 0.746667
v 0.202739 0.25 -0.351154 0.903529 0.793333 0.746667
v 0.214286 0.325 -0.371154 0.903529 0.793333 0.746667
v 0.0598816 0.25 -0.351154 0.903529 0.793333 0.746667
v 0.0714286 0.325 -0.371154 0.903529 0.793333 0.746667
v -0.011547 0.25 -0.474872 0.903529 0.793333 0.746667
v 0 0.325 -0.494872 0.903529 0.793333 0.746667
v -0.13131 0.25 -0.474872 0.903529 0.793333 0.746667
v -0.142857 0.325 -0.494872 0.903529 0.793333 0.746667
v -0.202739 0.25 -0.351154 0.903529 0.793333 0.746667
v -0.214286 0.325 -0.371154 0.903529 0.793333 0.746667
v -0.345596 0.25 -0.351154 0.903529 0.793333 0.746667
v -0.357143 0.325 -0.371154 0.903529 0.793333 0.746667
v -0.405477 0.25 -0.247436 0.903529 0.793333 0.746667
v -0.428571 0.325 -0.247436 0.903529 0.793333 0.746667
v -0.183494 0.475 -0.31782 0.718431 0.662353 0.655686
v -0.112065 0.475 -0.441538 0.718431 0.662353 0.655686
v 0.254922 0.475 -0.194102 0.718431 0.662353 0.655686
v 0.183494 0.475 -0.31782 0.718431 0.662353 0.655686
v 0.0406366 0.475 -0.31782 0.718431 0.662353 0.655686
v -0.030792 0.475 -0.441538 0.718431 0.662353 0.655686
v -0.030792 0.475 -0.441538 0.718431 0.662353 0.655686
v 0.397779 0.475 -0.0533333 0.718431 0.662353 0.655686
v 0.254922 0.475 -0.0533333 0.718431 0.662353 0.655686
v 0.438416 0.475 -0.123718 0.718431 0.662353 0.655686
v 0.397779 0.475 -0.194102 0.718431 0.662353 0.655686
v 0.183494 0.475 0.31782 0.718431 0.662353 0.655686
v 0.22413 0.475 0.247436 0.718431 0.662353 0.655686
v 0.152702 0.475 0.123718 0.718431 0.662353 0.655686
v -0.183494 0.475 0.0703846 0.718431 0.662353 0.655686
v -0.112065 0.475 0.194102 0.718431 0.662353 0.655686
v 0.030792 0.475 0.194102 0.718431 0.662353 0.655686
v 0.102221 0.475 0.31782 0.718431 0.662353 0.655686
v 0.030792 0.475 0.194102 0.718431 0.662353 0.655686
v 0.102221 0.475 0.31782 0.718431 0.662353 0.655686
v -0.326351 0.475 -0.31782 0.718431 0.662353 0.655686
v -0.183494 0.475 -0.31782 0.718431 0.662353 0.655686
v -0.366987 0.475 -0.247436 0.718431 0.662353 0.655686
v -0.326351 0.475 -0.31782 0.718431 0.662353 0.655686
v -0.295559 0.475 -0.123718 0.718431 0.662353 0.655686
v -0.366987 0.475 0 0.718431 0.662353 0.655686
v -0.326351 0.475 0.0703846 0.718431 0.662353 0.655686
v -0.168098 1 0.0437179 0.0705882 0.203922 0.337255
v -0.264767 1 -0.123718 0.0705882 0.203922 0.337255
v -0.336195 1 0 0.0705882 0.203922 0.337255
v -0.310955 1 0.0437179 0.0705882 0.203922 0.337255
v 0.193338 1 0.247436 0.0705882 0.203922 0.337255
v 0.12191 1 0.123718 0.0705882 0.203922 0.337255
v 0.046188 1 0.167436 0.0705882 0.203922 0.337255
v 0.117617 1 0.291154 0.0705882 0.203922 0.337255
v 0.168098 1 0.291154 0.0705882 0.203922 0.337255
v 0.382383 1 -0.167436 0.0705882 0.203922 0.337255
v 0.239526 1 -0.167436 0.0705882 0.203922 0.337255
v 0.239526 1 -0.08 0.0705882 0.203922 0.337255
v 0.382383 1 -0.08 0.0705882 0.203922 0.337255
v 0.407624 1 -0.123718 0.0705882 0.203922 0.337255
v -0.168098 1 -0.291154 0.0705882 0.203922 0.337255
v 0.0252405 1 -0.291154 0.0705882 0.203922 0.337255
v -0.046188 1 -0.414872 0.0705882 0.203922 0.337255
v -0.0966691 1 -0.414872 0.0705882 0.203922 0.337255
v 0.168098 1 -0.291154 0.0705882 0.203922 0.337255
v -0.310955 1 -0.291154 0.0705882 0.203922 0.337255
v -0.336195 1 -0.247436 0.0705882 0.203922 0.337255
v -0.0966691 1 0.167436 0.0705882 0.203922 0.337255
v 0.26262 0.775 -0.04 0.348235 0.400392 0.473725
v 0.168098 0.775 0.123718 0.348235 0.400392 0.473725
v 0.255692 0.73 -0.052 0.403765 0.439686 0.50102
v 0.154241 0.73 0.123718 0.403765 0.439686 0.50102
v 0.0483346 0.775 -0.331154 0.348235 0.400392 0.473725
v -0.023094 0.775 -0.454872 0.348235 0.400392 0.473725
v 0.0414064 0.73 -0.319154 0.403765 0.439686 0.50102
v -0.0300222 0.73 -0.442872 0.403765 0.439686 0.50102
v -0.191192 0.775 0.0837179 0.348235 0.400392 0.473725
v -0.334049 0.775 0.0837179 0.348235 0.400392 0.473725
v -0.184264 0.73 0.0717179 0.403765 0.439686 0.50102
v -0.327121 0.73 0.0717179 0.403765 0.439686 0.50102
v -0.310955 0.775 -0.123718 0.348235 0.400392 0.473725
v -0.297098 0.73 -0.123718 0.403765 0.439686 0.50102
v -0.368527 0.73 0 0.403765 0.439686 0.50102
v -0.382383 0.775 0 0.348235 0.400392 0.473725
v -0.368527 0.73 0 0.403765 0.439686 0.50102
v -0.327121 0.73 0.0717179 0.403765 0.439686 0.50102
v -0.382383 0.775 -0.247436 0.348235 0.400392 0.473725
v -0.368527 0.73 -0.247436 0.403765 0.439686 0.50102
v -0.119763 0.775 -0.454872 0.348235 0.400392 0.473725
v -0.191192 0.775 -0.331154 0.348235 0.400392 0.473725
v -0.334049 0.775 -0.331154 0.348235 0.400392 0.473725
v -0.0300222 0.73 -0.442872 0.403765 0.439686 0.50102
v -0.112835 0.73 -0.442872 0.403765 0.439686 0.50102
v -0.112835 0.73 -0.442872 0.403765 0.439686 0.50102
v -0.184264 0.73 -0.319154 0.403765 0.439686 0.50102
v -0.184264 0.73 -0.319154 0.403765 0.439686 0.50102
v -0.327121 0.73 -0.319154 0.403765 0.439686 0.50102
v -0.327121 0.73 -0.319154 0.403765 0.439686 0.50102
v 0.26262 0.775 -0.207436 0.348235 0.400392 0.473725
v 0.405477 0.775 -0.207436 0.348235 0.400392 0.473725
v 0.398549 0.73 -0.195436 0.403765 0.439686 0.50102
v 0.255692 0.73 -0.195436 0.403765 0.439686 0.50102
v 0.255692 0.73 -0.195436 0.403765 0.439686 0.50102
v 0.184264 0.73 -0.319154 0.403765 0.439686 0.50102
v 0.191192 0.775 -0.331154 0.348235 0.400392 0.473725
v 0.0414064 0.73 -0.319154 0.403765 0.439686 0.50102
v 0.405477 0.775 -0.04 0.348235 0.400392 0.473725
v 0.398549 0.73 -0.052 0.403765 0.439686 0.50102
v 0.439956 0.73 -0.123718 0.403765 0.439686 0.50102
v 0.453812 0.775 -0.123718 0.348235 0.400392 0.473725
v 0.398549 0.73 -0.052 0.403765 0.439686 0.50102
v 0.255692 0.73 -0.052 0.403765 0.439686 0.50102
v 0.439956 0.73 -0.123718 0.403765 0.439686 0.50102
v 0.398549 0.73 -0.195436 0.403765 0.439686 0.50102
v -0.112835 0.73 0.195436 0.403765 0.439686 0.50102
v -0.119763 0.775 0.207436 0.348235 0.400392 0.473725
v -0.184264 0.73 0.0717179 0.403765 0.439686 0.50102
v 0.023094 0.775 0.207436 0.348235 0.400392 0.473725
v 0.0945226 0.775 0.331154 0.348235 0.400392 0.473725
v 0.191192 0.775 0.331154 0.348235 0.400392 0.473725
v 0.0300222 0.73 0.195436 0.403765 0.439686 0.50102
v 0.101451 0.73 0.319154 0.403765 0.439686 0.50102
v 0.184264 0.73 0.319154 0.403765 0.439686 0.50102
v 0.0300222 0.73 0.195436 0.403765 0.439686 0.50102
v -0.112835 0.73 0.195436 0.403765 0.439686 0.50102
v 0.239526 0.775 0.247436 0.348235 0.400392 0.473725
v 0.184264 0.73 0.319154 0.403765 0.439686 0.50102
v 0.22567 0.73 0.247436 0.403765 0.439686 0.50102
v 0.22567 0.73 0.247436 0.403765 0.439686 0.50102
v 0.154241 0.73 0.123718 0.403765 0.439686 0.50102
v -0.366987 0.475 0 0.718431 0.662353 0.655686
v -0.318653 0.475 0.0837179 0.718431 0.662353 0.655686
v -0.334049 0.475 0.0837179 0.718431 0.662353 0.655686
v -0.374685 0.475 0.0133333 0.718431 0.662353 0.655686
v -0.112065 0.475 -0.441538 0.718431 0.662353 0.655686
v -0.104367 0.475 -0.454872 0.718431 0.662353 0.655686
v -0.03849 0.475 -0.454872 0.718431 0.662353 0.655686
v -0.030792 0.475 -0.441538 0.718431 0.662353 0.655686
v 0.26262 0.475 -0.04 0.718431 0.662353 0.655686
v 0.274167 0.55 -0.02 0.625882 0.596863 0.610196
v 0.191192 0.55 0.123718 0.625882 0.596863 0.610196
v 0.168098 0.475 0.123718 0.718431 0.662353 0.655686
v 0.0483346 0.475 -0.331154 0.718431 0.662353 0.655686
v 0.0329386 0.475 -0.331154 0.718431 0.662353 0.655686
v -0.023094 0.475 -0.454872 0.718431 0.662353 0.655686
v 0.0406366 0.475 -0.31782 0.718431 0.662353 0.655686
v 0.175796 0.475 -0.331154 0.718431 0.662353 0.655686
v 0.183494 0.475 -0.31782 0.718431 0.662353 0.655686
v 0.0598816 0.55 -0.351154 0.625882 0.596863 0.610196
v -0.011547 0.55 -0.474872 0.625882 0.596863 0.610196
v -0.191192 0.475 0.0837179 0.718431 0.662353 0.655686
v -0.202739 0.55 0.103718 0.625882 0.596863 0.610196
v -0.345596 0.55 0.103718 0.625882 0.596863 0.610196
v -0.303257 0.475 -0.137051 0.718431 0.662353 0.655686
v -0.310955 0.475 -0.123718 0.718431 0.662353 0.655686
v -0.382383 0.475 -0.247436 0.718431 0.662353 0.655686
v -0.374685 0.475 -0.260769 0.718431 0.662353 0.655686
v -0.295559 0.475 -0.123718 0.718431 0.662353 0.655686
v -0.382383 0.475 0 0.718431 0.662353 0.655686
v -0.405477 0.55 0 0.625882 0.596863 0.610196
v -0.334049 0.55 -0.123718 0.625882 0.596863 0.610196
v -0.405477 0.55 -0.247436 0.625882 0.596863 0.610196
v -0.368527 0.73 0 0.403765 0.439686 0.50102
v -0.297098 0.73 -0.123718 0.403765 0.439686 0.50102
v -0.368527 0.73 -0.247436 0.403765 0.439686 0.50102
v -0.297098 0.73 -0.123718 0.403765 0.439686 0.50102
v -0.327121 0.73 0.0717179 0.403765 0.439686 0.50102
v -0.184264 0.73 0.0717179 0.403765 0.439686 0.50102
v -0.13131 0.55 -0.474872 0.625882 0.596863 0.610196
v -0.112835 0.73 -0.442872 0.403765 0.439686 0.50102
v -0.0300222 0.73 -0.442872 0.403765 0.439686 0.50102
v -0.202739 0.55 -0.351154 0.625882 0.596863 0.610196
v -0.184264 0.73 -0.319154 0.403765 0.439686 0.50102
v 0.0414064 0.73 -0.319154 0.403765 0.439686 0.50102
v -0.345596 0.55 -0.351154 0.625882 0.596863 0.610196
v -0.368527 0.73 -0.247436 0.403765 0.439686 0.50102
v -0.327121 0.73 -0.319154 0.403765 0.439686 0.50102
v -0.184264 0.73 -0.319154 0.403765 0.439686 0.50102
v -0.327121 0.73 -0.319154 0.403765 0.439686 0.50102
v -0.341747 0.475 -0.31782 0.718431 0.662353 0.655686
v -0.334049 0.475 -0.331154 0.718431 0.662353 0.655686
v -0.191192 0.475 -0.331154 0.718431 0.662353 0.655686
v -0.19889 0.475 -0.31782 0.718431 0.662353 0.655686
v -0.183494 0.475 -0.31782 0.718431 0.662353 0.655686
v -0.119763 0.475 -0.454872 0.718431 0.662353 0.655686
v -0.366987 0.475 -0.247436 0.718431 0.662353 0.655686
v -0.326351 0.475 -0.31782 0.718431 0.662353 0.655686
v 0.26262 0.475 -0.207436 0.718431 0.662353 0.655686
v 0.254922 0.475 -0.194102 0.718431 0.662353 0.655686
v 0.191192 0.475 -0.331154 0.718431 0.662353 0.655686
v 0.413175 0.475 -0.194102 0.718431 0.662353 0.655686
v 0.405477 0.475 -0.207436 0.718431 0.662353 0.655686
v 0.274167 0.55 -0.227436 0.625882 0.596863 0.610196
v 0.417024 0.55 -0.227436 0.625882 0.596863 0.610196
v 0.202739 0.55 -0.351154 0.625882 0.596863 0.610196
v 0.184264 0.73 -0.319154 0.403765 0.439686 0.50102
v 0.255692 0.73 -0.195436 0.403765 0.439686 0.50102
v 0.184264 0.73 -0.319154 0.403765 0.439686 0.50102
v 0.398549 0.73 -0.195436 0.403765 0.439686 0.50102
v 0.255692 0.73 -0.195436 0.403765 0.439686 0.50102
v 0.446114 0.475 -0.137051 0.718431 0.662353 0.655686
v 0.453812 0.475 -0.123718 0.718431 0.662353 0.655686
v 0.405477 0.475 -0.04 0.718431 0.662353 0.655686
v 0.390081 0.475 -0.04 0.718431 0.662353 0.655686
v 0.476906 0.55 -0.123718 0.625882 0.596863 0.610196
v 0.417024 0.55 -0.02 0.625882 0.596863 0.610196
v 0.398549 0.73 -0.195436 0.403765 0.439686 0.50102
v 0.439956 0.73 -0.123718 0.403765 0.439686 0.50102
v 0.398549 0.73 -0.052 0.403765 0.439686 0.50102
v 0.439956 0.73 -0.123718 0.403765 0.439686 0.50102
v 0.398549 0.73 -0.052 0.403765 0.439686 0.50102
v 0.255692 0.73 -0.052 0.403765 0.439686 0.50102
v 0.255692 0.73 -0.052 0.403765 0.439686 0.50102
v 0.154241 0.73 0.123718 0.403765 0.439686 0.50102
v 0.397779 0.475 -0.194102 0.718431 0.662353 0.655686
v 0.438416 0.475 -0.123718 0.718431 0.662353 0.655686
v -0.183494 0.475 0.0703846 0.718431 0.662353 0.655686
v -0.104367 0.475 0.207436 0.718431 0.662353 0.655686
v -0.119763 0.475 0.207436 0.718431 0.662353 0.655686
v -0.326351 0.475 0.0703846 0.718431 0.662353 0.655686
v -0.13131 0.55 0.227436 0.625882 0.596863 0.610196
v -0.112835 0.73 0.195436 0.403765 0.439686 0.50102
v 0.152702 0.475 0.123718 0.718431 0.662353 0.655686
v 0.239526 0.475 0.247436 0.718431 0.662353 0.655686
v 0.231828 0.475 0.260769 0.718431 0.662353 0.655686
v 0.254922 0.475 -0.0533333 0.718431 0.662353 0.655686
v 0.397779 0.475 -0.0533333 0.718431 0.662353 0.655686
v 0.26262 0.55 0.247436 0.625882 0.596863 0.610196
v 0.22567 0.73 0.247436 0.403765 0.439686 0.50102
v 0.22413 0.475 0.247436 0.718431 0.662353 0.655686
v 0.191192 0.475 0.331154 0.718431 0.662353 0.655686
v 0.175796 0.475 0.331154 0.718431 0.662353 0.655686
v 0.202739 0.55 0.351154 0.625882 0.596863 0.610196
v 0.22567 0.73 0.247436 0.403765 0.439686 0.50102
v 0.184264 0.73 0.319154 0.403765 0.439686 0.50102
v 0.0829756 0.55 0.351154 0.625882 0.596863 0.610196
v 0.184264 0.73 0.319154 0.403765 0.439686 0.50102
v 0.101451 0.73 0.319154 0.403765 0.439686 0.50102
v 0.011547 0.55 0.227436 0.625882 0.596863 0.610196
v 0.0300222 0.73 0.195436 0.403765 0.439686 0.50102
v 0.101451 0.73 0.319154 0.403765 0.439686 0.50102
v 0.023094 0.475 0.207436 0.718431 0.662353 0.655686
v 0.0945226 0.475 0.331154 0.718431 0.662353 0.655686
v 0.183494 0.475 0.31782 0.718431 0.662353 0.655686
v 0.109919 0.475 0.331154 0.718431 0.662353 0.655686
v 0.102221 0.475 0.31782 0.718431 0.662353 0.655686
v 0.030792 0.475 0.194102 0.718431 0.662353 0.655686
v -0.112065 0.475 0.194102 0.718431 0.662353 0.655686
v 0.451156 0.25 -0.168318 0.903529 0.793333 0.746667
v -0.359799 0.25 -0.168318 0.903529 0.793333 0.746667
v 0.148678 0.25 -0.168318 0.903529 0.793333 0.746667
v -0.0798107 0.25 0.227436 0.903529 0.793333 0.746667
v 0.0495592 0.25 -0.168318 0.903529 0.793333 0.746667
v 0.0991185 0.25 -0.0824786 0.903529 0.793333 0.746667
v 0.0495592 0.25 0.00336052 0.903529 0.793333 0.746667
v -0.403537 0.25 0.00336052 0.903529 0.793333 0.746667
v -0.308299 0.25 -0.168318 0.903529 0.793333 0.746667
v -0.0495592 0.25 -0.168318 0.903529 0.793333 0.746667
v -0.148678 0.25 0.00336052 0.903529 0.793333 0.746667
v -0.0495592 0.25 0.00336052 0.903529 0.793333 0.746667
v -0.0991185 0.25 -0.0824786 0.903529 0.793333 0.746667

vt 0.75 1
vt 1 0.5
vt 0.75 0
vt 0.25 0
vt 0 0.5
vt 0.25 1
vt 0.666667 0.757576
vt 0.666667 0
vt 0.833333 0
vt 0.833333 0.757576
vt 0 0.757576
vt 0 0
vt 0.166667 0
vt 0.166667 0.757576
vt 0.333333 0
vt 0.333333 0.757576
vt 0.5 0
vt 0.5 0.757576
vt 0.5 0.757576
vt 1 0
vt 1 0.757576
vt 0.047551 0
vt 0.0454545 0.5
vt 0.087415 0
vt 0.0909091 0.5
vt 0.134966 0
vt 0.136364 0.5
vt 0.182517 0
vt 0.181818 0.5
vt 0.230068 0
vt 0.227273 0.5
vt 0.277619 0
vt 0.272727 0.5
vt 0.317483 0
vt 0.318182 0.5
vt 0.357347 0
vt 0.363636 0.5
vt 0.404898 0
vt 0.409091 0.5
vt 0.460136 0
vt 0.454545 0.5
vt 0.507687 0
vt 0.5 0.5
vt 0.547551 0
vt 0.545455 0.5
vt 0.587415 0
vt 0.590909 0.5
vt 0.634966 0
vt 0.636364 0.5
vt 0.682517 0
vt 0.681818 0.5
vt 0.730068 0
vt 0.727273 0.5
vt 0.777619 0
vt 0.772727 0.5
vt 0.817483 0
vt 0.818182 0.5
vt 0.865034 0
vt 0.863636 0.5
vt 0.912585 0
vt 0.909091 0.5
vt 0.952449 0
vt 0.954545 0.5
vt 0.867962 0.833333
vt 0.816019 0.833333
vt 0.632038 0.833333
vt 0.683981 0.833333
vt 0.735924 0.833333
vt 0.787867 0.833333
vt 0.735924 0.833333
vt 0.787867 0.833333
vt 0.52379 0.833333
vt 0.471848 0.833333
vt 0.551943 0.833333
vt 0.580095 0.833333
vt 0.580095 0.833333
vt 0.316019 0.833333
vt 0.344171 0.833333
vt 0.396114 0.833333
vt 0.132038 0.833333
vt 0.183981 0.833333
vt 0.235924 0.833333
vt 0.287867 0.833333
vt 0.235924 0.833333
vt 0.287867 0.833333
vt 0.919905 0.833333
vt 0.867962 0.833333
vt 0.948057 0.833333
vt 0.919905 0.833333
vt 1 0.833333
vt 0.0519429 0.833333
vt 0 0.833333
vt 0.0800952 0.833333
vt 0.225993 0.350463
vt 0.0960295 0.587616
vt 0 0.412384
vt 0.0339337 0.350463
vt 0.711912 0.0619212
vt 0.615882 0.237153
vt 0.514081 0.175232
vt 0.61011 0
vt 0.677978 0
vt 0.966066 0.649537
vt 0.774007 0.649537
vt 0.774007 0.525695
vt 0.966066 0.525695
vt 1 0.587616
vt 0.225993 0.824768
vt 0.485919 0.824768
vt 0.38989 1
vt 0.322022 1
vt 0.677978 0.824768
vt 0.0339337 0.824768
vt 0 0.762847
vt 0.322022 0.175232
vt 0.466267 0.5
vt 0.480499 1
vt 0.389626 1
vt 0.4003 0.5
vt 0.47032 0.2
vt 0.39726 0.2
vt 0.795436 1
vt 0.740249 1
vt 0.733134 0.5
vt 0.782984 0.5
vt 0.73516 0.2
vt 0.78653 0.2
vt 0.133433 0.5
vt 0.129875 1
vt 0.0746883 1
vt 0.083583 0.5
vt 0.13242 0.2
vt 0.0810502 0.2
vt 0 0.2
vt 0.0513699 0.2
vt 0.0498502 0.5
vt 0.0513699 0.2
vt 0.0810502 0.2
vt 1 0.5
vt 0.95015 0.5
vt 0.94863 0.2
vt 1 0.2
vt 0.055187 1
vt 0 1
vt 1 1
vt 0.944813 1
vt 0.816717 0.5
vt 0.814938 1
vt 0.866567 0.5
vt 0.870125 1
vt 0.916417 0.5
vt 0.925312 1
vt 0.78653 0.2
vt 0.81621 0.2
vt 0.81621 0.2
vt 0.86758 0.2
vt 0.86758 0.2
vt 0.91895 0.2
vt 0.91895 0.2
vt 0.94863 0.2
vt 0.633433 0.5
vt 0.583583 0.5
vt 0.58105 0.2
vt 0.63242 0.2
vt 0.63242 0.2
vt 0.68379 0.2
vt 0.683283 0.5
vt 0.68379 0.2
vt 0.73516 0.2
vt 0.629875 1
vt 0.574688 1
vt 0.685062 1
vt 0.516117 0.5
vt 0.52169 0.2
vt 0.55137 0.2
vt 0.54985 0.5
vt 0.555187 1
vt 0.535686 1
vt 0.52169 0.2
vt 0.47032 0.2
vt 0.55137 0.2
vt 0.58105 0.2
vt 0.18379 0.2
vt 0.183283 0.5
vt 0.13242 0.2
vt 0.185062 1
vt 0.233134 0.5
vt 0.282984 0.5
vt 0.295436 1
vt 0.240249 1
vt 0.316717 0.5
vt 0.314938 1
vt 0.23516 0.2
vt 0.28653 0.2
vt 0.28653 0.2
vt 0.31621 0.2
vt 0.23516 0.2
vt 0.18379 0.2
vt 0.350449 0.5
vt 0.31621 0.2
vt 0.34589 0.2
vt 0.34589 0.2
vt 0.39726 0.2
vt 0.334439 1
vt 0.018412 0.421302
vt 0.0762149 0.314794
vt 0.057803 0.314794
vt 0.00920599 0.404339
vt 0.323272 0.983037
vt 0.332478 1
vt 0.41126 1
vt 0.420466 0.983037
vt 0.466267 0
vt 0.460136 0.5
vt 0.404898 0.5
vt 0.4003 0
vt 0.515092 0.842603
vt 0.496681 0.842603
vt 0.429672 1
vt 0.505887 0.82564
vt 0.496681 0.842603
vt 0.667522 0.842603
vt 0.676728 0.82564
vt 0.730068 0.5
vt 0.733134 0
vt 0.782984 0
vt 0.777619 0.5
vt 0.133433 0
vt 0.134966 0.5
vt 0.087415 0.5
vt 0.083583 0
vt 0.0946269 0.595661
vt 0.0854209 0.578698
vt 0 0.736095
vt 0.00920599 0.753058
vt 0.0946269 0.595661
vt 0.103833 0.578698
vt 0 0.421302
vt 0.0498502 0
vt 0.047551 0.5
vt 0.95015 0
vt 1 0
vt 0.952449 0.5
vt 0.0514166 0.9
vt 0 0.9
vt 0.948583 0.9
vt 1 0.9
vt 0.0809723 0.9
vt 0.0514166 0.9
vt 0.0809723 0.9
vt 0.132389 0.9
vt 0.817483 0.5
vt 0.816194 0.9
vt 0.786639 0.9
vt 0.865034 0.5
vt 0.867611 0.9
vt 0.816194 0.9
vt 0.786639 0.9
vt 0.735222 0.9
vt 0.912585 0.5
vt 0.948583 0.9
vt 0.919028 0.9
vt 0.048597 0.82564
vt 0.057803 0.842603
vt 0.228645 0.842603
vt 0.219439 0.82564
vt 0.237851 0.82564
vt 0.219439 0.82564
vt 0.314066 1
vt 0.816717 0
vt 0.866567 0
vt 0.916417 0
vt 0.018412 0.736095
vt 0.0670089 0.82564
vt 0.771355 0.685206
vt 0.762149 0.668243
vt 0.685934 0.842603
vt 0.951403 0.668243
vt 0.942197 0.685206
vt 0.583583 0
vt 0.633433 0
vt 0.634966 0.5
vt 0.587415 0.5
vt 0.683283 0
vt 0.682517 0.5
vt 0.683806 0.9
vt 0.735222 0.9
vt 0.632389 0.9
vt 0.683806 0.9
vt 0.580972 0.9
vt 0.632389 0.9
vt 0.990794 0.595661
vt 1 0.578698
vt 0.942197 0.472191
vt 0.923785 0.472191
vt 0.516117 0
vt 0.54985 0
vt 0.547551 0.5
vt 0.507687 0.5
vt 0.580972 0.9
vt 0.551417 0.9
vt 0.521861 0.9
vt 0.551417 0.9
vt 0.521861 0.9
vt 0.470444 0.9
vt 0.470444 0.9
vt 0.397167 0.9
vt 0.932991 0.668243
vt 0.981588 0.578698
vt 0.228645 0.314794
vt 0.237851 0.331757
vt 0.332478 0.157397
vt 0.314066 0.157397
vt 0.0670089 0.331757
vt 0.183283 0
vt 0.182517 0.5
vt 0.183806 0.9
vt 0.132389 0.9
vt 0.639904 0.263905
vt 0.658316 0.263905
vt 0.743737 0.106508
vt 0.734531 0.0895449
vt 0.771355 0.472191
vt 0.762149 0.489154
vt 0.932991 0.489154
vt 0.357347 0.5
vt 0.350449 0
vt 0.34575 0.9
vt 0.725325 0.106508
vt 0.685934 0
vt 0.667522 0
vt 0.317483 0.5
vt 0.316717 0
vt 0.34575 0.9
vt 0.316194 0.9
vt 0.277619 0.5
vt 0.316194 0.9
vt 0.286639 0.9
vt 0.230068 0.5
vt 0.235222 0.9
vt 0.183806 0.9
vt 0.286639 0.9
vt 0.233134 0
vt 0.282984 0
vt 0.676728 0.016963
vt 0.58874 0
vt 0.579534 0.016963
vt 0.494113 0.17436
vt 0.484908 0.157397
vt 0.323272 0.17436
vt 0.570328 0
vt 0.527389 0.850225
vt 0.229763 0.850225
vt 0.310712 1
vt 0.446439 1
vt 0.0678634 0.850225
vt 0.689288 0.850225
vt 0.770237 0.70045
vt 0.932137 0.70045
vt 0.970818 0.628881
vt 0 0.724662
vt 0.0517676 0.628881
vt 0.553561 0
vt 0.472611 0.149775
vt 0.676202 0.275338
vt 0.757151 0.125563
vt 0.689288 0
vt 0.932137 0.449325
vt 0.770237 0.449325
vt 0.628021 0.628881
vt 1 0.574887
vt 0.369076 0.149775
vt 0.51569 0.628881
vt 0.571856 0.524962
vt 0.51569 0.421044
vt 0.229763 0.29955
vt 0.0678634 0.29955
vt 0.00219881 0.421044
vt 0.310712 0.149775
vt 0.110132 0.628881
vt 0.0809496 0.574887
vt 0.110132 0.628881
vt 0.40336 0.628881
vt 0.29103 0.421044
vt 0 0.425113
vt 0.40336 0.421044
vt 0.347195 0.524962

vn 0 -1 0
vn 0.866025 0 -0.5
vn 0.866025 0 -0.5
vn -0.866025 0 -0.5
vn -0.866025 0 -0.5
vn -0.866025 0 0.5
vn -0.866025 0 0.5
vn 0 0 1
vn 0.866025 0 0.5
vn 0.866025 0 0.5
vn 0 0 -1
vn -0.866025 0 -0.5
vn -0.866025 0 -0.5
vn -0.866025 0 0.5
vn -0.866025 0 0.5
vn -0.866025 0 0.5
vn -0.866025 0 0.5
vn -0.866025 0 0.5
vn -0.866025 0 0.5
vn 0.866025 0 0.5
vn 0.866025 0 0.5
vn 0.866025 0 -0.5
vn 0.866025 0 -0.5
vn 0.866025 0 0.5
vn 0.866025 0 0.5
vn 0.866025 0 0.5
vn 0.866025 0 -0.5
vn 0.866025 0 -0.5
vn 0.866025 0 -0.5
vn 0.866025 0 -0.5
vn 0.866025 0 -0.5
vn -0.866025 0 -0.5
vn -0.866025 0 -0.5
vn -0.866025 0 -0.5
vn -0.866025 0 0.5
vn -0.866025 0 0.5
vn 0.866025 0 -0.5
vn 0.866025 0 0.5
vn 0.866025 0 -0.5
vn 0.866025 0 0.5
vn 0.866025 0 -0.5
vn 0.866025 0 0.5
vn -0.866025 0 0.5
vn -0.866025 0 0.5
vn -0.866025 0 -0.5
vn -0.866025 0 -0.5
vn -0.866025 0 0.5
vn 0 1 0
vn 0.866025 0 0.5
vn 0.866025 0 0.5
vn 0.866025 0 0.5
vn 0.866025 0 -0.5
vn -0.866025 0 0.5
vn -0.866025 0 0.5
vn -0.866025 0 0.5
vn -0.866025 0 -0.5
vn -0.866025 0 -0.5
vn -0.866025 0 -0.5
vn -0.866025 0 -0.5
vn 0.866025 0 -0.5
vn 0.866025 0 -0.5
vn 0.866025 0 0.5
vn 0.866025 0 0.5
vn 0.866025 0 0.5
vn 0.866025 0 -0.5
vn 0.866025 0 -0.5
vn 0.866025 0 -0.5
vn -0.866025 0 0.5
vn 0.866025 0 0.5
vn 0.866025 0 0.5
vn -0.866025 0 0.5
vn -0.866025 0 -0.5
vn 0.866025 0 -0.5
vn 0.866025 0 0.5
vn 0.866025 0 0.5
vn 0.866025 0 0.5

f 1/1/1 2/2/1 3/3/1 4/4/1 5/5/1 6/6/1
f 7/7/2 2/8/3 1/9/3 8/10/2
f 9/11/4 6/12/5 5/13/5 10/14/4
f 11/14/6 5/13/7 4/15/7 12/16/6
f 13/16/8 4/15/8 3/17/8 14/18/8
f 15/19/9 3/17/10 2/8/10 16/7/9
f 6/20/11 17/21/11 18/10/11 1/9/11
f 19/12/12 20/22/12 21/23/13 22/5/13
f 20/22/14 23/24/14 24/25/15 21/23/15
f 23/24/8 25/26/8 26/27/8 24/25/8
f 25/26/16 27/28/16 28/29/17 26/27/17
f 27/28/8 29/30/8 30/31/8 28/29/8
f 29/30/18 31/32/18 32/33/19 30/31/19
f 31/32/8 33/34/8 34/35/8 32/33/8
f 33/34/20 35/36/20 36/37/21 34/35/21
f 35/36/22 37/38/22 38/39/23 36/37/23
f 37/38/24 39/40/24 40/41/25 38/39/25
f 39/40/8 41/42/8 42/43/8 40/41/8
f 41/42/20 43/44/20 44/45/26 42/43/26
f 43/44/27 45/46/27 46/47/28 44/45/28
f 45/46/11 47/48/11 48/49/11 46/47/11
f 47/48/29 49/50/29 50/51/29 48/49/29
f 49/50/11 51/52/11 52/53/11 50/51/11
f 51/52/30 53/54/30 54/55/31 52/53/31
f 53/54/11 55/56/11 56/57/11 54/55/11
f 55/56/32 57/58/32 58/59/32 56/57/32
f 57/58/11 59/60/11 60/61/11 58/59/11
f 59/60/33 61/62/33 62/63/34 60/61/34
f 61/62/35 19/20/35 22/2/36 62/63/36
f 56/57/32 58/59/32 63/64/32 64/65/32
f 65/66/37 48/49/29 50/51/29 66/67/37
f 66/67/11 50/51/11 52/53/11 67/68/11
f 52/53/31 54/55/31 68/69/31 67/70/31
f 54/55/11 56/57/11 64/65/11 69/71/11
f 40/41/8 42/43/8 70/72/8 71/73/8
f 70/72/38 42/43/26 44/45/26 72/74/38
f 72/74/39 44/45/28 46/47/28 73/75/39
f 46/47/11 48/49/11 65/66/11 73/76/11
f 74/77/40 34/35/21 36/37/21 75/78/40
f 75/78/41 36/37/23 38/39/23 76/79/22
f 38/39/25 40/41/25 71/73/42 76/79/42
f 77/80/43 26/27/17 28/29/17 78/81/43
f 78/81/8 28/29/8 30/31/8 79/82/8
f 30/31/19 32/33/19 80/83/44 81/84/44
f 32/33/8 34/35/8 74/77/8 82/85/8
f 60/61/11 83/86/11 84/87/11 58/59/11
f 62/63/34 85/88/45 86/89/46 60/61/34
f 85/88/43 62/63/36 22/2/36 87/90/43
f 21/23/13 88/91/32 87/92/32 22/5/13
f 88/91/47 21/23/15 24/25/15 89/93/47
f 89/93/8 24/25/8 26/27/8 77/80/8
f 90/94/48 91/95/48 92/96/48 93/97/48
f 94/98/48 95/99/48 96/100/48 97/101/48 98/102/48
f 99/103/48 100/104/48 101/105/48 102/106/48 103/107/48
f 104/108/48 105/109/48 106/110/48 107/111/48
f 95/99/48 101/105/48 100/104/48 108/112/48 109/113/48 110/114/48 111/115/48 96/100/48
f 112/116/49 101/117/50 95/118/50 113/119/49
f 114/120/51 112/116/49 113/119/49 115/121/51
f 106/122/31 105/123/31 116/124/29 117/125/29
f 116/124/29 118/126/52 119/127/52 117/125/29
f 120/128/8 90/129/8 93/130/8 121/131/8
f 122/132/8 120/128/8 121/131/8 123/133/8
f 124/5/13 125/134/32 126/135/32 127/136/13
f 127/136/53 128/137/54 129/138/54 121/131/53
f 124/139/36 130/140/36 131/141/43 125/142/43
f 124/5/13 127/136/13 92/143/12 91/144/12
f 92/143/55 127/136/53 121/131/53 93/130/55
f 130/140/36 124/139/36 91/145/35 110/146/35
f 132/147/11 107/148/11 106/122/11 117/125/11
f 132/147/34 133/149/34 104/150/32 107/148/32
f 133/149/11 134/151/11 109/152/11 104/150/11
f 109/152/56 134/151/57 130/140/57 110/146/56
f 132/147/11 117/125/11 135/153/11 136/154/11
f 132/147/34 137/155/58 138/156/58 133/149/34
f 134/151/11 133/149/11 139/157/11 140/158/11
f 134/151/57 141/159/59 131/160/59 130/140/57
f 142/161/11 143/162/11 144/163/11 145/164/11
f 142/161/60 146/165/61 147/166/61 148/167/60
f 148/167/11 147/168/11 149/169/11 116/124/11
f 143/162/11 142/161/11 100/170/11 99/171/11
f 142/161/60 148/167/60 108/172/31 100/170/31
f 108/172/11 148/167/11 116/124/11 105/123/11
f 150/173/62 151/174/63 152/175/63 153/176/62
f 150/173/62 153/176/62 103/177/64 102/178/64
f 150/173/8 102/178/8 101/117/8 112/116/8
f 103/177/65 153/176/66 143/162/66 99/171/65
f 154/179/8 150/173/8 112/116/8 155/180/8
f 153/176/66 156/181/67 157/182/67 143/162/66
f 158/183/17 159/184/17 120/128/17 160/185/17
f 159/184/17 111/186/43 90/129/43 120/128/17
f 161/187/68 162/188/68 97/189/18 96/190/18
f 97/189/8 162/188/8 163/191/8 98/192/8
f 161/187/68 164/193/18 165/194/18 162/188/68
f 162/188/8 165/195/8 166/196/8 163/191/8
f 159/184/8 161/187/8 96/190/8 111/186/8
f 167/197/8 161/187/8 159/184/8 168/198/8
f 169/199/69 163/191/69 170/200/70 171/201/70
f 169/199/23 172/202/41 173/203/41 113/119/23
f 169/199/69 94/204/64 98/192/64 163/191/69
f 94/204/22 169/199/23 113/119/23 95/118/22
f 174/205/1 175/206/1 176/207/1 177/208/1
f 178/209/1 179/210/1 180/211/1 181/212/1
f 182/213/49 183/214/24 184/215/24 185/216/49
f 186/217/1 187/218/1 180/211/1 188/219/1
f 189/220/1 187/221/1 190/222/1 191/223/1
f 192/224/30 186/225/29 188/226/29 193/227/30
f 194/228/8 195/229/8 196/230/8 176/231/8
f 197/232/1 198/233/1 199/234/1 200/235/1
f 197/236/1 201/237/1 177/208/1 202/238/1
f 198/12/13 202/239/13 203/240/12 204/5/12
f 203/240/14 202/239/53 176/231/53 196/230/14
f 199/241/36 198/242/36 204/2/35 205/243/35
f 203/240/12 206/244/12 207/245/12 204/5/12
f 208/246/35 205/243/35 204/2/35 209/247/35
f 210/248/71 128/249/71 203/240/14 196/230/14
f 210/250/8 196/230/8 195/229/8 211/251/8
f 212/252/11 213/253/11 214/254/11 193/227/11
f 215/255/32 216/256/32 213/257/32 212/252/32
f 214/258/30 217/259/30 192/224/30 193/227/30
f 218/260/33 205/243/33 219/261/72 220/262/72
f 221/256/11 215/255/11 218/260/11 222/262/11
f 223/263/1 224/264/1 225/265/1 226/266/1
f 227/267/1 226/268/1 228/269/1 179/210/1
f 228/270/11 212/252/11 193/227/11 188/226/11
f 228/270/34 225/271/34 215/255/32 212/252/32
f 225/271/11 224/272/11 218/260/11 215/255/11
f 229/273/1 200/235/1 223/263/1 230/274/1
f 218/260/33 224/272/57 199/241/57 205/243/33
f 231/275/1 232/276/1 190/222/1 233/277/1
f 234/278/1 232/276/1 231/275/1 235/279/1
f 235/280/11 231/281/11 236/282/11 237/283/11
f 231/281/60 233/284/60 238/285/29 236/282/29
f 238/285/11 233/284/11 186/225/11 192/224/11
f 239/286/11 238/285/11 192/224/11 149/287/11
f 240/288/29 236/282/29 238/285/29 241/289/29
f 242/290/11 237/283/11 236/282/11 243/291/11
f 244/292/1 245/293/1 246/294/1 247/295/1
f 246/296/62 245/297/62 248/298/20 249/299/20
f 248/298/27 237/283/27 250/300/73 251/301/73
f 252/302/74 249/299/20 248/298/20 253/303/74
f 249/299/8 254/304/8 255/305/8 183/214/8
f 256/306/75 257/307/75 184/215/24 183/214/24
f 246/296/8 249/299/8 183/214/8 182/213/8
f 258/308/1 234/278/1 244/292/1 259/309/1
f 248/298/27 245/297/66 235/280/66 237/283/27
f 194/310/1 260/311/1 261/312/1 262/313/1
f 263/314/1 260/311/1 194/310/1 175/206/1
f 262/315/17 264/316/16 195/229/16 194/228/17
f 264/316/16 265/317/17 211/318/17 195/229/16
f 266/319/1 185/320/1 267/321/1 268/322/1
f 182/323/1 269/324/1 270/325/1 247/295/1
f 182/323/1 185/320/1 266/319/1 269/324/1
f 271/326/22 267/327/23 185/216/23 184/215/22
f 272/328/22 271/326/22 184/215/22 257/307/22
f 273/329/1 268/322/1 274/330/1 275/331/1
f 276/332/20 274/333/69 267/327/69 271/326/20
f 276/332/20 271/326/20 277/334/76 278/335/76
f 279/336/8 276/332/8 280/337/8 281/338/8
f 264/316/8 282/339/8 283/340/8 158/341/8
f 282/339/18 279/336/18 284/342/18 283/340/18
f 285/343/68 286/344/68 279/336/18 282/339/18
f 287/345/1 275/331/1 288/346/1 289/347/1
f 279/336/8 286/344/8 274/333/8 276/332/8
f 290/348/1 285/349/1 261/312/1 291/350/1
f 286/351/1 285/349/1 290/348/1 288/346/1
f 285/343/8 282/339/8 264/316/8 262/315/8
f 51/352/1 57/353/1 55/354/1 53/355/1
f 59/356/1 49/357/1 47/358/1
f 47/358/1 45/359/1 292/360/1
f 61/361/1 59/356/1 47/358/1 292/360/1 293/362/1
f 31/363/1 29/364/1 37/365/1 35/366/1 33/367/1
f 41/368/1 39/369/1 294/370/1 292/360/1 43/371/1
f 294/370/1 39/369/1 37/365/1 29/364/1 295/372/1
f 296/373/1 294/370/1 297/374/1
f 298/375/1 25/376/1 23/377/1 299/378/1
f 27/379/1 25/376/1 298/375/1 295/372/1
f 300/380/1 19/381/1 293/362/1
f 300/382/1 301/383/1 302/384/1 299/378/1 20/385/1
f 303/386/1 302/384/1 304/387/1