v 0.0982143 0 -0.0773237 0.396078 0.262745 0.129412
v 0.0267857 0 0.0463942 0.396078 0.262745 0.129412
v -0.116071 0 0.0463942 0.396078 0.262745 0.129412
v -0.1875 0 -0.0773237 0.396078 0.262745 0.129412
v -0.116071 0 -0.201042 0.396078 0.262745 0.129412
v 0.0267857 0 -0.201042 0.396078 0.262745 0.129412
v 0.0544756 0.25 -0.0773237 0.60404 0.672727 0.741414
v 0.00491639 0.25 0.00851543 0.60404 0.672727 0.741414
v -0.0942021 0.25 -0.163163 0.60404 0.672727 0.741414
v 0.00491639 0.25 -0.163163 0.60404 0.672727 0.741414
v 0.00491639 0.25 -0.163163 0.60404 0.672727 0.741414
v 0.0544756 0.25 -0.0773237 0.60404 0.672727 0.741414
v -0.143761 0.25 -0.0773237 0.60404 0.672727 0.741414
v -0.0942021 0.25 -0.163163 0.60404 0.672727 0.741414
v -0.0942021 0.25 0.00851543 0.60404 0.672727 0.741414
v -0.143761 0.25 -0.0773237 0.60404 0.672727 0.741414
v 0.00491639 0.25 0.00851543 0.60404 0.672727 0.741414
v 0.26262 0.25 0.247436 0.903529 0.793333 0.746667
v 0.191192 0.25 0.123718 0.903529 0.793333 0.746667
v 0.214286 0.325 0.123718 0.903529 0.793333 0.746667
v 0.285714 0.325 0.247436 0.903529 0.793333 0.746667
v 0.26262 0.25 0 0.903529 0.793333 0.746667
v 0.285714 0.325 0 0.903529 0.793333 0.746667
v 0.191192 0.25 -0.123718 0.903529 0.793333 0.746667
v 0.214286 0.325 -0.123718 0.903529 0.793333 0.746667
v 0.26262 0.25 -0.247436 0.903529 0.793333 0.746667
v 0.285714 0.325 -0.247436 0.903529 0.793333 0.746667
v 0.202739 0.25 -0.351154 0.903529 0.793333 0.746667
v 0.214286 0.325 -0.371154 0.903529 0.793333 0.746667
v 0.0598816 0.25 -0.351154 0.903529 0.793333 0.746667
v 0.0714286 0.325 -0.371154 0.903529 0.793333 0.746667
v -0.011547 0.25 -0.474872 0.903529 0.793333 0.746667
v 0 0.325 -0.494872 0.903529 0.793333 0.746667
v -0.13131 0.25 -0.474872 0.903529 0.793333 0.746667
v -0.142857 0.325 -0.494872 0.903529 0.793333 0.746667
v -0.202739 0.25 -0.351154 0.903529 0.793333 0.746667
v -0.214286 0.325 -0.371154 0.903529 0.793333 0.746667
v -0.345596 0.25 -0.351154 0.903529 0.793333 0.746667
v -0.357143 0.325 -0.371154 0.903529 0.793333 0.746667
v -0.405477 0.25 -0.247436 0.903529 0.793333 0.746667
v -0.428571 0.325 -0.247436 0.903529 0.793333 0.746667
v -0.334049 0.25 -0.123718 0.903529 0.793333 0.746667
v -0.357143 0.325 -0.123718 0.903529 0.793333 0.746667
v -0.405477 0.25 0 0.903529 0.793333 0.746667
v -0.428571 0.325 0 0.903529 0.793333 0.746667
v -0.345596 0.25 0.103718 0.903529 0.793333 0.746667
v -0.357143 0.325 0.123718 0.903529 0.793333 0.746667
v -0.202739 0.25 0.103718 0.903529 0.793333 0.746667
v -0.214286 0.325 0.123718 0.903529 0.793333 0.746667
v -0.13131 0.25 0.227436 0.903529 0.793333 0.746667
v -0.142857 0.325 0.247436 0.903529 0.793333 0.746667
v 0.011547 0.25 0.227436 0.903529 0.793333 0.746667
v 0 0.325 0.247436 0.903529 0.793333 0.746667
v 0.0829756 0.25 0.351154 0.903529 0.793333 0.746667
v 0.0714286 0.325 0.371154 0.903529 0.793333 0.746667
v 0.202739 0.25 0.351154 0.903529 0.793333 0.746667
v 0.214286 0.325 0.371154 0.903529 0.793333 0.746667
v 0.152702 0.475 -0.123718 0.718431 0.662353 0.655686
v 0.22413 0.475 0 0.718431 0.662353 0.655686
v 0.22413 0.475 0.247436 0.718431 0.662353 0.655686
v 0.152702 0.475 0.123718 0.718431 0.662353 0.655686
v 0.22413 0.475 0 0.718431 0.662353 0.655686
v 0.102221 0.475 0.31782 0.718431 0.662353 0.655686
v 0.030792 0.475 0.194102 0.718431 0.662353 0.655686
v 0.183494 0.475 0.31782 0.718431 0.662353 0.655686
v 0.183494 0.475 0.31782 0.718431 0.662353 0.655686
v -0.112065 0.475 0.194102 0.718431 0.662353 0.655686
v -0.183494 0.475 0.0703846 0.718431 0.662353 0.655686
v 0.030792 0.475 0.194102 0.718431 0.662353 0.655686
v -0.112065 0.475 0.194102 0.718431 0.662353 0.655686
v -0.326351 0.475 -0.31782 0.718431 0.662353 0.655686
v -0.183494 0.475 -0.31782 0.718431 0.662353 0.655686
v -0.366987 0.475 -0.247436 0.718431 0.662353 0.655686
v -0.326351 0.475 -0.31782 0.718431 0.662353 0.655686
v -0.295559 0.475 -0.123718 0.718431 0.662353 0.655686
v -0.366987 0.475 0 0.718431 0.662353 0.655686
v -0.295559 0.475 -0.123718 0.718431 0.662353 0.655686
v -0.326351 0.475 0.0703846 0.718431 0.662353 0.655686
v 0.22413 0.475 -0.247436 0.718431 0.662353 0.655686
v 0.183494 0.475 -0.31782 0.718431 0.662353 0.655686
v 0.0406366 0.475 -0.31782 0.718431 0.662353 0.655686
v 0.183494 0.475 -0.31782 0.718431 0.662353 0.655686
v -0.030792 0.475 -0.441538 0.718431 0.662353 0.655686
v 0.0406366 0.475 -0.31782 0.718431 0.662353 0.655686
v -0.112065 0.475 -0.441538 0.718431 0.662353 0.655686
v -0.183494 0.475 -0.31782 0.718431 0.662353 0.655686
v 0.0252405 1 -0.291154 0.0705882 0.203922 0.337255
v 0.12191 1 -0.123718 0.0705882 0.203922 0.337255
v 0.193338 1 -0.247436 0.0705882 0.203922 0.337255
v 0.168098 1 -0.291154 0.0705882 0.203922 0.337255
v -0.168098 1 -0.291154 0.0705882 0.203922 0.337255
v -0.046188 1 -0.414872 0.0705882 0.203922 0.337255
v -0.0966691 1 -0.414872 0.0705882 0.203922 0.337255
v -0.168098 1 0.0437179 0.0705882 0.203922 0.337255
v -0.264767 1 -0.123718 0.0705882 0.203922 0.337255
v -0.336195 1 0 0.0705882 0.203922 0.337255
v -0.310955 1 0.0437179 0.0705882 0.203922 0.337255
v 0.046188 1 0.167436 0.0705882 0.203922 0.337255
v 0.117617 1 0.291154 0.0705882 0.203922 0.337255
v 0.168098 1 0.291154 0.0705882 0.203922 0.337255
v 0.193338 1 0.247436 0.0705882 0.203922 0.337255
v 0.12191 1 0.123718 0.0705882 0.203922 0.337255
v -0.310955 1 -0.291154 0.0705882 0.203922 0.337255
v -0.336195 1 -0.247436 0.0705882 0.203922 0.337255
v -0.0966691 1 0.167436 0.0705882 0.203922 0.337255
v 0.193338 1 0 0.0705882 0.203922 0.337255
v -0.382383 0.775 0 0.348235 0.400392 0.473725
v -0.368527 0.73 0 0.403765 0.439686 0.50102
v -0.327121 0.73 0.0717179 0.403765 0.439686 0.50102
v -0.334049 0.775 0.0837179 0.348235 0.400392 0.473725
v -0.310955 0.775 -0.123718 0.348235 0.400392 0.473725
v -0.382383 0.775 -0.247436 0.348235 0.400392 0.473725
v -0.368527 0.73 -0.247436 0.403765 0.439686 0.50102
v -0.297098 0.73 -0.123718 0.403765 0.439686 0.50102
v -0.191192 0.775 -0.331154 0.348235 0.400392 0.473725
v -0.334049 0.775 -0.331154 0.348235 0.400392 0.473725
v -0.184264 0.73 -0.319154 0.403765 0.439686 0.50102
v -0.327121 0.73 -0.319154 0.403765 0.439686 0.50102
v -0.327121 0.73 -0.319154 0.403765 0.439686 0.50102
v -0.184264 0.73 0.0717179 0.403765 0.439686 0.50102
v -0.191192 0.775 0.0837179 0.348235 0.400392 0.473725
v -0.327121 0.73 0.0717179 0.403765 0.439686 0.50102
v -0.368527 0.73 0 0.403765 0.439686 0.50102
v -0.119763 0.775 0.207436 0.348235 0.400392 0.473725
v -0.184264 0.73 0.0717179 0.403765 0.439686 0.50102
v -0.112835 0.73 0.195436 0.403765 0.439686 0.50102
v -0.112835 0.73 0.195436 0.403765 0.439686 0.50102
v 0.0300222 0.73 0.195436 0.403765 0.439686 0.50102
v 0.023094 0.775 0.207436 0.348235 0.400392 0.473725
v 0.239526 0.775 0 0.348235 0.400392 0.473725
v 0.168098 0.775 0.123718 0.348235 0.400392 0.473725
v 0.154241 0.73 0.123718 0.403765 0.439686 0.50102
v 0.22567 0.73 0 0.403765 0.439686 0.50102
v -0.023094 0.775 -0.454872 0.348235 0.400392 0.473725
v -0.0300222 0.73 -0.442872 0.403765 0.439686 0.50102
v -0.112835 0.73 -0.442872 0.403765 0.439686 0.50102
v -0.119763 0.775 -0.454872 0.348235 0.400392 0.473725
v 0.0483346 0.775 -0.331154 0.348235 0.400392 0.473725
v -0.112835 0.73 -0.442872 0.403765 0.439686 0.50102
v -0.184264 0.73 -0.319154 0.403765 0.439686 0.50102
v 0.0414064 0.73 -0.319154 0.403765 0.439686 0.50102
v -0.0300222 0.73 -0.442872 0.403765 0.439686 0.50102
v 0.191192 0.775 -0.331154 0.348235 0.400392 0.473725
v 0.184264 0.73 -0.319154 0.403765 0.439686 0.50102
v 0.0414064 0.73 -0.319154 0.403765 0.439686 0.50102
v 0.239526 0.775 -0.247436 0.348235 0.400392 0.473725
v 0.22567 0.73 -0.247436 0.403765 0.439686 0.50102
v 0.184264 0.73 -0.319154 0.403765 0.439686 0.50102
v 0.168098 0.775 -0.123718 0.348235 0.400392 0.473725
v 0.154241 0.73 -0.123718 0.403765 0.439686 0.50102
v 0.22567 0.73 0 0.403765 0.439686 0.50102
v 0.154241 0.73 -0.123718 0.403765 0.439686 0.50102
v 0.22567 0.73 -0.247436 0.403765 0.439686 0.50102
v 0.101451 0.73 0.319154 0.403765 0.439686 0.50102
v 0.0945226 0.775 0.331154 0.348235 0.400392 0.473725
v 0.0300222 0.73 0.195436 0.403765 0.439686 0.50102
v 0.239526 0.775 0.247436 0.348235 0.400392 0.473725
v 0.22567 0.73 0.247436 0.403765 0.439686 0.50102
v 0.154241 0.73 0.123718 0.403765 0.439686 0.50102
v 0.191192 0.775 0.331154 0.348235 0.400392 0.473725
v 0.184264 0.73 0.319154 0.403765 0.439686 0.50102
v 0.22567 0.73 0.247436 0.403765 0.439686 0.50102
v 0.184264 0.73 0.319154 0.403765 0.439686 0.50102
v -0.382383 0.475 0 0.718431 0.662353 0.655686
v -0.374685 0.475 -0.0133333 0.718431 0.662353 0.655686
v -0.318653 0.475 0.0837179 0.718431 0.662353 0.655686
v -0.334049 0.475 0.0837179 0.718431 0.662353 0.655686
v -0.345596 0.55 0.103718 0.625882 0.596863 0.610196
v -0.405477 0.55 0 0.625882 0.596863 0.610196
v -0.327121 0.73 0.0717179 0.403765 0.439686 0.50102
v -0.368527 0.73 0 0.403765 0.439686 0.50102
v -0.295559 0.475 -0.123718 0.718431 0.662353 0.655686
v -0.303257 0.475 -0.110385 0.718431 0.662353 0.655686
v -0.382383 0.475 -0.247436 0.718431 0.662353 0.655686
v -0.374685 0.475 -0.260769 0.718431 0.662353 0.655686
v -0.310955 0.475 -0.123718 0.718431 0.662353 0.655686
v -0.334049 0.55 -0.123718 0.625882 0.596863 0.610196
v -0.405477 0.55 -0.247436 0.625882 0.596863 0.610196
v -0.368527 0.73 -0.247436 0.403765 0.439686 0.50102
v -0.297098 0.73 -0.123718 0.403765 0.439686 0.50102
v -0.297098 0.73 -0.123718 0.403765 0.439686 0.50102
v -0.368527 0.73 0 0.403765 0.439686 0.50102
v -0.345596 0.55 -0.351154 0.625882 0.596863 0.610196
v -0.368527 0.73 -0.247436 0.403765 0.439686 0.50102
v -0.327121 0.73 -0.319154 0.403765 0.439686 0.50102
v -0.341747 0.475 -0.31782 0.718431 0.662353 0.655686
v -0.334049 0.475 -0.331154 0.718431 0.662353 0.655686
v -0.191192 0.475 -0.331154 0.718431 0.662353 0.655686
v -0.19889 0.475 -0.31782 0.718431 0.662353 0.655686
v -0.202739 0.55 -0.351154 0.625882 0.596863 0.610196
v -0.366987 0.475 -0.247436 0.718431 0.662353 0.655686
v -0.326351 0.475 -0.31782 0.718431 0.662353 0.655686
v -0.202739 0.55 0.103718 0.625882 0.596863 0.610196
v -0.184264 0.73 0.0717179 0.403765 0.439686 0.50102
v -0.327121 0.73 0.0717179 0.403765 0.439686 0.50102
v -0.112065 0.475 0.194102 0.718431 0.662353 0.655686
v -0.127461 0.475 0.194102 0.718431 0.662353 0.655686
v -0.19889 0.475 0.0703846 0.718431 0.662353 0.655686
v -0.183494 0.475 0.0703846 0.718431 0.662353 0.655686
v -0.326351 0.475 0.0703846 0.718431 0.662353 0.655686
v -0.191192 0.475 0.0837179 0.718431 0.662353 0.655686
v -0.366987 0.475 0 0.718431 0.662353 0.655686
v -0.119763 0.475 0.207436 0.718431 0.662353 0.655686
v -0.13131 0.55 0.227436 0.625882 0.596863 0.610196
v 0.023094 0.475 0.207436 0.718431 0.662353 0.655686
v 0.011547 0.55 0.227436 0.625882 0.596863 0.610196
v -0.112835 0.73 0.195436 0.403765 0.439686 0.50102
v -0.184264 0.73 0.0717179 0.403765 0.439686 0.50102
v 0.0300222 0.73 0.195436 0.403765 0.439686 0.50102
v -0.112835 0.73 0.195436 0.403765 0.439686 0.50102
v 0.168098 0.475 0.123718 0.718431 0.662353 0.655686
v 0.239526 0.475 0 0.718431 0.662353 0.655686
v 0.26262 0.55 0 0.625882 0.596863 0.610196
v 0.191192 0.55 0.123718 0.625882 0.596863 0.610196
v 0.154241 0.73 0.123718 0.403765 0.439686 0.50102
v 0.22567 0.73 0 0.403765 0.439686 0.50102
v -0.127461 0.475 -0.441538 0.718431 0.662353 0.655686
v -0.119763 0.475 -0.454872 0.718431 0.662353 0.655686
v -0.023094 0.475 -0.454872 0.718431 0.662353 0.655686
v -0.015396 0.475 -0.441538 0.718431 0.662353 0.655686
v -0.13131 0.55 -0.474872 0.625882 0.596863 0.610196
v -0.011547 0.55 -0.474872 0.625882 0.596863 0.610196
v -0.112835 0.73 -0.442872 0.403765 0.439686 0.50102
v -0.0300222 0.73 -0.442872 0.403765 0.439686 0.50102
v -0.184264 0.73 -0.319154 0.403765 0.439686 0.50102
v -0.184264 0.73 -0.319154 0.403765 0.439686 0.50102
v 0.0414064 0.73 -0.319154 0.403765 0.439686 0.50102
v 0.0598816 0.55 -0.351154 0.625882 0.596863 0.610196
v -0.0300222 0.73 -0.442872 0.403765 0.439686 0.50102
v -0.112065 0.475 -0.441538 0.718431 0.662353 0.655686
v -0.183494 0.475 -0.31782 0.718431 0.662353 0.655686
v -0.030792 0.475 -0.441538 0.718431 0.662353 0.655686
v 0.0560326 0.475 -0.31782 0.718431 0.662353 0.655686
v 0.0406366 0.475 -0.31782 0.718431 0.662353 0.655686
v 0.0483346 0.475 -0.331154 0.718431 0.662353 0.655686
v 0.191192 0.475 -0.331154 0.718431 0.662353 0.655686
v 0.231828 0.475 -0.260769 0.718431 0.662353 0.655686
v 0.22413 0.475 -0.247436 0.718431 0.662353 0.655686
v 0.175796 0.475 -0.331154 0.718431 0.662353 0.655686
v 0.183494 0.475 -0.31782 0.718431 0.662353 0.655686
v 0.0560326 0.475 -0.31782 0.718431 0.662353 0.655686
v 0.202739 0.55 -0.351154 0.625882 0.596863 0.610196
v 0.26262 0.55 -0.247436 0.625882 0.596863 0.610196
v 0.239526 0.475 -0.247436 0.718431 0.662353 0.655686
v 0.22567 0.73 -0.247436 0.403765 0.439686 0.50102
v 0.154241 0.73 -0.123718 0.403765 0.439686 0.50102
v 0.191192 0.55 -0.123718 0.625882 0.596863 0.610196
v 0.184264 0.73 -0.319154 0.403765 0.439686 0.50102
v 0.22567 0.73 -0.247436 0.403765 0.439686 0.50102
v 0.154241 0.73 -0.123718 0.403765 0.439686 0.50102
v 0.168098 0.475 -0.123718 0.718431 0.662353 0.655686
v 0.1604 0.475 -0.137051 0.718431 0.662353 0.655686
v 0.1604 0.475 -0.137051 0.718431 0.662353 0.655686
v 0.231828 0.475 -0.0133333 0.718431 0.662353 0.655686
v 0.22413 0.475 0 0.718431 0.662353 0.655686
v 0.152702 0.475 -0.123718 0.718431 0.662353 0.655686
v 0.030792 0.475 0.194102 0.718431 0.662353 0.655686
v 0.109919 0.475 0.331154 0.718431 0.662353 0.655686
v 0.0945226 0.475 0.331154 0.718431 0.662353 0.655686
v 0.0829756 0.55 0.351154 0.625882 0.596863 0.610196
v 0.101451 0.73 0.319154 0.403765 0.439686 0.50102
v 0.0300222 0.73 0.195436 0.403765 0.439686 0.50102
v 0.152702 0.475 0.123718 0.718431 0.662353 0.655686
v 0.239526 0.475 0.247436 0.718431 0.662353 0.655686
v 0.231828 0.475 0.260769 0.718431 0.662353 0.655686
v 0.26262 0.55 0.247436 0.625882 0.596863 0.610196
v 0.22567 0.73 0.247436 0.403765 0.439686 0.50102
v 0.191192 0.475 0.331154 0.718431 0.662353 0.655686
v 0.175796 0.475 0.331154 0.718431 0.662353 0.655686
v 0.22413 0.475 0.247436 0.718431 0.662353 0.655686
v 0.202739 0.55 0.351154 0.625882 0.596863 0.610196
v 0.22567 0.73 0.247436 0.403765 0.439686 0.50102
v 0.184264 0.73 0.319154 0.403765 0.439686 0.50102
v 0.184264 0.73 0.319154 0.403765 0.439686 0.50102
v 0.101451 0.73 0.319154 0.403765 0.439686 0.50102
v 0.183494 0.475 0.31782 0.718431 0.662353 0.655686
v 0.102221 0.475 0.31782 0.718431 0.662353 0.655686
v 0.252298 0.25 0.265315 0.903529 0.793333 0.746667
v -0.153179 0.25 -0.436993 0.903529 0.793333 0.746667
v 0.104035 0.25 0.00851543 0.903529 0.793333 0.746667
v -0.257704 0.25 0.00851543 0.903529 0.793333 0.746667
v 0.00491639 0.25 0.00851543 0.903529 0.793333 0.746667
v 0.0544756 0.25 -0.0773237 0.903529 0.793333 0.746667
v -0.0942021 0.25 0.00851543 0.903529 0.793333 0.746667
v -0.301857 0.25 -0.351154 0.903529 0.793333 0.746667
v -0.252298 0.25 -0.265315 0.903529 0.793333 0.746667
v 0.00491639 0.25 -0.163163 0.903529 0.793333 0.746667
v -0.193321 0.25 -0.163163 0.903529 0.793333 0.746667
v -0.252298 0.25 -0.265315 0.903529 0.793333 0.746667
v -0.0942021 0.25 -0.163163 0.903529 0.793333 0.746667
v -0.143761 0.25 -0.0773237 0.903529 0.793333 0.746667

vt 1 0.5
vt 0.75 0
vt 0.25 0
vt 0 0.5
vt 0.25 1
vt 0.75 1
vt 0.833333 0
vt 0.833333 0.757576
vt 0.666667 0.757576
vt 0.666667 0
vt 0 0
vt 0.166667 0
vt 0.166667 0.757576
vt 0 0.757576
vt 1 0
vt 1 0.757576
vt 0.833333 0.757576
vt 0.333333 0
vt 0.333333 0.757576
vt 0.166667 0.757576
vt 0.5 0
vt 0.5 0.757576
vt 0.333333 0.757576
vt 0.0525485 0
vt 0.05 0.5
vt 0.105097 0
vt 0.1 0.5
vt 0.157645 0
vt 0.15 0.5
vt 0.210194 0
vt 0.2 0.5
vt 0.254247 0
vt 0.25 0.5
vt 0.306796 0
vt 0.3 0.5
vt 0.359344 0
vt 0.35 0.5
vt 0.403398 0
vt 0.4 0.5
vt 0.455946 0
vt 0.45 0.5
vt 0.508495 0
vt 0.5 0.5
vt 0.552548 0
vt 0.55 0.5
vt 0.605097 0
vt 0.6 0.5
vt 0.657645 0
vt 0.65 0.5
vt 0.701699 0
vt 0.7 0.5
vt 0.754247 0
vt 0.75 0.5
vt 0.806796 0
vt 0.8 0.5
vt 0.859344 0
vt 0.85 0.5
vt 0.911893 0
vt 0.9 0.5
vt 0.955946 0
vt 0.95 0.5
vt 1 0
vt 0.174068 0.833333
vt 0.116045 0.833333
vt 0 0.833333
vt 0.0580226 0.833333
vt 0.0580226 0.833333
vt 0.937439 0.833333
vt 0.879416 0.833333
vt 0.968719 0.833333
vt 0.937439 0.833333
vt 1 0.833333
vt 0.821394 0.833333
vt 0.763371 0.833333
vt 0.879416 0.833333
vt 0.821394 0.833333
vt 0.526742 0.833333
vt 0.468719 0.833333
vt 0.558023 0.833333
vt 0.526742 0.833333
vt 0.558023 0.833333
vt 0.616045 0.833333
vt 0.674068 0.833333
vt 0.616045 0.833333
vt 0.705348 0.833333
vt 0.232091 0.833333
vt 0.174068 0.833333
vt 0.263371 0.833333
vt 0.232091 0.833333
vt 0.321394 0.833333
vt 0.263371 0.833333
vt 0.379416 0.833333
vt 0.410697 0.833333
vt 0.379416 0.833333
vt 0.410697 0.833333
vt 0.468719 0.833333
vt 0.682555 0.824768
vt 0.86511 0.587616
vt 1 0.762847
vt 0.952334 0.824768
vt 0.317445 0.824768
vt 0.547666 1
vt 0.452334 1
vt 0.317445 0.350463
vt 0.13489 0.587616
vt 0 0.412384
vt 0.0476656 0.350463
vt 0.722114 0.175232
vt 0.857003 0
vt 0.952334 0
vt 1 0.0619212
vt 0.86511 0.237153
vt 0.0476656 0.824768
vt 0 0.762847
vt 0.452334 0.175232
vt 1 0.412384
vt 0.666112 0.5
vt 0.671769 0.2
vt 0.704837 0.2
vt 0.70358 0.5
vt 0.708023 1
vt 0.686102 1
vt 0.610741 0.5
vt 0.555371 0.5
vt 0.557256 0.2
vt 0.614512 0.2
vt 0.624068 1
vt 0.562034 1
vt 0.462532 0.5
vt 0.517902 0.5
vt 0.540113 1
vt 0.478079 1
vt 0.466931 0.2
vt 0.524187 0.2
vt 0.524187 0.2
vt 0.557256 0.2
vt 0.762094 0.2
vt 0.758951 0.5
vt 0.704837 0.2
vt 0.770057 1
vt 0.671769 0.2
vt 0.814322 0.5
vt 0.762094 0.2
vt 0.81935 0.2
vt 0.81935 0.2
vt 0.876606 0.2
vt 0.869692 0.5
vt 0.832091 1
vt 0.894124 1
vt 0.110741 0.5
vt 0.0553707 0.5
vt 0.0572562 0.2
vt 0.114512 0.2
vt 0.124068 1
vt 0.0620339 1
vt 0.369692 0.5
vt 0.376606 0.2
vt 0.409675 0.2
vt 0.407161 0.5
vt 0.416045 1
vt 0.394124 1
vt 0.332091 1
vt 0.314322 0.5
vt 0.409675 0.2
vt 0.466931 0.2
vt 0.31935 0.2
vt 0.376606 0.2
vt 0.258951 0.5
vt 0.270057 1
vt 0.262094 0.2
vt 0.31935 0.2
vt 0.221483 0.5
vt 0.229025 0.2
vt 0.262094 0.2
vt 0.166112 0.5
vt 0.186102 1
vt 0.248136 1
vt 0.171769 0.2
vt 0.114512 0.2
vt 0.171769 0.2
vt 0.229025 0.2
vt 0.933862 0.2
vt 0.925063 0.5
vt 0.876606 0.2
vt 0.956158 1
vt 0 0.2
vt 0.0572562 0.2
vt 0 1
vt 0.962532 0.5
vt 0.966931 0.2
vt 1 0.2
vt 1 0.5
vt 1 1
vt 0.978079 1
vt 0.966931 0.2
vt 0.933862 0.2
vt 0 0.421302
vt 0.012378 0.438265
vt 0.102476 0.314794
vt 0.0777196 0.314794
vt 0.666112 0
vt 0.70358 0
vt 0.701699 0.5
vt 0.657645 0.5
vt 0.70488 0.9
vt 0.671961 0.9
vt 0.13961 0.578698
vt 0.127232 0.561735
vt 0 0.736095
vt 0.012378 0.753058
vt 0.555371 0
vt 0.610741 0
vt 0.605097 0.5
vt 0.552548 0.5
vt 0.55732 0.9
vt 0.614641 0.9
vt 0.671961 0.9
vt 0.508495 0.5
vt 0.524401 0.9
vt 0.0653416 0.82564
vt 0.0777196 0.842603
vt 0.307427 0.842603
vt 0.295049 0.82564
vt 0.462532 0
vt 0.517902 0
vt 0.455946 0.5
vt 0.024756 0.736095
vt 0.0900976 0.82564
vt 0.754247 0.5
vt 0.7622 0.9
vt 0.70488 0.9
vt 0.434658 0.17436
vt 0.409902 0.17436
vt 0.295049 0.331757
vt 0.319805 0.331757
vt 0.0900976 0.331757
vt 0.295049 0.331757
vt 0.307427 0.314794
vt 0.758951 0
vt 0.024756 0.421302
vt 0.114854 0.578698
vt 0.127232 0.561735
vt 0.814322 0
vt 0.806796 0.5
vt 0.869692 0
vt 0.859344 0.5
vt 0.819521 0.9
vt 0.7622 0.9
vt 0.876841 0.9
vt 0.819521 0.9
vt 0.0553707 0
vt 0.110741 0
vt 0.105097 0.5
vt 0.0525485 0.5
vt 0.0573203 0.9
vt 0.114641 0.9
vt 0.409902 0.983037
vt 0.42228 1
vt 0.57772 1
vt 0.590098 0.983037
vt 0.369692 0
vt 0.407161 0
vt 0.403398 0.5
vt 0.359344 0.5
vt 0.40976 0.9
vt 0.376841 0.9
vt 0.467081 0.9
vt 0.524401 0.9
vt 0.40976 0.9
vt 0.319521 0.9
vt 0.306796 0.5
vt 0.376841 0.9
vt 0.434658 0.983037
vt 0.319805 0.82564
vt 0.295049 0.82564
vt 0.565342 0.983037
vt 0.704951 0.82564
vt 0.680195 0.82564
vt 0.314322 0
vt 0.92228 0.842603
vt 0.987622 0.753058
vt 0.975244 0.736095
vt 0.897524 0.842603
vt 0.909902 0.82564
vt 0.704951 0.82564
vt 0.692573 0.842603
vt 0.254247 0.5
vt 0.258951 0
vt 0.210194 0.5
vt 0.221483 0
vt 0.229281 0.9
vt 0.171961 0.9
vt 0.157645 0.5
vt 0.2622 0.9
vt 0.2622 0.9
vt 0.319521 0.9
vt 0.171961 0.9
vt 0.885146 0.578698
vt 0.872768 0.595661
vt 1 0.736095
vt 0.872768 0.595661
vt 0.987622 0.438265
vt 0.975244 0.421302
vt 0.86039 0.578698
vt 0.166112 0
vt 0.651988 0.157397
vt 0.664366 0.17436
vt 0.791597 0
vt 0.766841 0
vt 0.42228 0.157397
vt 0.925063 0
vt 0.911893 0.5
vt 0.934161 0.9
vt 0.876841 0.9
vt 0.86039 0.263905
vt 0.885146 0.263905
vt 1 0.106508
vt 0.987622 0.0895449
vt 1 0.421302
vt 0.0573203 0.9
vt 0 0.9
vt 0.92228 0
vt 0.897524 0
vt 0.975244 0.106508
vt 0.955946 0.5
vt 0.962532 0
vt 1 0.9
vt 0.967081 0.9
vt 0.967081 0.9
vt 0.934161 0.9
vt 0.909902 0.016963
vt 0.779219 0.016963
vt 0.893087 0.574887
vt 0.696543 0.850225
vt 0.91037 0.850225
vt 1 0.724662
vt 1 0.425113
vt 0.893087 0.275338
vt 0.41037 1
vt 0.58963 1
vt 1 0.125563
vt 0.98455 0.103918
vt 0.377636 0.954143
vt 0.762631 0.414804
vt 0.624197 0.149775
vt 0.41037 0.149775
vt 0.221186 0.414804
vt 0.91037 0
vt 0.73111 0
vt 0.614272 0.414804
vt 0.688452 0.518722
vt 0 0.425113
vt 0.106913 0.574887
vt 0.303457 0.29955
vt 0.08963 0.29955
vt 0.465913 0.414804
vt 0 0.724662
vt 0.08963 0.850225
vt 0.155097 0.850225
vt 0.303457 0.850225
vt 0.229277 0.746307
vt 0.614272 0.62264
vt 0.317554 0.62264
vt 0.229277 0.746307
vt 0.465913 0.62264
vt 0.391733 0.518722

vn 0 -1 0
vn 0.866025 0 0.5
vn 0.866025 0 0.5
vn 0 0 -1
vn 0.866025 0 -0.5
vn 0.866025 0 -0.5
vn 0.866025 0 -0.5
vn -0.866025 0 -0.5
vn -0.866025 0 -0.5
vn -0.866025 0 -0.5
vn -0.866025 0 0.5
vn -0.866025 0 0.5
vn 0 0 1
vn 0.866025 0 -0.5
vn 0.866025 0 -0.5
vn 0.866025 0 0.5
vn 0.866025 0 0.5
vn 0.866025 0 -0.5
vn 0.866025 0 -0.5
vn 0.866025 0 0.5
vn 0.866025 0 0.5
vn 0.866025 0 -0.5
vn 0.866025 0 -0.5
vn 0.866025 0 -0.5
vn 0.866025 0 -0.5
vn -0.866025 0 -0.5
vn -0.866025 0 -0.5
vn -0.866025 0 -0.5
vn -0.866025 0 0.5
vn -0.866025 0 0.5
vn -0.866025 0 -0.5
vn -0.866025 0 -0.5
vn -0.866025 0 0.5
vn -0.866025 0 0.5
vn -0.866025 0 0.5
vn -0.866025 0 0.5
vn -0.866025 0 0.5
vn -0.866025 0 0.5
vn 0.866025 0 0.5
vn 0.866025 0 0.5
vn 0.866025 0 -0.5
vn 0.866025 0 -0.5
vn 0.866025 0 -0.5
vn 0.866025 0 0.5
vn -0.866025 0 0.5
vn 0.866025 0 0.5
vn -0.866025 0 0.5
vn -0.866025 0 -0.5
vn -0.866025 0 0.5
vn -0.866025 0 0.5
vn 0.866025 0 0.5
vn 0.866025 0 0.5
vn 0.866025 0 -0.5
vn 0.866025 0 -0.5
vn 0 1 0
vn -0.866025 0 0.5
vn -0.866025 0 0.5
vn -0.866025 0 0.5
vn -0.866025 0 -0.5
vn -0.866025 0 -0.5
vn -0.866025 0 -0.5
vn 0.866025 0 0.5
vn -0.866025 0 -0.5
vn 0.866025 0 -0.5
vn 0.866025 0 -0.5
vn 0.866025 0 -0.5
vn 0.866025 0 -0.5
vn -0.866025 0 0.5
vn 0.866025 0 0.5
vn 0.866025 0 0.5
vn 0.866025 0 0.5
vn -0.866025 0 0.5
vn -0.866025 0 -0.5
vn 0.866025 0 -0.5
vn 0.866025 0 0.5

f 1/1/1 2/2/1 3/3/1 4/4/1 5/5/1 6/6/1
f 1/7/2 7/8/3 8/9/3 2/10/2
f 6/11/4 5/12/4 9/13/4 10/14/4
f 6/15/5 11/16/6 12/17/7 1/7/5
f 4/18/8 13/19/9 14/20/10 5/12/8
f 3/21/11 15/22/12 16/23/12 4/18/11
f 15/22/13 3/21/13 2/10/13 17/9/13
f 18/11/14 19/24/14 20/25/15 21/4/15
f 19/24/16 22/26/16 23/27/17 20/25/17
f 22/26/18 24/28/18 25/29/19 23/27/19
f 24/28/20 26/30/20 27/31/21 25/29/21
f 26/30/22 28/32/22 29/33/23 27/31/23
f 28/32/4 30/34/4 31/35/4 29/33/4
f 30/34/24 32/36/24 33/37/25 31/35/25
f 32/36/4 34/38/4 35/39/4 33/37/4
f 34/38/26 36/40/26 37/41/26 35/39/26
f 36/40/4 38/42/4 39/43/4 37/41/4
f 38/42/27 40/44/27 41/45/28 39/43/28
f 40/44/29 42/46/29 43/47/30 41/45/30
f 42/46/31 44/48/31 45/49/32 43/47/32
f 44/48/33 46/50/33 47/51/34 45/49/34
f 46/50/13 48/52/13 49/53/13 47/51/13
f 48/52/35 50/54/35 51/55/36 49/53/36
f 50/54/13 52/56/13 53/57/13 51/55/13
f 52/56/37 54/58/37 55/59/38 53/57/38
f 54/58/13 56/60/13 57/61/13 55/59/13
f 56/60/39 18/62/39 21/1/40 57/61/40
f 23/27/19 25/29/19 58/63/41 59/64/41
f 60/65/42 21/4/15 20/25/15 61/66/43
f 20/25/17 23/27/17 62/64/44 61/67/44
f 63/68/45 64/69/45 53/57/38 55/59/38
f 65/70/13 63/71/13 55/59/13 57/61/13
f 60/72/46 66/70/46 57/61/40 21/1/40
f 49/53/36 51/55/36 67/73/47 68/74/47
f 51/55/13 53/57/13 69/75/13 70/76/13
f 71/77/4 72/78/4 37/41/4 39/43/4
f 73/79/48 74/80/48 39/43/28 41/45/28
f 73/81/47 41/45/30 43/47/30 75/82/47
f 45/49/32 76/83/26 77/84/26 43/47/32
f 76/83/49 45/49/34 47/51/34 78/85/50
f 47/51/13 49/53/13 68/74/13 78/85/13
f 79/86/51 58/87/52 25/29/21 27/31/21
f 80/88/53 79/89/54 27/31/23 29/33/23
f 31/35/4 81/90/4 82/91/4 29/33/4
f 33/37/25 83/92/25 84/90/25 31/35/25
f 85/93/4 83/94/4 33/37/4 35/39/4
f 85/95/26 35/39/26 37/41/26 86/96/26
f 87/97/55 88/98/55 89/99/55 90/100/55
f 91/101/55 87/97/55 92/102/55 93/103/55
f 94/104/55 95/105/55 96/106/55 97/107/55
f 98/108/55 99/109/55 100/110/55 101/111/55 102/112/55
f 87/97/55 103/113/55 104/114/55 105/115/55 98/108/55 102/112/55 106/116/55
f 107/117/56 108/118/57 109/119/57 110/120/56
f 107/117/56 110/120/56 97/121/58 96/122/58
f 111/123/30 112/124/30 113/125/47 114/126/47
f 112/124/30 111/123/30 95/127/29 104/128/29
f 115/129/4 116/130/4 103/131/4 91/132/4
f 103/131/59 116/130/60 112/124/60 104/128/59
f 116/130/4 115/129/4 117/133/4 118/134/4
f 116/130/60 119/135/61 113/136/61 112/124/60
f 120/137/13 121/138/13 110/120/13 122/139/13
f 121/138/13 94/140/13 97/121/13 110/120/13
f 111/123/32 114/126/26 123/141/26 107/117/32
f 95/127/31 111/123/32 107/117/32 96/122/31
f 124/142/36 121/138/36 125/143/36 126/144/36
f 124/142/13 127/145/13 128/146/13 129/147/13
f 124/142/36 105/148/47 94/140/47 121/138/36
f 124/142/13 129/147/13 98/149/13 105/148/13
f 130/150/17 131/151/17 132/152/62 133/153/62
f 131/151/17 130/150/17 106/154/16 102/155/16
f 134/156/4 135/157/4 136/158/4 137/159/4
f 134/156/4 137/159/4 93/160/4 92/161/4
f 87/162/25 138/163/23 134/156/23 92/161/25
f 93/160/26 137/159/28 115/129/28 91/132/26
f 137/159/28 139/164/63 140/165/63 115/129/28
f 138/163/23 141/166/64 142/167/64 134/156/23
f 143/168/4 138/163/4 87/162/4 90/169/4
f 143/168/4 144/170/4 145/171/4 138/163/4
f 146/172/65 147/173/66 148/174/66 143/168/65
f 149/175/19 88/176/18 106/154/18 130/150/19
f 89/177/20 88/176/20 149/175/21 146/172/21
f 89/177/67 146/172/65 143/168/65 90/169/67
f 150/178/64 149/175/19 130/150/19 151/179/64
f 149/175/21 152/180/51 153/181/51 146/172/21
f 154/182/37 155/183/68 129/147/68 156/184/37
f 155/183/68 99/185/37 98/149/37 129/147/68
f 157/4/15 158/186/42 159/187/42 131/151/15
f 157/4/15 131/151/15 102/155/14 101/188/14
f 160/189/69 161/190/70 162/191/70 157/192/69
f 160/189/69 157/192/69 101/193/71 100/194/71
f 160/189/13 100/194/13 99/185/13 155/183/13
f 163/195/13 160/189/13 155/183/13 154/196/13
f 164/197/1 165/198/1 166/199/1 167/200/1
f 164/201/56 167/202/56 168/203/33 169/204/33
f 168/203/33 170/205/72 171/206/72 169/204/33
f 172/207/1 173/208/1 174/209/1 175/210/1
f 174/211/30 176/212/30 177/213/29 178/214/29
f 179/215/29 178/214/29 177/213/29 180/216/29
f 181/216/31 177/213/31 169/204/31 182/217/31
f 183/218/27 178/214/27 184/215/73 185/219/73
f 186/220/1 187/221/1 188/222/1 189/223/1
f 188/224/4 187/225/4 183/218/4 190/226/4
f 191/227/1 175/210/1 186/220/1 192/228/1
f 183/218/27 187/225/60 174/211/60 178/214/27
f 193/229/13 194/230/13 195/231/13 168/203/13
f 196/232/1 197/233/1 198/234/1 199/235/1
f 166/199/1 200/236/1 198/237/1 201/238/1
f 201/239/13 193/229/13 168/203/13 167/202/13
f 202/240/1 165/198/1 176/241/1 173/242/1
f 177/213/31 176/212/32 164/201/32 169/204/31
f 203/243/36 204/244/35 193/229/35 201/239/36
f 203/243/13 205/245/13 206/246/13 204/244/13
f 204/244/35 207/247/36 208/248/36 193/229/35
f 206/246/13 209/249/13 210/250/13 204/244/13
f 211/251/17 212/252/17 213/253/16 214/254/16
f 215/255/16 214/254/16 213/253/16 216/256/16
f 217/257/1 218/258/1 219/259/1 220/260/1
f 219/261/4 218/262/4 221/263/4 222/264/4
f 222/264/4 221/263/4 223/265/4 224/266/4
f 225/267/4 190/226/4 183/218/4 118/268/4
f 226/267/26 223/269/26 221/263/26 190/226/26
f 227/270/24 228/271/24 222/264/24 229/272/24
f 217/257/1 230/273/1 231/274/1 189/275/1
f 221/263/26 218/262/28 188/224/28 190/226/26
f 232/276/1 220/260/1 233/277/1 234/278/1
f 228/271/24 235/279/23 219/261/23 222/264/24
f 236/280/1 237/281/1 238/282/1 239/283/1
f 239/283/1 240/284/1 241/285/1 235/286/1
f 242/287/4 236/288/4 235/279/4 228/271/4
f 243/289/22 244/290/65 236/288/65 242/287/22
f 245/291/20 246/292/20 247/293/20 243/289/20
f 248/294/74 249/291/74 243/289/22 242/287/22
f 248/295/4 242/287/4 228/271/4 227/296/4
f 247/293/18 250/297/18 133/256/18 213/253/18
f 251/298/1 252/299/1 237/281/1 244/300/1
f 253/301/1 254/302/1 255/303/1 256/304/1
f 251/305/19 247/293/18 213/253/18 212/252/19
f 247/293/20 251/305/21 244/290/21 243/289/20
f 205/306/1 257/307/1 258/308/1 259/309/1
f 197/233/1 257/307/1 205/306/1 203/310/1
f 259/311/68 260/312/37 206/246/37 205/245/68
f 260/312/37 261/313/37 262/314/37 206/246/37
f 263/315/1 211/316/1 264/317/1 265/318/1
f 212/319/1 211/316/1 263/315/1 254/302/1
f 266/4/14 264/11/15 211/251/15 214/254/14
f 266/4/14 214/254/14 159/320/14 267/321/14
f 268/322/1 269/323/1 270/324/1 265/318/1
f 271/325/39 268/326/69 264/62/69 266/192/39
f 271/325/39 266/192/39 272/327/75 273/328/75
f 271/325/13 274/329/13 275/330/13 260/312/13
f 276/331/1 269/323/1 258/308/1 277/332/1
f 268/326/13 271/325/13 260/312/13 259/311/13
f 24/333/1 30/334/1 28/335/1 26/336/1
f 22/337/1 19/338/1 34/339/1 32/340/1
f 19/338/1 18/341/1 278/342/1
f 19/338/1 278/342/1 279/343/1 34/339/1
f 280/344/1 52/345/1 50/346/1 281/347/1
f 56/348/1 54/349/1 52/345/1 280/344/1 278/342/1
f 280/344/1 282/350/1 283/351/1
f 44/352/1 42/353/1 48/354/1 46/355/1
f 284/356/1 281/347/1 40/357/1 38/358/1 285/359/1
f 285/359/1 36/360/1 286/361/1
f 279/343/1 287/362/1 288/363/1 289/364/1
f 288/363/1 290/365/1 291/366/1